#N canvas 416 137 801 404 10;
#X obj 0 0 cnv 15 800 45 empty \$0-pddp.cnv.header chorus 3 12 0 18
-204280 -1 0;
#X obj 18 202 cnv 3 363 5 empty \$0-pddp.cnv.inlets empty 8 12 0 13
-228856 -1 0;
#X obj 543 58 chorus 1;
#X text 416 257 [chorus] ist ein Effekt \, der klingt als würde das
einkommende Audiosignal vervielfacht. Wie bei einem gemeinsam singenden
Chor. Dadurch klingt das Signal in der Regel fetter.;
#X text 415 326 'Wet' bestimmt \, wieviel Chorus auf das eingehende
Signal angewendet wird. 'Depth' regelt die Tiefe der Modulation. Je
tiefer \, desto stärker der Effekt. 'speed' regelt die Geschwindigkeit
der Modulation \, durch die sich der Klang verändert.;
#X text 18 51 EINGANG 1: Audiosignal \, das verarbeitet werden soll
;
#X text 10 25 Ein Effekt \, der aus einer Stimme mehrere macht, f
116;
#X text 19 87 EINGANG 2: Steuert den Regler 'wet' (in Mididaten \,
z.B. von [modu] \, [modurand] \, [control] \, etc.);
#X text 19 122 EINGANG 3: Steuert den Regler 'depth' (in Mididaten
\, z.B. von [modu] \, [modurand] \, [control] \, etc.);
#X text 19 159 EINGANG 4: Steuert den Regler 'speed' (in Mididaten
\, z.B. von [modu] \, [modurand] \, [control] \, etc.);
#X text 18 224 AUSGANG 1: Gibt das mit Choruseffekt versehene Signal
aus.;
