#N canvas 341 312 810 355 10;
#X obj 0 0 cnv 15 800 45 empty \$0-pddp.cnv.header delayertoo 3 12
0 18 -204280 -1 0;
#X obj 17 212 cnv 3 363 5 empty \$0-pddp.cnv.inlets empty 8 12 0 13
-228856 -1 0;
#X text 19 51 EINGANG 1: Audiosignal \, das verarbeitet werden soll.
;
#X text 10 25 Echoeffekt, f 116;
#X text 19 87 EINGANG 2: Steuert den Regler 'Feedback' (in Mididaten
\, z.B. von [modu] \, [modurand] \, [control] \, etc.);
#X text 18 125 EINGANG 3: Steuert den Regler 'Time' (in Mididaten \,
z.B. von [modu] \, [modurand] \, [control] \, etc.);
#X text 17 233 AUSGANG 1: Gibt das mit Echoeffekt versehene Signal
aus.;
#X obj 517 55 delayertoo;
#X text 18 169 EINGANG 4: Steuert den Regler 'dry/wet' (in Mididaten
\, z.B. von [modu] \, [modurand] \, [control] \, etc.);
#X text 414 250 [delayer] ist ein Echoeffekt. Es erzeugt Wiederholungen
des eingehenden Signals. Diese Wiederholungen werden nach der unter
'time' eingestellten Verzoegerungszeit abgespielt. Der Regler 'Feedback'
regelt die Anzahl der abgespielten Wiederholungen. 'dry/wet' regelt
das Verhaeltnis von Original und Echos im Ausgangssignal.;
