#N canvas 341 312 801 249 10;
#X obj 0 0 cnv 15 800 45 empty \$0-pddp.cnv.header down 3 12 0 18 -204280
-1 0;
#X obj 17 176 cnv 3 363 5 empty \$0-pddp.cnv.inlets empty 8 12 0 13
-228856 -1 0;
#X text 19 51 EINGANG 1: Audiosignal \, das verarbeitet werden soll.
;
#X obj 517 55 down 1;
#X text 19 87 EINGANG 2: Steuert den Regler 'down' (in Mididaten \,
z.B. von [modu] \, [modurand] \, [control] \, etc.);
#X text 18 125 EINGANG 3: Steuert den Schalter 'an' (0=aus \, 1=an
\, bzw. bang für an/aus);
#X text 17 201 AUSGANG 1: Gibt das mit Effekt versehene Signal aus.
;
#X text 414 187 [down] ist ein Downsampling-Effekt. Die Qualität des
eingehenden Signals wird reduziert \, wodurch dem Klang neue Anteile
beigefügt werden.;
#X text 10 25 Downsampling, f 116;
