#N canvas 308 110 801 600 10;
#X obj 0 0 cnv 15 800 45 empty \$0-pddp.cnv.header glocken 3 12 0 18
-204280 -1 0;
#X obj 18 471 cnv 3 363 5 empty \$0-pddp.cnv.inlets empty 8 12 0 13
-228856 -1 0;
#X obj 468 61 glocken 1;
#X text 425 517 Auch ohne eingehende Steuerdaten kann ein Ton ausgelöst
und in seiner Tonhöhe verändert werden. Schließlich kann dieser
Ton gegen andere Klänge verstimmt werden und in seiner Lautstärkehüllkurve
bearbeitet werden.;
#X text 426 393 Durch Herumspielen mit den Reglern unter Mod:1 und
Mod:2 (Int und tune) \, können schnell überraschende Klangresultate
erzielt werden.;
#X text 425 453 [glocken] erzeugt ganz ähnlich wie [osci] Töne und
muss genauso behandelt werden: Am linken Eingang empfängt es Steuerdaten
für die Töne (z.B. von [midiinput] oder [sequenzer]). Links unten
gibt es sein Audiosignal aus.;
#X text 20 58 EINGANG 1: Tonhöhe in Hz (z.B. von [midiinput] \, [sequenzer]
\, etc.);
#X text 19 92 EINGANG 2: Der Schalter 'Ton' wird ausgelöst (z.B. von
[taste] \, [banger] \, [pad] \, etc.);
#X text 18 129 EINGANG 3: Steuert den Regler 'Frequenz' (in Mididaten
\, z.B. von [modu] \, [modurand] \, [control] \, etc.);
#X text 18 164 EINGANG 4: Steuert den Regler 'Mod:1-Int' (in Mididaten
\, z.B. von [modu] \, [modurand] \, [control] \, etc.);
#X text 18 200 EINGANG 5: Steuert den Regler 'Mod:1-tune' (in Mididaten
\, z.B. von [modu] \, [modurand] \, [control] \, etc.);
#X text 16 237 EINGANG 6: Steuert den Regler 'Mod:2-Int' (in Mididaten
\, z.B. von [modu] \, [modurand] \, [control] \, etc.);
#X text 17 272 EINGANG 7: Steuert den Regler 'Mod:2-tune' (in Mididaten
\, z.B. von [modu] \, [modurand] \, [control] \, etc.);
#X text 17 314 EINGANG 8: Steuert den Regler 'Attack' (in Mididaten
\, z.B. von [modu] \, [modurand] \, [control] \, etc.);
#X text 17 348 EINGANG 9: Steuert den Regler 'Sustain' (in Mididaten
\, z.B. von [modu] \, [modurand] \, [control] \, etc.);
#X text 17 383 EINGANG 10: Steuert den Regler 'Release/Decay' (in Mididaten
\, z.B. von [modu] \, [modurand] \, [control] \, etc.);
#X text 17 418 EINGANG 11: Steuert den Regler 'detune' (in Mididaten
\, z.B. von [modu] \, [modurand] \, [control] \, etc.);
#X text 10 25 Sounds aus Frequenzmodulation, f 116;
#X text 428 339 Das Modul erzeugt seine Klänge durch die sogenannte
Frequenzmodulation \, eine recht komplizierte Art der elektronischen
Klangerzeugung.;
#X text 22 501 AUSGANG 1: Gibt das erzeugte Signal aus.;
#X text 427 287 [glocken] ist zuerst dafür gedacht \, glockenähnliche
Töne zu erzeugen. Mit den richtigen Einstellungen können allerdings
auch andere \, außergewöhnliche Klänge erzeugt werden.;
