#N canvas 319 138 799 422 10;
#X obj 0 0 cnv 15 800 45 empty \$0-pddp.cnv.header graindelay 3 12
0 18 -204280 -1 0;
#X obj 17 251 cnv 3 363 5 empty \$0-pddp.cnv.inlets empty 8 12 0 13
-228856 -1 0;
#X text 19 51 EINGANG 1: Audiosignal \, das verarbeitet werden soll.
;
#X text 19 87 EINGANG 2: Steuert den Regler 'Feedback' (in Mididaten
\, z.B. von [modu] \, [modurand] \, [control] \, etc.);
#X text 18 125 EINGANG 3: Steuert den Regler 'Time' (in Mididaten \,
z.B. von [modu] \, [modurand] \, [control] \, etc.);
#X text 17 273 AUSGANG 1: Gibt das mit Echoeffekt versehene Signal
aus.;
#X text 10 25 granularer Echoeffekt, f 116;
#X obj 517 55 graindelay 1;
#X text 18 160 EINGANG 4: Steuert den Regler 'Jitter' (in Mididaten
\, z.B. von [modu] \, [modurand] \, [control] \, etc.);
#X text 18 201 EINGANG 5: Steuert den Regler 'Volume' (in Mididaten
\, z.B. von [modu] \, [modurand] \, [control] \, etc.);
#X text 414 250 [graindelay] ist ein Echoeffekt \, der außerdem besondere
Soundseffekte durch Prinzipien granularer Synthese erzeugen kann. Es
werden Wiederholungen des eingehenden Signals erzeugt. Diese Widerholungen
werden nach der unter 'time' eingestellten Verzögerungszeit abgespielt.
Der Regler 'Feedback' regelt die Anzahl der abgespielten Wiederholungen.
'Volume' bestimmt die Gesamtlautstärke des Echos. Mit 'Jitter' kann
schließlich ein granularer Klangeffekt zum Echo hinzugefügt werden.
Die Abspiellänge und Abspielabfolge des Echos wird zufällig verändert
\, sodass das Echo 'zittert'.;
