#N canvas 360 20 703 798 10;
#X obj 430 104 cursor;
#X obj 430 162 route x y;
#X obj 430 6 tgl 15 0 empty empty empty 17 7 0 10 -262144 -1 -1 1 1
;
#X floatatom 519 202 5 0 0 1 mousewheel - -, f 5;
#X obj 430 128 route motion mousewheel button;
#X text 449 3 turn on to get mouse motion and buttons;
#X obj 548 154 route 1 2 3;
#X obj 548 174 tgl 15 0 empty empty empty 17 7 0 10 -262144 -1 -1 0
1;
#X obj 569 174 tgl 15 0 empty empty empty 17 7 0 10 -262144 -1 -1 0
1;
#X text 461 22 Purr Data Note: the [cursor] convenience abstraction
still receives mouse motion data even when the toggle is off. It just
doesn't forward it to the outlet.;
#X obj 430 -38 loadbang;
#X obj 43 297 outlet;
#X obj 96 295 outlet;
#X obj 402 210 / 1;
#X obj 395 279 * 127;
#X obj 455 202 / 1;
#X obj 453 241 * 127;
#X obj 101 102 cnv 15 180 160 empty empty maus 18 19 0 24 -99865 -260097
0;
#X text 217 168 1366x768;
#X text 217 122 1920x1080;
#X text 217 153 1440x900;
#X text 217 137 1600x900;
#X text 217 183 1280x800;
#X text 217 198 1024x768;
#X obj 199 123 vradio 15 0 0 6 \$0res_s \$0res_r Auflösung 0 -12 0
12 -199729 -260097 -262144 2;
#X floatatom 101 243 5 0 0 0 - - -, f 5;
#X floatatom 138 243 5 0 0 0 - - -, f 5;
#X floatatom 175 243 5 0 0 0 - - -, f 5;
#X floatatom 212 243 5 0 0 0 - - -, f 5;
#X floatatom 249 243 5 0 0 0 - - -, f 5;
#X obj 112 228 cnv 5 5 5 empty empty X -1 1 0 14 -99865 -260097 0;
#X obj 149 228 cnv 5 5 5 empty empty Y -1 1 0 14 -99865 -260097 0;
#X obj 176 230 cnv 5 5 5 empty empty Wheel -1 1 0 10 -99865 -260097
0;
#X obj 333 -178 sel 0 1 2 3 4 5 6;
#X msg 295 -121 1920;
#X msg 313 -100 1080;
#X msg 346 -121 1600;
#X msg 363 -100 900;
#X msg 390 -122 1440;
#X msg 404 -103 900;
#X msg 432 -124 1366;
#X msg 446 -105 768;
#X msg 474 -125 1280;
#X msg 488 -106 800;
#X msg 513 -127 1024;
#X msg 527 -108 768;
#X obj 519 239 sel 1 -1;
#X msg 534 297 1;
#X msg 590 301 0;
#X obj 155 298 outlet;
#X obj 208 296 outlet;
#X obj 444 305 - 127;
#X obj 438 335 abs;
#X obj 261 296 outlet;
#N canvas -151 215 1423 821 \$0Screen 0;
#X restore 928 139 pd \$0Screen;
#X obj 440 280 / 0.97111;
#X msg 34 -34 vis 1;
#X obj 37 -71 bng 15 250 50 0 \$0openscreen_s \$0openscreen empty 17
7 0 10 -262144 -1 -1;
#X obj 33 -14 s pd-\$0Screen;
#X obj 131 161 bng 30 250 50 0 \$0openscreen \$0openscreen_r Screen
-7 38 0 12 -199729 -260097 -1;
#X obj 897 -113 loadbang;
#X obj 904 -54 s \$0res_r;
#X msg 906 -76 0;
#X obj 365 308 / 0.99921;
#X obj 862 262 r toolssavebank;
#X obj 1072 179 r toolssavebang;
#X obj 1236 363 f;
#X obj 1146 471 s toolssavelists;
#X obj 1101 283 f;
#X obj 864 380 route;
#X obj 1222 124 loadbang;
#X obj 1223 180 \$1;
#X obj 1222 152 del 5;
#X obj 1101 242 del;
#X obj 1097 332 t b f b;
#X obj 1146 428 pack s f f;
#X obj 857 467 s \$0res_r;
#X obj 1251 323 r \$0res_s;
#X obj 864 350 route maus;
#X obj 1093 381 symbol maus;
#X obj 579 241 sel 120 -120;
#X obj 217 229 cnv 5 5 5 empty empty Btn1 -1 1 0 10 -99865 -260097
0;
#X obj 254 229 cnv 5 5 5 empty empty Btn2 -1 1 0 10 -99865 -260097
0;
#X connect 0 0 4 0;
#X connect 1 0 13 0;
#X connect 1 1 15 0;
#X connect 2 0 0 0;
#X connect 3 0 46 0;
#X connect 3 0 80 0;
#X connect 4 0 1 0;
#X connect 4 1 3 0;
#X connect 4 2 6 0;
#X connect 6 0 7 0;
#X connect 6 1 8 0;
#X connect 7 0 28 0;
#X connect 8 0 29 0;
#X connect 10 0 2 0;
#X connect 13 0 14 0;
#X connect 14 0 63 0;
#X connect 15 0 16 0;
#X connect 16 0 55 0;
#X connect 24 0 33 0;
#X connect 25 0 11 0;
#X connect 26 0 12 0;
#X connect 27 0 49 0;
#X connect 28 0 50 0;
#X connect 29 0 53 0;
#X connect 33 0 34 0;
#X connect 33 0 35 0;
#X connect 33 1 36 0;
#X connect 33 1 37 0;
#X connect 33 2 38 0;
#X connect 33 2 39 0;
#X connect 33 3 40 0;
#X connect 33 3 41 0;
#X connect 33 4 42 0;
#X connect 33 4 43 0;
#X connect 33 5 44 0;
#X connect 33 5 45 0;
#X connect 34 0 13 1;
#X connect 35 0 15 1;
#X connect 36 0 13 1;
#X connect 37 0 15 1;
#X connect 38 0 13 1;
#X connect 39 0 15 1;
#X connect 40 0 13 1;
#X connect 41 0 15 1;
#X connect 42 0 13 1;
#X connect 43 0 15 1;
#X connect 44 0 13 1;
#X connect 45 0 15 1;
#X connect 46 0 48 0;
#X connect 46 1 47 0;
#X connect 47 0 27 0;
#X connect 48 0 27 0;
#X connect 51 0 52 0;
#X connect 52 0 26 0;
#X connect 55 0 51 0;
#X connect 56 0 58 0;
#X connect 57 0 56 0;
#X connect 60 0 62 0;
#X connect 62 0 61 0;
#X connect 63 0 25 0;
#X connect 64 0 78 0;
#X connect 65 0 73 0;
#X connect 66 0 75 2;
#X connect 68 0 74 0;
#X connect 69 0 76 0;
#X connect 70 0 72 0;
#X connect 71 0 68 1;
#X connect 71 0 69 1;
#X connect 71 0 73 1;
#X connect 72 0 71 0;
#X connect 73 0 68 0;
#X connect 74 0 79 0;
#X connect 74 1 75 1;
#X connect 74 2 66 0;
#X connect 75 0 67 0;
#X connect 77 0 66 1;
#X connect 78 0 69 0;
#X connect 79 0 75 0;
#X connect 80 0 47 0;
#X connect 80 1 48 0;
#X coords 0 -1 1 1 182 164 1 100 100;
