#N canvas 71 42 1280 753 10;
#X obj 357 640 r toolssavebank;
#X obj 567 557 r toolssavebang;
#X obj 731 741 f;
#X obj 641 849 s toolssavelists;
#X obj 596 661 f;
#X obj 359 758 route;
#X obj 717 502 loadbang;
#X obj 718 558 \$1;
#X obj 717 530 del 5;
#X obj 596 620 del;
#X obj 594 710 t b f b b;
#X obj 101 103 cnv 15 94 92 empty empty midiscale 13 10 0 12 -99865
-260097 0;
#X obj 849 757 f;
#X obj 362 784 unpack f f;
#X obj 641 806 pack s f f f;
#X obj 359 728 route midiscale;
#X obj 588 761 symbol midiscale;
#X obj -313 63 inlet;
#X obj -314 96 / 127;
#X obj -298 230 +;
#X obj 103 128 hsl 70 15 0 127 0 0 \$0low \$0low_r low 23 6 0 10 -262144
-1 -1 0 1;
#X obj 115 161 hsl 70 15 0 127 0 0 \$0hi \$0hi_r high 25 6 0 10 -262144
-1 -1 6900 1;
#X obj -169 118 r \$0low;
#X obj -10 110 r \$0low;
#X obj -85 316 + 127;
#X obj -94 126 r \$0hi;
#X obj -27 182 * -1;
#X obj -81 260 +;
#X obj -64 215 t b f;
#X obj -97 215 f;
#X floatatom -89 347 5 0 0 0 - - -, f 5;
#X obj -96 151 - 127;
#X obj -96 178 * 1;
#X obj -307 147 *;
#X obj -298 320 outlet;
#X obj 104 144 nbx 5 14 -1e+037 1e+037 0 0 empty empty empty 0 -8 0
10 -262144 -1 -1 0 256 0;
#X obj 139 177 nbx 5 14 -1e+037 1e+037 0 0 empty empty empty 0 -8 0
10 -262144 -1 -1 127 256 0;
#X obj 410 37 loadbang;
#X obj 379 111 s \$0low_r;
#X obj 444 99 s \$0hi_r;
#X msg 382 79 0;
#X msg 444 75 127;
#X obj 745 700 r \$0low;
#X obj 875 719 r \$0hi;
#X obj 304 836 s \$0low_r;
#X obj 433 854 s \$0hi_r;
#X obj 173 28 inlet;
#X obj 190 48 inlet;
#X obj 321 363 velocity 1;
#X obj 641 599 clip 1 92;
#X connect 0 0 15 0;
#X connect 1 0 9 0;
#X connect 2 0 14 2;
#X connect 4 0 10 0;
#X connect 5 0 13 0;
#X connect 6 0 8 0;
#X connect 7 0 4 1;
#X connect 7 0 5 1;
#X connect 7 0 49 0;
#X connect 8 0 7 0;
#X connect 9 0 4 0;
#X connect 10 0 16 0;
#X connect 10 1 14 1;
#X connect 10 2 2 0;
#X connect 10 3 12 0;
#X connect 12 0 14 3;
#X connect 13 0 44 0;
#X connect 13 1 45 0;
#X connect 14 0 3 0;
#X connect 15 0 5 0;
#X connect 16 0 14 0;
#X connect 17 0 18 0;
#X connect 18 0 33 0;
#X connect 19 0 34 0;
#X connect 22 0 19 1;
#X connect 23 0 26 0;
#X connect 23 0 35 0;
#X connect 24 0 30 0;
#X connect 25 0 31 0;
#X connect 25 0 36 0;
#X connect 26 0 28 0;
#X connect 27 0 24 0;
#X connect 28 0 29 0;
#X connect 28 1 27 1;
#X connect 29 0 27 0;
#X connect 30 0 33 1;
#X connect 31 0 32 0;
#X connect 32 0 29 0;
#X connect 33 0 19 0;
#X connect 37 0 40 0;
#X connect 37 0 41 0;
#X connect 40 0 38 0;
#X connect 41 0 39 0;
#X connect 42 0 2 1;
#X connect 43 0 12 1;
#X connect 46 0 20 0;
#X connect 47 0 21 0;
#X connect 49 0 9 1;
#X coords 0 -1 1 1 96 98 1 100 100;
