#N canvas 0 0 1423 838 10;
#X obj -66 98 inlet;
#X obj -84 523 outlet;
#X obj 101 103 cnv 15 150 80 empty empty numrand 6 7 0 12 -99865 -260097
0;
#X obj 195 126 nbx 3 14 -1e+037 1e+037 0 0 \$0showfrom_s \$0showfrom
empty 0 -8 0 10 -228856 -1 -1 1 256 0;
#X obj 138 231 loadbang;
#X obj 278 381 r toolssavebank;
#X obj 488 298 r toolssavebang;
#X obj 652 482 f;
#X obj 562 590 s toolssavelists;
#X obj 517 402 f;
#X obj 280 499 route;
#X obj 638 243 loadbang;
#X obj 639 299 \$1;
#X obj 638 271 del 5;
#X obj 517 361 del;
#X obj 515 451 t b f b b;
#X obj -65 307 random;
#X obj 105 125 hsl 80 15 0 127 0 0 \$0from \$0from_r from 29 5 0 10
-228856 -260097 -1 62 1;
#X obj 116 144 hsl 80 15 0 127 0 0 \$0to \$0to_r to 31 6 0 10 -228856
-260097 -1 498 1;
#X obj 207 145 nbx 3 14 -1e+037 1e+037 0 0 \$0showto_s \$0showto empty
0 -8 0 10 -228856 -1 -1 8 256 0;
#X obj 562 547 pack s f f f;
#X obj 667 442 r \$0from;
#X obj 686 516 f;
#X obj 701 476 r \$0to;
#X obj 561 334 clip 1 199;
#X obj 277 539 unpack f f;
#X obj 280 469 route numrand;
#X obj 509 502 symbol numrand;
#X obj 279 595 s \$0from_r;
#X obj 333 571 s \$0to_r;
#X obj -29 132 r \$0to;
#X obj 10 330 r \$0from;
#X floatatom -66 357 5 0 0 0 - - -, f 5;
#X obj -68 391 +;
#X obj -29 238 -;
#X obj -29 211 f;
#X obj 58 246 t b f;
#X obj -25 155 int;
#X floatatom -29 180 5 0 0 0 - - -, f 5;
#X obj 16 373 int;
#X obj 22 405 s \$0showfrom;
#X obj 33 200 s \$0showto;
#X obj -32 270 + 1;
#X msg 139 269 1;
#X obj 138 293 s \$0from_r;
#X msg 230 293 8;
#X obj 222 323 s \$0to_r;
#X obj 107 165 nbx 5 14 -1e+037 1e+037 0 0 \$0out \$0out_r out 34 6
0 10 -228856 -260097 -1 8 256 0;
#X obj -28 450 s \$0out_r;
#X obj 334 128 inlet;
#X obj 461 124 inlet;
#X obj -66 177 bng 15 250 50 0 empty empty empty 17 7 0 10 -262144
-1 -1;
#X connect 0 0 51 0;
#X connect 4 0 43 0;
#X connect 4 0 45 0;
#X connect 5 0 26 0;
#X connect 6 0 14 0;
#X connect 7 0 20 2;
#X connect 9 0 15 0;
#X connect 10 0 25 0;
#X connect 11 0 13 0;
#X connect 12 0 9 1;
#X connect 12 0 10 1;
#X connect 12 0 24 0;
#X connect 13 0 12 0;
#X connect 14 0 9 0;
#X connect 15 0 27 0;
#X connect 15 1 20 1;
#X connect 15 2 7 0;
#X connect 15 3 22 0;
#X connect 16 0 32 0;
#X connect 20 0 8 0;
#X connect 21 0 7 1;
#X connect 22 0 20 3;
#X connect 23 0 22 1;
#X connect 24 0 14 1;
#X connect 25 0 28 0;
#X connect 25 1 29 0;
#X connect 26 0 10 0;
#X connect 27 0 20 0;
#X connect 30 0 37 0;
#X connect 31 0 39 0;
#X connect 32 0 33 0;
#X connect 33 0 48 0;
#X connect 33 0 1 0;
#X connect 34 0 42 0;
#X connect 35 0 34 0;
#X connect 36 0 35 0;
#X connect 36 1 34 1;
#X connect 37 0 38 0;
#X connect 37 0 41 0;
#X connect 38 0 35 0;
#X connect 39 0 36 0;
#X connect 39 0 33 1;
#X connect 39 0 40 0;
#X connect 42 0 16 1;
#X connect 43 0 44 0;
#X connect 45 0 46 0;
#X connect 49 0 17 0;
#X connect 50 0 18 0;
#X connect 51 0 16 0;
#X coords 0 -1 1 1 152 86 1 100 100;
