#N canvas 0 0 1260 829 10;
#X obj -2 0 cnv 15 1260 45 empty \$0-pddp.cnv.header sequenzer 3 12
0 18 -204280 -1 0;
#X obj 12 574 cnv 3 363 5 empty \$0-pddp.cnv.inlets empty 8 12 0 13
-228856 -1 0;
#X text 10 25 automatisierte Abläufe, f 116;
#X obj 532 54 sequenzer;
#X text 16 55 EINGANG 1: Steuerdaten zum Tempo (von [clock] oder [levlink])
;
#X text 16 98 EINGANG 2: Der Schalter 'Start' wird ausgelöst und der
Sequenzer gestartet/gestoppt (durch einen 'bang' \, z.B. von [taste]
\, [banger] \, [pad] \, etc.).;
#X text 16 209 EINGANG 4: Steuert den Regler 'Bpm' (in Mididaten \,
z.B. von [modu] \, [modurand] \, [control] \, etc.);
#X text 16 254 EINGANG 5: Steuert den Schalter 'Notenwerte' (1 = 1/1
\, 2 = 1/2 \, 3 = 1/4 \, 4 = 1/8 \, 5 = 1/16 \, z.B. von [nummer]).
;
#X text 16 161 EINGANG 3: Sequenz 1-8 wird geladen \, wenn Zahlen von
1-8 empfangen werden (z.B. von [nummer]).;
#X text 16 293 EINGANG 6: Steuert den Regler 'Notendauer' (in Mididaten
\, z.B. von [modu] \, [modurand] \, [control] \, etc.).;
#X text 16 343 EINGANG 7: Der Schalter 'Neustart' wird ausgelöst (durch
einen 'bang' \, z.B. von [taste] \, [banger] \, [pad] \, etc.).;
#X text 16 385 EINGANG 8: Der Schalter 'erzeuge Sequenz' wird ausgelöst
(durch einen 'bang' \, z.B. von [taste] \, [banger] \, [pad] \, etc.).
;
#X text 16 433 EINGANG 9: Der Schalter '0' (reset) wird ausgelöst
(durch einen 'bang' \, z.B. von [taste] \, [banger] \, [pad] \, etc.).
;
#X text 16 482 EINGANG 10: Steuert den Regler 'Grundton' (in Mididaten
\, z.B. von [modu] \, [modurand] \, [control] \, etc.);
#X text 13 597 AUSGANG 1: Gibt die erzeugte Sequenz als Steuerdaten
aus.;
#X text 12 620 Kann an Klangerzeuger wie [osci] \, [add] \, etc. angeschlossen
werden. Kann außerdem mit [seq2mod] oder [velocity] genutzt werden
\, um alle möglichen Parameter über MIDI zu steuern.;
#X text 16 522 EINGANG 11: Steuert den Regler 'Sequenzlänge' (in Mididaten
\, z.B. von [modu] \, [modurand] \, [control] \, etc.);
#X text 843 460 Wenn er in seinem Apspieltempo mit anderen Sequenzern
synchronisiert werden soll \, braucht er ein Signal von [clock] oder
[levlink] an Eingang 1 Wenn der Sequenzer ein Signal empfängt \, blinkt
die Anzeige 'Netzwerk'. Dann muss der Sequenzer mit 'verbinden' verbunden
werden.;
#X text 445 390 [sequenzer] erzeugt Sequenzen. Sequenzen sind Abfolgen
von Steuerdaten \, die in einer Schleife wiederholt werden können.
;
#X text 445 590 Jeder Schritt ist im Prinzip wie ein Tastendruck auf
einer Klaviatur. Die Dauer dieses Tastendrucks wird mit 'Notendauer'
eingestellt.;
#X text 445 429 Mit 'Start' wird die Ausgabe der Sequenz gestartet
und gestoppt. Mit 'Neustart' wird der laufende Sequenzer neu gestartet.
;
#X text 445 482 Die Sequenz besteht aus einzelnen Schritten. Die Anzahl
der Schritte \, also die Länge der Sequenz kann unter 'Sequenzlänge'
geregelt werden.;
#X text 445 532 Wie der Sequenzer die Schritte bezüglich des gegebenen
Tempos versteht \, wird unter 'Notenwert' eingestellt. Der Sequenzer
kann ganze \, halbe \, viertel \, achtel oder sechszehntel-Noten abspielen.
;
#X text 445 638 Jeder Schritt der Sequenz wird durch die orangen und
roten Regler gestaltet. Die orangen Regler bestimmen die Tonhöhe (Halbtöne
in Bezug auf den Grundton) \, die roten Regler bestimmen die velocity
(im Prinzip die Intensität/Lautstärke) des Schritts.;
#X text 447 724 Es können mit 'erzeuge Sequenz' zufällige Sequenzen
erzeugt werden. Mit '0' wird die Sequenz zurückgesetzt.;
#X text 448 756 Der 'Grundton' bestimmt den Ton \, auf dem die Sequenz
aufbaut.;
#X text 448 790 Die 'Tonalität' regelt \, nach welcher Tonleiter die
Sequenz aufgebaut sein soll (Dur/Moll/Chromatisch).;
#X text 902 575 WOFÜR KANN DER SEQUENZER GENUTZT WERDEN?;
#X text 843 392 Es können acht Melodien gespeichert werden (orangener
Button unter 1-8) und geladen (grauer Button unter 1-8) werden. Ganze
Bänke aus acht Sequenzen können extern gespeichert und geladen werden.
;
#X text 843 600 Zuerst ist [sequenzer] dafür da \, Melodielinien zu
erzeugen. Dazu muss das Modul an Klangerzeuger wie [osci] \, [grin]
\, [shape] oder [keysa] angeschlossen werden.;
#X text 843 657 [sequenzer] kann aber auch zur Steuerung von anderen
Modulen eingesetzt werden. Verbindet man den Sequenzer mit eine [seq2mod]-Modul
\, so wird die Tonhöhe (oranger Regler) genutzt \, um Regler zu steuern.
Mit [velocity] kann der rote Regler genutzt werden \, um Regler andere
Module zu steuern.;
