#N canvas 0 20 1423 798 10;
#X obj -158 77 unpack f f;
#X floatatom -161 111 5 0 0 0 - - -, f 5;
#X floatatom -104 115 5 0 0 0 - - -, f 5;
#X obj -163 135 ftom;
#X floatatom -163 160 5 0 0 0 - - -, f 5;
#X obj -411 118 / 127;
#X obj -241 200 mod 12;
#X floatatom -240 231 5 0 0 0 - - -, f 5;
#X obj -414 166 int;
#X floatatom -414 191 5 0 0 0 - - -, f 5;
#X obj -240 261 pack;
#X obj -240 292 list-rev;
#X obj -273 339 gate 2;
#X obj -336 86 + 1;
#N canvas 0 0 1439 837 minor 0;
#X obj 1879 4 inlet;
#X obj 45 115 sel 0 1 2 3 4 5 6 7 8 9 10 11;
#X obj 1878 30 route 0 1 2 3 4 5 6 7 8 9 10 11;
#X msg 28 163 1;
#X msg -2 162 0;
#X msg 59 163 0;
#X msg 89 164 0;
#X msg 246 168 0;
#X msg 150 166 0;
#X msg 119 165 -1;
#X msg 180 166 -1;
#X msg 214 168 0;
#X msg 279 169 -1;
#X msg 345 172 -1;
#X msg 313 169 0;
#X obj 591 988 outlet;
#X text 227 115 C Moll / Es Dur;
#X obj 1977 736 sel 0 1 2 3 4 5 6 7 8 9 10 11;
#X msg 1930 783 0;
#X msg 1991 784 0;
#X msg 2082 787 0;
#X msg 2146 789 0;
#X msg 2051 786 0;
#X msg 2211 790 0;
#X msg 2277 793 0;
#X obj 2481 741 sel 0 1 2 3 4 5 6 7 8 9 10 11;
#X msg 2390 788 0;
#X msg 2553 792 0;
#X msg 2432 789 0;
#X obj 2923 746 sel 0 1 2 3 4 5 6 7 8 9 10 11;
#X msg 3092 799 0;
#X msg 2906 794 0;
#X msg 2997 796 0;
#X msg 3223 803 0;
#X msg 2967 795 1;
#X msg 2876 793 1;
#X msg 2937 794 0;
#X msg 3028 797 1;
#X msg 3058 797 0;
#X msg 3124 799 1;
#X msg 3157 800 0;
#X msg 3191 800 1;
#X msg 2493 790 0;
#X msg 2523 791 -1;
#X msg 2463 789 -1;
#X msg 2580 792 0;
#X msg 2608 793 -1;
#X msg 2641 792 0;
#X msg 2674 794 -1;
#X msg 2724 792 0;
#X msg 2760 792 -1;
#X text 3118 748 H Moll / D Dur;
#X text 2674 741 Bb Moll / Des Dur;
#X text 2176 735 A Moll / C Dur;
#X obj 485 110 sel 0 1 2 3 4 5 6 7 8 9 10 11;
#X msg 686 163 0;
#X text 667 110 Cis Moll / E Dur;
#X msg 438 157 1;
#X msg 468 158 0;
#X msg 499 158 1;
#X msg 529 159 0;
#X msg 559 160 0;
#X msg 590 161 1;
#X msg 620 161 0;
#X msg 655 163 1;
#X msg 719 164 0;
#X msg 753 164 -1;
#X msg 785 167 0;
#X obj 945 122 sel 0 1 2 3 4 5 6 7 8 9 10 11;
#X msg 1019 172 0;
#X msg 1179 176 0;
#X text 1127 122 D Moll / F Dur;
#X msg 898 169 0;
#X msg 959 170 0;
#X msg 989 171 1;
#X msg 928 170 1;
#X msg 1050 173 0;
#X msg 1080 173 1;
#X msg 1115 175 0;
#X msg 1146 175 1;
#X msg 1213 176 0;
#X msg 1245 179 -1;
#X obj 1352 121 sel 0 1 2 3 4 5 6 7 8 9 10 11;
#X msg 1620 175 0;
#X text 1534 121 Dis Moll / Fis Dur;
#X msg 1305 168 1;
#X msg 1335 169 0;
#X msg 1366 169 1;
#X msg 1396 170 0;
#X msg 1426 171 1;
#X msg 1457 172 1;
#X msg 1487 172 0;
#X msg 1522 174 1;
#X msg 1553 174 0;
#X msg 1587 175 1;
#X msg 1652 178 0;
#X obj 1753 131 sel 0 1 2 3 4 5 6 7 8 9 10 11;
#X msg 1858 182 1;
#X msg 1888 182 0;
#X msg 2053 188 0;
#X text 1935 131 E Moll / G Dur;
#X msg 1706 178 0;
#X msg 1736 179 1;
#X msg 1767 179 0;
#X msg 1797 180 1;
#X msg 1827 181 0;
#X msg 1923 184 0;
#X msg 1954 184 1;
#X msg 1988 185 0;
#X msg 2021 185 1;
#X obj 2188 138 sel 0 1 2 3 4 5 6 7 8 9 10 11;
#X msg 2141 185 0;
#X msg 2358 191 0;
#X text 2370 138 F Moll / As Dur;
#X msg 2171 186 0;
#X msg 2202 186 1;
#X msg 2232 187 0;
#X msg 2262 188 -1;
#X msg 2293 189 0;
#X msg 2323 189 1;
#X msg 2389 191 0;
#X msg 2423 192 1;
#X msg 2456 192 0;
#X msg 2488 195 1;
#X obj 2302 344 sel 0 1 2 3 4 5 6 7 8 9 10 11;
#X msg 2285 392 0;
#X msg 2503 397 0;
#X text 2484 344 Fis Moll / A Dur;
#X msg 2255 391 1;
#X msg 2316 392 0;
#X msg 2346 393 1;
#X msg 2376 394 0;
#X msg 2407 395 1;
#X msg 2437 395 0;
#X msg 2472 397 1;
#X msg 2537 398 0;
#X msg 2570 398 1;
#X msg 2602 401 0;
#X obj 2156 465 sel 0 1 2 3 4 5 6 7 8 9 10 11;
#X msg 2170 513 0;
#X msg 2391 519 0;
#X text 2338 465 G Moll / Bb Dur;
#X msg 2109 512 0;
#X msg 2139 513 1;
#X msg 2200 514 0;
#X msg 2230 515 -1;
#X msg 2261 516 0;
#X msg 2291 516 1;
#X msg 2326 518 0;
#X msg 2357 518 1;
#X msg 2424 519 0;
#X msg 2457 521 -1;
#X obj 2068 584 sel 0 1 2 3 4 5 6 7 8 9 10 11;
#X msg 2112 633 0;
#X msg 2336 638 0;
#X text 2250 584 Gis Moll / H Dur;
#X msg 2021 631 1;
#X msg 2051 632 0;
#X msg 2082 632 1;
#X msg 2142 634 0;
#X msg 2175 635 1;
#X msg 2203 635 0;
#X msg 2238 637 1;
#X msg 2269 637 0;
#X msg 2303 638 1;
#X msg 2370 640 0;
#X msg 1960 784 1;
#X msg 2021 785 1;
#X msg 2112 787 1;
#X msg 2178 789 1;
#X msg 2245 790 1;
#X connect 0 0 2 0;
#X connect 1 0 4 0;
#X connect 1 1 3 0;
#X connect 1 2 5 0;
#X connect 1 3 6 0;
#X connect 1 4 9 0;
#X connect 1 5 8 0;
#X connect 1 6 10 0;
#X connect 1 7 11 0;
#X connect 1 8 7 0;
#X connect 1 9 12 0;
#X connect 1 10 14 0;
#X connect 1 11 13 0;
#X connect 2 0 1 0;
#X connect 2 1 54 0;
#X connect 2 2 68 0;
#X connect 2 3 82 0;
#X connect 2 4 96 0;
#X connect 2 5 110 0;
#X connect 2 6 124 0;
#X connect 2 7 138 0;
#X connect 2 8 152 0;
#X connect 2 9 17 0;
#X connect 2 10 25 0;
#X connect 2 11 29 0;
#X connect 3 0 15 0;
#X connect 4 0 15 0;
#X connect 5 0 15 0;
#X connect 6 0 15 0;
#X connect 7 0 15 0;
#X connect 8 0 15 0;
#X connect 9 0 15 0;
#X connect 10 0 15 0;
#X connect 11 0 15 0;
#X connect 12 0 15 0;
#X connect 13 0 15 0;
#X connect 14 0 15 0;
#X connect 17 0 18 0;
#X connect 17 1 166 0;
#X connect 17 2 19 0;
#X connect 17 3 167 0;
#X connect 17 4 22 0;
#X connect 17 5 20 0;
#X connect 17 6 168 0;
#X connect 17 7 21 0;
#X connect 17 8 169 0;
#X connect 17 9 23 0;
#X connect 17 10 170 0;
#X connect 17 11 24 0;
#X connect 18 0 15 0;
#X connect 19 0 15 0;
#X connect 20 0 15 0;
#X connect 21 0 15 0;
#X connect 22 0 15 0;
#X connect 23 0 15 0;
#X connect 24 0 15 0;
#X connect 25 0 26 0;
#X connect 25 1 28 0;
#X connect 25 2 44 0;
#X connect 25 3 42 0;
#X connect 25 4 43 0;
#X connect 25 5 27 0;
#X connect 25 6 45 0;
#X connect 25 7 46 0;
#X connect 25 8 47 0;
#X connect 25 9 48 0;
#X connect 25 10 49 0;
#X connect 25 11 50 0;
#X connect 26 0 15 0;
#X connect 27 0 15 0;
#X connect 28 0 15 0;
#X connect 29 0 35 0;
#X connect 29 1 31 0;
#X connect 29 2 36 0;
#X connect 29 3 34 0;
#X connect 29 4 32 0;
#X connect 29 5 37 0;
#X connect 29 6 38 0;
#X connect 29 7 30 0;
#X connect 29 8 39 0;
#X connect 29 9 40 0;
#X connect 29 10 41 0;
#X connect 29 11 33 0;
#X connect 30 0 15 0;
#X connect 31 0 15 0;
#X connect 32 0 15 0;
#X connect 33 0 15 0;
#X connect 34 0 15 0;
#X connect 35 0 15 0;
#X connect 36 0 15 0;
#X connect 37 0 15 0;
#X connect 38 0 15 0;
#X connect 39 0 15 0;
#X connect 40 0 15 0;
#X connect 41 0 15 0;
#X connect 42 0 15 0;
#X connect 43 0 15 0;
#X connect 44 0 15 0;
#X connect 45 0 15 0;
#X connect 46 0 15 0;
#X connect 47 0 15 0;
#X connect 48 0 15 0;
#X connect 49 0 15 0;
#X connect 50 0 15 0;
#X connect 54 0 57 0;
#X connect 54 1 58 0;
#X connect 54 2 59 0;
#X connect 54 3 60 0;
#X connect 54 4 61 0;
#X connect 54 5 62 0;
#X connect 54 6 63 0;
#X connect 54 7 64 0;
#X connect 54 8 55 0;
#X connect 54 9 65 0;
#X connect 54 10 66 0;
#X connect 54 11 67 0;
#X connect 55 0 15 0;
#X connect 57 0 15 0;
#X connect 58 0 15 0;
#X connect 59 0 15 0;
#X connect 60 0 15 0;
#X connect 61 0 15 0;
#X connect 62 0 15 0;
#X connect 63 0 15 0;
#X connect 64 0 15 0;
#X connect 65 0 15 0;
#X connect 66 0 15 0;
#X connect 67 0 15 0;
#X connect 68 0 72 0;
#X connect 68 1 75 0;
#X connect 68 2 73 0;
#X connect 68 3 74 0;
#X connect 68 4 69 0;
#X connect 68 5 76 0;
#X connect 68 6 77 0;
#X connect 68 7 78 0;
#X connect 68 8 79 0;
#X connect 68 9 70 0;
#X connect 68 10 80 0;
#X connect 68 11 81 0;
#X connect 69 0 15 0;
#X connect 70 0 15 0;
#X connect 72 0 15 0;
#X connect 73 0 15 0;
#X connect 74 0 15 0;
#X connect 75 0 15 0;
#X connect 76 0 15 0;
#X connect 77 0 15 0;
#X connect 78 0 15 0;
#X connect 79 0 15 0;
#X connect 80 0 15 0;
#X connect 81 0 15 0;
#X connect 82 0 85 0;
#X connect 82 1 86 0;
#X connect 82 2 87 0;
#X connect 82 3 88 0;
#X connect 82 4 89 0;
#X connect 82 5 90 0;
#X connect 82 6 91 0;
#X connect 82 7 92 0;
#X connect 82 8 93 0;
#X connect 82 9 94 0;
#X connect 82 10 83 0;
#X connect 82 11 95 0;
#X connect 83 0 15 0;
#X connect 85 0 15 0;
#X connect 86 0 15 0;
#X connect 87 0 15 0;
#X connect 88 0 15 0;
#X connect 89 0 15 0;
#X connect 90 0 15 0;
#X connect 91 0 15 0;
#X connect 92 0 15 0;
#X connect 93 0 15 0;
#X connect 94 0 15 0;
#X connect 95 0 15 0;
#X connect 96 0 101 0;
#X connect 96 1 102 0;
#X connect 96 2 103 0;
#X connect 96 3 104 0;
#X connect 96 4 105 0;
#X connect 96 5 97 0;
#X connect 96 6 98 0;
#X connect 96 7 106 0;
#X connect 96 8 107 0;
#X connect 96 9 108 0;
#X connect 96 10 109 0;
#X connect 96 11 99 0;
#X connect 97 0 15 0;
#X connect 98 0 15 0;
#X connect 99 0 15 0;
#X connect 101 0 15 0;
#X connect 102 0 15 0;
#X connect 103 0 15 0;
#X connect 104 0 15 0;
#X connect 105 0 15 0;
#X connect 106 0 15 0;
#X connect 107 0 15 0;
#X connect 108 0 15 0;
#X connect 109 0 15 0;
#X connect 110 0 111 0;
#X connect 110 1 114 0;
#X connect 110 2 115 0;
#X connect 110 3 116 0;
#X connect 110 4 117 0;
#X connect 110 5 118 0;
#X connect 110 6 119 0;
#X connect 110 7 112 0;
#X connect 110 8 120 0;
#X connect 110 9 121 0;
#X connect 110 10 122 0;
#X connect 110 11 123 0;
#X connect 111 0 15 0;
#X connect 112 0 15 0;
#X connect 114 0 15 0;
#X connect 115 0 15 0;
#X connect 116 0 15 0;
#X connect 117 0 15 0;
#X connect 118 0 15 0;
#X connect 119 0 15 0;
#X connect 120 0 15 0;
#X connect 121 0 15 0;
#X connect 122 0 15 0;
#X connect 123 0 15 0;
#X connect 124 0 128 0;
#X connect 124 1 125 0;
#X connect 124 2 129 0;
#X connect 124 3 130 0;
#X connect 124 4 131 0;
#X connect 124 5 132 0;
#X connect 124 6 133 0;
#X connect 124 7 134 0;
#X connect 124 8 126 0;
#X connect 124 9 135 0;
#X connect 124 10 136 0;
#X connect 124 11 137 0;
#X connect 125 0 15 0;
#X connect 126 0 15 0;
#X connect 128 0 15 0;
#X connect 129 0 15 0;
#X connect 130 0 15 0;
#X connect 131 0 15 0;
#X connect 132 0 15 0;
#X connect 133 0 15 0;
#X connect 134 0 15 0;
#X connect 135 0 15 0;
#X connect 136 0 15 0;
#X connect 137 0 15 0;
#X connect 138 0 142 0;
#X connect 138 1 143 0;
#X connect 138 2 139 0;
#X connect 138 3 144 0;
#X connect 138 4 145 0;
#X connect 138 5 146 0;
#X connect 138 6 147 0;
#X connect 138 7 148 0;
#X connect 138 8 149 0;
#X connect 138 9 140 0;
#X connect 138 10 150 0;
#X connect 138 11 151 0;
#X connect 139 0 15 0;
#X connect 140 0 15 0;
#X connect 142 0 15 0;
#X connect 143 0 15 0;
#X connect 144 0 15 0;
#X connect 145 0 15 0;
#X connect 146 0 15 0;
#X connect 147 0 15 0;
#X connect 148 0 15 0;
#X connect 149 0 15 0;
#X connect 150 0 15 0;
#X connect 151 0 15 0;
#X connect 152 0 156 0;
#X connect 152 1 157 0;
#X connect 152 2 158 0;
#X connect 152 3 153 0;
#X connect 152 4 159 0;
#X connect 152 5 160 0;
#X connect 152 6 161 0;
#X connect 152 7 162 0;
#X connect 152 8 163 0;
#X connect 152 9 164 0;
#X connect 152 10 154 0;
#X connect 152 11 165 0;
#X connect 153 0 15 0;
#X connect 154 0 15 0;
#X connect 156 0 15 0;
#X connect 157 0 15 0;
#X connect 158 0 15 0;
#X connect 159 0 15 0;
#X connect 160 0 15 0;
#X connect 161 0 15 0;
#X connect 162 0 15 0;
#X connect 163 0 15 0;
#X connect 164 0 15 0;
#X connect 165 0 15 0;
#X connect 166 0 15 0;
#X connect 167 0 15 0;
#X connect 168 0 15 0;
#X connect 169 0 15 0;
#X connect 170 0 15 0;
#X restore -469 389 pd minor;
#X obj -160 12 route stop;
#X floatatom -452 453 5 0 0 0 - - -, f 5;
#X obj -176 448 +;
#X obj -176 512 t f b;
#X obj -144 586 pack;
#X obj -186 481 mtof;
#X obj -129 543 f;
#X msg -95 567 stop 0;
#X obj -175 408 f;
#X obj -123 632 outlet;
#N canvas 0 0 1423 798 major 0;
#X obj 288 16 inlet;
#X obj 270 79 route 0 1 2 3 4 5 6 7 8 9 10 11;
#X obj 763 992 outlet;
#X obj 379 212 sel 0 1 2 3 4 5 6 7 8 9 10 11;
#X msg 288 259 0;
#X msg 451 263 0;
#X msg 330 260 0;
#X obj 771 229 sel 0 1 2 3 4 5 6 7 8 9 10 11;
#X msg 940 282 0;
#X msg 754 277 0;
#X msg 845 279 0;
#X msg 1071 286 0;
#X msg 815 278 1;
#X msg 724 276 1;
#X msg 785 277 0;
#X msg 876 280 1;
#X msg 906 280 0;
#X msg 972 282 1;
#X msg 1005 283 0;
#X msg 1039 283 1;
#X msg 391 261 0;
#X msg 421 262 -1;
#X msg 361 260 -1;
#X msg 478 263 0;
#X msg 506 264 -1;
#X msg 539 263 0;
#X msg 572 265 -1;
#X msg 622 263 0;
#X msg 658 263 -1;
#X obj 1204 238 sel 0 1 2 3 4 5 6 7 8 9 10 11;
#X msg 1187 286 1;
#X msg 1157 285 0;
#X msg 1218 286 0;
#X msg 1248 287 0;
#X msg 1405 291 0;
#X msg 1309 289 0;
#X msg 1278 288 -1;
#X msg 1339 289 -1;
#X msg 1373 291 0;
#X msg 1438 292 -1;
#X msg 1504 295 -1;
#X msg 1472 292 0;
#X text 1386 238 C Moll / Es Dur;
#X text 966 231 H Moll / D Dur;
#X text 572 212 Bb Moll / Des Dur;
#X obj 1597 297 sel 0 1 2 3 4 5 6 7 8 9 10 11;
#X msg 1798 350 0;
#X text 1779 297 Cis Moll / E Dur;
#X msg 1550 344 1;
#X msg 1580 345 0;
#X msg 1611 345 1;
#X msg 1641 346 0;
#X msg 1671 347 0;
#X msg 1702 348 1;
#X msg 1732 348 0;
#X msg 1767 350 1;
#X msg 1831 351 0;
#X msg 1865 351 -1;
#X msg 1897 354 0;
#X obj 2001 305 sel 0 1 2 3 4 5 6 7 8 9 10 11;
#X msg 2075 355 0;
#X msg 2235 359 0;
#X text 2183 305 D Moll / F Dur;
#X msg 1954 352 0;
#X msg 2015 353 0;
#X msg 2045 354 1;
#X msg 1984 353 1;
#X msg 2106 356 0;
#X msg 2136 356 1;
#X msg 2171 358 0;
#X msg 2202 358 1;
#X msg 2269 359 0;
#X msg 2301 362 -1;
#X obj 2280 458 sel 0 1 2 3 4 5 6 7 8 9 10 11;
#X msg 2548 512 0;
#X text 2462 458 Dis Moll / Fis Dur;
#X msg 2233 505 1;
#X msg 2263 506 0;
#X msg 2294 506 1;
#X msg 2324 507 0;
#X msg 2354 508 1;
#X msg 2385 509 1;
#X msg 2415 509 0;
#X msg 2450 511 1;
#X msg 2481 511 0;
#X msg 2515 512 1;
#X msg 2580 515 0;
#X obj 2440 598 sel 0 1 2 3 4 5 6 7 8 9 10 11;
#X msg 2545 649 1;
#X msg 2575 649 0;
#X msg 2740 655 0;
#X text 2622 598 E Moll / G Dur;
#X msg 2393 645 0;
#X msg 2423 646 1;
#X msg 2454 646 0;
#X msg 2484 647 1;
#X msg 2514 648 0;
#X msg 2610 651 0;
#X msg 2641 651 1;
#X msg 2675 652 0;
#X msg 2708 652 1;
#X obj 2469 750 sel 0 1 2 3 4 5 6 7 8 9 10 11;
#X msg 2422 797 0;
#X msg 2639 803 0;
#X text 2651 750 F Moll / As Dur;
#X msg 2452 798 0;
#X msg 2483 798 1;
#X msg 2513 799 0;
#X msg 2543 800 -1;
#X msg 2574 801 0;
#X msg 2604 801 1;
#X msg 2670 803 0;
#X msg 2704 804 1;
#X msg 2737 804 0;
#X msg 2769 807 1;
#X obj 2389 872 sel 0 1 2 3 4 5 6 7 8 9 10 11;
#X msg 2372 920 0;
#X msg 2590 925 0;
#X text 2571 872 Fis Moll / A Dur;
#X msg 2342 919 1;
#X msg 2403 920 0;
#X msg 2433 921 1;
#X msg 2463 922 0;
#X msg 2494 923 1;
#X msg 2524 923 0;
#X msg 2559 925 1;
#X msg 2624 926 0;
#X msg 2657 926 1;
#X msg 2689 929 0;
#X obj 2243 993 sel 0 1 2 3 4 5 6 7 8 9 10 11;
#X msg 2257 1041 0;
#X msg 2478 1047 0;
#X text 2425 993 G Moll / Bb Dur;
#X msg 2196 1040 0;
#X msg 2226 1041 1;
#X msg 2287 1042 0;
#X msg 2317 1043 -1;
#X msg 2348 1044 0;
#X msg 2378 1044 1;
#X msg 2413 1046 0;
#X msg 2444 1046 1;
#X msg 2511 1047 0;
#X msg 2544 1049 -1;
#X obj 2155 1112 sel 0 1 2 3 4 5 6 7 8 9 10 11;
#X msg 2199 1161 0;
#X msg 2423 1166 0;
#X text 2337 1112 Gis Moll / H Dur;
#X msg 2108 1159 1;
#X msg 2138 1160 0;
#X msg 2169 1160 1;
#X msg 2229 1162 0;
#X msg 2262 1163 1;
#X msg 2290 1163 0;
#X msg 2325 1165 1;
#X msg 2356 1165 0;
#X msg 2390 1166 1;
#X msg 2457 1168 0;
#X obj -70 284 sel 0 1 2 3 4 5 6 7 8 9 10 11;
#X msg -117 331 0;
#X msg -56 332 0;
#X msg 35 335 0;
#X msg 99 337 0;
#X msg 4 334 0;
#X msg 164 338 0;
#X msg 230 341 0;
#X text 129 283 A Moll / C Dur;
#X msg -87 332 1;
#X msg -26 333 1;
#X msg 65 335 1;
#X msg 131 337 1;
#X msg 198 338 1;
#X connect 0 0 1 0;
#X connect 1 0 157 0;
#X connect 1 1 3 0;
#X connect 1 2 7 0;
#X connect 1 3 29 0;
#X connect 1 4 45 0;
#X connect 1 5 59 0;
#X connect 1 6 73 0;
#X connect 1 7 87 0;
#X connect 1 8 101 0;
#X connect 1 9 115 0;
#X connect 1 10 129 0;
#X connect 1 11 143 0;
#X connect 3 0 4 0;
#X connect 3 1 6 0;
#X connect 3 2 22 0;
#X connect 3 3 20 0;
#X connect 3 4 21 0;
#X connect 3 5 5 0;
#X connect 3 6 23 0;
#X connect 3 7 24 0;
#X connect 3 8 25 0;
#X connect 3 9 26 0;
#X connect 3 10 27 0;
#X connect 3 11 28 0;
#X connect 4 0 2 0;
#X connect 5 0 2 0;
#X connect 6 0 2 0;
#X connect 7 0 13 0;
#X connect 7 1 9 0;
#X connect 7 2 14 0;
#X connect 7 3 12 0;
#X connect 7 4 10 0;
#X connect 7 5 15 0;
#X connect 7 6 16 0;
#X connect 7 7 8 0;
#X connect 7 8 17 0;
#X connect 7 9 18 0;
#X connect 7 10 19 0;
#X connect 7 11 11 0;
#X connect 8 0 2 0;
#X connect 9 0 2 0;
#X connect 10 0 2 0;
#X connect 11 0 2 0;
#X connect 12 0 2 0;
#X connect 13 0 2 0;
#X connect 14 0 2 0;
#X connect 15 0 2 0;
#X connect 16 0 2 0;
#X connect 17 0 2 0;
#X connect 18 0 2 0;
#X connect 19 0 2 0;
#X connect 20 0 2 0;
#X connect 21 0 2 0;
#X connect 22 0 2 0;
#X connect 23 0 2 0;
#X connect 24 0 2 0;
#X connect 25 0 2 0;
#X connect 26 0 2 0;
#X connect 27 0 2 0;
#X connect 28 0 2 0;
#X connect 29 0 31 0;
#X connect 29 1 30 0;
#X connect 29 2 32 0;
#X connect 29 3 33 0;
#X connect 29 4 36 0;
#X connect 29 5 35 0;
#X connect 29 6 37 0;
#X connect 29 7 38 0;
#X connect 29 8 34 0;
#X connect 29 9 39 0;
#X connect 29 10 41 0;
#X connect 29 11 40 0;
#X connect 30 0 2 0;
#X connect 31 0 2 0;
#X connect 32 0 2 0;
#X connect 33 0 2 0;
#X connect 34 0 2 0;
#X connect 35 0 2 0;
#X connect 36 0 2 0;
#X connect 37 0 2 0;
#X connect 38 0 2 0;
#X connect 39 0 2 0;
#X connect 40 0 2 0;
#X connect 41 0 2 0;
#X connect 45 0 48 0;
#X connect 45 1 49 0;
#X connect 45 2 50 0;
#X connect 45 3 51 0;
#X connect 45 4 52 0;
#X connect 45 5 53 0;
#X connect 45 6 54 0;
#X connect 45 7 55 0;
#X connect 45 8 46 0;
#X connect 45 9 56 0;
#X connect 45 10 57 0;
#X connect 45 11 58 0;
#X connect 46 0 2 0;
#X connect 48 0 2 0;
#X connect 49 0 2 0;
#X connect 50 0 2 0;
#X connect 51 0 2 0;
#X connect 52 0 2 0;
#X connect 53 0 2 0;
#X connect 54 0 2 0;
#X connect 55 0 2 0;
#X connect 56 0 2 0;
#X connect 57 0 2 0;
#X connect 58 0 2 0;
#X connect 59 0 63 0;
#X connect 59 1 66 0;
#X connect 59 2 64 0;
#X connect 59 3 65 0;
#X connect 59 4 60 0;
#X connect 59 5 67 0;
#X connect 59 6 68 0;
#X connect 59 7 69 0;
#X connect 59 8 70 0;
#X connect 59 9 61 0;
#X connect 59 10 71 0;
#X connect 59 11 72 0;
#X connect 60 0 2 0;
#X connect 61 0 2 0;
#X connect 63 0 2 0;
#X connect 64 0 2 0;
#X connect 65 0 2 0;
#X connect 66 0 2 0;
#X connect 67 0 2 0;
#X connect 68 0 2 0;
#X connect 69 0 2 0;
#X connect 70 0 2 0;
#X connect 71 0 2 0;
#X connect 72 0 2 0;
#X connect 73 0 76 0;
#X connect 73 1 77 0;
#X connect 73 2 78 0;
#X connect 73 3 79 0;
#X connect 73 4 80 0;
#X connect 73 5 81 0;
#X connect 73 6 82 0;
#X connect 73 7 83 0;
#X connect 73 8 84 0;
#X connect 73 9 85 0;
#X connect 73 10 74 0;
#X connect 73 11 86 0;
#X connect 74 0 2 0;
#X connect 76 0 2 0;
#X connect 77 0 2 0;
#X connect 78 0 2 0;
#X connect 79 0 2 0;
#X connect 80 0 2 0;
#X connect 81 0 2 0;
#X connect 82 0 2 0;
#X connect 83 0 2 0;
#X connect 84 0 2 0;
#X connect 85 0 2 0;
#X connect 86 0 2 0;
#X connect 87 0 92 0;
#X connect 87 1 93 0;
#X connect 87 2 94 0;
#X connect 87 3 95 0;
#X connect 87 4 96 0;
#X connect 87 5 88 0;
#X connect 87 6 89 0;
#X connect 87 7 97 0;
#X connect 87 8 98 0;
#X connect 87 9 99 0;
#X connect 87 10 100 0;
#X connect 87 11 90 0;
#X connect 88 0 2 0;
#X connect 89 0 2 0;
#X connect 90 0 2 0;
#X connect 92 0 2 0;
#X connect 93 0 2 0;
#X connect 94 0 2 0;
#X connect 95 0 2 0;
#X connect 96 0 2 0;
#X connect 97 0 2 0;
#X connect 98 0 2 0;
#X connect 99 0 2 0;
#X connect 100 0 2 0;
#X connect 101 0 102 0;
#X connect 101 1 105 0;
#X connect 101 2 106 0;
#X connect 101 3 107 0;
#X connect 101 4 108 0;
#X connect 101 5 109 0;
#X connect 101 6 110 0;
#X connect 101 7 103 0;
#X connect 101 8 111 0;
#X connect 101 9 112 0;
#X connect 101 10 113 0;
#X connect 101 11 114 0;
#X connect 102 0 2 0;
#X connect 103 0 2 0;
#X connect 105 0 2 0;
#X connect 106 0 2 0;
#X connect 107 0 2 0;
#X connect 108 0 2 0;
#X connect 109 0 2 0;
#X connect 110 0 2 0;
#X connect 111 0 2 0;
#X connect 112 0 2 0;
#X connect 113 0 2 0;
#X connect 114 0 2 0;
#X connect 115 0 119 0;
#X connect 115 1 116 0;
#X connect 115 2 120 0;
#X connect 115 3 121 0;
#X connect 115 4 122 0;
#X connect 115 5 123 0;
#X connect 115 6 124 0;
#X connect 115 7 125 0;
#X connect 115 8 117 0;
#X connect 115 9 126 0;
#X connect 115 10 127 0;
#X connect 115 11 128 0;
#X connect 116 0 2 0;
#X connect 117 0 2 0;
#X connect 119 0 2 0;
#X connect 120 0 2 0;
#X connect 121 0 2 0;
#X connect 122 0 2 0;
#X connect 123 0 2 0;
#X connect 124 0 2 0;
#X connect 125 0 2 0;
#X connect 126 0 2 0;
#X connect 127 0 2 0;
#X connect 128 0 2 0;
#X connect 129 0 133 0;
#X connect 129 1 134 0;
#X connect 129 2 130 0;
#X connect 129 3 135 0;
#X connect 129 4 136 0;
#X connect 129 5 137 0;
#X connect 129 6 138 0;
#X connect 129 7 139 0;
#X connect 129 8 140 0;
#X connect 129 9 131 0;
#X connect 129 10 141 0;
#X connect 129 11 142 0;
#X connect 130 0 2 0;
#X connect 131 0 2 0;
#X connect 133 0 2 0;
#X connect 134 0 2 0;
#X connect 135 0 2 0;
#X connect 136 0 2 0;
#X connect 137 0 2 0;
#X connect 138 0 2 0;
#X connect 139 0 2 0;
#X connect 140 0 2 0;
#X connect 141 0 2 0;
#X connect 142 0 2 0;
#X connect 143 0 147 0;
#X connect 143 1 148 0;
#X connect 143 2 149 0;
#X connect 143 3 144 0;
#X connect 143 4 150 0;
#X connect 143 5 151 0;
#X connect 143 6 152 0;
#X connect 143 7 153 0;
#X connect 143 8 154 0;
#X connect 143 9 155 0;
#X connect 143 10 145 0;
#X connect 143 11 156 0;
#X connect 144 0 2 0;
#X connect 145 0 2 0;
#X connect 147 0 2 0;
#X connect 148 0 2 0;
#X connect 149 0 2 0;
#X connect 150 0 2 0;
#X connect 151 0 2 0;
#X connect 152 0 2 0;
#X connect 153 0 2 0;
#X connect 154 0 2 0;
#X connect 155 0 2 0;
#X connect 156 0 2 0;
#X connect 157 0 158 0;
#X connect 157 1 166 0;
#X connect 157 2 159 0;
#X connect 157 3 167 0;
#X connect 157 4 162 0;
#X connect 157 5 160 0;
#X connect 157 6 168 0;
#X connect 157 7 161 0;
#X connect 157 8 169 0;
#X connect 157 9 163 0;
#X connect 157 10 170 0;
#X connect 157 11 164 0;
#X connect 158 0 2 0;
#X connect 159 0 2 0;
#X connect 160 0 2 0;
#X connect 161 0 2 0;
#X connect 162 0 2 0;
#X connect 163 0 2 0;
#X connect 164 0 2 0;
#X connect 166 0 2 0;
#X connect 167 0 2 0;
#X connect 168 0 2 0;
#X connect 169 0 2 0;
#X connect 170 0 2 0;
#X restore -327 397 pd major;
#N canvas 640 0 632 754 showtone 0;
#X msg 46 155 symbol C;
#X msg 109 198 symbol D;
#X msg 169 243 symbol E;
#X msg 196 265 symbol F;
#X msg 73 177 symbol C#;
#X msg 136 220 symbol D#;
#X msg 232 286 symbol F#;
#X msg 259 306 symbol G;
#X msg 270 337 symbol G#;
#X msg 303 359 symbol A;
#X msg 330 381 symbol A#;
#X msg 366 402 symbol H;
#X obj 205 118 sel 0 1 2 3 4 5 6 7 8 9 10 11;
#X obj 62 417 s \$0AddShowTone;
#X obj 204 89 inlet;
#X connect 0 0 13 0;
#X connect 1 0 13 0;
#X connect 2 0 13 0;
#X connect 3 0 13 0;
#X connect 4 0 13 0;
#X connect 5 0 13 0;
#X connect 6 0 13 0;
#X connect 7 0 13 0;
#X connect 8 0 13 0;
#X connect 9 0 13 0;
#X connect 10 0 13 0;
#X connect 11 0 13 0;
#X connect 12 0 0 0;
#X connect 12 1 4 0;
#X connect 12 2 1 0;
#X connect 12 3 5 0;
#X connect 12 4 2 0;
#X connect 12 5 3 0;
#X connect 12 6 6 0;
#X connect 12 7 7 0;
#X connect 12 8 8 0;
#X connect 12 9 9 0;
#X connect 12 10 10 0;
#X connect 12 11 11 0;
#X connect 14 0 12 0;
#X restore -473 257 pd showtone;
#X obj -414 143 * 11;
#X obj -359 171 bng 15 250 50 0 empty empty empty 17 7 0 10 -262144
-1 -1;
#X obj 101 103 cnv 15 74 106 empty empty skala 4 10 0 16 -199729 -1
0;
#X obj -163 -34 inlet;
#X obj 106 128 vsl 20 70 0 127 0 0 \$0base \$0base_r empty 0 -9 0 10
-262144 -260097 -1 0 1;
#X symbolatom 130 139 3 0 0 0 - #0AddShowTone #0AddShowTone_s, f 3
;
#X obj 130 158 vradio 15 0 0 2 \$0gender \$0gender_r empty 0 -8 0 10
-262144 -260097 -1 0;
#X text 147 157 moll;
#X text 146 172 dur;
#X obj -337 49 r \$0gender;
#X obj -463 75 r \$0base;
#X obj 202 42 inlet;
#X obj 295 124 loadbang;
#X obj 332 226 s \$0base_r;
#X msg 301 196 0;
#X obj 370 187 s \$0gender_r;
#X obj 465 424 r toolssavebank;
#X obj 468 568 unpack f f;
#X obj 675 341 r toolssavebang;
#X obj 894 531 f;
#X obj 839 525 f;
#X obj 749 633 s toolssavelists;
#X obj 704 445 f;
#X obj 467 542 route;
#X obj 825 286 loadbang;
#X obj 826 342 \$1;
#X obj 825 314 del 5;
#X obj 704 404 del;
#X obj 749 590 pack s f f f;
#X obj 702 494 t b f b b;
#X obj 467 512 route skala;
#X obj 697 545 symbol skala;
#X obj 463 638 s \$0base_r;
#X obj 526 610 s \$0gender_r;
#X obj 854 485 r \$0base;
#X obj 911 504 r \$0gender;
#X obj -93 514 bng 15 250 50 0 empty empty empty 17 7 0 10 -262144
-1 -1;
#X obj -340 197 del 75;
#X obj 288 46 inlet;
#X connect 0 0 1 0;
#X connect 0 1 2 0;
#X connect 1 0 3 0;
#X connect 2 0 21 1;
#X connect 3 0 4 0;
#X connect 4 0 6 0;
#X connect 4 0 23 0;
#X connect 5 0 27 0;
#X connect 6 0 7 0;
#X connect 7 0 10 0;
#X connect 8 0 9 0;
#X connect 9 0 10 1;
#X connect 9 0 26 0;
#X connect 10 0 11 0;
#X connect 11 0 12 1;
#X connect 12 0 14 0;
#X connect 12 1 25 0;
#X connect 13 0 12 0;
#X connect 14 0 16 0;
#X connect 15 0 63 0;
#X connect 15 1 0 0;
#X connect 16 0 17 1;
#X connect 17 0 20 0;
#X connect 18 0 19 0;
#X connect 18 1 21 0;
#X connect 19 0 24 0;
#X connect 20 0 18 0;
#X connect 21 0 19 1;
#X connect 22 0 24 0;
#X connect 23 0 17 0;
#X connect 25 0 16 0;
#X connect 27 0 8 0;
#X connect 28 0 64 0;
#X connect 30 0 15 0;
#X connect 36 0 13 0;
#X connect 36 0 28 0;
#X connect 37 0 5 0;
#X connect 37 0 28 0;
#X connect 38 0 31 0;
#X connect 39 0 41 0;
#X connect 41 0 40 0;
#X connect 41 0 42 0;
#X connect 43 0 57 0;
#X connect 44 0 59 0;
#X connect 44 1 60 0;
#X connect 45 0 54 0;
#X connect 46 0 55 3;
#X connect 47 0 55 2;
#X connect 49 0 56 0;
#X connect 50 0 44 0;
#X connect 51 0 53 0;
#X connect 52 0 49 1;
#X connect 52 0 50 1;
#X connect 52 0 54 1;
#X connect 53 0 52 0;
#X connect 54 0 49 0;
#X connect 55 0 48 0;
#X connect 56 0 58 0;
#X connect 56 1 55 1;
#X connect 56 2 47 0;
#X connect 56 3 46 0;
#X connect 57 0 50 0;
#X connect 58 0 55 0;
#X connect 61 0 47 1;
#X connect 62 0 46 1;
#X connect 63 0 22 0;
#X connect 64 0 22 0;
#X connect 65 0 33 0;
#X coords 0 -1 1 1 76 112 1 100 100;
