#N canvas 71 35 1280 728 10;
#X obj 102 102 cnv 15 100 250 empty empty speed 10 12 0 24 -233017
-1 0;
#X obj 19 414 inlet~;
#N canvas 0 50 450 300 (subpatch) 0;
#X array \$0array1 44100 float 0 black black;
#X coords 0 1 44099 -1 5 5 1;
#X restore 116 86 graph;
#X obj 148 386 loadbang;
#X obj 130 426 metro 1000;
#X obj 532 445 phasor~;
#X obj 526 641 outlet~;
#X obj 456 242 r \$0speed;
#X msg 438 352 0.0625;
#X msg 463 392 0.125;
#X msg 487 371 0.25;
#X msg 495 326 0.5;
#X msg 527 350 1;
#X msg 555 347 2;
#X msg 590 352 4;
#X msg 623 358 8;
#X msg 656 382 16;
#X msg 674 399 32;
#X obj 655 74 loadbang;
#X obj 675 129 s \$0speed_r;
#X msg 682 102 5;
#X obj 129 139 vradio 20 1 0 10 \$0speed \$0speed_r empty 0 -8 0 10
-99865 -260097 -1 2;
#X text 151 241 1x;
#X text 151 260 2x;
#X text 151 280 4x;
#X text 151 301 8x;
#X text 151 322 16x;
#X text 151 221 1/2x;
#X text 151 200 1/4x;
#X text 151 180 1/8x;
#X text 151 160 1/16x;
#X text 151 139 1/32x;
#X obj 25 518 *~;
#X obj 43 485 line~;
#X msg 131 505 1;
#X msg 176 522 0;
#X obj 132 453 t b b;
#X obj 457 269 + 1;
#X obj 946 450 r toolssavebank;
#X obj 1157 314 r toolssavebang;
#X obj 1321 498 f;
#X obj 1231 606 s toolssavelists;
#X obj 1186 418 f;
#X obj 949 515 route;
#X obj 1307 259 loadbang;
#X obj 1308 315 \$1;
#X obj 1307 287 del 5;
#X obj 1186 377 del;
#X obj 1184 467 t b f b b;
#X obj 1231 563 pack s f f;
#X obj 949 485 route speed;
#X obj 1178 518 symbol speed;
#X obj 1336 458 r \$0speed;
#X obj 946 611 s \$0speed_r;
#X msg 421 326 0.03125;
#X obj 453 295 sel 1 2 3 4 5 6 7 8 9 10 11;
#X obj 238 51 inlet;
#N canvas 954 308 450 323 window 0;
#X obj 21 -333 expr~ tanh($v1*$v2);
#X obj 24 -357 cos~;
#X obj 24 -376 *~ 0.5;
#X obj 24 -397 -~ 0.5;
#X obj 135 -366 sig~ 2;
#X obj 23 -427 inlet~;
#X obj 23 -306 outlet~;
#X obj 186 -405 loadbang;
#X text 196 -375 250;
#X msg 135 -394 100;
#X connect 0 0 6 0;
#X connect 1 0 0 0;
#X connect 2 0 1 0;
#X connect 3 0 2 0;
#X connect 4 0 0 1;
#X connect 5 0 3 0;
#X connect 7 0 9 0;
#X connect 9 0 4 0;
#X restore 637 438 pd window;
#X obj 523 572 *~;
#X msg 45 458 \$1 10;
#X obj 170 498 del 989;
#X msg 583 414 0;
#X obj 530 475 *~ 44100;
#X obj 256 77 - 1;
#X obj 513 509 tabread4~ \$0array1;
#X obj 527 605 hip~ 5;
#X obj 25 565 tabwrite~ \$0array1;
#X connect 1 0 32 0;
#X connect 3 0 4 0;
#X connect 4 0 36 0;
#X connect 5 0 57 0;
#X connect 5 0 62 0;
#X connect 7 0 37 0;
#X connect 8 0 5 0;
#X connect 9 0 5 0;
#X connect 10 0 5 0;
#X connect 11 0 5 0;
#X connect 12 0 5 0;
#X connect 13 0 5 0;
#X connect 14 0 5 0;
#X connect 15 0 5 0;
#X connect 16 0 5 0;
#X connect 17 0 5 0;
#X connect 18 0 20 0;
#X connect 20 0 19 0;
#X connect 32 0 66 0;
#X connect 33 0 32 1;
#X connect 34 0 59 0;
#X connect 35 0 59 0;
#X connect 36 0 66 0;
#X connect 36 1 34 0;
#X connect 36 1 60 0;
#X connect 37 0 55 0;
#X connect 38 0 50 0;
#X connect 39 0 47 0;
#X connect 40 0 49 2;
#X connect 42 0 48 0;
#X connect 43 0 53 0;
#X connect 44 0 46 0;
#X connect 45 0 42 1;
#X connect 45 0 43 1;
#X connect 45 0 47 1;
#X connect 46 0 45 0;
#X connect 47 0 42 0;
#X connect 48 0 51 0;
#X connect 48 1 49 1;
#X connect 48 2 40 0;
#X connect 49 0 41 0;
#X connect 50 0 43 0;
#X connect 51 0 49 0;
#X connect 52 0 40 1;
#X connect 54 0 5 0;
#X connect 55 0 54 0;
#X connect 55 1 8 0;
#X connect 55 2 9 0;
#X connect 55 3 10 0;
#X connect 55 4 11 0;
#X connect 55 5 12 0;
#X connect 55 6 13 0;
#X connect 55 7 14 0;
#X connect 55 8 15 0;
#X connect 55 9 16 0;
#X connect 55 10 17 0;
#X connect 56 0 63 0;
#X connect 57 0 58 1;
#X connect 58 0 65 0;
#X connect 59 0 33 0;
#X connect 60 0 35 0;
#X connect 61 0 5 1;
#X connect 62 0 64 0;
#X connect 63 0 21 0;
#X connect 64 0 58 0;
#X connect 65 0 6 0;
#X coords 0 -1 1 1 104 254 1 100 100;
