#N canvas 28 37 1366 725 10;
#X obj 151 -147 inlet~;
#X obj 101 102 cnv 15 220 60 empty empty analyse 8 10 0 20 #202020
#fcfcfc 0;
#X obj 116 144 bng 15 250 50 0 empty empty attack -7 -7 0 9 #b8b8b8
#fc8000 #fcfcfc;
#X obj 149 144 nbx 5 14 -1e+37 1e+37 0 0 empty empty pitch-midi -1
-7 0 9 #606060 #fc8000 #fcfcfc 0 256 0;
#X obj 206 12 mtof;
#X obj 206 144 nbx 5 14 -1e+37 1e+37 0 0 empty empty pitch-freq -1
-7 0 9 #606060 #fc8000 #fcfcfc 0 256 0;
#X obj 268 144 nbx 5 14 -1e+37 1e+37 0 0 empty empty volume-db 1 -7
0 9 #606060 #fc8000 #fcfcfc 0 256 0;
#X obj 154 -19 int;
#X obj 88 199 outlet;
#X obj 98 209 outlet;
#X obj 108 219 outlet;
#X obj 118 229 outlet;
#X obj 146 -52 + 0.5;
#X obj 151 -78 fiddle~ 2048 1 20 1;
#X obj 255 -154 loadbang;
#X msg 325 -125 reattack 50 1;
#X connect 0 0 13 0;
#X connect 2 0 8 0;
#X connect 3 0 9 0;
#X connect 4 0 5 0;
#X connect 5 0 10 0;
#X connect 6 0 11 0;
#X connect 7 0 3 0;
#X connect 7 0 4 0;
#X connect 12 0 7 0;
#X connect 13 0 12 0;
#X connect 13 1 2 0;
#X connect 13 3 6 0;
#X connect 14 0 15 0;
#X connect 15 0 13 0;
#X coords 0 -1 1 1 222 64 1 100 100;
