#N canvas 70 67 1022 523 10;
#X obj 101 102 cnv 15 140 37 empty empty bouncer 2 25 0 16 -199729
-1 0;
#X obj -946 58 inlet;
#X obj -665 375 outlet;
#X obj 857 401 r toolssavebank;
#X obj 1067 318 r toolssavebang;
#X obj 1231 502 f;
#X obj 1141 610 s toolssavelists;
#X obj 1096 422 f;
#X obj 859 519 route;
#X obj 1217 263 loadbang;
#X obj 1218 319 \$1;
#X obj 1217 291 del 5;
#X obj 1096 381 del;
#X obj 1092 471 t b f b;
#X obj 1141 567 pack s f f;
#X obj 235 -1 inlet;
#X obj -852 63 inlet;
#X obj -786 62 inlet;
#X obj -722 64 inlet;
#X obj -943 200 spigot;
#X msg -911 168 1;
#X msg -863 123 0;
#X obj -663 63 inlet;
#X obj -599 65 inlet;
#X obj -851 204 spigot;
#X msg -819 172 1;
#X msg -778 128 0;
#X obj -747 209 spigot;
#X msg -715 177 1;
#X msg -671 134 0;
#X obj -660 210 spigot;
#X msg -628 178 1;
#X msg -583 134 0;
#X obj -568 214 spigot;
#X msg -536 182 1;
#X msg -492 135 0;
#X obj -464 219 spigot;
#X msg -432 187 1;
#X msg -390 138 0;
#X obj -530 62 inlet;
#X obj -466 64 inlet;
#X obj -357 226 spigot;
#X msg -325 194 1;
#X msg -278 138 0;
#X obj -253 231 spigot;
#X msg -221 199 1;
#X msg -174 143 0;
#X obj 100 102 hradio 16 0 0 8 \$0channel \$0channel_r empty 0 -8 0
10 -262144 -260097 -1 0;
#X obj -148 -7 sel 0 1 2 3 4 5 6 7;
#X obj 234 210 + 1;
#X obj 212 122 nbx 2 14 -1e+037 1e+037 0 0 empty empty empty 0 -8 0
10 -262144 -1 -1 1 256 0;
#X obj 103 12 loadbang;
#X msg 107 53 0;
#X obj 211 34 - 1;
#X obj 859 489 route bouncer;
#X obj 1088 520 symbol bouncer;
#X obj 1246 462 r \$0channel;
#X obj 852 606 s \$0channel_r;
#X obj 1138 358 clip 1 143;
#X connect 1 0 19 0;
#X connect 3 0 54 0;
#X connect 4 0 12 0;
#X connect 5 0 14 2;
#X connect 7 0 13 0;
#X connect 8 0 57 0;
#X connect 9 0 11 0;
#X connect 10 0 7 1;
#X connect 10 0 8 1;
#X connect 10 0 58 0;
#X connect 11 0 10 0;
#X connect 12 0 7 0;
#X connect 13 0 55 0;
#X connect 13 1 14 1;
#X connect 13 2 5 0;
#X connect 14 0 6 0;
#X connect 15 0 53 0;
#X connect 16 0 24 0;
#X connect 17 0 27 0;
#X connect 18 0 30 0;
#X connect 19 0 2 0;
#X connect 20 0 19 1;
#X connect 21 0 19 1;
#X connect 22 0 33 0;
#X connect 23 0 36 0;
#X connect 24 0 2 0;
#X connect 25 0 24 1;
#X connect 26 0 24 1;
#X connect 27 0 2 0;
#X connect 28 0 27 1;
#X connect 29 0 27 1;
#X connect 30 0 2 0;
#X connect 31 0 30 1;
#X connect 32 0 30 1;
#X connect 33 0 2 0;
#X connect 34 0 33 1;
#X connect 35 0 33 1;
#X connect 36 0 2 0;
#X connect 37 0 36 1;
#X connect 38 0 36 1;
#X connect 39 0 41 0;
#X connect 40 0 44 0;
#X connect 41 0 2 0;
#X connect 42 0 41 1;
#X connect 43 0 41 1;
#X connect 44 0 2 0;
#X connect 45 0 44 1;
#X connect 46 0 44 1;
#X connect 47 0 48 0;
#X connect 47 0 49 0;
#X connect 48 0 20 0;
#X connect 48 0 26 0;
#X connect 48 0 46 0;
#X connect 48 0 43 0;
#X connect 48 0 38 0;
#X connect 48 0 35 0;
#X connect 48 0 32 0;
#X connect 48 0 29 0;
#X connect 48 1 25 0;
#X connect 48 1 21 0;
#X connect 48 1 46 0;
#X connect 48 1 43 0;
#X connect 48 1 38 0;
#X connect 48 1 35 0;
#X connect 48 1 32 0;
#X connect 48 1 29 0;
#X connect 48 2 28 0;
#X connect 48 2 32 0;
#X connect 48 2 46 0;
#X connect 48 2 43 0;
#X connect 48 2 38 0;
#X connect 48 2 35 0;
#X connect 48 2 26 0;
#X connect 48 2 21 0;
#X connect 48 3 35 0;
#X connect 48 3 29 0;
#X connect 48 3 46 0;
#X connect 48 3 43 0;
#X connect 48 3 38 0;
#X connect 48 3 26 0;
#X connect 48 3 21 0;
#X connect 48 3 31 0;
#X connect 48 4 38 0;
#X connect 48 4 32 0;
#X connect 48 4 29 0;
#X connect 48 4 46 0;
#X connect 48 4 43 0;
#X connect 48 4 26 0;
#X connect 48 4 21 0;
#X connect 48 4 34 0;
#X connect 48 5 35 0;
#X connect 48 5 32 0;
#X connect 48 5 29 0;
#X connect 48 5 46 0;
#X connect 48 5 43 0;
#X connect 48 5 26 0;
#X connect 48 5 21 0;
#X connect 48 5 37 0;
#X connect 48 6 46 0;
#X connect 48 6 38 0;
#X connect 48 6 35 0;
#X connect 48 6 32 0;
#X connect 48 6 29 0;
#X connect 48 6 26 0;
#X connect 48 6 21 0;
#X connect 48 6 42 0;
#X connect 48 7 43 0;
#X connect 48 7 38 0;
#X connect 48 7 35 0;
#X connect 48 7 32 0;
#X connect 48 7 29 0;
#X connect 48 7 26 0;
#X connect 48 7 21 0;
#X connect 48 7 45 0;
#X connect 49 0 50 0;
#X connect 51 0 52 0;
#X connect 52 0 47 0;
#X connect 53 0 47 0;
#X connect 54 0 8 0;
#X connect 55 0 14 0;
#X connect 56 0 5 1;
#X connect 58 0 12 1;
#X coords 0 -1 1 1 142 41 1 100 100;
