#N canvas 516 305 1033 738 10;
#X obj 67 -942 inlet~;
#X obj 239 -856 env~ 1024;
#X floatatom 239 -807 5 0 0 0 - - -, f 5;
#X obj 241 -778 moses;
#X obj 238 -753 bng 15 250 50 0 empty empty empty 17 7 0 10 -262144
-1 -1;
#X msg 238 -730 1;
#X floatatom 343 -833 5 0 0 0 - - -, f 5;
#X obj 262 -1083 / 1.27;
#X floatatom 404 -833 5 0 0 0 - - -, f 5;
#X obj 264 -1109 hsl 128 15 0 127 0 0 empty empty empty -2 -8 0 10
-262144 -1 -1 0 1;
#X floatatom 259 -661 5 0 0 0 - - -, f 5;
#X obj 95 -509 *~;
#X obj 143 -528 line~;
#X obj 92 -309 outlet~;
#X obj 407 -856 + 1;
#X obj 330 -1059 / 6.35;
#X msg 76 -667 23.2199;
#X obj 76 -694 loadbang;
#X obj 74 -631 delread~ \$0comp2;
#X obj 278 -716 expr (($f1 - $f3) / $f2) - $f1 + $f3;
#X obj 236 -538 dbtorms;
#X obj 255 -566 abs;
#X floatatom 257 -600 5 0 0 0 - - -, f 5;
#X obj 259 -629 expr 100 + $f1;
#X text 333 -598 IST DIESE UMWANDLUNG SO RICHTIG??? WARUM + 100? Warum
;
#X obj 90 -348 *~;
#X obj 128 -359 line~;
#X obj 410 -1194 vsl 15 128 0 127 0 0 empty empty empty 0 -9 0 10 -262144
-1 -1 0 1;
#X msg 284 -408 \$1 25;
#X obj 593 -665 dbtorms;
#X obj 597 -709 + 100;
#X obj 595 -755 / 3.175;
#X text 313 -1115 rate;
#X text 400 -1056 makeup;
#X text 457 -1197 attack;
#X text 511 -1146 release;
#X obj 490 -1126 hsl 128 15 0.127 127 1 0 empty empty empty -2 -8 0
10 -262144 -1 -1 0 1;
#X obj 435 -1178 hsl 128 15 0.127 127 1 0 empty empty empty -2 -8 0
10 -262144 -1 -1 0 1;
#X floatatom 492 -1078 5 0 0 0 - - -, f 5;
#X obj 492 -1102 * 7.87402;
#X floatatom 436 -1133 5 0 0 0 - - -, f 5;
#X obj 436 -1155 * 7.87402;
#X obj 177 -579 pack f f;
#X obj 623 -1269 loadbang;
#X msg 649 -1164 0.127;
#X obj 234 -503 pack f f;
#X obj 242 -1188 vsl 15 128 0 127 0 0 empty empty empty 0 -9 0 10 -262144
-1 -1 12700 1;
#X msg 284 -1223 127;
#X msg 286 -1146 0;
#X text 234 -1203 threshold;
#X obj 66 -904 delwrite~ \$0comp2 40;
#X connect 0 0 1 0;
#X connect 0 0 50 0;
#X connect 1 0 2 0;
#X connect 2 0 3 0;
#X connect 3 0 4 0;
#X connect 3 1 19 0;
#X connect 4 0 5 0;
#X connect 5 0 42 0;
#X connect 6 0 3 1;
#X connect 6 0 19 2;
#X connect 7 0 6 0;
#X connect 8 0 19 1;
#X connect 9 0 15 0;
#X connect 10 0 23 0;
#X connect 11 0 25 0;
#X connect 12 0 11 1;
#X connect 14 0 8 0;
#X connect 15 0 14 0;
#X connect 16 0 18 0;
#X connect 17 0 16 0;
#X connect 18 0 11 0;
#X connect 19 0 10 0;
#X connect 20 0 45 0;
#X connect 21 0 20 0;
#X connect 22 0 21 0;
#X connect 23 0 22 0;
#X connect 25 0 13 0;
#X connect 26 0 25 1;
#X connect 27 0 31 0;
#X connect 28 0 26 0;
#X connect 29 0 28 0;
#X connect 30 0 29 0;
#X connect 31 0 30 0;
#X connect 36 0 39 0;
#X connect 37 0 41 0;
#X connect 38 0 42 1;
#X connect 39 0 38 0;
#X connect 40 0 45 1;
#X connect 41 0 40 0;
#X connect 42 0 12 0;
#X connect 43 0 44 0;
#X connect 43 0 47 0;
#X connect 43 0 48 0;
#X connect 44 0 37 0;
#X connect 44 0 36 0;
#X connect 45 0 12 0;
#X connect 46 0 7 0;
#X connect 47 0 46 0;
#X connect 48 0 9 0;
#X connect 48 0 27 0;
#X coords 0 -1 1 1 407 178 1 222 -1206;
