#N canvas 534 292 1066 547 12;
#X obj 260 -1110 cnv 15 469 260 empty empty DOPPLER 27 35 0 70 #404040
#fc8000 0;
#X obj 1160 -818 *~;
#X obj 1180 -910 / 127;
#X obj 1750 -808 *~;
#X obj 1790 -828 sig~;
#X floatatom 1820 -898 14 0 0 0 - - -, f 14;
#X text 2090 -1748 Ein Delay bauen \, dessen Echo mit einem Oscilator
manipuliert werden kann. Womöglich auch Rauschen ausprobieren als
Quelle?;
#X text 2070 -1578 Das Problem ist immer der Sprung des Lesekopfes.
Da entsteht ein Knacksen bzw. ein anderes Artefakt.;
#X text 2060 -1478 Als Objekt \, sodass man mehrere Delaylines bauen
kann.;
#X text 2070 -1608 PROBLEME;
#X obj 1800 -758 sig~;
#X obj 1750 -768 +~;
#X text 2160 -1698 praktsich als Doppler-Effekt SPielzeug;
#X text 2040 -1508 GRUNDSÄTZLICHES;
#X text 2080 -1668 Die Delayline ist zu sehen und das Interface gibt
verschiedene Möglichkeiten \, die Position des Lesekopfes zu manipulieren.
Das wird dann visualisiert.;
#X obj 415 -910 hsl 300 20 0 10000 0 0 empty empty empty -2 -8 0 10
#606060 #000000 #000000 10036 1;
#X obj 415 -930 hsl 300 15 0 127 0 0 \$0offset \$0offset_r offset\ tapeheads
96 6 0 10 #606060 #fc8000 #ffffff 0 1;
#X obj 1710 -628 int;
#X obj 1380 -378 snapshot~;
#X obj 1320 -398 bang~;
#N canvas 429 247 526 236 VCO1 0;
#X obj -215 -79 inlet~;
#X obj -59 0 switch~;
#X obj -59 -54 + 1;
#X obj -210 110 outlet~;
#X obj -215 13 osc~;
#X text -170 10 Sinusschwingung;
#X text -17 -49 Der Oscillator ist nur aktiviert \, wenn er in der
GUI ausgewählt ist;
#X obj -59 -78 r \$0-waveform_VCO;
#X obj -220 40 *~ 0.5;
#X obj -220 70 +~ 0.5;
#X obj -59 -27 == 3;
#X connect 0 0 4 0;
#X connect 2 0 10 0;
#X connect 4 0 8 0;
#X connect 7 0 2 0;
#X connect 8 0 9 0;
#X connect 9 0 3 0;
#X connect 10 0 1 0;
#X restore 2161 -1076 pd VCO1;
#N canvas 717 271 488 350 VCO2 0;
#X obj -210 7 inlet~;
#X obj -83 89 switch~;
#X obj -83 31 + 1;
#X obj -240 330 outlet~;
#X obj -210 88 phasor~;
#X text -38 30 Der Oscillator ist nur aktiviert \, wenn er in der GUI
ausgewählt ist;
#X obj -83 7 r \$0-waveform_VCO;
#X obj -80 60 == 5;
#X obj -260 170 samphold~;
#X obj -260 70 noise~;
#X obj -251 96 abs~;
#X obj -240 210 lop~ 2;
#X obj -240 239 lop~ 2;
#X obj -240 270 lop~ 2;
#X obj -240 299 lop~ 2;
#X floatatom -30 290 5 0 0 0 - - -, f 5;
#X obj -20 220 / 63.5;
#X obj -30 250 pow 8;
#X obj 30 138 inlet;
#X connect 0 0 4 0;
#X connect 2 0 7 0;
#X connect 4 0 8 1;
#X connect 6 0 2 0;
#X connect 7 0 1 0;
#X connect 8 0 11 0;
#X connect 9 0 10 0;
#X connect 10 0 8 0;
#X connect 11 0 12 0;
#X connect 12 0 13 0;
#X connect 13 0 14 0;
#X connect 14 0 3 0;
#X connect 16 0 17 0;
#X connect 17 0 11 1;
#X connect 17 0 14 1;
#X connect 17 0 13 1;
#X connect 17 0 12 1;
#X connect 17 0 15 0;
#X connect 18 0 16 0;
#X restore 2280 -1078 pd VCO2;
#N canvas 397 259 527 196 VCO3 0;
#X obj -182 -40 inlet~;
#X obj -24 39 switch~;
#X obj -24 -14 + 1;
#X obj -183 65 outlet~;
#X obj -182 -13 phasor~;
#X text 11 -12 Der Oscillator ist nur aktiviert \, wenn er in der GUI
ausgewählt ist;
#X text -145 29 Sägezahnschwingung;
#X obj -24 -37 r \$0-waveform_VCO;
#X obj -20 10 == 2;
#X connect 0 0 4 0;
#X connect 2 0 8 0;
#X connect 4 0 3 0;
#X connect 7 0 2 0;
#X connect 8 0 1 0;
#X restore 2090 -1078 pd VCO3;
#N canvas 0 29 1600 810 VCO5 0;
#X obj -181 -40 inlet~;
#X obj -99 41 switch~;
#X obj -99 -13 + 1;
#X obj -180 210 outlet~;
#X obj -181 44 phasor~;
#X obj -160 91 *~ -1;
#X obj -160 112 +~ 1;
#X obj -182 152 min~;
#X text -153 134 Dreieckschwingung;
#X text -66 -9 Der Oscillator ist nur aktiviert \, wenn er in der GUI
ausgewählt ist;
#X obj -99 14 == 4;
#X obj -99 -33 r \$0-waveform_VCO;
#X obj -180 170 *~ 2;
#X connect 0 0 4 0;
#X connect 2 0 10 0;
#X connect 4 0 5 0;
#X connect 4 0 7 0;
#X connect 5 0 6 0;
#X connect 6 0 7 1;
#X connect 7 0 12 0;
#X connect 10 0 1 0;
#X connect 11 0 2 0;
#X connect 12 0 3 0;
#X restore 2220 -1078 pd VCO5;
#N canvas 16 177 557 299 VCO6 0;
#X obj -182 -40 inlet~;
#X obj -2 28 switch~;
#X obj -2 -26 + 1;
#X obj -177 224 outlet~;
#X obj -181 -11 phasor~;
#X text 34 -22 Der Oscillator ist nur aktiviert \, wenn er in der GUI
ausgewählt ist;
#X text -76 146 Pulsschwingung;
#X text -53 85 Breite des Puls;
#X obj -2 -46 r \$0-waveform_VCO;
#X obj -160 60 abs~;
#X obj -180 20 -~ 1;
#X obj 0 0 == 1;
#X connect 0 0 4 0;
#X connect 2 0 11 0;
#X connect 4 0 10 0;
#X connect 8 0 2 0;
#X connect 9 0 3 0;
#X connect 10 0 9 0;
#X connect 11 0 1 0;
#X restore 2010 -1080 pd VCO6;
#X obj 2161 -1214 sig~;
#X obj 642 -1033 vradio 17 0 0 5 \$0-waveform_VCO \$0-waveform_VCO_r
Movement -37 -16 0 14 #606060 #fc8000 #fcfcfc 1;
#X obj 607 -1009 cnv 5 1 1 empty empty forw 0 0 0 10 #404040 #fcfcfc
0;
#X obj 607 -1026 cnv 5 1 1 empty empty backw 0 0 0 10 #404040 #fcfcfc
0;
#X obj 606 -992 cnv 5 1 1 empty empty sin 0 0 0 10 #404040 #fcfcfc
0;
#X obj 606 -975 cnv 5 1 1 empty empty tri 0 0 0 10 #404040 #fcfcfc
0;
#X obj 606 -958 cnv 5 1 1 empty empty rand 0 0 0 10 #404040 #fcfcfc
0;
#X obj 1800 -918 int;
#X obj 1070 -558 *~;
#X obj 1110 -558 *~;
#X obj 2170 -1438 / 127;
#X floatatom 2160 -1348 5 0 0 0 - - -, f 5;
#X obj 2170 -1378 pow 4;
#X obj 2170 -1408 * 4;
#X obj 2210 -848 *~ 1;
#X text 1840 -1690 ToDo;
#X text 1800 -1620 Dry/Wet Regler;
#X text 1480 -808 Die LowPass-Frequenz anpassen?;
#X obj 1880 -638 lop~ 10;
#X obj 1880 -608 lop~ 10;
#X obj 415 -890 hsl 300 20 0 10000 0 0 empty empty empty -2 -8 0 10
#606060 #000000 #000000 24986 1;
#X obj 1960 -428 snapshot~;
#X obj 1900 -448 bang~;
#X obj 1980 -638 cos~;
#X obj 2030 -741 wrap~;
#X obj 2080 -646 cos~;
#X obj 2030 -768 +~ 0.5;
#X obj 1980 -688 -~ 0.5;
#X obj 1980 -662 *~ 0.5;
#X obj 2080 -701 -~ 0.5;
#X obj 2080 -668 *~ 0.5;
#X obj 1860 -808 *~;
#X obj 1900 -838 sig~;
#X obj 1900 -798 sig~;
#X obj 1860 -768 +~;
#X obj 1950 -558 *~;
#X obj 2110 -548 *~;
#X obj 1230 -678 *~ 1;
#X obj 1800 -998 * 10;
#X obj 1800 -968 pow 4;
#X obj 1801 -1059 + 1;
#X obj 1800 -1028 / 128;
#X floatatom 1870 -988 5 0 0 0 - - -, f 5;
#X obj 1793 -945 + 0.5;
#X text 1810 -1128 Kann dieser Regler keine Artefate machen?;
#X obj 2040 -598 lop~ 10;
#X obj 2040 -568 lop~ 10;
#X obj 1610 -998 hsl 160 22 0 127 0 0 empty empty empty -2 -8 0 10
#fcfcfc #000000 #000000 0 1;
#X obj 1638 -958 / 12.7;
#X obj 1640 -928 pow 4.1;
#X floatatom 1630 -878 6 0 0 0 - - -, f 6;
#X text 1610 -1028 Lowpass LFO;
#X text 1750 -1660 Zufallsbewegungen als Quelle statt rec;
#X obj 2320 -1158 hsl 337 44 0 127 0 0 empty empty Movement\ Speed\ Random
96 18 0 10 #fcfcfc #000000 #000000 16800 1;
#X text 2390 -1188 Control Feeling ändern?;
#X msg 2150 -1528 1;
#X obj 160 -1160 bng 15 250 50 0 \$0Add_seqpreset1 \$0Add_seqpreset1_ctl
1 -10 8 0 10 #343434 #fc8000 #fce0c4;
#X obj 318 -890 bng 10 250 50 0 empty empty empty -10 8 0 10 #fc8000
#000000 #fce0c4;
#X obj 130 -1350 inlet~;
#X obj 1070 -438 outlet~;
#X obj 270 -914 hsl 100 20 0 127 0 0 \$0drywet \$0drywet_r Dry\ /\ Wet
26 8 0 10 #606060 #fc8000 #ffffff 9900 1;
#X obj 890 -768 / 127;
#X obj 850 -708 - 1;
#X obj 850 -679 abs;
#X obj 850 -618 line~;
#X msg 850 -650 \$1 50;
#X obj 910 -618 line~;
#X msg 910 -650 \$1 50;
#X obj 160 -972 loadbang;
#X obj 210 -1055 bng 16 250 50 0 \$0Add_seqpreset1_sav \$0Add_seqpreset1_sav_ctl
empty -10 8 0 10 #fc8000 #000000 #fce0c4;
#X obj 303 -955 hsl 100 20 0 127 0 0 \$0fb \$0fb_r feedback 26 8 0
10 #606060 #fc8000 #ffffff 0 1;
#X obj 664 -961 hsl 50 10 0 127 0 0 \$0randspeed \$0randspeed_r speed
16 4 0 8 #606060 #fc8000 #ffffff 2450 1;
#X obj 683 -1091 vsl 20 100 0 127 0 0 \$0freq \$0freq_r Frequency -26
-8 0 10 #606060 #fc8000 #ffffff 783 1;
#X obj 664 -983 nbx 6 14 -1e+37 1e+37 0 0 empty empty empty 0 -8 0
8 #606060 #ffffff #000000 0.010039 256 0;
#X obj 363 -986 hsl 140 15 0 127 0 0 \$0movewidth \$0movewidth_r movement\ width
34 6 0 10 #606060 #fc8000 #ffffff 13900 1;
#X obj 460 -968 nbx 5 14 -1e+37 1e+37 0 0 empty empty empty 0 -8 0
8 #606060 #ffffff #000000 10000 256 0;
#X obj 1690 -690 / 127;
#X obj 1690 -660 * 10000;
#X obj 426 -1015 hsl 140 15 0 127 0 0 \$0movelp \$0movelp_r movement\ lowpass\ 
29 6 0 10 #606060 #fc8000 #ffffff 13900 1;
#X obj 523 -997 nbx 5 14 -1e+37 1e+37 0 0 empty empty empty 0 -8 0
8 #606060 #ffffff #000000 12589.3 256 0;
#X msg 180 -930 63.5;
#X msg 80 -920 100;
#X obj 1180 -850 line~;
#X msg 1178 -883 \$1 50;
#X msg 140 -1050 0;
#X obj 1130 -768 delwrite~ \$0-test 10000;
#X obj 1950 -600 vd~ \$0-test;
#X obj 2110 -588 vd~ \$0-test;
#X obj 250 -1250 inlet;
#X obj 310 -1250 inlet;
#X obj 360 -1250 inlet;
#X obj 420 -1250 inlet;
#X obj 480 -1250 inlet;
#X obj 530 -1250 inlet;
#X obj 680 -1250 inlet;
#X obj 250 -1220 clip 0 127;
#X obj 310 -1180 clip 0 127;
#X obj 362 -1218 clip 0 127;
#X obj 422 -1178 clip 0 127;
#X obj 480 -1220 - 1;
#X obj 530 -1210 clip 0 127;
#X obj 680 -1170 clip 0 127;
#X obj 752 -1528 r toolssavebank;
#X obj 962 -1611 r toolssavebang;
#X obj 1181 -1371 f;
#X obj 1126 -1377 f;
#X obj 1050 -1147 s toolssavelists;
#X obj 991 -1507 f;
#X obj 754 -1410 route;
#X obj 1112 -1666 loadbang;
#X obj 1113 -1610 \$1;
#X obj 1112 -1638 del 5;
#X obj 991 -1548 del;
#X obj 1230 -1350 f;
#X obj 1018 -1568 clip 1 99;
#X obj 980 -1360 symbol doppler;
#X obj 754 -1440 route doppler;
#X obj 1340 -1290 f;
#X obj 1270 -1320 f;
#X obj 1400 -1260 f;
#X obj 1460 -1240 f;
#X obj 1140 -1450 r \$0drywet;
#X obj 1200 -1420 r \$0fb;
#X obj 1250 -1400 r \$0movewidth;
#X obj 1290 -1350 r \$0movelp;
#X obj 1350 -1320 r \$0-waveform_VCO;
#X obj 1420 -1284 r \$0freq;
#X obj 990 -1460 t b f b b b b b b b b;
#X obj 1520 -1220 f;
#X obj 1500 -1270 r \$0randspeed;
#X obj 1540 -1250 r \$0offset;
#X obj 1050 -1190 pack s f f f f f f f f f;
#X obj 621 -1255 inlet;
#X obj 620 -1210 clip 0 127;
#X obj 755 -1384 unpack f f f f f f f f;
#X obj 720 -1290 s \$0fb_r;
#X obj 690 -1320 s \$0drywet_r;
#X obj 750 -1260 s \$0movewidth_r;
#X obj 790 -1290 s \$0movelp_r;
#X obj 830 -1330 s \$0-waveform_VCO_r;
#X obj 870 -1260 s \$0freq_r;
#X obj 895 -1289 s \$0randspeed_r;
#X obj 910 -1230 s \$0offset_r;
#X msg 200 -1010 127;
#X msg 130 -820 0;
#X msg 160 -860 10.05;
#X connect 1 0 110 0;
#X connect 2 0 108 0;
#X connect 3 0 11 0;
#X connect 4 0 3 1;
#X connect 5 0 4 0;
#X connect 5 0 57 0;
#X connect 5 0 100 0;
#X connect 10 0 11 1;
#X connect 11 0 18 0;
#X connect 11 0 43 0;
#X connect 16 0 101 0;
#X connect 17 0 10 0;
#X connect 17 0 58 0;
#X connect 18 0 15 0;
#X connect 19 0 18 0;
#X connect 20 0 39 0;
#X connect 21 0 39 0;
#X connect 22 0 39 0;
#X connect 23 0 39 0;
#X connect 24 0 39 0;
#X connect 25 0 22 0;
#X connect 25 0 24 0;
#X connect 25 0 23 0;
#X connect 25 0 21 0;
#X connect 25 0 20 0;
#X connect 32 0 5 0;
#X connect 33 0 84 0;
#X connect 34 0 84 0;
#X connect 35 0 38 0;
#X connect 36 0 25 0;
#X connect 36 0 98 0;
#X connect 37 0 36 0;
#X connect 38 0 37 0;
#X connect 39 0 3 0;
#X connect 39 0 51 0;
#X connect 39 0 52 0;
#X connect 43 0 44 0;
#X connect 44 0 111 0;
#X connect 46 0 45 0;
#X connect 47 0 46 0;
#X connect 48 0 60 1;
#X connect 49 0 54 0;
#X connect 49 0 56 0;
#X connect 50 0 61 1;
#X connect 51 0 49 0;
#X connect 52 0 53 0;
#X connect 53 0 48 0;
#X connect 54 0 55 0;
#X connect 55 0 50 0;
#X connect 56 0 59 0;
#X connect 57 0 56 1;
#X connect 58 0 59 1;
#X connect 59 0 46 0;
#X connect 59 0 70 0;
#X connect 60 0 62 0;
#X connect 61 0 62 0;
#X connect 62 0 1 0;
#X connect 62 0 34 0;
#X connect 63 0 64 0;
#X connect 63 0 67 0;
#X connect 64 0 68 0;
#X connect 65 0 66 0;
#X connect 66 0 63 0;
#X connect 68 0 32 0;
#X connect 70 0 71 0;
#X connect 71 0 112 0;
#X connect 72 0 73 0;
#X connect 73 0 74 0;
#X connect 74 0 43 1;
#X connect 74 0 44 1;
#X connect 74 0 70 1;
#X connect 74 0 71 1;
#X connect 74 0 75 0;
#X connect 74 0 104 0;
#X connect 78 0 21 1;
#X connect 80 0 36 0;
#X connect 82 0 105 0;
#X connect 83 0 33 0;
#X connect 83 0 110 0;
#X connect 85 0 86 0;
#X connect 86 0 87 0;
#X connect 86 0 92 0;
#X connect 87 0 88 0;
#X connect 88 0 90 0;
#X connect 89 0 33 1;
#X connect 90 0 89 0;
#X connect 91 0 34 1;
#X connect 92 0 91 0;
#X connect 93 0 106 0;
#X connect 93 0 169 0;
#X connect 93 0 170 0;
#X connect 93 0 168 0;
#X connect 93 0 109 0;
#X connect 95 0 2 0;
#X connect 96 0 78 0;
#X connect 97 0 35 0;
#X connect 99 0 65 0;
#X connect 101 0 102 0;
#X connect 102 0 17 0;
#X connect 103 0 73 0;
#X connect 105 0 85 0;
#X connect 105 0 96 0;
#X connect 106 0 103 0;
#X connect 107 0 1 1;
#X connect 108 0 107 0;
#X connect 109 0 26 0;
#X connect 111 0 60 0;
#X connect 112 0 61 0;
#X connect 113 0 120 0;
#X connect 114 0 121 0;
#X connect 115 0 122 0;
#X connect 116 0 123 0;
#X connect 117 0 124 0;
#X connect 118 0 125 0;
#X connect 119 0 126 0;
#X connect 120 0 85 0;
#X connect 121 0 95 0;
#X connect 122 0 99 0;
#X connect 123 0 103 0;
#X connect 124 0 26 0;
#X connect 125 0 97 0;
#X connect 126 0 16 0;
#X connect 127 0 141 0;
#X connect 128 0 137 0;
#X connect 129 0 156 3;
#X connect 130 0 156 2;
#X connect 132 0 152 0;
#X connect 133 0 159 0;
#X connect 134 0 136 0;
#X connect 135 0 132 1;
#X connect 135 0 133 1;
#X connect 135 0 139 0;
#X connect 136 0 135 0;
#X connect 137 0 132 0;
#X connect 138 0 156 4;
#X connect 139 0 137 1;
#X connect 140 0 156 0;
#X connect 141 0 133 0;
#X connect 142 0 156 6;
#X connect 143 0 156 5;
#X connect 144 0 156 7;
#X connect 145 0 156 8;
#X connect 146 0 130 1;
#X connect 147 0 129 1;
#X connect 148 0 138 1;
#X connect 149 0 143 1;
#X connect 150 0 142 1;
#X connect 151 0 144 1;
#X connect 152 0 140 0;
#X connect 152 1 156 1;
#X connect 152 2 130 0;
#X connect 152 3 129 0;
#X connect 152 4 138 0;
#X connect 152 5 143 0;
#X connect 152 6 142 0;
#X connect 152 7 144 0;
#X connect 152 8 145 0;
#X connect 152 9 153 0;
#X connect 153 0 156 9;
#X connect 154 0 145 1;
#X connect 155 0 153 1;
#X connect 156 0 131 0;
#X connect 157 0 158 0;
#X connect 158 0 96 0;
#X connect 159 0 161 0;
#X connect 159 1 160 0;
#X connect 159 2 162 0;
#X connect 159 3 163 0;
#X connect 159 4 164 0;
#X connect 159 5 165 0;
#X connect 159 6 166 0;
#X connect 159 7 167 0;
#X connect 168 0 99 0;
#X connect 168 0 85 0;
#X connect 169 0 16 0;
#X connect 170 0 97 0;
#X coords 0 -1 1 1 473 264 1 258 -1112;
