#N canvas 371 103 909 690 10;
#X obj 1001 -99 cnv 15 445 200 empty empty grain 14 19 0 16 -233017
-66577 0;
#X obj 558 144 metro 20;
#X obj 558 123 tgl 15 0 empty empty empty 17 7 0 10 -262144 -1 -1 1
1;
#X floatatom 603 117 5 0 0 0 - - -, f 5;
#X obj 1017 7 hsl 128 15 0 127 0 0 \$0lMin \$0lMin_r min\ length\ 
34 5 0 10 -99865 -260097 -262144 12700 1;
#X obj 1082 27 hsl 128 15 0 127 0 0 \$0lRange \$0lRange_r random\ length\ range
7 6 0 10 -99865 -260097 -262144 0 1;
#X floatatom 501 279 5 0 0 0 - - -, f 5;
#X obj 1018 56 hsl 128 15 0.124 127 1 0 \$0spMin \$0spMin_r min\ speed
40 6 0 10 -99865 -260097 -262144 0 1;
#X obj 1081 76 hsl 128 15 0 127 0 0 \$0spRange \$0spRange_r random\ speed\ range
11 6 0 10 -99865 -260097 -262144 0 1;
#X floatatom 589 332 5 0 0 0 - - -, f 5;
#X obj 1234 -16 hsl 128 15 0 127 0 0 \$0stMin \$0stMin_r min\ start
39 6 0 10 -99865 -260097 -262144 12700 1;
#X obj 1298 4 hsl 128 15 0 127 0 0 \$0stRange \$0stRange_r random\ start\ range
9 6 0 10 -99865 -260097 -262144 6500 1;
#X floatatom 665 399 5 0 0 0 - - -, f 5;
#X obj 1017 -44 hsl 128 15 0.0127 127 1 0 \$0tMin \$0tMin_r min\ freq
40 6 0 10 -99865 -260097 -262144 12700 1;
#X obj 1084 -24 hsl 128 15 0 127 0 0 \$0tRange \$0tRange_r random\ freq\ range
15 5 0 10 -99865 -260097 -262144 0 1;
#X floatatom 642 182 5 0 0 0 - - -, f 5;
#X obj 541 172 t b b b b b;
#X obj 210 264 bng 15 250 50 0 empty empty empty 17 7 0 10 -262144
-1 -1;
#X text 195 244 trigger;
#X obj 151 581 line~;
#X obj 375 596 cos~;
#X obj 375 617 *~ -1;
#X obj 375 638 +~ 1;
#X obj 375 658 /~ 2;
#X obj 374 575 line~;
#X msg 374 528 1;
#X obj 374 551 pack 0 0;
#X msg 417 529 0;
#X text 352 502 apply volume envelope;
#X obj 407 484 bng 15 250 50 0 empty empty empty 17 7 0 10 -262144
-1 -1;
#X obj 263 640 *~;
#X obj 253 309 hsl 128 15 0 1 0 0 empty empty empty -2 -8 0 10 -262144
-1 -1 12700 1;
#X obj 150 555 pack 0 0;
#X obj 244 373 *;
#X obj 71 388 *;
#X obj 56 410 f;
#X obj 56 321 bng 15 250 50 0 empty empty empty 17 7 0 10 -262144 -1
-1;
#X obj 167 386 bng 15 250 50 0 empty empty empty 17 7 0 10 -262144
-1 -1;
#X obj 496 380 hsl 128 15 0.1 20 0 0 empty empty empty -2 -8 0 10 -262144
-1 -1 10147 1;
#X text 464 304 speed;
#X obj 439 368 swap 1;
#X floatatom 438 347 5 0 0 0 - - -, f 5;
#X text 256 315 length in milisecs;
#X floatatom 56 432 15 0 0 0 - - -, f 15;
#X obj 229 395 f;
#X obj 239 460 *;
#X obj 251 436 t b f;
#X obj 445 392 -;
#X obj 216 502 +;
#X obj 239 481 t b f;
#X obj 167 449 f;
#N canvas 0 63 671 472 octaveLocker 0;
#X obj 105 68 inlet;
#X text 103 47 on/off;
#X obj 214 73 inlet;
#X text 214 54 num in;
#X obj 214 186 moses 0.125;
#X floatatom 328 384 5 0 0 0 - - -, f 5;
#X obj 277 208 moses 0.25;
#X obj 334 230 moses 0.5;
#X obj 385 251 moses 1;
#X obj 424 272 moses 2;
#X obj 463 294 moses 4;
#X obj 502 315 moses 8;
#X obj 541 336 moses 16;
#X obj 135 333 *;
#X obj 150 306 tgl 15 0 empty empty empty 17 7 0 10 -262144 -1 -1 1
1;
#X obj 188 381 *;
#X obj 204 327 swap 1;
#X obj 203 358 -;
#X floatatom 153 408 5 0 0 0 - - -, f 5;
#X obj 153 384 +;
#X obj 151 358 t b f;
#X obj 174 432 outlet;
#X floatatom 254 140 5 0 0 0 - - -, f 5;
#X obj 246 97 swap 1;
#X obj 254 120 -;
#X msg 586 358 -15;
#X msg 541 359 -7;
#X msg 502 338 -3;
#X msg 463 317 -1;
#X msg 424 295 0;
#X msg 385 274 0.5;
#X msg 334 253 0.75;
#X msg 280 234 0.875;
#X msg 222 236 0.9365;
#X msg 391 302 0.5;
#X msg 430 323 1;
#X msg 469 345 2;
#X msg 510 367 3;
#X msg 547 388 4;
#X msg 589 407 5;
#X msg 340 281 0.25;
#X msg 286 262 0.125;
#X msg 228 264 0.0625;
#X obj 487 458 outlet;
#X connect 0 0 14 0;
#X connect 2 0 23 0;
#X connect 2 0 15 0;
#X connect 4 0 33 0;
#X connect 4 0 42 0;
#X connect 4 1 6 0;
#X connect 5 0 13 0;
#X connect 6 0 32 0;
#X connect 6 0 41 0;
#X connect 6 1 7 0;
#X connect 7 0 31 0;
#X connect 7 0 40 0;
#X connect 7 1 8 0;
#X connect 8 0 30 0;
#X connect 8 0 34 0;
#X connect 8 1 9 0;
#X connect 9 0 29 0;
#X connect 9 0 35 0;
#X connect 9 1 10 0;
#X connect 10 0 28 0;
#X connect 10 0 36 0;
#X connect 10 1 11 0;
#X connect 11 0 27 0;
#X connect 11 0 37 0;
#X connect 11 1 12 0;
#X connect 12 0 26 0;
#X connect 12 0 38 0;
#X connect 12 1 25 0;
#X connect 12 1 39 0;
#X connect 13 0 19 0;
#X connect 14 0 13 1;
#X connect 14 0 16 0;
#X connect 15 0 20 0;
#X connect 16 0 17 0;
#X connect 16 1 17 1;
#X connect 17 0 15 1;
#X connect 18 0 21 0;
#X connect 19 0 18 0;
#X connect 20 0 19 0;
#X connect 20 1 19 1;
#X connect 22 0 4 0;
#X connect 23 0 24 0;
#X connect 23 1 24 1;
#X connect 24 0 22 0;
#X connect 25 0 5 0;
#X connect 26 0 5 0;
#X connect 27 0 5 0;
#X connect 28 0 5 0;
#X connect 29 0 5 0;
#X connect 30 0 5 0;
#X connect 31 0 5 0;
#X connect 32 0 5 0;
#X connect 33 0 5 0;
#X connect 34 0 43 0;
#X connect 35 0 43 0;
#X connect 36 0 43 0;
#X connect 37 0 43 0;
#X connect 38 0 43 0;
#X connect 39 0 43 0;
#X connect 40 0 43 0;
#X connect 41 0 43 0;
#X connect 42 0 43 0;
#X restore 368 434 pd octaveLocker;
#X floatatom 195 438 5 0 0 0 - - -, f 5;
#X obj 195 416 min;
#X text 84 347 start time;
#X obj 439 735 *~;
#X obj 345 735 *~;
#X obj 480 671 bng 15 250 50 0 empty empty empty 17 7 0 10 -262144
-1 -1;
#X obj 210 284 t b b b;
#X floatatom 445 414 5 0 0 0 - - -, f 5;
#X floatatom 368 456 5 0 0 0 - - -, f 5;
#N canvas 0 22 471 321 myPanner 0;
#N canvas 737 142 450 300 meanNrange 0;
#X obj 181 117 random 1000;
#X obj 181 138 / 1000;
#X floatatom 181 220 5 0 0 0 - - -, f 5;
#X obj 181 93 inlet;
#X text 180 72 bang;
#X obj 181 162 * 1;
#X text 204 163 range;
#X obj 181 188 + 0;
#X text 207 191 mean;
#X obj 281 95 inlet;
#X text 283 74 mean;
#X obj 332 95 inlet;
#X text 330 75 range;
#X obj 181 244 outlet;
#X connect 0 0 1 0;
#X connect 1 0 5 0;
#X connect 2 0 13 0;
#X connect 3 0 0 0;
#X connect 5 0 7 0;
#X connect 7 0 2 0;
#X connect 9 0 7 1;
#X connect 11 0 5 1;
#X restore -637 158 pd meanNrange;
#X floatatom -637 180 5 0 0 0 - - -, f 5;
#X obj -637 136 bng 15 250 50 0 empty empty empty 17 7 0 10 -262144
-1 -1;
#X obj -600 109 loadbang;
#X obj -527 94 hsl 128 15 0 1 0 0 empty empty empty -2 -8 0 10 -262144
-1 -1 0 1;
#X msg -600 136 0;
#X floatatom -530 114 5 0 0 0 - - -, f 5;
#X obj -522 133 bng 15 250 50 0 empty empty empty 17 7 0 10 -262144
-1 -1;
#X floatatom -522 171 5 0 0 0 - - -, f 5;
#X obj -522 151 random 2;
#X obj -522 189 * 2;
#X obj -522 210 - 1;
#X floatatom -522 232 5 0 0 0 - - -, f 5;
#X obj -594 207 *;
#X obj -637 108 t b b;
#X floatatom -594 229 5 0 0 0 - - -, f 5;
#X obj -751 100 + 1;
#X obj -751 120 / 2;
#X floatatom -751 142 5 0 0 0 - - -, f 5;
#X obj -818 98 swap 1;
#X obj -807 119 -;
#X floatatom -807 141 5 0 0 0 - - -, f 5;
#X obj -637 48 inlet;
#X obj -530 51 inlet;
#X obj -751 167 outlet;
#X obj -807 167 outlet;
#X connect 0 0 1 0;
#X connect 1 0 13 0;
#X connect 2 0 0 0;
#X connect 3 0 5 0;
#X connect 4 0 0 2;
#X connect 4 0 6 0;
#X connect 5 0 0 1;
#X connect 7 0 9 0;
#X connect 8 0 10 0;
#X connect 9 0 8 0;
#X connect 10 0 11 0;
#X connect 11 0 12 0;
#X connect 12 0 13 1;
#X connect 13 0 15 0;
#X connect 14 0 2 0;
#X connect 14 1 7 0;
#X connect 15 0 16 0;
#X connect 16 0 17 0;
#X connect 17 0 18 0;
#X connect 18 0 19 0;
#X connect 18 0 24 0;
#X connect 19 0 20 0;
#X connect 19 1 20 1;
#X connect 20 0 21 0;
#X connect 21 0 25 0;
#X connect 22 0 14 0;
#X connect 23 0 4 0;
#X restore 480 693 pd myPanner;
#X obj 1300 -50 hsl 128 15 0 127 0 0 \$0panning \$0panning_r pan\ stereo\ random
16 6 0 10 -99865 -260097 -262144 0 1;
#X floatatom 216 524 15 0 0 0 - - -, f 15;
#X obj 150 474 moses 0;
#X obj 150 495 bng 15 250 50 0 empty empty empty 17 7 0 10 -262144
-1 -1;
#X obj 150 514 f;
#X floatatom 150 536 5 0 0 0 - - -, f 5;
#X obj 665 379 min 1;
#X obj 1327 -87 tgl 20 0 \$0oclock \$0oclock_r octave-lock 23 8 0 10
-262144 -260097 -1 1 1;
#X obj 61 -224 loadbang;
#N canvas 737 142 450 300 minNrange 0;
#X obj 181 117 random 1000;
#X obj 181 138 / 1000;
#X floatatom 181 220 5 0 0 0 - - -, f 5;
#X obj 181 93 inlet;
#X text 180 72 bang;
#X obj 181 162 * 1;
#X text 204 163 range;
#X obj 181 188 + 0;
#X text 207 191 mean;
#X obj 281 95 inlet;
#X text 283 74 mean;
#X obj 332 95 inlet;
#X text 330 75 range;
#X obj 181 244 outlet;
#X connect 0 0 1 0;
#X connect 1 0 5 0;
#X connect 2 0 13 0;
#X connect 3 0 0 0;
#X connect 5 0 7 0;
#X connect 7 0 2 0;
#X connect 9 0 7 1;
#X connect 11 0 5 1;
#X restore 642 160 pd minNrange;
#N canvas 737 142 450 300 minNrange 0;
#X obj 181 117 random 1000;
#X obj 181 138 / 1000;
#X floatatom 181 220 5 0 0 0 - - -, f 5;
#X obj 181 93 inlet;
#X text 180 72 bang;
#X obj 181 162 * 1;
#X text 204 163 range;
#X obj 181 188 + 0;
#X text 207 191 mean;
#X obj 281 95 inlet;
#X text 283 74 mean;
#X obj 332 95 inlet;
#X text 330 75 range;
#X obj 181 244 outlet;
#X connect 0 0 1 0;
#X connect 1 0 5 0;
#X connect 2 0 13 0;
#X connect 3 0 0 0;
#X connect 5 0 7 0;
#X connect 7 0 2 0;
#X connect 9 0 7 1;
#X connect 11 0 5 1;
#X restore 501 257 pd minNrange;
#N canvas 737 142 450 300 minNrange 0;
#X obj 181 117 random 1000;
#X obj 181 138 / 1000;
#X floatatom 181 220 5 0 0 0 - - -, f 5;
#X obj 181 93 inlet;
#X text 180 72 bang;
#X obj 181 162 * 1;
#X text 204 163 range;
#X obj 181 188 + 0;
#X text 207 191 mean;
#X obj 281 95 inlet;
#X text 283 74 mean;
#X obj 332 95 inlet;
#X text 330 75 range;
#X obj 181 244 outlet;
#X connect 0 0 1 0;
#X connect 1 0 5 0;
#X connect 2 0 13 0;
#X connect 3 0 0 0;
#X connect 5 0 7 0;
#X connect 7 0 2 0;
#X connect 9 0 7 1;
#X connect 11 0 5 1;
#X restore 653 307 pd minNrange;
#N canvas 737 142 450 300 minNrange 0;
#X obj 181 117 random 1000;
#X obj 181 138 / 1000;
#X floatatom 181 220 5 0 0 0 - - -, f 5;
#X obj 181 93 inlet;
#X text 180 72 bang;
#X obj 181 162 * 1;
#X text 204 163 range;
#X obj 181 188 + 0;
#X text 207 191 mean;
#X obj 281 95 inlet;
#X text 283 74 mean;
#X obj 332 95 inlet;
#X text 330 75 range;
#X obj 181 244 outlet;
#X connect 0 0 1 0;
#X connect 1 0 5 0;
#X connect 2 0 13 0;
#X connect 3 0 0 0;
#X connect 5 0 7 0;
#X connect 7 0 2 0;
#X connect 9 0 7 1;
#X connect 11 0 5 1;
#X restore 665 359 pd minNrange;
#X obj 1236 35 hsl 128 15 0 127 0 0 \$0vMin \$0vMin_r min\ volume 34
6 0 10 -99865 -260097 -262144 10600 1;
#X obj 1300 55 hsl 128 15 0 127 0 0 \$0vRange \$0vRange_r random\ volume\ range
10 5 0 10 -99865 -260097 -262144 3200 1;
#X floatatom 739 474 5 0 0 0 - - -, f 5;
#X obj 739 454 min 1;
#N canvas 734 406 450 323 minNrange 0;
#X obj 181 117 random 1000;
#X obj 181 138 / 1000;
#X floatatom 181 220 5 0 0 0 - - -, f 5;
#X obj 181 93 inlet;
#X text 180 72 bang;
#X obj 181 162 * 1;
#X text 204 163 range;
#X obj 181 188 + 0;
#X text 207 191 mean;
#X obj 281 95 inlet;
#X text 283 74 mean;
#X obj 332 95 inlet;
#X text 330 75 range;
#X obj 181 244 outlet;
#X connect 0 0 1 0;
#X connect 1 0 5 0;
#X connect 2 0 13 0;
#X connect 3 0 0 0;
#X connect 5 0 7 0;
#X connect 7 0 2 0;
#X connect 9 0 7 1;
#X connect 11 0 5 1;
#X restore 739 434 pd minNrange;
#X msg 103 -26 1;
#X text 522 104 start here!;
#X text 352 114 for octave lock;
#X text 338 131 see the toggle below;
#X obj 151 607 vd~ \$0tape1;
#X msg 368 391 1;
#X obj 1085 -91 hsl 128 15 0 127 0 0 \$0maxLength \$0maxLength_r max\ length
37 6 0 10 -99865 -260097 -262144 12700 1;
#X obj 1150 -71 hsl 128 15 0 127 0 0 \$0maxDel \$0maxDel_r max\ delay
35 6 0 10 -99865 -260097 -262144 12700 1;
#X obj 1085 -75 nbx 5 14 -1e+37 1e+37 0 0 empty empty empty 0 -8 0
10 -262144 -1 -1 5000 256 0;
#X msg 20 -161 127;
#X obj 1229 -87 nbx 5 14 -1e+37 1e+37 0 0 empty empty empty 0 -8 0
10 -262144 -1 -1 5000 256 0;
#X msg 35 -134 127, f 4;
#X obj 62 -367 inlet~;
#X obj 345 777 outlet~;
#X obj 437 772 outlet~;
#X obj 559 68 loadbang;
#X obj 1778 -87 r toolssavebank;
#X obj 2184 -220 r toolssavebang;
#X obj 2357 -15 f;
#X obj 2327 -15 f;
#X obj 2258 72 s toolssavelists;
#X obj 2213 -116 f;
#X obj 1777 -20 route;
#X obj 2334 -275 loadbang;
#X obj 2335 -219 \$1;
#X obj 2334 -247 del 5;
#X obj 2207 -140 del;
#X obj 2386 -14 f;
#X obj 1777 -50 route grain;
#X obj 2205 -16 symbol grain;
#X text -28 -519 Code by maximoskalpap;
#X text -81 -492 https://musicalogic.wordpress.com/2016/12/28/mic-in-real-time-granular-synthesis-in-pure-data/
;
#X obj 1017 -27 nbx 5 14 -1e+37 1e+37 0 0 empty empty empty 0 -8 0
10 -262144 -1 -1 20000 256 0;
#X obj 2211 -67 t b f b b b b b b b b b b b b b b;
#X obj 2447 -16 f;
#X obj 2417 -16 f;
#X obj 2476 -15 f;
#X obj 2258 29 pack s f f f f f f f f f f f f f f f;
#X obj 2537 -16 f;
#X obj 2507 -16 f;
#X obj 2566 -15 f;
#X obj 2627 -17 f;
#X obj 2597 -17 f;
#X obj 2656 -16 f;
#X obj 2683 -15 f;
#X obj 2712 -14 f;
#X obj 2676 -103 r \$0maxDel;
#X obj 2699 -77 r \$0maxLength;
#X obj 2727 -53 r \$0oclock;
#X obj 192 -145 s \$0tMin_r;
#X obj 189 -96 s \$0lMin_r;
#X obj 155 -52 s \$0spMin_r;
#X obj 195 -21 s \$0stMin_r;
#X obj 182 3 s \$0vMin_r;
#X obj 182 24 s \$0panning_r;
#X obj 263 -148 s \$0tRange_r;
#X obj 281 -99 s \$0lRange_r;
#X obj 274 -49 s \$0spRange_r;
#X obj 269 -7 s \$0stRange_r;
#X obj 268 12 s \$0vRange_r;
#X obj 1163 -40 nbx 5 14 -1e+37 1e+37 0 0 empty empty empty 0 -8 0
10 -262144 -1 -1 0 256 0;
#X msg 151 -191 2.865;
#X obj 1017 24 nbx 5 14 -1e+37 1e+37 0 0 empty empty empty 0 -8 0 10
-262144 -1 -1 1 256 0;
#X obj 1162 11 nbx 5 14 -1e+37 1e+37 0 0 empty empty empty 0 -8 0 10
-262144 -1 -1 0 256 0;
#X obj 2645 -133 r \$0tMin;
#X obj 2614 -158 r \$0tRange;
#X obj 932 38 / 127;
#X obj 870 61 * 0.00393705;
#X msg 144 -126 127;
#X msg 233 -199 0;
#X obj 1161 60 nbx 5 14 -1e+37 1e+37 0 0 empty empty empty 0 -8 0 10
-262144 -1 -1 0 256 0;
#X obj 1018 73 nbx 5 14 -1e+37 1e+37 0 0 empty empty empty 0 -8 0 10
-262144 -1 -1 0.0625 256 0;
#X obj 865 141 * 0.11811;
#X msg 112 -128 0.5;
#X obj 1377 -12 nbx 5 14 -1e+37 1e+37 0 0 empty empty empty 0 -8 0
10 -262144 -1 -1 0.511811 256 0;
#X obj 1234 1 nbx 5 14 -1e+37 1e+37 0 0 empty empty empty 0 -8 0 10
-262144 -1 -1 1 256 0;
#X obj 1379 39 nbx 5 14 -1e+37 1e+37 0 0 empty empty empty 0 -8 0 10
-262144 -1 -1 0.251969 256 0;
#X obj 1236 52 nbx 5 14 -1e+37 1e+37 0 0 empty empty empty 0 -8 0 10
-262144 -1 -1 0.834646 256 0;
#X obj 884 180 / 127;
#X obj 1201 242 / 127;
#X obj 1215 278 / 127;
#X obj 1026 355 / 127;
#X obj 2522 -62 r \$0spMin;
#X obj 2488 -81 r \$0spRange;
#X obj 2467 -110 r \$0stMin;
#X obj 2444 -136 r \$0stRange;
#X obj 2392 -154 r \$0vMin;
#X obj 2347 -177 r \$0vRange;
#X obj 2330 -112 r \$0panning;
#X obj 2249 -178 clip 0 239;
#X obj 1778 6 unpack f f f f f f f f f f f f f f;
#X obj 1997 63 s \$0lRange_r;
#X obj 2191 226 s \$0oclock_r;
#X obj 2163 202 s \$0maxLength_r;
#X obj 2141 176 s \$0maxDel_r;
#X obj 2110 146 s \$0tMin_r;
#X obj 2080 122 s \$0tRange_r;
#X obj 2038 93 s \$0lMin_r_r;
#X obj 1808 99 s \$0vRange_r;
#X obj 1856 125 s \$0vMin_r;
#X obj 1908 143 s \$0stRange_r;
#X obj 1931 169 s \$0stMin_r;
#X obj 1954 194 s \$0spRange_r;
#X obj 1986 217 s \$0spMin_r;
#X obj 1793 166 s \$0panning_r;
#X obj 1083 -188 inlet;
#X obj 1126 -188 inlet;
#X obj 1168 -187 inlet;
#X obj 1228 -188 inlet;
#X obj 1269 -187 inlet;
#X obj 1323 -188 inlet;
#X obj 1364 -187 inlet;
#X obj 1423 -186 inlet;
#X obj 1464 -185 inlet;
#X obj 1518 -186 inlet;
#X obj 1559 -185 inlet;
#X obj 1627 -186 inlet;
#X obj 1668 -185 inlet;
#X obj 1723 -185 inlet;
#X msg 1713 -134 0;
#X msg 1749 -130 1;
#X obj 1726 -162 sel 0 1 bang;
#X msg 140 -90 14.12;
#X obj 846 255 r \$0oclock;
#X obj 868 383 spigot;
#X obj 921 389 spigot;
#X obj 929 357 abs;
#X obj 926 335 - 1;
#X msg 206 -75 63.5;
#X obj 850 111 * 0.125985;
#X floatatom 854 42 5 0 0 0 - - -, f 5;
#X floatatom 1149 353 5 0 0 0 - - -, f 5;
#X obj 589 600 line~;
#X msg 627 561 \$1 25;
#X obj 263 662 *~;
#X obj 923 203 / 127;
#X obj 2537 -213 r \$0lRange;
#X obj 2574 -186 r \$0lMin;
#X obj 58 -327 delwrite~ \$0tape1 10000;
#X obj 899 -88 * 39.3701;
#X obj 896 -60 * 39.3701;
#X obj 868 -3 + 0;
#X obj 868 -23 * 157.48;
#X obj 918 2 * 78.7402;
#N canvas -100 210 671 495 showspeed 1;
#X obj 214 73 inlet;
#X text 214 54 num in;
#X obj 214 186 moses 0.125;
#X obj 277 208 moses 0.25;
#X obj 334 230 moses 0.5;
#X obj 385 251 moses 1;
#X obj 424 272 moses 2;
#X obj 463 294 moses 4;
#X obj 502 315 moses 8;
#X obj 541 336 moses 16;
#X floatatom 254 140 5 0 0 0 - - -, f 5;
#X obj 246 97 swap 1;
#X obj 254 120 -;
#X msg 586 358 -15;
#X msg 541 359 -7;
#X msg 502 338 -3;
#X msg 463 317 -1;
#X msg 424 295 0;
#X msg 385 274 0.5;
#X msg 334 253 0.75;
#X msg 280 234 0.875;
#X msg 222 236 0.9365;
#X msg 391 302 0.5;
#X msg 430 323 1;
#X msg 469 345 2;
#X msg 510 367 3;
#X msg 547 388 4;
#X msg 589 407 5;
#X msg 340 281 0.25;
#X msg 286 262 0.125;
#X msg 228 264 0.0625;
#X obj 487 458 outlet;
#X connect 0 0 11 0;
#X connect 0 0 2 0;
#X connect 2 0 21 0;
#X connect 2 0 30 0;
#X connect 2 1 3 0;
#X connect 3 0 20 0;
#X connect 3 0 29 0;
#X connect 3 1 4 0;
#X connect 4 0 19 0;
#X connect 4 0 28 0;
#X connect 4 1 5 0;
#X connect 5 0 18 0;
#X connect 5 0 22 0;
#X connect 5 1 6 0;
#X connect 6 0 17 0;
#X connect 6 0 23 0;
#X connect 6 1 7 0;
#X connect 7 0 16 0;
#X connect 7 0 24 0;
#X connect 7 1 8 0;
#X connect 8 0 15 0;
#X connect 8 0 25 0;
#X connect 8 1 9 0;
#X connect 9 0 14 0;
#X connect 9 0 26 0;
#X connect 9 1 13 0;
#X connect 9 1 27 0;
#X connect 11 0 12 0;
#X connect 11 1 12 1;
#X connect 12 0 10 0;
#X connect 22 0 31 0;
#X connect 23 0 31 0;
#X connect 24 0 31 0;
#X connect 25 0 31 0;
#X connect 26 0 31 0;
#X connect 27 0 31 0;
#X connect 28 0 31 0;
#X connect 29 0 31 0;
#X connect 30 0 31 0;
#X restore 1053 224 pd showspeed;
#X connect 1 0 16 0;
#X connect 2 0 1 0;
#X connect 3 0 1 1;
#X connect 3 0 53 0;
#X connect 4 0 146 0;
#X connect 5 0 147 0;
#X connect 6 0 31 0;
#X connect 7 0 209 0;
#X connect 8 0 152 0;
#X connect 9 0 38 0;
#X connect 10 0 158 0;
#X connect 11 0 215 0;
#X connect 12 0 34 0;
#X connect 13 0 222 0;
#X connect 14 0 223 0;
#X connect 15 0 3 0;
#X connect 16 0 17 0;
#X connect 16 1 74 0;
#X connect 16 1 79 0;
#X connect 16 2 73 0;
#X connect 16 3 72 0;
#X connect 16 4 71 0;
#X connect 17 0 58 0;
#X connect 19 0 84 0;
#X connect 20 0 21 0;
#X connect 21 0 22 0;
#X connect 22 0 23 0;
#X connect 23 0 30 1;
#X connect 24 0 20 0;
#X connect 25 0 26 0;
#X connect 26 0 24 0;
#X connect 27 0 24 0;
#X connect 29 0 27 0;
#X connect 29 0 57 0;
#X connect 30 0 214 0;
#X connect 31 0 33 0;
#X connect 32 0 19 0;
#X connect 32 0 25 0;
#X connect 33 0 44 1;
#X connect 34 0 35 1;
#X connect 35 0 19 0;
#X connect 35 0 43 0;
#X connect 36 0 35 0;
#X connect 37 0 50 0;
#X connect 38 0 41 0;
#X connect 40 0 47 0;
#X connect 40 1 47 1;
#X connect 41 0 40 0;
#X connect 43 0 48 0;
#X connect 43 0 66 1;
#X connect 44 0 53 1;
#X connect 45 0 49 0;
#X connect 46 0 45 0;
#X connect 46 1 45 1;
#X connect 47 0 59 0;
#X connect 48 0 50 1;
#X connect 48 0 63 0;
#X connect 49 0 48 0;
#X connect 49 1 48 1;
#X connect 50 0 64 0;
#X connect 51 0 60 0;
#X connect 52 0 45 0;
#X connect 52 0 26 1;
#X connect 52 0 32 1;
#X connect 53 0 52 0;
#X connect 55 0 94 0;
#X connect 56 0 93 0;
#X connect 57 0 61 0;
#X connect 58 0 37 0;
#X connect 58 1 36 0;
#X connect 58 1 44 0;
#X connect 58 2 29 0;
#X connect 59 0 51 1;
#X connect 60 0 46 0;
#X connect 61 0 56 1;
#X connect 61 1 55 1;
#X connect 62 0 161 0;
#X connect 64 0 65 0;
#X connect 64 1 67 0;
#X connect 65 0 66 0;
#X connect 66 0 67 0;
#X connect 67 0 32 0;
#X connect 68 0 12 0;
#X connect 69 0 51 0;
#X connect 70 0 85 0;
#X connect 70 0 89 0;
#X connect 70 0 91 0;
#X connect 70 0 148 0;
#X connect 70 0 141 0;
#X connect 70 0 202 0;
#X connect 70 0 80 0;
#X connect 70 0 149 0;
#X connect 70 0 208 0;
#X connect 71 0 15 0;
#X connect 72 0 6 0;
#X connect 73 0 9 0;
#X connect 74 0 68 0;
#X connect 75 0 159 0;
#X connect 76 0 160 0;
#X connect 77 0 213 0;
#X connect 78 0 77 0;
#X connect 79 0 78 0;
#X connect 80 0 134 0;
#X connect 84 0 30 0;
#X connect 85 0 69 0;
#X connect 86 0 219 0;
#X connect 87 0 220 0;
#X connect 89 0 86 0;
#X connect 91 0 87 0;
#X connect 92 0 218 0;
#X connect 95 0 2 0;
#X connect 96 0 108 0;
#X connect 97 0 106 0;
#X connect 98 0 117 3;
#X connect 99 0 117 2;
#X connect 101 0 113 0;
#X connect 102 0 170 0;
#X connect 103 0 105 0;
#X connect 104 0 101 1;
#X connect 104 0 102 1;
#X connect 104 0 169 0;
#X connect 105 0 104 0;
#X connect 106 0 101 0;
#X connect 107 0 117 4;
#X connect 108 0 102 0;
#X connect 109 0 117 0;
#X connect 113 0 109 0;
#X connect 113 1 117 1;
#X connect 113 2 99 0;
#X connect 113 3 98 0;
#X connect 113 4 107 0;
#X connect 113 5 115 0;
#X connect 113 6 114 0;
#X connect 113 7 116 0;
#X connect 113 8 119 0;
#X connect 113 9 118 0;
#X connect 113 10 120 0;
#X connect 113 11 122 0;
#X connect 113 12 121 0;
#X connect 113 13 123 0;
#X connect 113 14 124 0;
#X connect 113 15 125 0;
#X connect 114 0 117 6;
#X connect 115 0 117 5;
#X connect 116 0 117 7;
#X connect 117 0 100 0;
#X connect 118 0 117 9;
#X connect 119 0 117 8;
#X connect 120 0 117 10;
#X connect 121 0 117 12;
#X connect 122 0 117 11;
#X connect 123 0 117 13;
#X connect 124 0 117 14;
#X connect 125 0 117 15;
#X connect 126 0 123 1;
#X connect 127 0 124 1;
#X connect 128 0 125 1;
#X connect 141 0 129 0;
#X connect 144 0 121 1;
#X connect 145 0 122 1;
#X connect 146 0 72 1;
#X connect 146 0 142 0;
#X connect 147 0 72 2;
#X connect 147 0 143 0;
#X connect 148 0 130 0;
#X connect 148 0 133 0;
#X connect 149 0 136 0;
#X connect 149 0 137 0;
#X connect 149 0 135 0;
#X connect 149 0 62 0;
#X connect 149 0 138 0;
#X connect 149 0 139 0;
#X connect 152 0 73 2;
#X connect 152 0 150 0;
#X connect 158 0 74 1;
#X connect 158 0 155 0;
#X connect 159 0 157 0;
#X connect 159 0 79 1;
#X connect 159 0 211 0;
#X connect 160 0 156 0;
#X connect 160 0 79 2;
#X connect 161 0 61 1;
#X connect 162 0 119 1;
#X connect 163 0 116 1;
#X connect 164 0 114 1;
#X connect 165 0 115 1;
#X connect 166 0 107 1;
#X connect 167 0 98 1;
#X connect 168 0 99 1;
#X connect 169 0 106 1;
#X connect 170 0 184 0;
#X connect 170 1 178 0;
#X connect 170 2 179 0;
#X connect 170 3 180 0;
#X connect 170 4 181 0;
#X connect 170 5 182 0;
#X connect 170 6 183 0;
#X connect 170 7 171 0;
#X connect 170 8 177 0;
#X connect 170 9 176 0;
#X connect 170 10 175 0;
#X connect 170 11 174 0;
#X connect 170 12 173 0;
#X connect 170 13 172 0;
#X connect 185 0 86 0;
#X connect 186 0 87 0;
#X connect 187 0 62 0;
#X connect 188 0 13 0;
#X connect 189 0 14 0;
#X connect 190 0 4 0;
#X connect 191 0 5 0;
#X connect 192 0 7 0;
#X connect 193 0 8 0;
#X connect 194 0 10 0;
#X connect 195 0 11 0;
#X connect 196 0 75 0;
#X connect 197 0 76 0;
#X connect 198 0 201 0;
#X connect 199 0 69 0;
#X connect 200 0 69 0;
#X connect 201 0 199 0;
#X connect 201 1 200 0;
#X connect 201 2 69 0;
#X connect 202 0 131 0;
#X connect 203 0 207 0;
#X connect 203 0 204 1;
#X connect 204 0 151 0;
#X connect 205 0 151 0;
#X connect 206 0 205 1;
#X connect 207 0 206 0;
#X connect 208 0 132 0;
#X connect 209 0 73 1;
#X connect 209 0 205 0;
#X connect 209 0 224 0;
#X connect 212 0 214 1;
#X connect 213 0 212 0;
#X connect 214 0 56 0;
#X connect 214 0 55 0;
#X connect 215 0 74 2;
#X connect 215 0 154 0;
#X connect 216 0 118 1;
#X connect 217 0 120 1;
#X connect 219 0 88 0;
#X connect 219 0 33 1;
#X connect 220 0 90 0;
#X connect 220 0 34 1;
#X connect 221 0 71 1;
#X connect 221 0 112 0;
#X connect 222 0 221 0;
#X connect 223 0 140 0;
#X connect 223 0 71 2;
#X connect 224 0 151 0;
#X coords 0 -1 1 1 447 204 1 1000 -101;
