#N canvas 0 62 1600 813 12;
#X obj 741 -176 cnv 25 731 254 empty empty jerry 248 200 0 36 #202020
#fcfcfc 0;
#X obj 751 -144 cnv 25 468 153 empty empty filtered\\\ noise 244 11
0 16 #404040 #fcfcfc 0;
#X obj 866 -102 vsl 30 93 0 127 0 0 \$0JERRY_OT1volctl \$0JERRY_OT1volctl_ctl
Vol 7 61 0 9 #9c9c9c #fc8000 #000000 9200 1;
#X obj 929 -67 vsl 25 60 0 127 0 0 \$0JERRY_OT2volctl \$0JERRY_OT2volctl_ctl
Vol 5 28 0 9 #9c9c9c #fc8000 #000000 0 1;
#X obj 928 -84 nbx 5 14 -1e+37 1e+37 0 0 empty \$0OT2FinalDist OT1
24 -26 0 10 #404040 #fc8000 #fcfcfc 12 256 0;
#X obj 1001 -84 nbx 5 14 -1e+37 1e+37 0 0 empty \$0OT3FinalDist OT2
24 -26 0 10 #404040 #fc8000 #fcfcfc 24 256 0;
#X obj 1076 -84 nbx 5 14 -1e+37 1e+37 0 0 empty \$0OT4FinalDist OT3
24 -26 0 10 #404040 #fc8000 #fcfcfc 31 256 0;
#X obj 1149 -84 nbx 5 14 -1e+37 1e+37 0 0 empty \$0OT5FinalDist OT4
24 -26 0 10 #404040 #fc8000 #fcfcfc 36 256 0;
#X obj 866 -121 nbx 5 14 -1e+37 1e+37 0 0 empty \$0basefreq Base 0
-9 0 11 #343434 #fc8000 #fcfcfc 0 256 0;
#X obj 757 -23 nbx 4 14 -1e+37 1e+37 0 0 empty \$0JERRY_Q empty 0 -8
0 11 #343434 #fc8000 #000000 41.3777 256 0;
#N canvas 775 134 895 627 preset 0;
#X obj 15 -69 bng 15 250 50 0 empty \$0Jerry_preset1 empty 17 7 0 10
#fcfcfc #000000 #000000;
#X obj 36 -69 bng 15 250 50 0 empty \$0Jerry_preset2 empty 17 7 0 10
#fcfcfc #000000 #000000;
#X obj 57 -69 bng 15 250 50 0 empty \$0Jerry_preset3 empty 17 7 0 10
#fcfcfc #000000 #000000;
#X obj 99 -69 bng 15 250 50 0 empty \$0Jerry_preset5 empty 17 7 0 10
#fcfcfc #000000 #000000;
#X obj 78 -69 bng 15 250 50 0 empty \$0Jerry_preset4 empty 17 7 0 10
#fcfcfc #000000 #000000;
#X obj 120 -69 bng 15 250 50 0 empty \$0Jerry_preset6 empty 17 7 0
10 #fcfcfc #000000 #000000;
#X obj 141 -69 bng 15 250 50 0 empty \$0Jerry_preset7 empty 17 7 0
10 #fcfcfc #000000 #000000;
#X obj 162 -69 bng 15 250 50 0 empty \$0Jerry_preset8 empty 17 7 0
10 #fcfcfc #000000 #000000;
#X obj 428 23 1 0 0 0 0;
#X obj 429 91 0.7 0.5 0.3 0.1 0.05;
#N canvas 0 253 1145 445 send 0;
#X obj 21 17 unpack f f f f f f f f f f f;
#X obj 21 97 line;
#X obj 155 98 line;
#X obj 293 97 line;
#X obj 466 99 line;
#X obj 601 99 line;
#X obj 758 96 line;
#X obj 955 96 line;
#X obj 1096 105 line;
#X obj 1258 99 line;
#X obj 21 -6 inlet;
#X obj 674 199 inlet;
#X obj 789 201 inlet;
#X text 168 202 hier Erläuterungen \, beschriften;
#X obj 789 233 unpack f f f f f;
#X obj 674 233 unpack f f f f f;
#N canvas 396 313 450 375 ramp 0;
#X obj 27 169 line;
#X obj 37 179 line;
#X obj 47 189 line;
#X obj 57 199 line;
#X obj 67 209 line;
#X obj 27 -4 inlet;
#X obj 37 6 inlet;
#X obj 47 16 inlet;
#X obj 57 26 inlet;
#X obj 67 36 inlet;
#X text 173 27 Hier Erläuterungen;
#X msg 27 104 \$1 1000;
#X msg 37 112 \$1 1000;
#X msg 57 135 \$1 1000;
#X msg 47 124 \$1 1000;
#X msg 67 144 \$1 1000;
#X obj 27 48 * 127;
#X obj 37 58 * 127;
#X obj 47 68 * 127;
#X obj 57 78 * 127;
#X obj 67 88 * 127;
#X obj 27 238 s \$0JERRY_OT1volctl_ctl;
#X obj 67 320 s \$0JERRY_OT5volctl_ctl;
#X obj 57 301 s \$0JERRY_OT4volctl_ctl;
#X obj 47 281 s \$0JERRY_OT3volctl_ctl;
#X obj 37 261 s \$0JERRY_OT2volctl_ctl;
#X connect 0 0 21 0;
#X connect 1 0 25 0;
#X connect 2 0 24 0;
#X connect 3 0 23 0;
#X connect 4 0 22 0;
#X connect 5 0 16 0;
#X connect 6 0 17 0;
#X connect 7 0 18 0;
#X connect 8 0 19 0;
#X connect 9 0 20 0;
#X connect 11 0 0 0;
#X connect 12 0 1 0;
#X connect 13 0 3 0;
#X connect 14 0 2 0;
#X connect 15 0 4 0;
#X connect 16 0 11 0;
#X connect 17 0 12 0;
#X connect 18 0 14 0;
#X connect 19 0 13 0;
#X connect 20 0 15 0;
#X restore 812 263 pd ramp;
#N canvas 0 0 704 802 ramp 0;
#X obj 27 230 line;
#X obj 37 240 line;
#X obj 47 250 line;
#X obj 57 260 line;
#X obj 67 270 line;
#X obj 27 34 inlet;
#X obj 37 44 inlet;
#X obj 47 54 inlet;
#X obj 57 64 inlet;
#X obj 67 74 inlet;
#X text 173 27 Hier Erläuterungen;
#X msg 67 205 \$1 500;
#X msg 57 195 \$1 500;
#X msg 47 185 \$1 500;
#X msg 37 175 \$1 500;
#X msg 27 166 \$1 500;
#X obj 27 291 s \$0WHATEVER;
#X obj 37 309 s \$0JERRY_OT2ctl_ctl;
#X obj 47 329 s \$0JERRY_OT3ctl_ctl;
#X obj 58 347 s \$0JERRY_OT4ctl_ctl;
#X obj 68 366 s \$0JERRY_OT5ctl_ctl;
#X connect 0 0 16 0;
#X connect 1 0 17 0;
#X connect 2 0 18 0;
#X connect 3 0 19 0;
#X connect 4 0 20 0;
#X connect 5 0 15 0;
#X connect 6 0 14 0;
#X connect 7 0 13 0;
#X connect 8 0 12 0;
#X connect 9 0 11 0;
#X connect 11 0 4 0;
#X connect 12 0 3 0;
#X connect 13 0 2 0;
#X connect 14 0 1 0;
#X connect 15 0 0 0;
#X restore 696 264 pd ramp;
#X msg 21 74 \$1 100;
#X msg 155 76 \$1 100;
#X msg 293 74 \$1 100;
#X msg 466 76 \$1 100;
#X msg 601 76 \$1 100;
#X msg 758 75 \$1 100;
#X msg 955 73 \$1 100;
#X msg 1096 82 \$1 100;
#X msg 1258 78 \$1 100;
#X obj 21 122 s \$0JERRY_attack_ctl;
#X obj 155 122 s \$0JERRY_release_ctl;
#X obj 293 121 s \$0JERRY_volnoisebp_ctl;
#X obj 601 121 s \$0JERRY_volosc1_ctl;
#X obj 758 121 s \$0JERRY_volosc2_ctl;
#X obj 955 123 s \$0ffaktorosc2;
#X obj 1096 129 s \$0skalmausyctl_ctl;
#X obj 1258 125 s \$0skalmausxctl_ctl;
#X obj 466 121 s \$0JERRY_qctl_ctl;
#X connect 0 0 18 0;
#X connect 0 1 19 0;
#X connect 0 2 20 0;
#X connect 0 3 21 0;
#X connect 0 4 22 0;
#X connect 0 5 23 0;
#X connect 0 6 24 0;
#X connect 0 7 25 0;
#X connect 0 8 26 0;
#X connect 1 0 27 0;
#X connect 2 0 28 0;
#X connect 3 0 29 0;
#X connect 4 0 35 0;
#X connect 5 0 30 0;
#X connect 6 0 31 0;
#X connect 7 0 32 0;
#X connect 8 0 33 0;
#X connect 9 0 34 0;
#X connect 10 0 0 0;
#X connect 11 0 15 0;
#X connect 12 0 14 0;
#X connect 14 0 16 0;
#X connect 14 1 16 1;
#X connect 14 2 16 2;
#X connect 14 3 16 3;
#X connect 14 4 16 4;
#X connect 15 0 17 0;
#X connect 15 1 17 1;
#X connect 15 2 17 2;
#X connect 15 3 17 3;
#X connect 15 4 17 4;
#X connect 18 0 1 0;
#X connect 19 0 2 0;
#X connect 20 0 3 0;
#X connect 21 0 4 0;
#X connect 22 0 5 0;
#X connect 23 0 6 0;
#X connect 24 0 7 0;
#X connect 25 0 8 0;
#X connect 26 0 9 0;
#X restore 344 506 pd send;
#X obj 432 216 0.6 0.6 0.6 0.6 0.6;
#X obj 427 175 0.8 0.4 0.2 0.4 0.05;
#X obj 419 138 0.7 0.5 0.3 0.1 0.05;
#X msg 263 21 1 86 110.6 118.8 121.6;
#X msg 272 57 1 86 110.6 118.8 121.6;
#X msg 254 93 1 127 127 127 127;
#X msg 256 139 1 86 90 90 94;
#X msg 264 175 1 127 110 98 74;
#X msg 275 244 1 33 36 61 65;
#X msg 305 283 1 25 36 58 65;
#X obj 438 244 1 1 1 1 1;
#X obj 468 283 1 1 1 1 1;
#X obj 434 55 1 0.5 0.3 0.1 0.05;
#X text 516 23 dirty Sine;
#X msg -46 24 0.02 4 127 100 0 0 0.5 0 0;
#X text 569 55 sawish;
#X msg -38 58 0.2 3 127 127 0 70 0.5 0 0;
#X msg -45 93 0.02 0.5 127 100 0 60 0.5 0 0;
#X text 584 90 squarish;
#X msg -34 132 13 25 127 110 0 127 0.5 0 0;
#X text 575 138 WhyOhWhy?;
#X msg -31 164 16 10 100 80 0 127 0.5 0 0;
#X text 581 176 Windy;
#X msg -6 248 30 50 127 90 0 60 0.5 0 0;
#X msg -4 284 2 30 127 100 0 127 0.5 0 0;
#X obj -29 -127 loadbang;
#X obj -27 -100 del 100;
#X msg -22 201 2 40 127 127 0 10 0.5 0 0;
#X msg 266 211 1 37 48.7 66.2 88;
#X connect 0 0 25 0;
#X connect 0 0 14 0;
#X connect 0 0 8 0;
#X connect 1 0 15 0;
#X connect 1 0 27 0;
#X connect 1 0 23 0;
#X connect 2 0 28 0;
#X connect 2 0 16 0;
#X connect 2 0 9 0;
#X connect 3 0 18 0;
#X connect 3 0 12 0;
#X connect 3 0 32 0;
#X connect 4 0 30 0;
#X connect 4 0 17 0;
#X connect 4 0 13 0;
#X connect 5 0 39 0;
#X connect 5 0 11 0;
#X connect 5 0 38 0;
#X connect 6 0 34 0;
#X connect 6 0 19 0;
#X connect 6 0 21 0;
#X connect 7 0 35 0;
#X connect 7 0 20 0;
#X connect 7 0 22 0;
#X connect 8 0 10 2;
#X connect 9 0 10 2;
#X connect 11 0 10 2;
#X connect 12 0 10 2;
#X connect 13 0 10 2;
#X connect 14 0 10 1;
#X connect 15 0 10 1;
#X connect 16 0 10 1;
#X connect 17 0 10 1;
#X connect 18 0 10 1;
#X connect 19 0 10 1;
#X connect 20 0 10 1;
#X connect 21 0 10 2;
#X connect 22 0 10 2;
#X connect 23 0 10 2;
#X connect 25 0 10 0;
#X connect 27 0 10 0;
#X connect 28 0 10 0;
#X connect 30 0 10 0;
#X connect 32 0 10 0;
#X connect 34 0 10 0;
#X connect 35 0 10 0;
#X connect 36 0 37 0;
#X connect 37 0 0 0;
#X connect 38 0 10 0;
#X connect 39 0 10 1;
#X restore 555 -435 pd preset;
#X obj 2247 -810 loadbang;
#X text 246 -639 Note inlet;
#X text 357 -640 Q inlet;
#N canvas 363 21 544 298 scale 0;
#X floatatom 18 -42 5 0 0 0 - - -, f 5;
#X floatatom 183 60 5 0 0 0 - - -, f 5;
#X obj 183 149 outlet;
#X obj 18 183 outlet;
#X text 72 -16 skalieren;
#X text 216 74 Ausgabe für Q;
#X text 74 139 untere Grenze;
#X text 56 107 skalieren;
#X text 66 183 Ausgabe für Vol;
#X obj 18 -70 inlet;
#X text 320 -61 Hier Erläuterung;
#X obj 18 -15 / 800;
#X floatatom 18 16 5 0 0 0 - - -, f 5;
#X floatatom 183 129 5 0 0 0 - - -, f 5;
#X obj 18 43 pow 1.8;
#X text 71 43 Funktion: x^1.8;
#X obj 183 83 * 80;
#X obj 18 108 * 8;
#X obj 18 139 + 0.25;
#X obj 183 107 + 0.15;
#X connect 0 0 11 0;
#X connect 1 0 16 0;
#X connect 9 0 0 0;
#X connect 11 0 12 0;
#X connect 12 0 14 0;
#X connect 13 0 2 0;
#X connect 14 0 1 0;
#X connect 14 0 17 0;
#X connect 16 0 19 0;
#X connect 17 0 18 0;
#X connect 18 0 3 0;
#X connect 19 0 13 0;
#X restore 392 -316 pd scale;
#X obj 392 -294 s \$0JERRY_Q_volcontrol;
#X obj 449 -263 s \$0JERRY_Q;
#X obj 391 -377 * 6.29921;
#X floatatom 391 -348 5 0 0 0 - - -, f 5;
#X msg 2225 -715 127;
#X obj 2222 -634 s \$0JERRY_OT1volctl_ctl;
#X text 114 -1049 ToDo;
#X obj 53 -237 pack 0 0 0;
#X obj 55 -200 route 1 2 3 4;
#X obj 53 -267 poly 4 1;
#X msg 272 -294 stop;
#X obj 273 -396 route stop;
#X obj 271 -317 bng 15 250 50 0 empty empty empty 17 7 0 10 #fcfcfc
#000000 #000000;
#X obj 284 -589 l;
#N canvas 0 51 1600 826 voice 0;
#X obj 258 485 outlet~;
#N canvas 786 319 679 557 oscs 0;
#X obj 40 99 osc~;
#X obj 191 253 +~;
#X obj 364 99 osc~;
#X obj 192 288 outlet~;
#X obj 40 212 *~;
#X obj 363 232 *~;
#X obj 84 46 *~;
#X obj 190 -141 line~;
#X obj 364 -99 *~;
#X obj 364 65 +~;
#X obj 405 49 *~;
#X text 536 -49 Mausbeschleunigung X;
#X text 218 -47 Mausbeschleunigung Y;
#N canvas 466 147 450 300 noOffset 0;
#X floatatom 129 99 5 0 0 0 - - -, f 5;
#X obj 100 145 sel 0;
#X obj 139 210 line~;
#X obj 169 123 != 0;
#X msg 169 174 1 2;
#X msg 100 172 0 2;
#X obj 169 148 sel 1;
#X obj 128 49 inlet~;
#X obj 139 236 outlet~;
#X obj 129 79 unsig~ 5;
#X connect 0 0 1 0;
#X connect 0 0 3 0;
#X connect 1 0 5 0;
#X connect 2 0 8 0;
#X connect 3 0 6 0;
#X connect 4 0 2 0;
#X connect 5 0 2 0;
#X connect 6 0 4 0;
#X connect 7 0 9 0;
#X connect 9 0 0 0;
#X restore 95 99 pd noOffset;
#X obj 40 134 *~;
#X text 372 -196 Eigangsfrequenz;
#X obj 99 22 r \$0skalmausy;
#X obj 377 -123 r \$0ffaktorosc2;
#X obj 420 22 r \$0skalmausx;
#X obj 386 130 r \$0JERRY_volosc2;
#X obj 78 158 r \$0JERRY_volosc1;
#X obj 188 -197 inlet;
#X obj 386 160 / 846.667;
#X obj 398 209 line~;
#X msg 398 187 \$1 50;
#X obj 189 -165 pack f f;
#X obj 238 -215 r \$0JERRY_glide;
#X obj 240 -190 * 7.87402;
#X obj 330 -160 s \$0JERRY_glide_show;
#X obj 81 192 / 1270;
#X obj 80 246 line~;
#X msg 80 224 \$1 50;
#X obj 85 -46 r~ \$0JERRY_Mouse_Y_acc;
#X obj 404 -50 r~ \$0JERRY_Mouse_X_acc;
#X obj 14 174 hip~ 10;
#X obj 40 62 +~;
#X connect 0 0 14 0;
#X connect 1 0 3 0;
#X connect 2 0 5 0;
#X connect 4 0 1 0;
#X connect 5 0 1 1;
#X connect 6 0 35 1;
#X connect 7 0 8 0;
#X connect 7 0 35 0;
#X connect 8 0 9 0;
#X connect 9 0 2 0;
#X connect 10 0 9 1;
#X connect 13 0 14 1;
#X connect 14 0 34 0;
#X connect 16 0 6 1;
#X connect 17 0 8 1;
#X connect 18 0 10 1;
#X connect 19 0 22 0;
#X connect 20 0 29 0;
#X connect 21 0 25 0;
#X connect 22 0 24 0;
#X connect 23 0 5 1;
#X connect 24 0 23 0;
#X connect 25 0 7 0;
#X connect 26 0 27 0;
#X connect 27 0 25 1;
#X connect 27 0 28 0;
#X connect 29 0 31 0;
#X connect 30 0 4 1;
#X connect 31 0 30 0;
#X connect 32 0 6 0;
#X connect 33 0 10 0;
#X connect 34 0 4 0;
#X connect 35 0 0 0;
#X connect 35 0 13 0;
#X restore 171 261 pd oscs;
#X obj 374 322 *~;
#X obj 172 322 *~;
#N canvas 355 87 450 426 Lautstärkenkontrolle 0;
#X obj -3505 164 *~;
#X text -3478 163 Anpassung der Lautstärke nach Q;
#X obj -3505 68 *~;
#X obj -3490 143 line~;
#X obj -3506 266 *~;
#X obj -3491 246 line~;
#N canvas 630 202 450 300 Jerry_rel_Vol_Freq 0;
#X floatatom 50 -46 5 0 0 0 - - -, f 5;
#X obj 50 -14 / 4500;
#X floatatom 50 12 5 0 0 0 - - -, f 5;
#X obj 50 34 inv;
#X floatatom 50 58 5 0 0 0 - - -, f 5;
#X floatatom 48 147 5 0 0 0 - - -, f 5;
#X obj 48 174 outlet;
#X floatatom 48 102 5 0 0 0 - - -, f 5;
#X obj 50 82 / 40;
#X obj 48 124 clip 0.12 2;
#X obj 51 -93 r \$0basefreq1;
#X connect 0 0 1 0;
#X connect 1 0 2 0;
#X connect 2 0 3 0;
#X connect 3 0 4 0;
#X connect 4 0 8 0;
#X connect 5 0 6 0;
#X connect 7 0 9 0;
#X connect 8 0 7 0;
#X connect 9 0 5 0;
#X connect 10 0 0 0;
#X restore -3491 204 pd Jerry_rel_Vol_Freq;
#X text -3479 268 Anpassung der Lautstärke nach der Frequenz;
#X obj -3483 45 line~;
#X text -3448 69 generelle Lautstärkenkontrolle;
#X obj -3503 -69 inlet~;
#X obj -3506 342 outlet~;
#X obj -3483 -28 r \$0JERRY_volnoisebp;
#X obj -3490 102 r \$0JERRY_Q_volcontrol;
#X obj -3484 -4 / 84.6667;
#X msg -3490 124 \$1 50;
#X msg -3491 227 \$1 50;
#X msg -3483 22 \$1 50;
#X connect 0 0 4 0;
#X connect 2 0 0 0;
#X connect 3 0 0 1;
#X connect 4 0 11 0;
#X connect 5 0 4 1;
#X connect 6 0 16 0;
#X connect 8 0 2 1;
#X connect 10 0 2 0;
#X connect 12 0 14 0;
#X connect 13 0 15 0;
#X connect 14 0 17 0;
#X connect 15 0 3 0;
#X connect 16 0 5 0;
#X connect 17 0 8 0;
#X restore 375 412 pd Lautstärkenkontrolle;
#N canvas 0 51 1600 826 noise 0;
#X obj 215 -780 outlet~;
#X text 148 -1317 Tonabstand;
#N canvas 583 252 878 624 scalemode 0;
#X obj 34 263 pack;
#X obj 34 297 line~;
#X obj 34 359 outlet~;
#X obj 62 190 r \$0JERRY_glide;
#X obj 25 40 inlet;
#X obj 59 220 * 7.87402;
#X connect 0 0 1 0;
#X connect 1 0 2 0;
#X connect 3 0 5 0;
#X connect 4 0 0 0;
#X connect 5 0 0 1;
#X restore 33 -1221 pd scalemode;
#N canvas 635 51 704 825 scalemode 0;
#X obj 61 620 pack;
#X obj 61 702 outlet~;
#X obj 61 640 line~;
#N canvas 1092 338 162 174 receiveOTdist 0;
#X obj 26 16 r \$0JERRY_OT2ctl;
#X floatatom 26 69 5 0 0 0 - - -, f 5;
#X obj 26 164 s \$0JERRY_OT2dist;
#X obj 26 40 / 6.6842;
#X obj 26 94 int;
#X floatatom 26 142 5 0 0 0 - - -, f 5;
#X obj 26 119 clip 1 19;
#X obj 98 138 s \$0OT2FinalDist;
#X connect 0 0 3 0;
#X connect 1 0 4 0;
#X connect 3 0 1 0;
#X connect 4 0 6 0;
#X connect 5 0 2 0;
#X connect 5 0 7 0;
#X connect 6 0 5 0;
#X restore 550 21 pd receiveOTdist;
#X obj 98 267 r \$0JERRY_OT2dist;
#X floatatom 98 296 5 0 0 0 - - -, f 5;
#X obj 51 61 inlet;
#X floatatom 98 432 5 0 0 0 - - -, f 5;
#X msg 98 387 1.05946;
#X obj 98 410 pow;
#X obj 50 448 *;
#X obj 112 342 t b f;
#X obj 104 546 r \$0JERRY_glide;
#X obj 106 575 * 7.87402;
#X connect 0 0 2 0;
#X connect 2 0 1 0;
#X connect 4 0 5 0;
#X connect 5 0 11 0;
#X connect 6 0 10 0;
#X connect 7 0 10 1;
#X connect 8 0 9 0;
#X connect 9 0 7 0;
#X connect 10 0 0 0;
#X connect 11 0 8 0;
#X connect 11 1 9 1;
#X connect 12 0 13 0;
#X connect 13 0 0 1;
#X restore 151 -1221 pd scalemode;
#X obj 130 -945 vcf_bp4~;
#X obj 229 -947 vcf_bp4~;
#X obj 324 -948 vcf_bp4~;
#X obj 432 -948 vcf_bp4~;
#X obj 13 -944 vcf_bp4~;
#X obj 515 -1111 line~;
#X text 548 -1150 Empfang Q;
#N canvas 162 434 281 213 BP1Volume 0;
#X msg 27 41 \$1 5;
#X obj 27 66 line~;
#X obj 27 91 outlet~;
#X obj 27 -12 r \$0JERRY_OT1volctl;
#X obj 27 13 / 127;
#X connect 0 0 1 0;
#X connect 1 0 2 0;
#X connect 3 0 4 0;
#X connect 4 0 0 0;
#X restore 30 -910 pd BP1Volume;
#X obj 14 -881 *~;
#N canvas 229 436 281 173 BP2Volume 0;
#X msg 27 41 \$1 5;
#X obj 27 66 line~;
#X obj 27 91 outlet~;
#X obj 27 12 / 127;
#X obj 27 -13 r \$0JERRY_OT2volctl;
#X connect 0 0 1 0;
#X connect 1 0 2 0;
#X connect 3 0 0 0;
#X connect 4 0 3 0;
#X restore 146 -910 pd BP2Volume;
#N canvas 327 396 281 98 BP3Volume 0;
#X msg 27 41 \$1 5;
#X obj 27 66 line~;
#X obj 27 91 outlet~;
#X obj 27 17 / 127;
#X obj 27 -8 r \$0JERRY_OT3volctl;
#X connect 0 0 1 0;
#X connect 1 0 2 0;
#X connect 3 0 0 0;
#X connect 4 0 3 0;
#X restore 243 -910 pd BP3Volume;
#N canvas 404 442 281 74 BP4Volume 0;
#X msg 27 41 \$1 5;
#X obj 27 66 line~;
#X obj 27 91 outlet~;
#X obj 27 19 / 127;
#X obj 27 -6 r \$0JERRY_OT4volctl;
#X connect 0 0 1 0;
#X connect 1 0 2 0;
#X connect 3 0 0 0;
#X connect 4 0 3 0;
#X restore 340 -910 pd BP4Volume;
#N canvas 513 441 281 106 BP5Volume 0;
#X msg 27 41 \$1 5;
#X obj 27 66 line~;
#X obj 27 91 outlet~;
#X obj 27 17 / 127;
#X obj 27 -8 r \$0JERRY_OT5volctl;
#X connect 0 0 1 0;
#X connect 1 0 2 0;
#X connect 3 0 0 0;
#X connect 4 0 3 0;
#X restore 447 -910 pd BP5Volume;
#X obj 131 -884 *~;
#X obj 228 -881 *~;
#X obj 324 -882 *~;
#X obj 432 -880 *~;
#X text 539 -1294 Grundton + 4 Obertöne aus dem bandpassgefiltertem
Rauschen können in ihrer Amplitude und Frequenz verändert werden
\, um die Klangfarbe zu verändern und/oder mehrstimmge Klänge zu
ermöglichen;
#X obj 519 -1182 r \$0JERRY_Q;
#X obj 33 -1332 inlet;
#N canvas 895 74 704 802 scalemode 0;
#X obj 61 620 pack;
#X obj 61 702 outlet~;
#X obj 61 640 line~;
#X obj 51 61 inlet;
#N canvas 899 173 162 93 receiveOTdist 0;
#X obj 26 16 r \$0JERRY_OT3ctl;
#X obj 26 169 s \$0JERRY_OT3dist;
#X floatatom 26 71 5 0 0 0 - - -, f 5;
#X obj 26 96 int;
#X floatatom 26 144 5 0 0 0 - - -, f 5;
#X obj 26 121 clip 1 28;
#X obj 26 42 / 4.5357;
#X obj 77 212 s \$0OT3FinalDist;
#X connect 0 0 6 0;
#X connect 2 0 3 0;
#X connect 3 0 5 0;
#X connect 4 0 1 0;
#X connect 4 0 7 0;
#X connect 5 0 4 0;
#X connect 6 0 2 0;
#X restore 508 45 pd receiveOTdist;
#X floatatom 95 331 5 0 0 0 - - -, f 5;
#X floatatom 95 467 5 0 0 0 - - -, f 5;
#X msg 95 422 1.05946;
#X obj 95 445 pow;
#X obj 47 483 *;
#X obj 109 377 t b f;
#X obj 95 302 r \$0JERRY_OT3dist;
#X obj 89 559 r \$0JERRY_glide;
#X obj 91 588 * 7.87402;
#X connect 0 0 2 0;
#X connect 2 0 1 0;
#X connect 3 0 9 0;
#X connect 5 0 10 0;
#X connect 6 0 9 1;
#X connect 7 0 8 0;
#X connect 8 0 6 0;
#X connect 9 0 0 0;
#X connect 10 0 7 0;
#X connect 10 1 8 1;
#X connect 11 0 5 0;
#X connect 12 0 13 0;
#X connect 13 0 0 1;
#X restore 256 -1219 pd scalemode;
#N canvas 895 74 704 802 scalemode 0;
#X obj 61 620 pack;
#X obj 61 702 outlet~;
#X obj 61 640 line~;
#X obj 51 61 inlet;
#N canvas 899 173 162 235 receiveOTdist 0;
#X obj 26 16 r \$0JERRY_OT4ctl;
#X obj 26 199 s \$0JERRY_OT4dist;
#X floatatom 26 76 5 0 0 0 - - -, f 5;
#X obj 26 101 int;
#X floatatom 26 149 5 0 0 0 - - -, f 5;
#X obj 26 126 clip 1 34;
#X obj 26 47 / 3.7352;
#X obj 53 174 s \$0OT4FinalDist;
#X connect 0 0 6 0;
#X connect 2 0 3 0;
#X connect 3 0 5 0;
#X connect 4 0 1 0;
#X connect 4 0 7 0;
#X connect 5 0 4 0;
#X connect 6 0 2 0;
#X restore 527 83 pd receiveOTdist;
#X floatatom 109 321 5 0 0 0 - - -, f 5;
#X floatatom 109 457 5 0 0 0 - - -, f 5;
#X msg 109 412 1.05946;
#X obj 109 435 pow;
#X obj 61 473 *;
#X obj 123 367 t b f;
#X obj 109 292 r \$0JERRY_OT4dist;
#X obj 94 544 r \$0JERRY_glide;
#X obj 96 573 * 7.87402;
#X connect 0 0 2 0;
#X connect 2 0 1 0;
#X connect 3 0 9 0;
#X connect 5 0 10 0;
#X connect 6 0 9 1;
#X connect 7 0 8 0;
#X connect 8 0 6 0;
#X connect 9 0 0 0;
#X connect 10 0 7 0;
#X connect 10 1 8 1;
#X connect 11 0 5 0;
#X connect 12 0 13 0;
#X connect 13 0 0 1;
#X restore 366 -1220 pd scalemode;
#N canvas 895 74 704 802 scalemode 0;
#X obj 61 620 pack;
#X obj 61 702 outlet~;
#X obj 61 640 line~;
#X obj 51 61 inlet;
#N canvas 901 225 162 294 receiveOTdist 0;
#X obj 26 170 s \$0JERRY_OT5dist;
#X obj 26 16 r \$0JERRY_OT5ctl;
#X floatatom 26 71 5 0 0 0 - - -, f 5;
#X obj 26 96 int;
#X floatatom 26 144 5 0 0 0 - - -, f 5;
#X obj 26 42 / 3.3421;
#X obj 26 121 clip 1 38;
#X obj 73 208 s \$0OT5FinalDist;
#X connect 1 0 5 0;
#X connect 2 0 3 0;
#X connect 3 0 6 0;
#X connect 4 0 0 0;
#X connect 4 0 7 0;
#X connect 5 0 2 0;
#X connect 6 0 4 0;
#X restore 544 61 pd receiveOTdist;
#X floatatom 104 324 5 0 0 0 - - -, f 5;
#X floatatom 104 460 5 0 0 0 - - -, f 5;
#X msg 104 415 1.05946;
#X obj 104 438 pow;
#X obj 60 468 *;
#X obj 118 370 t b f;
#X obj 104 295 r \$0JERRY_OT5dist;
#X obj 87 545 r \$0JERRY_glide;
#X obj 89 574 * 7.87402;
#X connect 0 0 2 0;
#X connect 2 0 1 0;
#X connect 3 0 9 0;
#X connect 5 0 10 0;
#X connect 6 0 9 1;
#X connect 7 0 8 0;
#X connect 8 0 6 0;
#X connect 9 0 0 0;
#X connect 10 0 7 0;
#X connect 10 1 8 1;
#X connect 11 0 5 0;
#X connect 12 0 13 0;
#X connect 13 0 0 1;
#X restore 471 -1218 pd scalemode;
#X obj 323 -1292 inlet~;
#X obj 516 -1150 \$1 50;
#X connect 2 0 8 1;
#X connect 3 0 4 1;
#X connect 4 0 17 0;
#X connect 5 0 18 0;
#X connect 6 0 19 0;
#X connect 7 0 20 0;
#X connect 8 0 12 0;
#X connect 9 0 8 2;
#X connect 9 0 4 2;
#X connect 9 0 5 2;
#X connect 9 0 6 2;
#X connect 9 0 7 2;
#X connect 11 0 12 1;
#X connect 12 0 0 0;
#X connect 13 0 17 1;
#X connect 14 0 18 1;
#X connect 15 0 19 1;
#X connect 16 0 20 1;
#X connect 17 0 0 0;
#X connect 18 0 0 0;
#X connect 19 0 0 0;
#X connect 20 0 0 0;
#X connect 22 0 28 0;
#X connect 23 0 2 0;
#X connect 23 0 26 0;
#X connect 23 0 25 0;
#X connect 23 0 24 0;
#X connect 23 0 3 0;
#X connect 24 0 5 1;
#X connect 25 0 6 1;
#X connect 26 0 7 1;
#X connect 27 0 8 0;
#X connect 27 0 7 0;
#X connect 27 0 6 0;
#X connect 27 0 5 0;
#X connect 27 0 4 0;
#X connect 28 0 9 0;
#X restore 370 266 pd noise;
#X text 403 321 Hüllkurve (noise/peak);
#X text 200 321 Hüllkurve (Oszillator);
#X text 171 209 Tonerzeugung 1;
#X text 374 209 Tonerzeugung 2;
#X text 374 223 - Bandpassgefiltertes;
#X text 387 235 Rauschen;
#X text 171 223 - Oszillatoren;
#X text 183 235 und Mausgeschwindigkeit;
#N canvas 347 139 430 538 envelope 0;
#X obj 181 590 outlet~;
#X obj 110 420 pack f f;
#X obj 249 425 pack f f;
#X obj 181 536 vline~;
#X msg 110 471 \$1 \$2;
#X msg 248 477 \$1 \$2;
#X obj 155 104 r \$0JERRY_attack;
#X obj 294 105 r \$0JERRY_release;
#X obj 53 281 moses 0.0001;
#X obj 120 361 / 127;
#X obj 53 237 inlet;
#X obj 154 139 * 78.7402;
#X obj 294 137 * 78.7402;
#X connect 1 0 4 0;
#X connect 2 0 5 0;
#X connect 3 0 0 0;
#X connect 4 0 3 0;
#X connect 5 0 3 0;
#X connect 6 0 11 0;
#X connect 7 0 12 0;
#X connect 8 0 2 0;
#X connect 8 1 9 0;
#X connect 9 0 1 0;
#X connect 10 0 8 0;
#X connect 11 0 1 1;
#X connect 12 0 2 1;
#X restore 395 294 pd envelope;
#X obj 230 -108 inlet;
#X obj 268 47 unpack f f;
#X obj 235 -74 zl rev;
#X obj 235 -39 route 0;
#X obj 231 -8 bng 15 250 50 0 empty empty empty 17 7 0 10 #fcfcfc #000000
#000000;
#X msg 231 16 0;
#X obj 284 -7 zl rev;
#N canvas 347 139 430 538 envelope 0;
#X obj 125 280 outlet~;
#X obj 54 110 pack f f;
#X obj 193 115 pack f f;
#X obj 125 226 vline~;
#X msg 54 161 \$1 \$2;
#X msg 192 167 \$1 \$2;
#X obj 99 -206 r \$0JERRY_attack;
#X obj 238 -205 r \$0JERRY_release;
#X obj -3 -29 moses 0.0001;
#X obj 64 51 / 127;
#X obj -3 -73 inlet;
#X obj 98 -171 * 78.7402;
#X obj 238 -173 * 78.7402;
#X obj 144 -125 s \$0JERRY_attack_show;
#X obj 315 -125 s \$0JERRY_release_show;
#X connect 1 0 4 0;
#X connect 2 0 5 0;
#X connect 3 0 0 0;
#X connect 4 0 3 0;
#X connect 5 0 3 0;
#X connect 6 0 11 0;
#X connect 7 0 12 0;
#X connect 8 0 2 0;
#X connect 8 1 9 0;
#X connect 9 0 1 0;
#X connect 10 0 8 0;
#X connect 11 0 1 1;
#X connect 11 0 13 0;
#X connect 12 0 2 1;
#X connect 12 0 14 0;
#X restore 190 295 pd envelope;
#X obj 369 99 s \$0basefreq1;
#X obj 431 -91 inlet~;
#X connect 1 0 3 0;
#X connect 2 0 4 0;
#X connect 3 0 0 0;
#X connect 4 0 0 0;
#X connect 5 0 2 0;
#X connect 14 0 2 1;
#X connect 15 0 17 0;
#X connect 16 0 5 0;
#X connect 16 0 1 0;
#X connect 16 0 23 0;
#X connect 16 1 22 0;
#X connect 16 1 14 0;
#X connect 17 0 18 0;
#X connect 18 0 19 0;
#X connect 18 1 21 0;
#X connect 19 0 20 0;
#X connect 20 0 22 0;
#X connect 20 0 14 0;
#X connect 21 0 16 0;
#X connect 22 0 3 1;
#X connect 24 0 5 1;
#X restore 57 -142 pd voice 1;
#X obj 84 40 *~ 1;
#X text 64 -916 Save/LOAD;
#X obj 812 -130 vsl 32 100 0 127 0 0 \$0JERRY_volnoisebp \$0JERRY_volnoisebp_ctl
VOL 1 50 0 16 #9c9c9c #fc8000 #000000 4300 1;
#X obj 207 -182 noise~;
#X obj 2120 -575 s \$0JERRY_volnoisebp_ctl;
#X obj 928 -101 hsl 60 15 0 127 0 0 \$0JERRY_OT2ctl \$0JERRY_OT2ctl_ctl
Pitch 18 6 0 10 #9c9c9c #fc8000 #000000 3995 1;
#X obj 1001 -101 hsl 60 15 0 127 0 0 \$0JERRY_OT3ctl \$0JERRY_OT3ctl_ctl
Pitch 18 6 0 10 #9c9c9c #fc8000 #000000 5138 1;
#X obj 1002 -66 vsl 25 60 0 127 0 0 \$0JERRY_OT3volctl \$0JERRY_OT3volctl_ctl
Vol 5 28 0 9 #9c9c9c #fc8000 #000000 0 1;
#X obj 1076 -102 hsl 60 15 0 127 0 0 \$0JERRY_OT4ctl \$0JERRY_OT4ctl_ctl
Pitch 18 6 0 10 #9c9c9c #fc8000 #000000 5519 1;
#X obj 1149 -102 hsl 60 15 0 127 0 0 \$0JERRY_OT5ctl \$0JERRY_OT5ctl_ctl
Pitch 18 6 0 10 #9c9c9c #fc8000 #000000 5649 1;
#X obj 1078 -65 vsl 25 60 0 127 0 0 \$0JERRY_OT4volctl \$0JERRY_OT4volctl_ctl
Vol 5 28 0 9 #9c9c9c #fc8000 #000000 0 1;
#X obj 1151 -64 vsl 25 60 0 127 0 0 \$0JERRY_OT5volctl \$0JERRY_OT5volctl_ctl
Vol 5 28 0 9 #9c9c9c #fc8000 #000000 0 1;
#X obj 757 -131 vsl 32 100 0 127 0 0 \$0JERRY_qctl \$0JERRY_qctl_ctl
Q 7 47 0 28 #9c9c9c #fc8000 #000000 6850 1;
#X obj 390 -409 r \$0JERRY_qctl;
#X obj 2330 -688 s \$0JERRY_qctl_ctl;
#X obj 197 -225 s \$0basefreq;
#X obj 756 17 hsl 100 30 0.0127 127 1 0 \$0JERRY_attack \$0JERRY_attack_ctl
Attack 20 12 0 16 #9c9c9c #fc8000 #000000 488 1;
#X obj 872 16 hsl 100 30 0.0127 127 1 0 \$0JERRY_release \$0JERRY_release_ctl
Release 20 13 0 16 #9c9c9c #fc8000 #000000 6183 1;
#X obj 757 48 nbx 5 14 -1e+37 1e+37 0 0 empty \$0JERRY_attack_show
empty 0 -8 0 10 #343434 #fc8000 #fc8000 1.57461 256 0;
#X obj 873 48 nbx 5 14 -1e+37 1e+37 0 0 empty \$0JERRY_release_show
empty 0 -8 0 10 #343434 #fc8000 #fc8000 314.907 256 0;
#X obj 1114 15 hsl 100 30 0 127 0 0 \$0JERRY_glide \$0JERRY_glide_ctl
Glide 28 13 0 16 #9c9c9c #fc8000 #000000 0 1;
#X obj 1168 47 nbx 5 14 -1e+37 1e+37 0 0 empty \$0JERRY_glide_show
empty 0 -8 0 10 #343434 #fc8000 #fc8000 0 256 0;
#X obj 2413 -571 s \$0JERRY_attack_ctl;
#X obj 2389 -540 s \$0JERRY_release_ctl;
#X obj 1229 -144 cnv 25 60 203 empty empty sub 15 8 0 16 #404040 #fcfcfc
0;
#X obj 1243 -121 vsl 32 118 0 127 0 0 \$0JERRY_volosc2 \$0JERRY_volosc2_ctl
VOL 1 50 0 16 #9c9c9c #fc8000 #000000 0 1;
#X obj 2242 -513 s \$0JERRY_volosc2_ctl;
#X obj 284 -665 inlet;
#X obj 348 -669 inlet;
#X msg 2415 -617 0.13;
#X msg 2466 -617 1;
#X obj 2013 -635 s \$0JERRY_glide_ctl;
#X msg 2081 -709 0;
#X obj 598 -674 inlet;
#X obj 653 -675 inlet;
#X obj 782 -670 inlet;
#X obj 837 -671 inlet;
#X obj 711 -673 inlet;
#X text 592 -642 Attack;
#X text 647 -645 Release;
#X text 706 -642 Glide;
#X text 767 -640 VolNoise;
#X text 836 -641 VolSub;
#X obj 1302 -142 cnv 25 60 200 empty empty move 12 8 0 16 #404040 #fcfcfc
0;
#X obj 1317 -120 vsl 32 118 0 127 0 0 \$0JERRY_volosc1 \$0JERRY_volosc1_ctl
VOL 1 50 0 16 #9c9c9c #fc8000 #000000 0 1;
#N canvas 0 51 1600 826 voice 0;
#X obj 258 485 outlet~;
#N canvas 786 319 679 557 oscs 0;
#X obj 40 99 osc~;
#X obj 191 253 +~;
#X obj 364 99 osc~;
#X obj 192 288 outlet~;
#X obj 39 244 *~;
#X obj 363 232 *~;
#X obj 84 46 *~;
#X obj 190 -141 line~;
#X obj 364 -99 *~;
#X obj 364 65 +~;
#X obj 405 49 *~;
#X text 536 -49 Mausbeschleunigung X;
#X text 218 -47 Mausbeschleunigung Y;
#N canvas 466 147 450 300 noOffset 0;
#X floatatom 129 99 5 0 0 0 - - -, f 5;
#X obj 100 145 sel 0;
#X obj 139 210 line~;
#X obj 169 123 != 0;
#X msg 169 174 1 2;
#X msg 100 172 0 2;
#X obj 169 148 sel 1;
#X obj 128 49 inlet~;
#X obj 139 236 outlet~;
#X obj 129 79 unsig~ 5;
#X connect 0 0 1 0;
#X connect 0 0 3 0;
#X connect 1 0 5 0;
#X connect 2 0 8 0;
#X connect 3 0 6 0;
#X connect 4 0 2 0;
#X connect 5 0 2 0;
#X connect 6 0 4 0;
#X connect 7 0 9 0;
#X connect 9 0 0 0;
#X restore 95 99 pd noOffset;
#X obj 40 134 *~;
#X text 372 -196 Eigangsfrequenz;
#X obj 99 22 r \$0skalmausy;
#X obj 379 -123 r \$0ffaktorosc2;
#X obj 420 22 r \$0skalmausx;
#X obj 386 130 r \$0JERRY_volosc2;
#X obj 77 190 r \$0JERRY_volosc1;
#X obj 188 -197 inlet;
#X obj 386 160 / 846.667;
#X obj 398 209 line~;
#X msg 398 187 \$1 50;
#X obj 189 -165 pack f f;
#X obj 238 -215 r \$0JERRY_glide;
#X obj 240 -190 * 7.87402;
#X obj 80 224 / 1270;
#X obj 79 278 line~;
#X msg 79 256 \$1 50;
#X obj 86 -46 r~ \$0JERRY_Mouse_Y_acc;
#X obj 404 -50 r~ \$0JERRY_Mouse_X_acc;
#X obj 40 169 hip~ 10;
#X obj 40 62 +~;
#X connect 0 0 14 0;
#X connect 1 0 3 0;
#X connect 2 0 5 0;
#X connect 4 0 1 0;
#X connect 5 0 1 1;
#X connect 6 0 34 1;
#X connect 7 0 8 0;
#X connect 7 0 34 0;
#X connect 8 0 9 0;
#X connect 9 0 2 0;
#X connect 10 0 9 1;
#X connect 13 0 14 1;
#X connect 14 0 33 0;
#X connect 16 0 6 1;
#X connect 17 0 8 1;
#X connect 18 0 10 1;
#X connect 19 0 22 0;
#X connect 20 0 28 0;
#X connect 21 0 25 0;
#X connect 22 0 24 0;
#X connect 23 0 5 1;
#X connect 24 0 23 0;
#X connect 25 0 7 0;
#X connect 26 0 27 0;
#X connect 27 0 25 1;
#X connect 28 0 30 0;
#X connect 29 0 4 1;
#X connect 30 0 29 0;
#X connect 31 0 6 0;
#X connect 32 0 10 0;
#X connect 33 0 4 0;
#X connect 34 0 0 0;
#X connect 34 0 13 0;
#X restore 171 261 pd oscs;
#X obj 374 322 *~;
#X obj 172 322 *~;
#N canvas 355 87 450 426 Lautstärkenkontrolle 0;
#X obj -3505 164 *~;
#X text -3478 163 Anpassung der Lautstärke nach Q;
#X obj -3505 68 *~;
#X obj -3490 143 line~;
#X obj -3506 266 *~;
#X obj -3491 246 line~;
#N canvas 630 202 450 300 Jerry_rel_Vol_Freq 0;
#X floatatom 50 -46 5 0 0 0 - - -, f 5;
#X obj 50 -14 / 4500;
#X floatatom 50 12 5 0 0 0 - - -, f 5;
#X obj 50 34 inv;
#X floatatom 50 58 5 0 0 0 - - -, f 5;
#X floatatom 48 147 5 0 0 0 - - -, f 5;
#X obj 48 174 outlet;
#X floatatom 48 102 5 0 0 0 - - -, f 5;
#X obj 50 82 / 40;
#X obj 48 124 clip 0.12 2;
#X obj 51 -93 r \$0basefreq1;
#X connect 0 0 1 0;
#X connect 1 0 2 0;
#X connect 2 0 3 0;
#X connect 3 0 4 0;
#X connect 4 0 8 0;
#X connect 5 0 6 0;
#X connect 7 0 9 0;
#X connect 8 0 7 0;
#X connect 9 0 5 0;
#X connect 10 0 0 0;
#X restore -3491 204 pd Jerry_rel_Vol_Freq;
#X text -3479 268 Anpassung der Lautstärke nach der Frequenz;
#X obj -3483 45 line~;
#X text -3448 69 generelle Lautstärkenkontrolle;
#X obj -3503 -69 inlet~;
#X obj -3506 342 outlet~;
#X obj -3483 -28 r \$0JERRY_volnoisebp;
#X obj -3490 102 r \$0JERRY_Q_volcontrol;
#X obj -3484 -4 / 84.6667;
#X msg -3490 124 \$1 50;
#X msg -3491 227 \$1 50;
#X msg -3483 22 \$1 50;
#X connect 0 0 4 0;
#X connect 2 0 0 0;
#X connect 3 0 0 1;
#X connect 4 0 11 0;
#X connect 5 0 4 1;
#X connect 6 0 16 0;
#X connect 8 0 2 1;
#X connect 10 0 2 0;
#X connect 12 0 14 0;
#X connect 13 0 15 0;
#X connect 14 0 17 0;
#X connect 15 0 3 0;
#X connect 16 0 5 0;
#X connect 17 0 8 0;
#X restore 375 412 pd Lautstärkenkontrolle;
#N canvas 0 51 1600 826 noise 0;
#X obj 215 -780 outlet~;
#X text 148 -1317 Tonabstand;
#N canvas 583 252 878 624 scalemode 0;
#X obj 34 263 pack;
#X obj 34 297 line~;
#X obj 34 359 outlet~;
#X obj 62 190 r \$0JERRY_glide;
#X obj 25 40 inlet;
#X obj 59 220 * 7.87402;
#X connect 0 0 1 0;
#X connect 1 0 2 0;
#X connect 3 0 5 0;
#X connect 4 0 0 0;
#X connect 5 0 0 1;
#X restore 33 -1221 pd scalemode;
#N canvas 635 51 704 825 scalemode 0;
#X obj 61 620 pack;
#X obj 61 702 outlet~;
#X obj 61 640 line~;
#N canvas 1092 338 162 174 receiveOTdist 0;
#X obj 26 16 r \$0JERRY_OT2ctl;
#X floatatom 26 69 5 0 0 0 - - -, f 5;
#X obj 26 164 s \$0JERRY_OT2dist;
#X obj 26 40 / 6.6842;
#X obj 26 94 int;
#X floatatom 26 142 5 0 0 0 - - -, f 5;
#X obj 26 119 clip 1 19;
#X obj 98 138 s \$0OT2FinalDist;
#X connect 0 0 3 0;
#X connect 1 0 4 0;
#X connect 3 0 1 0;
#X connect 4 0 6 0;
#X connect 5 0 2 0;
#X connect 5 0 7 0;
#X connect 6 0 5 0;
#X restore 550 21 pd receiveOTdist;
#X obj 98 267 r \$0JERRY_OT2dist;
#X floatatom 98 296 5 0 0 0 - - -, f 5;
#X obj 51 61 inlet;
#X floatatom 98 432 5 0 0 0 - - -, f 5;
#X msg 98 387 1.05946;
#X obj 98 410 pow;
#X obj 50 448 *;
#X obj 112 342 t b f;
#X obj 104 546 r \$0JERRY_glide;
#X obj 106 575 * 7.87402;
#X connect 0 0 2 0;
#X connect 2 0 1 0;
#X connect 4 0 5 0;
#X connect 5 0 11 0;
#X connect 6 0 10 0;
#X connect 7 0 10 1;
#X connect 8 0 9 0;
#X connect 9 0 7 0;
#X connect 10 0 0 0;
#X connect 11 0 8 0;
#X connect 11 1 9 1;
#X connect 12 0 13 0;
#X connect 13 0 0 1;
#X restore 151 -1221 pd scalemode;
#X obj 130 -945 vcf_bp4~;
#X obj 229 -947 vcf_bp4~;
#X obj 324 -948 vcf_bp4~;
#X obj 432 -948 vcf_bp4~;
#X obj 13 -944 vcf_bp4~;
#X obj 515 -1111 line~;
#X text 548 -1150 Empfang Q;
#N canvas 162 434 281 213 BP1Volume 0;
#X msg 27 41 \$1 5;
#X obj 27 66 line~;
#X obj 27 91 outlet~;
#X obj 27 -12 r \$0JERRY_OT1volctl;
#X obj 27 13 / 127;
#X connect 0 0 1 0;
#X connect 1 0 2 0;
#X connect 3 0 4 0;
#X connect 4 0 0 0;
#X restore 30 -910 pd BP1Volume;
#X obj 14 -881 *~;
#N canvas 229 436 281 173 BP2Volume 0;
#X msg 27 41 \$1 5;
#X obj 27 66 line~;
#X obj 27 91 outlet~;
#X obj 27 12 / 127;
#X obj 27 -13 r \$0JERRY_OT2volctl;
#X connect 0 0 1 0;
#X connect 1 0 2 0;
#X connect 3 0 0 0;
#X connect 4 0 3 0;
#X restore 146 -910 pd BP2Volume;
#N canvas 327 396 281 98 BP3Volume 0;
#X msg 27 41 \$1 5;
#X obj 27 66 line~;
#X obj 27 91 outlet~;
#X obj 27 17 / 127;
#X obj 27 -8 r \$0JERRY_OT3volctl;
#X connect 0 0 1 0;
#X connect 1 0 2 0;
#X connect 3 0 0 0;
#X connect 4 0 3 0;
#X restore 243 -910 pd BP3Volume;
#N canvas 404 442 281 74 BP4Volume 0;
#X msg 27 41 \$1 5;
#X obj 27 66 line~;
#X obj 27 91 outlet~;
#X obj 27 19 / 127;
#X obj 27 -6 r \$0JERRY_OT4volctl;
#X connect 0 0 1 0;
#X connect 1 0 2 0;
#X connect 3 0 0 0;
#X connect 4 0 3 0;
#X restore 340 -910 pd BP4Volume;
#N canvas 513 441 281 106 BP5Volume 0;
#X msg 27 41 \$1 5;
#X obj 27 66 line~;
#X obj 27 91 outlet~;
#X obj 27 17 / 127;
#X obj 27 -8 r \$0JERRY_OT5volctl;
#X connect 0 0 1 0;
#X connect 1 0 2 0;
#X connect 3 0 0 0;
#X connect 4 0 3 0;
#X restore 447 -910 pd BP5Volume;
#X obj 131 -884 *~;
#X obj 228 -881 *~;
#X obj 324 -882 *~;
#X obj 432 -880 *~;
#X text 539 -1294 Grundton + 4 Obertöne aus dem bandpassgefiltertem
Rauschen können in ihrer Amplitude und Frequenz verändert werden
\, um die Klangfarbe zu verändern und/oder mehrstimmge Klänge zu
ermöglichen;
#X obj 519 -1182 r \$0JERRY_Q;
#X obj 33 -1332 inlet;
#N canvas 895 74 704 802 scalemode 0;
#X obj 61 620 pack;
#X obj 61 702 outlet~;
#X obj 61 640 line~;
#X obj 51 61 inlet;
#N canvas 899 173 162 93 receiveOTdist 0;
#X obj 26 16 r \$0JERRY_OT3ctl;
#X obj 26 169 s \$0JERRY_OT3dist;
#X floatatom 26 71 5 0 0 0 - - -, f 5;
#X obj 26 96 int;
#X floatatom 26 144 5 0 0 0 - - -, f 5;
#X obj 26 121 clip 1 28;
#X obj 26 42 / 4.5357;
#X obj 77 212 s \$0OT3FinalDist;
#X connect 0 0 6 0;
#X connect 2 0 3 0;
#X connect 3 0 5 0;
#X connect 4 0 1 0;
#X connect 4 0 7 0;
#X connect 5 0 4 0;
#X connect 6 0 2 0;
#X restore 508 45 pd receiveOTdist;
#X floatatom 95 331 5 0 0 0 - - -, f 5;
#X floatatom 95 467 5 0 0 0 - - -, f 5;
#X msg 95 422 1.05946;
#X obj 95 445 pow;
#X obj 47 483 *;
#X obj 109 377 t b f;
#X obj 95 302 r \$0JERRY_OT3dist;
#X obj 89 559 r \$0JERRY_glide;
#X obj 91 588 * 7.87402;
#X connect 0 0 2 0;
#X connect 2 0 1 0;
#X connect 3 0 9 0;
#X connect 5 0 10 0;
#X connect 6 0 9 1;
#X connect 7 0 8 0;
#X connect 8 0 6 0;
#X connect 9 0 0 0;
#X connect 10 0 7 0;
#X connect 10 1 8 1;
#X connect 11 0 5 0;
#X connect 12 0 13 0;
#X connect 13 0 0 1;
#X restore 256 -1219 pd scalemode;
#N canvas 895 74 704 802 scalemode 0;
#X obj 61 620 pack;
#X obj 61 702 outlet~;
#X obj 61 640 line~;
#X obj 51 61 inlet;
#N canvas 899 173 162 235 receiveOTdist 0;
#X obj 26 16 r \$0JERRY_OT4ctl;
#X obj 26 199 s \$0JERRY_OT4dist;
#X floatatom 26 76 5 0 0 0 - - -, f 5;
#X obj 26 101 int;
#X floatatom 26 149 5 0 0 0 - - -, f 5;
#X obj 26 126 clip 1 34;
#X obj 26 47 / 3.7352;
#X obj 53 174 s \$0OT4FinalDist;
#X connect 0 0 6 0;
#X connect 2 0 3 0;
#X connect 3 0 5 0;
#X connect 4 0 1 0;
#X connect 4 0 7 0;
#X connect 5 0 4 0;
#X connect 6 0 2 0;
#X restore 527 83 pd receiveOTdist;
#X floatatom 109 321 5 0 0 0 - - -, f 5;
#X floatatom 109 457 5 0 0 0 - - -, f 5;
#X msg 109 412 1.05946;
#X obj 109 435 pow;
#X obj 61 473 *;
#X obj 123 367 t b f;
#X obj 109 292 r \$0JERRY_OT4dist;
#X obj 94 544 r \$0JERRY_glide;
#X obj 96 573 * 7.87402;
#X connect 0 0 2 0;
#X connect 2 0 1 0;
#X connect 3 0 9 0;
#X connect 5 0 10 0;
#X connect 6 0 9 1;
#X connect 7 0 8 0;
#X connect 8 0 6 0;
#X connect 9 0 0 0;
#X connect 10 0 7 0;
#X connect 10 1 8 1;
#X connect 11 0 5 0;
#X connect 12 0 13 0;
#X connect 13 0 0 1;
#X restore 366 -1220 pd scalemode;
#N canvas 895 74 704 802 scalemode 0;
#X obj 61 620 pack;
#X obj 61 702 outlet~;
#X obj 61 640 line~;
#X obj 51 61 inlet;
#N canvas 901 225 162 294 receiveOTdist 0;
#X obj 26 170 s \$0JERRY_OT5dist;
#X obj 26 16 r \$0JERRY_OT5ctl;
#X floatatom 26 71 5 0 0 0 - - -, f 5;
#X obj 26 96 int;
#X floatatom 26 144 5 0 0 0 - - -, f 5;
#X obj 26 42 / 3.3421;
#X obj 26 121 clip 1 38;
#X obj 73 208 s \$0OT5FinalDist;
#X connect 1 0 5 0;
#X connect 2 0 3 0;
#X connect 3 0 6 0;
#X connect 4 0 0 0;
#X connect 4 0 7 0;
#X connect 5 0 2 0;
#X connect 6 0 4 0;
#X restore 544 61 pd receiveOTdist;
#X floatatom 104 324 5 0 0 0 - - -, f 5;
#X floatatom 104 460 5 0 0 0 - - -, f 5;
#X msg 104 415 1.05946;
#X obj 104 438 pow;
#X obj 60 468 *;
#X obj 118 370 t b f;
#X obj 104 295 r \$0JERRY_OT5dist;
#X obj 87 545 r \$0JERRY_glide;
#X obj 89 574 * 7.87402;
#X connect 0 0 2 0;
#X connect 2 0 1 0;
#X connect 3 0 9 0;
#X connect 5 0 10 0;
#X connect 6 0 9 1;
#X connect 7 0 8 0;
#X connect 8 0 6 0;
#X connect 9 0 0 0;
#X connect 10 0 7 0;
#X connect 10 1 8 1;
#X connect 11 0 5 0;
#X connect 12 0 13 0;
#X connect 13 0 0 1;
#X restore 471 -1218 pd scalemode;
#X obj 323 -1292 inlet~;
#X obj 516 -1150 \$1 50;
#X connect 2 0 8 1;
#X connect 3 0 4 1;
#X connect 4 0 17 0;
#X connect 5 0 18 0;
#X connect 6 0 19 0;
#X connect 7 0 20 0;
#X connect 8 0 12 0;
#X connect 9 0 8 2;
#X connect 9 0 4 2;
#X connect 9 0 5 2;
#X connect 9 0 6 2;
#X connect 9 0 7 2;
#X connect 11 0 12 1;
#X connect 12 0 0 0;
#X connect 13 0 17 1;
#X connect 14 0 18 1;
#X connect 15 0 19 1;
#X connect 16 0 20 1;
#X connect 17 0 0 0;
#X connect 18 0 0 0;
#X connect 19 0 0 0;
#X connect 20 0 0 0;
#X connect 22 0 28 0;
#X connect 23 0 2 0;
#X connect 23 0 26 0;
#X connect 23 0 25 0;
#X connect 23 0 24 0;
#X connect 23 0 3 0;
#X connect 24 0 5 1;
#X connect 25 0 6 1;
#X connect 26 0 7 1;
#X connect 27 0 8 0;
#X connect 27 0 7 0;
#X connect 27 0 6 0;
#X connect 27 0 5 0;
#X connect 27 0 4 0;
#X connect 28 0 9 0;
#X restore 370 266 pd noise;
#X text 403 321 Hüllkurve (noise/peak);
#X text 200 321 Hüllkurve (Oszillator);
#X text 171 209 Tonerzeugung 1;
#X text 374 209 Tonerzeugung 2;
#X text 374 223 - Bandpassgefiltertes;
#X text 387 235 Rauschen;
#X text 171 223 - Oszillatoren;
#X text 183 235 und Mausgeschwindigkeit;
#N canvas 347 139 430 538 envelope 0;
#X obj 181 590 outlet~;
#X obj 110 420 pack f f;
#X obj 249 425 pack f f;
#X obj 181 536 vline~;
#X msg 110 471 \$1 \$2;
#X msg 248 477 \$1 \$2;
#X obj 155 104 r \$0JERRY_attack;
#X obj 294 105 r \$0JERRY_release;
#X obj 53 281 moses 0.0001;
#X obj 120 361 / 127;
#X obj 53 237 inlet;
#X obj 154 139 * 78.7402;
#X obj 294 137 * 78.7402;
#X connect 1 0 4 0;
#X connect 2 0 5 0;
#X connect 3 0 0 0;
#X connect 4 0 3 0;
#X connect 5 0 3 0;
#X connect 6 0 11 0;
#X connect 7 0 12 0;
#X connect 8 0 2 0;
#X connect 8 1 9 0;
#X connect 9 0 1 0;
#X connect 10 0 8 0;
#X connect 11 0 1 1;
#X connect 12 0 2 1;
#X restore 395 294 pd envelope;
#X obj 230 -108 inlet;
#X obj 268 47 unpack f f;
#X obj 235 -74 zl rev;
#X obj 235 -39 route 0;
#X obj 231 -8 bng 15 250 50 0 empty empty empty 17 7 0 10 #fcfcfc #000000
#000000;
#X msg 231 16 0;
#X obj 284 -7 zl rev;
#N canvas 347 139 430 538 envelope 0;
#X obj 125 280 outlet~;
#X obj 54 110 pack f f;
#X obj 193 115 pack f f;
#X obj 125 226 vline~;
#X msg 54 161 \$1 \$2;
#X msg 192 167 \$1 \$2;
#X obj 99 -206 r \$0JERRY_attack;
#X obj 238 -205 r \$0JERRY_release;
#X obj -3 -29 moses 0.0001;
#X obj 64 51 / 127;
#X obj -3 -73 inlet;
#X obj 98 -171 * 78.7402;
#X obj 238 -173 * 78.7402;
#X obj 144 -125 s \$0JERRY_attack_show;
#X obj 315 -125 s \$0JERRY_release_show;
#X connect 1 0 4 0;
#X connect 2 0 5 0;
#X connect 3 0 0 0;
#X connect 4 0 3 0;
#X connect 5 0 3 0;
#X connect 6 0 11 0;
#X connect 7 0 12 0;
#X connect 8 0 2 0;
#X connect 8 1 9 0;
#X connect 9 0 1 0;
#X connect 10 0 8 0;
#X connect 11 0 1 1;
#X connect 11 0 13 0;
#X connect 12 0 2 1;
#X connect 12 0 14 0;
#X restore 190 295 pd envelope;
#X obj 369 99 s \$0basefreq1;
#X obj 431 -91 inlet~;
#X connect 1 0 3 0;
#X connect 2 0 4 0;
#X connect 3 0 0 0;
#X connect 4 0 0 0;
#X connect 5 0 2 0;
#X connect 14 0 2 1;
#X connect 15 0 17 0;
#X connect 16 0 5 0;
#X connect 16 0 1 0;
#X connect 16 0 23 0;
#X connect 16 1 22 0;
#X connect 16 1 14 0;
#X connect 17 0 18 0;
#X connect 18 0 19 0;
#X connect 18 1 21 0;
#X connect 19 0 20 0;
#X connect 20 0 22 0;
#X connect 20 0 14 0;
#X connect 21 0 16 0;
#X connect 22 0 3 1;
#X connect 24 0 5 1;
#X restore 92 -108 pd voice 1;
#N canvas 0 51 1600 826 voice 0;
#X obj 258 485 outlet~;
#N canvas 786 319 679 557 oscs 0;
#X obj 40 99 osc~;
#X obj 191 253 +~;
#X obj 364 99 osc~;
#X obj 192 288 outlet~;
#X obj 40 212 *~;
#X obj 363 232 *~;
#X obj 84 46 *~;
#X obj 190 -141 line~;
#X obj 364 -99 *~;
#X obj 364 65 +~;
#X obj 405 49 *~;
#X text 536 -49 Mausbeschleunigung X;
#X text 218 -47 Mausbeschleunigung Y;
#N canvas 466 147 450 300 noOffset 0;
#X floatatom 129 99 5 0 0 0 - - -, f 5;
#X obj 100 145 sel 0;
#X obj 139 210 line~;
#X obj 169 123 != 0;
#X msg 169 174 1 2;
#X msg 100 172 0 2;
#X obj 169 148 sel 1;
#X obj 128 49 inlet~;
#X obj 139 236 outlet~;
#X obj 129 79 unsig~ 5;
#X connect 0 0 1 0;
#X connect 0 0 3 0;
#X connect 1 0 5 0;
#X connect 2 0 8 0;
#X connect 3 0 6 0;
#X connect 4 0 2 0;
#X connect 5 0 2 0;
#X connect 6 0 4 0;
#X connect 7 0 9 0;
#X connect 9 0 0 0;
#X restore 95 99 pd noOffset;
#X obj 40 134 *~;
#X text 372 -196 Eigangsfrequenz;
#X obj 99 22 r \$0skalmausy;
#X obj 379 -123 r \$0ffaktorosc2;
#X obj 420 22 r \$0skalmausx;
#X obj 386 130 r \$0JERRY_volosc2;
#X obj 78 158 r \$0JERRY_volosc1;
#X obj 188 -197 inlet;
#X obj 386 160 / 846.667;
#X obj 398 209 line~;
#X msg 398 187 \$1 50;
#X obj 189 -165 pack f f;
#X obj 238 -215 r \$0JERRY_glide;
#X obj 240 -190 * 7.87402;
#X obj 81 192 / 1270;
#X obj 80 246 line~;
#X msg 80 224 \$1 50;
#X obj 85 -46 r~ \$0JERRY_Mouse_Y_acc;
#X obj 404 -50 r~ \$0JERRY_Mouse_X_acc;
#X obj 15 174 hip~ 10;
#X obj 40 62 +~;
#X connect 0 0 14 0;
#X connect 1 0 3 0;
#X connect 2 0 5 0;
#X connect 4 0 1 0;
#X connect 5 0 1 1;
#X connect 6 0 34 1;
#X connect 7 0 8 0;
#X connect 7 0 34 0;
#X connect 8 0 9 0;
#X connect 9 0 2 0;
#X connect 10 0 9 1;
#X connect 13 0 14 1;
#X connect 14 0 33 0;
#X connect 16 0 6 1;
#X connect 17 0 8 1;
#X connect 18 0 10 1;
#X connect 19 0 22 0;
#X connect 20 0 28 0;
#X connect 21 0 25 0;
#X connect 22 0 24 0;
#X connect 23 0 5 1;
#X connect 24 0 23 0;
#X connect 25 0 7 0;
#X connect 26 0 27 0;
#X connect 27 0 25 1;
#X connect 28 0 30 0;
#X connect 29 0 4 1;
#X connect 30 0 29 0;
#X connect 31 0 6 0;
#X connect 32 0 10 0;
#X connect 33 0 4 0;
#X connect 34 0 0 0;
#X connect 34 0 13 0;
#X restore 171 261 pd oscs;
#X obj 374 322 *~;
#X obj 172 322 *~;
#N canvas 355 87 450 426 Lautstärkenkontrolle 0;
#X obj -3505 164 *~;
#X text -3478 163 Anpassung der Lautstärke nach Q;
#X obj -3505 68 *~;
#X obj -3490 143 line~;
#X obj -3506 266 *~;
#X obj -3491 246 line~;
#N canvas 630 202 450 300 Jerry_rel_Vol_Freq 0;
#X floatatom 50 -46 5 0 0 0 - - -, f 5;
#X obj 50 -14 / 4500;
#X floatatom 50 12 5 0 0 0 - - -, f 5;
#X obj 50 34 inv;
#X floatatom 50 58 5 0 0 0 - - -, f 5;
#X floatatom 48 147 5 0 0 0 - - -, f 5;
#X obj 48 174 outlet;
#X floatatom 48 102 5 0 0 0 - - -, f 5;
#X obj 50 82 / 40;
#X obj 48 124 clip 0.12 2;
#X obj 51 -93 r \$0basefreq1;
#X connect 0 0 1 0;
#X connect 1 0 2 0;
#X connect 2 0 3 0;
#X connect 3 0 4 0;
#X connect 4 0 8 0;
#X connect 5 0 6 0;
#X connect 7 0 9 0;
#X connect 8 0 7 0;
#X connect 9 0 5 0;
#X connect 10 0 0 0;
#X restore -3491 204 pd Jerry_rel_Vol_Freq;
#X text -3479 268 Anpassung der Lautstärke nach der Frequenz;
#X obj -3483 45 line~;
#X text -3448 69 generelle Lautstärkenkontrolle;
#X obj -3503 -69 inlet~;
#X obj -3506 342 outlet~;
#X obj -3483 -28 r \$0JERRY_volnoisebp;
#X obj -3490 102 r \$0JERRY_Q_volcontrol;
#X obj -3484 -4 / 84.6667;
#X msg -3490 124 \$1 50;
#X msg -3491 227 \$1 50;
#X msg -3483 22 \$1 50;
#X connect 0 0 4 0;
#X connect 2 0 0 0;
#X connect 3 0 0 1;
#X connect 4 0 11 0;
#X connect 5 0 4 1;
#X connect 6 0 16 0;
#X connect 8 0 2 1;
#X connect 10 0 2 0;
#X connect 12 0 14 0;
#X connect 13 0 15 0;
#X connect 14 0 17 0;
#X connect 15 0 3 0;
#X connect 16 0 5 0;
#X connect 17 0 8 0;
#X restore 375 412 pd Lautstärkenkontrolle;
#N canvas 0 51 1600 826 noise 0;
#X obj 215 -780 outlet~;
#X text 148 -1317 Tonabstand;
#N canvas 583 252 878 624 scalemode 0;
#X obj 34 263 pack;
#X obj 34 297 line~;
#X obj 34 359 outlet~;
#X obj 62 190 r \$0JERRY_glide;
#X obj 25 40 inlet;
#X obj 59 220 * 7.87402;
#X connect 0 0 1 0;
#X connect 1 0 2 0;
#X connect 3 0 5 0;
#X connect 4 0 0 0;
#X connect 5 0 0 1;
#X restore 33 -1221 pd scalemode;
#N canvas 635 51 704 825 scalemode 0;
#X obj 61 620 pack;
#X obj 61 702 outlet~;
#X obj 61 640 line~;
#N canvas 1092 338 162 174 receiveOTdist 0;
#X obj 26 16 r \$0JERRY_OT2ctl;
#X floatatom 26 69 5 0 0 0 - - -, f 5;
#X obj 26 164 s \$0JERRY_OT2dist;
#X obj 26 40 / 6.6842;
#X obj 26 94 int;
#X floatatom 26 142 5 0 0 0 - - -, f 5;
#X obj 26 119 clip 1 19;
#X obj 98 138 s \$0OT2FinalDist;
#X connect 0 0 3 0;
#X connect 1 0 4 0;
#X connect 3 0 1 0;
#X connect 4 0 6 0;
#X connect 5 0 2 0;
#X connect 5 0 7 0;
#X connect 6 0 5 0;
#X restore 550 21 pd receiveOTdist;
#X obj 98 267 r \$0JERRY_OT2dist;
#X floatatom 98 296 5 0 0 0 - - -, f 5;
#X obj 51 61 inlet;
#X floatatom 98 432 5 0 0 0 - - -, f 5;
#X msg 98 387 1.05946;
#X obj 98 410 pow;
#X obj 50 448 *;
#X obj 112 342 t b f;
#X obj 104 546 r \$0JERRY_glide;
#X obj 106 575 * 7.87402;
#X connect 0 0 2 0;
#X connect 2 0 1 0;
#X connect 4 0 5 0;
#X connect 5 0 11 0;
#X connect 6 0 10 0;
#X connect 7 0 10 1;
#X connect 8 0 9 0;
#X connect 9 0 7 0;
#X connect 10 0 0 0;
#X connect 11 0 8 0;
#X connect 11 1 9 1;
#X connect 12 0 13 0;
#X connect 13 0 0 1;
#X restore 151 -1221 pd scalemode;
#X obj 130 -945 vcf_bp4~;
#X obj 229 -947 vcf_bp4~;
#X obj 324 -948 vcf_bp4~;
#X obj 432 -948 vcf_bp4~;
#X obj 13 -944 vcf_bp4~;
#X obj 515 -1111 line~;
#X text 548 -1150 Empfang Q;
#N canvas 162 434 281 213 BP1Volume 0;
#X msg 27 41 \$1 5;
#X obj 27 66 line~;
#X obj 27 91 outlet~;
#X obj 27 -12 r \$0JERRY_OT1volctl;
#X obj 27 13 / 127;
#X connect 0 0 1 0;
#X connect 1 0 2 0;
#X connect 3 0 4 0;
#X connect 4 0 0 0;
#X restore 30 -910 pd BP1Volume;
#X obj 14 -881 *~;
#N canvas 229 436 281 173 BP2Volume 0;
#X msg 27 41 \$1 5;
#X obj 27 66 line~;
#X obj 27 91 outlet~;
#X obj 27 12 / 127;
#X obj 27 -13 r \$0JERRY_OT2volctl;
#X connect 0 0 1 0;
#X connect 1 0 2 0;
#X connect 3 0 0 0;
#X connect 4 0 3 0;
#X restore 146 -910 pd BP2Volume;
#N canvas 327 396 281 98 BP3Volume 0;
#X msg 27 41 \$1 5;
#X obj 27 66 line~;
#X obj 27 91 outlet~;
#X obj 27 17 / 127;
#X obj 27 -8 r \$0JERRY_OT3volctl;
#X connect 0 0 1 0;
#X connect 1 0 2 0;
#X connect 3 0 0 0;
#X connect 4 0 3 0;
#X restore 243 -910 pd BP3Volume;
#N canvas 404 442 281 74 BP4Volume 0;
#X msg 27 41 \$1 5;
#X obj 27 66 line~;
#X obj 27 91 outlet~;
#X obj 27 19 / 127;
#X obj 27 -6 r \$0JERRY_OT4volctl;
#X connect 0 0 1 0;
#X connect 1 0 2 0;
#X connect 3 0 0 0;
#X connect 4 0 3 0;
#X restore 340 -910 pd BP4Volume;
#N canvas 513 441 281 106 BP5Volume 0;
#X msg 27 41 \$1 5;
#X obj 27 66 line~;
#X obj 27 91 outlet~;
#X obj 27 17 / 127;
#X obj 27 -8 r \$0JERRY_OT5volctl;
#X connect 0 0 1 0;
#X connect 1 0 2 0;
#X connect 3 0 0 0;
#X connect 4 0 3 0;
#X restore 447 -910 pd BP5Volume;
#X obj 131 -884 *~;
#X obj 228 -881 *~;
#X obj 324 -882 *~;
#X obj 432 -880 *~;
#X text 539 -1294 Grundton + 4 Obertöne aus dem bandpassgefiltertem
Rauschen können in ihrer Amplitude und Frequenz verändert werden
\, um die Klangfarbe zu verändern und/oder mehrstimmge Klänge zu
ermöglichen;
#X obj 519 -1182 r \$0JERRY_Q;
#X obj 33 -1332 inlet;
#N canvas 895 74 704 802 scalemode 0;
#X obj 61 620 pack;
#X obj 61 702 outlet~;
#X obj 61 640 line~;
#X obj 51 61 inlet;
#N canvas 899 173 162 93 receiveOTdist 0;
#X obj 26 16 r \$0JERRY_OT3ctl;
#X obj 26 169 s \$0JERRY_OT3dist;
#X floatatom 26 71 5 0 0 0 - - -, f 5;
#X obj 26 96 int;
#X floatatom 26 144 5 0 0 0 - - -, f 5;
#X obj 26 121 clip 1 28;
#X obj 26 42 / 4.5357;
#X obj 77 212 s \$0OT3FinalDist;
#X connect 0 0 6 0;
#X connect 2 0 3 0;
#X connect 3 0 5 0;
#X connect 4 0 1 0;
#X connect 4 0 7 0;
#X connect 5 0 4 0;
#X connect 6 0 2 0;
#X restore 508 45 pd receiveOTdist;
#X floatatom 95 331 5 0 0 0 - - -, f 5;
#X floatatom 95 467 5 0 0 0 - - -, f 5;
#X msg 95 422 1.05946;
#X obj 95 445 pow;
#X obj 47 483 *;
#X obj 109 377 t b f;
#X obj 95 302 r \$0JERRY_OT3dist;
#X obj 89 559 r \$0JERRY_glide;
#X obj 91 588 * 7.87402;
#X connect 0 0 2 0;
#X connect 2 0 1 0;
#X connect 3 0 9 0;
#X connect 5 0 10 0;
#X connect 6 0 9 1;
#X connect 7 0 8 0;
#X connect 8 0 6 0;
#X connect 9 0 0 0;
#X connect 10 0 7 0;
#X connect 10 1 8 1;
#X connect 11 0 5 0;
#X connect 12 0 13 0;
#X connect 13 0 0 1;
#X restore 256 -1219 pd scalemode;
#N canvas 895 74 704 802 scalemode 0;
#X obj 61 620 pack;
#X obj 61 702 outlet~;
#X obj 61 640 line~;
#X obj 51 61 inlet;
#N canvas 899 173 162 235 receiveOTdist 0;
#X obj 26 16 r \$0JERRY_OT4ctl;
#X obj 26 199 s \$0JERRY_OT4dist;
#X floatatom 26 76 5 0 0 0 - - -, f 5;
#X obj 26 101 int;
#X floatatom 26 149 5 0 0 0 - - -, f 5;
#X obj 26 126 clip 1 34;
#X obj 26 47 / 3.7352;
#X obj 53 174 s \$0OT4FinalDist;
#X connect 0 0 6 0;
#X connect 2 0 3 0;
#X connect 3 0 5 0;
#X connect 4 0 1 0;
#X connect 4 0 7 0;
#X connect 5 0 4 0;
#X connect 6 0 2 0;
#X restore 527 83 pd receiveOTdist;
#X floatatom 109 321 5 0 0 0 - - -, f 5;
#X floatatom 109 457 5 0 0 0 - - -, f 5;
#X msg 109 412 1.05946;
#X obj 109 435 pow;
#X obj 61 473 *;
#X obj 123 367 t b f;
#X obj 109 292 r \$0JERRY_OT4dist;
#X obj 94 544 r \$0JERRY_glide;
#X obj 96 573 * 7.87402;
#X connect 0 0 2 0;
#X connect 2 0 1 0;
#X connect 3 0 9 0;
#X connect 5 0 10 0;
#X connect 6 0 9 1;
#X connect 7 0 8 0;
#X connect 8 0 6 0;
#X connect 9 0 0 0;
#X connect 10 0 7 0;
#X connect 10 1 8 1;
#X connect 11 0 5 0;
#X connect 12 0 13 0;
#X connect 13 0 0 1;
#X restore 366 -1220 pd scalemode;
#N canvas 895 74 704 802 scalemode 0;
#X obj 61 620 pack;
#X obj 61 702 outlet~;
#X obj 61 640 line~;
#X obj 51 61 inlet;
#N canvas 901 225 162 294 receiveOTdist 0;
#X obj 26 170 s \$0JERRY_OT5dist;
#X obj 26 16 r \$0JERRY_OT5ctl;
#X floatatom 26 71 5 0 0 0 - - -, f 5;
#X obj 26 96 int;
#X floatatom 26 144 5 0 0 0 - - -, f 5;
#X obj 26 42 / 3.3421;
#X obj 26 121 clip 1 38;
#X obj 73 208 s \$0OT5FinalDist;
#X connect 1 0 5 0;
#X connect 2 0 3 0;
#X connect 3 0 6 0;
#X connect 4 0 0 0;
#X connect 4 0 7 0;
#X connect 5 0 2 0;
#X connect 6 0 4 0;
#X restore 544 61 pd receiveOTdist;
#X floatatom 104 324 5 0 0 0 - - -, f 5;
#X floatatom 104 460 5 0 0 0 - - -, f 5;
#X msg 104 415 1.05946;
#X obj 104 438 pow;
#X obj 60 468 *;
#X obj 118 370 t b f;
#X obj 104 295 r \$0JERRY_OT5dist;
#X obj 87 545 r \$0JERRY_glide;
#X obj 89 574 * 7.87402;
#X connect 0 0 2 0;
#X connect 2 0 1 0;
#X connect 3 0 9 0;
#X connect 5 0 10 0;
#X connect 6 0 9 1;
#X connect 7 0 8 0;
#X connect 8 0 6 0;
#X connect 9 0 0 0;
#X connect 10 0 7 0;
#X connect 10 1 8 1;
#X connect 11 0 5 0;
#X connect 12 0 13 0;
#X connect 13 0 0 1;
#X restore 471 -1218 pd scalemode;
#X obj 323 -1292 inlet~;
#X obj 516 -1150 \$1 50;
#X connect 2 0 8 1;
#X connect 3 0 4 1;
#X connect 4 0 17 0;
#X connect 5 0 18 0;
#X connect 6 0 19 0;
#X connect 7 0 20 0;
#X connect 8 0 12 0;
#X connect 9 0 8 2;
#X connect 9 0 4 2;
#X connect 9 0 5 2;
#X connect 9 0 6 2;
#X connect 9 0 7 2;
#X connect 11 0 12 1;
#X connect 12 0 0 0;
#X connect 13 0 17 1;
#X connect 14 0 18 1;
#X connect 15 0 19 1;
#X connect 16 0 20 1;
#X connect 17 0 0 0;
#X connect 18 0 0 0;
#X connect 19 0 0 0;
#X connect 20 0 0 0;
#X connect 22 0 28 0;
#X connect 23 0 2 0;
#X connect 23 0 26 0;
#X connect 23 0 25 0;
#X connect 23 0 24 0;
#X connect 23 0 3 0;
#X connect 24 0 5 1;
#X connect 25 0 6 1;
#X connect 26 0 7 1;
#X connect 27 0 8 0;
#X connect 27 0 7 0;
#X connect 27 0 6 0;
#X connect 27 0 5 0;
#X connect 27 0 4 0;
#X connect 28 0 9 0;
#X restore 370 266 pd noise;
#X text 403 321 Hüllkurve (noise/peak);
#X text 200 321 Hüllkurve (Oszillator);
#X text 171 209 Tonerzeugung 1;
#X text 374 209 Tonerzeugung 2;
#X text 374 223 - Bandpassgefiltertes;
#X text 387 235 Rauschen;
#X text 171 223 - Oszillatoren;
#X text 183 235 und Mausgeschwindigkeit;
#N canvas 347 139 430 538 envelope 0;
#X obj 181 590 outlet~;
#X obj 110 420 pack f f;
#X obj 249 425 pack f f;
#X obj 181 536 vline~;
#X msg 110 471 \$1 \$2;
#X msg 248 477 \$1 \$2;
#X obj 155 104 r \$0JERRY_attack;
#X obj 294 105 r \$0JERRY_release;
#X obj 53 281 moses 0.0001;
#X obj 120 361 / 127;
#X obj 53 237 inlet;
#X obj 154 139 * 78.7402;
#X obj 294 137 * 78.7402;
#X connect 1 0 4 0;
#X connect 2 0 5 0;
#X connect 3 0 0 0;
#X connect 4 0 3 0;
#X connect 5 0 3 0;
#X connect 6 0 11 0;
#X connect 7 0 12 0;
#X connect 8 0 2 0;
#X connect 8 1 9 0;
#X connect 9 0 1 0;
#X connect 10 0 8 0;
#X connect 11 0 1 1;
#X connect 12 0 2 1;
#X restore 395 294 pd envelope;
#X obj 230 -108 inlet;
#X obj 268 47 unpack f f;
#X obj 235 -74 zl rev;
#X obj 235 -39 route 0;
#X obj 231 -8 bng 15 250 50 0 empty empty empty 17 7 0 10 #fcfcfc #000000
#000000;
#X msg 231 16 0;
#X obj 284 -7 zl rev;
#N canvas 347 139 430 538 envelope 0;
#X obj 125 280 outlet~;
#X obj 54 110 pack f f;
#X obj 193 115 pack f f;
#X obj 125 226 vline~;
#X msg 54 161 \$1 \$2;
#X msg 192 167 \$1 \$2;
#X obj 99 -206 r \$0JERRY_attack;
#X obj 238 -205 r \$0JERRY_release;
#X obj -3 -29 moses 0.0001;
#X obj 64 51 / 127;
#X obj -3 -73 inlet;
#X obj 98 -171 * 78.7402;
#X obj 238 -173 * 78.7402;
#X obj 144 -125 s \$0JERRY_attack_show;
#X obj 315 -125 s \$0JERRY_release_show;
#X connect 1 0 4 0;
#X connect 2 0 5 0;
#X connect 3 0 0 0;
#X connect 4 0 3 0;
#X connect 5 0 3 0;
#X connect 6 0 11 0;
#X connect 7 0 12 0;
#X connect 8 0 2 0;
#X connect 8 1 9 0;
#X connect 9 0 1 0;
#X connect 10 0 8 0;
#X connect 11 0 1 1;
#X connect 11 0 13 0;
#X connect 12 0 2 1;
#X connect 12 0 14 0;
#X restore 190 295 pd envelope;
#X obj 369 99 s \$0basefreq1;
#X obj 431 -91 inlet~;
#X connect 1 0 3 0;
#X connect 2 0 4 0;
#X connect 3 0 0 0;
#X connect 4 0 0 0;
#X connect 5 0 2 0;
#X connect 14 0 2 1;
#X connect 15 0 17 0;
#X connect 16 0 5 0;
#X connect 16 0 1 0;
#X connect 16 0 23 0;
#X connect 16 1 22 0;
#X connect 16 1 14 0;
#X connect 17 0 18 0;
#X connect 18 0 19 0;
#X connect 18 1 21 0;
#X connect 19 0 20 0;
#X connect 20 0 22 0;
#X connect 20 0 14 0;
#X connect 21 0 16 0;
#X connect 22 0 3 1;
#X connect 24 0 5 1;
#X restore 119 -70 pd voice 1;
#N canvas 0 51 1600 826 voice 0;
#X obj 258 485 outlet~;
#N canvas 786 319 679 557 oscs 0;
#X obj 40 99 osc~;
#X obj 191 253 +~;
#X obj 364 99 osc~;
#X obj 192 288 outlet~;
#X obj 40 212 *~;
#X obj 363 232 *~;
#X obj 84 46 *~;
#X obj 190 -141 line~;
#X obj 364 -99 *~;
#X obj 364 65 +~;
#X obj 405 49 *~;
#X text 536 -49 Mausbeschleunigung X;
#X text 218 -47 Mausbeschleunigung Y;
#N canvas 466 147 450 300 noOffset 0;
#X floatatom 129 99 5 0 0 0 - - -, f 5;
#X obj 100 145 sel 0;
#X obj 139 210 line~;
#X obj 169 123 != 0;
#X msg 169 174 1 2;
#X msg 100 172 0 2;
#X obj 169 148 sel 1;
#X obj 128 49 inlet~;
#X obj 139 236 outlet~;
#X obj 129 79 unsig~ 5;
#X connect 0 0 1 0;
#X connect 0 0 3 0;
#X connect 1 0 5 0;
#X connect 2 0 8 0;
#X connect 3 0 6 0;
#X connect 4 0 2 0;
#X connect 5 0 2 0;
#X connect 6 0 4 0;
#X connect 7 0 9 0;
#X connect 9 0 0 0;
#X restore 95 99 pd noOffset;
#X obj 40 134 *~;
#X text 372 -196 Eigangsfrequenz;
#X obj 99 22 r \$0skalmausy;
#X obj 379 -123 r \$0ffaktorosc2;
#X obj 420 22 r \$0skalmausx;
#X obj 386 130 r \$0JERRY_volosc2;
#X obj 78 158 r \$0JERRY_volosc1;
#X obj 188 -197 inlet;
#X obj 386 160 / 846.667;
#X obj 398 209 line~;
#X msg 398 187 \$1 50;
#X obj 189 -165 pack f f;
#X obj 238 -215 r \$0JERRY_glide;
#X obj 240 -190 * 7.87402;
#X obj 81 192 / 1270;
#X obj 80 246 line~;
#X msg 80 224 \$1 50;
#X obj 84 -46 r~ \$0JERRY_Mouse_Y_acc;
#X obj 404 -50 r~ \$0JERRY_Mouse_X_acc;
#X obj 34 174 hip~ 10;
#X obj 40 62 +~;
#X connect 0 0 14 0;
#X connect 1 0 3 0;
#X connect 2 0 5 0;
#X connect 4 0 1 0;
#X connect 5 0 1 1;
#X connect 6 0 34 1;
#X connect 7 0 8 0;
#X connect 7 0 34 0;
#X connect 8 0 9 0;
#X connect 9 0 2 0;
#X connect 10 0 9 1;
#X connect 13 0 14 1;
#X connect 14 0 33 0;
#X connect 16 0 6 1;
#X connect 17 0 8 1;
#X connect 18 0 10 1;
#X connect 19 0 22 0;
#X connect 20 0 28 0;
#X connect 21 0 25 0;
#X connect 22 0 24 0;
#X connect 23 0 5 1;
#X connect 24 0 23 0;
#X connect 25 0 7 0;
#X connect 26 0 27 0;
#X connect 27 0 25 1;
#X connect 28 0 30 0;
#X connect 29 0 4 1;
#X connect 30 0 29 0;
#X connect 31 0 6 0;
#X connect 32 0 10 0;
#X connect 33 0 4 0;
#X connect 34 0 0 0;
#X connect 34 0 13 0;
#X restore 171 261 pd oscs;
#X obj 374 322 *~;
#X obj 172 322 *~;
#N canvas 355 87 450 426 Lautstärkenkontrolle 0;
#X obj -3505 164 *~;
#X text -3478 163 Anpassung der Lautstärke nach Q;
#X obj -3505 68 *~;
#X obj -3490 143 line~;
#X obj -3506 266 *~;
#X obj -3491 246 line~;
#N canvas 630 202 450 300 Jerry_rel_Vol_Freq 0;
#X floatatom 50 -46 5 0 0 0 - - -, f 5;
#X obj 50 -14 / 4500;
#X floatatom 50 12 5 0 0 0 - - -, f 5;
#X obj 50 34 inv;
#X floatatom 50 58 5 0 0 0 - - -, f 5;
#X floatatom 48 147 5 0 0 0 - - -, f 5;
#X obj 48 174 outlet;
#X floatatom 48 102 5 0 0 0 - - -, f 5;
#X obj 50 82 / 40;
#X obj 48 124 clip 0.12 2;
#X obj 51 -93 r \$0basefreq1;
#X connect 0 0 1 0;
#X connect 1 0 2 0;
#X connect 2 0 3 0;
#X connect 3 0 4 0;
#X connect 4 0 8 0;
#X connect 5 0 6 0;
#X connect 7 0 9 0;
#X connect 8 0 7 0;
#X connect 9 0 5 0;
#X connect 10 0 0 0;
#X restore -3491 204 pd Jerry_rel_Vol_Freq;
#X text -3479 268 Anpassung der Lautstärke nach der Frequenz;
#X obj -3483 45 line~;
#X text -3448 69 generelle Lautstärkenkontrolle;
#X obj -3503 -69 inlet~;
#X obj -3506 342 outlet~;
#X obj -3483 -28 r \$0JERRY_volnoisebp;
#X obj -3490 102 r \$0JERRY_Q_volcontrol;
#X obj -3484 -4 / 84.6667;
#X msg -3490 124 \$1 50;
#X msg -3491 227 \$1 50;
#X msg -3483 22 \$1 50;
#X connect 0 0 4 0;
#X connect 2 0 0 0;
#X connect 3 0 0 1;
#X connect 4 0 11 0;
#X connect 5 0 4 1;
#X connect 6 0 16 0;
#X connect 8 0 2 1;
#X connect 10 0 2 0;
#X connect 12 0 14 0;
#X connect 13 0 15 0;
#X connect 14 0 17 0;
#X connect 15 0 3 0;
#X connect 16 0 5 0;
#X connect 17 0 8 0;
#X restore 375 412 pd Lautstärkenkontrolle;
#N canvas 0 51 1600 826 noise 0;
#X obj 215 -780 outlet~;
#X text 148 -1317 Tonabstand;
#N canvas 583 252 878 624 scalemode 0;
#X obj 34 263 pack;
#X obj 34 297 line~;
#X obj 34 359 outlet~;
#X obj 62 190 r \$0JERRY_glide;
#X obj 25 40 inlet;
#X obj 59 220 * 7.87402;
#X connect 0 0 1 0;
#X connect 1 0 2 0;
#X connect 3 0 5 0;
#X connect 4 0 0 0;
#X connect 5 0 0 1;
#X restore 33 -1221 pd scalemode;
#N canvas 635 51 704 825 scalemode 0;
#X obj 61 620 pack;
#X obj 61 702 outlet~;
#X obj 61 640 line~;
#N canvas 1092 338 162 174 receiveOTdist 0;
#X obj 26 16 r \$0JERRY_OT2ctl;
#X floatatom 26 69 5 0 0 0 - - -, f 5;
#X obj 26 164 s \$0JERRY_OT2dist;
#X obj 26 40 / 6.6842;
#X obj 26 94 int;
#X floatatom 26 142 5 0 0 0 - - -, f 5;
#X obj 26 119 clip 1 19;
#X obj 98 138 s \$0OT2FinalDist;
#X connect 0 0 3 0;
#X connect 1 0 4 0;
#X connect 3 0 1 0;
#X connect 4 0 6 0;
#X connect 5 0 2 0;
#X connect 5 0 7 0;
#X connect 6 0 5 0;
#X restore 550 21 pd receiveOTdist;
#X obj 98 267 r \$0JERRY_OT2dist;
#X floatatom 98 296 5 0 0 0 - - -, f 5;
#X obj 51 61 inlet;
#X floatatom 98 432 5 0 0 0 - - -, f 5;
#X msg 98 387 1.05946;
#X obj 98 410 pow;
#X obj 50 448 *;
#X obj 112 342 t b f;
#X obj 104 546 r \$0JERRY_glide;
#X obj 106 575 * 7.87402;
#X connect 0 0 2 0;
#X connect 2 0 1 0;
#X connect 4 0 5 0;
#X connect 5 0 11 0;
#X connect 6 0 10 0;
#X connect 7 0 10 1;
#X connect 8 0 9 0;
#X connect 9 0 7 0;
#X connect 10 0 0 0;
#X connect 11 0 8 0;
#X connect 11 1 9 1;
#X connect 12 0 13 0;
#X connect 13 0 0 1;
#X restore 151 -1221 pd scalemode;
#X obj 130 -945 vcf_bp4~;
#X obj 229 -947 vcf_bp4~;
#X obj 324 -948 vcf_bp4~;
#X obj 432 -948 vcf_bp4~;
#X obj 13 -944 vcf_bp4~;
#X obj 515 -1111 line~;
#X text 548 -1150 Empfang Q;
#N canvas 162 434 281 213 BP1Volume 0;
#X msg 27 41 \$1 5;
#X obj 27 66 line~;
#X obj 27 91 outlet~;
#X obj 27 -12 r \$0JERRY_OT1volctl;
#X obj 27 13 / 127;
#X connect 0 0 1 0;
#X connect 1 0 2 0;
#X connect 3 0 4 0;
#X connect 4 0 0 0;
#X restore 30 -910 pd BP1Volume;
#X obj 14 -881 *~;
#N canvas 229 436 281 173 BP2Volume 0;
#X msg 27 41 \$1 5;
#X obj 27 66 line~;
#X obj 27 91 outlet~;
#X obj 27 12 / 127;
#X obj 27 -13 r \$0JERRY_OT2volctl;
#X connect 0 0 1 0;
#X connect 1 0 2 0;
#X connect 3 0 0 0;
#X connect 4 0 3 0;
#X restore 146 -910 pd BP2Volume;
#N canvas 327 396 281 98 BP3Volume 0;
#X msg 27 41 \$1 5;
#X obj 27 66 line~;
#X obj 27 91 outlet~;
#X obj 27 17 / 127;
#X obj 27 -8 r \$0JERRY_OT3volctl;
#X connect 0 0 1 0;
#X connect 1 0 2 0;
#X connect 3 0 0 0;
#X connect 4 0 3 0;
#X restore 243 -910 pd BP3Volume;
#N canvas 404 442 281 74 BP4Volume 0;
#X msg 27 41 \$1 5;
#X obj 27 66 line~;
#X obj 27 91 outlet~;
#X obj 27 19 / 127;
#X obj 27 -6 r \$0JERRY_OT4volctl;
#X connect 0 0 1 0;
#X connect 1 0 2 0;
#X connect 3 0 0 0;
#X connect 4 0 3 0;
#X restore 340 -910 pd BP4Volume;
#N canvas 513 441 281 106 BP5Volume 0;
#X msg 27 41 \$1 5;
#X obj 27 66 line~;
#X obj 27 91 outlet~;
#X obj 27 17 / 127;
#X obj 27 -8 r \$0JERRY_OT5volctl;
#X connect 0 0 1 0;
#X connect 1 0 2 0;
#X connect 3 0 0 0;
#X connect 4 0 3 0;
#X restore 447 -910 pd BP5Volume;
#X obj 131 -884 *~;
#X obj 228 -881 *~;
#X obj 324 -882 *~;
#X obj 432 -880 *~;
#X text 539 -1294 Grundton + 4 Obertöne aus dem bandpassgefiltertem
Rauschen können in ihrer Amplitude und Frequenz verändert werden
\, um die Klangfarbe zu verändern und/oder mehrstimmge Klänge zu
ermöglichen;
#X obj 519 -1182 r \$0JERRY_Q;
#X obj 33 -1332 inlet;
#N canvas 895 74 704 802 scalemode 0;
#X obj 61 620 pack;
#X obj 61 702 outlet~;
#X obj 61 640 line~;
#X obj 51 61 inlet;
#N canvas 899 173 162 93 receiveOTdist 0;
#X obj 26 16 r \$0JERRY_OT3ctl;
#X obj 26 169 s \$0JERRY_OT3dist;
#X floatatom 26 71 5 0 0 0 - - -, f 5;
#X obj 26 96 int;
#X floatatom 26 144 5 0 0 0 - - -, f 5;
#X obj 26 121 clip 1 28;
#X obj 26 42 / 4.5357;
#X obj 77 212 s \$0OT3FinalDist;
#X connect 0 0 6 0;
#X connect 2 0 3 0;
#X connect 3 0 5 0;
#X connect 4 0 1 0;
#X connect 4 0 7 0;
#X connect 5 0 4 0;
#X connect 6 0 2 0;
#X restore 508 45 pd receiveOTdist;
#X floatatom 95 331 5 0 0 0 - - -, f 5;
#X floatatom 95 467 5 0 0 0 - - -, f 5;
#X msg 95 422 1.05946;
#X obj 95 445 pow;
#X obj 47 483 *;
#X obj 109 377 t b f;
#X obj 95 302 r \$0JERRY_OT3dist;
#X obj 89 559 r \$0JERRY_glide;
#X obj 91 588 * 7.87402;
#X connect 0 0 2 0;
#X connect 2 0 1 0;
#X connect 3 0 9 0;
#X connect 5 0 10 0;
#X connect 6 0 9 1;
#X connect 7 0 8 0;
#X connect 8 0 6 0;
#X connect 9 0 0 0;
#X connect 10 0 7 0;
#X connect 10 1 8 1;
#X connect 11 0 5 0;
#X connect 12 0 13 0;
#X connect 13 0 0 1;
#X restore 256 -1219 pd scalemode;
#N canvas 895 74 704 802 scalemode 0;
#X obj 61 620 pack;
#X obj 61 702 outlet~;
#X obj 61 640 line~;
#X obj 51 61 inlet;
#N canvas 899 173 162 235 receiveOTdist 0;
#X obj 26 16 r \$0JERRY_OT4ctl;
#X obj 26 199 s \$0JERRY_OT4dist;
#X floatatom 26 76 5 0 0 0 - - -, f 5;
#X obj 26 101 int;
#X floatatom 26 149 5 0 0 0 - - -, f 5;
#X obj 26 126 clip 1 34;
#X obj 26 47 / 3.7352;
#X obj 53 174 s \$0OT4FinalDist;
#X connect 0 0 6 0;
#X connect 2 0 3 0;
#X connect 3 0 5 0;
#X connect 4 0 1 0;
#X connect 4 0 7 0;
#X connect 5 0 4 0;
#X connect 6 0 2 0;
#X restore 527 83 pd receiveOTdist;
#X floatatom 109 321 5 0 0 0 - - -, f 5;
#X floatatom 109 457 5 0 0 0 - - -, f 5;
#X msg 109 412 1.05946;
#X obj 109 435 pow;
#X obj 61 473 *;
#X obj 123 367 t b f;
#X obj 109 292 r \$0JERRY_OT4dist;
#X obj 94 544 r \$0JERRY_glide;
#X obj 96 573 * 7.87402;
#X connect 0 0 2 0;
#X connect 2 0 1 0;
#X connect 3 0 9 0;
#X connect 5 0 10 0;
#X connect 6 0 9 1;
#X connect 7 0 8 0;
#X connect 8 0 6 0;
#X connect 9 0 0 0;
#X connect 10 0 7 0;
#X connect 10 1 8 1;
#X connect 11 0 5 0;
#X connect 12 0 13 0;
#X connect 13 0 0 1;
#X restore 366 -1220 pd scalemode;
#N canvas 895 74 704 802 scalemode 0;
#X obj 61 620 pack;
#X obj 61 702 outlet~;
#X obj 61 640 line~;
#X obj 51 61 inlet;
#N canvas 901 225 162 294 receiveOTdist 0;
#X obj 26 170 s \$0JERRY_OT5dist;
#X obj 26 16 r \$0JERRY_OT5ctl;
#X floatatom 26 71 5 0 0 0 - - -, f 5;
#X obj 26 96 int;
#X floatatom 26 144 5 0 0 0 - - -, f 5;
#X obj 26 42 / 3.3421;
#X obj 26 121 clip 1 38;
#X obj 73 208 s \$0OT5FinalDist;
#X connect 1 0 5 0;
#X connect 2 0 3 0;
#X connect 3 0 6 0;
#X connect 4 0 0 0;
#X connect 4 0 7 0;
#X connect 5 0 2 0;
#X connect 6 0 4 0;
#X restore 544 61 pd receiveOTdist;
#X floatatom 104 324 5 0 0 0 - - -, f 5;
#X floatatom 104 460 5 0 0 0 - - -, f 5;
#X msg 104 415 1.05946;
#X obj 104 438 pow;
#X obj 60 468 *;
#X obj 118 370 t b f;
#X obj 104 295 r \$0JERRY_OT5dist;
#X obj 87 545 r \$0JERRY_glide;
#X obj 89 574 * 7.87402;
#X connect 0 0 2 0;
#X connect 2 0 1 0;
#X connect 3 0 9 0;
#X connect 5 0 10 0;
#X connect 6 0 9 1;
#X connect 7 0 8 0;
#X connect 8 0 6 0;
#X connect 9 0 0 0;
#X connect 10 0 7 0;
#X connect 10 1 8 1;
#X connect 11 0 5 0;
#X connect 12 0 13 0;
#X connect 13 0 0 1;
#X restore 471 -1218 pd scalemode;
#X obj 323 -1292 inlet~;
#X obj 516 -1150 \$1 50;
#X connect 2 0 8 1;
#X connect 3 0 4 1;
#X connect 4 0 17 0;
#X connect 5 0 18 0;
#X connect 6 0 19 0;
#X connect 7 0 20 0;
#X connect 8 0 12 0;
#X connect 9 0 8 2;
#X connect 9 0 4 2;
#X connect 9 0 5 2;
#X connect 9 0 6 2;
#X connect 9 0 7 2;
#X connect 11 0 12 1;
#X connect 12 0 0 0;
#X connect 13 0 17 1;
#X connect 14 0 18 1;
#X connect 15 0 19 1;
#X connect 16 0 20 1;
#X connect 17 0 0 0;
#X connect 18 0 0 0;
#X connect 19 0 0 0;
#X connect 20 0 0 0;
#X connect 22 0 28 0;
#X connect 23 0 2 0;
#X connect 23 0 26 0;
#X connect 23 0 25 0;
#X connect 23 0 24 0;
#X connect 23 0 3 0;
#X connect 24 0 5 1;
#X connect 25 0 6 1;
#X connect 26 0 7 1;
#X connect 27 0 8 0;
#X connect 27 0 7 0;
#X connect 27 0 6 0;
#X connect 27 0 5 0;
#X connect 27 0 4 0;
#X connect 28 0 9 0;
#X restore 370 266 pd noise;
#X text 403 321 Hüllkurve (noise/peak);
#X text 200 321 Hüllkurve (Oszillator);
#X text 171 209 Tonerzeugung 1;
#X text 374 209 Tonerzeugung 2;
#X text 374 223 - Bandpassgefiltertes;
#X text 387 235 Rauschen;
#X text 171 223 - Oszillatoren;
#X text 183 235 und Mausgeschwindigkeit;
#N canvas 347 139 430 538 envelope 0;
#X obj 181 590 outlet~;
#X obj 110 420 pack f f;
#X obj 249 425 pack f f;
#X obj 181 536 vline~;
#X msg 110 471 \$1 \$2;
#X msg 248 477 \$1 \$2;
#X obj 155 104 r \$0JERRY_attack;
#X obj 294 105 r \$0JERRY_release;
#X obj 53 281 moses 0.0001;
#X obj 120 361 / 127;
#X obj 53 237 inlet;
#X obj 154 139 * 78.7402;
#X obj 294 137 * 78.7402;
#X connect 1 0 4 0;
#X connect 2 0 5 0;
#X connect 3 0 0 0;
#X connect 4 0 3 0;
#X connect 5 0 3 0;
#X connect 6 0 11 0;
#X connect 7 0 12 0;
#X connect 8 0 2 0;
#X connect 8 1 9 0;
#X connect 9 0 1 0;
#X connect 10 0 8 0;
#X connect 11 0 1 1;
#X connect 12 0 2 1;
#X restore 395 294 pd envelope;
#X obj 230 -108 inlet;
#X obj 268 47 unpack f f;
#X obj 235 -74 zl rev;
#X obj 235 -39 route 0;
#X obj 231 -8 bng 15 250 50 0 empty empty empty 17 7 0 10 #fcfcfc #000000
#000000;
#X msg 231 16 0;
#X obj 284 -7 zl rev;
#N canvas 347 139 430 538 envelope 0;
#X obj 125 280 outlet~;
#X obj 54 110 pack f f;
#X obj 193 115 pack f f;
#X obj 125 226 vline~;
#X msg 54 161 \$1 \$2;
#X msg 192 167 \$1 \$2;
#X obj 99 -206 r \$0JERRY_attack;
#X obj 238 -205 r \$0JERRY_release;
#X obj -3 -29 moses 0.0001;
#X obj 64 51 / 127;
#X obj -3 -73 inlet;
#X obj 98 -171 * 78.7402;
#X obj 238 -173 * 78.7402;
#X obj 144 -125 s \$0JERRY_attack_show;
#X obj 315 -125 s \$0JERRY_release_show;
#X connect 1 0 4 0;
#X connect 2 0 5 0;
#X connect 3 0 0 0;
#X connect 4 0 3 0;
#X connect 5 0 3 0;
#X connect 6 0 11 0;
#X connect 7 0 12 0;
#X connect 8 0 2 0;
#X connect 8 1 9 0;
#X connect 9 0 1 0;
#X connect 10 0 8 0;
#X connect 11 0 1 1;
#X connect 11 0 13 0;
#X connect 12 0 2 1;
#X connect 12 0 14 0;
#X restore 190 295 pd envelope;
#X obj 369 99 s \$0basefreq1;
#X obj 431 -91 inlet~;
#X connect 1 0 3 0;
#X connect 2 0 4 0;
#X connect 3 0 0 0;
#X connect 4 0 0 0;
#X connect 5 0 2 0;
#X connect 14 0 2 1;
#X connect 15 0 17 0;
#X connect 16 0 5 0;
#X connect 16 0 1 0;
#X connect 16 0 23 0;
#X connect 16 1 22 0;
#X connect 16 1 14 0;
#X connect 17 0 18 0;
#X connect 18 0 19 0;
#X connect 18 1 21 0;
#X connect 19 0 20 0;
#X connect 20 0 22 0;
#X connect 20 0 14 0;
#X connect 21 0 16 0;
#X connect 22 0 3 1;
#X connect 24 0 5 1;
#X restore 160 -28 pd voice 1;
#X obj 1234 7 hsl 45 31 0.00127 127 1 0 \$0skalmausxctl \$0skalmausxctl_ctl
mod_x 4 13 0 14 #9c9c9c #fc8000 #000000 0 1;
#X obj 860 160 r \$0skalmausxctl;
#X obj 860 391 s \$0skalmausx;
#X obj 1307 7 hsl 45 31 0.0127 127 1 0 \$0skalmausyctl \$0skalmausyctl_ctl
mod_y 5 14 0 14 #9c9c9c #fc8000 #000000 0 1;
#X obj 993 396 s \$0skalmausy;
#X obj 994 218 r \$0skalmausyctl;
#X obj 990 248 / 15.875;
#X msg 2241 -542 0;
#X text 433 -641 Modx_in;
#X text 500 -639 Mody_in;
#X obj 904 -670 inlet;
#X text 903 -640 VolMove;
#X obj 983 -672 inlet;
#X obj 1048 -674 inlet;
#X text 971 -643 Modx_ctl;
#X text 1037 -640 Mody_ctl;
#X obj 1157 -674 inlet;
#X obj 1230 -675 inlet;
#X obj 1284 -673 inlet;
#X obj 1334 -677 inlet;
#X obj 1378 -676 inlet;
#X obj 1507 -668 inlet;
#X obj 1559 -668 inlet;
#X obj 1609 -671 inlet;
#X obj 1661 -671 inlet;
#X obj 2032 -514 s \$0ffaktorosc2;
#X msg 2043 -579 0.5;
#X text 79 -1018 Mono/Polyphone?;
#X text 39 -980 Input Description: Q / MOD X / MOD Y;
#X obj 1373 -143 bng 15 250 50 0 \$0Jerry_preset1 empty dirty\\\ sine
18 5 0 10 #9c9c9c #fc8000 #fcfcfc;
#X obj 1373 -121 bng 15 250 50 0 \$0Jerry_preset2 empty sawish 18 5
0 10 #9c9c9c #fc8000 #fcfcfc;
#X obj 1373 -98 bng 15 250 50 0 \$0Jerry_preset3 empty squarish 18
5 0 10 #9c9c9c #fc8000 #fcfcfc;
#X obj 1373 -76 bng 15 250 50 0 \$0Jerry_preset4 empty whyOhwhy? 18
5 0 10 #9c9c9c #fc8000 #fcfcfc;
#X obj 1373 -53 bng 15 250 50 0 \$0Jerry_preset5 empty windy 18 5 0
10 #9c9c9c #fc8000 #fcfcfc;
#X obj 1373 -29 bng 15 250 50 0 \$0Jerry_preset6 empty bellish 18 5
0 10 #9c9c9c #fc8000 #fcfcfc;
#X obj 1374 -3 bng 15 250 50 0 \$0Jerry_preset7 empty major 18 5 0
10 #9c9c9c #fc8000 #fcfcfc;
#X obj 1374 21 bng 15 250 50 0 \$0Jerry_preset8 empty minor 18 5 0
10 #9c9c9c #fc8000 #fcfcfc;
#X obj 1638 43 r toolssavebank;
#X obj 1895 -148 r toolssavebang;
#X obj 2114 42 f;
#X obj 2059 36 f;
#X obj 2487 349 s toolssavelists;
#X obj 1924 -44 f;
#X obj 1640 161 route;
#X obj 2045 -203 loadbang;
#X obj 2046 -147 \$1;
#X obj 2045 -175 del 5;
#X obj 1924 -85 del;
#X obj 2186 70 f;
#X obj 2295 96 f;
#X obj 2221 77 f;
#X obj 2350 135 f;
#X obj 2428 175 f;
#X obj 2003 -92 clip 1 110;
#X obj 1640 131 route jerry;
#X obj 1916 56 symbol jerry;
#X obj 2080 -46 r \$0JERRY_qctl;
#X obj 2146 -15 r \$0JERRY_volnoisebp;
#X obj 2208 9 r \$0JERRY_attack;
#X obj 2220 37 r \$0JERRY_release;
#X obj 2304 64 r \$0JERRY_glide;
#X obj 2358 102 r \$0JERRY_volosc2;
#X obj 2432 138 r \$0skalmausxctl;
#X obj 2498 211 f;
#X obj 2576 251 f;
#X obj 2506 178 r \$0JERRY_volosc1;
#X obj 2580 214 r \$0skalmausyctl;
#X obj 2314 -98 t b f b b b b b b b b b b b b b b b b b b;
#X obj 2488 314 pack s f f f f f f f f f f f f f f f f f f f;
#X obj 2580 9 f;
#X obj 2650 45 f;
#X obj 2728 85 f;
#X obj 2584 -28 r \$0JERRY_OT1volctl;
#X obj 2791 119 f;
#X obj 2869 159 f;
#X obj 3044 129 f;
#X obj 3122 169 f;
#X obj 3185 203 f;
#X obj 3263 243 f;
#X obj 2658 12 r \$0JERRY_OT2volctl;
#X obj 2732 48 r \$0JERRY_OT3volctl;
#X obj 2799 86 r \$0JERRY_OT4volctl;
#X obj 2873 122 r \$0JERRY_OT5volctl;
#X obj 3052 96 r \$0JERRY_OT2ctl;
#X obj 3126 132 r \$0JERRY_OT3ctl;
#X obj 3193 170 r \$0JERRY_OT3ctl;
#X obj 3267 206 r \$0JERRY_OT4ctl;
#X obj 1639 185 unpack f f f f f f f f f f f f f f f f f f;
#X obj 1464 279 s \$0JERRY_qctl_ctl;
#X obj 1531 310 s \$0JERRY_volnoisebp_ctl;
#X obj 1591 334 s \$0JERRY_attack_ctl;
#X obj 1603 362 s \$0JERRY_release_ctl;
#X obj 1687 389 s \$0JERRY_glide_ctl;
#X obj 1717 420 s \$0JERRY_volosc2_ctl;
#X obj 1791 456 s \$0skalmausxctl_ctl;
#X obj 1865 496 s \$0JERRY_volosc1_ctl;
#X obj 1939 532 s \$0skalmausyctl_ctl;
#X obj 2023 428 s \$0JERRY_OT1volctl_ctl;
#X obj 2097 468 s \$0JERRY_OT2volctl_ctl;
#X obj 2171 504 s \$0JERRY_OT3volctl_ctl;
#X obj 2238 542 s \$0JERRY_OT4volctl_ctl;
#X obj 2312 578 s \$0JERRY_OT5volctl_ctl;
#X obj 2400 612 s \$0JERRY_OT2ctl_ctl;
#X obj 2474 648 s \$0JERRY_OT3ctl_ctl;
#X obj 2541 686 s \$0JERRY_OT3ctl_ctl;
#X obj 2615 722 s \$0JERRY_OT4ctl_ctl;
#X obj 100 330 outlet~;
#X obj 756 -176 cnv 5 2 2 empty empty Q 18 9 0 14 #202020 #fcfcfc 0
;
#X obj 792 -174 cnv 5 2 2 empty empty modX 6 6 0 14 #202020 #fcfcfc
0;
#X obj 833 -174 cnv 5 2 2 empty empty modY 6 6 0 14 #202020 #fcfcfc
0;
#X obj 273 -367 sel 0;
#X obj 445 -670 inlet~;
#X obj 509 -674 inlet~;
#X obj 453 -596 s~ \$0JERRY_Mouse_Y_acc;
#X obj 414 -567 s~ \$0JERRY_Mouse_X_acc;
#X obj 859 359 * 1000;
#X floatatom 860 189 5 0 0 0 - - -, f 5;
#X obj 861 215 moses 0.002;
#X msg 861 244 0;
#X floatatom 858 294 5 0 0 0 - - -, f 5;
#X obj 1005 291 moses 0.013;
#X msg 1005 320 0;
#X obj 983 353 * 1000;
#X connect 11 0 19 0;
#X connect 11 0 59 0;
#X connect 11 0 60 0;
#X connect 11 0 62 0;
#X connect 11 0 85 0;
#X connect 11 0 104 0;
#X connect 14 0 15 0;
#X connect 14 1 16 0;
#X connect 17 0 18 0;
#X connect 18 0 14 0;
#X connect 19 0 20 0;
#X connect 19 0 34 0;
#X connect 19 0 44 0;
#X connect 22 0 23 0;
#X connect 23 0 29 0;
#X connect 23 0 45 0;
#X connect 23 1 45 0;
#X connect 23 1 75 0;
#X connect 23 2 45 0;
#X connect 23 2 76 0;
#X connect 23 3 45 0;
#X connect 23 3 77 0;
#X connect 24 0 22 0;
#X connect 24 1 22 1;
#X connect 24 2 22 2;
#X connect 25 0 24 0;
#X connect 26 0 188 0;
#X connect 27 0 25 0;
#X connect 28 0 24 0;
#X connect 29 0 30 0;
#X connect 30 0 184 0;
#X connect 33 0 29 1;
#X connect 33 0 75 1;
#X connect 33 0 77 1;
#X connect 33 0 76 1;
#X connect 43 0 17 0;
#X connect 57 0 28 0;
#X connect 57 0 26 0;
#X connect 58 0 42 0;
#X connect 59 0 52 0;
#X connect 60 0 53 0;
#X connect 62 0 61 0;
#X connect 63 0 46 0;
#X connect 64 0 47 0;
#X connect 65 0 32 0;
#X connect 66 0 55 0;
#X connect 67 0 50 0;
#X connect 75 0 30 0;
#X connect 76 0 30 0;
#X connect 77 0 30 0;
#X connect 79 0 194 0;
#X connect 83 0 198 0;
#X connect 85 0 56 0;
#X connect 88 0 74 0;
#X connect 90 0 78 0;
#X connect 91 0 81 0;
#X connect 94 0 2 0;
#X connect 95 0 3 0;
#X connect 96 0 37 0;
#X connect 97 0 40 0;
#X connect 98 0 41 0;
#X connect 99 0 35 0;
#X connect 100 0 36 0;
#X connect 101 0 38 0;
#X connect 102 0 39 0;
#X connect 104 0 103 0;
#X connect 115 0 132 0;
#X connect 116 0 125 0;
#X connect 117 0 146 3;
#X connect 118 0 146 2;
#X connect 120 0 145 0;
#X connect 121 0 165 0;
#X connect 122 0 124 0;
#X connect 123 0 120 1;
#X connect 123 0 121 1;
#X connect 123 0 131 0;
#X connect 124 0 123 0;
#X connect 125 0 120 0;
#X connect 126 0 146 4;
#X connect 127 0 146 6;
#X connect 128 0 146 5;
#X connect 129 0 146 7;
#X connect 130 0 146 8;
#X connect 131 0 125 1;
#X connect 132 0 121 0;
#X connect 133 0 146 0;
#X connect 134 0 118 1;
#X connect 135 0 117 1;
#X connect 136 0 126 1;
#X connect 137 0 128 1;
#X connect 138 0 127 1;
#X connect 139 0 129 1;
#X connect 140 0 130 1;
#X connect 141 0 146 9;
#X connect 142 0 146 10;
#X connect 143 0 141 1;
#X connect 144 0 142 1;
#X connect 145 0 133 0;
#X connect 145 1 146 1;
#X connect 145 2 118 0;
#X connect 145 3 117 0;
#X connect 145 4 126 0;
#X connect 145 5 128 0;
#X connect 145 6 127 0;
#X connect 145 7 129 0;
#X connect 145 8 130 0;
#X connect 145 9 141 0;
#X connect 145 10 142 0;
#X connect 145 11 147 0;
#X connect 145 12 148 0;
#X connect 145 13 149 0;
#X connect 145 14 151 0;
#X connect 145 15 152 0;
#X connect 145 16 153 0;
#X connect 145 17 154 0;
#X connect 145 18 155 0;
#X connect 145 19 156 0;
#X connect 146 0 119 0;
#X connect 147 0 146 11;
#X connect 148 0 146 12;
#X connect 149 0 146 13;
#X connect 150 0 147 1;
#X connect 151 0 146 14;
#X connect 152 0 146 15;
#X connect 153 0 146 16;
#X connect 154 0 146 17;
#X connect 155 0 146 18;
#X connect 156 0 146 19;
#X connect 157 0 148 1;
#X connect 158 0 149 1;
#X connect 159 0 151 1;
#X connect 160 0 152 1;
#X connect 161 0 153 1;
#X connect 162 0 154 1;
#X connect 163 0 155 1;
#X connect 164 0 156 1;
#X connect 165 0 166 0;
#X connect 165 1 167 0;
#X connect 165 2 168 0;
#X connect 165 3 169 0;
#X connect 165 4 170 0;
#X connect 165 5 171 0;
#X connect 165 6 172 0;
#X connect 165 7 173 0;
#X connect 165 8 174 0;
#X connect 165 9 175 0;
#X connect 165 10 176 0;
#X connect 165 11 177 0;
#X connect 165 12 178 0;
#X connect 165 13 179 0;
#X connect 165 14 180 0;
#X connect 165 15 181 0;
#X connect 165 16 182 0;
#X connect 165 17 183 0;
#X connect 188 0 27 0;
#X connect 189 0 192 0;
#X connect 190 0 191 0;
#X connect 193 0 80 0;
#X connect 194 0 195 0;
#X connect 195 0 196 0;
#X connect 195 1 197 0;
#X connect 196 0 197 0;
#X connect 197 0 193 0;
#X connect 198 0 199 0;
#X connect 198 1 200 0;
#X connect 199 0 200 0;
#X connect 200 0 82 0;
#X coords 0 -1 1 1 735 259 1 739 -178;
