#N canvas 0 55 1366 690 10;
#X obj 102 103 cnv 15 455 185 empty empty keysadrone 5 8 0 12 -66577
-262144 0;
#X obj 172 186 tgl 40 0 \$0RecordOnOff \$0RecordOnOff_r Aufnehmen -10
-8 0 12 -191407 -258113 -258113 0 1;
#X obj 124 145 bng 30 250 50 0 \$0read \$0read_r laden -3 40 0 12 -228856
-260097 -262144;
#X obj 123 207 bng 30 250 50 0 \$0write \$0write_r speichern -14 40
0 12 -228856 -260097 -262144;
#X obj 237 213 hsl 145 30 0 127 0 0 \$0end_ctrl \$0end_r Ende 44 15
0 18 -228856 -260097 -1 6000 1;
#X obj 237 183 hsl 145 30 0 127 0 0 \$0begin_ctrl \$0begin_r Start
40 15 0 18 -228856 -260097 -1 5100 1;
#N canvas 0 0 450 300 (subpatch) 0;
#X array \$0sample 55389 float 4 black black;
#X coords 0 1 55388 -1 150 60 1;
#X restore 234 122 graph;
#N canvas 0 0 1440 818 record 0;
#X obj 1408 686 / 44100;
#X floatatom 988 56 5 0 0 0 - - -, f 5;
#X obj 999 15 r \$0RecordOnOff;
#X obj 1408 747 s \$0durSound;
#X obj 1380 717 s \$0lenSound;
#X obj 1370 656 t f f;
#X obj 1110 836 \$0;
#X msg 1113 867 \; \$1sample normalize;
#X msg 733 637 0;
#X obj 728 607 sel 30000;
#X obj 733 664 s \$0RecordOnOff_r;
#X obj 1107 767 bng 15 250 50 0 empty empty empty 17 7 0 10 -262144
-1 -1;
#X obj 1227 828 s \$0loaded;
#X obj 765 160 r~ \$0sigrec;
#X obj 898 661 *~;
#X msg 946 621 1;
#X msg 1012 644 0;
#X obj 1037 140 bng 15 250 50 0 empty \$0startrec record-start 17 7
0 10 -262144 -1 -1;
#X obj 946 190 bng 15 250 50 0 empty \$0stoprec record-stop 17 7 0
10 -262144 -1 -1;
#X floatatom 1167 605 5 0 0 2 recording_length(ms) - -, f 5;
#X obj 1167 726 pack \$1 \$0;
#X obj 1019 297 t b b;
#X obj 965 733 bng 15 250 50 0 empty empty empty 17 7 0 10 -262144
-1 -1;
#X obj 1167 652 * 44.1;
#X floatatom 898 555 5 0 0 0 - - -, f 5;
#X obj 985 487 tgl 15 0 empty empty empty 17 7 0 10 -262144 -1 -1 0
1;
#X obj 898 578 sig~;
#X msg 985 457 1;
#X msg 1045 470 0;
#X obj 985 407 t b b;
#X obj 1167 571 f;
#X obj 937 527 + 1;
#X obj 898 533 1;
#X msg 1032 516 1;
#X obj 898 471 metro 1;
#X msg 818 205 1;
#X msg 818 226 0;
#X obj 754 243 *~;
#X text 668 472 This patch counts the recording time;
#X text 506 322 When [start] is pressed the audio signal is held up
in the delay line. with every update from [metro] the signal is held
for another millisecond. when the recording is stopped \, the counter
stops at the current time. The array is resized to the amount of samples
that is needed for that amount of time and the audio is played back
into it.;
#X text 1194 626 because we start 1 ms ahead;
#X text 1284 755 array is resized;
#X obj 1034 111 sel 1;
#X obj 941 156 sel 0;
#X msg 1167 747 \; \$2sample resize \$1;
#X obj 898 769 tabwrite~ \$0sample;
#X obj 946 209 t b b b;
#X text 755 284 Maximal length is 30 sec;
#X obj 755 266 delwrite~ \$0example 30000;
#X obj 898 602 vd~ \$0example;
#X obj 1111 798 del 500;
#X obj 1167 625 - 1;
#X connect 0 0 3 0;
#X connect 1 0 42 0;
#X connect 1 0 43 0;
#X connect 2 0 1 0;
#X connect 5 0 4 0;
#X connect 5 1 0 0;
#X connect 6 0 7 0;
#X connect 8 0 10 0;
#X connect 9 0 8 0;
#X connect 11 0 50 0;
#X connect 13 0 37 0;
#X connect 14 0 45 0;
#X connect 15 0 14 1;
#X connect 16 0 14 1;
#X connect 17 0 21 0;
#X connect 17 0 35 0;
#X connect 18 0 36 0;
#X connect 18 0 46 0;
#X connect 19 0 51 0;
#X connect 20 0 44 0;
#X connect 20 0 11 0;
#X connect 21 0 29 0;
#X connect 21 1 16 0;
#X connect 22 0 45 0;
#X connect 23 0 20 0;
#X connect 23 0 5 0;
#X connect 24 0 26 0;
#X connect 24 0 30 1;
#X connect 24 0 9 0;
#X connect 24 0 50 1;
#X connect 25 0 34 0;
#X connect 26 0 49 0;
#X connect 27 0 25 0;
#X connect 28 0 25 0;
#X connect 29 0 27 0;
#X connect 29 1 33 0;
#X connect 30 0 19 0;
#X connect 31 0 32 1;
#X connect 32 0 24 0;
#X connect 32 0 31 0;
#X connect 33 0 32 0;
#X connect 34 0 32 0;
#X connect 35 0 37 1;
#X connect 36 0 37 1;
#X connect 37 0 48 0;
#X connect 42 0 17 0;
#X connect 43 0 18 0;
#X connect 46 0 15 0;
#X connect 46 1 22 0;
#X connect 46 2 28 0;
#X connect 46 2 30 0;
#X connect 49 0 14 0;
#X connect 50 0 6 0;
#X connect 50 0 12 0;
#X connect 51 0 23 0;
#X restore -197 463 pd record;
#X obj 1855 314 r \$0lenSound;
#X obj 500 662 line~;
#X msg 498 639 \$1 25;
#X obj 2028 509 line~;
#X msg 2028 487 \$1 25;
#X obj 2007 121 r \$0begin;
#X obj 1991 320 *;
#X obj 2031 216 r \$0lenSound;
#X obj 1852 387 f;
#X obj 1852 428 -;
#X obj 1990 344 t b f f;
#X obj 1995 282 / 127;
#X obj 1858 508 / 44100;
#X obj 2383 1008 line~;
#X msg 2416 950 0;
#X msg 2499 955 1;
#X obj 2517 833 change;
#X obj 2518 860 bng 15 250 50 0 empty empty empty 17 7 0 10 -262144
-1 -1;
#X msg 2418 977 \$1 25;
#X obj 1854 360 *;
#X obj 1922 246 r \$0end;
#X obj 1897 294 / 127;
#X obj 1897 335 t b f;
#X obj 1853 338 f;
#X obj 1677 -273 r \$0zerospeed;
#X obj 1678 -221 s \$0speed_r;
#X msg 1676 -247 31.75;
#X obj -143 -790 loadbang;
#X obj 562 643 s \$0speedshow;
#X obj 353 -645 r toolssavebank;
#X obj 683 -691 r toolssavebang;
#X obj 902 -501 f;
#X obj 847 -507 f;
#X obj 831 -289 s toolssavelists;
#X obj 712 -587 f;
#X obj 350 -574 route;
#X obj 745 -762 loadbang;
#X obj 834 -690 \$1;
#X obj 833 -718 del 5;
#X obj 712 -628 del;
#X obj 974 -473 f;
#X obj 220 -395 s \$0begin_r;
#X obj 282 -371 s \$0end_r;
#X obj 885 -564 r \$0begin;
#X obj 975 -561 r \$0end;
#X msg -119 -691 0;
#X msg -31 -744 127;
#X obj -12 -672 s \$0end_r;
#X obj -124 -659 s \$0begin_r;
#X obj 1855 529 s \$0durSoundnew;
#X obj 2463 795 r \$0begin;
#X obj 2512 770 r \$0end;
#X obj 2511 897 del 100;
#X obj 1996 185 f;
#X obj 2024 165 r \$0loaded;
#X obj 1898 269 f;
#X obj -139 626 r \$0read;
#X msg -82 667 0;
#X obj -65 717 s \$0RecordOnOff_r;
#X obj -38 617 r \$0write;
#X obj -668 -281 r \$0RecordOnOff;
#X msg -670 -216 0;
#X obj -670 -250 sel 1;
#X obj -671 -178 s \$0play_r;
#X obj 1686 321 / 44100;
#X obj 1684 351 s \$0durSoundnew;
#X obj 1542 123 r \$0lenSound;
#X obj 1611 172 f;
#X obj 1626 138 t b f;
#X obj 1687 290 spigot;
#X obj 1855 486 spigot;
#X obj 1941 374 r \$0back;
#X obj 1935 434 - 1;
#X obj 1925 456 abs;
#X obj 1715 166 r \$0back;
#X obj 1707 211 change;
#X obj 1684 230 bng 15 250 50 0 empty empty empty 17 7 0 10 -262144
-1 -1;
#X obj 1683 257 f;
#X obj 1890 414 change;
#X obj 1892 436 bng 15 250 50 0 empty empty empty 17 7 0 10 -262144
-1 -1;
#X obj 1854 459 f;
#X obj 1940 398 t f f;
#X obj 1714 188 t f f;
#X msg -36 -624 0;
#X obj -35 -593 s \$0back_r;
#X obj 1147 -511 r \$0back;
#X obj 1669 -296 r \$0filename;
#X obj 398 -350 s \$0back_r;
#X obj 587 -414 s \$0filename_r;
#X obj 1111 -458 f;
#X obj 1642 -260 symbol;
#X obj 600 -461 list2symbol;
#X obj -923 -291 s \$0begin;
#X obj -819 -289 s \$0end;
#X obj -712 -359 r \$0begin_ctrl;
#X obj -916 -421 r \$0end_ctrl;
#X obj -818 -339 clip;
#X msg -790 -360 127;
#X obj -799 -470 loadbang;
#X obj -694 -302 clip;
#X msg -671 -328 0;
#X obj -455 -313 spigot;
#X obj -422 -355 - 1;
#X obj -421 -336 abs;
#X obj -469 -273 f;
#X obj -379 -313 sel 1;
#X obj -473 -228 s \$0end_r;
#X floatatom -420 -388 5 0 0 0 - - -, f 5;
#X obj -386 -441 t b f;
#X obj -422 -449 f;
#X obj -424 -469 r \$0end_ctrl;
#X obj -330 -452 r \$0begin_ctrl;
#X obj -422 -416 <;
#X obj -420 -282 del 1;
#X obj -643 -488 max;
#X obj -668 -539 r \$0end_ctrl;
#X obj -574 -522 r \$0begin_ctrl;
#X floatatom -642 -446 5 0 0 0 - - -, f 5;
#X obj -641 -386 s \$0end_r;
#X obj -641 -414 change;
#X obj 410 226 tgl 25 0 \$0back \$0back_r rückwärts -12 -8 0 10 -191407
-260097 -262144 0 1;
#X obj 1610 201 *;
#X obj 1636 5 r \$0end;
#X obj 1627 87 / 127;
#X obj 1578 -35 r \$0loaded;
#X obj 1628 62 f;
#X obj 1521 35 r \$0begin;
#X obj 1540 85 / 127;
#X obj 1538 61 f;
#X obj -875 -372 + 0.5;
#X obj -872 -354 - 0.5;
#X obj -122 -581 s \$0begin;
#X obj 82 -687 s \$0end;
#X obj 1471 172 f;
#X obj 1486 138 t b f;
#X obj 1470 201 *;
#X obj 1594 263 -;
#X obj 1538 217 f;
#X obj 1578 229 t b f;
#X obj 469 -186 inlet;
#X obj 506 -175 inlet;
#X obj 557 -151 inlet;
#X obj 599 -151 inlet;
#X obj 688 -156 inlet;
#X obj 621 -394 s \$0filename;
#X obj 381 -178 inlet~;
#X obj 381 -107 s~ \$0sigrec;
#N canvas 283 243 1024 525 voice 0;
#X obj 666 142 phasor~;
#X obj 959 -215 sig~;
#X obj 660 357 *~;
#X floatatom 957 -317 5 0 0 0 - - -, f 5;
#X obj 958 -254 /;
#X msg 958 -277 1;
#X obj 958 -296 t b f;
#X obj 667 -109 *~;
#X obj 662 434 +~;
#X obj 1332 829 outlet~;
#X obj 949 -343 r \$0durSoundnew;
#X obj 401 39 phasor~;
#X obj 400 84 +~ 1;
#X obj 400 61 *~ -1;
#X obj 491 288 *~;
#X obj 723 480 *~;
#X obj 586 248 r \$0back;
#X obj 600 296 abs;
#X obj 599 269 - 1;
#X obj 417 154 +~ 0;
#X obj 399 110 *~ 1;
#X obj 444 86 r \$0backone;
#X obj 445 122 r \$0backtwo;
#X obj 679 317 r \$0fwone;
#X obj 712 418 r~ \$0fwtwo;
#X text 1377 781 Hüllkurve;
#X obj 963 -152 *~;
#X obj 1020 -189 line~;
#X obj 1178 -320 inlet;
#X obj 1178 -292 unpack f f;
#X obj 1330 758 *~;
#X obj 1370 172 r \$0stop;
#X msg 1378 219 0;
#N canvas 507 15 450 300 tunedspeed 0;
#X msg 145 -2294 1;
#X obj 144 -2263 / 12;
#X floatatom 139 -2237 10 0 0 0 - - -, f 10;
#X obj 142 -2320 loadbang;
#X obj 94 -2167 pow;
#X msg 70 -2224 2;
#X floatatom 91 -2123 5 0 0 0 - - -, f 5;
#X floatatom 303 -2234 5 0 0 0 - - -, f 5;
#X obj 79 -2087 pow;
#X obj 174 -2085 t b f;
#X floatatom 68 -2043 5 0 0 0 - - -, f 5;
#X obj 78 -2261 del 1;
#X obj 144 -2049 outlet;
#X obj 318 -2272 inlet;
#X connect 0 0 1 0;
#X connect 1 0 2 0;
#X connect 2 0 4 1;
#X connect 3 0 0 0;
#X connect 3 0 11 0;
#X connect 4 0 6 0;
#X connect 5 0 4 0;
#X connect 6 0 8 0;
#X connect 7 0 9 0;
#X connect 8 0 10 0;
#X connect 9 0 8 0;
#X connect 9 1 8 1;
#X connect 10 0 12 0;
#X connect 11 0 5 0;
#X connect 13 0 7 0;
#X restore 1131 -177 pd tunedspeed;
#X obj 1178 -265 ftom;
#X obj 1182 -227 - 60;
#X obj 1618 121 bng 15 250 50 0 empty empty empty 17 7 0 10 -262144
-1 -1;
#X msg 521 21 0;
#X obj 1333 799 *~ 1;
#X obj 659 -155 r~ \$0tuneit;
#X obj 1064 655 tabread4~ \$0sample;
#N canvas 932 93 450 300 window 0;
#X obj 24 -335 expr~ tanh($v1*$v2);
#X obj 24 -357 cos~;
#X obj 24 -376 *~ 0.5;
#X obj 24 -397 -~ 0.5;
#X obj 135 -366 sig~ 2;
#X obj 23 -427 inlet~;
#X obj 23 -306 outlet~;
#X obj 135 -387 r \$0grainfade1;
#X obj 278 -411 loadbang;
#X msg 278 -368 15;
#X connect 0 0 6 0;
#X connect 1 0 0 0;
#X connect 2 0 1 0;
#X connect 3 0 2 0;
#X connect 4 0 0 1;
#X connect 5 0 3 0;
#X connect 7 0 4 0;
#X connect 8 0 9 0;
#X connect 9 0 4 0;
#X restore 1442 655 pd window;
#X obj 1326 718 *~;
#X obj 1188 73 r \$0att;
#X obj 1322 74 r \$0rel;
#X obj 1252 -108 r \$0sus;
#X obj 1252 -75 / 127;
#X obj 1252 342 vline~;
#X obj 1488 -96 moses 1;
#X floatatom 1489 -64 5 0 0 0 - - -, f 5;
#X floatatom 1542 -39 5 0 0 0 - - -, f 5;
#X obj 1296 242 pack f f;
#X obj 1541 -63 / 127;
#X obj 1184 190 pack f f f f;
#X msg 1166 236 \$1 \$2 \, \$3 \$4 \$2;
#X obj 1186 142 s \$0attshow;
#X obj 1164 -28 s \$0susshow;
#X obj 1355 141 s \$0relshow;
#X obj 1269 6 *;
#X obj 1285 -53 t b f;
#X obj 1255 -23 f;
#X obj 1150 160 f;
#X obj 1237 100 t b f;
#X obj 1521 -8 t f f;
#X obj 1019 -221 pack f f;
#X obj 1054 -249 r \$0glideshow;
#X obj 1188 106 * 157.48;
#X obj 1322 107 * 157.48;
#X obj 1276 135 * 39.3701;
#X obj 774 -154 r~ \$0fmsignal;
#X obj 776 -55 *~;
#X obj 830 -57 line~;
#X obj 830 -127 r \$0fm-int;
#X msg 830 -82 \$1 15;
#X obj 699 -20 +~;
#X obj 830 -105 / 1.27;
#X connect 0 0 2 0;
#X connect 0 0 41 0;
#X connect 1 0 26 0;
#X connect 2 0 8 0;
#X connect 3 0 6 0;
#X connect 4 0 1 0;
#X connect 5 0 4 0;
#X connect 6 0 5 0;
#X connect 6 1 4 1;
#X connect 7 0 74 0;
#X connect 8 0 15 0;
#X connect 10 0 3 0;
#X connect 11 0 13 0;
#X connect 12 0 20 0;
#X connect 13 0 12 0;
#X connect 14 0 40 0;
#X connect 15 0 40 0;
#X connect 16 0 14 1;
#X connect 16 0 18 0;
#X connect 17 0 15 1;
#X connect 18 0 17 0;
#X connect 19 0 14 0;
#X connect 20 0 19 0;
#X connect 21 0 20 1;
#X connect 22 0 19 1;
#X connect 23 0 2 1;
#X connect 24 0 8 1;
#X connect 26 0 7 0;
#X connect 27 0 26 1;
#X connect 28 0 29 0;
#X connect 29 0 34 0;
#X connect 29 1 48 0;
#X connect 30 0 38 0;
#X connect 31 0 32 0;
#X connect 32 0 51 0;
#X connect 33 0 64 0;
#X connect 34 0 35 0;
#X connect 35 0 33 0;
#X connect 36 0 37 0;
#X connect 37 0 11 1;
#X connect 37 0 0 1;
#X connect 38 0 9 0;
#X connect 39 0 7 1;
#X connect 40 0 42 0;
#X connect 41 0 42 1;
#X connect 42 0 30 0;
#X connect 43 0 66 0;
#X connect 44 0 67 0;
#X connect 44 0 68 0;
#X connect 45 0 46 0;
#X connect 46 0 56 0;
#X connect 46 0 60 1;
#X connect 47 0 30 1;
#X connect 48 0 49 0;
#X connect 48 1 52 0;
#X connect 48 1 36 0;
#X connect 49 0 51 0;
#X connect 50 0 63 0;
#X connect 51 0 47 0;
#X connect 52 0 50 0;
#X connect 53 0 54 0;
#X connect 54 0 47 0;
#X connect 58 0 62 0;
#X connect 59 0 60 0;
#X connect 59 1 58 1;
#X connect 60 0 58 0;
#X connect 61 0 53 0;
#X connect 62 0 61 0;
#X connect 62 1 53 2;
#X connect 63 0 59 0;
#X connect 63 1 61 1;
#X connect 64 0 27 0;
#X connect 65 0 64 1;
#X connect 66 0 53 1;
#X connect 66 0 55 0;
#X connect 67 0 51 1;
#X connect 67 0 57 0;
#X connect 68 0 53 3;
#X connect 69 0 70 0;
#X connect 70 0 74 1;
#X connect 71 0 70 1;
#X connect 72 0 75 0;
#X connect 73 0 71 0;
#X connect 74 0 0 0;
#X connect 74 0 11 0;
#X connect 75 0 73 0;
#X restore 905 173 pd voice 1;
#X obj 1595 306 s \$0backone;
#X obj 1434 298 s \$0backtwo;
#X obj 497 682 s~ \$0tuneit;
#X obj 1770 476 s \$0fwone;
#X obj 2029 537 s~ \$0fwtwo;
#X text 2458 998 Aus wenn Länge verändert wird.;
#X obj 236 250 hsl 100 15 0 127 0 0 \$0speed_ctl \$0speed_ctl_r tune
38 7 0 10 -228856 -260097 -1 4950 1;
#X obj 340 251 nbx 4 14 -1e+37 1e+37 0 0 \$0speedshow_s \$0speedshow
empty 0 -8 0 11 -99865 -260097 -260097 1 256 0;
#X obj 281 266 bng 10 250 50 0 \$0nodet \$0nodet_r empty 17 7 0 10
-262144 -1 -1;
#X obj 258 270 tgl 15 0 \$0440on \$0440on_r 440-Hz -40 7 0 10 -228856
-260097 -262144 0 1;
#X obj 299 270 tgl 15 0 \$0GrinAon \$0GrinAon_r Keysa-A 19 7 0 10 -228856
-260097 -262144 0 1;
#X obj 457 127 vsl 15 50 0 127 0 0 \$0sus \$0sus_r Sustain -12 -9 0
10 -162280 -260097 -262144 2450 1;
#X obj 395 143 hsl 50 15 0 127 0 0 \$0att \$0att_r Attack 5 -8 0 10
-162280 -260097 -262144 4900 1;
#X obj 396 160 nbx 5 14 -1e+37 1e+37 0 0 empty \$0attshow empty 0 -8
0 11 -99865 -260097 -260097 20000 256 0;
#X obj 487 144 hsl 50 15 0 127 0 0 \$0rel \$0rel_r Release/Decay -10
-8 0 10 -162280 -260097 -262144 333 1;
#X obj 488 161 nbx 5 14 -1e+37 1e+37 0 0 empty \$0relshow empty 0 -8
0 11 -99865 -260097 -260097 1359.18 256 0;
#X obj 443 183 nbx 4 14 -1e+37 1e+37 0 0 empty \$0susshow empty 0 -8
0 11 -99865 -260097 -260097 0.5 256 0;
#X obj 920 332 outlet~;
#X obj 194 -226 inlet;
#X obj 194 -181 route stop;
#X obj 252 -154 s \$0notein;
#X obj 884 -182 r \$0notein;
#X obj 922 106 pack f f f;
#X obj 922 129 route 1 2 3 4;
#X obj 193 -117 s \$0stop;
#X obj 193 -151 bng 15 250 50 0 empty empty empty 17 7 0 10 -262144
-1 -1;
#X obj 1126 2 poly 4 1;
#X obj 779 256 osc~;
#X obj 780 304 *~;
#X obj 809 267 r \$0440on;
#X msg 779 225 440;
#X obj 779 194 loadbang;
#X obj 794 -252 r \$0GrinAon;
#X obj 795 -222 sel 0 1;
#X msg 811 -180 440 127;
#X msg 793 -147 440 0;
#X obj 462 425 / 1.27;
#X obj 456 449 moses 50;
#X floatatom 453 473 5 0 0 0 - - -, f 5;
#X floatatom 502 474 5 0 0 0 - - -, f 5;
#X obj 453 497 / 100;
#X obj 452 522 + 0.5;
#X obj 500 502 / 50;
#X obj 454 390 r \$0speed_ctl;
#X obj 602 383 r \$0nodet;
#X msg 602 418 63.5;
#X obj 603 461 s \$0speed_ctl_r;
#X obj 53 -497 s \$0att_r;
#X obj 63 -469 s \$0rel_r;
#X obj 76 -451 s \$0sus_r;
#X msg 63 -589 10;
#X msg 151 -560 63.5;
#X msg 115 -578 50.1;
#X msg -167 -607 63.5;
#X obj -227 -559 s \$0speed_ctl_r;
#X obj 516 -165 inlet;
#X obj 526 -155 inlet;
#X obj 351 -397 s \$0speed_ctl_r;
#X obj 1086 -556 r \$0speed_ctl;
#X obj 1153 -456 f;
#X obj 1225 -428 f;
#X obj 1362 -413 f;
#X obj 1230 -529 r \$0att;
#X obj 1256 -494 r \$0sus;
#X obj 1366 -451 r \$0rel;
#X obj 466 -370 s \$0att_r;
#X obj 496 -335 s \$0sus_r;
#X obj 511 -304 s \$0rel_r;
#X obj 929 270 *~ 1;
#X obj 802 288 * 1;
#X obj 981 -226 r \$0stop;
#X msg 977 -194 clear;
#N canvas 0 55 1366 690 voice 0;
#X obj 666 142 phasor~;
#X obj 959 -215 sig~;
#X obj 660 357 *~;
#X floatatom 957 -317 5 0 0 0 - - -, f 5;
#X obj 958 -254 /;
#X msg 958 -277 1;
#X obj 958 -296 t b f;
#X obj 714 -120 *~;
#X obj 662 434 +~;
#X obj 1332 829 outlet~;
#X obj 949 -343 r \$0durSoundnew;
#X obj 401 39 phasor~;
#X obj 400 84 +~ 1;
#X obj 400 61 *~ -1;
#X obj 491 288 *~;
#X obj 751 501 *~;
#X obj 586 248 r \$0back;
#X obj 600 296 abs;
#X obj 599 269 - 1;
#X obj 417 154 +~ 0;
#X obj 399 110 *~ 1;
#X obj 444 86 r \$0backone;
#X obj 445 122 r \$0backtwo;
#X obj 679 317 r \$0fwone;
#X obj 712 418 r~ \$0fwtwo;
#X text 1377 781 Hüllkurve;
#X obj 963 -152 *~;
#X obj 1020 -189 line~;
#X obj 1178 -320 inlet;
#X obj 1178 -292 unpack f f;
#X obj 1330 758 *~;
#X obj 1370 172 r \$0stop;
#X msg 1378 219 0;
#N canvas 507 15 450 300 tunedspeed 0;
#X msg 145 -2294 1;
#X obj 144 -2263 / 12;
#X floatatom 139 -2237 10 0 0 0 - - -, f 10;
#X obj 142 -2320 loadbang;
#X obj 94 -2167 pow;
#X msg 70 -2224 2;
#X floatatom 91 -2123 5 0 0 0 - - -, f 5;
#X floatatom 303 -2234 5 0 0 0 - - -, f 5;
#X obj 79 -2087 pow;
#X obj 174 -2085 t b f;
#X floatatom 68 -2043 5 0 0 0 - - -, f 5;
#X obj 78 -2261 del 1;
#X obj 144 -2049 outlet;
#X obj 318 -2272 inlet;
#X connect 0 0 1 0;
#X connect 1 0 2 0;
#X connect 2 0 4 1;
#X connect 3 0 0 0;
#X connect 3 0 11 0;
#X connect 4 0 6 0;
#X connect 5 0 4 0;
#X connect 6 0 8 0;
#X connect 7 0 9 0;
#X connect 8 0 10 0;
#X connect 9 0 8 0;
#X connect 9 1 8 1;
#X connect 10 0 12 0;
#X connect 11 0 5 0;
#X connect 13 0 7 0;
#X restore 1131 -177 pd tunedspeed;
#X obj 1178 -265 ftom;
#X obj 1182 -227 - 60;
#X obj 1618 121 bng 15 250 50 0 empty empty empty 17 7 0 10 -262144
-1 -1;
#X msg 521 21 0;
#X obj 1333 799 *~ 1;
#X obj 706 -166 r~ \$0tuneit;
#X obj 1064 655 tabread4~ \$0sample;
#N canvas 932 93 450 300 window 0;
#X obj 24 -335 expr~ tanh($v1*$v2);
#X obj 24 -357 cos~;
#X obj 24 -376 *~ 0.5;
#X obj 24 -397 -~ 0.5;
#X obj 135 -366 sig~ 2;
#X obj 23 -427 inlet~;
#X obj 23 -306 outlet~;
#X obj 135 -387 r \$0grainfade1;
#X obj 278 -411 loadbang;
#X msg 278 -368 15;
#X connect 0 0 6 0;
#X connect 1 0 0 0;
#X connect 2 0 1 0;
#X connect 3 0 2 0;
#X connect 4 0 0 1;
#X connect 5 0 3 0;
#X connect 7 0 4 0;
#X connect 8 0 9 0;
#X connect 9 0 4 0;
#X restore 1442 655 pd window;
#X obj 1326 718 *~;
#X obj 1188 73 r \$0att;
#X obj 1322 74 r \$0rel;
#X obj 1252 -108 r \$0sus;
#X obj 1252 -75 / 127;
#X obj 1252 342 vline~;
#X obj 1488 -96 moses 1;
#X floatatom 1489 -64 5 0 0 0 - - -, f 5;
#X floatatom 1542 -39 5 0 0 0 - - -, f 5;
#X obj 1296 242 pack f f;
#X obj 1541 -63 / 127;
#X obj 1184 190 pack f f f f;
#X msg 1166 236 \$1 \$2 \, \$3 \$4 \$2;
#X obj 1164 -28 s \$0susshow;
#X obj 1269 6 *;
#X obj 1285 -53 t b f;
#X obj 1255 -23 f;
#X obj 1150 160 f;
#X obj 1237 100 t b f;
#X obj 1521 -8 t f f;
#X obj 1041 -237 pack f f;
#X obj 1076 -265 r \$0glideshow;
#X obj 1188 106 * 157.48;
#X obj 1322 107 * 157.48;
#X obj 1280 154 * 39.3701;
#X obj 768 -127 r~ \$0fmsignal;
#X obj 770 -28 *~;
#X obj 824 -30 line~;
#X obj 824 -100 r \$0fm-int;
#X msg 824 -55 \$1 15;
#X obj 664 -23 +~;
#X obj 824 -78 / 1.27;
#X connect 0 0 2 0;
#X connect 0 0 41 0;
#X connect 1 0 26 0;
#X connect 2 0 8 0;
#X connect 3 0 6 0;
#X connect 4 0 1 0;
#X connect 5 0 4 0;
#X connect 6 0 5 0;
#X connect 6 1 4 1;
#X connect 7 0 72 0;
#X connect 8 0 15 0;
#X connect 10 0 3 0;
#X connect 11 0 13 0;
#X connect 12 0 20 0;
#X connect 13 0 12 0;
#X connect 14 0 40 0;
#X connect 15 0 40 0;
#X connect 16 0 14 1;
#X connect 16 0 18 0;
#X connect 17 0 15 1;
#X connect 18 0 17 0;
#X connect 19 0 14 0;
#X connect 20 0 19 0;
#X connect 21 0 20 1;
#X connect 22 0 19 1;
#X connect 23 0 2 1;
#X connect 24 0 8 1;
#X connect 26 0 7 0;
#X connect 27 0 26 1;
#X connect 28 0 29 0;
#X connect 29 0 34 0;
#X connect 29 1 48 0;
#X connect 30 0 38 0;
#X connect 31 0 32 0;
#X connect 32 0 51 0;
#X connect 33 0 62 0;
#X connect 34 0 35 0;
#X connect 35 0 33 0;
#X connect 36 0 37 0;
#X connect 37 0 11 1;
#X connect 37 0 0 1;
#X connect 38 0 9 0;
#X connect 39 0 7 1;
#X connect 40 0 42 0;
#X connect 41 0 42 1;
#X connect 42 0 30 0;
#X connect 43 0 64 0;
#X connect 44 0 65 0;
#X connect 44 0 66 0;
#X connect 45 0 46 0;
#X connect 46 0 55 0;
#X connect 46 0 58 1;
#X connect 47 0 30 1;
#X connect 48 0 49 0;
#X connect 48 1 52 0;
#X connect 48 1 36 0;
#X connect 49 0 51 0;
#X connect 50 0 61 0;
#X connect 51 0 47 0;
#X connect 52 0 50 0;
#X connect 53 0 54 0;
#X connect 54 0 47 0;
#X connect 56 0 60 0;
#X connect 57 0 58 0;
#X connect 57 1 56 1;
#X connect 58 0 56 0;
#X connect 59 0 53 0;
#X connect 60 0 59 0;
#X connect 60 1 53 2;
#X connect 61 0 57 0;
#X connect 61 1 59 1;
#X connect 62 0 27 0;
#X connect 63 0 62 1;
#X connect 64 0 53 1;
#X connect 65 0 51 1;
#X connect 66 0 53 3;
#X connect 67 0 68 0;
#X connect 68 0 72 1;
#X connect 69 0 68 1;
#X connect 70 0 73 0;
#X connect 71 0 69 0;
#X connect 72 0 0 0;
#X connect 72 0 11 0;
#X connect 73 0 71 0;
#X restore 952 200 pd voice 1;
#N canvas 0 55 1366 690 voice 0;
#X obj 666 142 phasor~;
#X obj 959 -215 sig~;
#X obj 660 357 *~;
#X floatatom 957 -317 5 0 0 0 - - -, f 5;
#X obj 958 -254 /;
#X msg 958 -277 1;
#X obj 958 -296 t b f;
#X obj 714 -120 *~;
#X obj 662 434 +~;
#X obj 1332 829 outlet~;
#X obj 949 -343 r \$0durSoundnew;
#X obj 401 39 phasor~;
#X obj 400 84 +~ 1;
#X obj 400 61 *~ -1;
#X obj 491 288 *~;
#X obj 660 395 *~;
#X obj 586 248 r \$0back;
#X obj 600 296 abs;
#X obj 599 269 - 1;
#X obj 417 154 +~ 0;
#X obj 399 110 *~ 1;
#X obj 444 86 r \$0backone;
#X obj 445 122 r \$0backtwo;
#X obj 679 317 r \$0fwone;
#X obj 712 418 r~ \$0fwtwo;
#X text 1377 781 Hüllkurve;
#X obj 963 -152 *~;
#X obj 1020 -189 line~;
#X obj 1178 -320 inlet;
#X obj 1178 -292 unpack f f;
#X obj 1330 758 *~;
#X obj 1370 172 r \$0stop;
#X msg 1378 219 0;
#N canvas 507 15 450 300 tunedspeed 0;
#X msg 145 -2294 1;
#X obj 144 -2263 / 12;
#X floatatom 139 -2237 10 0 0 0 - - -, f 10;
#X obj 142 -2320 loadbang;
#X obj 94 -2167 pow;
#X msg 70 -2224 2;
#X floatatom 91 -2123 5 0 0 0 - - -, f 5;
#X floatatom 303 -2234 5 0 0 0 - - -, f 5;
#X obj 79 -2087 pow;
#X obj 174 -2085 t b f;
#X floatatom 68 -2043 5 0 0 0 - - -, f 5;
#X obj 78 -2261 del 1;
#X obj 144 -2049 outlet;
#X obj 318 -2272 inlet;
#X connect 0 0 1 0;
#X connect 1 0 2 0;
#X connect 2 0 4 1;
#X connect 3 0 0 0;
#X connect 3 0 11 0;
#X connect 4 0 6 0;
#X connect 5 0 4 0;
#X connect 6 0 8 0;
#X connect 7 0 9 0;
#X connect 8 0 10 0;
#X connect 9 0 8 0;
#X connect 9 1 8 1;
#X connect 10 0 12 0;
#X connect 11 0 5 0;
#X connect 13 0 7 0;
#X restore 1131 -177 pd tunedspeed;
#X obj 1178 -265 ftom;
#X obj 1182 -227 - 60;
#X obj 1618 121 bng 15 250 50 0 empty empty empty 17 7 0 10 -262144
-1 -1;
#X msg 535 -23 0;
#X obj 1333 799 *~ 1;
#X obj 706 -166 r~ \$0tuneit;
#X obj 1064 655 tabread4~ \$0sample;
#N canvas 932 93 450 300 window 0;
#X obj 24 -335 expr~ tanh($v1*$v2);
#X obj 24 -357 cos~;
#X obj 24 -376 *~ 0.5;
#X obj 24 -397 -~ 0.5;
#X obj 135 -366 sig~ 2;
#X obj 23 -427 inlet~;
#X obj 23 -306 outlet~;
#X obj 135 -387 r \$0grainfade1;
#X obj 278 -411 loadbang;
#X msg 278 -368 15;
#X connect 0 0 6 0;
#X connect 1 0 0 0;
#X connect 2 0 1 0;
#X connect 3 0 2 0;
#X connect 4 0 0 1;
#X connect 5 0 3 0;
#X connect 7 0 4 0;
#X connect 8 0 9 0;
#X connect 9 0 4 0;
#X restore 1442 655 pd window;
#X obj 1326 718 *~;
#X obj 1188 73 r \$0att;
#X obj 1322 74 r \$0rel;
#X obj 1252 -108 r \$0sus;
#X obj 1252 -75 / 127;
#X obj 1252 342 vline~;
#X obj 1488 -96 moses 1;
#X floatatom 1489 -64 5 0 0 0 - - -, f 5;
#X floatatom 1542 -39 5 0 0 0 - - -, f 5;
#X obj 1296 242 pack f f;
#X obj 1541 -63 / 127;
#X obj 1184 190 pack f f f f;
#X msg 1166 236 \$1 \$2 \, \$3 \$4 \$2;
#X obj 1164 -28 s \$0susshow;
#X obj 1269 6 *;
#X obj 1285 -53 t b f;
#X obj 1255 -23 f;
#X obj 1150 160 f;
#X obj 1237 100 t b f;
#X obj 1521 -8 t f f;
#X obj 1043 -233 pack f f;
#X obj 1078 -261 r \$0glideshow;
#X obj 1188 106 * 157.48;
#X obj 1322 107 * 157.48;
#X obj 1273 163 * 39.3701;
#X obj 772 -124 r~ \$0fmsignal;
#X obj 774 -25 *~;
#X obj 828 -27 line~;
#X obj 828 -97 r \$0fm-int;
#X msg 828 -52 \$1 15;
#X obj 697 10 +~;
#X obj 828 -75 / 1.27;
#X connect 0 0 2 0;
#X connect 0 0 41 0;
#X connect 1 0 26 0;
#X connect 2 0 15 0;
#X connect 3 0 6 0;
#X connect 4 0 1 0;
#X connect 5 0 4 0;
#X connect 6 0 5 0;
#X connect 6 1 4 1;
#X connect 7 0 72 0;
#X connect 8 0 40 0;
#X connect 10 0 3 0;
#X connect 11 0 13 0;
#X connect 12 0 20 0;
#X connect 13 0 12 0;
#X connect 14 0 40 0;
#X connect 15 0 8 0;
#X connect 16 0 14 1;
#X connect 16 0 18 0;
#X connect 17 0 15 1;
#X connect 18 0 17 0;
#X connect 19 0 14 0;
#X connect 20 0 19 0;
#X connect 21 0 20 1;
#X connect 22 0 19 1;
#X connect 23 0 2 1;
#X connect 24 0 8 1;
#X connect 26 0 7 0;
#X connect 27 0 26 1;
#X connect 28 0 29 0;
#X connect 29 0 34 0;
#X connect 29 1 48 0;
#X connect 30 0 38 0;
#X connect 31 0 32 0;
#X connect 32 0 51 0;
#X connect 33 0 62 0;
#X connect 34 0 35 0;
#X connect 35 0 33 0;
#X connect 36 0 37 0;
#X connect 37 0 11 1;
#X connect 37 0 0 1;
#X connect 38 0 9 0;
#X connect 39 0 7 1;
#X connect 40 0 42 0;
#X connect 41 0 42 1;
#X connect 42 0 30 0;
#X connect 43 0 64 0;
#X connect 44 0 65 0;
#X connect 44 0 66 0;
#X connect 45 0 46 0;
#X connect 46 0 55 0;
#X connect 46 0 58 1;
#X connect 47 0 30 1;
#X connect 48 0 49 0;
#X connect 48 1 52 0;
#X connect 48 1 36 0;
#X connect 49 0 51 0;
#X connect 50 0 61 0;
#X connect 51 0 47 0;
#X connect 52 0 50 0;
#X connect 53 0 54 0;
#X connect 54 0 47 0;
#X connect 56 0 60 0;
#X connect 57 0 58 0;
#X connect 57 1 56 1;
#X connect 58 0 56 0;
#X connect 59 0 53 0;
#X connect 60 0 59 0;
#X connect 60 1 53 2;
#X connect 61 0 57 0;
#X connect 61 1 59 1;
#X connect 62 0 27 0;
#X connect 63 0 62 1;
#X connect 64 0 53 1;
#X connect 65 0 51 1;
#X connect 66 0 53 3;
#X connect 67 0 68 0;
#X connect 68 0 72 1;
#X connect 69 0 68 1;
#X connect 70 0 73 0;
#X connect 71 0 69 0;
#X connect 72 0 0 0;
#X connect 72 0 11 0;
#X connect 73 0 71 0;
#X restore 986 223 pd voice 1;
#N canvas 0 55 1366 690 voice 0;
#X obj 666 142 phasor~;
#X obj 959 -215 sig~;
#X obj 660 357 *~;
#X floatatom 957 -317 5 0 0 0 - - -, f 5;
#X obj 958 -254 /;
#X msg 958 -277 1;
#X obj 958 -296 t b f;
#X obj 714 -120 *~;
#X obj 662 434 +~;
#X obj 1332 829 outlet~;
#X obj 949 -343 r \$0durSoundnew;
#X obj 401 39 phasor~;
#X obj 400 84 +~ 1;
#X obj 400 61 *~ -1;
#X obj 491 288 *~;
#X obj 729 502 *~;
#X obj 586 248 r \$0back;
#X obj 600 296 abs;
#X obj 599 269 - 1;
#X obj 417 154 +~ 0;
#X obj 399 110 *~ 1;
#X obj 444 86 r \$0backone;
#X obj 445 122 r \$0backtwo;
#X obj 679 317 r \$0fwone;
#X obj 712 418 r~ \$0fwtwo;
#X text 1377 781 Hüllkurve;
#X obj 963 -152 *~;
#X obj 1020 -189 line~;
#X obj 1178 -320 inlet;
#X obj 1178 -292 unpack f f;
#X obj 1330 758 *~;
#X obj 1370 172 r \$0stop;
#X msg 1378 219 0;
#N canvas 507 15 450 300 tunedspeed 0;
#X msg 145 -2294 1;
#X obj 144 -2263 / 12;
#X floatatom 139 -2237 10 0 0 0 - - -, f 10;
#X obj 142 -2320 loadbang;
#X obj 94 -2167 pow;
#X msg 70 -2224 2;
#X floatatom 91 -2123 5 0 0 0 - - -, f 5;
#X floatatom 303 -2234 5 0 0 0 - - -, f 5;
#X obj 79 -2087 pow;
#X obj 174 -2085 t b f;
#X floatatom 68 -2043 5 0 0 0 - - -, f 5;
#X obj 78 -2261 del 1;
#X obj 144 -2049 outlet;
#X obj 318 -2272 inlet;
#X connect 0 0 1 0;
#X connect 1 0 2 0;
#X connect 2 0 4 1;
#X connect 3 0 0 0;
#X connect 3 0 11 0;
#X connect 4 0 6 0;
#X connect 5 0 4 0;
#X connect 6 0 8 0;
#X connect 7 0 9 0;
#X connect 8 0 10 0;
#X connect 9 0 8 0;
#X connect 9 1 8 1;
#X connect 10 0 12 0;
#X connect 11 0 5 0;
#X connect 13 0 7 0;
#X restore 1131 -177 pd tunedspeed;
#X obj 1178 -265 ftom;
#X obj 1182 -227 - 60;
#X obj 1618 121 bng 15 250 50 0 empty empty empty 17 7 0 10 -262144
-1 -1;
#X msg 521 21 0;
#X obj 1333 799 *~ 1;
#X obj 706 -166 r~ \$0tuneit;
#X obj 1064 655 tabread4~ \$0sample;
#N canvas 932 93 450 300 window 0;
#X obj 24 -335 expr~ tanh($v1*$v2);
#X obj 24 -357 cos~;
#X obj 24 -376 *~ 0.5;
#X obj 24 -397 -~ 0.5;
#X obj 135 -366 sig~ 2;
#X obj 23 -427 inlet~;
#X obj 23 -306 outlet~;
#X obj 135 -387 r \$0grainfade1;
#X obj 278 -411 loadbang;
#X msg 278 -368 15;
#X connect 0 0 6 0;
#X connect 1 0 0 0;
#X connect 2 0 1 0;
#X connect 3 0 2 0;
#X connect 4 0 0 1;
#X connect 5 0 3 0;
#X connect 7 0 4 0;
#X connect 8 0 9 0;
#X connect 9 0 4 0;
#X restore 1442 655 pd window;
#X obj 1326 718 *~;
#X obj 1188 73 r \$0att;
#X obj 1322 74 r \$0rel;
#X obj 1252 -108 r \$0sus;
#X obj 1252 -75 / 127;
#X obj 1252 342 vline~;
#X obj 1488 -96 moses 1;
#X floatatom 1489 -64 5 0 0 0 - - -, f 5;
#X floatatom 1542 -39 5 0 0 0 - - -, f 5;
#X obj 1296 242 pack f f;
#X obj 1541 -63 / 127;
#X obj 1184 190 pack f f f f;
#X msg 1166 236 \$1 \$2 \, \$3 \$4 \$2;
#X obj 1164 -28 s \$0susshow;
#X obj 1269 6 *;
#X obj 1285 -53 t b f;
#X obj 1255 -23 f;
#X obj 1150 160 f;
#X obj 1237 100 t b f;
#X obj 1521 -8 t f f;
#X obj 1016 -220 pack f f;
#X obj 1051 -248 r \$0glideshow;
#X obj 1188 106 * 157.48;
#X obj 1322 107 * 157.48;
#X obj 1282 161 * 39.3701;
#X obj 751 -120 r~ \$0fmsignal;
#X obj 753 -21 *~;
#X obj 807 -23 line~;
#X obj 807 -93 r \$0fm-int;
#X msg 807 -48 \$1 15;
#X obj 661 -22 +~;
#X obj 807 -71 / 1.27;
#X connect 0 0 2 0;
#X connect 0 0 41 0;
#X connect 1 0 26 0;
#X connect 2 0 8 0;
#X connect 3 0 6 0;
#X connect 4 0 1 0;
#X connect 5 0 4 0;
#X connect 6 0 5 0;
#X connect 6 1 4 1;
#X connect 7 0 72 0;
#X connect 8 0 15 0;
#X connect 10 0 3 0;
#X connect 11 0 13 0;
#X connect 12 0 20 0;
#X connect 13 0 12 0;
#X connect 14 0 40 0;
#X connect 15 0 40 0;
#X connect 16 0 14 1;
#X connect 16 0 18 0;
#X connect 17 0 15 1;
#X connect 18 0 17 0;
#X connect 19 0 14 0;
#X connect 20 0 19 0;
#X connect 21 0 20 1;
#X connect 22 0 19 1;
#X connect 23 0 2 1;
#X connect 24 0 8 1;
#X connect 26 0 7 0;
#X connect 27 0 26 1;
#X connect 28 0 29 0;
#X connect 29 0 34 0;
#X connect 29 1 48 0;
#X connect 30 0 38 0;
#X connect 31 0 32 0;
#X connect 32 0 51 0;
#X connect 33 0 62 0;
#X connect 34 0 35 0;
#X connect 35 0 33 0;
#X connect 36 0 37 0;
#X connect 37 0 11 1;
#X connect 37 0 0 1;
#X connect 38 0 9 0;
#X connect 39 0 7 1;
#X connect 40 0 42 0;
#X connect 41 0 42 1;
#X connect 42 0 30 0;
#X connect 43 0 64 0;
#X connect 44 0 65 0;
#X connect 44 0 66 0;
#X connect 45 0 46 0;
#X connect 46 0 55 0;
#X connect 46 0 58 1;
#X connect 47 0 30 1;
#X connect 48 0 49 0;
#X connect 48 1 52 0;
#X connect 48 1 36 0;
#X connect 49 0 51 0;
#X connect 50 0 61 0;
#X connect 51 0 47 0;
#X connect 52 0 50 0;
#X connect 53 0 54 0;
#X connect 54 0 47 0;
#X connect 56 0 60 0;
#X connect 57 0 58 0;
#X connect 57 1 56 1;
#X connect 58 0 56 0;
#X connect 59 0 53 0;
#X connect 60 0 59 0;
#X connect 60 1 53 2;
#X connect 61 0 57 0;
#X connect 61 1 59 1;
#X connect 62 0 27 0;
#X connect 63 0 62 1;
#X connect 64 0 53 1;
#X connect 65 0 51 1;
#X connect 66 0 53 3;
#X connect 67 0 68 0;
#X connect 68 0 72 1;
#X connect 69 0 68 1;
#X connect 70 0 73 0;
#X connect 71 0 69 0;
#X connect 72 0 0 0;
#X connect 72 0 11 0;
#X connect 73 0 71 0;
#X restore 1015 256 pd voice 1;
#X obj 733 -113 inlet;
#X obj 839 -119 list;
#X obj 535 266 tgl 15 0 \$0monopoly \$0monopoly_r mono/poly -56 7 0
10 -191407 -260097 -262144 1 1;
#X obj 487 210 hsl 50 15 0 127 0 0 \$0glide \$0glide_r Glide 10 7 0
10 -162280 -260097 -262144 0 1;
#X obj 488 227 nbx 4 14 -1e+37 1e+37 0 0 \$0glideshow_s \$0glideshow
empty 0 -8 0 11 -99865 -260097 -260097 0 256 0;
#X obj 1050 2 poly 1 1;
#X obj 1051 -37 spigot;
#X obj 1110 -30 spigot;
#X obj 1091 -194 r \$0monopoly;
#X msg 1048 -131 1;
#X obj 1067 -163 sel 1;
#X obj 1115 -164 sel 0;
#X msg 1083 -134 0;
#X msg 1118 -135 1;
#X msg 1153 -138 0;
#X obj 1476 -390 r \$0monopoly;
#X obj 1434 -339 f;
#X obj 781 366 r \$0glide;
#X obj 782 391 / 1.27;
#X obj 780 418 pow 1.5;
#X obj 779 450 s \$0glideshow;
#X msg -278 -627 0;
#X obj -278 -603 s \$0glide_r;
#X obj -352 -699 s \$0monopoly_r;
#X msg -353 -725 1;
#X obj 563 -264 s \$0monopoly_r;
#X obj 591 -290 s \$0glide_r;
#X obj 1524 -356 r \$0glide;
#X obj 1488 -300 f;
#X obj 704 -487 symbol keysadrone;
#X obj 353 -605 route keysadrone;
#X obj 428 -167 inlet~;
#X obj 429 -133 s~ \$0fmsignal;
#X obj 186 108 vsl 15 30 0 127 0 0 \$0fm-int \$0fm-int_r FM-int -10
42 0 10 -162280 -260097 -262144 191 1;
#X obj 649 -160 inlet;
#X obj -572 858 soundfiler;
#X obj -575 674 openpanel;
#X obj -575 602 getdir;
#X msg -575 629 symbol \$1;
#X obj -577 571 bng 15 250 50 0 empty \$0read empty 17 7 0 10 -262144
-1 -1;
#X obj -568 771 zl join;
#X obj -488 783 \$0;
#X msg -487 810 \$1sample;
#X obj -488 767 bng 15 250 50 0 empty empty empty 17 7 0 10 -262144
-1 -1;
#X obj -533 985 / 44100;
#X obj -552 1016 s \$0lenSound;
#X obj -532 1046 s \$0durSound;
#X obj -722 972 \$0;
#X msg -723 1014 \; \$1sample normalize;
#X obj -776 499 bng 15 250 50 0 empty \$0write empty 17 7 0 10 -262144
-1 -1;
#X obj -778 546 getdir;
#X msg -778 573 symbol \$1;
#X obj -780 786 zl join;
#X obj -691 708 \$0;
#X msg -690 735 \$1sample;
#X obj -692 679 bng 15 250 50 0 empty empty empty 17 7 0 10 -262144
-1 -1;
#X msg -778 653 write -wave -normalize \$1;
#X obj -778 823 soundfiler;
#X obj -778 618 savepanel;
#X obj -366 728 s \$0filename;
#X obj -506 661 r \$0filename_r;
#X obj -581 1074 s \$0loaded;
#X obj -579 946 t b b f f;
#X obj -497 901 sel 0;
#X msg -429 954 \; \$1sample const 0;
#X obj -433 926 \$0;
#X obj -505 700 t s b;
#X msg -574 730 read -resize -maxsize 1e+08 \$1;
#X msg -360 692 symbol \$1;
#X obj -646 328 r toolsdirectory;
#X obj -589 404 \$1;
#X obj -588 431 ftos;
#X obj -634 475 pack s s;
#X obj -589 379 loadbang;
#X obj -630 537 t s b;
#X msg -604 506 symbol \$1Keysadrone\$2Sample.wav;
#X obj 1530 -267 f;
#X obj 1544 -306 r \$0fm-int;
#X obj 869 -637 t b f b b b b b b b b b b b;
#X obj 816 -311 pack s f f f f f f f f f f f s;
#X obj 577 -341 s \$0fm-int;
#X obj 352 -539 list split 10;
#X obj 357 -501 unpack f f f f f f f f f f;
#X connect 8 0 31 0;
#X connect 9 0 158 0;
#X connect 10 0 9 0;
#X connect 11 0 160 0;
#X connect 12 0 11 0;
#X connect 13 0 61 0;
#X connect 14 0 18 0;
#X connect 15 0 14 1;
#X connect 16 0 17 0;
#X connect 17 0 88 0;
#X connect 17 0 159 0;
#X connect 18 0 16 0;
#X connect 18 1 17 1;
#X connect 18 2 12 0;
#X connect 19 0 14 0;
#X connect 20 0 57 0;
#X connect 22 0 26 0;
#X connect 23 0 26 0;
#X connect 24 0 25 0;
#X connect 25 0 22 0;
#X connect 25 0 60 0;
#X connect 26 0 21 0;
#X connect 27 0 16 0;
#X connect 28 0 63 0;
#X connect 29 0 30 0;
#X connect 30 0 31 0;
#X connect 30 1 27 1;
#X connect 31 0 27 0;
#X connect 32 0 34 0;
#X connect 34 0 33 0;
#X connect 35 0 53 0;
#X connect 35 0 54 0;
#X connect 35 0 91 0;
#X connect 35 0 206 0;
#X connect 35 0 208 0;
#X connect 35 0 207 0;
#X connect 35 0 209 0;
#X connect 35 0 252 0;
#X connect 35 0 255 0;
#X connect 37 0 261 0;
#X connect 38 0 47 0;
#X connect 39 0 310 3;
#X connect 40 0 310 2;
#X connect 42 0 309 0;
#X connect 43 0 312 0;
#X connect 44 0 46 0;
#X connect 45 0 42 1;
#X connect 45 0 43 1;
#X connect 45 0 47 1;
#X connect 46 0 45 0;
#X connect 47 0 42 0;
#X connect 48 0 310 4;
#X connect 51 0 40 1;
#X connect 52 0 39 1;
#X connect 53 0 56 0;
#X connect 53 0 139 0;
#X connect 54 0 55 0;
#X connect 54 0 140 0;
#X connect 58 0 24 0;
#X connect 59 0 24 0;
#X connect 60 0 23 0;
#X connect 61 0 19 0;
#X connect 62 0 61 0;
#X connect 62 0 63 0;
#X connect 63 0 29 0;
#X connect 65 0 66 0;
#X connect 68 0 70 0;
#X connect 69 0 71 0;
#X connect 70 0 69 0;
#X connect 72 0 73 0;
#X connect 74 0 75 0;
#X connect 74 0 141 0;
#X connect 75 0 129 0;
#X connect 76 0 75 0;
#X connect 76 1 129 1;
#X connect 77 0 72 0;
#X connect 78 0 20 0;
#X connect 79 0 89 0;
#X connect 80 0 81 0;
#X connect 81 0 78 1;
#X connect 82 0 90 0;
#X connect 83 0 84 0;
#X connect 84 0 85 0;
#X connect 85 0 77 0;
#X connect 86 0 87 0;
#X connect 87 0 88 0;
#X connect 88 0 78 0;
#X connect 89 0 86 0;
#X connect 89 1 80 0;
#X connect 90 0 83 0;
#X connect 90 1 77 1;
#X connect 91 0 92 0;
#X connect 93 0 97 1;
#X connect 94 0 98 1;
#X connect 97 0 310 5;
#X connect 98 0 310 12;
#X connect 99 0 96 0;
#X connect 99 0 152 0;
#X connect 102 0 107 0;
#X connect 102 0 137 0;
#X connect 103 0 104 0;
#X connect 103 0 138 0;
#X connect 104 0 101 0;
#X connect 105 0 104 2;
#X connect 106 0 105 0;
#X connect 106 0 108 0;
#X connect 107 0 100 0;
#X connect 108 0 107 1;
#X connect 109 0 112 1;
#X connect 110 0 111 0;
#X connect 111 0 109 1;
#X connect 112 0 114 0;
#X connect 113 0 121 0;
#X connect 115 0 110 0;
#X connect 115 0 113 0;
#X connect 116 0 117 0;
#X connect 116 1 120 1;
#X connect 117 0 120 0;
#X connect 118 0 117 0;
#X connect 118 0 109 0;
#X connect 119 0 116 0;
#X connect 120 0 115 0;
#X connect 121 0 112 0;
#X connect 122 0 125 0;
#X connect 123 0 122 0;
#X connect 124 0 122 1;
#X connect 125 0 127 0;
#X connect 127 0 126 0;
#X connect 129 0 144 0;
#X connect 130 0 133 0;
#X connect 131 0 76 0;
#X connect 132 0 133 0;
#X connect 132 0 136 0;
#X connect 133 0 131 0;
#X connect 134 0 136 0;
#X connect 135 0 142 0;
#X connect 136 0 135 0;
#X connect 137 0 104 1;
#X connect 138 0 107 2;
#X connect 141 0 143 0;
#X connect 142 0 141 0;
#X connect 142 1 143 1;
#X connect 143 0 145 0;
#X connect 143 0 157 0;
#X connect 144 0 85 0;
#X connect 144 0 156 0;
#X connect 145 0 146 0;
#X connect 146 0 75 0;
#X connect 146 1 144 1;
#X connect 147 0 128 0;
#X connect 148 0 168 0;
#X connect 149 0 5 0;
#X connect 150 0 4 0;
#X connect 151 0 1 0;
#X connect 153 0 154 0;
#X connect 155 0 224 0;
#X connect 174 0 175 0;
#X connect 175 0 181 0;
#X connect 175 1 176 0;
#X connect 177 0 237 0;
#X connect 177 0 238 0;
#X connect 178 0 179 0;
#X connect 179 0 155 0;
#X connect 179 1 228 0;
#X connect 179 2 229 0;
#X connect 179 3 230 0;
#X connect 181 0 180 0;
#X connect 182 0 178 0;
#X connect 182 1 178 1;
#X connect 182 2 178 2;
#X connect 183 0 184 0;
#X connect 184 0 173 0;
#X connect 185 0 225 0;
#X connect 186 0 183 0;
#X connect 187 0 186 0;
#X connect 188 0 189 0;
#X connect 189 0 191 0;
#X connect 189 1 190 0;
#X connect 190 0 232 0;
#X connect 191 0 181 0;
#X connect 191 0 232 0;
#X connect 192 0 193 0;
#X connect 193 0 194 0;
#X connect 193 1 195 0;
#X connect 194 0 196 0;
#X connect 195 0 198 0;
#X connect 196 0 197 0;
#X connect 197 0 10 0;
#X connect 197 0 36 0;
#X connect 198 0 10 0;
#X connect 198 0 36 0;
#X connect 199 0 192 0;
#X connect 200 0 201 0;
#X connect 201 0 202 0;
#X connect 206 0 203 0;
#X connect 207 0 205 0;
#X connect 208 0 204 0;
#X connect 209 0 210 0;
#X connect 211 0 167 0;
#X connect 212 0 170 0;
#X connect 214 0 48 1;
#X connect 215 0 310 6;
#X connect 216 0 310 7;
#X connect 217 0 310 8;
#X connect 218 0 215 1;
#X connect 219 0 216 1;
#X connect 220 0 217 1;
#X connect 224 0 173 0;
#X connect 225 0 184 1;
#X connect 226 0 227 0;
#X connect 227 0 237 0;
#X connect 227 0 238 0;
#X connect 228 0 224 0;
#X connect 229 0 224 0;
#X connect 230 0 224 0;
#X connect 231 0 162 0;
#X connect 232 0 237 0;
#X connect 232 0 238 0;
#X connect 236 0 178 0;
#X connect 236 1 178 1;
#X connect 236 2 178 2;
#X connect 237 0 236 0;
#X connect 238 0 182 0;
#X connect 239 0 241 0;
#X connect 239 0 242 0;
#X connect 240 0 238 1;
#X connect 241 0 240 0;
#X connect 241 0 243 0;
#X connect 242 0 244 0;
#X connect 242 0 245 0;
#X connect 243 0 237 1;
#X connect 244 0 237 1;
#X connect 245 0 238 1;
#X connect 246 0 247 1;
#X connect 247 0 310 9;
#X connect 248 0 249 0;
#X connect 249 0 250 0;
#X connect 250 0 251 0;
#X connect 252 0 253 0;
#X connect 255 0 254 0;
#X connect 258 0 259 1;
#X connect 259 0 310 10;
#X connect 260 0 310 0;
#X connect 261 0 43 0;
#X connect 262 0 263 0;
#X connect 265 0 264 0;
#X connect 266 0 293 0;
#X connect 266 0 294 0;
#X connect 267 0 298 0;
#X connect 267 0 290 0;
#X connect 268 0 269 0;
#X connect 269 0 267 0;
#X connect 270 0 268 0;
#X connect 270 0 274 0;
#X connect 271 0 266 0;
#X connect 272 0 273 0;
#X connect 273 0 271 1;
#X connect 274 0 272 0;
#X connect 275 0 277 0;
#X connect 278 0 279 0;
#X connect 280 0 281 0;
#X connect 280 0 286 0;
#X connect 281 0 282 0;
#X connect 282 0 289 0;
#X connect 283 0 288 0;
#X connect 284 0 285 0;
#X connect 285 0 283 1;
#X connect 286 0 284 0;
#X connect 287 0 283 0;
#X connect 289 0 287 0;
#X connect 289 0 299 0;
#X connect 291 0 297 0;
#X connect 293 0 292 0;
#X connect 293 1 278 0;
#X connect 293 2 276 0;
#X connect 293 3 275 0;
#X connect 294 0 296 0;
#X connect 296 0 295 0;
#X connect 297 0 298 0;
#X connect 297 1 274 0;
#X connect 298 0 271 0;
#X connect 299 0 290 0;
#X connect 300 0 303 0;
#X connect 301 0 302 0;
#X connect 302 0 303 1;
#X connect 303 0 306 0;
#X connect 304 0 301 0;
#X connect 305 0 287 0;
#X connect 305 1 286 0;
#X connect 306 0 305 0;
#X connect 306 0 299 0;
#X connect 307 0 310 11;
#X connect 308 0 307 1;
#X connect 309 0 260 0;
#X connect 309 1 310 1;
#X connect 309 2 40 0;
#X connect 309 3 39 0;
#X connect 309 4 48 0;
#X connect 309 5 97 0;
#X connect 309 6 215 0;
#X connect 309 7 216 0;
#X connect 309 8 217 0;
#X connect 309 9 247 0;
#X connect 309 10 259 0;
#X connect 309 11 307 0;
#X connect 309 12 98 0;
#X connect 310 0 41 0;
#X connect 312 0 313 0;
#X connect 312 1 99 0;
#X connect 313 0 49 0;
#X connect 313 1 50 0;
#X connect 313 2 213 0;
#X connect 313 3 95 0;
#X connect 313 4 221 0;
#X connect 313 5 222 0;
#X connect 313 6 223 0;
#X connect 313 7 256 0;
#X connect 313 8 257 0;
#X connect 313 9 311 0;
#X coords 0 -1 1 1 459 191 1 100 100;
