#N canvas 0 51 1600 826 10;
#X obj 163 162 cnv 15 210 156 empty empty makeykeys 12 11 0 24 -33289
-262144 0;
#X obj 765 551 route 1 0;
#X obj 802 470 keyup;
#X obj 736 468 key;
#X msg 711 502 1 \$1;
#X msg 798 495 0 \$1;
#X obj 564 580 sel 97 119 115 100 102 103;
#X obj 562 625 onebang;
#X obj 587 654 onebang;
#X obj 616 625 onebang;
#X obj 641 654 onebang;
#X obj 670 625 onebang;
#X obj 695 654 onebang;
#X obj 936 522 sel 97 119 115 100 102 103;
#X obj 560 697 bng 15 250 50 0 empty empty empty 17 7 0 10 -262144
-1 -1;
#X obj 586 699 bng 15 250 50 0 empty empty empty 17 7 0 10 -262144
-1 -1;
#X obj 613 697 bng 15 250 50 0 empty empty empty 17 7 0 10 -262144
-1 -1;
#X obj 638 697 bng 15 250 50 0 empty empty empty 17 7 0 10 -262144
-1 -1;
#X obj 665 697 bng 15 250 50 0 empty empty empty 17 7 0 10 -262144
-1 -1;
#X obj 695 696 bng 15 250 50 0 empty empty empty 17 7 0 10 -262144
-1 -1;
#X obj 572 513 loadbang;
#X obj 620 793 gate 2;
#X msg 758 902 0;
#X msg 799 901 2;
#X msg 840 904 4;
#X msg 879 904 7;
#X msg 932 902 9;
#X msg 557 725 1;
#X msg 591 727 2;
#X msg 623 725 3;
#X msg 656 725 4;
#X msg 689 724 5;
#X msg 719 723 6;
#X msg 381 900 0;
#X msg 502 902 7;
#X obj 181 205 vsl 20 70 0 127 0 0 \$0base \$0base_r empty 0 -9 0 10
-162280 -260097 -1 0 1;
#X symbolatom 204 226 3 0 0 0 - #0AddShowTone #0AddShowTone_s, f 3
;
#X msg 91 1549 symbol C;
#X msg 154 1592 symbol D;
#X msg 214 1637 symbol E;
#X msg 241 1659 symbol F;
#X msg 118 1571 symbol C#;
#X msg 181 1614 symbol D#;
#X msg 277 1680 symbol F#;
#X msg 304 1700 symbol G;
#X msg 315 1731 symbol G#;
#X msg 348 1753 symbol A;
#X msg 375 1775 symbol A#;
#X msg 411 1796 symbol H;
#X obj 250 1512 sel 0 1 2 3 4 5 6 7 8 9 10 11;
#X obj 107 1811 s \$0AddShowTone;
#X obj 263 1419 / 127;
#X obj 260 1467 int;
#X obj 260 1444 * 11;
#X obj 211 1376 r \$0base;
#X obj 688 1055 + 48;
#X floatatom 687 1086 5 0 0 0 - - -, f 5;
#X obj 204 249 vradio 15 0 0 2 \$0gender \$0gender_r empty 0 -8 0 10
-162280 -260097 -1 0;
#X obj 922 696 r \$0gender;
#X obj 186 728 f;
#X obj 99 724 f;
#X obj 186 813 + 12;
#X obj 99 819 - 12;
#X obj 251 793 loadbang;
#X floatatom 99 778 5 0 0 0 - - -, f 5;
#X floatatom 186 774 5 0 0 0 - - -, f 5;
#X floatatom 146 863 5 0 0 0 - - -, f 5;
#X obj 146 917 change;
#X obj 114 697 r \$0oct;
#X obj 201 701 r \$0oct;
#X obj 298 234 bng 20 250 50 0 empty empty > 6 6 0 14 -162280 -260097
-262144;
#X obj 272 234 bng 20 250 50 0 empty empty < 5 7 0 14 -162280 -260097
-262144;
#X floatatom 149 943 5 0 0 0 - - -, f 5;
#X obj 150 976 s \$0oct;
#X msg 696 1196 \$1 127;
#X obj 693 1129 + 0;
#X obj 1109 724 bng 15 250 50 0 empty empty empty 17 7 0 10 -262144
-1 -1;
#X obj 1135 726 bng 15 250 50 0 empty empty empty 17 7 0 10 -262144
-1 -1;
#X obj 1162 724 bng 15 250 50 0 empty empty empty 17 7 0 10 -262144
-1 -1;
#X obj 1187 724 bng 15 250 50 0 empty empty empty 17 7 0 10 -262144
-1 -1;
#X obj 1214 724 bng 15 250 50 0 empty empty empty 17 7 0 10 -262144
-1 -1;
#X obj 1244 723 bng 15 250 50 0 empty empty empty 17 7 0 10 -262144
-1 -1;
#X obj 1169 820 gate 2;
#X msg 1627 936 0;
#X msg 1668 935 2;
#X msg 1709 938 4;
#X msg 1748 938 7;
#X msg 1801 936 9;
#X msg 1106 752 1;
#X msg 1140 754 2;
#X msg 1172 752 3;
#X msg 1205 752 4;
#X msg 1238 751 5;
#X msg 1268 750 6;
#X msg 1209 920 0;
#X msg 1330 922 7;
#X obj 1237 1082 + 48;
#X floatatom 1236 1113 5 0 0 0 - - -, f 5;
#X obj 1242 1156 + 0;
#X obj 695 1164 mtof;
#X obj 1241 1187 mtof;
#X obj 1104 1309 l;
#X msg 1239 1212 \$1 0;
#X obj 964 721 + 1;
#X obj 1093 1357 outlet;
#X obj 398 382 loadbang;
#X msg 400 415 0;
#X obj 375 466 s \$0base_r;
#X obj 428 444 s \$0gender_r;
#X obj 222 252 cnv 5 1 1 empty empty moll 0 0 0 10 -33289 -262144 0
;
#X obj 222 269 cnv 5 1 1 empty empty dur 0 0 0 10 -33289 -262144 0
;
#X obj 186 298 bng 15 250 50 0 empty empty w 4 -10 0 10 -262144 -260097
-262144;
#X obj 167 298 bng 15 250 50 0 empty empty a 4 -10 0 10 -262144 -260097
-262144;
#X obj 207 298 bng 15 250 50 0 empty empty s 4 -10 0 10 -262144 -260097
-262144;
#X obj 249 298 bng 15 250 50 0 empty empty d 4 -10 0 10 -262144 -260097
-262144;
#X obj 268 298 bng 15 250 50 0 empty empty f 4 -10 0 10 -262144 -260097
-262144;
#X obj 310 298 bng 15 250 50 0 empty empty g 4 -10 0 10 -262144 -260097
-262144;
#X obj 205 959 / 12;
#X obj 221 1017 s \$0oktave;
#X obj 322 237 nbx 2 14 -1e+37 1e+37 0 0 \$0oktave_s \$0oktave Oktave
-51 -14 0 14 -162280 -260097 -262144 5 256 0;
#X obj 146 888 clip 0 96;
#X msg 251 821 60;
#X obj 285 843 r \$0oktave_r;
#X obj 284 869 * 12;
#X obj 917 113 r toolssavebank;
#X obj 1127 30 r toolssavebang;
#X obj 1346 220 f;
#X obj 1291 214 f;
#X obj 1201 322 s toolssavelists;
#X obj 1156 134 f;
#X obj 919 231 route;
#X obj 1277 -25 loadbang;
#X obj 1278 31 \$1;
#X obj 1277 3 del 5;
#X obj 1156 93 del;
#X obj 1418 248 f;
#X obj 919 201 route makeykeys;
#X obj 1148 234 symbol makeykeys;
#X obj 1329 157 r \$0base;
#X obj 1419 160 r \$0gender;
#X obj 1531 164 r \$0oktave;
#X obj 1154 183 t b f b b b;
#X obj 1201 279 pack s f f f f;
#X obj 920 257 unpack f f f;
#X obj 857 326 s \$0base_r;
#X obj 919 350 s \$0gender_r;
#X obj 987 324 s \$0oktave_r;
#X text 405 184 soll man einzelne tasten deaktivieren können?;
#X msg 575 904 12, f 2;
#X msg 973 904 12, f 2;
#X msg 1403 924 12, f 2;
#X msg 1842 938 12, f 2;
#X obj 1224 93 clip 1 110;
#X obj 1221 381 keyname;
#X obj 1221 404 pack f s;
#X obj 1221 426 route 1 0;
#X obj 1178 475 list2symbol;
#X obj 1335 462 list2symbol;
#X obj 1335 482 sel Left Right Up Down;
#X obj 1177 499 sel Left Right Up Down;
#X obj 745 627 onebang;
#X obj 763 652 onebang;
#X obj 812 628 onebang;
#X obj 836 652 onebang;
#X obj 752 697 bng 15 250 50 0 empty empty empty 17 7 0 10 -262144
-1 -1;
#X obj 777 700 bng 15 250 50 0 empty empty empty 17 7 0 10 -262144
-1 -1;
#X obj 800 700 bng 15 250 50 0 empty empty empty 17 7 0 10 -262144
-1 -1;
#X obj 823 696 bng 15 250 50 0 empty empty empty 17 7 0 10 -262144
-1 -1;
#X msg 751 721 7;
#X msg 785 721 8;
#X msg 815 725 9;
#X msg 860 729 10;
#X obj 1313 723 bng 15 250 50 0 empty empty empty 17 7 0 10 -262144
-1 -1;
#X obj 1338 726 bng 15 250 50 0 empty empty empty 17 7 0 10 -262144
-1 -1;
#X obj 1361 726 bng 15 250 50 0 empty empty empty 17 7 0 10 -262144
-1 -1;
#X obj 1384 722 bng 15 250 50 0 empty empty empty 17 7 0 10 -262144
-1 -1;
#X msg 1312 747 7;
#X msg 1346 747 8;
#X msg 1376 751 9;
#X msg 1421 755 10;
#X obj 409 837 sel 1 2 3 4 5 6 7 8 9 10;
#X obj 787 873 sel 1 2 3 4 5 6 7 8 9 10;
#X obj 1238 891 sel 1 2 3 4 5 6 7 8 9 10;
#X obj 1656 907 sel 1 2 3 4 5 6 7 8 9 10;
#X msg 670 904 14;
#X msg 704 903 15;
#X msg 1500 924 14;
#X msg 1534 923 15;
#X msg 1008 902 5;
#X msg 1040 903 11;
#X msg 1068 907 14;
#X msg 1102 908 16;
#X msg 1878 946 5;
#X msg 1910 947 11;
#X msg 1938 951 14;
#X msg 1972 952 16;
#X obj 228 298 bng 15 250 50 0 empty empty < 4 -10 0 10 -262144 -260097
-262144;
#X obj 288 298 bng 15 250 50 0 empty empty > 4 -10 0 10 -262144 -260097
-262144;
#X obj 331 298 bng 15 250 50 0 empty empty ^ 3 -5 0 12 -262144 -260097
-262144;
#X obj 352 298 bng 15 250 50 0 empty empty v 4 -10 0 10 -262144 -260097
-262144;
#X msg 422 899 2;
#X msg 1250 919 2;
#X msg 466 902 3;
#X msg 1291 922 3;
#X msg 1432 925 5;
#X msg 602 905 5;
#X msg 534 902 8;
#X msg 1361 921 8;
#X msg 638 904 10;
#X msg 1468 924 10;
#X connect 1 0 6 0;
#X connect 1 1 13 0;
#X connect 2 0 5 0;
#X connect 3 0 4 0;
#X connect 4 0 1 0;
#X connect 5 0 1 0;
#X connect 6 0 7 0;
#X connect 6 1 8 0;
#X connect 6 2 9 0;
#X connect 6 3 10 0;
#X connect 6 4 11 0;
#X connect 6 5 12 0;
#X connect 7 0 14 0;
#X connect 8 0 15 0;
#X connect 9 0 16 0;
#X connect 10 0 17 0;
#X connect 11 0 18 0;
#X connect 12 0 19 0;
#X connect 13 0 7 1;
#X connect 13 0 76 0;
#X connect 13 1 8 1;
#X connect 13 1 77 0;
#X connect 13 2 9 1;
#X connect 13 2 78 0;
#X connect 13 3 10 1;
#X connect 13 3 79 0;
#X connect 13 4 11 1;
#X connect 13 4 80 0;
#X connect 13 5 12 1;
#X connect 13 5 81 0;
#X connect 14 0 27 0;
#X connect 14 0 112 0;
#X connect 15 0 28 0;
#X connect 15 0 111 0;
#X connect 16 0 29 0;
#X connect 16 0 113 0;
#X connect 17 0 30 0;
#X connect 17 0 114 0;
#X connect 18 0 31 0;
#X connect 18 0 115 0;
#X connect 19 0 32 0;
#X connect 19 0 116 0;
#X connect 20 0 7 1;
#X connect 20 0 12 1;
#X connect 20 0 11 1;
#X connect 20 0 10 1;
#X connect 20 0 9 1;
#X connect 20 0 8 1;
#X connect 20 0 160 1;
#X connect 20 0 163 1;
#X connect 20 0 162 1;
#X connect 20 0 161 1;
#X connect 21 0 180 0;
#X connect 21 1 181 0;
#X connect 22 0 55 0;
#X connect 23 0 55 0;
#X connect 24 0 55 0;
#X connect 25 0 55 0;
#X connect 26 0 55 0;
#X connect 27 0 21 1;
#X connect 28 0 21 1;
#X connect 29 0 21 1;
#X connect 30 0 21 1;
#X connect 31 0 21 1;
#X connect 32 0 21 1;
#X connect 33 0 55 0;
#X connect 34 0 55 0;
#X connect 37 0 50 0;
#X connect 38 0 50 0;
#X connect 39 0 50 0;
#X connect 40 0 50 0;
#X connect 41 0 50 0;
#X connect 42 0 50 0;
#X connect 43 0 50 0;
#X connect 44 0 50 0;
#X connect 45 0 50 0;
#X connect 46 0 50 0;
#X connect 47 0 50 0;
#X connect 48 0 50 0;
#X connect 49 0 37 0;
#X connect 49 1 41 0;
#X connect 49 2 38 0;
#X connect 49 3 42 0;
#X connect 49 4 39 0;
#X connect 49 5 40 0;
#X connect 49 6 43 0;
#X connect 49 7 44 0;
#X connect 49 8 45 0;
#X connect 49 9 46 0;
#X connect 49 10 47 0;
#X connect 49 11 48 0;
#X connect 51 0 53 0;
#X connect 52 0 49 0;
#X connect 52 0 75 1;
#X connect 52 0 98 1;
#X connect 53 0 52 0;
#X connect 54 0 51 0;
#X connect 55 0 56 0;
#X connect 56 0 75 0;
#X connect 58 0 103 0;
#X connect 59 0 65 0;
#X connect 60 0 64 0;
#X connect 61 0 66 0;
#X connect 62 0 66 0;
#X connect 63 0 121 0;
#X connect 64 0 62 0;
#X connect 65 0 61 0;
#X connect 66 0 120 0;
#X connect 67 0 55 1;
#X connect 67 0 72 0;
#X connect 67 0 96 1;
#X connect 68 0 60 1;
#X connect 69 0 59 1;
#X connect 70 0 59 0;
#X connect 71 0 60 0;
#X connect 72 0 73 0;
#X connect 72 0 117 0;
#X connect 74 0 101 0;
#X connect 75 0 99 0;
#X connect 76 0 88 0;
#X connect 77 0 89 0;
#X connect 78 0 90 0;
#X connect 79 0 91 0;
#X connect 80 0 92 0;
#X connect 81 0 93 0;
#X connect 82 0 182 0;
#X connect 82 1 183 0;
#X connect 83 0 96 0;
#X connect 84 0 96 0;
#X connect 85 0 96 0;
#X connect 86 0 96 0;
#X connect 87 0 96 0;
#X connect 88 0 82 1;
#X connect 89 0 82 1;
#X connect 90 0 82 1;
#X connect 91 0 82 1;
#X connect 92 0 82 1;
#X connect 93 0 82 1;
#X connect 94 0 96 0;
#X connect 95 0 96 0;
#X connect 96 0 97 0;
#X connect 97 0 98 0;
#X connect 98 0 100 0;
#X connect 99 0 74 0;
#X connect 100 0 102 0;
#X connect 101 0 104 0;
#X connect 102 0 101 0;
#X connect 103 0 21 0;
#X connect 103 0 82 0;
#X connect 105 0 106 0;
#X connect 106 0 107 0;
#X connect 106 0 108 0;
#X connect 117 0 118 0;
#X connect 120 0 67 0;
#X connect 121 0 66 0;
#X connect 122 0 123 0;
#X connect 123 0 66 0;
#X connect 124 0 136 0;
#X connect 125 0 134 0;
#X connect 126 0 142 3;
#X connect 127 0 142 2;
#X connect 129 0 141 0;
#X connect 130 0 143 0;
#X connect 131 0 133 0;
#X connect 132 0 129 1;
#X connect 132 0 130 1;
#X connect 132 0 152 0;
#X connect 133 0 132 0;
#X connect 134 0 129 0;
#X connect 135 0 142 4;
#X connect 136 0 130 0;
#X connect 137 0 142 0;
#X connect 138 0 127 1;
#X connect 139 0 126 1;
#X connect 140 0 135 1;
#X connect 141 0 137 0;
#X connect 141 1 142 1;
#X connect 141 2 127 0;
#X connect 141 3 126 0;
#X connect 141 4 135 0;
#X connect 142 0 128 0;
#X connect 143 0 144 0;
#X connect 143 1 145 0;
#X connect 143 2 146 0;
#X connect 148 0 55 0;
#X connect 149 0 55 0;
#X connect 150 0 96 0;
#X connect 151 0 96 0;
#X connect 152 0 134 1;
#X connect 153 0 154 0;
#X connect 153 1 154 1;
#X connect 154 0 155 0;
#X connect 155 0 156 0;
#X connect 155 1 157 0;
#X connect 156 0 159 0;
#X connect 157 0 158 0;
#X connect 158 0 160 1;
#X connect 158 0 172 0;
#X connect 158 1 161 1;
#X connect 158 1 173 0;
#X connect 158 2 162 1;
#X connect 158 2 174 0;
#X connect 158 3 163 1;
#X connect 158 3 175 0;
#X connect 159 0 160 0;
#X connect 159 1 161 0;
#X connect 159 2 162 0;
#X connect 159 3 163 0;
#X connect 160 0 164 0;
#X connect 161 0 165 0;
#X connect 162 0 166 0;
#X connect 163 0 167 0;
#X connect 164 0 168 0;
#X connect 164 0 196 0;
#X connect 165 0 169 0;
#X connect 165 0 197 0;
#X connect 166 0 170 0;
#X connect 166 0 198 0;
#X connect 167 0 171 0;
#X connect 167 0 199 0;
#X connect 168 0 21 1;
#X connect 169 0 21 1;
#X connect 170 0 21 1;
#X connect 171 0 21 1;
#X connect 172 0 176 0;
#X connect 173 0 177 0;
#X connect 174 0 178 0;
#X connect 175 0 179 0;
#X connect 176 0 82 1;
#X connect 177 0 82 1;
#X connect 178 0 82 1;
#X connect 179 0 82 1;
#X connect 180 0 33 0;
#X connect 180 1 200 0;
#X connect 180 2 202 0;
#X connect 180 3 34 0;
#X connect 180 4 206 0;
#X connect 180 5 148 0;
#X connect 180 6 205 0;
#X connect 180 7 208 0;
#X connect 180 8 184 0;
#X connect 180 9 185 0;
#X connect 181 0 22 0;
#X connect 181 1 23 0;
#X connect 181 2 24 0;
#X connect 181 3 25 0;
#X connect 181 4 26 0;
#X connect 181 5 149 0;
#X connect 181 6 188 0;
#X connect 181 7 189 0;
#X connect 181 8 190 0;
#X connect 181 9 191 0;
#X connect 182 0 94 0;
#X connect 182 1 201 0;
#X connect 182 2 203 0;
#X connect 182 3 95 0;
#X connect 182 4 207 0;
#X connect 182 5 150 0;
#X connect 182 6 204 0;
#X connect 182 7 209 0;
#X connect 182 8 186 0;
#X connect 182 9 187 0;
#X connect 183 0 83 0;
#X connect 183 1 84 0;
#X connect 183 2 85 0;
#X connect 183 3 86 0;
#X connect 183 4 87 0;
#X connect 183 5 151 0;
#X connect 183 6 192 0;
#X connect 183 7 193 0;
#X connect 183 8 194 0;
#X connect 183 9 195 0;
#X connect 184 0 55 0;
#X connect 185 0 55 0;
#X connect 186 0 96 0;
#X connect 187 0 96 0;
#X connect 188 0 55 0;
#X connect 189 0 55 0;
#X connect 190 0 55 0;
#X connect 191 0 55 0;
#X connect 192 0 96 0;
#X connect 193 0 96 0;
#X connect 194 0 96 0;
#X connect 195 0 96 0;
#X connect 200 0 55 0;
#X connect 201 0 96 0;
#X connect 202 0 55 0;
#X connect 203 0 96 0;
#X connect 204 0 96 0;
#X connect 205 0 55 0;
#X connect 206 0 55 0;
#X connect 207 0 96 0;
#X connect 208 0 55 0;
#X connect 209 0 96 0;
#X coords 0 -1 1 1 212 160 1 162 160;
