#N canvas 800 29 800 810 12;
#X obj 490 230 adc~;
#X obj 550 -20 vsl 15 128 0 127 0 0 empty empty input\ vol -16 60 0
10 #fcfcfc #000000 #000000 12700 1;
#X floatatom 569 93 5 0 0 0 - - -, f 5;
#X obj 490 282 snapshot~;
#X obj 690 360 metro 1000;
#X obj 690 320 tgl 15 0 empty empty empty 17 7 0 10 #fcfcfc #000000
#000000 1 1;
#X obj 550 -80 loadbang;
#X msg 550 -50 15.875;
#X obj 490 460 * 127;
#X obj 490 500 clip 0 127;
#X floatatom 490 529 5 0 0 0 - - -, f 5;
#X obj 490 590 line;
#X obj 490 560 pack f f;
#X obj 800 321 bng 15 250 50 0 empty empty empty 17 7 0 10 #fcfcfc
#000000 #000000;
#X obj 800 360 random 180000;
#X obj 800 389 + 500;
#X floatatom 740 300 5 0 0 0 - - -, f 5;
#X obj 580 10 hsl 128 15 0 127 0 0 empty empty range\ interval 30 5
0 10 #fcfcfc #000000 #000000 400 1;
#X obj 887 290 * 1417.32;
#X floatatom 887 319 5 0 0 0 - - -, f 5;
#X obj 580 -10 hsl 128 15 0.127 127 0 0 empty empty min\ interval 23
5 0 10 #fcfcfc #000000 #000000 0 1;
#X floatatom 820 270 5 0 0 0 - - -, f 5;
#X obj 820 241 * 472.441;
#X obj 950 361 / 1000;
#X floatatom 720 -10 5 0 0 0 - - -, f 5;
#X msg 820 180 1.27;
#X obj 790 550 / 1;
#X obj 890 430 +;
#X floatatom 890 459 5 0 0 0 - - -, f 5;
#X obj 580 70 hsl 128 15 0 127 0 0 empty empty transition 31 6 0 10
#fcfcfc #000000 #000000 12700 1;
#X obj 850 580 / 8.46667;
#X obj 850 610 + 1;
#X floatatom 720 70 5 0 0 0 - - -, f 5;
#X floatatom 627 38 5 0 0 0 - - -, f 5;
#X obj 740 330 t f f;
#X obj 550 123 / 7.9375;
#X obj 1010 360 / 1000;
#X floatatom 720 10 5 0 0 0 - - -, f 5;
#X obj 490 326 abs;
#X obj 490 370 * 1;
#X msg 850 520 0;
#X obj 680 -70 inlet;
#X obj 733 -73 inlet;
#X obj 783 -73 inlet;
#X obj 836 -76 inlet;
#X obj 490 619 outlet;
#X msg 640 280 1;
#X obj 640 250 bng 15 250 50 0 empty empty empty 17 7 0 10 #fcfcfc
#000000 #000000;
#X connect 0 0 3 0;
#X connect 1 0 35 0;
#X connect 2 0 39 1;
#X connect 3 0 38 0;
#X connect 4 0 3 0;
#X connect 4 0 13 0;
#X connect 5 0 4 0;
#X connect 6 0 7 0;
#X connect 6 0 5 0;
#X connect 6 0 25 0;
#X connect 6 0 40 0;
#X connect 7 0 1 0;
#X connect 8 0 9 0;
#X connect 9 0 10 0;
#X connect 10 0 12 0;
#X connect 11 0 33 0;
#X connect 11 0 45 0;
#X connect 12 0 11 0;
#X connect 13 0 14 0;
#X connect 14 0 15 0;
#X connect 15 0 16 0;
#X connect 16 0 34 0;
#X connect 17 0 18 0;
#X connect 17 0 47 0;
#X connect 18 0 19 0;
#X connect 19 0 14 1;
#X connect 19 0 36 0;
#X connect 20 0 22 0;
#X connect 20 0 47 0;
#X connect 21 0 15 1;
#X connect 21 0 23 0;
#X connect 21 0 27 1;
#X connect 22 0 21 0;
#X connect 23 0 24 0;
#X connect 25 0 20 0;
#X connect 25 0 17 0;
#X connect 26 0 12 1;
#X connect 27 0 28 0;
#X connect 28 0 26 0;
#X connect 29 0 30 0;
#X connect 30 0 31 0;
#X connect 31 0 32 0;
#X connect 32 0 26 1;
#X connect 34 0 4 1;
#X connect 34 1 27 0;
#X connect 35 0 2 0;
#X connect 36 0 37 0;
#X connect 38 0 39 0;
#X connect 39 0 8 0;
#X connect 40 0 29 0;
#X connect 41 0 1 0;
#X connect 42 0 20 0;
#X connect 43 0 17 0;
#X connect 44 0 29 0;
#X connect 46 0 5 0;
#X connect 47 0 46 0;
#X coords 0 -1 1 1 243 147 1 532 -28;
