#N canvas 0 38 1600 801 12;
#X obj 299 -692 cnv 15 980 346 empty empty sand 19 62 0 100 #202020
#fc8000 0;
#X obj 593 -657 cnv 15 156 295 empty empty grain1 87 166 0 18 #404040
#ffffff 0;
#X text -420 -1130 ToDo;
#N canvas 0 0 1600 801 grain1 0;
#X obj 670 1450 hip~ 5;
#X obj 404 885 *~;
#X obj 500 318 exp;
#X obj 500 410 /;
#X obj 321 1217 cos~;
#X obj 370 1360 *~;
#X obj 670 1420 +~;
#X obj 1080 687 wrap~;
#X obj 1230 920 *~;
#X obj 826 375 t b f;
#X floatatom 500 432 6 0 0 0 - - -, f 6;
#X obj 1080 660 +~ 0.5;
#X obj 320 1170 -~ 0.5;
#X obj 320 1196 *~ 0.5;
#X obj 500 361 - 1;
#X obj 500 296 * 0.05776;
#X obj 500 383 * -1;
#X text 535 403 tape head;
#X obj 500 500 phasor~;
#X obj 829 203 max 1;
#X text 536 416 rotation freq;
#X obj 1080 1220 cos~;
#X obj 1080 1164 -~ 0.5;
#X obj 1080 1190 *~ 0.5;
#X obj 1070 1390 *~;
#X obj 1229 1025 vd~ \$0del;
#X obj 402 992 vd~ \$0del;
#X obj 780 456 line~;
#X obj 780 430 pack 0 200;
#X obj 500 117 * 12;
#X obj 598 99 * 12;
#X obj 501 173 - 1;
#X obj 598 124 t b f;
#X obj 500 145 f;
#X obj 598 75 / 127;
#X obj 501 220 int;
#X obj 500 242 / 1000;
#X obj 500 198 * 1000;
#X obj 829 263 int;
#X obj 830 340 * 0.001;
#X obj 828 238 + 0.5;
#X obj 830 150 pow 1.7582;
#X obj 1229 995 +~;
#X obj 402 962 +~;
#X obj 210 1200 sig~;
#X msg 210 1160 0;
#X obj 210 1120 loadbang;
#X obj 210 1260 *~;
#X obj 350 1280 *~;
#X obj 200 838 bng 15 250 50 0 empty empty empty 17 7 0 10 #fcfcfc
#000000 #000000;
#X obj 200 868 random 100;
#X obj 200 958 sel 0 1;
#X obj 200 898 < 50;
#X msg 190 1018 1;
#X msg 220 1018 0;
#X msg 260 1028 1;
#X msg 290 1028 0;
#X obj 980 858 bng 15 250 50 0 empty empty empty 17 7 0 10 #fcfcfc
#000000 #000000;
#X obj 980 888 random 100;
#X obj 980 978 sel 0 1;
#X obj 980 918 < 50;
#X msg 970 1038 1;
#X msg 1000 1038 0;
#X msg 1040 1040 1;
#X msg 1070 1040 0;
#X obj 980 1220 sig~;
#X msg 980 1192 0;
#X obj 980 1163 loadbang;
#X obj 980 1270 *~;
#X obj 1090 1320 *~;
#X obj 470 860 random 1000;
#X obj 1320 901 random 1000;
#X obj 130 1230 line~;
#X obj 380 1250 line~;
#X obj 910 1240 line~;
#X obj 1130 1290 line~;
#X obj 1373 235 phasor~;
#X msg 1372 171 1;
#X obj 1402 322 wrap~;
#X obj 1402 295 +~ 0.5;
#X obj 1372 196 /;
#X obj 1372 143 t b f;
#X msg 130 1200 \$1 2;
#X msg 380 1220 \$1 2;
#X msg 1130 1260 \$1 2;
#X msg 910 1210 \$1 2;
#X obj 1400 360 *~;
#X obj 1338 358 *~;
#X msg 1267 167 1;
#X msg 1308 168 0;
#X obj 1288 238 line~;
#X msg 1288 208 \$1 5;
#X obj 700 710 *~;
#X obj 719 667 line~;
#X obj 1010 740 *~;
#X obj 870 660 line~;
#X msg 680 590 1;
#X msg 721 591 0;
#X msg 720 630 \$1 5;
#X msg 832 592 1;
#X msg 873 593 0;
#X msg 872 632 \$1 5;
#X obj 780 550 sel 0;
#X obj 1400 270 -~ 0.5;
#X obj 588 320 s \$0showpitch1;
#X obj 498 50 r \$0oktave1;
#X obj 598 50 r \$0fine1;
#X obj 829 113 r \$0window1;
#X obj 860 290 s \$0showwin1;
#X text 1413 165 This Phasor "cuts out" the grains according to the
window size \, if the pitch is 0 \, because the other Phasor is stopped
(freq=0) once the pitch is zero;
#X obj 670 1480 outlet~;
#X text 350 500 DER ZENTRALE PHASOR!;
#X obj 466 932 sig~;
#X obj 1310 960 sig~;
#X obj 980 820 threshold~ 0.999 10 0.1 10;
#X obj 200 800 threshold~ 0.999 10 0.1 10;
#X obj 500 93 - 3;
#X obj 720 91 / 1.27;
#X obj 720 60 r \$0dense1;
#X obj 720 140 s \$0showdense1;
#X obj 380 64 r \$0jitter1;
#X obj 260 110 s \$0showjit1;
#X obj 380 94 / 127;
#X obj 380 150 int;
#X obj 380 120 * 5000;
#X connect 0 0 110 0;
#X connect 1 0 43 0;
#X connect 2 0 14 0;
#X connect 3 0 10 0;
#X connect 4 0 48 0;
#X connect 5 0 6 0;
#X connect 6 0 0 0;
#X connect 7 0 8 0;
#X connect 7 0 94 0;
#X connect 8 0 42 0;
#X connect 9 0 3 0;
#X connect 9 1 3 1;
#X connect 10 0 18 0;
#X connect 10 0 102 0;
#X connect 11 0 7 0;
#X connect 12 0 13 0;
#X connect 13 0 4 0;
#X connect 14 0 16 0;
#X connect 15 0 2 0;
#X connect 16 0 3 0;
#X connect 18 0 1 0;
#X connect 18 0 11 0;
#X connect 18 0 92 0;
#X connect 19 0 40 0;
#X connect 21 0 69 0;
#X connect 22 0 23 0;
#X connect 23 0 21 0;
#X connect 24 0 6 1;
#X connect 25 0 24 1;
#X connect 26 0 5 1;
#X connect 27 0 8 1;
#X connect 27 0 1 1;
#X connect 28 0 27 0;
#X connect 29 0 33 0;
#X connect 30 0 32 0;
#X connect 31 0 37 0;
#X connect 32 0 33 0;
#X connect 32 1 31 1;
#X connect 33 0 31 0;
#X connect 34 0 30 0;
#X connect 35 0 36 0;
#X connect 36 0 104 0;
#X connect 36 0 15 0;
#X connect 37 0 35 0;
#X connect 38 0 39 0;
#X connect 38 0 28 0;
#X connect 38 0 108 0;
#X connect 39 0 9 0;
#X connect 39 0 81 0;
#X connect 40 0 38 0;
#X connect 41 0 19 0;
#X connect 42 0 25 0;
#X connect 43 0 26 0;
#X connect 44 0 47 0;
#X connect 45 0 44 0;
#X connect 46 0 45 0;
#X connect 47 0 5 0;
#X connect 48 0 5 0;
#X connect 49 0 50 0;
#X connect 49 0 70 0;
#X connect 50 0 52 0;
#X connect 51 0 53 0;
#X connect 51 0 54 0;
#X connect 51 1 55 0;
#X connect 51 1 56 0;
#X connect 52 0 51 0;
#X connect 53 0 82 0;
#X connect 54 0 83 0;
#X connect 55 0 83 0;
#X connect 56 0 82 0;
#X connect 57 0 58 0;
#X connect 57 0 71 0;
#X connect 58 0 60 0;
#X connect 59 0 61 0;
#X connect 59 0 62 0;
#X connect 59 1 63 0;
#X connect 59 1 64 0;
#X connect 60 0 59 0;
#X connect 61 0 85 0;
#X connect 62 0 84 0;
#X connect 63 0 84 0;
#X connect 64 0 85 0;
#X connect 65 0 68 0;
#X connect 66 0 65 0;
#X connect 67 0 66 0;
#X connect 68 0 24 0;
#X connect 69 0 24 0;
#X connect 70 0 112 0;
#X connect 71 0 113 0;
#X connect 72 0 47 1;
#X connect 73 0 48 1;
#X connect 74 0 68 1;
#X connect 75 0 69 1;
#X connect 76 0 87 0;
#X connect 76 0 103 0;
#X connect 77 0 80 0;
#X connect 78 0 86 0;
#X connect 79 0 78 0;
#X connect 80 0 76 0;
#X connect 81 0 77 0;
#X connect 81 1 80 1;
#X connect 82 0 72 0;
#X connect 83 0 73 0;
#X connect 84 0 75 0;
#X connect 85 0 74 0;
#X connect 86 0 22 0;
#X connect 86 0 114 0;
#X connect 87 0 12 0;
#X connect 87 0 115 0;
#X connect 88 0 91 0;
#X connect 89 0 91 0;
#X connect 90 0 87 1;
#X connect 90 0 86 1;
#X connect 91 0 90 0;
#X connect 92 0 12 0;
#X connect 92 0 115 0;
#X connect 93 0 92 1;
#X connect 94 0 22 0;
#X connect 94 0 114 0;
#X connect 95 0 94 1;
#X connect 96 0 98 0;
#X connect 97 0 98 0;
#X connect 98 0 93 0;
#X connect 99 0 101 0;
#X connect 100 0 101 0;
#X connect 101 0 95 0;
#X connect 102 0 88 0;
#X connect 102 0 97 0;
#X connect 102 0 100 0;
#X connect 102 1 96 0;
#X connect 102 1 89 0;
#X connect 102 1 99 0;
#X connect 103 0 79 0;
#X connect 105 0 116 0;
#X connect 106 0 34 0;
#X connect 107 0 41 0;
#X connect 112 0 43 1;
#X connect 113 0 42 1;
#X connect 114 0 57 0;
#X connect 115 0 49 0;
#X connect 116 0 29 0;
#X connect 117 0 52 1;
#X connect 117 0 60 1;
#X connect 117 0 119 0;
#X connect 118 0 117 0;
#X connect 120 0 122 0;
#X connect 122 0 124 0;
#X connect 123 0 121 0;
#X connect 123 0 70 1;
#X connect 123 0 71 1;
#X connect 124 0 123 0;
#X restore 320 -170 pd grain1;
#X obj 602 -573 vradio 18 0 0 8 \$0oktave1 \$0oktave1_r empty 0 -8
0 10 #606060 #fc8000 #000000 3;
#X obj 602 -421 hsl 82 15 0 127 0 0 \$0fine1 \$0fine1_r fine 32 6 0
10 #606060 #fc8000 #fcfcfc 0 1;
#X obj 696 -634 nbx 4 14 -1e+37 1e+37 0 0 empty \$0showwin1 empty 0
-8 0 10 #fcfcfc #000000 #ffffff 100 256 0;
#X obj 603 -630 nbx 4 14 -1e+37 1e+37 0 0 empty \$0showdelay1 empty
0 -8 0 10 #fcfcfc #000000 #000000 250 256 0;
#X text 260 720 Final Reverb;
#X text 100 760 level \, dB;
#X text 268 869 liveness \, 0-100;
#X obj 150 950 rev2~ 100 90 3000 20;
#X obj 70 1030 *~ 0.2;
#X obj 130 640 hip~ 15;
#X obj 623 -515 cnv 10 25 10 empty empty 0 1 3 0 10 #404040 #ffffff
0;
#X obj 623 -497 cnv 10 25 10 empty empty 1 1 3 0 10 #404040 #ffffff
0;
#X obj 623 -479 cnv 10 25 10 empty empty 2 1 3 0 10 #404040 #ffffff
0;
#X obj 623 -461 cnv 10 25 10 empty empty 3 1 3 0 10 #404040 #ffffff
0;
#X obj 623 -443 cnv 10 25 10 empty empty 4 1 3 0 10 #404040 #ffffff
0;
#X obj 626 -532 cnv 10 25 10 empty empty -1 -4 2 0 10 #404040 #ffffff
0;
#X obj 626 -551 cnv 10 25 10 empty empty -2 -4 2 0 10 #404040 #ffffff
0;
#X obj 626 -569 cnv 10 25 10 empty empty -3 -4 2 0 10 #404040 #ffffff
0;
#X obj 637 -436 nbx 5 14 -1e+37 1e+37 0 0 empty \$0showpitch1 pitch
17 -8 0 10 #fcfcfc #000000 #ffffff 0 256 0;
#X obj 603 -616 hsl 128 15 0 127 0 0 \$0delay1 \$0delay1_r delay 51
6 0 10 #606060 #fc8000 #ffffff 2314 1;
#X obj 603 -649 hsl 128 15 0 127 0 0 \$0window1 \$0window1_r window
49 6 0 10 #606060 #fc8000 #ffffff 1370 1;
#X obj 697 -476 vsl 39 50 0 127 0 0 \$0volume1 \$0volume1_r volume
1 44 0 10 #606060 #fc8000 #ffffff 4900 1;
#X obj 644 -558 hsl 87 15 0 127 0 0 \$0dense1 \$0dense1_r density 23
6 0 10 #606060 #fc8000 #ffffff 8600 1;
#X obj 319 4 *~;
#X obj 351 -60 r \$0volume1;
#X msg 351 -11 \$1 15;
#X obj 351 18 line~;
#X obj 697 -420 nbx 4 14 -1e+37 1e+37 0 0 empty \$0showvol1 empty 0
-8 0 10 #fcfcfc #000000 #ffffff 1 256 0;
#X obj 420 -30 s \$0showvol1;
#X obj 351 -37 / 127;
#X obj 603 -598 hsl 89 15 0 127 0 0 \$0fb1 \$0fb1_r feedback 21 6 0
10 #606060 #fc8000 #ffffff 0 1;
#X obj 657 -583 nbx 4 14 -1e+37 1e+37 0 0 empty \$0showfb1 empty 0
-8 0 10 #fcfcfc #000000 #000000 0 256 0;
#X obj 696 -543 nbx 4 14 -1e+37 1e+37 0 0 empty \$0showdense1 empty
0 -8 0 10 #fcfcfc #000000 #ffffff 100 256 0;
#X obj 644 -521 hsl 87 15 0 127 0 0 \$0jitter1 \$0jitter1_r jitter
26 6 0 10 #606060 #fc8000 #ffffff 0 1;
#X obj 644 -536 nbx 4 14 -1e+37 1e+37 0 0 empty \$0showjit1 empty 0
-8 0 10 #fcfcfc #000000 #ffffff 0 256 0;
#N canvas 417 300 765 300 startup 0;
#X obj 141 55 loadbang;
#X obj 30 150 s \$0window1_r;
#X msg 33 105 13.7;
#X obj 210 170 s \$0delay1_r;
#X msg 210 130 23.14;
#X obj 350 150 s \$0fb1_r;
#X msg 344 89 0;
#X obj 500 170 s \$0dense1_r;
#X msg 480 130 127;
#X msg 610 140 0;
#X obj 720 170 s \$0volume1_r;
#X msg 729 123 127;
#X obj 850 170 s \$0fine1_r;
#X msg 860 130 0;
#X obj 990 170 s \$0oktave1_r;
#X msg 998 136 3;
#X obj 22 212 s \$0window2_r;
#X obj 22 262 s \$0window3_r;
#X obj 22 322 s \$0window4_r;
#X obj 202 232 s \$0delay2_r;
#X obj 200 290 s \$0delay3_r;
#X obj 200 360 s \$0delay4_r;
#X obj 340 210 s \$0fb2_r;
#X obj 342 262 s \$0fb3_r;
#X obj 340 320 s \$0fb4_r;
#X obj 492 232 s \$0dense2_r;
#X obj 492 282 s \$0dense3_r;
#X obj 492 342 s \$0dense4_r;
#X obj 600 170 s \$0jitter1_r;
#X obj 592 232 s \$0jitter2_r;
#X obj 592 282 s \$0jitter3_r;
#X obj 592 342 s \$0jitter4_r;
#X obj 712 232 s \$0volume2_r;
#X obj 712 282 s \$0volume3_r;
#X obj 710 340 s \$0volume4_r;
#X obj 842 232 s \$0fine2_r;
#X obj 842 282 s \$0fine3_r;
#X obj 842 342 s \$0fine4_r;
#X obj 982 232 s \$0oktave2_r;
#X obj 982 282 s \$0oktave3_r;
#X obj 980 340 s \$0oktave4_r;
#X msg 200 200 34.32;
#X msg 200 260 43.2;
#X msg 200 330 50.87;
#X msg 420 11 0;
#X obj 420 40 s \$0revlevel_r;
#X obj 275 26 s \$0dry_r;
#X msg 270 0 63.5;
#X obj 560 50 s \$0revlife_r;
#X msg 560 20 108;
#X obj 670 50 s \$0revdamp_r;
#X msg 670 10 38.1;
#X obj 795 31 s \$0revxover_r;
#X msg 800 0 29.35;
#X connect 0 0 2 0;
#X connect 0 0 4 0;
#X connect 0 0 6 0;
#X connect 0 0 8 0;
#X connect 0 0 9 0;
#X connect 0 0 11 0;
#X connect 0 0 13 0;
#X connect 0 0 15 0;
#X connect 0 0 41 0;
#X connect 0 0 43 0;
#X connect 0 0 42 0;
#X connect 0 0 44 0;
#X connect 0 0 47 0;
#X connect 0 0 49 0;
#X connect 0 0 51 0;
#X connect 0 0 53 0;
#X connect 2 0 1 0;
#X connect 2 0 16 0;
#X connect 2 0 18 0;
#X connect 2 0 17 0;
#X connect 4 0 3 0;
#X connect 6 0 5 0;
#X connect 6 0 22 0;
#X connect 6 0 24 0;
#X connect 6 0 23 0;
#X connect 8 0 7 0;
#X connect 8 0 25 0;
#X connect 8 0 27 0;
#X connect 8 0 26 0;
#X connect 9 0 28 0;
#X connect 9 0 29 0;
#X connect 9 0 31 0;
#X connect 9 0 30 0;
#X connect 11 0 10 0;
#X connect 11 0 32 0;
#X connect 11 0 34 0;
#X connect 11 0 33 0;
#X connect 13 0 12 0;
#X connect 13 0 35 0;
#X connect 13 0 37 0;
#X connect 13 0 36 0;
#X connect 15 0 14 0;
#X connect 15 0 38 0;
#X connect 15 0 40 0;
#X connect 15 0 39 0;
#X connect 41 0 19 0;
#X connect 42 0 20 0;
#X connect 43 0 21 0;
#X connect 44 0 45 0;
#X connect 47 0 46 0;
#X connect 49 0 48 0;
#X connect 51 0 50 0;
#X connect 53 0 52 0;
#X restore 120 -590 pd startup;
#X obj 762 -657 cnv 15 156 295 empty empty grain2 87 166 0 18 #404040
#ffffff 0;
#X obj 771 -573 vradio 18 0 0 8 \$0oktave2 \$0oktave2_r empty 0 -8
0 10 #606060 #fc8000 #000000 3;
#X obj 771 -421 hsl 82 15 0 127 0 0 \$0fine2 \$0fine2_r fine 32 6 0
10 #606060 #fc8000 #fcfcfc 0 1;
#X obj 865 -634 nbx 4 14 -1e+37 1e+37 0 0 empty \$0showwin2 empty 0
-8 0 10 #fcfcfc #000000 #ffffff 100 256 0;
#X obj 772 -630 nbx 4 14 -1e+37 1e+37 0 0 empty \$0showdelay2 empty
0 -8 0 10 #fcfcfc #000000 #000000 500 256 0;
#X obj 792 -515 cnv 10 25 10 empty empty 0 1 3 0 10 #404040 #ffffff
0;
#X obj 792 -497 cnv 10 25 10 empty empty 1 1 3 0 10 #404040 #ffffff
0;
#X obj 792 -479 cnv 10 25 10 empty empty 2 1 3 0 10 #404040 #ffffff
0;
#X obj 792 -461 cnv 10 25 10 empty empty 3 1 3 0 10 #404040 #ffffff
0;
#X obj 792 -443 cnv 10 25 10 empty empty 4 1 3 0 10 #404040 #ffffff
0;
#X obj 795 -532 cnv 10 25 10 empty empty -1 -4 2 0 10 #404040 #ffffff
0;
#X obj 795 -551 cnv 10 25 10 empty empty -2 -4 2 0 10 #404040 #ffffff
0;
#X obj 795 -569 cnv 10 25 10 empty empty -3 -4 2 0 10 #404040 #ffffff
0;
#X obj 806 -436 nbx 5 14 -1e+37 1e+37 0 0 empty \$0showpitch2 pitch
17 -8 0 10 #fcfcfc #000000 #ffffff 0 256 0;
#X obj 772 -616 hsl 128 15 0 127 0 0 \$0delay2 \$0delay2_r delay 51
6 0 10 #606060 #fc8000 #ffffff 3432 1;
#X obj 772 -649 hsl 128 15 0 127 0 0 \$0window2 \$0window2_r window
49 6 0 10 #606060 #fc8000 #ffffff 1370 1;
#X obj 866 -476 vsl 39 50 0 127 0 0 \$0volume2 \$0volume2_r volume
1 44 0 10 #606060 #fc8000 #ffffff 4900 1;
#X obj 813 -558 hsl 87 15 0 127 0 0 \$0dense2 \$0dense2_r density 23
6 0 10 #606060 #fc8000 #ffffff 8600 1;
#X obj 866 -420 nbx 4 14 -1e+37 1e+37 0 0 empty \$0showvol2 empty 0
-8 0 10 #fcfcfc #000000 #ffffff 1 256 0;
#X obj 772 -598 hsl 89 15 0 127 0 0 \$0fb2 \$0fb2_r feedback 21 6 0
10 #606060 #fc8000 #ffffff 0 1;
#X obj 826 -583 nbx 4 14 -1e+37 1e+37 0 0 empty \$0showfb2 empty 0
-8 0 10 #fcfcfc #000000 #000000 0 256 0;
#X obj 865 -543 nbx 4 14 -1e+37 1e+37 0 0 empty \$0showdense2 empty
0 -8 0 10 #fcfcfc #000000 #ffffff 100 256 0;
#X obj 813 -521 hsl 87 15 0 127 0 0 \$0jitter2 \$0jitter2_r jitter
26 6 0 10 #606060 #fc8000 #ffffff 0 1;
#X obj 813 -536 nbx 4 14 -1e+37 1e+37 0 0 empty \$0showjit2 empty 0
-8 0 10 #fcfcfc #000000 #ffffff 0 256 0;
#N canvas 0 29 1600 810 grain2 0;
#X obj 670 1450 hip~ 5;
#X obj 404 885 *~;
#X obj 500 318 exp;
#X obj 500 410 /;
#X obj 320 1230 cos~;
#X obj 370 1360 *~;
#X obj 670 1420 +~;
#X obj 1080 687 wrap~;
#X obj 1230 920 *~;
#X obj 826 375 t b f;
#X floatatom 500 432 6 0 0 0 - - -, f 6;
#X obj 1080 660 +~ 0.5;
#X obj 320 1170 -~ 0.5;
#X obj 320 1196 *~ 0.5;
#X obj 500 361 - 1;
#X obj 500 296 * 0.05776;
#X obj 500 383 * -1;
#X text 535 403 tape head;
#X obj 500 500 phasor~;
#X obj 829 203 max 1;
#X text 536 416 rotation freq;
#X obj 1080 1220 cos~;
#X obj 1080 1164 -~ 0.5;
#X obj 1080 1190 *~ 0.5;
#X obj 1070 1390 *~;
#X obj 1229 1025 vd~ \$0del;
#X obj 402 992 vd~ \$0del;
#X obj 780 456 line~;
#X obj 780 430 pack 0 200;
#X obj 500 117 * 12;
#X obj 598 99 * 12;
#X obj 501 173 - 1;
#X obj 598 124 t b f;
#X obj 500 145 f;
#X obj 598 75 / 127;
#X obj 501 220 int;
#X obj 500 242 / 1000;
#X obj 500 198 * 1000;
#X obj 829 263 int;
#X obj 830 340 * 0.001;
#X obj 828 238 + 0.5;
#X obj 830 150 pow 1.7582;
#X obj 1229 995 +~;
#X obj 402 962 +~;
#X obj 210 1200 sig~;
#X msg 210 1160 0;
#X obj 210 1120 loadbang;
#X obj 210 1260 *~;
#X obj 350 1280 *~;
#X obj 200 838 bng 15 250 50 0 empty empty empty 17 7 0 10 #fcfcfc
#000000 #000000;
#X obj 200 868 random 100;
#X obj 200 958 sel 0 1;
#X obj 200 898 < 50;
#X msg 190 1018 1;
#X msg 220 1018 0;
#X msg 260 1028 1;
#X msg 290 1028 0;
#X obj 980 858 bng 15 250 50 0 empty empty empty 17 7 0 10 #fcfcfc
#000000 #000000;
#X obj 980 888 random 100;
#X obj 980 978 sel 0 1;
#X obj 980 918 < 50;
#X msg 970 1038 1;
#X msg 1000 1038 0;
#X msg 1040 1040 1;
#X msg 1070 1040 0;
#X obj 980 1220 sig~;
#X msg 980 1192 0;
#X obj 980 1163 loadbang;
#X obj 980 1270 *~;
#X obj 1090 1320 *~;
#X obj 470 860 random 1000;
#X obj 1320 901 random 1000;
#X obj 130 1230 line~;
#X obj 380 1250 line~;
#X obj 910 1240 line~;
#X obj 1130 1290 line~;
#X obj 1373 235 phasor~;
#X msg 1372 171 1;
#X obj 1402 322 wrap~;
#X obj 1402 295 +~ 0.5;
#X obj 1372 196 /;
#X obj 1372 143 t b f;
#X msg 130 1200 \$1 2;
#X msg 380 1220 \$1 2;
#X msg 1130 1260 \$1 2;
#X msg 910 1210 \$1 2;
#X obj 1400 360 *~;
#X obj 1338 358 *~;
#X msg 1267 167 1;
#X msg 1308 168 0;
#X obj 1288 238 line~;
#X msg 1288 208 \$1 5;
#X obj 700 710 *~;
#X obj 719 667 line~;
#X obj 1010 740 *~;
#X obj 870 660 line~;
#X msg 680 590 1;
#X msg 721 591 0;
#X msg 720 630 \$1 5;
#X msg 832 592 1;
#X msg 873 593 0;
#X msg 872 632 \$1 5;
#X obj 780 550 sel 0;
#X obj 1400 270 -~ 0.5;
#X text 1413 165 This Phasor "cuts out" the grains according to the
window size \, if the pitch is 0 \, because the other Phasor is stopped
(freq=0) once the pitch is zero;
#X obj 670 1480 outlet~;
#X obj 466 932 sig~;
#X obj 1310 960 sig~;
#X obj 980 820 threshold~ 0.999 10 0.1 10;
#X obj 200 800 threshold~ 0.999 10 0.1 10;
#X obj 500 93 - 3;
#X obj 720 91 / 1.27;
#X obj 380 94 / 127;
#X obj 380 150 int;
#X obj 380 120 * 5000;
#X obj 260 110 s \$0showjit2;
#X obj 380 64 r \$0jitter2;
#X obj 500 50 r \$0oktave2;
#X obj 600 50 r \$0fine2;
#X obj 720 60 r \$0dense2;
#X obj 830 110 r \$0window2;
#X obj 840 80 s \$0showwin2;
#X obj 620 20 s \$0showpitch2;
#X obj 720 140 s \$0showdense2;
#X connect 0 0 105 0;
#X connect 1 0 43 0;
#X connect 2 0 14 0;
#X connect 3 0 10 0;
#X connect 4 0 48 0;
#X connect 5 0 6 0;
#X connect 6 0 0 0;
#X connect 7 0 8 0;
#X connect 7 0 94 0;
#X connect 8 0 42 0;
#X connect 9 0 3 0;
#X connect 9 1 3 1;
#X connect 10 0 18 0;
#X connect 10 0 102 0;
#X connect 11 0 7 0;
#X connect 12 0 13 0;
#X connect 13 0 4 0;
#X connect 14 0 16 0;
#X connect 15 0 2 0;
#X connect 16 0 3 0;
#X connect 18 0 1 0;
#X connect 18 0 11 0;
#X connect 18 0 92 0;
#X connect 19 0 40 0;
#X connect 21 0 69 0;
#X connect 22 0 23 0;
#X connect 23 0 21 0;
#X connect 24 0 6 1;
#X connect 25 0 24 1;
#X connect 26 0 5 1;
#X connect 27 0 8 1;
#X connect 27 0 1 1;
#X connect 28 0 27 0;
#X connect 29 0 33 0;
#X connect 30 0 32 0;
#X connect 31 0 37 0;
#X connect 32 0 33 0;
#X connect 32 1 31 1;
#X connect 33 0 31 0;
#X connect 34 0 30 0;
#X connect 35 0 36 0;
#X connect 36 0 15 0;
#X connect 36 0 122 0;
#X connect 37 0 35 0;
#X connect 38 0 39 0;
#X connect 38 0 28 0;
#X connect 38 0 121 0;
#X connect 39 0 9 0;
#X connect 39 0 81 0;
#X connect 40 0 38 0;
#X connect 41 0 19 0;
#X connect 42 0 25 0;
#X connect 43 0 26 0;
#X connect 44 0 47 0;
#X connect 45 0 44 0;
#X connect 46 0 45 0;
#X connect 47 0 5 0;
#X connect 48 0 5 0;
#X connect 49 0 50 0;
#X connect 49 0 70 0;
#X connect 50 0 52 0;
#X connect 51 0 53 0;
#X connect 51 0 54 0;
#X connect 51 1 55 0;
#X connect 51 1 56 0;
#X connect 52 0 51 0;
#X connect 53 0 82 0;
#X connect 54 0 83 0;
#X connect 55 0 83 0;
#X connect 56 0 82 0;
#X connect 57 0 58 0;
#X connect 57 0 71 0;
#X connect 58 0 60 0;
#X connect 59 0 61 0;
#X connect 59 0 62 0;
#X connect 59 1 63 0;
#X connect 59 1 64 0;
#X connect 60 0 59 0;
#X connect 61 0 85 0;
#X connect 62 0 84 0;
#X connect 63 0 84 0;
#X connect 64 0 85 0;
#X connect 65 0 68 0;
#X connect 66 0 65 0;
#X connect 67 0 66 0;
#X connect 68 0 24 0;
#X connect 69 0 24 0;
#X connect 70 0 106 0;
#X connect 71 0 107 0;
#X connect 72 0 47 1;
#X connect 73 0 48 1;
#X connect 74 0 68 1;
#X connect 75 0 69 1;
#X connect 76 0 87 0;
#X connect 76 0 103 0;
#X connect 77 0 80 0;
#X connect 78 0 86 0;
#X connect 79 0 78 0;
#X connect 80 0 76 0;
#X connect 81 0 77 0;
#X connect 81 1 80 1;
#X connect 82 0 72 0;
#X connect 83 0 73 0;
#X connect 84 0 75 0;
#X connect 85 0 74 0;
#X connect 86 0 22 0;
#X connect 86 0 108 0;
#X connect 87 0 12 0;
#X connect 87 0 109 0;
#X connect 88 0 91 0;
#X connect 89 0 91 0;
#X connect 90 0 87 1;
#X connect 90 0 86 1;
#X connect 91 0 90 0;
#X connect 92 0 12 0;
#X connect 92 0 109 0;
#X connect 93 0 92 1;
#X connect 94 0 22 0;
#X connect 94 0 108 0;
#X connect 95 0 94 1;
#X connect 96 0 98 0;
#X connect 97 0 98 0;
#X connect 98 0 93 0;
#X connect 99 0 101 0;
#X connect 100 0 101 0;
#X connect 101 0 95 0;
#X connect 102 0 88 0;
#X connect 102 0 97 0;
#X connect 102 0 100 0;
#X connect 102 1 96 0;
#X connect 102 1 89 0;
#X connect 102 1 99 0;
#X connect 103 0 79 0;
#X connect 106 0 43 1;
#X connect 107 0 42 1;
#X connect 108 0 57 0;
#X connect 109 0 49 0;
#X connect 110 0 29 0;
#X connect 111 0 52 1;
#X connect 111 0 60 1;
#X connect 111 0 123 0;
#X connect 112 0 114 0;
#X connect 113 0 70 1;
#X connect 113 0 71 1;
#X connect 113 0 115 0;
#X connect 114 0 113 0;
#X connect 116 0 112 0;
#X connect 117 0 110 0;
#X connect 118 0 34 0;
#X connect 119 0 111 0;
#X connect 120 0 41 0;
#X restore 746 -170 pd grain2;
#X obj 931 -657 cnv 15 156 295 empty empty grain3 87 166 0 18 #404040
#ffffff 0;
#X obj 940 -573 vradio 18 0 0 8 \$0oktave3 \$0oktave3_r empty 0 -8
0 10 #606060 #fc8000 #000000 3;
#X obj 940 -421 hsl 82 15 0 127 0 0 \$0fine3 \$0fine3_r fine 32 6 0
10 #606060 #fc8000 #fcfcfc 0 1;
#X obj 1034 -634 nbx 4 14 -1e+37 1e+37 0 0 empty \$0showwin3 empty
0 -8 0 10 #fcfcfc #000000 #ffffff 100 256 0;
#X obj 941 -630 nbx 4 14 -1e+37 1e+37 0 0 empty \$0showdelay3 empty
0 -8 0 10 #fcfcfc #000000 #000000 750 256 0;
#X obj 961 -515 cnv 10 25 10 empty empty 0 1 3 0 10 #404040 #ffffff
0;
#X obj 961 -497 cnv 10 25 10 empty empty 1 1 3 0 10 #404040 #ffffff
0;
#X obj 961 -479 cnv 10 25 10 empty empty 2 1 3 0 10 #404040 #ffffff
0;
#X obj 961 -461 cnv 10 25 10 empty empty 3 1 3 0 10 #404040 #ffffff
0;
#X obj 961 -443 cnv 10 25 10 empty empty 4 1 3 0 10 #404040 #ffffff
0;
#X obj 964 -532 cnv 10 25 10 empty empty -1 -4 2 0 10 #404040 #ffffff
0;
#X obj 964 -551 cnv 10 25 10 empty empty -2 -4 2 0 10 #404040 #ffffff
0;
#X obj 964 -569 cnv 10 25 10 empty empty -3 -4 2 0 10 #404040 #ffffff
0;
#X obj 975 -436 nbx 5 14 -1e+37 1e+37 0 0 empty \$0showpitch3 pitch
17 -8 0 10 #fcfcfc #000000 #ffffff 0 256 0;
#X obj 941 -616 hsl 128 15 0 127 0 0 \$0delay3 \$0delay3_r delay 51
6 0 10 #606060 #fc8000 #ffffff 4320 1;
#X obj 941 -649 hsl 128 15 0 127 0 0 \$0window3 \$0window3_r window
49 6 0 10 #606060 #fc8000 #ffffff 1370 1;
#X obj 1035 -476 vsl 39 50 0 127 0 0 \$0volume3 \$0volume3_r volume
1 44 0 10 #606060 #fc8000 #ffffff 4900 1;
#X obj 982 -558 hsl 87 15 0 127 0 0 \$0dense3 \$0dense3_r density 23
6 0 10 #606060 #fc8000 #ffffff 8600 1;
#X obj 1035 -420 nbx 4 14 -1e+37 1e+37 0 0 empty \$0showvol3 empty
0 -8 0 10 #fcfcfc #000000 #ffffff 1 256 0;
#X obj 941 -598 hsl 89 15 0 127 0 0 \$0fb3 \$0fb3_r feedback 21 6 0
10 #606060 #fc8000 #ffffff 0 1;
#X obj 995 -583 nbx 4 14 -1e+37 1e+37 0 0 empty \$0showfb3 empty 0
-8 0 10 #fcfcfc #000000 #000000 0 256 0;
#X obj 1034 -543 nbx 4 14 -1e+37 1e+37 0 0 empty \$0showdense3 empty
0 -8 0 10 #fcfcfc #000000 #ffffff 100 256 0;
#X obj 982 -521 hsl 87 15 0 127 0 0 \$0jitter3 \$0jitter3_r jitter
26 6 0 10 #606060 #fc8000 #ffffff 0 1;
#X obj 982 -536 nbx 4 14 -1e+37 1e+37 0 0 empty \$0showjit3 empty 0
-8 0 10 #fcfcfc #000000 #ffffff 0 256 0;
#X obj 1100 -657 cnv 15 156 295 empty empty grain4 87 166 0 18 #404040
#fefefe 0;
#X obj 1109 -573 vradio 18 0 0 8 \$0oktave4 \$0oktave4_r empty 0 -8
0 10 #606060 #fc8000 #000000 3;
#X obj 1109 -421 hsl 82 15 0 127 0 0 \$0fine4 \$0fine4_r fine 32 6
0 10 #606060 #fc8000 #fcfcfc 0 1;
#X obj 1203 -634 nbx 4 14 -1e+37 1e+37 0 0 empty \$0showwin4 empty
0 -8 0 10 #fcfcfc #000000 #ffffff 100 256 0;
#X obj 1110 -630 nbx 4 14 -1e+37 1e+37 0 0 empty \$0showdelay4 empty
0 -8 0 10 #fcfcfc #000000 #000000 1000 256 0;
#X obj 1130 -515 cnv 10 25 10 empty empty 0 1 3 0 10 #404040 #ffffff
0;
#X obj 1130 -497 cnv 10 25 10 empty empty 1 1 3 0 10 #404040 #ffffff
0;
#X obj 1130 -479 cnv 10 25 10 empty empty 2 1 3 0 10 #404040 #ffffff
0;
#X obj 1130 -461 cnv 10 25 10 empty empty 3 1 3 0 10 #404040 #ffffff
0;
#X obj 1130 -443 cnv 10 25 10 empty empty 4 1 3 0 10 #404040 #ffffff
0;
#X obj 1133 -532 cnv 10 25 10 empty empty -1 -4 2 0 10 #404040 #ffffff
0;
#X obj 1133 -551 cnv 10 25 10 empty empty -2 -4 2 0 10 #404040 #ffffff
0;
#X obj 1133 -569 cnv 10 25 10 empty empty -3 -4 2 0 10 #404040 #ffffff
0;
#X obj 1144 -436 nbx 5 14 -1e+37 1e+37 0 0 empty \$0showpitch4 pitch
17 -8 0 10 #fcfcfc #000000 #ffffff 0 256 0;
#X obj 1110 -616 hsl 128 15 0 127 0 0 \$0delay4 \$0delay4_r delay 51
6 0 10 #606060 #fc8000 #ffffff 5087 1;
#X obj 1110 -649 hsl 128 15 0 127 0 0 \$0window4 \$0window4_r window
49 6 0 10 #606060 #fc8000 #ffffff 1370 1;
#X obj 1204 -476 vsl 39 50 0 127 0 0 \$0volume4 \$0volume4_r volume
1 44 0 10 #606060 #fc8000 #ffffff 4900 1;
#X obj 1151 -558 hsl 87 15 0 127 0 0 \$0dense4 \$0dense4_r density
23 6 0 10 #606060 #fc8000 #ffffff 8600 1;
#X obj 1204 -420 nbx 4 14 -1e+37 1e+37 0 0 empty \$0showvol4 empty
0 -8 0 10 #fcfcfc #000000 #ffffff 1 256 0;
#X obj 1110 -598 hsl 89 15 0 127 0 0 \$0fb4 \$0fb4_r feedback 21 6
0 10 #606060 #fc8000 #ffffff 0 1;
#X obj 1164 -583 nbx 4 14 -1e+37 1e+37 0 0 empty \$0showfb4 empty 0
-8 0 10 #fcfcfc #000000 #000000 0 256 0;
#X obj 1203 -543 nbx 4 14 -1e+37 1e+37 0 0 empty \$0showdense4 empty
0 -8 0 10 #fcfcfc #000000 #ffffff 100 256 0;
#X obj 1151 -521 hsl 87 15 0 127 0 0 \$0jitter4 \$0jitter4_r jitter
26 6 0 10 #606060 #fc8000 #ffffff 0 1;
#X obj 1151 -536 nbx 4 14 -1e+37 1e+37 0 0 empty \$0showjit4 empty
0 -8 0 10 #fcfcfc #000000 #ffffff 0 256 0;
#N canvas 0 29 1600 810 grain3 0;
#X obj 670 1450 hip~ 5;
#X obj 404 885 *~;
#X obj 500 318 exp;
#X obj 500 410 /;
#X obj 321 1217 cos~;
#X obj 370 1360 *~;
#X obj 670 1420 +~;
#X obj 1080 687 wrap~;
#X obj 1230 920 *~;
#X obj 826 375 t b f;
#X floatatom 500 432 6 0 0 0 - - -, f 6;
#X obj 1080 660 +~ 0.5;
#X obj 320 1170 -~ 0.5;
#X obj 320 1196 *~ 0.5;
#X obj 500 361 - 1;
#X obj 500 296 * 0.05776;
#X obj 500 383 * -1;
#X text 535 403 tape head;
#X obj 500 500 phasor~;
#X obj 829 203 max 1;
#X text 536 416 rotation freq;
#X obj 1080 1220 cos~;
#X obj 1080 1164 -~ 0.5;
#X obj 1080 1190 *~ 0.5;
#X obj 1070 1390 *~;
#X obj 1229 1025 vd~ \$0del;
#X obj 402 992 vd~ \$0del;
#X obj 780 456 line~;
#X obj 780 430 pack 0 200;
#X obj 500 117 * 12;
#X obj 598 99 * 12;
#X obj 501 173 - 1;
#X obj 598 124 t b f;
#X obj 500 145 f;
#X obj 598 75 / 127;
#X obj 501 220 int;
#X obj 500 242 / 1000;
#X obj 500 198 * 1000;
#X obj 829 263 int;
#X obj 830 340 * 0.001;
#X obj 828 238 + 0.5;
#X obj 830 150 pow 1.7582;
#X obj 1229 995 +~;
#X obj 402 962 +~;
#X obj 210 1200 sig~;
#X msg 210 1160 0;
#X obj 210 1120 loadbang;
#X obj 210 1260 *~;
#X obj 350 1280 *~;
#X obj 200 838 bng 15 250 50 0 empty empty empty 17 7 0 10 #fcfcfc
#000000 #000000;
#X obj 200 868 random 100;
#X obj 200 958 sel 0 1;
#X obj 200 898 < 50;
#X msg 190 1018 1;
#X msg 220 1018 0;
#X msg 260 1028 1;
#X msg 290 1028 0;
#X obj 980 858 bng 15 250 50 0 empty empty empty 17 7 0 10 #fcfcfc
#000000 #000000;
#X obj 980 888 random 100;
#X obj 980 978 sel 0 1;
#X obj 980 918 < 50;
#X msg 970 1038 1;
#X msg 1000 1038 0;
#X msg 1040 1040 1;
#X msg 1070 1040 0;
#X obj 980 1220 sig~;
#X msg 980 1192 0;
#X obj 980 1163 loadbang;
#X obj 980 1270 *~;
#X obj 1090 1320 *~;
#X obj 470 860 random 1000;
#X obj 1320 901 random 1000;
#X obj 130 1230 line~;
#X obj 380 1250 line~;
#X obj 910 1240 line~;
#X obj 1130 1290 line~;
#X obj 1373 235 phasor~;
#X msg 1372 171 1;
#X obj 1402 322 wrap~;
#X obj 1402 295 +~ 0.5;
#X obj 1372 196 /;
#X obj 1372 143 t b f;
#X msg 130 1200 \$1 2;
#X msg 380 1220 \$1 2;
#X msg 1130 1260 \$1 2;
#X msg 910 1210 \$1 2;
#X obj 1400 360 *~;
#X obj 1338 358 *~;
#X msg 1267 167 1;
#X msg 1308 168 0;
#X obj 1288 238 line~;
#X msg 1288 208 \$1 5;
#X obj 700 710 *~;
#X obj 719 667 line~;
#X obj 1010 740 *~;
#X obj 870 660 line~;
#X msg 680 590 1;
#X msg 721 591 0;
#X msg 720 630 \$1 5;
#X msg 832 592 1;
#X msg 873 593 0;
#X msg 872 632 \$1 5;
#X obj 780 550 sel 0;
#X obj 1400 270 -~ 0.5;
#X text 1413 165 This Phasor "cuts out" the grains according to the
window size \, if the pitch is 0 \, because the other Phasor is stopped
(freq=0) once the pitch is zero;
#X obj 670 1480 outlet~;
#X obj 466 932 sig~;
#X obj 1310 960 sig~;
#X obj 980 820 threshold~ 0.999 10 0.1 10;
#X obj 200 800 threshold~ 0.999 10 0.1 10;
#X obj 500 93 - 3;
#X obj 720 91 / 1.27;
#X obj 380 94 / 127;
#X obj 380 150 int;
#X obj 380 120 * 5000;
#X obj 260 110 s \$0showjit3;
#X obj 380 64 r \$0jitter3;
#X obj 500 50 r \$0oktave3;
#X obj 620 20 s \$0showpitch3;
#X obj 720 60 r \$0dense3;
#X obj 840 80 s \$0showwin3;
#X obj 600 50 r \$0fine3;
#X obj 830 110 r \$0window3;
#X obj 750 30 s \$0showdense3;
#X connect 0 0 105 0;
#X connect 1 0 43 0;
#X connect 2 0 14 0;
#X connect 3 0 10 0;
#X connect 4 0 48 0;
#X connect 5 0 6 0;
#X connect 6 0 0 0;
#X connect 7 0 8 0;
#X connect 7 0 94 0;
#X connect 8 0 42 0;
#X connect 9 0 3 0;
#X connect 9 1 3 1;
#X connect 10 0 18 0;
#X connect 10 0 102 0;
#X connect 11 0 7 0;
#X connect 12 0 13 0;
#X connect 13 0 4 0;
#X connect 14 0 16 0;
#X connect 15 0 2 0;
#X connect 16 0 3 0;
#X connect 18 0 1 0;
#X connect 18 0 11 0;
#X connect 18 0 92 0;
#X connect 19 0 40 0;
#X connect 21 0 69 0;
#X connect 22 0 23 0;
#X connect 23 0 21 0;
#X connect 24 0 6 1;
#X connect 25 0 24 1;
#X connect 26 0 5 1;
#X connect 27 0 8 1;
#X connect 27 0 1 1;
#X connect 28 0 27 0;
#X connect 29 0 33 0;
#X connect 30 0 32 0;
#X connect 31 0 37 0;
#X connect 32 0 33 0;
#X connect 32 1 31 1;
#X connect 33 0 31 0;
#X connect 34 0 30 0;
#X connect 35 0 36 0;
#X connect 36 0 15 0;
#X connect 36 0 118 0;
#X connect 37 0 35 0;
#X connect 38 0 39 0;
#X connect 38 0 28 0;
#X connect 38 0 120 0;
#X connect 39 0 9 0;
#X connect 39 0 81 0;
#X connect 40 0 38 0;
#X connect 41 0 19 0;
#X connect 42 0 25 0;
#X connect 43 0 26 0;
#X connect 44 0 47 0;
#X connect 45 0 44 0;
#X connect 46 0 45 0;
#X connect 47 0 5 0;
#X connect 48 0 5 0;
#X connect 49 0 50 0;
#X connect 49 0 70 0;
#X connect 50 0 52 0;
#X connect 51 0 53 0;
#X connect 51 0 54 0;
#X connect 51 1 55 0;
#X connect 51 1 56 0;
#X connect 52 0 51 0;
#X connect 53 0 82 0;
#X connect 54 0 83 0;
#X connect 55 0 83 0;
#X connect 56 0 82 0;
#X connect 57 0 58 0;
#X connect 57 0 71 0;
#X connect 58 0 60 0;
#X connect 59 0 61 0;
#X connect 59 0 62 0;
#X connect 59 1 63 0;
#X connect 59 1 64 0;
#X connect 60 0 59 0;
#X connect 61 0 85 0;
#X connect 62 0 84 0;
#X connect 63 0 84 0;
#X connect 64 0 85 0;
#X connect 65 0 68 0;
#X connect 66 0 65 0;
#X connect 67 0 66 0;
#X connect 68 0 24 0;
#X connect 69 0 24 0;
#X connect 70 0 106 0;
#X connect 71 0 107 0;
#X connect 72 0 47 1;
#X connect 73 0 48 1;
#X connect 74 0 68 1;
#X connect 75 0 69 1;
#X connect 76 0 87 0;
#X connect 76 0 103 0;
#X connect 77 0 80 0;
#X connect 78 0 86 0;
#X connect 79 0 78 0;
#X connect 80 0 76 0;
#X connect 81 0 77 0;
#X connect 81 1 80 1;
#X connect 82 0 72 0;
#X connect 83 0 73 0;
#X connect 84 0 75 0;
#X connect 85 0 74 0;
#X connect 86 0 22 0;
#X connect 86 0 108 0;
#X connect 87 0 12 0;
#X connect 87 0 109 0;
#X connect 88 0 91 0;
#X connect 89 0 91 0;
#X connect 90 0 87 1;
#X connect 90 0 86 1;
#X connect 91 0 90 0;
#X connect 92 0 12 0;
#X connect 92 0 109 0;
#X connect 93 0 92 1;
#X connect 94 0 22 0;
#X connect 94 0 108 0;
#X connect 95 0 94 1;
#X connect 96 0 98 0;
#X connect 97 0 98 0;
#X connect 98 0 93 0;
#X connect 99 0 101 0;
#X connect 100 0 101 0;
#X connect 101 0 95 0;
#X connect 102 0 88 0;
#X connect 102 0 97 0;
#X connect 102 0 100 0;
#X connect 102 1 96 0;
#X connect 102 1 89 0;
#X connect 102 1 99 0;
#X connect 103 0 79 0;
#X connect 106 0 43 1;
#X connect 107 0 42 1;
#X connect 108 0 57 0;
#X connect 109 0 49 0;
#X connect 110 0 29 0;
#X connect 111 0 52 1;
#X connect 111 0 60 1;
#X connect 111 0 123 0;
#X connect 112 0 114 0;
#X connect 113 0 70 1;
#X connect 113 0 71 1;
#X connect 113 0 115 0;
#X connect 114 0 113 0;
#X connect 116 0 112 0;
#X connect 117 0 110 0;
#X connect 119 0 111 0;
#X connect 121 0 34 0;
#X connect 122 0 41 0;
#X restore 1136 -162 pd grain3;
#N canvas 275 201 1066 547 grain4 0;
#X obj 670 1450 hip~ 5;
#X obj 404 885 *~;
#X obj 500 318 exp;
#X obj 500 410 /;
#X obj 321 1217 cos~;
#X obj 370 1360 *~;
#X obj 670 1420 +~;
#X obj 1080 687 wrap~;
#X obj 1230 920 *~;
#X obj 826 375 t b f;
#X floatatom 500 432 6 0 0 0 - - -, f 6;
#X obj 1080 660 +~ 0.5;
#X obj 320 1170 -~ 0.5;
#X obj 320 1196 *~ 0.5;
#X obj 500 361 - 1;
#X obj 500 296 * 0.05776;
#X obj 500 383 * -1;
#X text 535 403 tape head;
#X obj 500 500 phasor~;
#X obj 829 203 max 1;
#X text 536 416 rotation freq;
#X obj 1080 1220 cos~;
#X obj 1080 1164 -~ 0.5;
#X obj 1080 1190 *~ 0.5;
#X obj 1070 1390 *~;
#X obj 1229 1025 vd~ \$0del;
#X obj 402 992 vd~ \$0del;
#X obj 780 456 line~;
#X obj 780 430 pack 0 200;
#X obj 500 117 * 12;
#X obj 598 99 * 12;
#X obj 501 173 - 1;
#X obj 598 124 t b f;
#X obj 500 145 f;
#X obj 598 75 / 127;
#X obj 501 220 int;
#X obj 500 242 / 1000;
#X obj 500 198 * 1000;
#X obj 829 263 int;
#X obj 830 340 * 0.001;
#X obj 828 238 + 0.5;
#X obj 830 150 pow 1.7582;
#X obj 1229 995 +~;
#X obj 402 962 +~;
#X obj 210 1200 sig~;
#X msg 210 1160 0;
#X obj 210 1120 loadbang;
#X obj 210 1260 *~;
#X obj 350 1280 *~;
#X obj 200 838 bng 15 250 50 0 empty empty empty 17 7 0 10 #fcfcfc
#000000 #000000;
#X obj 200 868 random 100;
#X obj 200 958 sel 0 1;
#X obj 200 898 < 50;
#X msg 190 1018 1;
#X msg 220 1018 0;
#X msg 260 1028 1;
#X msg 290 1028 0;
#X obj 980 858 bng 15 250 50 0 empty empty empty 17 7 0 10 #fcfcfc
#000000 #000000;
#X obj 980 888 random 100;
#X obj 980 978 sel 0 1;
#X obj 980 918 < 50;
#X msg 970 1038 1;
#X msg 1000 1038 0;
#X msg 1040 1040 1;
#X msg 1070 1040 0;
#X obj 980 1220 sig~;
#X msg 980 1192 0;
#X obj 980 1163 loadbang;
#X obj 980 1270 *~;
#X obj 1090 1320 *~;
#X obj 470 860 random 1000;
#X obj 1320 901 random 1000;
#X obj 130 1230 line~;
#X obj 380 1250 line~;
#X obj 910 1240 line~;
#X obj 1130 1290 line~;
#X obj 1373 235 phasor~;
#X msg 1372 171 1;
#X obj 1402 322 wrap~;
#X obj 1402 295 +~ 0.5;
#X obj 1372 196 /;
#X obj 1372 143 t b f;
#X msg 130 1200 \$1 2;
#X msg 380 1220 \$1 2;
#X msg 1130 1260 \$1 2;
#X msg 910 1210 \$1 2;
#X obj 1400 360 *~;
#X obj 1338 358 *~;
#X msg 1267 167 1;
#X msg 1308 168 0;
#X obj 1288 238 line~;
#X msg 1288 208 \$1 5;
#X obj 700 710 *~;
#X obj 719 667 line~;
#X obj 1010 740 *~;
#X obj 870 660 line~;
#X msg 680 590 1;
#X msg 721 591 0;
#X msg 720 630 \$1 5;
#X msg 832 592 1;
#X msg 873 593 0;
#X msg 872 632 \$1 5;
#X obj 780 550 sel 0;
#X obj 1400 270 -~ 0.5;
#X text 1413 165 This Phasor "cuts out" the grains according to the
window size \, if the pitch is 0 \, because the other Phasor is stopped
(freq=0) once the pitch is zero;
#X obj 670 1480 outlet~;
#X obj 466 932 sig~;
#X obj 1310 960 sig~;
#X obj 980 820 threshold~ 0.999 10 0.1 10;
#X obj 200 800 threshold~ 0.999 10 0.1 10;
#X obj 500 93 - 3;
#X obj 720 91 / 1.27;
#X obj 380 94 / 127;
#X obj 380 150 int;
#X obj 380 120 * 5000;
#X obj 260 110 s \$0showjit4;
#X obj 380 60 r \$0jitter4;
#X obj 500 50 r \$0oktave4;
#X obj 620 20 s \$0showpitch4;
#X obj 600 50 r \$0fine4;
#X obj 750 30 s \$0showdense4;
#X obj 720 60 r \$0dense4;
#X obj 840 80 s \$0showwin4;
#X obj 830 110 r \$0window4;
#X connect 0 0 105 0;
#X connect 1 0 43 0;
#X connect 2 0 14 0;
#X connect 3 0 10 0;
#X connect 4 0 48 0;
#X connect 5 0 6 0;
#X connect 6 0 0 0;
#X connect 7 0 8 0;
#X connect 7 0 94 0;
#X connect 8 0 42 0;
#X connect 9 0 3 0;
#X connect 9 1 3 1;
#X connect 10 0 18 0;
#X connect 10 0 102 0;
#X connect 11 0 7 0;
#X connect 12 0 13 0;
#X connect 13 0 4 0;
#X connect 14 0 16 0;
#X connect 15 0 2 0;
#X connect 16 0 3 0;
#X connect 18 0 1 0;
#X connect 18 0 11 0;
#X connect 18 0 92 0;
#X connect 19 0 40 0;
#X connect 21 0 69 0;
#X connect 22 0 23 0;
#X connect 23 0 21 0;
#X connect 24 0 6 1;
#X connect 25 0 24 1;
#X connect 26 0 5 1;
#X connect 27 0 8 1;
#X connect 27 0 1 1;
#X connect 28 0 27 0;
#X connect 29 0 33 0;
#X connect 30 0 32 0;
#X connect 31 0 37 0;
#X connect 32 0 33 0;
#X connect 32 1 31 1;
#X connect 33 0 31 0;
#X connect 34 0 30 0;
#X connect 35 0 36 0;
#X connect 36 0 15 0;
#X connect 36 0 118 0;
#X connect 37 0 35 0;
#X connect 38 0 39 0;
#X connect 38 0 28 0;
#X connect 38 0 122 0;
#X connect 39 0 9 0;
#X connect 39 0 81 0;
#X connect 40 0 38 0;
#X connect 41 0 19 0;
#X connect 42 0 25 0;
#X connect 43 0 26 0;
#X connect 44 0 47 0;
#X connect 45 0 44 0;
#X connect 46 0 45 0;
#X connect 47 0 5 0;
#X connect 48 0 5 0;
#X connect 49 0 50 0;
#X connect 49 0 70 0;
#X connect 50 0 52 0;
#X connect 51 0 53 0;
#X connect 51 0 54 0;
#X connect 51 1 55 0;
#X connect 51 1 56 0;
#X connect 52 0 51 0;
#X connect 53 0 82 0;
#X connect 54 0 83 0;
#X connect 55 0 83 0;
#X connect 56 0 82 0;
#X connect 57 0 58 0;
#X connect 57 0 71 0;
#X connect 58 0 60 0;
#X connect 59 0 61 0;
#X connect 59 0 62 0;
#X connect 59 1 63 0;
#X connect 59 1 64 0;
#X connect 60 0 59 0;
#X connect 61 0 85 0;
#X connect 62 0 84 0;
#X connect 63 0 84 0;
#X connect 64 0 85 0;
#X connect 65 0 68 0;
#X connect 66 0 65 0;
#X connect 67 0 66 0;
#X connect 68 0 24 0;
#X connect 69 0 24 0;
#X connect 70 0 106 0;
#X connect 71 0 107 0;
#X connect 72 0 47 1;
#X connect 73 0 48 1;
#X connect 74 0 68 1;
#X connect 75 0 69 1;
#X connect 76 0 87 0;
#X connect 76 0 103 0;
#X connect 77 0 80 0;
#X connect 78 0 86 0;
#X connect 79 0 78 0;
#X connect 80 0 76 0;
#X connect 81 0 77 0;
#X connect 81 1 80 1;
#X connect 82 0 72 0;
#X connect 83 0 73 0;
#X connect 84 0 75 0;
#X connect 85 0 74 0;
#X connect 86 0 22 0;
#X connect 86 0 108 0;
#X connect 87 0 12 0;
#X connect 87 0 109 0;
#X connect 88 0 91 0;
#X connect 89 0 91 0;
#X connect 90 0 87 1;
#X connect 90 0 86 1;
#X connect 91 0 90 0;
#X connect 92 0 12 0;
#X connect 92 0 109 0;
#X connect 93 0 92 1;
#X connect 94 0 22 0;
#X connect 94 0 108 0;
#X connect 95 0 94 1;
#X connect 96 0 98 0;
#X connect 97 0 98 0;
#X connect 98 0 93 0;
#X connect 99 0 101 0;
#X connect 100 0 101 0;
#X connect 101 0 95 0;
#X connect 102 0 88 0;
#X connect 102 0 97 0;
#X connect 102 0 100 0;
#X connect 102 1 96 0;
#X connect 102 1 89 0;
#X connect 102 1 99 0;
#X connect 103 0 79 0;
#X connect 106 0 43 1;
#X connect 107 0 42 1;
#X connect 108 0 57 0;
#X connect 109 0 49 0;
#X connect 110 0 29 0;
#X connect 111 0 52 1;
#X connect 111 0 60 1;
#X connect 111 0 120 0;
#X connect 112 0 114 0;
#X connect 113 0 70 1;
#X connect 113 0 71 1;
#X connect 113 0 115 0;
#X connect 114 0 113 0;
#X connect 116 0 112 0;
#X connect 117 0 110 0;
#X connect 119 0 34 0;
#X connect 121 0 111 0;
#X connect 123 0 41 0;
#X restore 1549 -168 pd grain4;
#X obj -320 -60 *~;
#X obj 329 -570 hsl 217 25 0 127 0 0 \$0dry \$0dry_r wet 94 9 0 14
#606060 #fc8000 #ffffff 10800 1;
#X obj 780 379 *~;
#X msg -180 -90 \$1 15;
#X obj -180 -61 line~;
#X obj -180 -174 / 127;
#X obj -180 -197 r \$0dry;
#X obj -280 -190 s \$0drywet;
#X obj -179 -145 - 1;
#X obj -179 -116 abs;
#X msg 810 300 \$1 15;
#X obj 810 329 line~;
#X obj 391 -512 cnv 15 158 126 empty empty verb 52 32 0 18 #404040
#ffffff 0;
#X obj 409 -506 hsl 128 15 0 127 0 0 \$0revlevel \$0revlevel_r level
49 6 0 10 #606060 #fc8000 #ffffff 0 1;
#X obj 501 -491 nbx 4 14 -1e+37 1e+37 0 0 empty \$0showrevlevel empty
0 -8 0 10 #fcfcfc #000000 #ffffff 0 256 0;
#X obj 394 -477 nbx 4 14 -1e+37 1e+37 0 0 empty \$0showrevlife empty
0 -8 0 10 #fcfcfc #000000 #000000 85.0394 256 0;
#X obj 394 -463 hsl 128 15 0 127 0 0 \$0revlife \$0revlife_r life 51
6 0 10 #606060 #fc8000 #ffffff 10800 1;
#X obj 408 -439 hsl 128 15 0 127 0 0 \$0revxover \$0revxover_r x-over
47 6 0 10 #606060 #fc8000 #ffffff 2935 1;
#X obj 493 -424 nbx 5 14 -1e+37 1e+37 0 0 empty \$0showrevxover empty
0 -8 0 10 #fcfcfc #000000 #ffffff 1000 256 0;
#X obj 394 -421 nbx 4 14 -1e+37 1e+37 0 0 empty \$0showrevdamb empty
0 -8 0 10 #fcfcfc #000000 #000000 30 256 0;
#X obj 394 -407 hsl 128 15 0 127 0 0 \$0revdamp \$0revdamp_r damp 51
6 0 10 #606060 #fc8000 #ffffff 3810 1;
#X obj 180 789 / 1.27;
#X obj 320 780 s \$0showrevlevel;
#X obj 180 760 r \$0revlevel;
#X obj 230 810 r \$0revlife;
#X obj 230 839 / 1.27;
#X obj 270 780 / 100;
#X obj 310 840 s \$0showrevlife;
#X obj 500 740 r \$0revxover;
#X obj 500 780 pow 2.04441;
#X obj 500 840 int;
#X obj 665 745 r \$0revdamp;
#X obj 665 774 / 1.27;
#X obj 760 800 s \$0showrevdamb;
#X obj 540 870 s \$0showrevxover;
#X obj -470 -230 inlet~;
#X text -480 -1100 SAVE/LOAD Presets;
#X obj 60 1079 outlet~;
#X text -470 -1040 HELP-Patch;
#X text -460 -1000 Eingänge;
#X text -450 -960 Video;
#X text -450 -930 Webseite;
#X obj 329 -484 bng 28 250 50 0 \$0save \$0save_r save 2 -10 0 10 #7c7c7c
#fc8000 #fcfcfc;
#X obj 330 -451 bng 28 250 50 0 \$0load \$0load load 2 35 0 10 #7c7c7c
#fc8000 #fcfcfc;
#N canvas 400 29 800 810 saveload 0;
#N canvas 0 29 1600 810 writefile 0;
#X msg 20 170 clear;
#X obj 109 450 textfile;
#X msg 104 268 add;
#X obj 104 231 t b l;
#X obj 300 211 savepanel;
#X obj 300 102 del 50;
#X obj 300 75 bng 15 250 50 0 empty \$0save empty 17 7 0 10 #fcfcfc
#000000 #000000;
#X obj 611 306 bng 15 250 50 0 empty \$0load empty 17 7 0 10 #fcfcfc
#000000 #000000;
#X msg 638 394 clear;
#X msg 640 680 rewind;
#X text 688 517 Load;
#X obj 611 517 openpanel;
#X obj 611 397 bng 15 250 50 0 empty empty empty 17 7 0 10 #fcfcfc
#000000 #000000;
#X msg 611 540 read \$1;
#X obj 611 339 t b b;
#X obj 610 598 del 20;
#X obj 610 576 bng 15 250 50 0 empty empty empty 17 7 0 10 #fcfcfc
#000000 #000000;
#X obj 610 620 t b b;
#X msg 300 270 write \$1;
#X msg 300 183 symbol \$1;
#X msg 612 474 symbol \$1;
#X obj -10 80 r \$0save;
#X obj 110 200 r \$0sandfulllist;
#X obj -6 114 t b b;
#X obj -80 160 s \$0getlist;
#X obj 110 570 s \$0loadfulllist;
#X obj 300 156 pdcontrol;
#X msg 300 130 dir;
#X obj 610 446 pdcontrol;
#X msg 610 420 dir;
#X obj 104 294 list append;
#X connect 0 0 1 0;
#X connect 1 0 25 0;
#X connect 2 0 30 0;
#X connect 3 0 2 0;
#X connect 3 1 30 1;
#X connect 4 0 18 0;
#X connect 5 0 27 0;
#X connect 6 0 5 0;
#X connect 7 0 14 0;
#X connect 8 0 1 0;
#X connect 9 0 1 0;
#X connect 11 0 13 0;
#X connect 12 0 29 0;
#X connect 13 0 16 0;
#X connect 13 0 1 0;
#X connect 14 0 12 0;
#X connect 14 1 8 0;
#X connect 15 0 17 0;
#X connect 16 0 15 0;
#X connect 17 0 1 0;
#X connect 17 1 9 0;
#X connect 18 0 1 0;
#X connect 19 0 4 0;
#X connect 20 0 11 0;
#X connect 21 0 23 0;
#X connect 22 0 3 0;
#X connect 23 0 24 0;
#X connect 23 1 0 0;
#X connect 26 0 19 0;
#X connect 27 0 26 0;
#X connect 28 0 20 0;
#X connect 29 0 28 0;
#X connect 30 0 1 0;
#X restore -130 10 pd writefile;
#N canvas 0 29 1600 810 savelist 0;
#X obj 270 140 r \$0window1;
#X obj 290 170 r \$0window2;
#X obj 310 200 r \$0window3;
#X obj 340 230 r \$0window4;
#X obj 440 140 r \$0delay1;
#X obj 460 170 r \$0delay2;
#X obj 480 200 r \$0delay3;
#X obj 500 230 r \$0delay4;
#X obj 590 140 r \$0fb1;
#X obj 600 170 r \$0fb2;
#X obj 620 200 r \$0fb3;
#X obj 640 230 r \$0fb4;
#X obj 720 140 r \$0dense1;
#X obj 740 170 r \$0dense2;
#X obj 760 200 r \$0dense3;
#X obj 780 230 r \$0dense4;
#X obj 900 140 r \$0jitter1;
#X obj 920 170 r \$0jitter2;
#X obj 950 200 r \$0jitter3;
#X obj 980 230 r \$0jitter4;
#X obj 1100 140 r \$0volume1;
#X obj 1130 170 r \$0volume2;
#X obj 1160 200 r \$0volume3;
#X obj 1180 230 r \$0volume4;
#X obj 1290 140 r \$0fine1;
#X obj 1320 170 r \$0fine2;
#X obj 1340 200 r \$0fine3;
#X obj 1360 230 r \$0fine4;
#X obj 1450 140 r \$0oktave1;
#X obj 1470 170 r \$0oktave2;
#X obj 1490 200 r \$0oktave3;
#X obj 1520 230 r \$0oktave4;
#X obj 1590 130 r \$0revlevel;
#X obj 1640 170 r \$0revlife;
#X obj 1670 200 r \$0revdamp;
#X obj 1700 230 r \$0revxover;
#X obj 270 580 s \$0sandfulllist;
#X obj -340 190 r \$0getlist;
#X obj -430 150 r toolssavebang;
#X obj 450 590 s toolssavelists;
#X obj -349 278 f;
#X obj -228 119 loadbang;
#X obj -227 175 \$1;
#X obj -228 147 del 5;
#X obj -349 237 del;
#X obj -230 270 clip 1 69;
#X obj -350 330 t b f;
#X msg -325 388 symbol sand;
#X text -780 230 This section serves for the preset save/load function
of the levtools. https://github.com/MartenSeedorf/levTools/;
#X obj 180 70 r \$0dry;
#X obj 1770 140 r \$0fbloop1;
#X obj 380 490 pack s 0 0 0 0 0 0 0 0 0 0 0 0 0 0 0 0 0 0 0 0 0 0 0
0 0 0 0 0 0 0 0 0 0 0 0 0 0 0 0 0 0 0;
#X obj 1810 180 r \$0fbloop2;
#X obj 1850 210 r \$0fbloop3;
#X obj 1880 250 r \$0fbloop4;
#X connect 0 0 51 3;
#X connect 1 0 51 4;
#X connect 2 0 51 5;
#X connect 3 0 51 6;
#X connect 4 0 51 7;
#X connect 5 0 51 8;
#X connect 6 0 51 9;
#X connect 7 0 51 10;
#X connect 8 0 51 11;
#X connect 9 0 51 12;
#X connect 10 0 51 13;
#X connect 11 0 51 14;
#X connect 12 0 51 15;
#X connect 13 0 51 16;
#X connect 14 0 51 17;
#X connect 15 0 51 18;
#X connect 16 0 51 19;
#X connect 17 0 51 20;
#X connect 18 0 51 21;
#X connect 19 0 51 22;
#X connect 20 0 51 23;
#X connect 21 0 51 24;
#X connect 22 0 51 25;
#X connect 23 0 51 26;
#X connect 24 0 51 27;
#X connect 25 0 51 28;
#X connect 26 0 51 29;
#X connect 27 0 51 30;
#X connect 28 0 51 31;
#X connect 29 0 51 32;
#X connect 30 0 51 33;
#X connect 31 0 51 34;
#X connect 32 0 51 35;
#X connect 33 0 51 36;
#X connect 34 0 51 37;
#X connect 35 0 51 38;
#X connect 37 0 44 0;
#X connect 38 0 44 0;
#X connect 40 0 46 0;
#X connect 41 0 43 0;
#X connect 42 0 40 1;
#X connect 42 0 45 0;
#X connect 43 0 42 0;
#X connect 44 0 40 0;
#X connect 45 0 44 1;
#X connect 46 0 47 0;
#X connect 46 1 51 1;
#X connect 47 0 51 0;
#X connect 49 0 51 2;
#X connect 50 0 51 39;
#X connect 51 0 36 0;
#X connect 51 0 39 0;
#X connect 52 0 51 40;
#X connect 53 0 51 41;
#X connect 54 0 51 42;
#X restore 100 10 pd savelist;
#N canvas 0 29 1600 810 loadlist 0;
#X obj -10 230 s \$0window1_r;
#X obj 120 230 s \$0delay1_r;
#X obj 280 230 s \$0fb1_r;
#X obj 400 230 s \$0dense1_r;
#X obj 700 230 s \$0volume1_r;
#X obj 840 230 s \$0fine1_r;
#X obj 960 230 s \$0oktave1_r;
#X obj 10 268 s \$0window2_r;
#X obj 30 298 s \$0window3_r;
#X obj 60 328 s \$0window4_r;
#X obj 150 260 s \$0delay2_r;
#X obj 170 300 s \$0delay3_r;
#X obj 190 330 s \$0delay4_r;
#X obj 300 260 s \$0fb2_r;
#X obj 310 290 s \$0fb3_r;
#X obj 330 320 s \$0fb4_r;
#X obj 420 260 s \$0dense2_r;
#X obj 440 290 s \$0dense3_r;
#X obj 450 330 s \$0dense4_r;
#X obj 540 230 s \$0jitter1_r;
#X obj 560 260 s \$0jitter2_r;
#X obj 590 290 s \$0jitter3_r;
#X obj 600 320 s \$0jitter4_r;
#X obj 720 260 s \$0volume2_r;
#X obj 740 290 s \$0volume3_r;
#X obj 760 320 s \$0volume4_r;
#X obj 860 260 s \$0fine2_r;
#X obj 880 290 s \$0fine3_r;
#X obj 900 320 s \$0fine4_r;
#X obj 990 260 s \$0oktave2_r;
#X obj 1010 290 s \$0oktave3_r;
#X obj 1050 320 s \$0oktave4_r;
#X obj 1120 230 s \$0revlevel_r;
#X obj -20 200 s \$0dry_r;
#X obj 1160 260 s \$0revlife_r;
#X obj 1190 290 s \$0revdamp_r;
#X obj 1230 320 s \$0revxover_r;
#X obj 738 -88 r toolssavebank;
#X obj 740 30 route;
#X obj 830 -68 loadbang;
#X obj 831 -12 \$1;
#X obj 830 -40 del 5;
#X obj 740 0 route sand;
#X text 810 40 This section serves for the preset save/load function
of the levtools. https://github.com/MartenSeedorf/levTools/;
#X obj 40 30 r \$0loadfulllist;
#X obj 1320 230 s \$0fbloop1_r;
#X obj 740 100 unpack f f f f f f f f f f f f f f f f f f f f f f f
f f f f f f f f f f f f f f f f f f;
#X obj 1360 260 s \$0fbloop2_r;
#X obj 1390 290 s \$0fbloop3_r;
#X obj 1430 320 s \$0fbloop4_r;
#X obj 10 90 unpack s f f f f f f f f f f f f f f f f f f f f f f f
f f f f f f f f f f f f f f f f f f f;
#X connect 37 0 42 0;
#X connect 38 0 46 0;
#X connect 39 0 41 0;
#X connect 40 0 38 1;
#X connect 41 0 40 0;
#X connect 42 0 38 0;
#X connect 44 0 50 0;
#X connect 46 0 33 0;
#X connect 46 1 0 0;
#X connect 46 2 7 0;
#X connect 46 3 8 0;
#X connect 46 4 9 0;
#X connect 46 5 1 0;
#X connect 46 6 10 0;
#X connect 46 7 11 0;
#X connect 46 8 12 0;
#X connect 46 9 2 0;
#X connect 46 10 13 0;
#X connect 46 11 14 0;
#X connect 46 12 15 0;
#X connect 46 13 3 0;
#X connect 46 14 16 0;
#X connect 46 15 17 0;
#X connect 46 16 18 0;
#X connect 46 17 19 0;
#X connect 46 18 20 0;
#X connect 46 19 21 0;
#X connect 46 20 22 0;
#X connect 46 21 4 0;
#X connect 46 22 23 0;
#X connect 46 23 24 0;
#X connect 46 24 25 0;
#X connect 46 25 5 0;
#X connect 46 26 26 0;
#X connect 46 27 27 0;
#X connect 46 28 28 0;
#X connect 46 29 6 0;
#X connect 46 30 29 0;
#X connect 46 31 30 0;
#X connect 46 32 31 0;
#X connect 46 33 32 0;
#X connect 46 34 34 0;
#X connect 46 35 35 0;
#X connect 46 36 36 0;
#X connect 46 37 45 0;
#X connect 46 38 47 0;
#X connect 46 39 48 0;
#X connect 46 40 49 0;
#X connect 50 2 33 0;
#X connect 50 3 0 0;
#X connect 50 4 7 0;
#X connect 50 5 8 0;
#X connect 50 6 9 0;
#X connect 50 7 1 0;
#X connect 50 8 10 0;
#X connect 50 9 11 0;
#X connect 50 10 12 0;
#X connect 50 11 2 0;
#X connect 50 12 13 0;
#X connect 50 13 14 0;
#X connect 50 14 15 0;
#X connect 50 15 3 0;
#X connect 50 16 16 0;
#X connect 50 17 17 0;
#X connect 50 18 18 0;
#X connect 50 19 19 0;
#X connect 50 20 20 0;
#X connect 50 21 21 0;
#X connect 50 22 22 0;
#X connect 50 23 4 0;
#X connect 50 24 23 0;
#X connect 50 25 24 0;
#X connect 50 26 25 0;
#X connect 50 27 5 0;
#X connect 50 28 26 0;
#X connect 50 29 27 0;
#X connect 50 30 28 0;
#X connect 50 31 6 0;
#X connect 50 32 29 0;
#X connect 50 33 30 0;
#X connect 50 34 31 0;
#X connect 50 35 32 0;
#X connect 50 36 34 0;
#X connect 50 37 35 0;
#X connect 50 38 36 0;
#X connect 50 39 45 0;
#X connect 50 40 47 0;
#X connect 50 41 48 0;
#X connect 50 42 49 0;
#X restore -10 10 pd loadlist;
#X restore 120 -640 pd saveload;
#X obj 330 -910 inlet;
#X obj 331 -873 route float;
#X obj 330 -850 clip 0 127;
#X obj 480 -880 inlet;
#X obj 481 -843 route float;
#X obj 480 -820 clip 0 127;
#X obj 580 -880 inlet;
#X obj 581 -843 route float;
#X obj 580 -820 clip 0 127;
#X obj 680 -880 inlet;
#X obj 681 -843 route float;
#X obj 680 -820 clip 0 127;
#X obj 780 -880 inlet;
#X obj 781 -843 route float;
#X obj 780 -820 clip 0 127;
#X obj 317 -688 cnv 5 4 3 empty empty wet 1 1 0 6 #202020 #fcfcfc 0
;
#X obj 338 -688 cnv 5 4 3 empty empty level 1 1 0 6 #202020 #fcfcfc
0;
#X obj 363 -688 cnv 5 4 3 empty empty life 1 1 0 6 #202020 #fcfcfc
0;
#X obj 386 -688 cnv 5 4 3 empty empty xover 1 1 0 6 #202020 #fcfcfc
0;
#X obj 410 -688 cnv 5 4 3 empty empty damp 1 1 0 6 #202020 #fcfcfc
0;
#X obj 910 -880 inlet;
#X obj 911 -843 route float;
#X obj 910 -820 clip 0 127;
#X obj 1010 -880 inlet;
#X obj 1011 -843 route float;
#X obj 1010 -820 clip 0 127;
#X obj 1110 -880 inlet;
#X obj 1111 -843 route float;
#X obj 1110 -820 clip 0 127;
#X obj 1210 -880 inlet;
#X obj 1211 -843 route float;
#X obj 1210 -820 clip 0 127;
#X obj 1310 -880 inlet;
#X obj 1311 -843 route float;
#X obj 1310 -820 clip 0 127;
#X obj 1410 -880 inlet;
#X obj 1411 -843 route float;
#X obj 1410 -820 clip 0 127;
#X obj 1510 -880 inlet;
#X obj 1511 -843 route float;
#X obj 1510 -820 clip 0 127;
#X obj 1610 -880 inlet;
#X obj 1670 -729 + 3;
#X obj 2059 -877 inlet;
#X obj 2060 -840 route float;
#X obj 2059 -817 clip 0 127;
#X obj 2159 -877 inlet;
#X obj 2160 -840 route float;
#X obj 2159 -817 clip 0 127;
#X obj 2259 -877 inlet;
#X obj 2260 -840 route float;
#X obj 2259 -817 clip 0 127;
#X obj 2359 -877 inlet;
#X obj 2360 -840 route float;
#X obj 2359 -817 clip 0 127;
#X obj 2459 -877 inlet;
#X obj 2460 -840 route float;
#X obj 2459 -817 clip 0 127;
#X obj 2658 -884 inlet;
#X obj 2659 -847 route float;
#X obj 2658 -824 clip 0 127;
#X obj 2551 -877 inlet;
#X obj 2552 -840 route float;
#X obj 2551 -817 clip 0 127;
#X obj 2759 -877 inlet;
#X obj 2820 -710 + 3;
#X obj 3109 -867 inlet;
#X obj 3110 -830 route float;
#X obj 3109 -807 clip 0 127;
#X obj 3209 -867 inlet;
#X obj 3210 -830 route float;
#X obj 3209 -807 clip 0 127;
#X obj 3309 -867 inlet;
#X obj 3310 -830 route float;
#X obj 3309 -807 clip 0 127;
#X obj 3409 -867 inlet;
#X obj 3410 -830 route float;
#X obj 3409 -807 clip 0 127;
#X obj 3509 -867 inlet;
#X obj 3510 -830 route float;
#X obj 3509 -807 clip 0 127;
#X obj 3710 -870 inlet;
#X obj 3711 -833 route float;
#X obj 3710 -810 clip 0 127;
#X obj 3609 -867 inlet;
#X obj 3610 -830 route float;
#X obj 3609 -807 clip 0 127;
#X obj 3809 -867 inlet;
#X obj 3890 -680 + 3;
#X obj 4319 -867 inlet;
#X obj 4320 -830 route float;
#X obj 4319 -807 clip 0 127;
#X obj 4419 -867 inlet;
#X obj 4420 -830 route float;
#X obj 4419 -807 clip 0 127;
#X obj 4519 -867 inlet;
#X obj 4520 -830 route float;
#X obj 4519 -807 clip 0 127;
#X obj 4619 -867 inlet;
#X obj 4620 -830 route float;
#X obj 4619 -807 clip 0 127;
#X obj 4719 -867 inlet;
#X obj 4720 -830 route float;
#X obj 4719 -807 clip 0 127;
#X obj 4908 -864 inlet;
#X obj 4909 -827 route float;
#X obj 4908 -804 clip 0 127;
#X obj 4818 -864 inlet;
#X obj 4819 -827 route float;
#X obj 4818 -804 clip 0 127;
#X obj 5019 -867 inlet;
#X obj 5090 -670 + 3;
#X obj 370 -676 cnv 5 4 3 empty empty verb 1 1 0 8 #202020 #fcfcfc
0;
#X obj 339 -680 cnv 1 88 1 empty empty empty 20 12 0 14 #ffffff #ffffff
0;
#X obj 431 -688 cnv 5 4 3 empty empty window 1 1 0 6 #202020 #fcfcfc
0;
#X obj 457 -688 cnv 5 4 3 empty empty delay 1 1 0 6 #202020 #fcfcfc
0;
#X obj 480 -688 cnv 5 4 3 empty empty feedb. 1 1 0 6 #202020 #fcfcfc
0;
#X obj 506 -688 cnv 5 4 3 empty empty dens. 1 1 0 6 #202020 #fcfcfc
0;
#X obj 515 -676 cnv 5 4 3 empty empty grain1 1 1 0 8 #202020 #fcfcfc
0;
#X obj 432 -680 cnv 1 210 1 empty empty empty 20 12 0 14 #ffffff #ffffff
0;
#X obj 529 -688 cnv 5 4 3 empty empty jitt. 1 1 0 6 #202020 #fcfcfc
0;
#X obj 577 -688 cnv 5 4 3 empty empty fine 1 1 0 6 #202020 #fcfcfc
0;
#X obj 550 -688 cnv 5 4 3 empty empty volume 1 1 0 6 #202020 #fcfcfc
0;
#X obj 597 -688 cnv 5 4 3 empty empty octave 1 1 0 6 #202020 #fcfcfc
0;
#X obj -480 190 delwrite~ \$0del 10000;
#X obj -20 370 *~;
#X msg 1 281 \$1 15;
#X obj 1 310 line~;
#N canvas 0 29 1600 810 delay1 0;
#X obj 70 0 inlet~;
#X obj 500 150 *~;
#X obj 250 460 outlet~;
#X obj 250 320 line~;
#X msg 249 298 \$1 50;
#X obj 250 60 delwrite~ \$0echo1 5000;
#X obj 241 197 r \$0delay1;
#X obj 298 277 s \$0showdelay1;
#X msg 540 30 \$1 15;
#X obj 540 59 line~;
#X obj 540 4 / 127;
#X obj 539 -19 r \$0fb1;
#X obj 588 41 s \$0showfb1;
#X obj 250 370 vd~ \$0echo1;
#X obj 240 220 pow 1.75822;
#X obj 240 250 int;
#X connect 0 0 5 0;
#X connect 1 0 5 0;
#X connect 3 0 13 0;
#X connect 4 0 3 0;
#X connect 6 0 14 0;
#X connect 8 0 9 0;
#X connect 9 0 1 1;
#X connect 10 0 8 0;
#X connect 10 0 12 0;
#X connect 11 0 10 0;
#X connect 13 0 1 0;
#X connect 13 0 2 0;
#X connect 14 0 15 0;
#X connect 15 0 4 0;
#X connect 15 0 7 0;
#X restore 320 -100 pd delay1;
#N canvas 0 29 1600 810 delay2 0;
#X obj 70 0 inlet~;
#X obj 500 150 *~;
#X obj 250 460 outlet~;
#X obj 250 320 line~;
#X msg 249 298 \$1 50;
#X msg 540 30 \$1 15;
#X obj 540 59 line~;
#X obj 540 4 / 127;
#X obj 240 220 pow 1.75822;
#X obj 240 250 int;
#X obj 250 60 delwrite~ \$0echo2 5000;
#X obj 588 41 s \$0showfb2;
#X obj 539 -19 r \$0fb2;
#X obj 298 277 s \$0showdelay2;
#X obj 240 200 r \$0delay2;
#X obj 250 370 vd~ \$0echo2;
#X connect 0 0 10 0;
#X connect 1 0 10 0;
#X connect 3 0 15 0;
#X connect 4 0 3 0;
#X connect 5 0 6 0;
#X connect 6 0 1 1;
#X connect 7 0 5 0;
#X connect 7 0 11 0;
#X connect 8 0 9 0;
#X connect 9 0 4 0;
#X connect 9 0 13 0;
#X connect 12 0 7 0;
#X connect 14 0 8 0;
#X connect 15 0 1 0;
#X connect 15 0 2 0;
#X restore 750 -70 pd delay2;
#X obj 754 123 *~;
#X msg 786 108 \$1 15;
#X obj 786 137 line~;
#X obj 786 82 / 127;
#X obj 789 59 r \$0volume2;
#X obj 855 89 s \$0showvol2;
#X obj 1120 40 *~;
#X msg 1152 25 \$1 15;
#X obj 1152 54 line~;
#X obj 1152 -1 / 127;
#X obj 1155 -24 r \$0volume3;
#X obj 1221 6 s \$0showvol3;
#N canvas 0 29 1600 810 delay3 0;
#X obj 70 0 inlet~;
#X obj 500 150 *~;
#X obj 250 460 outlet~;
#X obj 250 320 line~;
#X msg 249 298 \$1 50;
#X msg 540 30 \$1 15;
#X obj 540 59 line~;
#X obj 540 4 / 127;
#X obj 240 220 pow 1.75822;
#X obj 240 250 int;
#X obj 539 -19 r \$0fb3;
#X obj 250 60 delwrite~ \$0echo3 5000;
#X obj 588 41 s \$0showfb3;
#X obj 298 277 s \$0showdelay3;
#X obj 241 197 r \$0delay3;
#X obj 250 370 vd~ \$0echo3;
#X connect 0 0 11 0;
#X connect 1 0 11 0;
#X connect 3 0 15 0;
#X connect 4 0 3 0;
#X connect 5 0 6 0;
#X connect 6 0 1 1;
#X connect 7 0 5 0;
#X connect 7 0 12 0;
#X connect 8 0 9 0;
#X connect 9 0 4 0;
#X connect 9 0 13 0;
#X connect 10 0 7 0;
#X connect 14 0 8 0;
#X connect 15 0 1 0;
#X connect 15 0 2 0;
#X restore 1140 -100 pd delay3;
#X obj 1548 25 *~;
#X msg 1580 10 \$1 15;
#X obj 1580 39 line~;
#X obj 1580 -16 / 127;
#X obj 1649 -9 s \$0showvol4;
#X obj 1583 -39 r \$0volume4;
#N canvas 0 29 1600 810 delay4 0;
#X obj 70 0 inlet~;
#X obj 500 150 *~;
#X obj 250 460 outlet~;
#X obj 250 320 line~;
#X msg 249 298 \$1 50;
#X msg 540 30 \$1 15;
#X obj 540 59 line~;
#X obj 540 4 / 127;
#X obj 240 220 pow 1.75822;
#X obj 240 250 int;
#X obj 250 60 delwrite~ \$0echo4 5000;
#X obj 240 200 r \$0delay4;
#X obj 298 277 s \$0showdelay4;
#X obj 250 370 vd~ \$0echo4;
#X obj 539 -19 r \$0fb4;
#X obj 588 41 s \$0showfb4;
#X connect 0 0 10 0;
#X connect 1 0 10 0;
#X connect 3 0 13 0;
#X connect 4 0 3 0;
#X connect 5 0 6 0;
#X connect 6 0 1 1;
#X connect 7 0 5 0;
#X connect 7 0 15 0;
#X connect 8 0 9 0;
#X connect 9 0 4 0;
#X connect 9 0 12 0;
#X connect 11 0 8 0;
#X connect 13 0 1 0;
#X connect 13 0 2 0;
#X connect 14 0 7 0;
#X restore 1550 -120 pd delay4;
#X obj 189 359 *~;
#X msg 210 270 \$1 15;
#X obj 210 299 line~;
#X obj 330 410 *~;
#X msg 370 290 \$1 15;
#X obj 370 319 line~;
#X obj 530 380 *~;
#X msg 551 291 \$1 15;
#X obj 551 320 line~;
#X obj -120 320 s \$0fbloopshow1;
#X obj -100 220 r \$0fbloop1;
#X obj 603 -395 hsl 128 15 0 127 0 0 \$0fbloop1 \$0fbloop1_r reswallow
36 6 0 10 #606060 #b34444 #ffffff 0 1;
#X obj 696 -380 nbx 4 14 -1e+37 1e+37 0 0 empty \$0fbloopshow1 empty
0 -8 0 10 #fcfcfc #000000 #000000 0 256 0;
#X obj 772 -394 hsl 128 15 0 127 0 0 \$0fbloop2 \$0fbloop2_r reswallow
36 6 0 10 #606060 #b34444 #ffffff 0 1;
#X obj 865 -379 nbx 4 14 -1e+37 1e+37 0 0 empty \$0fbloopshow2 empty
0 -8 0 10 #fcfcfc #000000 #000000 0 256 0;
#X obj 941 -395 hsl 128 15 0 127 0 0 \$0fbloop3 \$0fbloop3_r reswallow
36 6 0 10 #606060 #b34444 #ffffff 0 1;
#X obj 1034 -380 nbx 4 14 -1e+37 1e+37 0 0 empty \$0fbloopshow3 empty
0 -8 0 10 #fcfcfc #000000 #000000 0 256 0;
#X obj 1110 -394 hsl 128 15 0 127 0 0 \$0fbloop4 \$0fbloop4_r reswallow
36 6 0 10 #606060 #b34444 #ffffff 0 1;
#X obj 1203 -379 nbx 4 14 -1e+37 1e+37 0 0 empty \$0fbloopshow4 empty
0 -8 0 10 #fcfcfc #000000 #000000 0 256 0;
#X obj 70 220 r \$0fbloop2;
#X obj 70 330 s \$0fbloopshow2;
#X obj 270 230 r \$0fbloop3;
#X obj 260 350 s \$0fbloopshow3;
#X obj 440 220 r \$0fbloop4;
#X obj 430 340 s \$0fbloopshow4;
#X text -470 -1070 GUI: Swallow mit reinbringen;
#X obj 1800 -880 inlet;
#X obj 1801 -843 route float;
#X obj 1800 -820 clip 0 127;
#X obj 2940 -880 inlet;
#X obj 2941 -843 route float;
#X obj 2940 -820 clip 0 127;
#X obj 3999 -877 inlet;
#X obj 4000 -840 route float;
#X obj 3999 -817 clip 0 127;
#X obj 5209 -867 inlet;
#X obj 5210 -830 route float;
#X obj 5209 -807 clip 0 127;
#X obj 624 -688 cnv 5 4 3 empty empty resw. 1 1 0 6 #202020 #fcfcfc
0;
#X obj 645 -688 cnv 5 4 3 empty empty window 1 1 0 6 #202020 #fcfcfc
0;
#X obj 671 -688 cnv 5 4 3 empty empty delay 1 1 0 6 #202020 #fcfcfc
0;
#X obj 694 -688 cnv 5 4 3 empty empty feedb. 1 1 0 6 #202020 #fcfcfc
0;
#X obj 720 -688 cnv 5 4 3 empty empty dens. 1 1 0 6 #202020 #fcfcfc
0;
#X obj 729 -676 cnv 5 4 3 empty empty grain2 1 1 0 8 #202020 #fcfcfc
0;
#X obj 646 -680 cnv 1 210 1 empty empty empty 20 12 0 14 #ffffff #ffffff
0;
#X obj 743 -688 cnv 5 4 3 empty empty jitt. 1 1 0 6 #202020 #fcfcfc
0;
#X obj 791 -688 cnv 5 4 3 empty empty fine 1 1 0 6 #202020 #fcfcfc
0;
#X obj 764 -688 cnv 5 4 3 empty empty volume 1 1 0 6 #202020 #fcfcfc
0;
#X obj 811 -688 cnv 5 4 3 empty empty octave 1 1 0 6 #202020 #fcfcfc
0;
#X obj 838 -688 cnv 5 4 3 empty empty resw. 1 1 0 6 #202020 #fcfcfc
0;
#X obj 859 -688 cnv 5 4 3 empty empty window 1 1 0 6 #202020 #fcfcfc
0;
#X obj 885 -688 cnv 5 4 3 empty empty delay 1 1 0 6 #202020 #fcfcfc
0;
#X obj 908 -688 cnv 5 4 3 empty empty feedb. 1 1 0 6 #202020 #fcfcfc
0;
#X obj 934 -688 cnv 5 4 3 empty empty dens. 1 1 0 6 #202020 #fcfcfc
0;
#X obj 943 -676 cnv 5 4 3 empty empty grain3 1 1 0 8 #202020 #fcfcfc
0;
#X obj 860 -680 cnv 1 210 1 empty empty empty 20 12 0 14 #ffffff #ffffff
0;
#X obj 957 -688 cnv 5 4 3 empty empty jitt. 1 1 0 6 #202020 #fcfcfc
0;
#X obj 1005 -688 cnv 5 4 3 empty empty fine 1 1 0 6 #202020 #fcfcfc
0;
#X obj 978 -688 cnv 5 4 3 empty empty volume 1 1 0 6 #202020 #fcfcfc
0;
#X obj 1025 -688 cnv 5 4 3 empty empty octave 1 1 0 6 #202020 #fcfcfc
0;
#X obj 1052 -688 cnv 5 4 3 empty empty resw. 1 1 0 6 #202020 #fcfcfc
0;
#X obj 1073 -688 cnv 5 4 3 empty empty window 1 1 0 6 #202020 #fcfcfc
0;
#X obj 1099 -688 cnv 5 4 3 empty empty delay 1 1 0 6 #202020 #fcfcfc
0;
#X obj 1122 -688 cnv 5 4 3 empty empty feedb. 1 1 0 6 #202020 #fcfcfc
0;
#X obj 1148 -688 cnv 5 4 3 empty empty dens. 1 1 0 6 #202020 #fcfcfc
0;
#X obj 1157 -676 cnv 5 4 3 empty empty grain2 1 1 0 8 #202020 #fcfcfc
0;
#X obj 1074 -680 cnv 1 204 1 empty empty empty 20 12 0 14 #ffffff #ffffff
0;
#X obj 1171 -688 cnv 5 4 3 empty empty jitt. 1 1 0 6 #202020 #fcfcfc
0;
#X obj 1219 -688 cnv 5 4 3 empty empty fine 1 1 0 6 #202020 #fcfcfc
0;
#X obj 1192 -688 cnv 5 4 3 empty empty volume 1 1 0 6 #202020 #fcfcfc
0;
#X obj 1241 -688 cnv 5 4 3 empty empty oct. 1 1 0 6 #202020 #fcfcfc
0;
#X obj 1257 -688 cnv 5 4 3 empty empty resw. 1 1 0 6 #202020 #fcfcfc
0;
#N canvas 0 29 1600 810 limiter 0;
#X obj 129 -495 inlet~;
#X floatatom 365 -302 5 0 0 0 - - -, f 5;
#X floatatom 648 -478 5 0 0 0 - - -, f 5;
#X obj 365 -340 expr (($f1 - $f3) / $f2) - $f1 + $f3;
#X floatatom 506 -436 5 0 0 0 - - -, f 5;
#X obj 506 -495 loadbang;
#X obj 330 -439 env~ 1024;
#X floatatom 365 -364 5 0 0 0 - - -, f 5;
#X obj 365 -217 dbtorms;
#X floatatom 365 -183 12 0 0 0 - - -, f 12;
#X floatatom 365 -241 5 0 0 0 - - -, f 5;
#X obj 365 -268 expr 100 + $f1;
#X obj 130 0 outlet~;
#X obj 129 -58 *~;
#X obj 149 -85 line~;
#X floatatom 129 -386 5 0 0 0 - - -, f 5;
#X obj 330 -388 moses;
#X floatatom 330 -413 5 0 0 0 - - -, f 5;
#X msg 330 -216 1;
#X obj 330 -363 bng 15 250 50 0 empty empty empty 0 -6 0 8 #fcfcfc
#000000 #000000;
#X text 129 -560 3.9.1.1. Limiter 3;
#X text 127 -529 signal to be limited;
#X text 553 -445 limit factor;
#X text 651 -505 threshold / reference;
#X text 176 -387 forward control;
#X text 412 -301 value by which the signal must be reduced;
#X text 491 -231 conversion;
#X text 469 -190 correction factor of the input signal's rms value
;
#X text 555 -72 www.pd-tutorial.com;
#X text 564 -97 Johannes Kreidler;
#X msg 70 -420 23.22;
#X text 225 -153 release:;
#X text 199 -110 attack:;
#X msg 510 -460 80;
#X obj 130 -30 *~ 0.9;
#X msg 150 -110 \$1 5;
#X msg 175 -153 \$1 500;
#X msg 620 -520 100;
#X obj 130 -430 delwrite~ \$0compend 100;
#X obj 130 -360 delread~ \$0compend;
#X connect 0 0 6 0;
#X connect 0 0 38 0;
#X connect 1 0 11 0;
#X connect 2 0 3 2;
#X connect 2 0 16 1;
#X connect 3 0 1 0;
#X connect 4 0 3 1;
#X connect 5 0 33 0;
#X connect 5 0 30 0;
#X connect 5 0 37 0;
#X connect 6 0 17 0;
#X connect 7 0 3 0;
#X connect 8 0 9 0;
#X connect 9 0 35 0;
#X connect 10 0 8 0;
#X connect 11 0 10 0;
#X connect 13 0 34 0;
#X connect 14 0 13 1;
#X connect 15 0 39 0;
#X connect 16 0 19 0;
#X connect 16 1 7 0;
#X connect 17 0 16 0;
#X connect 18 0 36 0;
#X connect 19 0 18 0;
#X connect 30 0 15 0;
#X connect 33 0 4 0;
#X connect 34 0 12 0;
#X connect 35 0 14 0;
#X connect 36 0 14 0;
#X connect 37 0 2 0;
#X connect 39 0 13 0;
#X restore -420 140 pd limiter;
#X obj 0 250 / 127;
#X text -10 180 381;
#X obj 209 239 / 127;
#X obj 369 259 / 127;
#X obj 550 260 / 127;
#X obj 1609 -853 sel -3 -2 -1 0 1 2 3 4;
#X msg 1609 -827 -3;
#X msg 1619 -803 -2;
#X msg 1632 -778 -1;
#X msg 1659 -826 0;
#X msg 1699 -827 1;
#X msg 1713 -801 2;
#X msg 1726 -778 3;
#X msg 1747 -756 4;
#X obj 2759 -843 sel -3 -2 -1 0 1 2 3 4;
#X msg 2759 -817 -3;
#X msg 2769 -793 -2;
#X msg 2782 -768 -1;
#X msg 2809 -816 0;
#X msg 2849 -817 1;
#X msg 2863 -791 2;
#X msg 2876 -768 3;
#X msg 2897 -746 4;
#X obj 3809 -831 sel -3 -2 -1 0 1 2 3 4;
#X msg 3809 -805 -3;
#X msg 3819 -781 -2;
#X msg 3832 -756 -1;
#X msg 3859 -804 0;
#X msg 3899 -805 1;
#X msg 3913 -779 2;
#X msg 3926 -756 3;
#X msg 3947 -734 4;
#X obj 5022 -835 sel -3 -2 -1 0 1 2 3 4;
#X msg 5022 -809 -3;
#X msg 5032 -785 -2;
#X msg 5045 -760 -1;
#X msg 5072 -808 0;
#X msg 5112 -809 1;
#X msg 5126 -783 2;
#X msg 5139 -760 3;
#X msg 5160 -738 4;
#X connect 3 0 288 0;
#X connect 11 0 12 0;
#X connect 12 0 152 0;
#X connect 13 0 11 0;
#X connect 13 0 12 0;
#X connect 27 0 117 0;
#X connect 27 0 285 0;
#X connect 28 0 33 0;
#X connect 29 0 30 0;
#X connect 30 0 27 1;
#X connect 33 0 29 0;
#X connect 33 0 32 0;
#X connect 64 0 289 0;
#X connect 113 0 302 0;
#X connect 114 0 309 0;
#X connect 115 0 13 0;
#X connect 117 0 13 0;
#X connect 118 0 119 0;
#X connect 119 0 115 1;
#X connect 120 0 122 0;
#X connect 120 0 123 0;
#X connect 120 0 125 0;
#X connect 121 0 120 0;
#X connect 123 0 124 0;
#X connect 124 0 118 0;
#X connect 125 0 126 0;
#X connect 126 0 117 1;
#X connect 136 0 11 1;
#X connect 136 0 141 0;
#X connect 138 0 136 0;
#X connect 139 0 140 0;
#X connect 140 0 142 0;
#X connect 140 0 11 2;
#X connect 141 0 137 0;
#X connect 143 0 144 0;
#X connect 144 0 145 0;
#X connect 145 0 11 3;
#X connect 145 0 149 0;
#X connect 146 0 147 0;
#X connect 147 0 148 0;
#X connect 147 0 11 4;
#X connect 150 0 115 0;
#X connect 150 0 284 0;
#X connect 160 0 161 0;
#X connect 161 0 162 0;
#X connect 162 0 116 0;
#X connect 163 0 164 0;
#X connect 164 0 165 0;
#X connect 165 0 128 0;
#X connect 166 0 167 0;
#X connect 167 0 168 0;
#X connect 168 0 131 0;
#X connect 169 0 170 0;
#X connect 170 0 171 0;
#X connect 171 0 132 0;
#X connect 172 0 173 0;
#X connect 173 0 174 0;
#X connect 174 0 135 0;
#X connect 180 0 181 0;
#X connect 181 0 182 0;
#X connect 182 0 24 0;
#X connect 183 0 184 0;
#X connect 184 0 185 0;
#X connect 185 0 23 0;
#X connect 186 0 187 0;
#X connect 187 0 188 0;
#X connect 188 0 34 0;
#X connect 189 0 190 0;
#X connect 190 0 191 0;
#X connect 191 0 26 0;
#X connect 192 0 193 0;
#X connect 193 0 194 0;
#X connect 194 0 37 0;
#X connect 195 0 196 0;
#X connect 196 0 197 0;
#X connect 197 0 25 0;
#X connect 198 0 199 0;
#X connect 199 0 200 0;
#X connect 200 0 5 0;
#X connect 201 0 388 0;
#X connect 202 0 4 0;
#X connect 203 0 204 0;
#X connect 204 0 205 0;
#X connect 205 0 55 0;
#X connect 206 0 207 0;
#X connect 207 0 208 0;
#X connect 208 0 54 0;
#X connect 209 0 210 0;
#X connect 210 0 211 0;
#X connect 211 0 59 0;
#X connect 212 0 213 0;
#X connect 213 0 214 0;
#X connect 214 0 57 0;
#X connect 215 0 216 0;
#X connect 216 0 217 0;
#X connect 217 0 62 0;
#X connect 218 0 219 0;
#X connect 219 0 220 0;
#X connect 220 0 42 0;
#X connect 221 0 222 0;
#X connect 222 0 223 0;
#X connect 223 0 56 0;
#X connect 224 0 397 0;
#X connect 225 0 41 0;
#X connect 226 0 227 0;
#X connect 227 0 228 0;
#X connect 228 0 80 0;
#X connect 229 0 230 0;
#X connect 230 0 231 0;
#X connect 231 0 79 0;
#X connect 232 0 233 0;
#X connect 233 0 234 0;
#X connect 234 0 84 0;
#X connect 235 0 236 0;
#X connect 236 0 237 0;
#X connect 237 0 82 0;
#X connect 238 0 239 0;
#X connect 239 0 240 0;
#X connect 240 0 87 0;
#X connect 241 0 242 0;
#X connect 242 0 243 0;
#X connect 243 0 67 0;
#X connect 244 0 245 0;
#X connect 245 0 246 0;
#X connect 246 0 81 0;
#X connect 247 0 406 0;
#X connect 248 0 66 0;
#X connect 249 0 250 0;
#X connect 250 0 251 0;
#X connect 251 0 104 0;
#X connect 252 0 253 0;
#X connect 253 0 254 0;
#X connect 254 0 103 0;
#X connect 255 0 256 0;
#X connect 256 0 257 0;
#X connect 257 0 108 0;
#X connect 258 0 259 0;
#X connect 259 0 260 0;
#X connect 260 0 106 0;
#X connect 261 0 262 0;
#X connect 262 0 263 0;
#X connect 263 0 111 0;
#X connect 264 0 265 0;
#X connect 265 0 266 0;
#X connect 266 0 91 0;
#X connect 267 0 268 0;
#X connect 268 0 269 0;
#X connect 269 0 105 0;
#X connect 270 0 415 0;
#X connect 271 0 90 0;
#X connect 285 0 382 0;
#X connect 286 0 287 0;
#X connect 287 0 285 1;
#X connect 288 0 27 0;
#X connect 289 0 290 0;
#X connect 290 0 117 0;
#X connect 290 0 310 0;
#X connect 291 0 292 0;
#X connect 292 0 290 1;
#X connect 293 0 291 0;
#X connect 293 0 295 0;
#X connect 294 0 293 0;
#X connect 296 0 117 0;
#X connect 296 0 313 0;
#X connect 297 0 298 0;
#X connect 298 0 296 1;
#X connect 299 0 297 0;
#X connect 299 0 301 0;
#X connect 300 0 299 0;
#X connect 302 0 296 0;
#X connect 303 0 316 0;
#X connect 303 0 117 0;
#X connect 304 0 305 0;
#X connect 305 0 303 1;
#X connect 306 0 304 0;
#X connect 306 0 307 0;
#X connect 308 0 306 0;
#X connect 309 0 303 0;
#X connect 310 0 382 0;
#X connect 311 0 312 0;
#X connect 312 0 310 1;
#X connect 313 0 382 0;
#X connect 314 0 315 0;
#X connect 315 0 313 1;
#X connect 316 0 382 0;
#X connect 317 0 318 0;
#X connect 318 0 316 1;
#X connect 320 0 383 0;
#X connect 329 0 385 0;
#X connect 331 0 386 0;
#X connect 333 0 387 0;
#X connect 336 0 337 0;
#X connect 337 0 338 0;
#X connect 338 0 321 0;
#X connect 339 0 340 0;
#X connect 340 0 341 0;
#X connect 341 0 323 0;
#X connect 342 0 343 0;
#X connect 343 0 344 0;
#X connect 344 0 325 0;
#X connect 345 0 346 0;
#X connect 346 0 347 0;
#X connect 347 0 327 0;
#X connect 382 0 284 0;
#X connect 383 0 286 0;
#X connect 383 0 319 0;
#X connect 385 0 311 0;
#X connect 385 0 330 0;
#X connect 386 0 314 0;
#X connect 386 0 332 0;
#X connect 387 0 317 0;
#X connect 387 0 334 0;
#X connect 388 0 389 0;
#X connect 388 1 390 0;
#X connect 388 2 391 0;
#X connect 388 3 392 0;
#X connect 388 4 393 0;
#X connect 388 5 394 0;
#X connect 388 6 395 0;
#X connect 388 7 396 0;
#X connect 389 0 202 0;
#X connect 390 0 202 0;
#X connect 391 0 202 0;
#X connect 392 0 202 0;
#X connect 393 0 202 0;
#X connect 394 0 202 0;
#X connect 395 0 202 0;
#X connect 396 0 202 0;
#X connect 397 0 398 0;
#X connect 397 1 399 0;
#X connect 397 2 400 0;
#X connect 397 3 401 0;
#X connect 397 4 402 0;
#X connect 397 5 403 0;
#X connect 397 6 404 0;
#X connect 397 7 405 0;
#X connect 398 0 225 0;
#X connect 399 0 225 0;
#X connect 400 0 225 0;
#X connect 401 0 225 0;
#X connect 402 0 225 0;
#X connect 403 0 225 0;
#X connect 404 0 225 0;
#X connect 405 0 225 0;
#X connect 406 0 407 0;
#X connect 406 1 408 0;
#X connect 406 2 409 0;
#X connect 406 3 410 0;
#X connect 406 4 411 0;
#X connect 406 5 412 0;
#X connect 406 6 413 0;
#X connect 406 7 414 0;
#X connect 407 0 248 0;
#X connect 408 0 248 0;
#X connect 409 0 248 0;
#X connect 410 0 248 0;
#X connect 411 0 248 0;
#X connect 412 0 248 0;
#X connect 413 0 248 0;
#X connect 414 0 248 0;
#X connect 415 0 416 0;
#X connect 415 1 417 0;
#X connect 415 2 418 0;
#X connect 415 3 419 0;
#X connect 415 4 420 0;
#X connect 415 5 421 0;
#X connect 415 6 422 0;
#X connect 415 7 423 0;
#X connect 416 0 271 0;
#X connect 417 0 271 0;
#X connect 418 0 271 0;
#X connect 419 0 271 0;
#X connect 420 0 271 0;
#X connect 421 0 271 0;
#X connect 422 0 271 0;
#X connect 423 0 271 0;
#X coords 0 -1 1 1 982 352 1 297 -694;
