#N canvas 70 67 1022 523 10;
#X obj 101 102 cnv 15 140 37 empty empty source 2 25 0 16 -233017 -1
0;
#X obj 857 401 r toolssavebank;
#X obj 1067 318 r toolssavebang;
#X obj 1231 502 f;
#X obj 1141 610 s toolssavelists;
#X obj 1096 422 f;
#X obj 859 519 route;
#X obj 1217 263 loadbang;
#X obj 1218 319 \$1;
#X obj 1217 291 del 5;
#X obj 1096 381 del;
#X obj 1092 471 t b f b;
#X obj 1141 567 pack s f f;
#X obj 235 -1 inlet;
#X msg -911 168 1;
#X msg -863 123 0;
#X msg -819 172 1;
#X msg -778 128 0;
#X msg -715 177 1;
#X msg -671 134 0;
#X msg -620 172 1;
#X msg -583 134 0;
#X msg -523 160 1;
#X msg -492 135 0;
#X msg -421 162 1;
#X msg -390 138 0;
#X msg -307 151 1;
#X msg -278 138 0;
#X msg -206 157 1;
#X msg -174 143 0;
#X obj 100 103 hradio 16 0 0 8 \$0channel \$0channel_r empty 0 -8 0
10 -99865 -260097 -1 0;
#X obj -413 -131 sel 0 1 2 3 4 5 6 7;
#X obj 234 210 + 1;
#X obj 212 122 nbx 2 14 -1e+037 1e+037 0 0 empty empty empty 0 -8 0
10 -262144 -1 -1 1 256 0;
#X obj 103 12 loadbang;
#X msg 107 53 0;
#X obj 211 34 - 1;
#X obj 1246 462 r \$0channel;
#X obj 852 606 s \$0channel_r;
#X obj 1138 358 clip 1 143;
#X obj -946 58 inlet~;
#X obj -901 224 line~;
#X obj -942 270 *~;
#X msg -901 201 \$1 5;
#X obj -665 375 outlet~;
#X obj -844 54 inlet~;
#X obj -799 220 line~;
#X obj -840 266 *~;
#X msg -799 197 \$1 5;
#X obj -739 46 inlet~;
#X obj -697 224 line~;
#X obj -735 258 *~;
#X msg -697 201 \$1 5;
#X obj -635 49 inlet~;
#X obj -597 232 line~;
#X obj -631 261 *~;
#X msg -597 209 \$1 5;
#X obj -544 52 inlet~;
#X obj -499 218 line~;
#X obj -540 264 *~;
#X msg -499 195 \$1 5;
#X obj -450 51 inlet~;
#X obj -405 217 line~;
#X obj -446 263 *~;
#X msg -405 194 \$1 5;
#X obj -349 48 inlet~;
#X obj -304 214 line~;
#X obj -345 260 *~;
#X msg -304 191 \$1 5;
#X obj -243 50 inlet~;
#X obj -198 216 line~;
#X obj -239 262 *~;
#X msg -198 193 \$1 5;
#X obj 859 489 route source;
#X obj 1088 520 symbol source;
#X connect 1 0 73 0;
#X connect 2 0 10 0;
#X connect 3 0 12 2;
#X connect 5 0 11 0;
#X connect 6 0 38 0;
#X connect 7 0 9 0;
#X connect 8 0 5 1;
#X connect 8 0 6 1;
#X connect 8 0 39 0;
#X connect 9 0 8 0;
#X connect 10 0 5 0;
#X connect 11 0 74 0;
#X connect 11 1 12 1;
#X connect 11 2 3 0;
#X connect 12 0 4 0;
#X connect 13 0 36 0;
#X connect 14 0 43 0;
#X connect 15 0 43 0;
#X connect 16 0 48 0;
#X connect 17 0 48 0;
#X connect 18 0 52 0;
#X connect 19 0 52 0;
#X connect 20 0 56 0;
#X connect 21 0 56 0;
#X connect 22 0 60 0;
#X connect 23 0 60 0;
#X connect 24 0 64 0;
#X connect 25 0 64 0;
#X connect 26 0 68 0;
#X connect 27 0 68 0;
#X connect 28 0 72 0;
#X connect 29 0 72 0;
#X connect 30 0 31 0;
#X connect 30 0 32 0;
#X connect 31 0 14 0;
#X connect 31 0 17 0;
#X connect 31 0 29 0;
#X connect 31 0 27 0;
#X connect 31 0 25 0;
#X connect 31 0 23 0;
#X connect 31 0 21 0;
#X connect 31 0 19 0;
#X connect 31 1 16 0;
#X connect 31 1 15 0;
#X connect 31 1 29 0;
#X connect 31 1 27 0;
#X connect 31 1 25 0;
#X connect 31 1 23 0;
#X connect 31 1 21 0;
#X connect 31 1 19 0;
#X connect 31 2 18 0;
#X connect 31 2 21 0;
#X connect 31 2 29 0;
#X connect 31 2 27 0;
#X connect 31 2 25 0;
#X connect 31 2 23 0;
#X connect 31 2 17 0;
#X connect 31 2 15 0;
#X connect 31 3 23 0;
#X connect 31 3 19 0;
#X connect 31 3 29 0;
#X connect 31 3 27 0;
#X connect 31 3 25 0;
#X connect 31 3 17 0;
#X connect 31 3 15 0;
#X connect 31 3 20 0;
#X connect 31 4 25 0;
#X connect 31 4 21 0;
#X connect 31 4 19 0;
#X connect 31 4 29 0;
#X connect 31 4 27 0;
#X connect 31 4 17 0;
#X connect 31 4 15 0;
#X connect 31 4 22 0;
#X connect 31 5 23 0;
#X connect 31 5 21 0;
#X connect 31 5 19 0;
#X connect 31 5 29 0;
#X connect 31 5 27 0;
#X connect 31 5 17 0;
#X connect 31 5 15 0;
#X connect 31 5 24 0;
#X connect 31 6 29 0;
#X connect 31 6 25 0;
#X connect 31 6 23 0;
#X connect 31 6 21 0;
#X connect 31 6 19 0;
#X connect 31 6 17 0;
#X connect 31 6 15 0;
#X connect 31 6 26 0;
#X connect 31 7 27 0;
#X connect 31 7 25 0;
#X connect 31 7 23 0;
#X connect 31 7 21 0;
#X connect 31 7 19 0;
#X connect 31 7 17 0;
#X connect 31 7 15 0;
#X connect 31 7 28 0;
#X connect 32 0 33 0;
#X connect 34 0 35 0;
#X connect 35 0 30 0;
#X connect 36 0 30 0;
#X connect 37 0 3 1;
#X connect 39 0 10 1;
#X connect 40 0 42 0;
#X connect 41 0 42 1;
#X connect 42 0 44 0;
#X connect 43 0 41 0;
#X connect 45 0 47 0;
#X connect 46 0 47 1;
#X connect 47 0 44 0;
#X connect 48 0 46 0;
#X connect 49 0 51 0;
#X connect 50 0 51 1;
#X connect 51 0 44 0;
#X connect 52 0 50 0;
#X connect 53 0 55 0;
#X connect 54 0 55 1;
#X connect 55 0 44 0;
#X connect 56 0 54 0;
#X connect 57 0 59 0;
#X connect 58 0 59 1;
#X connect 59 0 44 0;
#X connect 60 0 58 0;
#X connect 61 0 63 0;
#X connect 62 0 63 1;
#X connect 63 0 44 0;
#X connect 64 0 62 0;
#X connect 65 0 67 0;
#X connect 66 0 67 1;
#X connect 68 0 66 0;
#X connect 69 0 71 0;
#X connect 70 0 71 1;
#X connect 71 0 44 0;
#X connect 72 0 70 0;
#X connect 73 0 6 0;
#X connect 74 0 12 0;
#X coords 0 -1 1 1 142 41 1 100 100;
