#N canvas 0 0 1423 838 10;
#X obj 107 106 cnv 15 198 106 empty empty stutter 5 8 0 18 -233017
-1 0;
#X obj 382 527 table \$0-buffer \$1;
#X obj 300 437 loadbang;
#X obj 300 554 phasor~;
#X obj 301 645 tabread~ \$0-buffer;
#X obj 301 580 *~ 1;
#X msg 381 606 \; \$2-buffer resize \$1;
#X obj 381 585 pack f \$0;
#X msg 300 506 1000 \$1;
#X obj 300 529 /;
#X obj 381 553 * 44.1;
#X obj 15 352 inlet~;
#X obj 303 781 outlet~;
#X obj 221 684 *~ 1;
#X msg 355 506 0;
#X obj 242 636 * -1;
#X obj 242 658 + 1;
#X msg 76 708 start;
#X msg 118 707 stop;
#X obj 49 662 t b b;
#X obj 118 683 del;
#X obj 50 589 expr~ $v1 > 0.5;
#X obj 49 619 edge~;
#X obj 112 746 tabwrite~ \$0-buffer;
#X obj 49 641 spigot;
#X obj 287 702 *~ 0;
#X obj 187 550 t f f;
#X obj 378 -133 inlet;
#X msg 389 303 60000;
#X obj 388 279 t b f;
#X obj 390 328 /;
#X obj 390 379 * 1;
#X floatatom 387 402 5 0 0 0 - - -, f 5;
#X obj 391 357 f;
#X obj 420 331 t b f;
#X obj 300 481 f;
#X obj 215 402 bng 15 250 50 0 empty empty empty 17 7 0 10 -262144
-1 -1;
#X msg 167 472 1;
#X msg 216 474 0;
#X obj 172 432 alternate;
#X obj 120 167 tgl 30 0 \$0trig \$0trig_r stutter! -6 35 0 11 -99865
-260097 -1 0 1;
#X obj 179 501 s \$0trig_r;
#X obj 180 526 r \$0trig;
#X obj 266 113 vsl 30 60 1.27 127 1 0 \$0bpm \$0bpm_r Bpm 7 86 0 14
-99865 -260097 -1 3114 1;
#X obj 266 179 nbx 3 14 -1e+037 1e+037 0 0 \$0bpm_show_s \$0bpm_show
empty 0 -8 0 10 -262144 -1 -1 120 256 0;
#X obj 633 93 int;
#X obj 581 124 s \$0bpm_show;
#X obj 635 65 + 11;
#X obj 635 43 * 7.6;
#X obj 632 19 r \$0bpm;
#X floatatom 374 -13 5 0 0 0 - - -, f 5;
#X obj 366 70 / 7.6;
#X obj 368 16 - 11;
#X obj 367 44 + 0.5;
#X msg 562 -77 \$2;
#X obj 378 -100 route BPM bang Pulse Phase float;
#X obj 562 -53 > 0;
#X floatatom 563 -27 5 0 0 0 - - -, f 5;
#X obj 401 741 line~;
#X obj 469 680 bng 15 250 50 0 empty empty empty 17 7 0 10 -262144
-1 -1;
#X obj 545 734 pack 0 0;
#X obj 167 174 hsl 50 15 0 127 0 0 \$0decay \$0decay_r decay 14 5 0
10 -99865 -260097 -262144 0 1;
#X obj 306 744 *~;
#X obj 471 653 sel 1 0;
#X obj 489 675 bng 15 250 50 0 empty empty empty 17 7 0 10 -262144
-1 -1;
#X obj 377 772 dbtorms~;
#X msg 400 711 100 2;
#X obj 648 633 abs;
#X obj 647 603 - 127;
#X obj 562 556 > 0;
#X floatatom 562 580 5 0 0 0 - - -, f 5;
#X obj 536 705 f;
#X obj 564 602 sel 0 1;
#X msg 557 633 100;
#X obj 651 684 * 25;
#X obj 655 716 + 1000;
#X obj 650 659 + 5;
#X obj 884 105 inlet;
#X obj 810 85 inlet;
#X obj 111 131 hradio 15 0 0 8 \$0multi \$0multi_r empty 0 -8 0 10
-99865 -260097 -1 4;
#X obj 1154 91 sel 0 1 2 3 4 5 6 7;
#X floatatom 1186 261 5 0 0 0 - - -, f 5;
#X msg 1107 147 4;
#X msg 1138 143 2;
#X msg 1165 157 1;
#X msg 1196 153 0.5;
#X msg 1223 145 0.25;
#X msg 1254 141 0.125;
#X msg 1293 168 0.0625;
#X msg 1070 166 6;
#X obj 1196 370 / 3;
#X obj 1197 398 * 2;
#X floatatom 1198 421 5 0 0 0 - - -, f 5;
#X msg 1237 335 1;
#X msg 1286 334 3;
#X msg 1276 360 2;
#X obj 238 130 tgl 15 0 \$0triole \$0triole_r 1/3 -1 -7 0 9 -99865
-260097 -1 0 1;
#X obj 1290 207 r \$0triole;
#X obj 1243 280 sel 0 1;
#X obj 1290 228 t b f;
#X obj 1153 60 r \$0multi;
#X obj 723 49 inlet;
#X obj 161 147 cnv 5 10 10 empty empty 4 0 6 0 10 -228856 -260097 0
;
#X obj 176 147 cnv 5 10 10 empty empty 8 0 6 0 10 -228856 -260097 0
;
#X obj 188 147 cnv 5 10 10 empty empty 16 0 6 0 10 -228856 -260097
0;
#X obj 205 147 cnv 5 10 10 empty empty 32 0 6 0 10 -228856 -260097
0;
#X obj 220 147 cnv 5 10 10 empty empty 64 0 6 0 10 -228856 -260097
0;
#X obj 113 147 cnv 5 10 10 empty empty 3/4 0 6 0 8 -228856 -260097
0;
#X obj 132 147 cnv 5 10 10 empty empty 1 0 6 0 10 -228856 -260097 0
;
#X obj 146 147 cnv 5 10 10 empty empty 2 0 6 0 10 -228856 -260097 0
;
#X obj 1038 -110 loadbang;
#X obj 990 -44 s \$0multi_r;
#X msg 1033 -86 4;
#X obj 727 82 + 1;
#X obj 1083 -28 s \$0bpm_r;
#X msg 1079 -76 14.43;
#X obj 594 466 r \$0decay;
#X obj 1036 -1 s \$0decay_r;
#X obj 1466 50 r toolssavebank;
#X obj 1676 -33 r toolssavebang;
#X obj 1895 157 f;
#X obj 1840 151 f;
#X obj 1750 259 s toolssavelists;
#X obj 1705 71 f;
#X obj 1468 168 route;
#X obj 1826 -88 loadbang;
#X obj 1827 -32 \$1;
#X obj 1826 -60 del 5;
#X obj 1705 30 del;
#X obj 1967 185 f;
#X obj 1697 171 symbol stutter;
#X obj 1468 138 route stutter;
#X obj 1703 120 t b f b b b b b;
#X obj 1750 216 pack s f f f f f f;
#X obj 2011 202 f;
#X obj 2066 210 f;
#X obj 1745 4 clip 1 27;
#X obj 1469 194 unpack f f f f f;
#X obj 1878 94 r \$0trig;
#X obj 1968 97 r \$0decay;
#X obj 1987 136 r \$0multi;
#X obj 2066 101 r \$0triole;
#X obj 2085 140 r \$0bpm;
#X obj 1626 294 s \$0bpm_r;
#X obj 1564 319 s \$0triole_r;
#X obj 1528 290 s \$0multi_r;
#X obj 1451 276 s \$0decay_r;
#X obj 1419 248 s \$0trig_r;
#X obj 763 78 inlet;
#X obj 908 -45 s \$0trig_r;
#X msg 889 -95 0;
#X obj 914 28 s \$0triole_r;
#X msg 903 7 0;
#N canvas 577 285 450 300 window 0;
#X obj 24 -335 expr~ tanh($v1*$v2);
#X obj 24 -357 cos~;
#X obj 24 -376 *~ 0.5;
#X obj 24 -397 -~ 0.5;
#X obj 135 -366 sig~ 2;
#X obj 23 -427 inlet~;
#X obj 23 -306 outlet~;
#X obj 186 -405 loadbang;
#X obj 99 -437 r \$0window;
#X msg 134 -396 40;
#X connect 0 0 6 0;
#X connect 1 0 0 0;
#X connect 2 0 1 0;
#X connect 3 0 2 0;
#X connect 4 0 0 1;
#X connect 5 0 3 0;
#X connect 7 0 9 0;
#X connect 8 0 4 0;
#X connect 9 0 4 0;
#X restore 346 681 pd window;
#X obj 285 670 *~;
#X obj 369 -48 change;
#X obj 34 161 vsl 15 128 0 127 0 0 empty empty empty 0 -9 0 10 -262144
-1 -1 0 1;
#X floatatom 34 299 5 0 0 0 - - -, f 5;
#X obj 29 324 s \$0window;
#X msg 587 638 48;
#X connect 2 0 35 0;
#X connect 3 0 5 0;
#X connect 3 0 21 0;
#X connect 3 0 153 0;
#X connect 4 0 154 0;
#X connect 5 0 4 0;
#X connect 7 0 6 0;
#X connect 8 0 9 0;
#X connect 9 0 3 0;
#X connect 10 0 5 1;
#X connect 10 0 7 0;
#X connect 11 0 13 0;
#X connect 11 0 23 0;
#X connect 13 0 62 0;
#X connect 14 0 3 1;
#X connect 15 0 16 0;
#X connect 16 0 13 1;
#X connect 16 0 24 1;
#X connect 17 0 23 0;
#X connect 18 0 23 0;
#X connect 19 0 20 0;
#X connect 19 1 17 0;
#X connect 20 0 18 0;
#X connect 21 0 22 0;
#X connect 22 0 24 0;
#X connect 24 0 19 0;
#X connect 25 0 62 0;
#X connect 26 0 25 1;
#X connect 26 1 14 0;
#X connect 26 1 15 0;
#X connect 26 1 63 0;
#X connect 27 0 55 0;
#X connect 28 0 30 0;
#X connect 29 0 28 0;
#X connect 29 1 30 1;
#X connect 30 0 33 0;
#X connect 31 0 32 0;
#X connect 32 0 35 0;
#X connect 33 0 31 0;
#X connect 34 0 33 0;
#X connect 34 1 31 1;
#X connect 35 0 8 0;
#X connect 35 0 10 0;
#X connect 35 0 20 1;
#X connect 36 0 39 0;
#X connect 37 0 41 0;
#X connect 38 0 41 0;
#X connect 39 0 37 0;
#X connect 39 1 38 0;
#X connect 42 0 26 0;
#X connect 45 0 46 0;
#X connect 45 0 29 0;
#X connect 47 0 45 0;
#X connect 48 0 47 0;
#X connect 49 0 48 0;
#X connect 50 0 52 0;
#X connect 50 0 29 0;
#X connect 51 0 43 0;
#X connect 52 0 53 0;
#X connect 53 0 51 0;
#X connect 54 0 56 0;
#X connect 55 0 155 0;
#X connect 55 1 36 0;
#X connect 55 5 54 0;
#X connect 56 0 57 0;
#X connect 57 0 41 0;
#X connect 58 0 65 0;
#X connect 59 0 71 0;
#X connect 60 0 58 0;
#X connect 62 0 12 0;
#X connect 63 0 59 0;
#X connect 63 1 64 0;
#X connect 64 0 66 0;
#X connect 65 0 62 1;
#X connect 66 0 58 0;
#X connect 67 0 76 0;
#X connect 68 0 67 0;
#X connect 69 0 70 0;
#X connect 70 0 72 0;
#X connect 71 0 60 0;
#X connect 72 0 73 0;
#X connect 72 1 159 0;
#X connect 73 0 71 1;
#X connect 74 0 75 0;
#X connect 75 0 60 1;
#X connect 76 0 74 0;
#X connect 77 0 43 0;
#X connect 78 0 61 0;
#X connect 80 0 89 0;
#X connect 80 1 82 0;
#X connect 80 2 83 0;
#X connect 80 3 84 0;
#X connect 80 4 85 0;
#X connect 80 5 86 0;
#X connect 80 6 87 0;
#X connect 80 7 88 0;
#X connect 81 0 90 0;
#X connect 82 0 81 0;
#X connect 83 0 81 0;
#X connect 84 0 81 0;
#X connect 85 0 81 0;
#X connect 86 0 81 0;
#X connect 87 0 81 0;
#X connect 88 0 81 0;
#X connect 89 0 81 0;
#X connect 90 0 91 0;
#X connect 91 0 92 0;
#X connect 92 0 34 0;
#X connect 93 0 91 1;
#X connect 93 0 90 1;
#X connect 94 0 90 1;
#X connect 95 0 91 1;
#X connect 97 0 99 0;
#X connect 98 0 93 0;
#X connect 98 1 94 0;
#X connect 98 1 95 0;
#X connect 99 0 81 0;
#X connect 99 1 98 0;
#X connect 100 0 80 0;
#X connect 101 0 113 0;
#X connect 110 0 112 0;
#X connect 110 0 115 0;
#X connect 110 0 117 0;
#X connect 110 0 150 0;
#X connect 110 0 152 0;
#X connect 112 0 111 0;
#X connect 113 0 79 0;
#X connect 115 0 114 0;
#X connect 116 0 69 0;
#X connect 116 0 68 0;
#X connect 118 0 131 0;
#X connect 119 0 128 0;
#X connect 120 0 133 3;
#X connect 121 0 133 2;
#X connect 123 0 132 0;
#X connect 124 0 137 0;
#X connect 125 0 127 0;
#X connect 126 0 123 1;
#X connect 126 0 124 1;
#X connect 126 0 136 0;
#X connect 127 0 126 0;
#X connect 128 0 123 0;
#X connect 129 0 133 4;
#X connect 130 0 133 0;
#X connect 131 0 124 0;
#X connect 132 0 130 0;
#X connect 132 1 133 1;
#X connect 132 2 121 0;
#X connect 132 3 120 0;
#X connect 132 4 129 0;
#X connect 132 5 134 0;
#X connect 132 6 135 0;
#X connect 133 0 122 0;
#X connect 134 0 133 5;
#X connect 135 0 133 6;
#X connect 136 0 128 1;
#X connect 137 0 147 0;
#X connect 137 1 146 0;
#X connect 137 2 145 0;
#X connect 137 3 144 0;
#X connect 137 4 143 0;
#X connect 138 0 121 1;
#X connect 139 0 120 1;
#X connect 140 0 129 1;
#X connect 141 0 134 1;
#X connect 142 0 135 1;
#X connect 148 0 96 0;
#X connect 150 0 149 0;
#X connect 152 0 151 0;
#X connect 153 0 154 1;
#X connect 154 0 25 0;
#X connect 155 0 50 0;
#X connect 156 0 157 0;
#X connect 157 0 158 0;
#X connect 159 0 71 1;
#X coords 0 -1 1 1 200 110 1 106 104;
