#N canvas 95 133 1280 706 12;
#X obj 30 423 cnv 15 190 166 empty empty touch 6 48 0 26 #606060 #fc8000
0;
#X obj 200 80 notein 1;
#X floatatom 200 110 5 0 0 0 - - -, f 5;
#X floatatom 253 130 5 0 0 0 - - -, f 5;
#X obj 200 230 mtof;
#X obj 200 280 pack f f;
#X obj 35 554 hsl 63 15 48 123 0 0 empty empty empty -2 -8 0 10 #fcfcfc
#000000 #000000 0 1;
#X obj 62 571 nbx 4 14 -1e+37 1e+37 0 0 \$0show_s \$0show note -28
6 0 10 #fcfcfc #000000 #fcfcfc 0 256 0;
#X obj 330 321 - 0;
#X floatatom 350 290 5 0 0 0 - - -, f 5;
#X obj 430 160 loadbang;
#X obj 127 463 vsl 30 60 0 127 0 0 empty empty bottom -3 -9 0 10 #fcfcfc
#fc8000 #ffffff 4088 1;
#X obj 127 571 nbx 4 14 -1e+37 1e+37 0 0 \$0show_s \$0show control
47 5 0 10 #fcfcfc #000000 #fcfcfc 0 256 0;
#X obj 330 420 *;
#X obj 330 360 clip 0 127;
#X obj 179 463 vsl 30 60 0 127 0 0 empty empty top 6 -9 0 10 #fcfcfc
#fc8000 #ffffff 0 1;
#X obj 480 380 / 127;
#X obj 500 180 loadbang;
#X obj 481 406 * 6;
#X obj 327 456 clip 0 127;
#X obj 320 520 line;
#X obj 127 553 hsl 83 15 0 127 0 0 empty empty empty -2 -8 0 10 #fcfcfc
#000000 #000000 0 1;
#X msg 320 490 \$1 50;
#X obj 127 530 nbx 3 14 -1e+37 1e+37 0 0 empty empty empty 14 9 0 10
#fcfcfc #000000 #fcfcfc -48 256 0;
#X obj 260 350 int;
#X obj 250 390 * -1;
#X obj 179 530 nbx 3 14 -1e+37 1e+37 0 0 empty empty empty 14 9 0 10
#fcfcfc #000000 #fcfcfc 1 256 0;
#X obj 119 432 cnv 15 92 19 empty empty control\ range 7 7 0 10 #606060
#ffffff 0;
#X obj 51 489 cnv 15 28 29 empty empty me 3 4 0 26 #606060 #fc8000
0;
#X obj 471 464 + 1;
#X msg 500 210 0;
#X obj 200 320 outlet;
#X obj 320 570 outlet;
#X obj 681 74 r toolssavebank;
#X obj 891 -9 r toolssavebang;
#X obj 1110 181 f;
#X obj 1055 175 f;
#X obj 965 283 s toolssavelists;
#X obj 920 95 f;
#X obj 683 192 route;
#X obj 1041 -64 loadbang;
#X obj 1042 -8 \$1;
#X obj 1041 -36 del 5;
#X obj 920 54 del;
#X obj 989 42 clip 1 120;
#X obj 912 195 symbol touchme;
#X obj 680 160 route touchme;
#X obj 78 222 * 0.551181;
#X floatatom 78 251 5 0 0 0 - - -, f 5;
#X msg 430 189 88;
#X obj 170 390 r \$0top_r;
#X obj 120 360 r \$0bottom_r;
#X obj 918 144 t b f b b;
#X obj 1120 120 r \$0bottom;
#X obj 1099 83 r \$0top;
#X obj 140 610 s \$0bottom;
#X obj 220 620 s \$0top;
#X obj 684 218 unpack f f;
#X obj 965 240 pack s f f f;
#X obj 717 253 s \$0bottom;
#X obj 652 276 s \$0top;
#X obj 20 330 inlet;
#X obj 70 330 inlet;
#X connect 1 0 2 0;
#X connect 1 1 3 0;
#X connect 2 0 4 0;
#X connect 2 0 7 0;
#X connect 2 0 8 0;
#X connect 3 0 5 1;
#X connect 4 0 5 0;
#X connect 5 0 31 0;
#X connect 7 0 6 0;
#X connect 8 0 14 0;
#X connect 9 0 8 1;
#X connect 10 0 49 0;
#X connect 11 0 47 0;
#X connect 11 0 55 0;
#X connect 12 0 21 0;
#X connect 13 0 19 0;
#X connect 14 0 13 0;
#X connect 15 0 16 0;
#X connect 15 0 56 0;
#X connect 16 0 18 0;
#X connect 17 0 30 0;
#X connect 18 0 29 0;
#X connect 19 0 22 0;
#X connect 20 0 12 0;
#X connect 20 0 32 0;
#X connect 22 0 20 0;
#X connect 24 0 9 0;
#X connect 24 0 25 0;
#X connect 25 0 23 0;
#X connect 29 0 13 1;
#X connect 29 0 26 0;
#X connect 30 0 15 0;
#X connect 33 0 46 0;
#X connect 34 0 43 0;
#X connect 35 0 58 3;
#X connect 36 0 58 2;
#X connect 38 0 52 0;
#X connect 39 0 57 0;
#X connect 40 0 42 0;
#X connect 41 0 38 1;
#X connect 41 0 39 1;
#X connect 41 0 44 0;
#X connect 42 0 41 0;
#X connect 43 0 38 0;
#X connect 44 0 43 1;
#X connect 45 0 58 0;
#X connect 46 0 39 0;
#X connect 47 0 48 0;
#X connect 48 0 24 0;
#X connect 49 0 11 0;
#X connect 50 0 15 0;
#X connect 51 0 11 0;
#X connect 52 0 45 0;
#X connect 52 1 58 1;
#X connect 52 2 36 0;
#X connect 52 3 35 0;
#X connect 53 0 35 1;
#X connect 54 0 36 1;
#X connect 57 0 60 0;
#X connect 57 1 59 0;
#X connect 58 0 37 0;
#X connect 61 0 11 0;
#X connect 62 0 15 0;
#X coords 0 -1 1 1 194 172 1 28 421;
