#N canvas 0 20 1423 798 10;
#X obj -894 150 inlet~;
#X obj -922 315 outlet~;
#N canvas 226 151 720 635 workings 0;
#X obj 32 505 outlet~;
#X obj 208 32 r \$0-dry;
#X obj 58 42 inlet~;
#X obj 352 212 s \$0-damping;
#X obj 514 219 * 0.28;
#X obj 515 242 + 0.7;
#X obj 515 263 s \$0-feedback;
#X obj 513 126 - 1;
#X obj 514 170 - 1;
#X obj 515 191 abs;
#N canvas 207 22 842 542 LEFT 0;
#N canvas 0 22 522 372 comb-1 0;
#X obj 216 112 r \$0-damping;
#X obj 152 208 delwrite~ \$0-rev1 26;
#X obj 154 146 lop~ 20000;
#X obj 154 169 *~ 0.5;
#X obj 155 61 delread~ \$0-rev1 25.3061;
#X obj 72 37 inlet~;
#X obj 67 234 outlet~;
#X obj 233 147 r \$0-feedback;
#X connect 0 0 2 1;
#X connect 2 0 3 0;
#X connect 3 0 1 0;
#X connect 3 0 6 0;
#X connect 4 0 2 0;
#X connect 5 0 1 0;
#X connect 7 0 3 1;
#X restore 236 189 pd comb-1;
#N canvas 549 236 494 344 comb-2 0;
#X obj 236 93 r \$0-damping;
#X obj 174 127 lop~ 20000;
#X obj 174 150 *~ 0.5;
#X obj 90 36 inlet~;
#X obj 88 231 outlet~;
#X obj 253 128 r \$0-feedback;
#X obj 169 63 delread~ \$0-rev2 26.9388;
#X obj 171 202 delwrite~ \$0-rev2 27;
#X connect 0 0 1 1;
#X connect 1 0 2 0;
#X connect 2 0 7 0;
#X connect 2 0 4 0;
#X connect 3 0 7 0;
#X connect 5 0 2 1;
#X connect 6 0 1 0;
#X restore 298 189 pd comb-2;
#N canvas 400 75 490 340 comb-3 0;
#X obj 203 102 r \$0-damping;
#X obj 141 136 lop~ 20000;
#X obj 139 165 *~ 0.5;
#X obj 57 43 inlet~;
#X obj 57 248 outlet~;
#X obj 220 137 r \$0-feedback;
#X obj 117 67 delread~ \$0-rev3 28.9569;
#X obj 137 210 delwrite~ \$0-rev3 29;
#X connect 0 0 1 1;
#X connect 1 0 2 0;
#X connect 2 0 7 0;
#X connect 2 0 4 0;
#X connect 3 0 7 0;
#X connect 5 0 2 1;
#X connect 6 0 1 0;
#X restore 359 189 pd comb-3;
#N canvas 746 118 494 344 comb-4 0;
#X obj 244 103 r \$0-damping;
#X obj 182 137 lop~ 20000;
#X obj 182 160 *~ 0.5;
#X obj 90 36 inlet~;
#X obj 88 231 outlet~;
#X obj 261 138 r \$0-feedback;
#X obj 175 73 delread~ \$0-rev4 30.7483;
#X obj 171 206 delwrite~ \$0-rev4 31;
#X connect 0 0 1 1;
#X connect 1 0 2 0;
#X connect 2 0 7 0;
#X connect 2 0 4 0;
#X connect 3 0 7 0;
#X connect 5 0 2 1;
#X connect 6 0 1 0;
#X restore 421 189 pd comb-4;
#N canvas 805 59 474 324 comb-5 0;
#X obj 196 95 r \$0-damping;
#X obj 134 129 lop~ 20000;
#X obj 134 152 *~ 0.5;
#X obj 90 36 inlet~;
#X obj 88 231 outlet~;
#X obj 213 130 r \$0-feedback;
#X obj 135 61 delread~ \$0-rev5 34.2449;
#X obj 132 203 delwrite~ \$0-rev5 35;
#X connect 0 0 1 1;
#X connect 1 0 2 0;
#X connect 2 0 7 0;
#X connect 2 0 4 0;
#X connect 3 0 7 0;
#X connect 5 0 2 1;
#X connect 6 0 1 0;
#X restore 483 189 pd comb-5;
#N canvas 702 107 474 324 comb-6 0;
#X obj 238 87 r \$0-damping;
#X obj 176 121 lop~ 20000;
#X obj 176 144 *~ 0.5;
#X obj 90 36 inlet~;
#X obj 88 231 outlet~;
#X obj 255 122 r \$0-feedback;
#X obj 238 54 delread~ \$0-rev6 33.8095;
#X obj 177 197 delwrite~ \$0-rev6 34;
#X connect 0 0 1 1;
#X connect 1 0 2 0;
#X connect 2 0 4 0;
#X connect 2 0 7 0;
#X connect 3 0 7 0;
#X connect 5 0 2 1;
#X connect 6 0 1 0;
#X restore 545 189 pd comb-6;
#N canvas 742 153 474 324 comb-7 0;
#X obj 193 101 r \$0-damping;
#X obj 131 135 lop~ 20000;
#X obj 131 158 *~ 0.5;
#X obj 80 50 inlet~;
#X obj 88 231 outlet~;
#X obj 210 136 r \$0-feedback;
#X obj 194 70 delread~ \$0-rev7 35.7596;
#X obj 129 207 delwrite~ \$0-rev7 36;
#X connect 0 0 1 1;
#X connect 1 0 2 0;
#X connect 2 0 4 0;
#X connect 2 0 7 0;
#X connect 3 0 7 0;
#X connect 5 0 2 1;
#X connect 6 0 1 0;
#X restore 606 189 pd comb-7;
#N canvas 731 107 478 328 comb-8 0;
#X obj 202 100 r \$0-damping;
#X obj 140 134 lop~ 20000;
#X obj 140 157 *~ 0.5;
#X obj 90 36 inlet~;
#X obj 88 231 outlet~;
#X obj 219 135 r \$0-feedback;
#X obj 204 67 delread~ \$0-rev8 36.6667;
#X obj 140 205 delwrite~ \$0-rev8 26;
#X connect 0 0 1 1;
#X connect 1 0 2 0;
#X connect 2 0 4 0;
#X connect 2 0 7 0;
#X connect 3 0 7 0;
#X connect 5 0 2 1;
#X connect 6 0 1 0;
#X restore 668 189 pd comb-8;
#N canvas 588 127 648 562 allpass-1 0;
#X obj 186 65 inlet~;
#X obj 245 422 *~ 0.5;
#X obj 213 389 delread~ \$0-fbcf-1 12.6077;
#X obj 175 490 outlet~;
#X obj 437 474 delwrite~ \$0-fbcf-1 13;
#X obj 168 391 *~ -1;
#X connect 0 0 5 0;
#X connect 0 0 4 0;
#X connect 1 0 4 0;
#X connect 2 0 1 0;
#X connect 2 0 3 0;
#X connect 5 0 3 0;
#X restore 241 319 pd allpass-1;
#N canvas 0 22 640 554 allpass-2 0;
#X obj 186 65 inlet~;
#X obj 245 422 *~ 0.5;
#X obj 175 490 outlet~;
#X obj 168 391 *~ -1;
#X obj 213 389 delread~ \$0-fbcf-2 10;
#X obj 439 474 delwrite~ \$0-fbcf-2 11;
#X connect 0 0 3 0;
#X connect 0 0 5 0;
#X connect 1 0 5 0;
#X connect 3 0 2 0;
#X connect 4 0 1 0;
#X connect 4 0 2 0;
#X restore 241 339 pd allpass-2;
#N canvas 0 22 644 558 allpass-3 0;
#X obj 186 65 inlet~;
#X obj 245 422 *~ 0.5;
#X obj 175 490 outlet~;
#X obj 168 391 *~ -1;
#X obj 213 389 delread~ \$0-fbcf-3 7.77324;
#X obj 437 474 delwrite~ \$0-fbcf-3 8;
#X connect 0 0 3 0;
#X connect 0 0 5 0;
#X connect 1 0 5 0;
#X connect 3 0 2 0;
#X connect 4 0 1 0;
#X connect 4 0 2 0;
#X restore 240 360 pd allpass-3;
#N canvas 0 22 636 550 allpass-4 0;
#X obj 186 65 inlet~;
#X obj 245 422 *~ 0.5;
#X obj 175 490 outlet~;
#X obj 168 391 *~ -1;
#X obj 214 389 delread~ \$0-fbcf-4 5.10204;
#X obj 437 474 delwrite~ \$0-fbcf-4 6;
#X connect 0 0 3 0;
#X connect 0 0 5 0;
#X connect 1 0 5 0;
#X connect 3 0 2 0;
#X connect 4 0 1 0;
#X connect 4 0 2 0;
#X restore 242 381 pd allpass-4;
#X obj 234 90 *~ 0.05;
#X obj 244 469 outlet~;
#X obj 217 18 inlet~;
#X obj 241 299 *~ 0.25;
#X connect 0 0 15 0;
#X connect 1 0 15 0;
#X connect 2 0 15 0;
#X connect 3 0 15 0;
#X connect 4 0 15 0;
#X connect 5 0 15 0;
#X connect 6 0 15 0;
#X connect 7 0 15 0;
#X connect 8 0 9 0;
#X connect 9 0 10 0;
#X connect 10 0 11 0;
#X connect 11 0 13 0;
#X connect 12 0 0 0;
#X connect 12 0 1 0;
#X connect 12 0 2 0;
#X connect 12 0 3 0;
#X connect 12 0 4 0;
#X connect 12 0 5 0;
#X connect 12 0 6 0;
#X connect 12 0 7 0;
#X connect 14 0 12 0;
#X connect 15 0 8 0;
#X restore 145 117 pd LEFT;
#X obj 512 102 r \$0-feedbk;
#X obj 413 35 r \$0-dampen;
#X obj 352 187 * 44100;
#X obj 389 135 expr pow($f1 \, 4);
#X obj 421 58 * 0.9;
#X obj 420 82 + 0.1;
#X obj 513 148 expr pow($f1 \, 2);
#X obj 194 379 line~;
#X obj 56 114 *~;
#X obj 112 437 *~;
#X msg 194 356 \$1 10;
#X obj 114 78 line~;
#X msg 114 55 \$1 10;
#X obj 198 327 r \$0-wet;
#X connect 1 0 23 0;
#X connect 2 0 10 0;
#X connect 2 0 19 0;
#X connect 4 0 5 0;
#X connect 5 0 6 0;
#X connect 7 0 17 0;
#X connect 8 0 9 0;
#X connect 9 0 4 0;
#X connect 10 0 20 0;
#X connect 11 0 7 0;
#X connect 12 0 15 0;
#X connect 13 0 3 0;
#X connect 14 0 13 0;
#X connect 15 0 16 0;
#X connect 16 0 14 0;
#X connect 17 0 8 0;
#X connect 18 0 20 1;
#X connect 19 0 0 0;
#X connect 20 0 0 0;
#X connect 21 0 18 0;
#X connect 22 0 19 1;
#X connect 23 0 22 0;
#X connect 24 0 21 0;
#X restore -954 212 pd workings;
#X obj -453 445 s \$0-dampen;
#X obj -351 483 s \$0-feedbk;
#X obj -275 492 s \$0-dry;
#X obj -196 488 s \$0-wet;
#X obj 101 102 cnv 15 140 144 empty empty verbtoo 6 8 0 20 -233017
-1 0;
#X obj 200 143 vsl 15 40 0 127 0 0 \$0dampen \$0dampen_r bright -5
-10 0 12 -99865 -260097 -1 1950 1;
#X obj 151 325 loadbang;
#X obj 87 427 s \$0wet_r;
#X obj 226 432 s \$0size_r;
#X obj 194 227 nbx 4 14 -1e+037 1e+037 0 0 \$0sizeshow_s \$0sizeshow
empty 0 -8 0 10 -262144 -1 -1 0.1 256 0;
#X obj 187 190 nbx 4 14 -1e+037 1e+037 0 0 \$0dampshow_s \$0-dampen
empty 0 -8 0 10 -262144 -1 -1 0.5 256 0;
#X obj 843 387 r toolssavebank;
#X obj 1053 304 r toolssavebang;
#X obj 1272 494 f;
#X obj 1217 488 f;
#X obj 1127 596 s toolssavelists;
#X obj 1082 408 f;
#X obj 845 505 route;
#X obj 1203 249 loadbang;
#X obj 1204 305 \$1;
#X obj 1203 277 del 5;
#X obj 1082 367 del;
#X obj 1344 522 f;
#X obj 861 598 s \$0wet_r;
#X obj 942 600 s \$0size_r;
#X obj 298 5 inlet;
#X obj 349 3 inlet;
#X obj 393 6 inlet;
#X obj 110 141 vsl 15 60 0 127 0 0 \$0dry \$0dry_r dry -4 -10 0 12
-99865 -260097 -1 5900 1;
#X obj 158 141 vsl 15 60 0 127 0 0 \$0wet \$0wet_r wet -4 -10 0 12
-99865 -260097 -1 0 1;
#X obj 107 226 hsl 80 15 0 127 0 0 \$0size \$0size_r size 30 5 0 10
-99865 -260097 -262144 790 1;
#X obj 109 208 nbx 4 14 -1e+037 1e+037 0 0 \$0dryshow_s \$0dryshow
empty 0 -8 0 10 -262144 -1 -1 1 256 0;
#X obj 157 208 nbx 4 14 -1e+037 1e+037 0 0 \$0wetshow_s \$0wetshow
empty 0 -8 0 10 -262144 -1 -1 0 256 0;
#X obj 436 6 inlet;
#X obj -450 375 r \$0dampen;
#X obj -356 402 r \$0size;
#X obj -275 402 r \$0dry;
#X obj -453 412 / 127;
#X obj -350 439 / 127;
#X obj -270 459 / 127;
#X obj -153 352 r \$0wet;
#X obj -173 408 / 267.37;
#X obj -246 552 s \$0dryshow;
#X obj -84 451 s \$0wetshow;
#X obj -78 401 / 127;
#X obj -378 539 s \$0sizeshow;
#X obj 120 524 s \$0dry_r;
#X msg 122 489 127;
#X msg 94 394 0;
#X obj 149 434 s \$0dampen_r;
#X msg 149 402 63.5;
#X msg 221 397 12.7;
#X obj 845 475 route verbtoo;
#X obj 1074 508 symbol verbtoo;
#X obj -138 446 / 180;
#X obj 1084 457 t b f b b b b;
#X obj 1127 553 pack s f f f f f;
#X obj 1346 595 f;
#X obj 1458 511 r \$0size;
#X obj 1255 431 r \$0dry;
#X obj 1345 434 r \$0wet;
#X obj 1456 438 r \$0dampen;
#X obj 846 531 unpack f f f f;
#X obj 908 647 s \$0dampen_r;
#X obj 784 614 s \$0dry_r;
#X obj 1131 332 clip 1 89;
#X connect 0 0 2 0;
#X connect 2 0 1 0;
#X connect 9 0 53 0;
#X connect 9 0 54 0;
#X connect 9 0 51 0;
#X connect 9 0 50 0;
#X connect 14 0 55 0;
#X connect 15 0 24 0;
#X connect 16 0 59 3;
#X connect 17 0 59 2;
#X connect 19 0 58 0;
#X connect 20 0 65 0;
#X connect 21 0 23 0;
#X connect 22 0 19 1;
#X connect 22 0 20 1;
#X connect 22 0 68 0;
#X connect 23 0 22 0;
#X connect 24 0 19 0;
#X connect 25 0 59 4;
#X connect 28 0 31 0;
#X connect 29 0 32 0;
#X connect 30 0 8 0;
#X connect 36 0 33 0;
#X connect 37 0 40 0;
#X connect 38 0 41 0;
#X connect 39 0 42 0;
#X connect 40 0 3 0;
#X connect 41 0 4 0;
#X connect 41 0 48 0;
#X connect 42 0 5 0;
#X connect 42 0 45 0;
#X connect 43 0 44 0;
#X connect 43 0 47 0;
#X connect 43 0 57 0;
#X connect 47 0 46 0;
#X connect 50 0 49 0;
#X connect 51 0 10 0;
#X connect 53 0 52 0;
#X connect 54 0 11 0;
#X connect 55 0 20 0;
#X connect 56 0 59 0;
#X connect 57 0 6 0;
#X connect 58 0 56 0;
#X connect 58 1 59 1;
#X connect 58 2 17 0;
#X connect 58 3 16 0;
#X connect 58 4 25 0;
#X connect 58 5 60 0;
#X connect 59 0 18 0;
#X connect 60 0 59 5;
#X connect 61 0 60 1;
#X connect 62 0 17 1;
#X connect 63 0 16 1;
#X connect 64 0 25 1;
#X connect 65 0 67 0;
#X connect 65 1 26 0;
#X connect 65 2 66 0;
#X connect 65 3 27 0;
#X connect 68 0 24 1;
#X coords 0 -1 1 1 142 148 1 100 100;
