#N canvas 0 0 1423 798 10;
#X obj 101 102 cnv 15 610 96 empty empty XY-Pitch 2 6 0 9 -66577 -260097
0;
#X obj 202 104 grid grid1 500 0 500 90 0 127 1 0.1 0.5 49 1 735 116
;
#X obj 840 638 outlet;
#X msg 39 34 color 252 128 0;
#X obj 39 -20 loadbang;
#X obj 39 6 del 5;
#X obj 848 602 line 10;
#X msg 846 562 \$1 10;
#X obj 110 180 nbx 5 14 -1e+037 1e+037 0 0 empty \$0JERRY_basefreq
empty 0 -8 0 10 -199729 -1 -260097 55 256;
#X symbolatom 165 178 2 0 0 0 - #0JerryShowBase #0JerryShowBase_send
;
#X obj 153 113 vradio 15 0 0 4 \$0JERRY_scalemode \$0JERRY_scalemode_ctl
empty 0 -10 0 10 -199729 -260097 -261682 0;
#X obj 170 110 cnv 15 10 15 empty empty frei 0 9 0 9 -66577 -261682
0;
#X obj 170 125 cnv 15 10 5 empty empty chrom 0 9 0 9 -66577 -261682
0;
#X obj 170 140 cnv 15 10 10 empty empty Dur 0 9 0 9 -66577 -261682
0;
#X obj 170 155 cnv 15 10 5 empty empty Moll 0 9 0 9 -66577 -261682
0;
#X floatatom -582 191 5 0 0 0 - - -;
#X obj -582 214 mtof;
#X floatatom -582 238 5 0 0 0 - - -;
#X obj -582 147 int;
#X floatatom -582 126 5 0 0 0 - - -;
#X obj -582 167 + 33;
#X obj -582 107 r \$0JERRY_basefreq_in;
#X obj -582 267 s \$0JERRY_basefreq;
#X obj -520 991 s \$0JerryShowTone;
#X msg -536 729 symbol C;
#X msg -473 772 symbol D;
#X msg -413 817 symbol E;
#X msg -386 839 symbol F;
#X msg -509 751 symbol C#;
#X msg -446 794 symbol D#;
#X msg -350 860 symbol F#;
#X msg -323 882 symbol G;
#X msg -312 911 symbol G#;
#X msg -279 933 symbol A;
#X msg -252 955 symbol A#;
#X msg -216 976 symbol H;
#X obj -377 368 r \$0JERRY_Freq;
#X floatatom -377 394 5 0 0 0 - - -;
#X obj -377 416 ftom;
#X floatatom -377 438 5 0 0 0 - - -;
#X obj -377 490 int;
#X floatatom -377 560 5 0 0 0 - - -;
#X obj -377 469 + 0.5;
#X obj -377 583 - 33;
#X floatatom -377 604 5 0 0 0 - - -;
#X obj -377 692 sel 0 1 2 3 4 5 6 7 8 9 10 11;
#X obj -377 630 % 12;
#X floatatom -379 652 5 0 0 0 - - -;
#X obj -377 535 multiplex;
#X obj -300 416 r \$0JERRY_scalemode;
#X obj -300 445 sel 0 1 2 3;
#X msg -267 483 0;
#X msg -300 482 1;
#X obj -696 531 r \$0JERRY_basefreq;
#X obj -696 559 ftom;
#X floatatom -696 586 5 0 0 0 - - -;
#X obj -696 616 - 33;
#X msg -943 736 symbol C;
#X msg -880 779 symbol D;
#X msg -820 824 symbol E;
#X msg -793 846 symbol F;
#X msg -916 758 symbol C#;
#X msg -853 801 symbol D#;
#X msg -757 867 symbol F#;
#X msg -730 889 symbol G;
#X msg -719 918 symbol G#;
#X msg -686 940 symbol A;
#X msg -659 962 symbol A#;
#X msg -623 983 symbol H;
#X obj -784 699 sel 0 1 2 3 4 5 6 7 8 9 10 11;
#X obj -927 998 s \$0JerryShowBase;
#X obj 109 124 vsl 15 50 0 127 0 0 \$0JERRY_basefreq_s \$0JERRY_basefreq_ctl
empty 0 -9 0 10 -199729 -260097 -1 0 1;
#X obj -112 225 / 127;
#X obj -114 248 * 11;
#X obj -116 280 s \$0JERRY_basefreq_in;
#X obj -650 612 s \$0basefreq_midi;
#X obj 268 265 r \$0basefreq_midi;
#X obj 89 261 + 1;
#X obj 89 238 / 10;
#X obj 12 554 mtof;
#X obj 8 526 line;
#X msg 55 517 \$1 5;
#X obj 54 319 gate 4;
#X obj 3 362 int;
#X obj 49 267 r \$0JERRY_scalemode;
#X floatatom -53 361 5 0 0 0 - - -;
#X obj 51 295 + 1;
#N canvas 542 97 450 300 Jerry_major 0;
#X obj 53 8 inlet;
#X obj 53 42 t b f;
#X obj 64 259 zl nth;
#X floatatom 64 287 5 0 0 0 - - -;
#X obj 64 316 outlet;
#X msg 64 137 0 2 4 5 7 9 11 12 14 16 17 19 21 23 24 26 28 29 31 33
35 36 38 40 41 43 45 47 48 50 52 53 55 57 59 60 62 64 65 67 69 71 72
74 76 77 79 81 83 84 86 88 89 91 93 95 96 98 100 101 103 105 107 108
110 112 113 115 117 119 120 122 124 125 127 129 131 132 134 136 137
139 141 143 144 146 148 149 151 153 155 156 158 160 161 163 165 167
168 170 172 173 175 177 179 180 182 184 185 187 189 191 192;
#X obj 84 89 + 1;
#X connect 0 0 1 0;
#X connect 1 0 5 0;
#X connect 1 1 6 0;
#X connect 2 0 3 0;
#X connect 3 0 4 0;
#X connect 5 0 2 0;
#X connect 6 0 2 1;
#X restore 66 419 pd Jerry_major;
#N canvas 542 97 665 348 Jerry_minor 0;
#X obj 53 8 inlet;
#X obj 53 42 t b f;
#X obj 53 214 zl nth;
#X floatatom 53 242 5 0 0 0 - - -;
#X obj 53 293 outlet;
#X obj 88 190 + 1;
#X msg 53 73 0 2 3 5 7 8 10 12 14 15 17 19 20 22 24 26 27 29 31 32
34 36 38 39 41 43 44 46 48 50 51 53 55 56 58 60 62 63 65 67 68 70 72
74 75 77 79 80 82 84 86 87 89 91 92 94 96 98 99 101 103 104 106 108
110 111 113 115 116 118 120 122 123 125 127 128 130 132 134 135 137
139 140 142 144 146 147 149 151 152 154 156 158 159 161 163 164 166
168 170 171 173 175 176 178 180 182 183 185 187 188 190 192;
#X connect 0 0 1 0;
#X connect 1 0 6 0;
#X connect 1 1 5 0;
#X connect 2 0 3 0;
#X connect 3 0 4 0;
#X connect 5 0 2 1;
#X connect 6 0 2 0;
#X restore 173 419 pd Jerry_minor;
#X obj 67 368 - 1;
#X obj 67 393 int;
#X obj 66 445 + 1;
#X obj 171 364 - 1;
#X obj 171 389 int;
#X obj 173 444 + 1;
#X obj 163 542 bng 15 250 50 0 empty empty empty 17 7 0 10 -262144
-1 -1;
#X obj 208 550 bng 15 250 50 0 empty empty empty 17 7 0 10 -262144
-1 -1;
#X floatatom -4 589 5 0 0 0 - - -;
#X obj 1 664 f;
#X floatatom -31 710 5 0 0 0 - - -;
#X obj 107 571 del 5;
#X obj 57 703 f;
#X msg -53 744 \$1 127;
#X msg 18 754 \$1 0;
#X obj -153 882 outlet;
#X obj -196 97 loadbang;
#X obj -344 151 s \$0JERRY_basefreq_ctl;
#X msg -253 120 0;
#X obj 242 455 key;
#X obj 318 421 keyup;
#X obj 243 508 sel 32;
#X obj 310 529 sel 32;
#X obj 242 481 change;
#X msg 279 451 29;
#X msg 56 790 stop 0;
#X obj -113 131 s \$0JERRY_scalemode_ctl;
#X msg -83 93 0;
#X obj 27 915 outlet;
#X obj 553 810 r toolssavebank;
#X obj 556 954 unpack f f;
#X obj 763 727 r toolssavebang;
#X obj 982 917 f;
#X obj 927 911 f;
#X obj 837 1019 s toolssavelists;
#X obj 792 831 f;
#X obj 555 928 route;
#X obj 913 672 loadbang;
#X obj 914 728 \$1;
#X obj 913 700 del 5;
#X obj 792 790 del;
#X obj 837 976 pack s f f f;
#X obj 790 880 t b f b b;
#X obj 784 931 symbol xy-pitch;
#X obj 555 898 route xy-pitch;
#X obj 931 839 r \$0JERRY_basefreq_s;
#X obj 457 994 s \$0JERRY_basefreq_ctl;
#X obj 993 872 r \$0JERRY_scalemode;
#X obj 612 1022 s \$0JERRY_scalemode_ctl;
#X connect 1 0 78 0;
#X connect 1 1 7 0;
#X connect 3 0 1 0;
#X connect 4 0 5 0;
#X connect 5 0 3 0;
#X connect 6 0 2 0;
#X connect 7 0 6 0;
#X connect 15 0 16 0;
#X connect 16 0 17 0;
#X connect 17 0 22 0;
#X connect 18 0 20 0;
#X connect 19 0 18 0;
#X connect 20 0 15 0;
#X connect 21 0 19 0;
#X connect 24 0 23 0;
#X connect 25 0 23 0;
#X connect 26 0 23 0;
#X connect 27 0 23 0;
#X connect 28 0 23 0;
#X connect 29 0 23 0;
#X connect 30 0 23 0;
#X connect 31 0 23 0;
#X connect 32 0 23 0;
#X connect 33 0 23 0;
#X connect 34 0 23 0;
#X connect 35 0 23 0;
#X connect 36 0 37 0;
#X connect 37 0 38 0;
#X connect 38 0 39 0;
#X connect 39 0 42 0;
#X connect 39 0 48 1;
#X connect 40 0 48 0;
#X connect 41 0 43 0;
#X connect 42 0 40 0;
#X connect 43 0 44 0;
#X connect 44 0 46 0;
#X connect 45 0 33 0;
#X connect 45 1 34 0;
#X connect 45 2 35 0;
#X connect 45 3 24 0;
#X connect 45 4 28 0;
#X connect 45 5 25 0;
#X connect 45 6 29 0;
#X connect 45 7 26 0;
#X connect 45 8 27 0;
#X connect 45 9 30 0;
#X connect 45 10 31 0;
#X connect 45 11 32 0;
#X connect 46 0 47 0;
#X connect 47 0 45 0;
#X connect 48 0 41 0;
#X connect 49 0 50 0;
#X connect 50 0 52 0;
#X connect 50 1 51 0;
#X connect 50 2 51 0;
#X connect 50 3 51 0;
#X connect 51 0 48 2;
#X connect 52 0 48 2;
#X connect 53 0 54 0;
#X connect 54 0 55 0;
#X connect 55 0 56 0;
#X connect 55 0 75 0;
#X connect 56 0 69 0;
#X connect 57 0 70 0;
#X connect 58 0 70 0;
#X connect 59 0 70 0;
#X connect 60 0 70 0;
#X connect 61 0 70 0;
#X connect 62 0 70 0;
#X connect 63 0 70 0;
#X connect 64 0 70 0;
#X connect 65 0 70 0;
#X connect 66 0 70 0;
#X connect 67 0 70 0;
#X connect 68 0 70 0;
#X connect 69 0 66 0;
#X connect 69 1 67 0;
#X connect 69 2 68 0;
#X connect 69 3 57 0;
#X connect 69 4 61 0;
#X connect 69 5 58 0;
#X connect 69 6 62 0;
#X connect 69 7 59 0;
#X connect 69 8 60 0;
#X connect 69 9 63 0;
#X connect 69 10 64 0;
#X connect 69 11 65 0;
#X connect 71 0 72 0;
#X connect 72 0 73 0;
#X connect 73 0 74 0;
#X connect 76 0 77 1;
#X connect 76 0 91 1;
#X connect 76 0 89 1;
#X connect 76 0 94 1;
#X connect 76 0 92 1;
#X connect 77 0 82 1;
#X connect 78 0 77 0;
#X connect 79 0 97 0;
#X connect 80 0 79 0;
#X connect 81 0 80 0;
#X connect 82 0 85 0;
#X connect 82 1 83 0;
#X connect 82 2 89 0;
#X connect 82 3 92 0;
#X connect 83 0 81 0;
#X connect 84 0 86 0;
#X connect 85 0 81 0;
#X connect 86 0 82 0;
#X connect 87 0 91 0;
#X connect 88 0 94 0;
#X connect 89 0 90 0;
#X connect 90 0 87 0;
#X connect 91 0 81 0;
#X connect 92 0 93 0;
#X connect 93 0 88 0;
#X connect 94 0 81 0;
#X connect 95 0 100 0;
#X connect 96 0 101 0;
#X connect 96 0 114 0;
#X connect 97 0 98 1;
#X connect 97 0 104 0;
#X connect 98 0 99 0;
#X connect 99 0 101 1;
#X connect 99 0 102 0;
#X connect 100 0 98 0;
#X connect 101 0 103 0;
#X connect 102 0 117 0;
#X connect 103 0 117 0;
#X connect 105 0 107 0;
#X connect 105 0 116 0;
#X connect 107 0 106 0;
#X connect 108 0 112 0;
#X connect 109 0 111 0;
#X connect 110 0 95 0;
#X connect 111 0 96 0;
#X connect 111 0 113 0;
#X connect 112 0 110 0;
#X connect 113 0 112 0;
#X connect 114 0 117 0;
#X connect 116 0 115 0;
#X connect 118 0 133 0;
#X connect 119 0 135 0;
#X connect 119 1 137 0;
#X connect 120 0 129 0;
#X connect 121 0 130 3;
#X connect 122 0 130 2;
#X connect 124 0 131 0;
#X connect 125 0 119 0;
#X connect 126 0 128 0;
#X connect 127 0 124 1;
#X connect 127 0 125 1;
#X connect 127 0 129 1;
#X connect 128 0 127 0;
#X connect 129 0 124 0;
#X connect 130 0 123 0;
#X connect 131 0 132 0;
#X connect 131 1 130 1;
#X connect 131 2 122 0;
#X connect 131 3 121 0;
#X connect 132 0 130 0;
#X connect 133 0 125 0;
#X connect 134 0 122 1;
#X connect 136 0 121 1;
#X coords 0 -1 1 1 612 100 1 100 100;
