#N canvas 37 66 1349 705 10;
#X obj -9 -48 inlet;
#X obj 60 -43 inlet;
#X floatatom 600 396 5 0 0 0 - - -, f 5;
#X floatatom 643 396 5 0 0 0 - - -, f 5;
#X obj 600 369 route Pulse BPM Phase;
#X floatatom 695 396 5 0 0 0 - - -, f 5;
#X obj 913 1618 outlet;
#X obj 925 188 route bang;
#X obj 956 424 bng 15 250 50 0 empty empty empty 17 7 0 10 -262144
-1 -1;
#X msg 954 449 55 127;
#X obj 1114 555 tgl 15 0 empty empty empty 17 7 0 10 -262144 -1 -1
0 1;
#X text 1114 429 AUFNAHME?;
#X msg 754 356 60000;
#X obj 775 332 t b f;
#X obj 785 393 /;
#X obj 789 417 / 8;
#X floatatom 832 414 5 0 0 0 - - -, f 5;
#X obj 1538 376 + 1;
#X obj 1500 377 f;
#X obj 1502 409 mod 4;
#X floatatom 1332 495 5 0 0 0 - - -, f 5;
#X obj 1500 330 sel 0;
#X obj 1454 299 t f f;
#X obj 1138 1403 spigot;
#X obj 1196 340 == 0;
#X obj 1242 344 == 0;
#X obj 1208 418 == 2;
#X obj 1209 442 sel 1;
#X obj 1214 476 bng 15 250 50 0 empty empty empty 17 7 0 10 -262144
-1 -1;
#X obj 1236 379 t b f;
#X obj 1207 387 +;
#X obj 1118 482 f;
#X obj 1132 450 tgl 15 0 empty \$0rec empty 17 7 0 10 -262144 -1 -1
0 1;
#X obj 960 361 del 70;
#X obj 1028 448 l;
#X obj 1029 375 bng 15 250 50 0 empty empty empty 17 7 0 10 -262144
-1 -1;
#X obj 1028 404 del 70;
#X msg 1325 425 0;
#X obj 1302 341 sel 0;
#X msg 1306 257 1;
#X msg 1362 275 0;
#X obj 1278 299 spigot;
#X obj 1379 359 bng 15 250 50 0 empty empty empty 17 7 0 10 -262144
-1 -1;
#X obj 1378 409 del 10;
#X obj 1131 897 bng 15 250 50 0 empty empty empty 17 7 0 10 -262144
-1 -1;
#X obj 1177 503 sel 1;
#X msg 1176 529 0;
#X text 1114 867 clear;
#X text 1339 252 reset to first bar;
#X msg 1616 304 2;
#X msg 1698 307 4;
#X msg 1579 304 1;
#X msg 1649 306 3;
#X text 1719 247 Laenge;
#X obj 1217 758 pack 0 0;
#X obj 1265 734 \$0;
#X obj 1221 704 t f b;
#X msg 1218 787 \; \$2canvas_r color \$1;
#X msg 1188 672 13;
#X obj 1188 645 sel 1;
#X obj 1240 650 sel 0;
#X msg 1235 675 12;
#X obj 1767 761 sel 0 4 8 12;
#X obj 1762 924 *~;
#X obj 1763 880 osc~ 440;
#X obj 1764 854 vline~;
#X msg 1804 802 880 \, 440 15;
#X obj 1825 906 vline~;
#X obj 1757 1043 dac~;
#X msg 1824 873 1 5 \, 0 30 5;
#X msg 1719 804 1600 \, 440 20;
#X obj 1767 971 *~ 0.5;
#X obj 1768 1010 *~;
#X obj 1810 994 r \$0metroon;
#X obj 1734 294 + 1;
#X obj 982 211 zl rev;
#X obj 981 236 route 0;
#X obj 1044 290 zl rev;
#X obj 1142 848 loadbang;
#X obj 909 841 +;
#X floatatom 912 864 5 0 0 0 - - -, f 5;
#X obj 870 1072 list-replace;
#X obj 966 800 * 16;
#X obj 950 1033 l;
#X obj 734 876 spigot;
#X obj 188 1475 textfile;
#X obj 637 1165 t b l;
#X obj 613 1269 zl join;
#X msg 616 1234 set;
#X text 96 1217 write a file;
#X obj 128 1002 r \$0saveBank;
#X obj 128 1125 savepanel;
#X obj 128 1157 symbol;
#X msg 128 1184 write \$1;
#X obj 128 1074 getdir;
#X msg 128 1101 symbol \$1;
#X text 67 1046 SAVE;
#X obj 264 997 r \$0loadBank;
#X msg 295 1113 clear;
#X msg 298 1277 rewind;
#X text 342 1141 Load;
#X obj 265 1141 openpanel;
#X obj 265 1050 bng 15 250 50 0 empty empty empty 17 7 0 10 -262144
-1 -1;
#X msg 265 1164 read \$1;
#X obj 265 1031 t b b;
#X obj 271 1221 del 20;
#X obj 271 1199 bng 15 250 50 0 empty empty empty 17 7 0 10 -262144
-1 -1;
#X obj 271 1243 t b b;
#X obj 265 1069 getdir;
#X msg 265 1096 symbol \$1;
#X text 347 996 LOAD;
#X msg 1081 985 0 0 0 0 0 0 0 0 0 0 0 0 0 0 0 0 0 0 0 0 0 0 0 0 0 0
0 0 0 0 0 0 0 0 0 0 0 0 0 0 0 0 0 0 0 0 0 0 0 0 0 0 0 0 0 0 0 0 0 0
0 0 0 0 0 0 0 0 0 0 0 0 0 0 0 0 0 0 0 0 0 0 0 0 0 0 0 0 0 0 0 0 0 0
0 0 0 0 0 0 0 0 0 0 0 0 0 0 0 0 0 0 0 0 0 0 0 0 0 0 0 0 0 0 0 0 0 0
;
#X obj 883 902 * 2;
#X obj 1064 1212 l;
#X obj 1065 1138 t b f;
#X obj 1061 1248 list split;
#X obj 1093 1307 list split;
#X floatatom 1173 1182 5 0 0 0 - - -, f 5;
#X obj 1126 1217 + 2;
#X obj 101 102 cnv 15 181 190 empty empty beate 13 10 0 14 -66577 -260097
0;
#X obj 170 133 hradio 15 0 0 4 \$0len \$0len_r Takte 63 7 0 10 -162280
-260097 -262144 3;
#X obj 108 180 cnv 15 164 59 \$0canvas_s \$0canvas_r empty 20 12 0
14 -33289 -262144 0;
#X obj 116 132 tgl 30 0 \$0rec \$0rec_r Aufnahme -8 37 0 10 -162280
-258113 -262144 0 1;
#X obj 118 188 hradio 9 1 0 16 empty empty empty 0 -8 0 10 -228856
-260097 -1 0;
#X obj 118 199 hradio 9 1 0 16 empty empty empty 0 -8 0 10 -228856
-260097 -1 0;
#X obj 118 210 hradio 9 1 0 16 empty empty empty 0 -8 0 10 -228856
-260097 -1 0;
#X obj 118 221 hradio 9 1 0 16 empty empty empty 0 -8 0 10 -228856
-260097 -1 0;
#X obj 115 245 tgl 30 0 \$0onoff \$0onoff_r Ausgabe -5 35 0 10 -162280
-260097 -262144 0 1;
#X obj 228 244 bng 15 250 50 0 \$0saveBank \$0saveBank_r save 18 7
0 10 -162280 -260097 -262144;
#X obj 256 262 bng 15 250 50 0 \$0loadBank \$0loadBank_r load -28 7
0 10 -191407 -260097 -262144;
#X obj 180 247 bng 15 250 50 0 \$0erase \$0erase_r löschen -9 24 0
9 -191407 -1 -262144;
#X obj 227 107 tgl 15 0 \$0metroon \$0metroon_r klick 19 9 0 9 -162280
-260097 -262144 0 1;
#X obj 1725 260 r \$0len;
#X obj 1092 828 r \$0erase;
#X obj 1178 1345 r \$0onoff;
#X text 1207 1369 Play;
#X obj 305 435 moses 16;
#X floatatom 305 463 5 0 0 0 - - -, f 5;
#X obj 349 479 moses 32;
#X floatatom 350 516 5 0 0 0 - - -, f 5;
#X obj 396 515 moses 48;
#X floatatom 394 542 5 0 0 0 - - -, f 5;
#X obj 444 552 moses 64;
#X floatatom 449 583 5 0 0 0 - - -, f 5;
#X obj 324 553 - 16;
#X obj 372 572 - 32;
#X obj 413 601 - 48;
#X obj 183 437 bng 15 250 50 0 empty empty empty 17 7 0 10 -262144
-1 -1;
#X msg 184 469 0;
#X obj 217 474 bng 15 250 50 0 empty empty empty 17 7 0 10 -262144
-1 -1;
#X msg 218 506 0;
#X obj 249 522 bng 15 250 50 0 empty empty empty 17 7 0 10 -262144
-1 -1;
#X msg 250 554 0;
#X obj 281 559 bng 15 250 50 0 empty empty empty 17 7 0 10 -262144
-1 -1;
#X msg 282 591 0;
#X obj 171 157 bng 15 250 50 0 \$0restart \$0restart_r neustart 19
5 0 9 -191407 -1 -262144;
#X obj 238 1567 print;
#X obj 1215 183 r \$0restart;
#X obj 2169 272 r toolssavebank;
#X obj 2598 379 f;
#X obj 2543 373 f;
#X obj 2453 481 s toolssavelists;
#X obj 2408 293 f;
#X obj 2171 390 route;
#X obj 2529 134 loadbang;
#X obj 2530 190 \$1;
#X obj 2529 162 del 5;
#X obj 2408 252 del;
#X obj 2663 393 symbol;
#X obj 2305 494 list2symbol;
#X obj 2454 446 pack s f f f s;
#X obj 2413 293 t b f b b b;
#X obj 2704 370 r \$0seqsave;
#X obj 2174 416 list split 2;
#X obj 2172 449 unpack f f;
#X obj 2630 322 r \$0onoff;
#X obj 2119 578 s \$0onoff_r;
#X obj 2304 587 s \$0seqsave_r;
#X obj 2370 560 s \$0seqsave;
#X obj 2381 157 r toolsdirectory;
#X obj 2382 183 bng 15 250 50 0 empty empty empty 17 7 0 10 -262144
-1 -1;
#X obj 2434 219 clip 1 56;
#X obj 235 -53 inlet;
#X obj 230 33 - 1;
#X obj 128 -33 inlet;
#X obj 332 -46 inlet;
#X obj 393 -30 inlet;
#X obj 184 -30 inlet;
#X obj 2171 360 route beate;
#X obj 2564 291 r \$0len;
#X obj 2009 549 s \$0len_r;
#X obj 2400 393 symbol beate;
#X obj 357 1057 s \$0seqsave;
#X obj 375 1141 r \$0seqsave_r;
#X obj 130 810 r toolsdirectory;
#X obj 237 829 \$1;
#X obj 204 848 ftos;
#X obj 143 864 pack s s;
#X obj 263 798 loadbang;
#X obj 126 1042 del 10;
#X msg 166 895 symbol \$1Beate\$2Seq;
#X obj 394 87 loadbang;
#X msg 485 150 3;
#X obj 122 8 sel 1 0 bang;
#X msg 108 34 1;
#X msg 137 35 0;
#X obj 183 39 bng 15 250 50 0 empty empty empty 17 7 0 10 -262144 -1
-1;
#X obj 230 -24 sel 1 2 3 4;
#X msg 225 -4 1;
#X msg 251 -2 2;
#X msg 284 -1 3;
#X msg 317 0 4;
#X obj 348 -1 bng 15 250 50 0 empty empty empty 17 7 0 10 -262144 -1
-1;
#X obj 381 5 sel 1 0 bang;
#X msg 367 31 1;
#X msg 396 32 0;
#X connect 0 0 4 0;
#X connect 1 0 7 0;
#X connect 1 0 6 0;
#X connect 2 0 22 0;
#X connect 2 0 24 0;
#X connect 2 0 41 0;
#X connect 2 0 62 0;
#X connect 2 0 79 0;
#X connect 3 0 13 0;
#X connect 4 0 2 0;
#X connect 4 1 3 0;
#X connect 4 2 5 0;
#X connect 7 0 33 0;
#X connect 7 1 75 0;
#X connect 8 0 9 0;
#X connect 9 0 84 0;
#X connect 10 0 84 1;
#X connect 10 0 59 0;
#X connect 10 0 60 0;
#X connect 12 0 14 0;
#X connect 13 0 12 0;
#X connect 13 1 14 1;
#X connect 14 0 15 0;
#X connect 15 0 16 0;
#X connect 16 0 33 1;
#X connect 16 0 36 1;
#X connect 17 0 18 1;
#X connect 18 0 17 0;
#X connect 18 0 19 0;
#X connect 19 0 20 0;
#X connect 20 0 25 0;
#X connect 20 0 82 0;
#X connect 21 0 18 0;
#X connect 22 1 21 0;
#X connect 23 0 6 0;
#X connect 24 0 30 0;
#X connect 25 0 29 0;
#X connect 26 0 27 0;
#X connect 27 0 28 0;
#X connect 28 0 31 0;
#X connect 29 0 30 0;
#X connect 29 1 30 1;
#X connect 30 0 26 0;
#X connect 31 0 10 0;
#X connect 31 0 45 0;
#X connect 32 0 31 1;
#X connect 33 0 8 0;
#X connect 34 0 84 0;
#X connect 35 0 36 0;
#X connect 36 0 34 0;
#X connect 37 0 20 0;
#X connect 37 0 42 0;
#X connect 37 0 18 0;
#X connect 38 0 37 0;
#X connect 39 0 41 1;
#X connect 40 0 41 1;
#X connect 41 0 38 0;
#X connect 42 0 43 0;
#X connect 43 0 40 0;
#X connect 44 0 111 0;
#X connect 45 0 46 0;
#X connect 46 0 122 0;
#X connect 49 0 19 1;
#X connect 50 0 19 1;
#X connect 51 0 19 1;
#X connect 52 0 19 1;
#X connect 54 0 57 0;
#X connect 55 0 54 1;
#X connect 56 0 54 0;
#X connect 56 1 55 0;
#X connect 58 0 56 0;
#X connect 59 0 58 0;
#X connect 60 0 61 0;
#X connect 61 0 56 0;
#X connect 62 0 70 0;
#X connect 62 1 66 0;
#X connect 62 2 66 0;
#X connect 62 3 66 0;
#X connect 63 0 71 0;
#X connect 64 0 63 0;
#X connect 65 0 64 0;
#X connect 66 0 65 0;
#X connect 66 0 69 0;
#X connect 67 0 63 1;
#X connect 69 0 67 0;
#X connect 70 0 65 0;
#X connect 70 0 69 0;
#X connect 71 0 72 0;
#X connect 72 0 68 0;
#X connect 72 0 68 1;
#X connect 73 0 72 1;
#X connect 74 0 19 1;
#X connect 75 0 76 0;
#X connect 76 1 77 0;
#X connect 77 0 34 1;
#X connect 77 0 35 0;
#X connect 78 0 44 0;
#X connect 79 0 80 0;
#X connect 80 0 112 0;
#X connect 80 0 136 0;
#X connect 81 0 83 0;
#X connect 81 0 86 0;
#X connect 81 0 113 1;
#X connect 82 0 79 1;
#X connect 83 0 81 2;
#X connect 84 0 81 0;
#X connect 85 0 113 1;
#X connect 85 0 83 0;
#X connect 85 0 156 0;
#X connect 86 0 88 0;
#X connect 86 1 87 1;
#X connect 87 0 85 0;
#X connect 88 0 87 0;
#X connect 90 0 199 0;
#X connect 91 0 92 0;
#X connect 91 0 192 0;
#X connect 92 0 93 0;
#X connect 93 0 85 0;
#X connect 94 0 95 0;
#X connect 95 0 91 0;
#X connect 97 0 104 0;
#X connect 98 0 85 0;
#X connect 99 0 85 0;
#X connect 101 0 103 0;
#X connect 101 0 192 0;
#X connect 102 0 108 0;
#X connect 103 0 106 0;
#X connect 103 0 85 0;
#X connect 104 0 102 0;
#X connect 104 1 98 0;
#X connect 105 0 107 0;
#X connect 106 0 105 0;
#X connect 107 0 85 0;
#X connect 107 1 99 0;
#X connect 108 0 109 0;
#X connect 109 0 101 0;
#X connect 111 0 81 2;
#X connect 111 0 113 1;
#X connect 112 0 81 1;
#X connect 112 0 114 0;
#X connect 113 0 115 0;
#X connect 114 0 113 0;
#X connect 114 1 117 0;
#X connect 115 0 116 0;
#X connect 116 1 23 0;
#X connect 117 0 118 0;
#X connect 117 0 116 1;
#X connect 118 0 115 1;
#X connect 132 0 74 0;
#X connect 133 0 44 0;
#X connect 134 0 23 1;
#X connect 136 0 137 0;
#X connect 136 0 153 0;
#X connect 136 1 138 0;
#X connect 136 1 147 0;
#X connect 137 0 123 0;
#X connect 138 0 139 0;
#X connect 138 1 140 0;
#X connect 138 1 149 0;
#X connect 139 0 144 0;
#X connect 140 0 141 0;
#X connect 140 1 142 0;
#X connect 140 1 151 0;
#X connect 141 0 145 0;
#X connect 142 0 143 0;
#X connect 143 0 146 0;
#X connect 144 0 124 0;
#X connect 145 0 125 0;
#X connect 146 0 126 0;
#X connect 147 0 148 0;
#X connect 148 0 123 0;
#X connect 149 0 150 0;
#X connect 150 0 124 0;
#X connect 151 0 152 0;
#X connect 152 0 125 0;
#X connect 153 0 154 0;
#X connect 154 0 126 0;
#X connect 157 0 39 0;
#X connect 158 0 188 0;
#X connect 159 0 170 3;
#X connect 160 0 170 2;
#X connect 162 0 171 0;
#X connect 163 0 173 0;
#X connect 164 0 166 0;
#X connect 165 0 162 1;
#X connect 165 0 163 1;
#X connect 165 0 181 0;
#X connect 166 0 165 0;
#X connect 167 0 162 0;
#X connect 168 0 170 4;
#X connect 169 0 177 0;
#X connect 169 0 178 0;
#X connect 170 0 161 0;
#X connect 171 0 191 0;
#X connect 171 1 170 1;
#X connect 171 2 160 0;
#X connect 171 3 159 0;
#X connect 171 4 168 0;
#X connect 172 0 168 1;
#X connect 173 0 174 0;
#X connect 173 1 169 0;
#X connect 174 0 190 0;
#X connect 174 1 176 0;
#X connect 175 0 159 1;
#X connect 179 0 180 0;
#X connect 180 0 167 0;
#X connect 181 0 167 1;
#X connect 182 0 207 0;
#X connect 183 0 120 0;
#X connect 184 0 203 0;
#X connect 185 0 212 0;
#X connect 186 0 213 0;
#X connect 187 0 206 0;
#X connect 188 0 163 0;
#X connect 189 0 160 1;
#X connect 191 0 170 0;
#X connect 193 0 103 0;
#X connect 194 0 197 0;
#X connect 195 0 196 0;
#X connect 196 0 197 1;
#X connect 197 0 200 0;
#X connect 198 0 195 0;
#X connect 199 0 94 0;
#X connect 200 0 192 0;
#X connect 200 0 93 0;
#X connect 201 0 202 0;
#X connect 202 0 120 0;
#X connect 203 0 204 0;
#X connect 203 1 205 0;
#X connect 203 2 122 0;
#X connect 204 0 122 0;
#X connect 205 0 122 0;
#X connect 206 0 130 0;
#X connect 207 0 208 0;
#X connect 207 1 209 0;
#X connect 207 2 210 0;
#X connect 207 3 211 0;
#X connect 208 0 183 0;
#X connect 209 0 183 0;
#X connect 210 0 183 0;
#X connect 211 0 183 0;
#X connect 212 0 155 0;
#X connect 213 0 214 0;
#X connect 213 1 215 0;
#X connect 213 2 127 0;
#X connect 214 0 127 0;
#X connect 215 0 127 0;
#X coords 0 -1 1 1 183 194 1 100 100;
