#N canvas 327 246 801 441 10;
#X obj 0 0 cnv 15 800 45 empty \$0-pddp.cnv.header kickzwo 3 12 0 18
-204280 -1 0;
#X obj 15 357 cnv 3 363 5 empty \$0-pddp.cnv.inlets empty 8 12 0 13
-228856 -1 0;
#X text 16 55 EINGANG 1: Steuerdaten zum Auslösen der Kickdrum (z.B.
von [steps] \, [sequenzer] \, [pad] \, oder [taste]);
#X text 9 26 elektronische Bassdrum, f 116;
#X text 16 379 AUSGANG 1: Gibt das erzeugte Kickdrum-Signal aus.;
#X obj 511 57 kickzwo;
#X text 16 99 EINGANG 2: Steuert den Regler 'kick' (in Mididaten \,
z.B. von [modu] \, [modurand] \, [control] \, etc.);
#X text 16 134 EINGANG 3: Steuert den Regler 'pitch' (in Mididaten
\, z.B. von [modu] \, [modurand] \, [control] \, etc.);
#X text 16 179 EINGANG 4: Steuert den Regler 'time-1' (in Mididaten
\, z.B. von [modu] \, [modurand] \, [control] \, etc.);
#X text 16 223 EINGANG 5: Steuert den Regler 'time-2' (in Mididaten
\, z.B. von [modu] \, [modurand] \, [control] \, etc.);
#X text 16 312 EINGANG 7: Steuert den Regler 'decay' (in Mididaten
\, z.B. von [modu] \, [modurand] \, [control] \, etc.);
#X text 16 268 EINGANG 6: Steuert den Regler 'sound' (in Mididaten
\, z.B. von [modu] \, [modurand] \, [control] \, etc.);
#X text 414 293 [kickzwo] erzeugt eine elektronische Kickdrum. 'kick'
regelt die Höhe und Stärke des Kicks am Anfang des Kicksounds \,
wenn die Trommel "getreten" wird. 'time-1' bestimmt \, wie lange diese
erste Einschwingphase dauert (in ms). Mit 'pitch' wird die Tonhöhe
der gesamten Trommel gestimmt. 'time-2' bestimmt \, wie lange die Tonhöhe
der Kickdrum beim Ausschwingungen abfällt. 'sound' verändert den
Gesamtklang der Kickdrum durch Verzerrung. 'decay' steuert \, wie lange
die Kickdrum ausschwingt.;
