#N canvas 244 114 955 659 10;
#X obj -2 0 cnv 15 955 47 empty \$0-pddp.cnv.header makeymain 3 12
0 18 -204280 -1 0;
#X obj 11 59 cnv 3 363 5 empty \$0-pddp.cnv.inlets empty 8 12 0 13
-228856 -1 0;
#X obj 421 59 makeymain 1;
#X text 11 26 Hauptmodul für die Kommunikation mit dem Makey Makey
- Controller, f 116;
#X text 12 496 AUSGANG 12: Gibt die Position der Maus auf der Horizontalen
aus \, die durch den Makey Makey gesteuert werden kann.;
#X text 12 531 AUSGANG 13: Gibt die Position der Maus auf der Vertikalen
aus \, die durch den Makey Makey gesteuert werden kann.;
#X text 12 610 AUSGANG 15: Gibt ein Signal aus \, wenn die rechte-Maustaste
aktiviert wird.;
#X text 12 575 AUSGANG 14: Gibt ein Signal aus \, wenn die linke-Maustaste
aktiviert wird.;
#X text 12 446 AUSGANG 11: Gibt ein Signal aus \, wenn die g-Taste
aktiviert wird.;
#X text 11 411 AUSGANG 10: Gibt ein Signal aus \, wenn die f-Taste
aktiviert wird.;
#X text 12 376 AUSGANG 9: Gibt ein Signal aus \, wenn die d-Taste aktiviert
wird.;
#X text 12 341 AUSGANG 8: Gibt ein Signal aus \, wenn die s-Taste aktiviert
wird.;
#X text 13 271 AUSGANG 6: Gibt ein Signal aus \, wenn die w-Taste aktiviert
wird.;
#X text 12 306 AUSGANG 7: Gibt ein Signal aus \, wenn die a-Taste aktiviert
wird.;
#X text 12 236 AUSGANG 5: Gibt ein Signal aus \, wenn die Right-Taste
aktiviert wird.;
#X text 12 201 AUSGANG 4: Gibt ein Signal aus \, wenn die Left-Taste
aktiviert wird.;
#X text 12 166 AUSGANG 3: Gibt ein Signal aus \, wenn die Up-Taste
aktiviert wird.;
#X text 12 131 AUSGANG 2: Gibt ein Signal aus \, wenn die Down-Taste
aktiviert wird.;
#X text 12 83 AUSGANG 1: Gibt ein Signal aus \, wenn die Space-Taste
aktiviert wird. (am 02.08.18 gibt es noch Probleme mit der Space-Taste)
;
#X text 490 139 [makeymain] ist dazu gedacht \, Signale vom Makey Makey
- Controller zu empfangen.;
#X text 492 349 Das Modul [makeymain] gibt nun die grundlegenden Signale
aus \, die am Makey Makey ausgelöst werden können.;
#X text 490 392 Die Tasten (Space \, Down \, Up \, Left \, Right \,
w \, a \, s \, d \, f \, g \, Btn1 \, Btn2) geben ein einfaches BANG-Signal
aus \, mit dem zum Beispiel ein Sound mit [kick] \, [snare] \, [simple]
\, [sampler] \, etc. ausgelöst werden kann. Es können aber auch [sequenzer]
oder [steps] an und aus geschaltet werden oder [volume] leise bzw.
laut gestellt werden. Darüber hinaus kann alles gesteuert werden \,
dass durch BANG-Signale geregelt wird (s. die Hilfedateien der Module).
;
#X text 491 510 Unter Maus X und Maus Y werden die horizontale und
die vertikale Position der Maus im Patchfenster ausgegeben. Diese Werte
können genutzt werden \, um Regler an den Modulen zu steuern. Dabei
sollte aber bebachtet werden \, dass alle Regler der levTools mit Zahlen
zwischen 0 und 127 gesteuert werden. Die Positionszahl muss also durch
Division (erzeuge z.B. Divisionsmodul: [/ 10]) auf 127 verkleinert
werden \, damit die Regler gut gesteuert werden können.;
#X text 492 179 MAKEY MAKEY ist ein einfacher digitaler Controller
\, der im Prinzip wie eine Tastatur (bzw. eine Maus) funktioniert \,
bei der die Tasten ausgebaut sind. Statt der Tasten hat man beim Makey
offene Schaltkreise. Schließt man diese mit Kabelverbindungen \, so
wird die Taste ausgelöst. Nun können aber auch irgendwelche Gegenstände
\, die elektrisch leitfähig sind \, in den offenen Schaltkreis eingebaut
werden. Auch der menschliche Körper kann Elektrizität leiten. So
lässt sich zum Beispiel ein Schlagzeug aus Bananen bauen. Mehr Informationen
und kreative Beispiele \, wie der Makey Makey musikalische eingesetzt
werden kann \, finden sich natürlich im Web.;
