#N canvas 244 114 822 660 10;
#X obj -2 0 cnv 15 821 45 empty \$0-pddp.cnv.header maus 3 12 0 18
-204280 -1 0;
#X obj 11 59 cnv 3 363 5 empty \$0-pddp.cnv.inlets empty 8 12 0 13
-228856 -1 0;
#X obj 497 53 maus 1;
#X text 11 148 AUSGANG 2: Gibt die vertikale Position des Mauszeigers
aus. (Der Wert wird durch die einsgestellte Auflösung bestimmt. Kann
an alle Regler der levTools angeschlossen werden.);
#X text 12 82 AUSGANG 1: Gibt die horizontale Position des Mauszeigers
aus. (Der Wert wird durch die einsgestellte Auflösung bestimmt. Kann
an alle Regler der levTools angeschlossen werden.);
#X text 12 211 AUSGANG 3: Gibt die Stellung des Mausrads aus (0 und
1 \, kann an alle Schalter angeschlossen werden (z.B. [volume] an/aus))
;
#X text 421 238 [maus] dient dazu \, die levTools mit der Maus zu steuern.
;
#X text 421 382 Auch der Zoomfaktor im Patchfenster beinflusst den
ausgegebenen Wert. Wenn ideale Werte zwischen 0 und 127 ausgegeben
werden sollen \, dann sollte das Patch im Vollbildmodus \, der Standardzoomfaktor
(wie beim Start) eingestellt \, die Auflösung wie die Bildschirmauflösung
und das Patch ganz nach links oben gescrollt sein.;
#X text 421 264 Unter X und Y werden die horizontale und die vertikale
Position der Maus im Patchfenster ausgegeben. Diese Werte können genutzt
werden \, um Regler an den Modulen zu steuern. Die absolute Höhe der
ausgegebenen Werte wird durch die eingestellte Auflösung bestimmt
(die wie die Bildschirmauflösung eingestellt sein sollte). Diese Werteskalierung
muss gemacht werden \, da alle Regler der levTools mit Zahlen zwischen
0 und 127 gesteuert werden.;
#X text 421 484 Unter 'Wheel' wird die Position des Mausrads zwischen
0 und 1 ausgegeben werden. Unter 'Btn 1' der Zustand der linken Maustaste
\, unter 'Btn 2' der Zustand der rechten Maustaste (1 = gedrückt \,
0 = losgelassen). Diese Werte können genutzt werden \, um Schalter
an den levTools zu steuern oder Prozesse auszulösen.;
#X text 11 26 Steuerung der levTool mit der Maus, f 116;
#X text 421 594 Das Modul kann auch mit dem MAKEY MAKEY (s. Hilfe-Patch
von [makeymain]) genutzt werden \, mit dem Mausbewegungen und -klicks
gesteuert werden können.;
#X text 12 273 AUSGANG 4: Gibt 1 bzw. 0 aus \, wenn die linke Maustaste
gedrückt bzw. losgelassen wird. (Kann an alle Schalter angeschlossen
werden (z.B. [volume] an/aus));
#X text 11 337 AUSGANG 5: Gibt 1 bzw. 0 aus \, wenn die linke Maustaste
gedrückt bzw. losgelassen wird. (Kann an alle Schalter angeschlossen
werden (z.B. [volume] an/aus));
