#N canvas 0 0 1423 838 10;
#X obj 102 102 cnv 15 110 48 empty empty midikeyboard 4 9 0 14 -199729
-1 0;
#X obj 327 41 notein;
#X floatatom 327 63 5 0 0 0 - - -, f 5;
#X floatatom 458 159 5 0 0 0 - - -, f 5;
#X floatatom 372 63 5 0 0 0 - - -, f 5;
#X obj 414 173 mtof;
#X obj 414 212 pack f f;
#X obj 414 269 outlet;
#X obj 311 146 moses 43.5;
#X obj 257 99 spigot;
#X obj 308 98 spigot;
#X obj 29 40 loadbang;
#X msg 41 84 0;
#X obj -3 204 s \$0blockpads_r;
#X obj 179 63 abs;
#X obj 176 39 - 1;
#X obj 201 8 r \$0blockpads;
#X obj 645 187 r toolssavebank;
#X obj 856 51 r toolssavebang;
#X obj 1020 235 f;
#X obj 930 343 s toolssavelists;
#X obj 885 155 f;
#X obj 648 252 route;
#X obj 1006 -4 loadbang;
#X obj 1007 52 \$1;
#X obj 1006 24 del 5;
#X obj 885 114 del;
#X obj 883 204 t b f b b;
#X obj 919 94 clip 1 133;
#X obj 648 222 route midikeyboard;
#X obj 877 255 symbol midikeyboard;
#X obj 1035 195 r \$0blockpads;
#X obj 645 348 s \$0blockpads_r;
#X obj 113 125 tgl 9 0 \$0blockpads \$0blockpads_r block\ pads 12 3
0 8 -262144 -260097 -1 0 1;
#X obj 178 133 nbx 2 14 -1e+037 1e+037 0 0 empty empty empty 0 -8 0
10 -262144 -1 -1 44 256 0;
#X obj 114 137 hsl 55 10 0 127 0 0 \$0height_r \$0height below 26 3
0 8 -262144 -1 -1 3997 1;
#X obj 223 201 / 127;
#X obj 223 241 * 60;
#X msg 257 171 94;
#X obj 256 140 loadbang;
#X obj 143 240 int;
#X obj 337 198 - 0.5;
#X obj 1157 272 f;
#X obj 1166 218 r \$0height;
#X obj 930 300 pack s f f f;
#X obj 646 302 unpack f f;
#X obj 706 408 s \$0height_r;
#X connect 1 0 2 0;
#X connect 1 1 3 0;
#X connect 1 2 4 0;
#X connect 2 0 9 0;
#X connect 2 0 10 0;
#X connect 3 0 6 1;
#X connect 5 0 6 0;
#X connect 6 0 7 0;
#X connect 8 1 5 0;
#X connect 9 0 5 0;
#X connect 10 0 8 0;
#X connect 11 0 12 0;
#X connect 12 0 13 0;
#X connect 14 0 9 1;
#X connect 15 0 14 0;
#X connect 16 0 15 0;
#X connect 16 0 10 1;
#X connect 17 0 29 0;
#X connect 18 0 26 0;
#X connect 19 0 44 2;
#X connect 21 0 27 0;
#X connect 22 0 45 0;
#X connect 23 0 25 0;
#X connect 24 0 21 1;
#X connect 24 0 22 1;
#X connect 24 0 28 0;
#X connect 25 0 24 0;
#X connect 26 0 21 0;
#X connect 27 0 30 0;
#X connect 27 1 44 1;
#X connect 27 2 19 0;
#X connect 27 3 42 0;
#X connect 28 0 26 1;
#X connect 29 0 22 0;
#X connect 30 0 44 0;
#X connect 31 0 19 1;
#X connect 34 0 41 0;
#X connect 35 0 36 0;
#X connect 36 0 37 0;
#X connect 37 0 40 0;
#X connect 38 0 35 0;
#X connect 39 0 38 0;
#X connect 40 0 34 0;
#X connect 41 0 8 1;
#X connect 42 0 44 3;
#X connect 43 0 42 1;
#X connect 44 0 20 0;
#X connect 45 0 32 0;
#X connect 45 1 46 0;
#X coords 0 -1 1 1 114 52 1 100 100;
