#N canvas 549 112 801 521 10;
#X obj -2 0 cnv 15 800 45 empty \$0-pddp.cnv.header modurand 3 12 0
18 -204280 -1 0;
#X obj 11 241 cnv 3 363 5 empty \$0-pddp.cnv.inlets empty 8 12 0 13
-228856 -1 0;
#X text 15 107 EINGANG 2: Steuert den Regler 'Zentrum' (in Mididaten
\, z.B. von [modu] \, [modurand] \, [control] \, etc.);
#X text 15 149 EINGANG 3: Steuert den Regler 'Amplitude' (in Mididaten
\, z.B. von [modu] \, [modurand] \, [control] \, etc.);
#X text 12 265 AUSGANG 1: Gibt die erzeugten Kontrolldaten aus.;
#X obj 497 58 modurand 1;
#X text 15 61 EINGANG 1: Steuert den Regler 'Frequenz' (in Mididaten
\, z.B. von [modu] \, [modurand] \, [control] \, etc.);
#X text 16 193 EINGANG 4: Steuert den Regler 'Übergang' (in Mididaten
\, z.B. von [modu] \, [modurand] \, [control] \, etc.);
#X text 421 263 [modurand] wird zur automatischen Steuerung von Modulreglern
eingesetzt.;
#X text 420 303 Das Modul erzeugt automatische \, zufällige Bewegungen
von Steuerdaten (im MIDIformat zwischen 0 und 127). Wird es an einen
passenden Moduleingang angeschlossen \, so bewegt es automatisch einen
Regler. Die erzeugten Werte sind zufällig.;
#X text 421 372 Es kann reguliert werden \, in welchen Rahmen die erzeugten
Werte liegen können. Die Mitte des Rahmes wird über 'Zentrum' eingestellt.
Der Astand der möglichen Werte über und unter dem Zentrum (die Größe
des Rahmes) über 'Amplitude'. Wie häufig neue Werte erzeugt werden
\, wird über die Frequenz gesteuert. 'Übergang' regelt die Dauer
der Übergangsbewegung zwischen zwei Werten.;
#X text 11 26 zufällige \, automatische Modulation von Parametern
, f 116;
