#N canvas 359 18 704 802 10;
#X obj 101 103 cnv 15 80 52 empty empty seq2mod 8 8 0 14 -199729 -1
0;
#X obj 292 43 loadbang;
#X obj -21 17 inlet;
#X obj 7 427 outlet;
#X obj 230 237 r toolssavebank;
#X obj 440 154 r toolssavebang;
#X obj 604 338 f;
#X obj 514 446 s toolssavelists;
#X obj 469 258 f;
#X obj 232 355 route;
#X obj 590 99 loadbang;
#X obj 591 155 \$1;
#X obj 590 127 del 5;
#X obj 469 217 del;
#X obj 465 307 t b f b;
#X obj 514 403 pack s f f;
#X obj -22 58 zl rev;
#X obj 7 254 / 1.62697;
#X obj 12 350 line;
#X obj 10 319 pack 0 0;
#X obj 107 123 hsl 60 15 0.127 127 1 0 \$0dur \$0dur_r Übergang 5
7 0 10 -262144 -260097 -1 2313 1;
#X obj 185 13 inlet;
#X obj 108 185 * 7.87401;
#X msg 297 70 1.905;
#X obj 121 138 nbx 5 14 -1e+037 1e+037 0 0 \$0show_s \$0show empty
0 -8 0 10 -262144 -1 -1 15.0003 256 0;
#X obj 114 223 s \$0show;
#X obj 232 325 route seq2mod;
#X obj 461 356 symbol seq2mod;
#X obj 225 442 s \$0dur_r;
#X obj 619 298 r \$0dur;
#X obj -23 86 route 0;
#X obj 11 127 zl rev;
#X msg 4 167 \$1;
#X obj 7 201 - 55;
#X obj 512 193 clip 1 74;
#X connect 1 0 23 0;
#X connect 2 0 16 0;
#X connect 4 0 26 0;
#X connect 5 0 13 0;
#X connect 6 0 15 2;
#X connect 8 0 14 0;
#X connect 9 0 28 0;
#X connect 10 0 12 0;
#X connect 11 0 8 1;
#X connect 11 0 9 1;
#X connect 11 0 34 0;
#X connect 12 0 11 0;
#X connect 13 0 8 0;
#X connect 14 0 27 0;
#X connect 14 1 15 1;
#X connect 14 2 6 0;
#X connect 15 0 7 0;
#X connect 16 0 30 0;
#X connect 17 0 19 0;
#X connect 18 0 3 0;
#X connect 19 0 18 0;
#X connect 20 0 22 0;
#X connect 21 0 20 0;
#X connect 22 0 19 1;
#X connect 22 0 25 0;
#X connect 23 0 20 0;
#X connect 26 0 9 0;
#X connect 27 0 15 0;
#X connect 29 0 6 1;
#X connect 30 1 31 0;
#X connect 31 0 32 0;
#X connect 32 0 33 0;
#X connect 33 0 17 0;
#X connect 34 0 13 1;
#X coords 0 -1 1 1 82 58 1 100 100;
