#N canvas 640 52 640 725 10;
#X obj 112 -253 cnv 15 476 198 empty empty spec 410 13 0 20 -233017
-1 0;
#X obj 173 -217 cnv 15 400 140 empty empty empty 20 12 0 14 -262144
-66577 0;
#X obj 135 -598 inlet~;
#X obj 489 -520 loadbang;
#X obj 130 -209 vsl 15 100 0 127 0 0 \$0midivol \$0midivol_r zoom -4
127 0 10 -99865 -260097 -1 9900 1;
#X obj 116 -102 nbx 4 16 -1e+037 1e+037 0 0 \$0show_s \$0show empty
0 -8 0 10 -262144 -1 -1 0 256 0;
#X obj 130 -226 bng 15 250 50 0 \$0resetvolume \$0resetvolume_r 1 5
6 0 8 -262144 -260097 -1;
#X obj 566 -457 s \$0midivol_r;
#X obj 588 -522 r \$0resetvolume;
#X obj 515 -441 \$0;
#X msg 610 -355 \; \$1array1 yticks 0 0.1 5;
#X obj 522 -476 bng 15 250 50 0 empty empty empty 17 7 0 10 -262144
-1 -1;
#X msg 791 -360 \; \$1array1 ylabel 0 -1 0 1;
#X msg 732 -297 \; \$1array1 xticks 0 10 1;
#N canvas 0 0 450 300 (subpatch) 0;
#X array \$0spectrum 1860 float 4 black black;
#X coords 0 100 1859 10 400 140 1;
#X restore 173 -217 graph;
#X obj 157 -77 cnv 15 7 15 empty empty 0 4 6 0 18 -233017 -66577 0
;
#X obj 31 -373 outlet~;
#N canvas 302 180 450 333 spektrum 0;
#X obj -2822 -414 *~;
#X obj -2795 -414 *~;
#X obj -2821 -351 biquad~ 0 0 0 0 1;
#X obj -2822 -373 q8_sqrt~;
#X text -2550 -493 Blockgröße;
#X obj -3052 -321 metro 100;
#X obj -2821 -495 inlet~;
#X obj -2822 -442 fft~;
#X obj -2825 -224 tabwrite~ \$0spectrum;
#X obj -3048 -379 loadbang;
#X obj -3044 -355 tgl 15 0 empty empty empty 17 7 0 10 -262144 -1 -1
1 1;
#X obj -2625 -493 block~ 4096;
#X obj -2822 -289 rmstodb~;
#X obj -2656 -393 bng 15 250 50 0 empty empty empty 17 7 0 10 -262144
-1 -1;
#X obj -2651 -347 samplerate~;
#X obj -2650 -290 osc~;
#X msg -2593 -319 0;
#X obj -2651 -266 *~ -0.5;
#X obj -2652 -241 +~ 0.5;
#X obj -2659 -214 tabwrite~ \$0hanning;
#N canvas 0 0 450 300 (subpatch) 0;
#X array \$0hanning 4095 float 2 black black;
#X coords 0 1 4095 0 100 140 1;
#X restore -2502 -388 graph;
#X obj -2651 -319 / 4096;
#X obj -2773 -476 tabreceive~ \$0hanning;
#X obj -2816 -467 *~;
#X obj -2823 -322 /~ 2048;
#X obj -2822 -256 clip~ 10 100;
#X obj -2750 -287 r \$0max;
#X obj -2624 -445 loadbang;
#X connect 0 0 3 0;
#X connect 1 0 3 0;
#X connect 2 0 24 0;
#X connect 3 0 2 0;
#X connect 5 0 8 0;
#X connect 6 0 23 0;
#X connect 7 0 0 0;
#X connect 7 0 0 1;
#X connect 7 1 1 0;
#X connect 7 1 1 1;
#X connect 9 0 10 0;
#X connect 10 0 5 0;
#X connect 12 0 25 0;
#X connect 13 0 16 0;
#X connect 13 0 14 0;
#X connect 13 0 19 0;
#X connect 14 0 21 0;
#X connect 15 0 17 0;
#X connect 16 0 15 1;
#X connect 17 0 18 0;
#X connect 18 0 19 0;
#X connect 21 0 15 0;
#X connect 22 0 23 1;
#X connect 23 0 7 0;
#X connect 24 0 12 0;
#X connect 25 0 8 0;
#X connect 26 0 25 2;
#X connect 27 0 13 0;
#X restore 106 -372 pd spektrum;
#X obj 485 -74 cnv 5 2 11 empty empty 16k 0 4 0 10 -233017 -66577 0
;
#X obj 562 -74 cnv 5 2 11 empty empty 20k 0 4 0 10 -233017 -66577 0
;
#X obj 406 -74 cnv 5 2 11 empty empty 12k 0 4 0 10 -233017 -66577 0
;
#X obj 247 -74 cnv 5 2 11 empty empty 4k 0 4 0 10 -233017 -66577 0
;
#X obj 328 -74 cnv 5 2 11 empty empty 8k 0 4 0 10 -233017 -66577 0
;
#X obj 288 -74 cnv 5 2 11 empty empty 6k 0 4 0 10 -233017 -66577 0
;
#X obj 367 -74 cnv 5 2 11 empty empty 10k 0 4 0 10 -233017 -66577 0
;
#X obj 444 -74 cnv 5 2 11 empty empty 14k 0 4 0 10 -233017 -66577 0
;
#X obj 524 -74 cnv 5 2 11 empty empty 18k 0 4 0 10 -233017 -66577 0
;
#X obj 207 -74 cnv 5 2 11 empty empty 2k 0 4 0 10 -233017 -66577 0
;
#X obj 373 -535 r \$0midivol;
#X obj 246 -419 s \$0show;
#X obj 387 -365 \$0;
#X obj 389 -401 t b f;
#X obj 380 -509 / 1.27;
#X obj 387 -339 pack f f;
#X msg 390 -314 \; \$1spectrum bounds 0 \$2 10 10;
#X obj 381 -465 + 20;
#X obj 382 -486 * 0.8;
#X obj 313 -398 s \$0max;
#X msg 570 -492 127;
#X obj 367 -440 t f f;
#X obj 311 -500 - 127;
#X obj 308 -474 abs;
#X obj 293 -453 / 127;
#X connect 2 0 16 0;
#X connect 2 0 17 0;
#X connect 3 0 38 0;
#X connect 3 0 9 0;
#X connect 8 0 38 0;
#X connect 9 0 10 0;
#X connect 11 0 9 0;
#X connect 28 0 32 0;
#X connect 28 0 40 0;
#X connect 30 0 33 0;
#X connect 31 0 30 0;
#X connect 31 1 33 1;
#X connect 32 0 36 0;
#X connect 33 0 34 0;
#X connect 35 0 39 0;
#X connect 36 0 35 0;
#X connect 38 0 7 0;
#X connect 39 0 31 0;
#X connect 39 1 37 0;
#X connect 40 0 41 0;
#X connect 41 0 42 0;
#X connect 42 0 29 0;
#X coords 0 -1 1 1 478 204 1 111 -256;
