#N canvas 431 52 935 693 10;
#X obj 101 103 cnv 15 87 90 empty empty volume 6 14 0 20 -233017 -1
0;
#X obj 302 48 inlet~;
#X obj 300 258 outlet~;
#X obj 108 135 vsl 25 50 0 127 0 0 \$0midivol \$0midivol_r empty 0
-9 0 10 -99865 -260097 -1 2450 1;
#X obj 134 172 nbx 4 16 -1e+037 1e+037 0 0 \$0show_s \$0show empty
0 -8 0 10 -262144 -1 -1 1 256 0;
#X obj 301 136 *~;
#X obj 363 119 line~;
#X msg 363 88 \$1 15;
#X obj 368 28 r \$0midivol;
#X obj 417 68 s \$0show;
#X obj 359 56 / 63.5;
#X obj 515 111 s \$0midivol_r;
#X obj 516 56 loadbang;
#X msg 516 78 63.5;
#X obj 159 140 tgl 20 0 \$0on \$0on_r an -19 10 0 14 -99865 -260097
-1 1 1;
#X obj 298 215 *~;
#X obj 421 165 r \$0on;
#X obj 603 110 s \$0on_r;
#X msg 601 67 1;
#X obj 158 646 s \$0midivol_r;
#X obj 98 648 s \$0on_r;
#X obj 360 220 line~;
#X obj 99 434 r toolssavebank;
#X obj 102 578 unpack f f;
#X obj 309 351 r toolssavebang;
#X obj 539 496 r \$0midivol;
#X obj 488 495 r \$0on;
#X obj 528 541 f;
#X obj 473 535 f;
#X obj 383 643 s toolssavelists;
#X obj 338 455 f;
#X obj 101 552 route;
#X obj 459 296 loadbang;
#X obj 460 352 \$1;
#X obj 459 324 del 5;
#X obj 338 414 del;
#X obj 101 522 route volume;
#X obj 383 600 pack s f f f;
#X obj 330 555 symbol volume;
#X obj 336 504 t b f b b;
#X obj 468 15 inlet;
#X obj 478 25 inlet;
#X msg 360 189 \$1 25;
#X obj 389 385 clip 1 66;
#X connect 1 0 5 0;
#X connect 5 0 15 0;
#X connect 6 0 5 1;
#X connect 7 0 6 0;
#X connect 8 0 10 0;
#X connect 10 0 7 0;
#X connect 10 0 9 0;
#X connect 12 0 13 0;
#X connect 13 0 11 0;
#X connect 13 0 18 0;
#X connect 15 0 2 0;
#X connect 16 0 42 0;
#X connect 18 0 17 0;
#X connect 21 0 15 1;
#X connect 22 0 36 0;
#X connect 23 0 20 0;
#X connect 23 1 19 0;
#X connect 24 0 35 0;
#X connect 25 0 27 1;
#X connect 26 0 28 1;
#X connect 27 0 37 3;
#X connect 28 0 37 2;
#X connect 30 0 39 0;
#X connect 31 0 23 0;
#X connect 32 0 34 0;
#X connect 33 0 30 1;
#X connect 33 0 31 1;
#X connect 33 0 43 0;
#X connect 34 0 33 0;
#X connect 35 0 30 0;
#X connect 36 0 31 0;
#X connect 37 0 29 0;
#X connect 38 0 37 0;
#X connect 39 0 38 0;
#X connect 39 1 37 1;
#X connect 39 2 28 0;
#X connect 39 3 27 0;
#X connect 40 0 3 0;
#X connect 41 0 14 0;
#X connect 42 0 21 0;
#X connect 43 0 35 1;
#X coords 0 -1 1 1 89 96 1 100 100;
