#N canvas 360 20 703 798 10;
#X obj 101 102 cnv 15 110 90 empty empty banger 6 10 0 16 -66577 -260097
0;
#X obj 104 136 vsl 20 50 1.27 127 1 0 \$0midivol \$0midivol_r empty
0 -9 0 10 -228856 -260097 -1 3145 1;
#X obj 124 173 nbx 4 16 -1e+037 1e+037 0 0 \$0show_s \$0show Bpm 50
8 0 10 -262144 -1 -262144 120 256 0;
#X obj 281 779 s \$0midivol_r;
#X obj 221 781 s \$0on_r;
#X obj 222 567 r toolssavebank;
#X obj 432 484 r toolssavebang;
#X obj 662 629 r \$0midivol;
#X obj 611 628 r \$0on;
#X obj 651 674 f;
#X obj 596 668 f;
#X obj 506 776 s toolssavelists;
#X obj 461 588 f;
#X obj 224 685 route;
#X obj 582 429 loadbang;
#X obj 583 485 \$1;
#X obj 582 457 del 5;
#X obj 461 547 del;
#X obj 330 159 metro 500;
#X obj 393 354 outlet;
#X obj 188 105 tgl 20 0 \$0on \$0on_r an -19 10 0 14 -228856 -260097
-262144 1 1;
#X obj 140 135 vradio 15 1 0 2 \$0mode \$0mode_r empty 0 -8 0 10 -228856
-260097 -1 0;
#X obj 333 200 spigot;
#X obj 517 212 spigot;
#X obj 470 21 == 1;
#X obj 471 71 abs;
#X obj 471 44 - 1;
#X floatatom 409 -41 5 0 0 0 - - -, f 5;
#X obj 409 -65 pow 1.5;
#X obj 409 -18 int;
#X msg 409 31 60000;
#X obj 409 55 /;
#X obj 409 6 t b f;
#X obj 469 -6 s \$0show;
#X obj 859 -24 loadbang;
#X msg 882 47 24.41;
#X obj 879 128 s \$0midivol_r;
#X obj 618 0 * 4;
#X obj 601 62 random;
#X obj 605 92 + 150;
#X obj 514 157 metro 500;
#X msg 1082 116 0;
#X obj 1078 151 s \$0mode_r;
#X obj 1248 46 s \$0on_r;
#X obj 459 637 t b f b b b;
#X obj 715 691 f;
#X obj 506 733 pack s f f f f;
#X obj 726 646 r \$0mode;
#X obj 225 711 unpack f f f;
#X obj 224 655 route banger;
#X obj 453 688 symbol banger;
#X obj 340 746 s \$0mode_r;
#X obj 162 142 cnv 15 2 2 empty empty regular 0 0 0 10 -66577 -262144
0;
#X obj 162 158 cnv 5 2 2 empty empty random 0 0 0 10 -66577 -262144
0;
#X obj 136 35 inlet;
#X obj 204 30 inlet;
#X obj 249 9 inlet;
#X obj 118 262 change;
#X obj 119 293 bng 15 250 50 0 empty empty empty 17 7 0 10 -262144
-1 -1;
#X msg 197 283 0;
#X msg 262 283 1;
#X obj 227 248 del 25;
#X obj 390 261 spigot;
#X obj 267 203 loadbang;
#X obj 393 317 spigot;
#X obj 501 522 clip 1 110;
#X connect 1 0 28 0;
#X connect 1 0 57 0;
#X connect 5 0 49 0;
#X connect 6 0 17 0;
#X connect 7 0 9 1;
#X connect 8 0 10 1;
#X connect 9 0 46 3;
#X connect 10 0 46 2;
#X connect 12 0 44 0;
#X connect 13 0 48 0;
#X connect 14 0 16 0;
#X connect 15 0 12 1;
#X connect 15 0 13 1;
#X connect 15 0 65 0;
#X connect 16 0 15 0;
#X connect 17 0 12 0;
#X connect 18 0 22 0;
#X connect 20 0 64 1;
#X connect 21 0 24 0;
#X connect 22 0 62 0;
#X connect 23 0 62 0;
#X connect 24 0 26 0;
#X connect 24 0 23 1;
#X connect 25 0 22 1;
#X connect 26 0 25 0;
#X connect 27 0 29 0;
#X connect 28 0 27 0;
#X connect 29 0 32 0;
#X connect 29 0 33 0;
#X connect 30 0 31 0;
#X connect 31 0 18 1;
#X connect 31 0 37 0;
#X connect 32 0 30 0;
#X connect 32 1 31 1;
#X connect 34 0 35 0;
#X connect 34 0 41 0;
#X connect 34 0 43 0;
#X connect 35 0 36 0;
#X connect 37 0 38 1;
#X connect 38 0 39 0;
#X connect 39 0 40 1;
#X connect 40 0 23 0;
#X connect 40 0 38 0;
#X connect 41 0 42 0;
#X connect 44 0 50 0;
#X connect 44 1 46 1;
#X connect 44 2 10 0;
#X connect 44 3 9 0;
#X connect 44 4 45 0;
#X connect 45 0 46 4;
#X connect 46 0 11 0;
#X connect 47 0 45 1;
#X connect 48 0 4 0;
#X connect 48 1 3 0;
#X connect 48 2 51 0;
#X connect 49 0 13 0;
#X connect 50 0 46 0;
#X connect 54 0 1 0;
#X connect 55 0 21 0;
#X connect 56 0 20 0;
#X connect 57 0 58 0;
#X connect 58 0 59 0;
#X connect 59 0 61 0;
#X connect 59 0 18 0;
#X connect 59 0 40 0;
#X connect 59 0 62 1;
#X connect 60 0 18 0;
#X connect 60 0 40 0;
#X connect 60 0 62 1;
#X connect 61 0 60 0;
#X connect 62 0 64 0;
#X connect 63 0 60 0;
#X connect 64 0 19 0;
#X connect 65 0 17 1;
#X coords 0 -1 1 1 112 94 1 100 100;
