#N canvas 183 90 799 281 10;
#X obj -2 0 cnv 15 800 45 empty \$0-pddp.cnv.header block 3 12 0 18
-204280 -1 0;
#X obj 15 157 cnv 3 363 5 empty \$0-pddp.cnv.inlets empty 8 12 0 13
-228856 -1 0;
#X text 10 25 Blockieren von eingehenden Noten, f 116;
#X obj 504 62 block 1;
#X text 16 60 EINGANG 1: Noteninformationen von [sequenzer] \, [steps]
\, [midiinput] \, [midikeyboard] \, etc.;
#X text 16 100 EINGANG 2: Steuert den Regler 'block' (in Mididaten
\, z.B. von [modu] \, [modurand] \, [control] \, etc.);
#X text 397 146 [block] blockiert einen Anteil der eingehenden Noten.
Mit dem Regler wird eingestellt \, wieviele der eingehenden Noten nicht
durchgelassen werden. steht der Regler auf 100 \, so werden alle Noten
geblockt. Steht er auf 0 \, können alle Noten passieren.;
#X text 15 183 AUSGANG 1: Gibt die Noten aus \, die durchgelassen wurden.
;
#X text 394 227 Links oben werden [sequenzer] \, [steps] \, [midiinput]
\, [midikeyboard] \, [loopmidi] \, etc. angeschlossen. Links unten
werden die durchgelassenen Noten ausgegeben.;
