#N canvas 327 246 801 405 10;
#X obj 0 0 cnv 15 800 45 empty \$0-pddp.cnv.header bob 3 12 0 18 -204280
-1 0;
#X obj 15 312 cnv 3 363 5 empty \$0-pddp.cnv.inlets empty 8 12 0 13
-228856 -1 0;
#X text 16 219 EINGANG 5: Steuert den Regler 'attack' (in Mididaten
\, z.B. von [modu] \, [modurand] \, [control] \, etc.);
#X text 16 260 EINGANG 6: Steuert den Regler 'decay' (in Mididaten
\, z.B. von [modu] \, [modurand] \, [control] \, etc.);
#X obj 520 60 bob 1;
#X text 9 26 weird percussion, f 116;
#X text 16 55 EINGANG 1: Steuerdaten zum Auslösen von [bob] (z.B.
von [steps] \, [sequenzer] \, [pad] \, oder [taste]);
#X text 16 96 EINGANG 2: Steuert den Regler 'pitch' (in Mididaten \,
z.B. von [modu] \, [modurand] \, [control] \, etc.);
#X text 16 137 EINGANG 3: Steuert den Regler 'filter' (in Mididaten
\, z.B. von [modu] \, [modurand] \, [control] \, etc.);
#X text 16 178 EINGANG 4: Steuert den Regler 'backslap' (in Mididaten
\, z.B. von [modu] \, [modurand] \, [control] \, etc.);
#X text 16 334 AUSGANG 1: Gibt das erzeugte Signal aus.;
#X text 414 293 [bob] erzeugt schräge perkussive Geräusche unter
Einsatz eines Echoeffekts. Mit 'Pitch' wird die Tonhöhe des Geräuschs
gestimmt. Mit 'filter' wird der Anteil von Bässen im Klang geregelt
(je tiefer \, desto mehr tiefe Klanganteile). 'backslap' bestimmt die
Zeit des Echos (in ms) und hat damit großen Einfluss auf den Klang.
'attack' und 'decay' steuern das Ein- und Ausschwingverhalten.;
