#N canvas 17 82 1423 818 10;
#X obj 471 -363 loadbang;
#X obj 451 -259 s \$0attack_r;
#X obj 205 -375 s \$0waveclipctl;
#X obj 201 -431 loadbang;
#X obj 647 -258 s \$0decay_r;
#X msg 204 -405 53;
#X msg 632 -297 45;
#X msg 395 -331 39;
#X obj 102 102 cnv 15 125 196 empty empty bob 46 10 0 16 -33289 -260097
0;
#X obj 115 140 vsl 15 60 0 127 0 0 \$0pitch \$0pitch_r pitch -6 -9
0 11 -228856 -260097 -262144 1812 1;
#X obj 196 140 vsl 15 60 0 127 0 0 \$0filter \$0filter_r filter -11
-9 0 11 -228856 -260097 -262144 929 1;
#X obj 150 159 bng 25 250 50 0 \$0kickit \$0kickit_r empty 17 7 0 10
-228856 -260097 -1;
#X obj 128 220 hsl 75 15 1 127 0 0 \$0back \$0back_r backslap 18 8
0 11 -228856 -260097 -1 1703 1;
#X obj 115 203 nbx 3 14 -1e+037 1e+037 0 0 \$0showtune_s \$0showtune
empty 0 -8 0 10 -262144 -1 -1 158 256 0;
#X obj 178 203 nbx 3 14 -1e+037 1e+037 0 0 \$0noiseshow_s \$0noiseshow
empty 0 -8 0 10 -262144 -1 -1 180 256 0;
#X obj 109 261 hsl 50 15 0.0127 127 1 0 \$0attack \$0attack_r attack
7 7 0 10 -228856 -260097 -1 1098 1;
#X obj 173 262 hsl 50 15 0.0127 127 0 0 \$0decay \$0decay_r decay 9
7 0 10 -228856 -260097 -1 1736 1;
#X obj 148 235 nbx 3 14 -1e+037 1e+037 0 0 \$0showsnap_s \$0showsnap
empty 0 -8 0 10 -262144 -1 -1 7.08383 256 0;
#X obj 119 276 nbx 4 14 -1e+037 1e+037 0 0 \$0attackshow_s \$0attackshow
empty 0 -8 0 10 -262144 -1 -1 0.10003 256 0;
#X obj 179 277 nbx 4 14 -1e+037 1e+037 0 0 \$0decayshow_s \$0decayshow
empty 0 -8 0 10 -262144 -1 -1 180 256 0;
#X obj 114 -13 inlet;
#X obj 181 9 inlet;
#X obj 257 18 inlet;
#X obj 324 40 inlet;
#X obj 361 54 inlet;
#X obj -118 487 outlet~;
#X obj 443 190 r toolssavebank;
#X obj 653 107 r toolssavebang;
#X obj 872 297 f;
#X obj 817 291 f;
#X obj 727 399 s toolssavelists;
#X obj 682 211 f;
#X obj 445 308 route;
#X obj 803 52 loadbang;
#X obj 804 108 \$1;
#X obj 803 80 del 5;
#X obj 682 170 del;
#X obj 944 325 f;
#X obj 729 356 pack s f f f f f f f f f;
#X obj 1045 352 f;
#X obj 990 346 f;
#X obj 680 260 t b f b b b b b;
#X obj 1057 324 r \$0decay;
#X obj 1022 295 r \$0attack;
#X obj 446 334 unpack f f f f f;
#X obj 592 504 s \$0decay_r;
#X obj 557 475 s \$0attack_r;
#X obj -311 99 osc~;
#X obj -227 155 *~;
#X obj -315 -55 nbx 5 14 -1e+037 1e+037 0 1 empty \$0pitch empty 0
-8 0 10 -262144 -1 -1 39 256 0;
#X obj -203 -177 bng 15 250 50 0 empty \$0kickit empty 17 7 0 10 -262144
-1 -1;
#X obj -227 182 hip~ 400;
#X obj -227 206 hip~ 400;
#X obj -151 124 nbx 5 14 0 5000 0 0 empty \$0filter empty 0 -8 0 10
-262144 -1 -1 20 256 0;
#X text -152 106 HPF;
#X text -312 49 pitch;
#X obj -225 255 lop~ 400;
#X obj -168 -68 del 1.5;
#X obj -212 92 *~ 1;
#X floatatom -419 44 5 0 0 0 - - -, f 5;
#X obj -315 -33 * 2;
#X obj -345 250 hip~ 100;
#X obj -344 229 hip~ 100;
#X obj -358 126 *~ 2;
#X obj -212 52 vline~;
#X obj -224 -83 pack 0 0;
#X msg -222 -117 1;
#X obj -177 -123 r \$0attack;
#X obj -139 12 pack 0 0;
#X msg -168 -37 0;
#X obj -94 -42 r \$0decay;
#X obj -97 -20 * 4;
#X obj -318 -9 + 80;
#X obj -150 177 + 100;
#X obj -148 147 * 4;
#X obj -297 -437 inlet;
#X obj -187 -293 unpack 0 0;
#X floatatom -136 -238 5 0 0 0 - - -, f 5;
#X obj -136 -214 / 127;
#X obj -184 -263 moses 0.1;
#X obj -348 26 s \$0showtune;
#X obj -70 204 s \$0noiseshow;
#X obj -431 24 s \$0showsnap;
#X obj -426 -71 r \$0back;
#X obj -43 39 s \$0decayshow;
#X obj -107 -86 s \$0attackshow;
#X obj -420 123 vd~ \$0rim;
#X obj -408 103 line~;
#X msg -418 66 \$1 10;
#X obj -190 324 delwrite~ \$0rim 30;
#X obj -418 -27 / 4.235;
#X obj 446 279 route bob;
#X obj 673 311 symbol bob;
#X obj 844 168 r \$0pitch;
#X obj 924 222 r \$0filter;
#X obj 1003 235 r \$0back;
#X obj 412 377 s \$0pitch_r;
#X obj 459 403 s \$0filter_r;
#X obj 503 437 s \$0back_r;
#X obj -147 -170 t b f;
#X obj -369 307 *~ 2;
#X obj 612 -189 s \$0back_r;
#X obj 380 -238 s \$0pitch_r;
#X obj 301 -267 s \$0filter_r;
#X msg 328 -340 20;
#X msg 608 -223 30;
#X msg 459 -289 0.1;
#X obj 82 51 clip 0 127;
#X obj 180 49 clip 0 127;
#X obj 238 72 clip 0 127;
#X obj 288 105 clip 0 127;
#X obj 297 145 clip 0 127;
#X obj -276 -365 route bang stop;
#X obj 726 135 clip 1 40;
#X connect 0 0 7 0;
#X connect 0 0 104 0;
#X connect 0 0 106 0;
#X connect 0 0 6 0;
#X connect 0 0 105 0;
#X connect 3 0 5 0;
#X connect 5 0 2 0;
#X connect 6 0 4 0;
#X connect 7 0 102 0;
#X connect 20 0 107 0;
#X connect 21 0 108 0;
#X connect 22 0 109 0;
#X connect 23 0 110 0;
#X connect 24 0 111 0;
#X connect 26 0 91 0;
#X connect 27 0 36 0;
#X connect 28 0 38 3;
#X connect 29 0 38 2;
#X connect 31 0 41 0;
#X connect 32 0 44 0;
#X connect 33 0 35 0;
#X connect 34 0 31 1;
#X connect 34 0 32 1;
#X connect 34 0 113 0;
#X connect 35 0 34 0;
#X connect 36 0 31 0;
#X connect 37 0 38 4;
#X connect 38 0 30 0;
#X connect 39 0 38 6;
#X connect 40 0 38 5;
#X connect 41 0 92 0;
#X connect 41 1 38 1;
#X connect 41 2 29 0;
#X connect 41 3 28 0;
#X connect 41 4 37 0;
#X connect 41 5 40 0;
#X connect 41 6 39 0;
#X connect 42 0 39 1;
#X connect 43 0 40 1;
#X connect 44 0 96 0;
#X connect 44 1 97 0;
#X connect 44 2 98 0;
#X connect 44 3 46 0;
#X connect 44 4 45 0;
#X connect 47 0 48 0;
#X connect 48 0 51 0;
#X connect 49 0 60 0;
#X connect 50 0 57 0;
#X connect 50 0 66 0;
#X connect 51 0 52 0;
#X connect 52 0 56 0;
#X connect 52 0 62 0;
#X connect 53 0 74 0;
#X connect 56 0 89 0;
#X connect 57 0 69 0;
#X connect 58 0 48 1;
#X connect 59 0 88 0;
#X connect 60 0 72 0;
#X connect 61 0 100 0;
#X connect 62 0 61 0;
#X connect 63 0 51 0;
#X connect 64 0 58 0;
#X connect 65 0 64 0;
#X connect 66 0 65 0;
#X connect 67 0 65 1;
#X connect 67 0 57 1;
#X connect 67 0 85 0;
#X connect 68 0 64 0;
#X connect 69 0 68 0;
#X connect 70 0 71 0;
#X connect 71 0 68 1;
#X connect 71 0 84 0;
#X connect 72 0 47 0;
#X connect 72 0 80 0;
#X connect 73 0 51 1;
#X connect 73 0 56 1;
#X connect 73 0 52 1;
#X connect 73 0 81 0;
#X connect 74 0 73 0;
#X connect 75 0 112 0;
#X connect 76 1 79 0;
#X connect 77 0 78 0;
#X connect 78 0 99 0;
#X connect 79 1 77 0;
#X connect 83 0 90 0;
#X connect 86 0 63 0;
#X connect 87 0 86 0;
#X connect 88 0 87 0;
#X connect 90 0 59 0;
#X connect 90 0 82 0;
#X connect 91 0 32 0;
#X connect 92 0 38 0;
#X connect 93 0 29 1;
#X connect 94 0 28 1;
#X connect 95 0 37 1;
#X connect 99 0 57 0;
#X connect 99 1 65 0;
#X connect 100 0 25 0;
#X connect 104 0 103 0;
#X connect 105 0 101 0;
#X connect 106 0 1 0;
#X connect 107 0 9 0;
#X connect 108 0 10 0;
#X connect 109 0 12 0;
#X connect 110 0 15 0;
#X connect 111 0 16 0;
#X connect 112 0 50 0;
#X connect 112 2 76 0;
#X connect 113 0 36 1;
#X coords 0 -1 1 1 129 200 1 100 100;
