#N canvas 341 312 801 316 10;
#X obj 0 0 cnv 15 800 45 empty \$0-pddp.cnv.header drops 3 12 0 18
-204280 -1 0;
#X obj 17 221 cnv 3 363 5 empty \$0-pddp.cnv.inlets empty 8 12 0 13
-228856 -1 0;
#X text 19 51 EINGANG 1: Audiosignal \, das verarbeitet werden soll.
;
#X obj 524 58 drops 1;
#X text 17 246 AUSGANG 1: Gibt das verarbeitete Signal aus.;
#X text 18 176 EINGANG 4: Steuert den Schalter 'an' (0=aus \, 1=an
\, bzw. bang für an/aus);
#X text 19 87 EINGANG 2: Steuert den Regler 'time' (in Mididaten \,
z.B. von [modu] \, [modurand] \, [control] \, etc.);
#X text 19 130 EINGANG 3: Steuert den Regler 'length' (in Mididaten
\, z.B. von [modu] \, [modurand] \, [control] \, etc.);
#X text 10 25 Klangtropfen, f 116;
#X text 414 228 [drops] lässt das eingehende Signal in Tropfen passieren.
So lassen sich z.B. aus eingehenden Klangflächen einzelne Klangereignisse
heraustrennen. Die herausgetrennten Klangtropfen können in der Häufigkeit
ihres zeitlichen Auftretens (Time) und ihrer Länge (length) gesteuert
werden.;
