#N canvas 0 0 703 838 10;
#X obj 357 640 r toolssavebank;
#X obj 567 557 r toolssavebang;
#X obj 731 741 f;
#X obj 641 849 s toolssavelists;
#X obj 596 661 f;
#X obj 359 758 route;
#X obj 717 502 loadbang;
#X obj 718 558 \$1;
#X obj 717 530 del 5;
#X obj 596 620 del;
#X obj 102 103 cnv 15 80 92 empty empty humanize 10 8 0 12 -199729
-1 0;
#X obj -152 312 outlet;
#X obj 410 37 loadbang;
#X obj -144 -82 unpack 0 0;
#X obj 132 124 vsl 15 45 1.27 127 0 0 \$0int \$0int_r empty 0 -9 0
10 -262144 -260097 -1 0 0;
#X obj 123 176 nbx 3 14 -1e+037 1e+037 0 0 empty empty empty 0 -8 0
10 -262144 -1 -1 1.27 256 0;
#X obj 125 -258 r \$0int;
#X obj -85 31 clip 0 127;
#X obj 67 -181 random 127;
#X obj -58 -11 +;
#X obj 124 -209 * 2;
#X obj 70 -150 - 127;
#X obj 66 -262 bng 15 250 50 0 empty empty empty 17 7 0 10 -262144
-1 -1;
#X floatatom 69 -110 5 0 0 0 - - -, f 5;
#X obj 72 -61 int;
#X obj 76 -86 + 0.5;
#X obj 239 -350 loadbang;
#X obj 233 -318 time;
#X msg 240 -281 seed \$1;
#X obj -187 -246 inlet;
#X obj -186 -169 zl rev;
#X obj -147 -114 zl rev;
#X obj -132 68 pack 0 0;
#X msg 382 79 1.27;
#X obj 379 111 s \$0int_r;
#X obj 588 761 symbol human;
#X obj 359 728 route human;
#X obj 642 805 pack s f f;
#X obj 594 710 t b f b;
#X obj 304 836 s \$0int_r;
#X obj 745 700 r \$0int;
#X obj 653 590 clip 1 76;
#X obj 206 -71 inlet;
#X obj -202 70 pack f 0;
#X obj -278 14 bng 15 250 50 0 empty empty empty 17 7 0 10 -262144
-1 -1;
#X msg -249 151 stop 0;
#X obj -187 -214 route stop;
#X obj -186 -143 route 0;
#X connect 0 0 36 0;
#X connect 1 0 9 0;
#X connect 2 0 37 2;
#X connect 4 0 38 0;
#X connect 5 0 39 0;
#X connect 6 0 8 0;
#X connect 7 0 4 1;
#X connect 7 0 5 1;
#X connect 7 0 41 0;
#X connect 8 0 7 0;
#X connect 9 0 4 0;
#X connect 12 0 33 0;
#X connect 13 0 32 0;
#X connect 13 1 19 0;
#X connect 14 0 15 0;
#X connect 16 0 20 0;
#X connect 16 0 21 1;
#X connect 17 0 32 1;
#X connect 18 0 21 0;
#X connect 19 0 17 0;
#X connect 20 0 18 1;
#X connect 21 0 23 0;
#X connect 22 0 18 0;
#X connect 23 0 25 0;
#X connect 24 0 19 1;
#X connect 25 0 24 0;
#X connect 26 0 27 0;
#X connect 27 3 28 0;
#X connect 28 0 18 0;
#X connect 29 0 46 0;
#X connect 30 0 47 0;
#X connect 31 0 13 0;
#X connect 32 0 11 0;
#X connect 33 0 34 0;
#X connect 35 0 37 0;
#X connect 36 0 5 0;
#X connect 37 0 3 0;
#X connect 38 0 35 0;
#X connect 38 1 37 1;
#X connect 38 2 2 0;
#X connect 40 0 2 1;
#X connect 41 0 9 1;
#X connect 42 0 14 0;
#X connect 43 0 11 0;
#X connect 44 0 45 0;
#X connect 45 0 11 0;
#X connect 46 0 44 0;
#X connect 46 1 30 0;
#X connect 47 0 43 0;
#X connect 47 1 31 0;
#X connect 47 1 22 0;
#X coords 0 -1 1 1 84 98 1 100 100;
