#N canvas 183 90 799 281 10;
#X obj -2 0 cnv 15 800 45 empty \$0-pddp.cnv.header humanize 3 12 0
18 -204280 -1 0;
#X obj 15 157 cnv 3 363 5 empty \$0-pddp.cnv.inlets empty 8 12 0 13
-228856 -1 0;
#X text 16 60 EINGANG 1: Noteninformationen von [sequenzer] \, [midiinput]
\, [midikeyboard] \, etc.;
#X obj 516 55 humanize 1;
#X text 15 183 AUSGANG 1: Gibt die veränderten Noten aus.;
#X text 397 172 Anders als Maschinen wie Sequenzer können Menschen
die selbe Abfolge von Noten eigentlich nie perfekt wiederholen. Ein
Mensch würde ein Note immer ein klein wenig anders spielen \, z.B.
die Taste auf einem Klavier etwas stärker oder schwächer drücken.
;
#X text 396 253 [humanize] macht dieses Verhalten nach \, indem es
zufällig die Lautstärke verändert \, mit der eine eigehende Note
erzeugt wurde. Der Regler steuert die Höhe der zufälligen Abweichung.
[humanize] macht die Noten dabei lauter oder leiser \, die Veränderung
geht also in beide Richtungen. Die maximale Lautstärke ist 127 \,
die minimale 0;
#X text 396 342 Mit [humanize] können Sequenzen \, die sich ständig
wiederholen \, leicht verändert werden \, damit sie natürlicher klingen.
;
#X text 16 100 EINGANG 2: Steuert den Regler 'humanize' (in Mididaten
\, z.B. von [modu] \, [modurand] \, [control] \, etc.);
#X text 10 25 zufällige Lautstärkeveränderung von Noten, f 116
;
