#N canvas 522 89 801 234 10;
#X obj -1 -2 cnv 15 800 45 empty \$0-pddp.cnv.header limits 3 12 0
18 -204280 -1 0;
#X obj 16 102 cnv 3 363 5 empty \$0-pddp.cnv.inlets empty 8 12 0 13
-228856 -1 0;
#X text 18 63 EINGANG 1: Audiosignal \, das verarbeitet werden soll
;
#X obj 539 62 limits 1;
#X text 10 25 Ein simpler Limiter, f 116;
#X text 17 125 AUSGANG 1: Gibt das in der Lautstärke begrenzte Audiosignal
aus.;
#X text 411 146 [limits] ist ein sogenannter Limiter. Es sorgt dafür
\, dass ein Signal nicht übersteuert \, also zu laut wird und deshalb
verzerrt. Es sollte bei Signalen \, die zu laut werden könnten (z.B.
live-input über das Mikrofon) zwischengeschaltet werden \, um Übersteuerung
vorzubeugen.;
