#N canvas 0 0 1423 838 10;
#X obj 96 87 cnv 15 160 88 empty empty linie 29 11 0 14 -66577 -260097
0;
#X obj 142 127 nbx 6 16 -1e+037 1e+037 0 0 \$0wait_s_s \$0wait_s ms
67 8 0 10 -262144 -1 -262144 1000.02 256 0;
#X obj 127 111 hsl 96 15 0 127 0 0 \$0wait \$0wait_r time 33 5 0 10
-228856 -260097 -1 158 1;
#X obj 229 15 inlet;
#X obj 229 40 clip 0 127;
#X obj -72 151 inlet;
#X obj -115 596 outlet;
#X obj 763 405 r toolssavebank;
#X obj 867 271 r toolssavebang;
#X obj 1031 455 f;
#X obj 941 563 s toolssavelists;
#X obj 896 375 f;
#X obj 766 470 route;
#X obj 1017 216 loadbang;
#X obj 1018 272 \$1;
#X obj 1017 244 del 5;
#X obj 896 334 del;
#X obj 957 314 clip 1 99;
#X obj 763 566 s \$0wait_r;
#X obj 1046 415 r \$0wait;
#X obj 236 90 vsl 15 76 0 127 0 0 \$0end \$0end_r empty 0 -9 0 10 -228856
-260097 -1 7500 1;
#X obj 101 91 vsl 15 76 0 127 0 0 \$0start \$0start_r empty 0 -9 0
10 -228856 -260097 -1 0 1;
#X obj 766 440 route linie;
#X obj 888 475 symbol linie;
#X obj 119 159 nbx 4 14 -1e+037 1e+037 0 0 empty empty start 6 -8 0
10 -262144 -1 -262144 0 256 0;
#X obj 189 158 nbx 4 14 -1e+037 1e+037 0 0 empty empty end 11 -8 0
10 -262144 -1 -262144 127 256 0;
#X obj 115 21 inlet;
#X obj 327 19 inlet;
#X obj 115 46 clip 0 127;
#X obj 327 44 clip 0 127;
#X obj 603 152 loadbang;
#X obj 531 208 s \$0start_r;
#X obj 657 212 s \$0end_r;
#X msg 529 181 0;
#X msg 655 186 127;
#X obj 85 230 * 472.441;
#X obj 86 200 r \$0wait;
#X obj 137 266 s \$0wait_s;
#X obj 37 314 pack f f;
#X obj -23 294 f;
#X obj 87 274 t b f;
#X obj -58 293 l;
#X obj -72 182 select bang stop;
#X obj -54 236 t b b;
#X obj -43 403 line;
#X obj -4 207 unpack 0 0;
#X obj -1 237 moses 0.1;
#X obj 39 267 bng 15 250 50 0 empty empty empty 17 7 0 10 -262144 -1
-1;
#X obj -20 362 spigot;
#X obj 194 90 tgl 10 0 \$0usestart \$0usestart_r use\ start -15 12
0 8 -228856 -260097 -262144 1 1;
#X obj 445 229 s \$0usestart_r;
#X msg 446 202 1;
#X obj 32 361 r \$0usestart;
#X obj 942 520 pack s f f f f;
#X obj 1119 445 r \$0start;
#X obj 1183 462 r \$0end;
#X obj 1105 468 f;
#X obj 1173 486 f;
#X obj 894 424 t b f b b b;
#X obj 764 513 unpack f f f;
#X obj 800 599 s \$0start_r;
#X obj 830 631 s \$0end_r;
#X obj 595 240 s \$0wait_r;
#X msg 606 216 2.1167;
#X connect 3 0 4 0;
#X connect 4 0 2 0;
#X connect 5 0 42 0;
#X connect 7 0 22 0;
#X connect 8 0 16 0;
#X connect 9 0 53 2;
#X connect 11 0 58 0;
#X connect 12 0 59 0;
#X connect 13 0 15 0;
#X connect 14 0 11 1;
#X connect 14 0 12 1;
#X connect 14 0 17 0;
#X connect 15 0 14 0;
#X connect 16 0 11 0;
#X connect 17 0 16 1;
#X connect 19 0 9 1;
#X connect 20 0 38 0;
#X connect 20 0 25 0;
#X connect 21 0 39 1;
#X connect 21 0 24 0;
#X connect 22 0 12 0;
#X connect 23 0 53 0;
#X connect 26 0 28 0;
#X connect 27 0 29 0;
#X connect 28 0 21 0;
#X connect 29 0 20 0;
#X connect 30 0 34 0;
#X connect 30 0 33 0;
#X connect 30 0 51 0;
#X connect 30 0 63 0;
#X connect 33 0 31 0;
#X connect 34 0 32 0;
#X connect 35 0 37 0;
#X connect 35 0 40 0;
#X connect 36 0 35 0;
#X connect 38 0 41 1;
#X connect 39 0 48 0;
#X connect 40 0 38 0;
#X connect 40 1 38 1;
#X connect 41 0 44 0;
#X connect 42 0 43 0;
#X connect 42 2 45 0;
#X connect 43 0 41 0;
#X connect 43 1 39 0;
#X connect 44 0 6 0;
#X connect 45 1 46 0;
#X connect 46 1 47 0;
#X connect 47 0 43 0;
#X connect 48 0 44 0;
#X connect 51 0 50 0;
#X connect 52 0 48 1;
#X connect 53 0 10 0;
#X connect 54 0 56 1;
#X connect 55 0 57 1;
#X connect 56 0 53 3;
#X connect 57 0 53 4;
#X connect 58 0 23 0;
#X connect 58 1 53 1;
#X connect 58 2 9 0;
#X connect 58 3 56 0;
#X connect 58 4 57 0;
#X connect 59 0 18 0;
#X connect 59 1 60 0;
#X connect 59 2 61 0;
#X connect 63 0 62 0;
#X coords 0 -1 1 1 162 92 1 95 85;
