#N canvas 439 111 801 610 10;
#X obj -2 0 cnv 15 800 45 empty \$0-pddp.cnv.header loopmidi 3 12 0
18 -204280 -1 0;
#X obj 11 241 cnv 3 363 5 empty \$0-pddp.cnv.inlets empty 8 12 0 13
-228856 -1 0;
#X text 15 193 EINGANG 4: Steuert den Schalter 'Aufnahme' (0=aus \,
1=an \, bzw. bang für an/aus \, z.B. [taste] \, [banger] \, etc.).
;
#X obj 493 54 loopmidi;
#X text 414 340 [midiinput] und [clock] werden an den ersten Eingang
links angeschlossen. Über die anderen Eingänge werden die Schalter
gesteuert. Das Modul gibt bei aktivierter Ausgabe die eingespielte
Melodie (Steuerdaten) in einer Schleife aus.;
#X text 414 287 [loopmidi] nimmt von [midiinput] oder [midikeyboard]
gespielte Melodien auf. Braucht dafür das Zeitsignal eines [clock]
oder eines [levlink] Moduls.;
#X text 416 409 Aufgenommen wird nach aktivieren des 'Aufnahme'-Schalters
beim Start des nächsten Durchgangs. Bei Aufnahme leuchtet das Modul
rot.;
#X text 415 464 Die Länge des aufgenommenen Loops kann unter 'Takte'
verändert werden (1-4 Takte). Die Töne werden mit 'Ausgabe' ausgegeben
und kann mit 'löschen' gelöscht werden. Der Loop kann außerdem extern
gespeichert und geladen werden.;
#X text 414 567 Um die Aufnahme zu erleichtern \, kann ein klick aktiviert
werden.;
#X text 415 524 Die Anzeige in der Mitte zeigt die Taktposition an
\, bei der sich loopmidi gerade befindet.;
#X text 12 265 AUSGANG 1: Gibt die erzeugte Sequenz in Kontrolldaten
aus. (Muss also wie [sequenzer] oder [midiinput] benutzt werden);
#X text 15 66 EINGANG 1: Kontrolldaten zum Tempo ([clock] oder [levlink])
UND Noteninformationen von [midiinput] \, [midikeyboard] \, etc.;
#X text 15 107 EINGANG 2: Steuert den Schalter 'Ausgabe' (0=aus \,
1=an \, bzw. bang für an/aus \, z.B. [taste] \, [banger] \, etc.).
;
#X text 15 149 EINGANG 3: Steuert den Schalter 'Takte' (1 = 1 Takt
\, 2 = 2 Takte \, 3 = 3 Takte \, 4 = 4 Takte \, z.B. von [nummer]).
;
#X text 11 26 midiloops aufnehmen und abspielen, f 116;
