#N canvas 170 148 1024 525 10;
#X obj 36 -563 cnv 15 368 138 empty empty mixer 4 7 0 20 -233017 -1
0;
#X obj -280 -739 inlet~;
#X obj -16 540 outlet~;
#X obj 55 -539 vsl 20 70 0 127 0 0 \$0vol1 \$0vol1_r vol 1 35 0 10
-99865 -260097 -262144 1725 1;
#X obj 79 -478 nbx 4 12 -1e+037 1e+037 0 0 \$0show1_s \$0show1 empty
0 -8 0 8 -262144 -1 -1 1 256 0;
#X obj -426 -21 *~;
#X obj -394 -42 line~;
#X msg -394 -73 \$1 15;
#X obj 695 -498 loadbang;
#X obj 79 -497 tgl 15 0 \$0on1 \$0on1_r 1 18 2 0 22 -99865 -260097
-1 1 1;
#X obj -416 101 *~;
#X msg 636 -440 1;
#X obj -354 106 line~;
#X obj 905 78 r toolssavebank;
#X obj 1192 -58 r toolssavebang;
#X obj 1411 132 f;
#X obj 1356 126 f;
#X obj 1267 536 s toolssavelists;
#X obj 1224 30 f;
#X obj 905 200 route;
#X obj 1342 -113 loadbang;
#X obj 1343 -57 \$1;
#X obj 1342 -85 del 5;
#X obj 1225 -14 del;
#X obj -211 -743 inlet;
#X obj -165 -743 inlet;
#X msg -354 75 \$1 25;
#X obj 1272 -24 clip 1 66;
#X obj -399 404 *~;
#X obj -360 402 *~;
#X obj -398 -133 r \$0vol1;
#X obj -345 46 r \$0on1;
#X obj 44 -459 hsl 40 20 0 127 0 0 \$0pan1 \$0pan1_r pan 14 7 0 10
-99865 -260097 -262144 1950 1;
#X obj 143 542 outlet~;
#X obj -16 490 +~;
#X obj 144 490 +~;
#X obj -360 357 line~;
#X obj -306 364 line~;
#X obj -364 264 expr 1 - $f1;
#X obj -398 -105 / 31.75;
#X obj -318 195 / 127;
#X obj -122 -743 inlet;
#X obj -231 -716 clip 0 127;
#X obj -193 -690 clip 0 127;
#X msg -122 -694 1;
#X msg -99 -674 0;
#X obj -122 -719 sel 1 0 bang;
#X obj 550 -396 s \$0vol1_r;
#X obj 638 -397 s \$0on1_r;
#X msg 551 -429 31.75;
#X msg 497 -429 63.5;
#X obj -350 -80 s \$0show1;
#X obj 470 -403 s \$0pan1_r;
#X obj -319 222 sqrt;
#X msg -360 332 \$1 10;
#X msg -305 342 \$1 10;
#X obj 124 -539 vsl 20 70 0 127 0 0 \$0vol2 \$0vol2_r vol 1 35 0 10
-99865 -260097 -262144 1725 1;
#X obj 148 -478 nbx 4 12 -1e+037 1e+037 0 0 \$0show2_s \$0show2 empty
0 -8 0 8 -262144 -1 -1 1 256 0;
#X obj 148 -497 tgl 15 0 \$0on2 \$0on2_r 2 18 2 0 22 -99865 -260097
-1 1 1;
#X obj 113 -459 hsl 40 20 0 127 0 0 \$0pan2 \$0pan2_r pan 14 7 0 10
-99865 -260097 -262144 1950 1;
#X obj 7 -713 inlet~;
#X obj 76 -717 inlet;
#X obj 122 -717 inlet;
#X obj 165 -717 inlet;
#X obj 56 -690 clip 0 127;
#X obj 94 -664 clip 0 127;
#X msg 165 -668 1;
#X msg 188 -648 0;
#X obj 165 -693 sel 1 0 bang;
#X msg 901 -442 1;
#X msg 816 -431 31.75;
#X msg 762 -431 63.5;
#X obj 736 -404 s \$0pan2_r;
#X obj 814 -400 s \$0vol2_r;
#X obj 903 -399 s \$0on2_r;
#X obj -61 -33 *~;
#X obj -29 -54 line~;
#X msg -29 -85 \$1 15;
#X obj -51 89 *~;
#X obj 11 94 line~;
#X msg 11 63 \$1 25;
#X obj -34 392 *~;
#X obj 5 390 *~;
#X obj 5 345 line~;
#X obj 59 352 line~;
#X obj 1 252 expr 1 - $f1;
#X obj -33 -117 / 31.75;
#X obj 47 183 / 127;
#X obj 46 210 sqrt;
#X msg 5 320 \$1 10;
#X msg 60 330 \$1 10;
#X obj -33 -145 r \$0vol2;
#X obj 15 -92 s \$0show2;
#X obj 22 34 r \$0on2;
#X obj -331 164 r \$0pan1;
#X obj 54 159 r \$0pan2;
#X obj 194 -539 vsl 20 70 0 127 0 0 \$0vol3 \$0vol3_r vol 1 35 0 10
-99865 -260097 -262144 1725 1;
#X obj 218 -478 nbx 4 12 -1e+037 1e+037 0 0 \$0show3_s \$0show3 empty
0 -8 0 8 -262144 -1 -1 1 256 0;
#X obj 218 -497 tgl 15 0 \$0on3 \$0on3_r 3 18 2 0 22 -99865 -260097
-1 1 1;
#X obj 183 -459 hsl 40 20 0 127 0 0 \$0pan3 \$0pan3_r pan 14 7 0 10
-99865 -260097 -262144 1950 1;
#X msg 1193 -442 1;
#X msg 1108 -431 31.75;
#X msg 1054 -431 63.5;
#X obj 1028 -404 s \$0pan3_r;
#X obj 1110 -393 s \$0vol3_r;
#X obj 1195 -399 s \$0on3_r;
#X obj 260 -720 inlet~;
#X obj 329 -724 inlet;
#X obj 375 -724 inlet;
#X obj 418 -724 inlet;
#X obj 309 -697 clip 0 127;
#X obj 347 -671 clip 0 127;
#X msg 418 -675 1;
#X msg 441 -655 0;
#X obj 418 -700 sel 1 0 bang;
#X obj 156 -34 *~;
#X obj 188 -55 line~;
#X msg 188 -86 \$1 15;
#X obj 166 88 *~;
#X obj 228 93 line~;
#X msg 228 62 \$1 25;
#X obj 183 391 *~;
#X obj 222 389 *~;
#X obj 222 344 line~;
#X obj 276 351 line~;
#X obj 218 251 expr 1 - $f1;
#X obj 184 -118 / 31.75;
#X obj 264 182 / 127;
#X obj 263 209 sqrt;
#X msg 222 319 \$1 10;
#X msg 277 329 \$1 10;
#X obj 184 -146 r \$0vol3;
#X obj 232 -93 s \$0show3;
#X obj 239 33 r \$0on3;
#X obj 273 158 r \$0pan3;
#X obj 266 -538 vsl 20 70 0 127 0 0 \$0vol4 \$0vol4_r vol 1 35 0 10
-99865 -260097 -262144 1725 1;
#X obj 290 -477 nbx 4 12 -1e+037 1e+037 0 0 \$0show4_s \$0show4 empty
0 -8 0 8 -262144 -1 -1 1 256 0;
#X obj 290 -496 tgl 15 0 \$0on4 \$0on4_r 4 18 2 0 22 -99865 -260097
-1 1 1;
#X obj 255 -458 hsl 40 20 0 127 0 0 \$0pan4 \$0pan4_r pan 14 7 0 10
-99865 -260097 -262144 1950 1;
#X obj 337 -538 vsl 20 70 0 127 0 0 \$0vol5 \$0vol5_r vol 1 35 0 10
-99865 -260097 -262144 1725 1;
#X obj 361 -477 nbx 4 12 -1e+037 1e+037 0 0 \$0show5_s \$0show5 empty
0 -8 0 8 -262144 -1 -1 1 256 0;
#X obj 361 -496 tgl 15 0 \$0on5 \$0on5_r 5 18 2 0 22 -99865 -260097
-1 1 1;
#X obj 326 -458 hsl 40 20 0 127 0 0 \$0pan5 \$0pan5_r pan 14 7 0 10
-99865 -260097 -262144 1950 1;
#X obj 524 -685 inlet~;
#X obj 593 -689 inlet;
#X obj 639 -689 inlet;
#X obj 682 -689 inlet;
#X obj 573 -662 clip 0 127;
#X obj 611 -636 clip 0 127;
#X msg 682 -640 1;
#X msg 705 -620 0;
#X obj 682 -665 sel 1 0 bang;
#X obj 777 -692 inlet~;
#X obj 846 -696 inlet;
#X obj 892 -696 inlet;
#X obj 935 -696 inlet;
#X obj 826 -669 clip 0 127;
#X obj 864 -643 clip 0 127;
#X msg 935 -647 1;
#X msg 958 -627 0;
#X obj 935 -672 sel 1 0 bang;
#X msg 795 -330 1;
#X msg 710 -319 31.75;
#X msg 656 -319 63.5;
#X msg 1126 -340 1;
#X msg 1041 -329 31.75;
#X msg 987 -329 63.5;
#X obj 630 -292 s \$0pan4_r;
#X obj 712 -281 s \$0vol4_r;
#X obj 797 -287 s \$0on4_r;
#X obj 961 -302 s \$0pan5_r;
#X obj 1042 -290 s \$0vol5_r;
#X obj 1127 -297 s \$0on5_r;
#X obj 348 -30 *~;
#X obj 380 -51 line~;
#X msg 380 -82 \$1 15;
#X obj 358 92 *~;
#X obj 420 97 line~;
#X msg 420 66 \$1 25;
#X obj 375 395 *~;
#X obj 414 393 *~;
#X obj 414 348 line~;
#X obj 468 355 line~;
#X obj 410 255 expr 1 - $f1;
#X obj 376 -114 / 31.75;
#X obj 456 186 / 127;
#X obj 455 213 sqrt;
#X msg 414 323 \$1 10;
#X msg 469 333 \$1 10;
#X obj 543 -37 *~;
#X obj 575 -58 line~;
#X msg 575 -89 \$1 15;
#X obj 553 85 *~;
#X obj 615 90 line~;
#X msg 615 59 \$1 25;
#X obj 570 388 *~;
#X obj 609 386 *~;
#X obj 609 341 line~;
#X obj 663 348 line~;
#X obj 605 248 expr 1 - $f1;
#X obj 571 -121 / 31.75;
#X obj 651 179 / 127;
#X obj 650 206 sqrt;
#X msg 609 316 \$1 10;
#X msg 664 326 \$1 10;
#X obj 376 -142 r \$0vol4;
#X obj 571 -149 r \$0vol5;
#X obj 431 37 r \$0on4;
#X obj 626 30 r \$0on5;
#X obj 424 -89 s \$0show4;
#X obj 619 -96 s \$0show5;
#X obj 465 162 r \$0pan4;
#X obj 660 155 r \$0pan5;
#X obj 907 166 route mixer;
#X obj 1213 146 symbol mixer;
#X obj 1358 84 r \$0vol1;
#X obj 1446 145 f;
#X obj 1458 119 r \$0on1;
#X obj 1422 87 r \$0pan1;
#X obj 1552 170 f;
#X obj 1497 164 f;
#X obj 1587 183 f;
#X obj 1505 138 r \$0vol2;
#X obj 1563 125 r \$0pan2;
#X obj 1599 157 r \$0on2;
#X obj 1225 54 t b f b b b b b b b b b b b b b b b;
#X obj 1267 493 pack s f f f f f f f f f f f f f f f f;
#X obj 1685 236 f;
#X obj 1630 230 f;
#X obj 1720 249 f;
#X obj 1826 274 f;
#X obj 1771 268 f;
#X obj 1861 287 f;
#X obj 1632 188 r \$0vol3;
#X obj 1696 191 r \$0pan3;
#X obj 1732 223 r \$0on3;
#X obj 1779 242 r \$0vol4;
#X obj 1837 229 r \$0pan4;
#X obj 1873 261 r \$0on4;
#X obj 1956 329 f;
#X obj 1901 323 f;
#X obj 1991 342 f;
#X obj 1909 297 r \$0vol5;
#X obj 1967 284 r \$0pan5;
#X obj 2003 316 r \$0on5;
#X obj 906 226 unpack f f f f f f f f f f f f f f f;
#X obj 906 257 s \$0vol1_r;
#X obj 920 280 s \$0pan1_r;
#X obj 941 304 s \$0on1_r;
#X obj 950 331 s \$0vol2_r;
#X obj 963 352 s \$0pan2_r;
#X obj 979 373 s \$0on2_r;
#X obj 998 257 s \$0vol3_r;
#X obj 1008 282 s \$0pan3_r;
#X obj 1029 306 s \$0on3_r;
#X obj 1036 332 s \$0vol4_r;
#X obj 1051 354 s \$0pan4_r;
#X obj 1066 376 s \$0on4_r;
#X obj 1089 265 s \$0vol5_r;
#X obj 1103 286 s \$0pan5_r;
#X obj 1118 309 s \$0on5_r;
#X obj 62 -437 bng 10 250 50 0 empty empty empty 17 7 0 10 -99865 -260097
-1;
#X msg 62 -419 63.5;
#X obj 131 -437 bng 10 250 50 0 empty empty empty 17 7 0 10 -99865
-260097 -1;
#X msg 131 -419 63.5;
#X obj 201 -437 bng 10 250 50 0 empty empty empty 17 7 0 10 -99865
-260097 -1;
#X msg 201 -419 63.5;
#X obj 273 -436 bng 10 250 50 0 empty empty empty 17 7 0 10 -99865
-260097 -1;
#X msg 273 -418 63.5;
#X obj 344 -436 bng 10 250 50 0 empty empty empty 17 7 0 10 -99865
-260097 -1;
#X msg 344 -418 63.5;
#X connect 1 0 5 0;
#X connect 5 0 10 0;
#X connect 6 0 5 1;
#X connect 7 0 6 0;
#X connect 8 0 49 0;
#X connect 8 0 50 0;
#X connect 8 0 71 0;
#X connect 8 0 70 0;
#X connect 8 0 102 0;
#X connect 8 0 101 0;
#X connect 8 0 163 0;
#X connect 8 0 162 0;
#X connect 8 0 166 0;
#X connect 8 0 165 0;
#X connect 10 0 28 0;
#X connect 10 0 29 0;
#X connect 11 0 48 0;
#X connect 12 0 10 1;
#X connect 13 0 213 0;
#X connect 14 0 23 0;
#X connect 15 0 226 3;
#X connect 16 0 226 2;
#X connect 18 0 225 0;
#X connect 19 0 245 0;
#X connect 20 0 22 0;
#X connect 21 0 18 1;
#X connect 21 0 19 1;
#X connect 21 0 27 0;
#X connect 22 0 21 0;
#X connect 23 0 18 0;
#X connect 24 0 42 0;
#X connect 25 0 43 0;
#X connect 26 0 12 0;
#X connect 27 0 23 1;
#X connect 28 0 34 0;
#X connect 29 0 35 0;
#X connect 30 0 39 0;
#X connect 31 0 26 0;
#X connect 34 0 2 0;
#X connect 35 0 33 0;
#X connect 36 0 28 1;
#X connect 37 0 29 1;
#X connect 38 0 54 0;
#X connect 39 0 7 0;
#X connect 39 0 51 0;
#X connect 40 0 53 0;
#X connect 41 0 46 0;
#X connect 42 0 3 0;
#X connect 43 0 32 0;
#X connect 44 0 9 0;
#X connect 45 0 9 0;
#X connect 46 0 44 0;
#X connect 46 1 45 0;
#X connect 46 2 9 0;
#X connect 49 0 11 0;
#X connect 49 0 47 0;
#X connect 50 0 52 0;
#X connect 53 0 38 0;
#X connect 53 0 55 0;
#X connect 54 0 36 0;
#X connect 55 0 37 0;
#X connect 60 0 75 0;
#X connect 61 0 64 0;
#X connect 62 0 65 0;
#X connect 63 0 68 0;
#X connect 64 0 56 0;
#X connect 65 0 59 0;
#X connect 66 0 58 0;
#X connect 67 0 58 0;
#X connect 68 0 66 0;
#X connect 68 1 67 0;
#X connect 68 2 58 0;
#X connect 69 0 74 0;
#X connect 70 0 69 0;
#X connect 70 0 73 0;
#X connect 71 0 72 0;
#X connect 75 0 78 0;
#X connect 76 0 75 1;
#X connect 77 0 76 0;
#X connect 78 0 81 0;
#X connect 78 0 82 0;
#X connect 79 0 78 1;
#X connect 80 0 79 0;
#X connect 81 0 34 1;
#X connect 82 0 35 1;
#X connect 83 0 81 1;
#X connect 84 0 82 1;
#X connect 85 0 89 0;
#X connect 86 0 77 0;
#X connect 86 0 92 0;
#X connect 87 0 88 0;
#X connect 88 0 85 0;
#X connect 88 0 90 0;
#X connect 89 0 83 0;
#X connect 90 0 84 0;
#X connect 91 0 86 0;
#X connect 93 0 80 0;
#X connect 94 0 40 0;
#X connect 95 0 87 0;
#X connect 100 0 105 0;
#X connect 101 0 100 0;
#X connect 101 0 104 0;
#X connect 102 0 103 0;
#X connect 106 0 115 0;
#X connect 107 0 110 0;
#X connect 108 0 111 0;
#X connect 109 0 114 0;
#X connect 110 0 96 0;
#X connect 111 0 99 0;
#X connect 112 0 98 0;
#X connect 113 0 98 0;
#X connect 114 0 112 0;
#X connect 114 1 113 0;
#X connect 114 2 98 0;
#X connect 115 0 118 0;
#X connect 116 0 115 1;
#X connect 117 0 116 0;
#X connect 118 0 121 0;
#X connect 118 0 122 0;
#X connect 119 0 118 1;
#X connect 120 0 119 0;
#X connect 121 0 34 0;
#X connect 122 0 35 0;
#X connect 123 0 121 1;
#X connect 124 0 122 1;
#X connect 125 0 129 0;
#X connect 126 0 117 0;
#X connect 126 0 132 0;
#X connect 127 0 128 0;
#X connect 128 0 125 0;
#X connect 128 0 130 0;
#X connect 129 0 123 0;
#X connect 130 0 124 0;
#X connect 131 0 126 0;
#X connect 133 0 120 0;
#X connect 134 0 127 0;
#X connect 143 0 173 0;
#X connect 144 0 147 0;
#X connect 145 0 148 0;
#X connect 146 0 151 0;
#X connect 147 0 135 0;
#X connect 148 0 138 0;
#X connect 149 0 137 0;
#X connect 150 0 137 0;
#X connect 151 0 149 0;
#X connect 151 1 150 0;
#X connect 151 2 136 0;
#X connect 152 0 189 0;
#X connect 153 0 156 0;
#X connect 154 0 157 0;
#X connect 155 0 160 0;
#X connect 156 0 139 0;
#X connect 157 0 142 0;
#X connect 158 0 141 0;
#X connect 159 0 141 0;
#X connect 160 0 158 0;
#X connect 160 1 159 0;
#X connect 160 2 141 0;
#X connect 161 0 169 0;
#X connect 162 0 161 0;
#X connect 162 0 168 0;
#X connect 163 0 167 0;
#X connect 164 0 172 0;
#X connect 165 0 164 0;
#X connect 165 0 171 0;
#X connect 166 0 170 0;
#X connect 173 0 176 0;
#X connect 174 0 173 1;
#X connect 175 0 174 0;
#X connect 176 0 179 0;
#X connect 176 0 180 0;
#X connect 177 0 176 1;
#X connect 178 0 177 0;
#X connect 179 0 34 1;
#X connect 180 0 35 1;
#X connect 181 0 179 1;
#X connect 182 0 180 1;
#X connect 183 0 187 0;
#X connect 184 0 175 0;
#X connect 184 0 209 0;
#X connect 185 0 186 0;
#X connect 186 0 183 0;
#X connect 186 0 188 0;
#X connect 187 0 181 0;
#X connect 188 0 182 0;
#X connect 189 0 192 0;
#X connect 190 0 189 1;
#X connect 191 0 190 0;
#X connect 192 0 195 0;
#X connect 192 0 196 0;
#X connect 193 0 192 1;
#X connect 194 0 193 0;
#X connect 195 0 34 0;
#X connect 196 0 35 0;
#X connect 197 0 195 1;
#X connect 198 0 196 1;
#X connect 199 0 203 0;
#X connect 200 0 191 0;
#X connect 200 0 210 0;
#X connect 201 0 202 0;
#X connect 202 0 199 0;
#X connect 202 0 204 0;
#X connect 203 0 197 0;
#X connect 204 0 198 0;
#X connect 205 0 184 0;
#X connect 206 0 200 0;
#X connect 207 0 178 0;
#X connect 208 0 194 0;
#X connect 211 0 185 0;
#X connect 212 0 201 0;
#X connect 213 0 19 0;
#X connect 214 0 226 0;
#X connect 215 0 16 1;
#X connect 216 0 226 4;
#X connect 217 0 216 1;
#X connect 218 0 15 1;
#X connect 219 0 226 6;
#X connect 220 0 226 5;
#X connect 221 0 226 7;
#X connect 222 0 220 1;
#X connect 223 0 219 1;
#X connect 224 0 221 1;
#X connect 225 0 214 0;
#X connect 225 1 226 1;
#X connect 225 2 16 0;
#X connect 225 3 15 0;
#X connect 225 4 216 0;
#X connect 225 5 220 0;
#X connect 225 6 219 0;
#X connect 225 7 221 0;
#X connect 225 8 228 0;
#X connect 225 9 227 0;
#X connect 225 10 229 0;
#X connect 225 11 231 0;
#X connect 225 12 230 0;
#X connect 225 13 232 0;
#X connect 225 14 240 0;
#X connect 225 15 239 0;
#X connect 225 16 241 0;
#X connect 226 0 17 0;
#X connect 227 0 226 9;
#X connect 228 0 226 8;
#X connect 229 0 226 10;
#X connect 230 0 226 12;
#X connect 231 0 226 11;
#X connect 232 0 226 13;
#X connect 233 0 228 1;
#X connect 234 0 227 1;
#X connect 235 0 229 1;
#X connect 236 0 231 1;
#X connect 237 0 230 1;
#X connect 238 0 232 1;
#X connect 239 0 226 15;
#X connect 240 0 226 14;
#X connect 241 0 226 16;
#X connect 242 0 240 1;
#X connect 243 0 239 1;
#X connect 244 0 241 1;
#X connect 245 0 246 0;
#X connect 245 1 247 0;
#X connect 245 2 248 0;
#X connect 245 3 249 0;
#X connect 245 4 250 0;
#X connect 245 5 251 0;
#X connect 245 6 252 0;
#X connect 245 7 253 0;
#X connect 245 8 254 0;
#X connect 245 9 255 0;
#X connect 245 10 256 0;
#X connect 245 11 257 0;
#X connect 245 12 258 0;
#X connect 245 13 259 0;
#X connect 245 14 260 0;
#X connect 261 0 262 0;
#X connect 262 0 32 0;
#X connect 263 0 264 0;
#X connect 264 0 59 0;
#X connect 265 0 266 0;
#X connect 266 0 99 0;
#X connect 267 0 268 0;
#X connect 268 0 138 0;
#X connect 269 0 270 0;
#X connect 270 0 142 0;
#X coords 0 -1 1 1 370 144 1 35 -566;
