#N canvas 549 112 801 657 10;
#X obj -2 0 cnv 15 800 45 empty \$0-pddp.cnv.header modu 3 12 0 18
-204280 -1 0;
#X obj 11 314 cnv 3 363 5 empty \$0-pddp.cnv.inlets empty 8 12 0 13
-228856 -1 0;
#X obj 467 70 modu 1;
#X text 419 510 Die Art und Weise dieser automatisierten Bewegung kann
eingestellt werden. Unter 'Form' wird die Bewegungsform eingestellt.
'sin' ist eine Sinusartige Bewegung \, 'rec' erzeugt ein hin- und herspringen
\, 'saw' eine Aufwärtsbewegung \, 'tri' schließlich eine dreiecksartige
Bewegung.;
#X text 420 300 Das Modul erzeugt automatische Bewegungen von Steuerdaten
(im MIDIformat zwischen 0 und 127). Wird es an einen passenden Moduleingang
angeschlossen \, so bewegt es automatisch einen Regler. Die Bewegungen
wiederholen sich immer wieder.;
#X text 420 599 Die Mitte dieser Bewegung wird über 'Zentrum' eingestellt.
Die Stärke des Ausschlags über 'Amplitude'. Die Geschwindigkeit der
Bewegung über 'Frequenz'.;
#X text 15 107 EINGANG 2: Steuert den Regler 'Zentrum' (in Mididaten
\, z.B. von [modu] \, [modurand] \, [control] \, etc.);
#X text 15 149 EINGANG 3: Steuert den Regler 'Amplitude' (in Mididaten
\, z.B. von [modu] \, [modurand] \, [control] \, etc.);
#X text 16 193 EINGANG 4: Steuert den Schalter 'Form' (1 = sin \, 2
= rec \, 3 = saw \, 4 = tri \, z.B. von [nummer]);
#X text 12 338 AUSGANG 1: Gibt die erzeugten Kontrolldaten aus.;
#X text 421 260 [modu] wird zur automatischen Steuerung von Modulreglern
eingesetzt.;
#X text 11 26 automatische Modulation von Parametern, f 116;
#X text 15 61 EINGANG 1: Steuert den Regler 'Frequenz' (in Mididaten
\, z.B. von [modu] \, [modurand] \, [control] \, etc.);
#X text 16 242 EINGANG 5: Löst den Button "0" aus \, der die Modulationskurve
neu startet (Noteninput \, z.B. von [midiinput] \, [sequenzer] \, [midikeybaord]
\, etc. ODER Bang \, z.B. von [banger] \, [steps] \, [taste] \, etc.)
;
#X text 420 378 Wenn 'ONE SHOT' ausgewählt ist \, wird die Bewegung
nur einmal ohne Wiederholung gemacht \, danach bleibt sie auf ihrem
tiefsten Wert.;
#X text 420 428 Der Button '0' startet die Bewegung von vorne.;
#X text 420 456 Wenn 'ONE SHOT' und '0' aktiviert sind \, so können
typische Modulationsbewegungen beim Auslösen eines Klanges gemacht
werden.;
