#N canvas 0 0 1423 838 10;
#N canvas 429 242 526 186 VCO1 0;
#X obj -215 -79 inlet~;
#X obj -59 0 switch~;
#X obj -59 -54 + 1;
#X obj -214 70 outlet~;
#X obj -59 -27 == 1;
#X obj -215 13 osc~;
#X text -174 10 Sinusschwingung;
#X text -17 -49 Der Oscillator ist nur aktiviert \, wenn er in der
GUI ausgewählt ist;
#X obj -59 -78 r \$0-waveform_VCO;
#X obj -151 -78 inlet;
#X connect 0 0 5 0;
#X connect 2 0 4 0;
#X connect 4 0 1 0;
#X connect 5 0 3 0;
#X connect 8 0 2 0;
#X connect 9 0 5 1;
#X restore -255 255 pd VCO1;
#N canvas 453 243 488 252 VCO2 0;
#X obj -210 7 inlet~;
#X obj -83 89 switch~;
#X obj -83 31 + 1;
#X obj -210 196 outlet~;
#X obj -83 62 == 2;
#X obj -210 88 phasor~;
#X obj -210 142 -~ 0.5;
#X obj -210 169 *~ 2;
#X obj -210 115 expr~ $v1 > 0.5;
#X text -53 25 Der Oscillator ist nur aktiviert \, wenn er in der GUI
ausgewählt ist;
#X text -159 137 Rechteckschwingung;
#X obj -83 7 r \$0-waveform_VCO;
#X obj -156 8 inlet;
#X connect 0 0 5 0;
#X connect 2 0 4 0;
#X connect 4 0 1 0;
#X connect 5 0 8 0;
#X connect 6 0 7 0;
#X connect 7 0 3 0;
#X connect 8 0 6 0;
#X connect 11 0 2 0;
#X connect 12 0 5 1;
#X restore -200 255 pd VCO2;
#N canvas 397 255 527 146 VCO3 0;
#X obj -182 -40 inlet~;
#X obj -24 39 switch~;
#X obj -24 -14 + 1;
#X obj -183 65 outlet~;
#X obj -182 -13 phasor~;
#X obj -182 14 -~ 0.5;
#X obj -183 42 *~ 2;
#X text 11 -12 Der Oscillator ist nur aktiviert \, wenn er in der GUI
ausgewählt ist;
#X text -145 29 Sägezahnschwingung;
#X obj -24 12 == 3;
#X obj -24 -37 r \$0-waveform_VCO;
#X obj -112 -37 inlet;
#X connect 0 0 4 0;
#X connect 2 0 9 0;
#X connect 4 0 5 0;
#X connect 5 0 6 0;
#X connect 6 0 3 0;
#X connect 9 0 1 0;
#X connect 10 0 2 0;
#X connect 11 0 4 1;
#X restore -143 255 pd VCO3;
#N canvas 517 238 456 302 VCO5 0;
#X obj -181 -40 inlet~;
#X obj -99 41 switch~;
#X obj -99 -13 + 1;
#X obj -181 224 outlet~;
#X obj -181 44 phasor~;
#X obj -160 91 *~ -1;
#X obj -160 112 +~ 1;
#X obj -182 152 min~;
#X obj -182 174 *~ 4;
#X obj -182 197 -~ 1;
#X text -153 134 Dreieckschwingung;
#X text -66 -9 Der Oscillator ist nur aktiviert \, wenn er in der GUI
ausgewählt ist;
#X obj -99 14 == 4;
#X obj -99 -33 r \$0-waveform_VCO;
#X obj -142 -16 inlet;
#X connect 0 0 4 0;
#X connect 2 0 12 0;
#X connect 4 0 5 0;
#X connect 4 0 7 0;
#X connect 5 0 6 0;
#X connect 6 0 7 1;
#X connect 7 0 8 0;
#X connect 8 0 9 0;
#X connect 9 0 3 0;
#X connect 12 0 1 0;
#X connect 13 0 2 0;
#X connect 14 0 4 1;
#X restore -91 255 pd VCO5;
#X obj -254 196 sig~;
#X floatatom -254 156 5 0 0 0 - - -, f 5;
#X obj -13 73 r \$0reset;
#X obj -128 413 *~;
#X obj 18 396 line~;
#X msg 18 372 \$1 25;
#X obj -142 729 outlet;
#X obj 101 102 cnv 15 248 158 empty empty modu 5 145 0 21 -33289 -262144
0;
#X obj 109 123 vradio 17 0 0 4 \$0-waveform_VCO \$0waveform_VCO_in
Form 0 -10 0 11 -162280 -260097 -262144 0;
#X obj 215 227 nbx 4 14 -1e+037 1e+037 0 0 \$0freqshow_s \$0freqshow
empty 0 -8 0 11 -99865 -260097 -260097 0.0613195 256 0;
#X obj 129 131 cnv 5 1 1 empty empty sin 0 0 0 10 -33289 -262144 0
;
#X obj 129 148 cnv 5 1 1 empty empty rec 0 0 0 10 -33289 -262144 0
;
#X obj 129 165 cnv 5 1 1 empty empty saw 0 0 0 10 -33289 -262144 0
;
#X obj 129 183 cnv 5 1 1 empty empty tri 0 0 0 10 -33289 -262144 0
;
#X obj -254 117 r \$0Freq;
#X obj -127 445 +~;
#X obj -71 373 r \$0center;
#X obj -71 430 sig~;
#X obj 21 326 r \$0ampli;
#X obj -128 548 clip~ 0 127;
#X obj 59 523 tabwrite~ \$0array1;
#X obj 187 129 cnv 15 100 70 empty empty empty 100 12 0 14 -233017
-66577 0;
#N canvas 0 0 450 300 (subpatch) 0;
#X array \$0array1 1378 float 4 black black;
#X coords 0 129 1377 -2 100 70 1;
#X restore 187 129 graph;
#X obj 85 430 loadbang;
#X obj 188 206 hsl 100 20 0.01 127 1 0 \$0Freq \$0Freq_r Frequenz 19
10 0 13 -191407 -260097 -262144 1900 1;
#X obj 157 130 vsl 20 70 0 127 0 0 \$0center \$0center_r empty 0 -9
0 10 -191407 -260097 -1 4050 1;
#X obj 297 130 vsl 20 70 0 127 0 0 \$0ampli \$0ampli_r empty 0 -9 0
10 -191407 -260097 -1 2450 1;
#X obj 86 472 metro 31;
#X obj -222 179 s \$0freqshow;
#X obj 135 203 nbx 4 14 -1e+037 1e+037 0 0 \$0centershow_s \$0centershow
Zentrum 0 21 0 10 -99865 -260097 -262144 74.5435 256 0;
#X obj 297 203 nbx 4 14 -1e+037 1e+037 0 0 \$0amplishow_s \$0amplishow
Amplitude -4 21 0 10 -99865 -260097 -262144 45.0942 256 0;
#X obj 159 112 bng 15 250 50 0 \$0centermiddle \$0centermiddle_r empty
17 7 0 10 -191407 -260097 -1;
#X obj 299 112 bng 15 250 50 0 \$0amplimiddle \$0amplimiddle_r empty
17 7 0 10 -191407 -260097 -1;
#X obj 447 16 loadbang;
#X msg 449 51 1;
#X obj 450 80 s \$0Freq_r;
#X obj 614 83 s \$0center_r;
#X obj 534 111 s \$0ampli_r;
#X msg 535 86 63.5;
#X msg 610 52 63.5;
#X obj 408 139 s \$0waveform_VCO_in;
#X msg 409 92 0;
#X obj -131 599 unsig~ 1;
#X obj -32 433 s \$0centershow;
#X obj 612 9 r \$0centermiddle;
#X obj 537 -16 r \$0amplimiddle;
#X obj 20 348 / 1;
#X obj 83 373 s \$0amplishow;
#X obj 529 351 r toolssavebank;
#X obj 739 268 r toolssavebang;
#X obj 958 458 f;
#X obj 903 452 f;
#X obj 813 560 s toolssavelists;
#X obj 768 372 f;
#X obj 531 469 route;
#X obj 889 213 loadbang;
#X obj 890 269 \$1;
#X obj 889 241 del 5;
#X obj 768 331 del;
#X obj 1030 486 f;
#X obj 531 439 route mod;
#X obj 760 472 symbol mod;
#X obj 1089 487 f;
#X obj 1119 456 r \$0-waveform_VCO;
#X obj 941 395 r \$0Freq;
#X obj 1031 398 r \$0ampli;
#X obj 1142 402 r \$0center;
#X obj 469 564 s \$0Freq_r;
#X obj 530 589 s \$0ampli_r;
#X obj 599 562 s \$0center_r;
#X obj 626 595 s \$0waveform_VCO_in;
#X obj 157 37 inlet;
#X obj 189 61 inlet;
#X obj 241 51 inlet;
#X obj 298 29 inlet;
#X obj 322 70 + 1;
#X obj 331 105 bng 15 250 50 0 \$0reset \$0reset_r 0 5 5 0 10 -191407
-260097 -262144;
#X obj 366 -44 inlet;
#X msg -69 190 0.5;
#X msg -24 200 0;
#X obj 319 241 tgl 10 0 \$0oneshot \$0oneshot_r one\ shot -13 11 0
8 -162280 -260097 -262144 1 1;
#X msg 245 469 1;
#X obj 244 498 /;
#X obj 230 399 t b f;
#X obj 225 531 * 1000;
#X obj 187 586 del;
#X obj 19 201 bng 15 250 50 0 empty empty empty 17 7 0 10 -262144 -1
-1;
#X obj 111 566 r \$0oneshot;
#X obj 78 616 spigot;
#X obj 459 185 s \$0oneshot_r;
#X obj -48 597 snapshot~;
#X obj -156 667 spigot;
#X obj -50 621 t b f b;
#X msg -141 640 0;
#X msg -106 649 1;
#X obj -223 603 loadbang, f 9;
#X obj 69 678 sel 0 1;
#X msg 81 717 0;
#X obj 208 557 + 2;
#X obj 813 517 pack s f f f f f f;
#X obj 533 499 unpack f f f f f;
#X obj 1175 527 r \$0oneshot;
#X obj 1132 558 f;
#X obj 767 421 t b f b b b b b;
#X obj 669 622 s \$0oneshot_r;
#X obj 366 61 sel 0;
#X obj 345 20 unpack f f;
#X obj 346 -16 route stop;
#X obj 277 3 sel bang;
#X obj 93 68 clip 0 127;
#X obj 173 81 clip 0 127;
#X obj 243 80 clip 0 127;
#X obj 304 50 clip 0 3;
#X obj 777 306 clip 1 78;
#X connect 0 0 7 0;
#X connect 1 0 7 0;
#X connect 2 0 7 0;
#X connect 3 0 7 0;
#X connect 4 0 0 0;
#X connect 4 0 1 0;
#X connect 4 0 2 0;
#X connect 4 0 3 0;
#X connect 5 0 4 0;
#X connect 5 0 32 0;
#X connect 6 0 82 0;
#X connect 6 0 83 0;
#X connect 6 0 90 0;
#X connect 7 0 19 0;
#X connect 8 0 7 1;
#X connect 9 0 8 0;
#X connect 18 0 5 0;
#X connect 18 0 87 0;
#X connect 19 0 23 0;
#X connect 20 0 21 0;
#X connect 20 0 47 0;
#X connect 21 0 19 1;
#X connect 22 0 50 0;
#X connect 23 0 46 0;
#X connect 23 0 24 0;
#X connect 23 0 94 0;
#X connect 27 0 31 0;
#X connect 31 0 24 0;
#X connect 37 0 38 0;
#X connect 37 0 42 0;
#X connect 37 0 43 0;
#X connect 37 0 45 0;
#X connect 38 0 39 0;
#X connect 42 0 41 0;
#X connect 43 0 40 0;
#X connect 45 0 44 0;
#X connect 45 0 93 0;
#X connect 46 0 95 0;
#X connect 48 0 43 0;
#X connect 49 0 42 0;
#X connect 50 0 9 0;
#X connect 50 0 51 0;
#X connect 52 0 64 0;
#X connect 53 0 62 0;
#X connect 54 0 103 3;
#X connect 55 0 103 2;
#X connect 57 0 107 0;
#X connect 58 0 104 0;
#X connect 59 0 61 0;
#X connect 60 0 57 1;
#X connect 60 0 58 1;
#X connect 60 0 117 0;
#X connect 61 0 60 0;
#X connect 62 0 57 0;
#X connect 63 0 103 4;
#X connect 64 0 58 0;
#X connect 65 0 103 0;
#X connect 66 0 103 5;
#X connect 67 0 66 1;
#X connect 68 0 55 1;
#X connect 69 0 54 1;
#X connect 70 0 63 1;
#X connect 75 0 113 0;
#X connect 76 0 114 0;
#X connect 77 0 115 0;
#X connect 78 0 116 0;
#X connect 79 0 12 0;
#X connect 81 0 111 0;
#X connect 81 0 112 0;
#X connect 82 0 0 1;
#X connect 83 0 1 1;
#X connect 83 0 2 1;
#X connect 83 0 3 1;
#X connect 85 0 86 0;
#X connect 86 0 88 0;
#X connect 87 0 85 0;
#X connect 87 1 86 1;
#X connect 88 0 102 0;
#X connect 89 0 92 0;
#X connect 90 0 89 0;
#X connect 90 0 98 0;
#X connect 91 0 92 1;
#X connect 91 0 100 0;
#X connect 92 0 94 0;
#X connect 94 0 96 0;
#X connect 95 0 10 0;
#X connect 96 1 10 0;
#X connect 96 2 97 0;
#X connect 97 0 95 1;
#X connect 98 0 95 1;
#X connect 99 0 98 0;
#X connect 100 0 98 0;
#X connect 100 1 97 0;
#X connect 100 1 101 0;
#X connect 101 0 10 0;
#X connect 102 0 89 1;
#X connect 103 0 56 0;
#X connect 104 0 71 0;
#X connect 104 1 72 0;
#X connect 104 2 73 0;
#X connect 104 3 74 0;
#X connect 104 4 108 0;
#X connect 105 0 106 1;
#X connect 106 0 103 6;
#X connect 107 0 65 0;
#X connect 107 1 103 1;
#X connect 107 2 55 0;
#X connect 107 3 54 0;
#X connect 107 4 63 0;
#X connect 107 5 66 0;
#X connect 107 6 106 0;
#X connect 109 1 80 0;
#X connect 110 1 109 0;
#X connect 111 1 110 0;
#X connect 112 0 80 0;
#X connect 113 0 28 0;
#X connect 114 0 29 0;
#X connect 115 0 30 0;
#X connect 116 0 79 0;
#X connect 117 0 62 1;
#X coords 0 -1 1 1 250 162 1 100 100;
