#N canvas 183 90 799 346 10;
#X obj -2 0 cnv 15 800 45 empty \$0-pddp.cnv.header nummer 3 12 0 18
-204280 -1 0;
#X text 10 25 Ausgabe einer Zahl von 1-8, f 116;
#X obj 510 80 nummer 1;
#X floatatom 510 142 5 0 0 0 - - -, f 5;
#X obj 510 55 bng 15 250 50 0 empty empty klick\ me 19 6 0 10 -262144
-1 -1;
#X obj 10 116 cnv 3 363 5 empty \$0-pddp.cnv.inlets empty 8 12 0 13
-228856 -1 0;
#X text 12 57 EINGANG 1: Wenn hier ein Kontrollsignal ankommt \, wird
die ausgewählte Zahl ausgegeben (bangs \, z.B. von [banger] \, [taste]
\, [midiinput] \, etc.);
#X text 11 140 AUSGANG 1: Gibt die ausgewählte Zahl aus.;
#X text 405 250 Dieses Modul dient dazu \, per Tastendruck eine der
8 Sequenzen der unterschiedlichen Sequenzer aufzurufen. Dafür wird
es an den richtigen Eingang angeschlossen und die entsprechende Nummer
der gewünschten Sequenz gewählt. Erhält es dann einen Steuerbefehl
von Taste \, so wird die entsprechende Sequenz geladen.;
#X text 406 180 [nummer] gibt \, wenn es einen Steuerbefehl erhält
\, eine Nummer zwischen 1-8 aus. Es sollte an [taste] oder ähnliche
Module angeschlossen werden \, um per Tastendruck aktiviert zu werden.
;
#X connect 2 0 3 0;
#X connect 4 0 2 0;
