#N canvas 183 90 950 443 10;
#X obj -2 0 cnv 15 950 45 empty \$0-pddp.cnv.header numrand 3 12 0
18 -204280 -1 0;
#X obj 15 235 cnv 3 363 5 empty \$0-pddp.cnv.inlets empty 8 12 0 13
-228856 -1 0;
#X obj 397 167 numrand;
#X text 10 26 Erzeugen einer zufälligen Zahl, f 116;
#X text 16 264 AUSGANG 1: Gibt die zufällige Zahl aus.;
#X text 18 72 EINGANG 1: Wenn hier ein Kontrollsignal ankommt \, wird
eine zufällige Zahl ausgegeben (bangs \, z.B. von [banger] \, [taste]
\, [midiinput] \, etc.);
#X obj 418 54 banger;
#X floatatom 372 274 5 0 0 0 - - -, f 5;
#X obj 213 314 steps 1;
#X text 18 131 EINGANG 2: Steuert den Regler 'from' (in Mididaten \,
z.B. von [modu] \, [modurand] \, [control] \, etc.);
#X text 18 178 EINGANG 3: Steuert den Regler 'to' (in Mididaten \,
z.B. von [modu] \, [modurand] \, [control] \, etc.);
#X text 574 86 [numrand] erzeugt eine zufällige Zahl \, wenn es ein
Kontrollsignal bekommt (bangs \, z.B. von [banger] \, [taste] \, [midiinput]
\, etc.).;
#X text 574 144 Mit den Reglern 'from' und 'to' kann der Bereich bestimmt
werden \, in dem die zufällige Zahl liegen soll.;
#X text 575 191 In dem Beispiel links sehen wir \, wir [numrand] eingesetzt
wird \, um zufällige Sequenzen in [steps] zu laden.;
#X connect 2 0 7 0;
#X connect 6 0 2 0;
#X connect 7 0 8 2;
