#N canvas 316 65 801 678 10;
#X obj -2 0 cnv 15 800 45 empty \$0-pddp.cnv.header osci 3 12 0 18
-204280 -1 0;
#X obj 16 414 cnv 3 363 5 empty \$0-pddp.cnv.inlets empty 8 12 0 13
-228856 -1 0;
#X text 17 89 EINGANG 2: Der Schalter 'Ton' wird ausgelöst (z.B. von
[taste] \, [banger] \, [pad] \, etc.);
#X text 16 126 EINGANG 3: Steuert den Regler 'Frequenz' (in Mididaten
\, z.B. von [modu] \, [modurand] \, [control] \, etc.);
#X text 17 437 AUSGANG 1: Gibt die erzeugte Schwingung als Audiosignal
aus.;
#X text 10 25 der Oscillator, f 116;
#X obj 417 48 osci;
#X text 15 183 EINGANG 4: Steuert den Regler 'Attack' (in Mididaten
\, z.B. von [modu] \, [modurand] \, [control] \, etc.);
#X text 15 217 EINGANG 5: Steuert den Regler 'Sustain' (in Mididaten
\, z.B. von [modu] \, [modurand] \, [control] \, etc.);
#X text 15 252 EINGANG 6: Steuert den Regler 'Release/Decay' (in Mididaten
\, z.B. von [modu] \, [modurand] \, [control] \, etc.);
#X text 15 360 EINGANG 8: Steuert den Regler 'detune' (in Mididaten
\, z.B. von [modu] \, [modurand] \, [control] \, etc.);
#X text 15 303 EINGANG 7: Steuert den Regler 'width' (in Mididaten
\, z.B. von [modu] \, [modurand] \, [control] \, etc.);
#X text 18 55 EINGANG 1: Noteninformationen (z.B. von [midiinput] \,
[sequenzer] \, etc.);
#X text 418 283 Das Modul hat einen Eingang für die Steuerdaten. Über
die anderen Eingänge können die Regler mit Midibefehlen gesteuert
werden. Der Ausgang gibt das erzeugte Audiosignal aus.;
#X text 419 346 Auch ohne eingehende Steuerdaten kann ein Ton ausgelöst
('Ton') und in seiner Tonhöhe ('Frequenz') verändert werden.;
#X text 418 385 'Form' bestimmt die Klangfarbe des erzeugten Sounds
mit den Optionen sin = Sinus \, rec = Rechteck \, saw = Sähezahn \,
tri = Dreieck \, pls = Puls. 'Width' steuert die Pulsbreite des Puls
und damit seine Klangfarbe.;
#X text 419 448 'attack' \, 'sustain' 'release/decay' steuern die Lautstärkehüllkurve
des Klangs. 'attack' bestimmt die Einschwingphase \, also wie lange
der Klang braucht \, um von der Stille seinen lautesten Punkt zu erreichen.
'Sustain' bestimmt die Lautstärke des Klangs \, wenn er gehalten wird.
Nach der Einschwingphase ('attack') geht die Lautstärke in der Abklingzeit
('decay') auf die 'sustain'- Lautstärke. Diese ist immer relativ zur
maximalen Lautstärke. Die Ausschwingzeit ('release') ist die Zeit
\, in der die Lautstärke wieder auf Null fällt \, nachdem der Klang
deaktiviert wurde.;
#X text 420 602 Der Oscillator ist auf 440 Hz gestimmt. Mit 'detune'
kann er verstimmt werden.;
#X text 418 233 [osci] ist ein Oscillatormodul. Es erzeugt Klänge
in unterschiedlichen Klangfarben. Dafür braucht es Steuerdaten vom
[sequenzer] \, von [midiinput] oder [loopmidi].;
#X text 420 639 Für Oscillatoren mit mehr Funktionen s. [oscizwo]
und [oscidrone].;
