#N canvas 518 163 801 509 10;
#X obj 0 0 cnv 15 800 45 empty \$0-pddp.cnv.header phaser 3 12 0 18
-204280 -1 0;
#X obj 18 255 cnv 3 363 5 empty \$0-pddp.cnv.inlets empty 8 12 0 13
-228856 -1 0;
#X text 18 51 EINGANG 1: Audiosignal \, das verarbeitet werden soll
;
#X text 19 122 EINGANG 3: Steuert den Regler 'depth' (in Mididaten
\, z.B. von [modu] \, [modurand] \, [control] \, etc.);
#X text 19 159 EINGANG 4: Steuert den Regler 'speed' (in Mididaten
\, z.B. von [modu] \, [modurand] \, [control] \, etc.);
#X obj 543 58 phaser 1;
#X text 417 334 Das Modul hat einen Eingang für das Audiosignal. Über
die anderen Eingänge können die Regler mit Midibefehlen gesteuert
werden. Der Ausgang gibt das bearbeitete Audiosignal aus.;
#X text 414 254 Der Phasereffekt [phaser] setzt die Phase (die örtliche
Lage) des Signals in Bewegung. Eine Kopie des Originalsignals wird
erzeugt \, verschoben und in das Original zurückgemischt. Dadurch
entsteht ein sich ständig bewegender \, 'spaciger' Klang.;
#X text 412 407 'int' bestimmt \, wieviel Phaser auf das eingehende
Signal angewendet wird. 'Depth' regelt die Tiefe der Modulation. Je
tiefer \, desto stärker der Effekt. 'speed' regelt die Geschwindigkeit
der Modulation \, durch die sich der Klang verändert. 'shift' verändert
den Klangcharakter \, indem die Verzögerung der Kopie verändert wird.
;
#X text 18 276 AUSGANG 1: Gibt das mit Phasereffekt versehene Signal
aus.;
#X text 19 87 EINGANG 2: Steuert den Regler 'int' (in Mididaten \,
z.B. von [modu] \, [modurand] \, [control] \, etc.);
#X text 19 194 EINGANG 5: Steuert den Regler 'shift' (in Mididaten
\, z.B. von [modu] \, [modurand] \, [control] \, etc.);
#X text 10 25 Phasenveränderungen, f 116;
