#N canvas 2 52 1022 523 10;
#X obj 101 103 cnv 15 140 55 empty empty pitch 4 6 0 16 -199729 -1
0;
#X obj 292 43 loadbang;
#X obj -418 -23 inlet;
#X obj -418 8 route stop;
#X msg -418 57 stop \$1;
#X obj -415 184 outlet;
#X obj 857 401 r toolssavebank;
#X obj 1067 318 r toolssavebang;
#X obj 1231 502 f;
#X obj 1141 610 s toolssavelists;
#X obj 1096 422 f;
#X obj 859 519 route;
#X obj 1217 263 loadbang;
#X obj 1218 319 \$1;
#X obj 1217 291 del 5;
#X obj 1096 381 del;
#X obj 1092 471 t b f b;
#X obj 1141 567 pack s f f;
#X obj 205 28 inlet;
#X obj -101 146 change;
#X obj -103 176 bng 15 250 50 0 empty empty empty 17 7 0 10 -262144
-1 -1;
#X msg -180 211 0;
#X obj -361 34 unpack f f;
#X obj -360 124 pack f 127;
#X obj -364 59 ftom;
#X obj -368 100 mtof;
#X obj -359 82 +;
#X obj 104 124 hsl 128 15 0 127 0 0 \$0pitch \$0pitch_r empty -2 -8
0 10 -262144 -260097 -1 6350 1;
#X obj 165 216 r \$0pitch;
#X obj 290 91 s \$0pitch_r;
#X msg 297 70 63.5;
#X obj 169 298 int;
#X obj 168 253 - 63.5;
#X floatatom 169 320 5 0 0 0 - - -, f 5;
#X obj 162 277 / 2.55;
#X obj 322 402 s \$0pitchshow;
#X obj 203 139 nbx 3 14 -1e+037 1e+037 0 0 \$0pitchshow_s \$0pitchshow
empty 0 -8 0 10 -262144 -1 -1 0 256 0;
#X obj 859 489 route pitch;
#X obj 1088 520 symbol pitch;
#X obj 1246 462 r \$0pitch;
#X obj 852 606 s \$0pitch_r;
#X obj 1162 356 clip 1 89;
#X connect 1 0 30 0;
#X connect 2 0 3 0;
#X connect 3 0 4 0;
#X connect 3 1 22 0;
#X connect 4 0 5 0;
#X connect 6 0 37 0;
#X connect 7 0 15 0;
#X connect 8 0 17 2;
#X connect 10 0 16 0;
#X connect 11 0 40 0;
#X connect 12 0 14 0;
#X connect 13 0 10 1;
#X connect 13 0 11 1;
#X connect 13 0 41 0;
#X connect 14 0 13 0;
#X connect 15 0 10 0;
#X connect 16 0 38 0;
#X connect 16 1 17 1;
#X connect 16 2 8 0;
#X connect 17 0 9 0;
#X connect 18 0 27 0;
#X connect 19 0 20 0;
#X connect 20 0 21 0;
#X connect 21 0 4 0;
#X connect 22 0 24 0;
#X connect 22 1 23 1;
#X connect 23 0 5 0;
#X connect 24 0 26 0;
#X connect 25 0 23 0;
#X connect 26 0 25 0;
#X connect 28 0 32 0;
#X connect 30 0 29 0;
#X connect 31 0 33 0;
#X connect 32 0 34 0;
#X connect 33 0 19 0;
#X connect 33 0 26 1;
#X connect 33 0 35 0;
#X connect 34 0 31 0;
#X connect 37 0 11 0;
#X connect 38 0 17 0;
#X connect 39 0 8 1;
#X connect 41 0 15 1;
#X coords 0 -1 1 1 142 61 1 100 100;
