#N canvas 445 3 800 774 10;
#X obj 0 0 cnv 15 800 45 empty \$0-pddp.cnv.header plopp 3 12 0 18
-204280 -1 0;
#X obj 16 543 cnv 3 363 5 empty \$0-pddp.cnv.inlets empty 8 12 0 13
-228856 -1 0;
#X text 13 58 EINGANG 1: Audiosignal \, das verarbeitet werden soll.
;
#X text 15 571 AUSGANG 1: Gibt das gefilterte Signal aus.;
#X text 421 358 - tiefe Frequenzen passieren und hohe werden abgesenkt
(Tiefpass);
#X text 421 390 - hohe Frequenzen passieren und tiefe werden abgesenkt
(Hochpass);
#X text 423 423 - hohe und tiefe Frequenzen um eine Mittenfrequenz
abgesenkt werden (Bandpass);
#X text 422 467 Es kann die Grenz- bzw. Mittenfrequenz (Frequenz) eingestellt
werden. Der Q-Wert steuert die sogenannte Flankensteilheit des Filters.
Ein hoher Q-Wert sorgt für einen steilen \, starken Schnitt. Die gefilterten
Frequenzen werden stark reduziert. Dabei wird allerdings der Klang
an der Grenzfrequenz betont (Resonanz). Ein tiefer Q-Wert führt zu
einem flachen \, weichen Schnitt. Hier werden die gefilterten Frequenzen
weniger stark abgesengt.;
#X obj 449 54 plopp 1;
#X text 10 25 Filter mit Hüllkurve, f 116;
#X text 12 94 EINGANG 2: Steuerdaten mit Toninformationen (z.B. von
[sequenzer] \, [midiinput] \, [loopmidi] \, usw.) oder bangs von [taste]
\, [banger] \, etc.. Mit diesen Steuerdaten wird die Hüllkurve ausgelöst.
;
#X text 12 170 EINGANG 3: Steuert den Regler 'Frequenz' (in Mididaten
\, z.B. von [modu] \, [modurand] \, [control] \, etc.);
#X text 12 205 EINGANG 4: Steuert den Regler 'Q' (in Mididaten \, z.B.
von [modu] \, [modurand] \, [control] \, etc.);
#X text 13 242 EINGANG 5: Steuert den Filtercharakteristik (1=Tiefpass
\, 2=Bandpass \, 3=Hochpass);
#X text 13 294 EINGANG 6: Steuert den Regler 'Intensität' (in Mididaten
\, z.B. von [modu] \, [modurand] \, [control] \, etc.);
#X text 13 350 EINGANG 7: Steuert den Regler 'Attack' (in Mididaten
\, z.B. von [modu] \, [modurand] \, [control] \, etc.);
#X text 13 385 EINGANG 8: Steuert den Regler 'Sustain' (in Mididaten
\, z.B. von [modu] \, [modurand] \, [control] \, etc.);
#X text 13 420 EINGANG 9: Steuert den Regler 'Decay' (in Mididaten
\, z.B. von [modu] \, [modurand] \, [control] \, etc.);
#X text 12 479 EINGANG 10: Steuert den Regler 'key' (in Mididaten \,
z.B. von [modu] \, [modurand] \, [control] \, etc.);
#X text 421 296 [plopp] ist ein AUDIOFILTER mit Hüllkurve. Es senkt
Klanganteile (Frequenzen) über und unter einer bestimmten Grenzfrequenz
in ihrer Lautstärke ab. Je nach eingestellter Charakteristik können
;
#X text 422 596 Mit der Hüllkurve ('Attack' \, 'Sustain' \, 'Decay')
kann die Bewegung der Frequenz in der Zeit gesteuert werden. Der Filter
öffnet in der Attackzeit und fällt dann in der Decayzeit auf den
Sustainwert. Die Stärke dieser Bewegung \, also wie weit die Bewegung
ausholt \, wird durch 'Intensität' bestimmt.;
#X text 422 679 Mit 'key' kann geregelt werden \, wie stark die Tonhöhe
der eingehenen Töne bei der Filterung berücksichtigt wird. Ist 'key'
1 \, so wird die Tonhöhe immer voll zu der Filterfrequenz addiert.
Ist 'key' 0 \, so wird die Tonhöhe ignoriert \, sodass Töne mit einer
Tonhöhe über der Grenzfrequenz rausgefiltert werden können.;
