#N canvas 0 0 1423 838 10;
#X obj 101 102 cnv 15 100 110 empty empty record 6 12 0 24 -233017
-258113 0;
#X obj 127 133 tgl 45 0 \$0rec \$0rec_r empty 5 -10 0 12 -99865 -260097
-1 0 1;
#X obj 456 358 catch~ signalleft;
#X obj 626 359 catch~ signalright;
#X msg 574 202 start;
#X msg 268 373 stop;
#X obj 663 -73 sel 1;
#X obj 268 309 sel 0;
#X obj 865 109 metro 10000;
#X msg 807 58 1;
#X msg 979 52 0;
#X obj 865 141 bng 15 250 50 0 empty empty empty 17 7 0 10 -262144
-1 -1;
#X obj 865 182 f;
#X obj 901 182 + 1;
#X obj 971 113 pipe 10;
#X obj 865 306 s \$0rec_r;
#X msg 865 274 0;
#X obj 663 73 savepanel;
#X obj 666 2 bng 15 250 50 0 empty empty empty 17 7 0 10 -262144 -1
-1;
#X obj 596 111 bng 15 250 50 0 empty empty empty 17 7 0 10 -262144
-1 -1;
#X obj 656 41 getdir;
#X obj 865 230 sel 360;
#X msg 646 110 open -bytes 3 \$1;
#X obj 657 134 t b a;
#X obj 661 233 s \$0data;
#X obj 405 444 r \$0data;
#X obj 582 151 del 10;
#X obj 482 539 writesf~ 2;
#X obj 127 183 cnv 15 45 27 empty \$0canvas_r empty 20 12 0 14 -33289
-262144 0;
#X obj 820 489 pack 0 0;
#X obj 868 465 \$0;
#X obj 824 435 t f b;
#X msg 821 518 \; \$2canvas_r color \$1;
#X obj 791 376 sel 1;
#X msg 838 406 12;
#X obj 843 381 sel 0;
#X msg 791 403 13;
#X floatatom 136 189 4 0 0 0 - #0time #0time_s, f 4;
#X obj 1078 268 metro 1000;
#X msg 1060 214 0;
#X obj 1160 180 bng 15 250 50 0 empty empty empty 17 7 0 10 -262144
-1 -1;
#X msg 1160 200 1;
#X obj 1092 183 bng 15 250 50 0 empty empty empty 17 7 0 10 -262144
-1 -1;
#X obj 1074 323 f;
#X obj 1126 325 + 1;
#X floatatom 1073 367 5 0 0 0 - - -, f 5;
#X obj 1070 400 s \$0time;
#X connect 1 0 7 0;
#X connect 1 0 6 0;
#X connect 1 0 33 0;
#X connect 1 0 35 0;
#X connect 2 0 27 0;
#X connect 3 0 27 1;
#X connect 4 0 24 0;
#X connect 4 0 40 0;
#X connect 5 0 24 0;
#X connect 5 0 42 0;
#X connect 6 0 18 0;
#X connect 6 0 9 0;
#X connect 7 0 5 0;
#X connect 7 0 10 0;
#X connect 8 0 11 0;
#X connect 9 0 8 0;
#X connect 10 0 8 0;
#X connect 10 0 14 0;
#X connect 11 0 12 0;
#X connect 12 0 13 0;
#X connect 12 0 21 0;
#X connect 13 0 12 1;
#X connect 14 0 12 1;
#X connect 16 0 15 0;
#X connect 17 0 22 0;
#X connect 18 0 20 0;
#X connect 19 0 26 0;
#X connect 20 0 17 0;
#X connect 21 0 10 0;
#X connect 21 0 16 0;
#X connect 22 0 23 0;
#X connect 23 0 19 0;
#X connect 23 1 24 0;
#X connect 25 0 27 0;
#X connect 26 0 4 0;
#X connect 29 0 32 0;
#X connect 30 0 29 1;
#X connect 31 0 29 0;
#X connect 31 1 30 0;
#X connect 33 0 36 0;
#X connect 34 0 31 0;
#X connect 35 0 34 0;
#X connect 36 0 31 0;
#X connect 38 0 43 0;
#X connect 39 0 38 0;
#X connect 39 0 43 1;
#X connect 39 0 45 0;
#X connect 40 0 41 0;
#X connect 41 0 38 0;
#X connect 42 0 39 0;
#X connect 43 0 45 0;
#X connect 43 0 44 0;
#X connect 44 0 43 1;
#X connect 45 0 46 0;
#X coords 0 -1 1 1 102 114 1 100 100;
