#N canvas 448 195 800 536 10;
#X obj 0 0 cnv 15 800 45 empty \$0-pddp.cnv.header ring 3 12 0 18 -204280
-1 0;
#X obj 14 312 cnv 3 363 5 empty \$0-pddp.cnv.inlets empty 8 12 0 13
-228856 -1 0;
#X text 19 56 EINGANG 1: Audiosignal \, das verarbeitet werden soll.
;
#X text 18 342 AUSGANG 1: Gibt das verarbeitete Signal aus.;
#X text 10 25 Ringmodulation, f 116;
#X obj 480 65 ring;
#X text 417 495 Das Modul gibt das veränderte Audiosignal aus.;
#X text 417 322 Das Modul hat einen Eingang für das Audiosignal. Der
zweite Eingang ist für das 'Input 2' Signal \, mit dem moduliert werden
kann. Über die anderen Eingänge können mit Midibefehlen die Regler
und Schalter gesteuert werden.;
#X text 417 392 Entweder werden die beiden Signale \, die an Eingang
1 und 2 anliegen \, miteinander multipliziert oder es werden die Standardsignalformen
Sinus \, Square \, Saw und Triangle zur Modulation verwendet. Im zweiten
Fall steuert die 'Frequenz' die Tonhöhe der Sinus- \, Square- \, Saw-
oder Triangleschwingung. Die 'Intensität' regelt die Stärke \, mit
dem die Modulation stattfindet.;
#X text 419 265 Im Modul [ring] wird ein Signal mit einem anderen multipliziert
und dadurch stark im Klang verändert. Dieses Verfahren bezeichnet
man als Ringmodulation.;
#X text 19 84 EINGANG 2: Zweites Audiosignal \, mit dem moduliert wird
\, wenn 'Input 2' ausgewählt ist.;
#X text 20 147 EINGANG 3: Steuert den Regler 'Frequenz' (in Mididaten
\, z.B. von [modu] \, [modurand] \, [control] \, etc.);
#X text 20 190 EINGANG 4: Steuert den Regler 'Intensität' (in Mididaten
\, z.B. von [modu] \, [modurand] \, [control] \, etc.);
#X text 21 246 EINGANG 5: Steuert den Schalter 'Signalform' ( 1 = Sinus
\, 2 = Square \, 3 = Saw \, 4 = Triangle \, 5 = Input 2 );
