#N canvas 0 21 1423 796 10;
#X obj 101 102 cnv 15 140 200 empty empty room 10 12 0 20 -233017 -1
0;
#X obj 449 231 freeverb~;
#X msg 524 199 roomsize \$1;
#X msg 629 161 damping \$1;
#X msg 513 82 freeze \$1;
#X obj 113 196 vsl 20 80 0 1 0 0 \$0size \$0size_r size -4 -11 0 14
-99865 -260097 -1 6715 1;
#X obj 547 152 r \$0size;
#X obj 133 147 hsl 80 20 0 0.99 0 0 \$0wet \$0wet_r dry/wet 5 -10 0
16 -99865 -260097 -1 0 1;
#X obj 568 -12 r \$0wet;
#X obj 596 9 t b f;
#X msg 609 29 1;
#X obj 651 31 -;
#X obj 151 215 tgl 30 0 \$0Freeze \$0Freeze_r freeze -5 -8 0 12 -99865
-260097 -1 0 1;
#X obj 487 50 r \$0Freeze;
#X obj 200 209 vsl 20 60 0 1 0 0 \$0damp \$0damp_r damp -4 -11 0 14
-99865 -260097 -1 2950 1;
#X obj 439 77 inlet~;
#X obj 424 417 outlet~;
#X obj 256 437 loadbang;
#X msg 254 514 0.5;
#X obj 254 546 s \$0damp_r;
#X obj 192 539 s \$0wet_r;
#X msg 326 509 0.85;
#X obj 331 544 s \$0size_r;
#X obj 642 134 r \$0damp;
#X obj 154 168 nbx 4 14 -1e+037 1e+037 0 0 \$0wetshow_s \$0wetshow
empty 0 -8 0 10 -262144 -1 -1 0 256 0;
#X obj 669 62 s \$0wetshow;
#X obj 113 280 nbx 4 14 -1e+037 1e+037 0 0 \$0sizeshow_s \$0size empty
0 -8 0 10 -262144 -1 -1 0.85 256 0;
#X obj 180 273 nbx 4 14 -1e+037 1e+037 0 0 \$0dampshow_s \$0damp empty
0 -8 0 10 -262144 -1 -1 0.5 256 0;
#X obj 771 273 r toolssavebank;
#X obj 981 190 r toolssavebang;
#X obj 1200 380 f;
#X obj 1145 374 f;
#X obj 1055 482 s toolssavelists;
#X obj 1010 294 f;
#X obj 773 391 route;
#X obj 1131 135 loadbang;
#X obj 1132 191 \$1;
#X obj 1131 163 del 5;
#X obj 1010 253 del;
#X obj 1055 439 pack s f f f f;
#X obj 1272 408 f;
#X obj 1008 343 t b f b b b;
#X obj 774 417 unpack f f f;
#X obj 773 361 route room;
#X obj 1002 394 symbol room;
#X obj 841 484 s \$0damp_r;
#X obj 773 510 s \$0size_r;
#X obj 711 486 s \$0wet_r;
#X obj 1183 317 r \$0wet;
#X obj 1273 320 r \$0size;
#X obj 1384 325 r \$0damp;
#X obj 847 136 inlet;
#X obj 857 146 inlet;
#X obj 800 143 / 127;
#X obj 779 169 / 127;
#X obj 789 179 / 127;
#X obj 352 131 pink~;
#X obj 347 166 *~ 1e-005;
#X msg 222 519 0;
#X obj 386 341 *~, f 2;
#X obj 465 341 *~;
#X obj 572 279 line~;
#X obj 514 257 line~;
#X msg 588 97 \$1 10;
#X msg 672 105 \$1 10;
#X msg 327 263 wet 1;
#X obj 830 123 inlet dry/wet;
#X obj 1037 233 clip 1 99;
#X connect 1 0 60 0;
#X connect 2 0 1 0;
#X connect 3 0 1 0;
#X connect 4 0 1 0;
#X connect 6 0 2 0;
#X connect 8 0 9 0;
#X connect 8 0 63 0;
#X connect 8 0 25 0;
#X connect 9 0 10 0;
#X connect 9 1 11 1;
#X connect 10 0 11 0;
#X connect 11 0 64 0;
#X connect 13 0 4 0;
#X connect 15 0 1 0;
#X connect 15 0 59 0;
#X connect 17 0 18 0;
#X connect 17 0 21 0;
#X connect 17 0 58 0;
#X connect 17 0 65 0;
#X connect 18 0 19 0;
#X connect 21 0 22 0;
#X connect 23 0 3 0;
#X connect 28 0 43 0;
#X connect 29 0 38 0;
#X connect 30 0 39 3;
#X connect 31 0 39 2;
#X connect 33 0 41 0;
#X connect 34 0 42 0;
#X connect 35 0 37 0;
#X connect 36 0 33 1;
#X connect 36 0 34 1;
#X connect 36 0 67 0;
#X connect 37 0 36 0;
#X connect 38 0 33 0;
#X connect 39 0 32 0;
#X connect 40 0 39 4;
#X connect 41 0 44 0;
#X connect 41 1 39 1;
#X connect 41 2 31 0;
#X connect 41 3 30 0;
#X connect 41 4 40 0;
#X connect 42 0 47 0;
#X connect 42 1 46 0;
#X connect 42 2 45 0;
#X connect 43 0 34 0;
#X connect 44 0 39 0;
#X connect 48 0 31 1;
#X connect 49 0 30 1;
#X connect 50 0 40 1;
#X connect 51 0 54 0;
#X connect 52 0 55 0;
#X connect 53 0 7 0;
#X connect 54 0 5 0;
#X connect 55 0 14 0;
#X connect 56 0 57 0;
#X connect 57 0 1 0;
#X connect 58 0 20 0;
#X connect 59 0 16 0;
#X connect 60 0 16 0;
#X connect 61 0 60 1;
#X connect 62 0 59 1;
#X connect 63 0 61 0;
#X connect 64 0 62 0;
#X connect 65 0 1 0;
#X connect 66 0 53 0;
#X connect 67 0 38 1;
#X coords 0 -1 1 1 142 204 2 100 100;
