#N canvas 192 14 1050 732 10;
#X obj -2 0 cnv 15 1050 45 empty \$0-pddp.cnv.header seq2mod 3 12 0
18 -204280 -1 0;
#X obj 15 155 cnv 3 363 5 empty \$0-pddp.cnv.inlets empty 8 12 0 13
-228856 -1 0;
#X text 11 26 zufällige \, automatische Modulation von Parametern
, f 116;
#X obj 424 412 seq2mod;
#X obj 424 79 sequenzer 1;
#X floatatom 424 483 5 0 0 0 - - -, f 5;
#X obj 761 50 loadbang;
#X obj 375 513 filter 1;
#X text 587 437 Mit [seq2mod] kann die Tonhöhe von Noten genutzt werden
\, um Regler anderer Module zu steuern.;
#X text 587 478 Der Regler 'übergang' steuert die Zeit \, in der von
einem zum anderen Wert gegangen wird.;
#X text 587 521 In dem Beispiel links werden die Tonhöhen einer Sequenz
genutzt \, um die Frequenz eines Filters zu steuern.;
#X text 14 67 EINGANG 1: Noteninformationen von [sequenzer] \, [steps]
\, [midiinput] \, [midikeyboard] \, etc.;
#X text 14 107 EINGANG 2: Steuert den Regler 'übergang' (in Mididaten
\, z.B. von [modu] \, [modurand] \, [control] \, etc.);
#X text 16 180 AUSGANG 1: Gibt die erzeugten Kontrolldaten aus (im
MIDI-format: 0 -127).;
#X connect 3 0 5 0;
#X connect 4 0 3 0;
#X connect 5 0 7 1;
#X connect 6 0 4 7;
#X connect 6 0 4 1;
