#N canvas 258 80 900 524 10;
#X obj -2 0 cnv 15 900 45 empty \$0-pddp.cnv.header simple 3 12 0 18
-204280 -1 0;
#X obj 20 465 cnv 3 363 5 empty \$0-pddp.cnv.inlets empty 8 12 0 13
-228856 -1 0;
#X text 15 107 EINGANG 2: Signal \, das mit 'Aufnahme' aufgenommen
werden soll (z.B. von [input] \, [osci] \, etc.);
#X text 475 399 Der erste Eingang links kann \, z.B. von [steps] \,
Abspielbefehle erhalten. Am zweiten Eingang kann ein Audiosignal angeschlossen
werden \, dass dann aufgenommen werden kann. Über die anderen Eingänge
werden die Schalter und Regler angesteuert. Das Modul gibt das abgespielte
Sample aus.;
#X text 11 26 Samples aufnehmen und abspielen, f 116;
#X text 14 61 EINGANG 1: Steuerdaten zum Ausgabe des Samples (z.B.
von [steps] \, [sequenzer] \, [pad] \, oder [taste]);
#X text 21 489 AUSGANG 1: Gibt das Sample aus.;
#X obj 430 66 simple;
#X text 17 151 EINGANG 3: Steuert den Regler 'Speed' (in Mididaten
\, z.B. von [modu] \, [modurand] \, [control] \, etc.);
#X text 19 209 EINGANG 4: Steuert den Regler 'Start' (in Mididaten
\, z.B. von [modu] \, [modurand] \, [control] \, etc.);
#X text 19 244 EINGANG 5: Steuert den Regler 'Ende' (in Mididaten \,
z.B. von [modu] \, [modurand] \, [control] \, etc.);
#X text 18 294 EINGANG 6: Steuert den Regler 'Attack' (in Mididaten
\, z.B. von [modu] \, [modurand] \, [control] \, etc.);
#X text 18 329 EINGANG 7: Steuert den Regler 'Release' (in Mididaten
\, z.B. von [modu] \, [modurand] \, [control] \, etc.);
#X text 19 374 EINGANG 8: Steuert den Schalter 'Aufnehmen' (0=aus \,
1=an \, bzw. bang für an/aus \, z.B. [taste] \, [banger] \, etc.).
;
#X text 19 419 EINGANG 9: Löst den Button 'Stop' aus (bang zum Auslösen
\, z.B. von [taste] \, [banger] \, etc.).;
#X text 473 259 Mit [simple] können Sounddateien vom Computer geladen
werden. Diese können dann in der Länge bearbeitet ('Start' und 'Ende')
und mit wählbahrer Geschwindigkeit ('Speed') abgespielt werden. Außerdem
kann der Sampler den Sound vom zweiten Eingang aufnehmen und diese
Aufnahmen auf der Festplatte speichern.;
#X text 474 354 Im Vergleich zu [sampler] ist [simple] darauf ausgelegt
\, kurze Drumsounds abzuspielen.;
