#N canvas 67 55 1853 1002 10;
#X obj 102 103 cnv 20 500 105 empty empty steps 10 12 1 13 -66577 -260097
0;
#X obj 243 109 cnv 20 260 40 empty empty empty 10 12 0 13 -128992 -260097
0;
#X obj 247 131 tgl 15 0 \$0Jerry_Seq_Beat1 \$0Jerry_Seq_Beat1_ctl empty
17 7 0 10 -66577 -260097 -1 0 1;
#X obj 262 131 tgl 15 0 \$0Jerry_Seq_Beat2 \$0Jerry_Seq_Beat2_ctl empty
17 7 0 10 -66577 -260097 -1 0 1;
#X obj 277 131 tgl 15 0 \$0Jerry_Seq_Beat3 \$0Jerry_Seq_Beat3_ctl empty
17 7 0 10 -66577 -260097 -1 0 1;
#X obj 292 131 tgl 15 0 \$0Jerry_Seq_Beat4 \$0Jerry_Seq_Beat4_ctl empty
17 7 0 10 -66577 -260097 -1 0 1;
#X obj 311 131 tgl 15 0 \$0Jerry_Seq_Beat5 \$0Jerry_Seq_Beat5_ctl empty
17 7 0 10 -66577 -260097 -1 0 1;
#X obj 326 131 tgl 15 0 \$0Jerry_Seq_Beat6 \$0Jerry_Seq_Beat6_ctl empty
17 7 0 10 -66577 -260097 -1 0 1;
#X obj 341 131 tgl 15 0 \$0Jerry_Seq_Beat7 \$0Jerry_Seq_Beat7_ctl empty
17 7 0 10 -66577 -260097 -1 0 1;
#X obj 356 131 tgl 15 0 \$0Jerry_Seq_Beat8 \$0Jerry_Seq_Beat8_ctl empty
17 7 0 10 -66577 -260097 -1 0 1;
#X obj 375 131 tgl 15 0 \$0Jerry_Seq_Beat9 \$0Jerry_Seq_Beat9_ctl empty
17 7 0 10 -66577 -260097 -1 0 1;
#X obj 390 131 tgl 15 0 \$0Jerry_Seq_Beat10 \$0Jerry_Seq_Beat10_ctl
empty 17 7 0 10 -66577 -260097 -1 0 1;
#X obj 405 131 tgl 15 0 \$0Jerry_Seq_Beat11 \$0Jerry_Seq_Beat11_ctl
empty 17 7 0 10 -66577 -260097 -1 0 1;
#X obj 420 131 tgl 15 0 \$0Jerry_Seq_Beat12 \$0Jerry_Seq_Beat12_ctl
empty 17 7 0 10 -66577 -260097 -1 0 1;
#X obj 439 131 tgl 15 0 \$0Jerry_Seq_Beat13 \$0Jerry_Seq_Beat13_ctl
empty 17 7 0 10 -66577 -260097 -1 0 1;
#X obj 454 131 tgl 15 0 \$0Jerry_Seq_Beat14 \$0Jerry_Seq_Beat14_ctl
empty 17 7 0 10 -66577 -260097 -1 0 1;
#X obj 469 131 tgl 15 0 \$0Jerry_Seq_Beat15 \$0Jerry_Seq_Beat15_ctl
empty 17 7 0 10 -66577 -260097 -1 0 1;
#X obj 484 131 tgl 15 0 \$0Jerry_Seq_Beat16 \$0Jerry_Seq_Beat16_ctl
empty 17 7 0 10 -66577 -260097 -1 0 1;
#X obj 509 133 bng 12 250 50 0 \$0Jerry_clearSeq \$0Jerry_clearSeq_ctl
0 15 6 1 10 -99865 -1 -262144;
#X obj 245 112 hradio 16 1 0 16 \$0jerry_seqr_count_ctl \$0jerry_seqr_count
empty 0 -8 0 10 -99865 -260097 -258113 0;
#X obj 110 189 nbx 3 14 -1e+37 1e+37 0 0 empty \$0Jerry_Seq_BPM_int
empty 0 -8 0 10 -54094 -260097 -1 120 256 0;
#X obj -365 120 tgl 15 0 empty \$0Seq_on empty 17 7 0 10 -262144 -1
-1 0 1;
#X obj -365 138 metro;
#X obj -365 161 bng 15 250 50 0 empty empty empty 17 7 0 10 -262144
-1 -1;
#X obj -365 224 counter;
#X obj -365 251 % 16;
#X obj -365 273 + 1;
#X floatatom -365 360 5 0 0 0 - - -, f 5;
#X floatatom -350 420 5 0 0 0 - #0Jerry_Seq_Beat1 -, f 5;
#X floatatom -317 420 5 0 0 0 - #0Jerry_Seq_Beat2 -, f 5;
#X obj -365 384 sel 1 2 3 4 5 6 7 8 9 10 11 12 13 14 15 16;
#X floatatom -284 420 5 0 0 0 - #0Jerry_Seq_Beat3 -, f 5;
#X floatatom -251 420 5 0 0 0 - #0Jerry_Seq_Beat4 -, f 5;
#X obj -365 443 f;
#X obj -332 443 f;
#X obj -299 443 f;
#X obj -266 443 f;
#X floatatom -218 420 5 0 0 0 - #0Jerry_Seq_Beat5 -, f 5;
#X floatatom -185 420 5 0 0 0 - #0Jerry_Seq_Beat6 -, f 5;
#X floatatom -152 420 5 0 0 0 - #0Jerry_Seq_Beat7 -, f 5;
#X floatatom -119 420 5 0 0 0 - #0Jerry_Seq_Beat8 -, f 5;
#X obj -233 443 f;
#X obj -200 443 f;
#X obj -167 443 f;
#X obj -134 443 f;
#X floatatom -86 420 5 0 0 0 - #0Jerry_Seq_Beat9 -, f 5;
#X floatatom -53 420 5 0 0 0 - #0Jerry_Seq_Beat10 -, f 5;
#X floatatom -20 420 5 0 0 0 - #0Jerry_Seq_Beat11 -, f 5;
#X floatatom 13 420 5 0 0 0 - #0Jerry_Seq_Beat12 -, f 5;
#X obj -101 443 f;
#X obj -68 443 f;
#X obj -35 443 f;
#X obj -2 443 f;
#X floatatom 46 420 5 0 0 0 - #0Jerry_Seq_Beat13 -, f 5;
#X floatatom 79 420 5 0 0 0 - #0Jerry_Seq_Beat14 -, f 5;
#X floatatom 112 420 5 0 0 0 - #0Jerry_Seq_Beat15 -, f 5;
#X floatatom 145 420 5 0 0 0 - #0Jerry_Seq_Beat16 -, f 5;
#X obj 31 443 f;
#X obj 64 443 f;
#X obj 97 443 f;
#X obj 130 443 f;
#X obj -279 209 bng 15 250 50 0 empty empty empty 17 7 0 10 -262144
-1 -1;
#X floatatom -223 689 5 0 0 0 - - -, f 5;
#X obj -338 10 /;
#X msg -338 -9 60000;
#X floatatom -337 66 10 0 0 0 - - -, f 10;
#X obj -338 -33 t b f;
#X obj -338 -117 int;
#X obj -336 97 / 4;
#X obj -603 501 sel 1;
#X msg -624 571 1;
#X floatatom -610 608 5 0 0 0 - - -, f 5;
#X obj -540 501 sel 1;
#X msg -561 580 1;
#X floatatom -547 617 5 0 0 0 - - -, f 5;
#X obj -476 501 sel 1;
#X msg -497 583 1;
#X floatatom -483 620 5 0 0 0 - - -, f 5;
#X obj -414 501 sel 1;
#X msg -435 583 1;
#X floatatom -421 620 5 0 0 0 - - -, f 5;
#X obj -353 501 sel 1;
#X msg -374 581 1;
#X floatatom -360 618 5 0 0 0 - - -, f 5;
#X obj -290 501 sel 1;
#X msg -311 581 1;
#X floatatom -297 618 5 0 0 0 - - -, f 5;
#X obj -226 501 sel 1;
#X msg -247 584 1;
#X floatatom -233 621 5 0 0 0 - - -, f 5;
#X obj -164 501 sel 1;
#X msg -185 584 1;
#X floatatom -171 621 5 0 0 0 - - -, f 5;
#X obj -93 501 sel 1;
#X msg -114 586 1;
#X floatatom -100 623 5 0 0 0 - - -, f 5;
#X obj -30 501 sel 1;
#X msg -51 586 1;
#X floatatom -37 623 5 0 0 0 - - -, f 5;
#X obj 29 501 sel 1;
#X msg 13 589 1;
#X floatatom 27 626 5 0 0 0 - - -, f 5;
#X obj 91 501 sel 1;
#X msg 75 589 1;
#X floatatom 89 626 5 0 0 0 - - -, f 5;
#X obj 157 501 sel 1;
#X msg 136 587 1;
#X floatatom 150 624 5 0 0 0 - - -, f 5;
#X obj 220 501 sel 1;
#X msg 199 587 1;
#X floatatom 213 624 5 0 0 0 - - -, f 5;
#X obj 281 501 sel 1;
#X msg 263 590 1;
#X floatatom 277 627 5 0 0 0 - - -, f 5;
#X obj 343 501 sel 1;
#X msg 325 590 1;
#X floatatom 339 627 5 0 0 0 - - -, f 5;
#X text -261 207 zeitlicher Reset;
#X obj -279 174 sel 0;
#X obj -498 390 - 1;
#X obj -498 413 s \$0jerry_seqr_count;
#X obj -338 -65 r \$0Jerry_Seq_BPM_int;
#X obj -339 -172 r \$0Jerry_Seq_BPM;
#X obj -338 -93 s \$0Jerry_Seq_BPM_int;
#X obj -338 -141 + 0.5;
#X obj 258 169 bng 15 250 50 0 \$0Add_seqpreset1 \$0Add_seqpreset1_ctl
1 -10 8 0 10 -54094 -260097 -261682;
#X obj 289 169 bng 15 250 50 0 \$0Add_seqpreset2 \$0Add_seqpreset2_ctl
2 -10 8 0 10 -54094 -260097 -261682;
#X obj 320 169 bng 15 250 50 0 \$0Add_seqpreset3 \$0Add_seqpreset3_ctl
3 -10 8 0 10 -54094 -260097 -261682;
#X obj 351 169 bng 15 250 50 0 \$0Add_seqpreset4 \$0Add_seqpreset4_ctl
4 -10 8 0 10 -54094 -260097 -261682;
#X obj 382 169 bng 15 250 50 0 \$0Add_seqpreset5 \$0Add_seqpreset5_ctl
5 -10 8 0 10 -54094 -260097 -261682;
#X obj 413 169 bng 15 250 50 0 \$0Add_seqpreset6 \$0Add_seqpreset6_ctl
6 -10 8 0 10 -54094 -260097 -261682;
#X obj 444 169 bng 15 250 50 0 \$0Add_seqpreset7 \$0Add_seqpreset7_ctl
7 -10 8 0 10 -54094 -260097 -261682;
#X obj 475 169 bng 15 250 50 0 \$0Add_seqpreset8 \$0Add_seqpreset8_ctl
8 -10 8 0 10 -54094 -260097 -261682;
#X obj 509 113 bng 12 250 50 0 \$0Add_randomseq \$0Add_randomseq_ctl
zufällig 16 5 0 10 -99865 -260097 -261682;
#X obj 203 162 cnv 5 10 5 empty empty Start 0 0 0 10 -66577 -261682
0;
#X obj 154 133 vradio 15 1 0 4 \$0temp_skalar \$0temp_skalar_ctl empty
-18 -10 0 10 -99865 -260097 -262144 2;
#X obj 259 187 bng 13 250 50 0 \$0Add_seqpreset1_sav \$0Add_seqpreset1_sav_ctl
empty -10 8 0 10 -260097 -1 -261682;
#X obj 290 187 bng 13 250 50 0 \$0Add_seqpreset2_sav \$0Add_seqpreset2_sav_ctl
empty -10 8 0 10 -260097 -1 -261682;
#X obj 321 187 bng 13 250 50 0 \$0Add_seqpreset3_sav \$0Add_seqpreset3_sav_ctl
empty -10 8 0 10 -260097 -1 -261682;
#X obj 352 187 bng 13 250 50 0 \$0Add_seqpreset4_sav \$0Add_seqpreset4_sav_ctl
empty -10 8 0 10 -260097 -1 -261682;
#X obj 383 187 bng 13 250 50 0 \$0Add_seqpreset5_sav \$0Add_seqpreset5_sav_ctl
empty -10 8 0 10 -260097 -1 -261682;
#X obj 414 187 bng 13 250 50 0 \$0Add_seqpreset6_sav \$0Add_seqpreset6_sav_ctl
empty -10 8 0 10 -260097 -1 -261682;
#X obj 445 187 bng 13 250 50 0 \$0Add_seqpreset7_sav \$0Add_seqpreset7_sav_ctl
empty -10 8 0 10 -260097 -1 -261682;
#X obj 476 187 bng 13 250 50 0 \$0Add_seqpreset8_sav \$0Add_seqpreset8_sav_ctl
empty -10 8 0 10 -260097 -1 -261682;
#N canvas 475 228 726 488 startbutton 0;
#X obj 101 -239 select 0 1;
#X obj 119 -297 loadbang;
#X msg 119 -274 0;
#X obj 98 -363 cnv 15 24 24 \$0startstop_canvas_bg \$0startstop_canvas_bg
empty 20 12 0 14 -258699 -262144 0;
#X obj 101 -360 tgl 18 0 \$0Seq_on \$0Seq_on_r empty -2 -7 0 9 -54094
-260097 -33289 0 1;
#X msg 129 -119 color -43073;
#X msg 101 -148 color 13;
#X obj 101 -46 s \$0startstop_canvas_bg;
#X connect 0 0 6 0;
#X connect 0 1 5 0;
#X connect 1 0 2 0;
#X connect 2 0 0 0;
#X connect 4 0 0 0;
#X connect 5 0 7 0;
#X connect 6 0 7 0;
#X coords 0 -1 1 1 24 24 2 98 -363;
#X restore 206 129 pd startbutton;
#X obj 109 144 vsl 25 40 15 999 1 0 \$0Jerry_Seq_BPM \$0Jerry_Seq_BPM_ctl
Bpm 3 -10 0 11 -99865 -260097 -262144 1932 1;
#X obj 567 142 bng 15 50 10 0 \$0LoopPulse_send \$0LoopPulse Netzwerk
-13 -7 0 9 -128992 -260097 -262144;
#X obj 567 160 tgl 15 0 \$0connect \$0connect_ctl verbinden -14 21
0 8 -128992 -260097 -262144 0 1;
#X obj -223 760 outlet;
#X obj 531 187 bng 15 250 50 0 \$0saveBank \$0saveBank_ctl save -26
7 0 10 -128992 -260097 -262144;
#X obj 531 168 bng 15 250 50 0 \$0loadBank \$0loadBank_ctl load -26
7 0 10 -128992 -260097 -262144;
#X obj -223 715 sel 1;
#X obj -285 14 sel 1;
#X obj -277 84 f;
#X obj -239 -9 r \$0temp_skalar;
#X obj -285 40 t b b;
#X obj 171 140 cnv 15 10 10 empty empty 1/4 0 0 0 8 -66577 -260097
0;
#X obj 171 154 cnv 15 10 10 empty empty 1/8 0 0 0 8 -66577 -260097
0;
#X obj 171 170 cnv 15 10 8 empty empty 1/16 0 0 0 8 -66577 -260097
0;
#X obj 171 185 cnv 5 10 10 empty empty 1/32 0 0 0 8 -66577 -260097
0;
#X msg -210 63 1;
#X msg -186 64 2;
#X msg -159 64 4;
#X msg -131 66 8;
#X obj 514 158 cnv 10 10 10 empty empty Bank 0 0 0 10 -66577 -260097
0;
#X obj -684 -384 inlet;
#X floatatom -684 -316 5 0 0 0 - - -, f 5;
#X obj -743 99 r \$0connect;
#X obj -776 123 spigot;
#X obj -497 -288 s \$0Jerry_Seq_BPM_int;
#X obj -467 -360 r \$0connect;
#X obj -499 -310 spigot;
#X obj -501 -342 f;
#X obj -465 -334 t b f;
#X obj -788 67 spigot;
#X obj 167 4 inlet;
#X obj 167 25 * 7.866;
#X obj 205 -4 inlet;
#X obj 127 2 inlet;
#X obj 127 51 sel 1 2 3 4 5 6 7 8;
#X obj 345 -7 inlet;
#X obj 401 -7 inlet;
#X obj -332 124 r \$0connect;
#X obj -365 197 spigot;
#X obj -332 146 - 1;
#X obj -332 168 abs;
#X obj 212 171 bng 12 250 50 0 \$0restart \$0restart_ctl neustart -12
19 0 8 -99865 -260097 -261682;
#X obj 242 -5 inlet;
#X obj -178 157 r \$0restart;
#X obj -623 -299 s \$0LoopPulse;
#X obj -239 20 sel 0 1 2 3;
#X obj -884 98 sel 0;
#X obj -981 -175 sel 0 2 4 6 8 10 12 14;
#X obj -981 -140 f;
#X obj -951 -140 + 1;
#X obj -717 -271 gate 4;
#X obj -809 -349 r \$0temp_skalar;
#X obj -824 -326 f;
#X obj -824 -302 + 1;
#X obj -980 -111 % 16;
#X floatatom -793 32 5 0 0 0 - - -, f 5;
#X obj -1093 -145 f;
#X obj -1063 -145 + 1;
#X obj -1092 -116 % 16;
#X obj -1093 -181 sel 0 4 8 12;
#X obj -794 -165 f;
#X obj -663 -8 % 16;
#X msg -754 -320 loadbang;
#X msg -757 -301 3;
#X obj -920 -279 change;
#X obj -918 -254 bng 15 250 50 0 empty empty empty 17 7 0 10 -262144
-1 -1;
#X msg -959 -233 0;
#X obj 37 35 s \$0Seq_on_r;
#X obj 42 1 inlet;
#X obj -684 -347 route Pulse BPM Phase;
#X floatatom -533 -179 5 0 0 0 - - -, f 5;
#X obj -652 -270 sel 1 2 3 4;
#X msg -607 -238 1;
#X msg -643 -238 0;
#X obj -532 -155 spigot;
#X floatatom -500 -247 5 0 0 0 - - -, f 5;
#X obj 216 20 + 1;
#X obj 570 188 tgl 10 0 \$0clockmode \$0clockmode_ctl im\ Takt? -9
14 0 7 -128992 -260097 -262144 1 1;
#X obj -536 183 r \$0clockmode;
#X obj -536 208 sel 1;
#X msg -540 235 1;
#X msg -500 239 0;
#X obj -542 285 spigot;
#X obj -463 -54 r \$0clockmode;
#X obj -463 -29 sel 1;
#X obj -467 36 spigot;
#X msg -467 -2 0;
#X msg -427 2 1;
#N canvas 84 207 1090 759 select 0;
#X obj 70 8 inlet;
#X obj 94 303 bng 15 250 50 0 empty empty empty 17 7 0 10 -262144 -1
-1;
#X floatatom 15 2 5 0 0 0 - - -, f 5;
#X obj 34 59 gate 5;
#X obj 1 20 + 1;
#X obj 152 403 outlet;
#X obj 16 -19 r \$0temp_skalar;
#X floatatom 106 27 5 0 0 0 - - -, f 5;
#X obj -18 156 sel 0 8 16 24;
#X obj 83 182 sel 0 4 8 12 16 20 24 28;
#X obj 255 179 sel 0 2 4 6 8 10 12 14 16 18 20 22 24 26 28 30;
#X obj 608 189 bng 15 250 50 0 empty empty empty 17 7 0 10 -262144
-1 -1;
#X connect 0 0 3 1;
#X connect 0 0 7 0;
#X connect 1 0 5 0;
#X connect 2 0 4 0;
#X connect 3 0 8 0;
#X connect 3 1 9 0;
#X connect 3 2 10 0;
#X connect 3 3 11 0;
#X connect 4 0 3 0;
#X connect 6 0 2 0;
#X connect 8 0 1 0;
#X connect 8 1 1 0;
#X connect 8 2 1 0;
#X connect 8 3 1 0;
#X connect 9 0 1 0;
#X connect 9 1 1 0;
#X connect 9 2 1 0;
#X connect 9 3 1 0;
#X connect 9 4 1 0;
#X connect 9 5 1 0;
#X connect 9 6 1 0;
#X connect 9 7 1 0;
#X connect 10 0 1 0;
#X connect 10 1 1 0;
#X connect 10 2 1 0;
#X connect 10 3 1 0;
#X connect 10 4 1 0;
#X connect 10 5 1 0;
#X connect 10 6 1 0;
#X connect 10 7 1 0;
#X connect 10 8 1 0;
#X connect 10 9 1 0;
#X connect 10 10 1 0;
#X connect 10 11 1 0;
#X connect 10 12 1 0;
#X connect 10 13 1 0;
#X connect 10 14 1 0;
#X connect 10 15 1 0;
#X connect 11 0 1 0;
#X restore -89 55 pd select;
#X obj -89 83 bng 15 250 50 0 empty empty empty 17 7 0 10 -262144 -1
-1;
#X obj -56 86 r \$0connect;
#X obj -89 111 spigot;
#X obj -84 137 r \$0clockmode;
#X obj -84 162 sel 1;
#X obj -88 227 spigot;
#X msg -90 195 0;
#X msg -48 193 1;
#X obj -337 300 r \$0Seq_on;
#X obj -370 331 spigot;
#X obj -107 277 r \$0Seq_on;
#X obj -188 303 spigot;
#X obj -156 272 f;
#X obj -97 301 sel 1 0;
#X msg -97 326 1;
#X msg -71 339 0;
#X obj -158 241 bng 15 250 50 0 empty empty empty 17 7 0 10 -262144
-1 -1;
#X obj -198 345 bng 15 250 50 0 empty empty empty 17 7 0 10 -262144
-1 -1;
#X floatatom -132 347 5 0 0 0 - - -, f 5;
#N canvas 67 55 1853 1002 STUFF 0;
#X floatatom 903 -174 5 0 0 0 - #0Jerry_Seq_Beat1 -, f 5;
#X floatatom 936 -174 5 0 0 0 - #0Jerry_Seq_Beat2 -, f 5;
#X floatatom 969 -174 5 0 0 0 - #0Jerry_Seq_Beat3 -, f 5;
#X floatatom 1002 -174 5 0 0 0 - #0Jerry_Seq_Beat4 -, f 5;
#X obj 888 -151 f;
#X obj 921 -151 f;
#X obj 954 -151 f;
#X obj 987 -151 f;
#X floatatom 1035 -174 5 0 0 0 - #0Jerry_Seq_Beat5 -, f 5;
#X floatatom 1068 -174 5 0 0 0 - #0Jerry_Seq_Beat6 -, f 5;
#X floatatom 1101 -174 5 0 0 0 - #0Jerry_Seq_Beat7 -, f 5;
#X floatatom 1134 -174 5 0 0 0 - #0Jerry_Seq_Beat8 -, f 5;
#X obj 1020 -151 f;
#X obj 1053 -151 f;
#X obj 1086 -151 f;
#X obj 1119 -151 f;
#X floatatom 1167 -174 5 0 0 0 - #0Jerry_Seq_Beat9 -, f 5;
#X floatatom 1200 -174 5 0 0 0 - #0Jerry_Seq_Beat10 -, f 5;
#X floatatom 1233 -174 5 0 0 0 - #0Jerry_Seq_Beat11 -, f 5;
#X floatatom 1266 -174 5 0 0 0 - #0Jerry_Seq_Beat12 -, f 5;
#X obj 1152 -151 f;
#X obj 1185 -151 f;
#X obj 1218 -151 f;
#X obj 1251 -151 f;
#X floatatom 1299 -174 5 0 0 0 - #0Jerry_Seq_Beat13 -, f 5;
#X floatatom 1332 -174 5 0 0 0 - #0Jerry_Seq_Beat14 -, f 5;
#X floatatom 1365 -174 5 0 0 0 - #0Jerry_Seq_Beat15 -, f 5;
#X floatatom 1398 -174 5 0 0 0 - #0Jerry_Seq_Beat16 -, f 5;
#X obj 1284 -151 f;
#X obj 1317 -151 f;
#X obj 1350 -151 f;
#X obj 1383 -151 f;
#X obj 931 77 list;
#X obj 882 -312 t b b b b b b b b b b b b b b b b b;
#X obj 837 -55 route 1 2 3 4 5 6 7 8;
#X obj 837 -98 pack f f f f f f f f f f f f f f f f f;
#X msg 800 -472 1;
#X msg 810 -462 2;
#X msg 820 -452 3;
#X msg 828 -442 4;
#X msg 837 -434 5;
#X msg 847 -424 6;
#X msg 857 -414 7;
#X msg 865 -404 8;
#X obj 880 -338 bng 15 250 50 0 empty empty empty 17 7 0 10 -262144
-1 -1;
#X obj 941 87 list;
#X obj 952 99 list;
#X obj 962 109 list;
#X obj 972 116 list;
#X obj 982 126 list;
#X obj 993 138 list;
#X obj 1003 148 list;
#X obj 791 -593 r \$0Add_seqpreset1_sav;
#X obj 801 -573 r \$0Add_seqpreset2_sav;
#X obj 814 -554 r \$0Add_seqpreset3_sav;
#X obj 824 -534 r \$0Add_seqpreset4_sav;
#X obj 834 -511 r \$0Add_seqpreset5_sav;
#X obj 845 -491 r \$0Add_seqpreset6_sav;
#X obj 857 -472 r \$0Add_seqpreset7_sav;
#X obj 867 -452 r \$0Add_seqpreset8_sav;
#X obj 1162 -38 r \$0saveBank;
#X obj 946 238 textfile;
#X obj 1162 119 savepanel;
#X obj 1162 151 symbol;
#X msg 1162 178 write \$1;
#X obj 1162 68 getdir;
#X obj 1162 -2 t b b b b b b b b b b;
#X msg 1285 32 clear;
#X obj 1427 66 r \$0loadBank;
#X msg 1458 182 clear;
#X msg 1455 332 rewind;
#X text 1505 210 Load;
#X obj 1428 210 openpanel;
#X obj 1428 119 bng 15 250 50 0 empty empty empty 17 7 0 10 -262144
-1 -1;
#X msg 1428 233 read \$1;
#X obj 1428 100 t b b;
#X obj 1428 276 del 20;
#X obj 1428 254 bng 15 250 50 0 empty empty empty 17 7 0 10 -262144
-1 -1;
#X obj 1428 298 t b b;
#X obj 1428 138 getdir;
#X obj 555 -155 r \$0Add_seqpreset1;
#X obj 565 -135 r \$0Add_seqpreset2;
#X obj 579 -116 r \$0Add_seqpreset3;
#X obj 588 -96 r \$0Add_seqpreset4;
#X obj 598 -73 r \$0Add_seqpreset5;
#X obj 609 -53 r \$0Add_seqpreset6;
#X obj 620 -34 r \$0Add_seqpreset7;
#X obj 631 -13 r \$0Add_seqpreset8;
#X obj 553 166 list;
#X obj 618 31 route 1 2 3 4 5 6 7 8;
#X obj 563 176 list;
#X obj 574 188 list;
#X obj 584 198 list;
#X obj 594 205 list;
#X obj 604 215 list;
#X obj 615 227 list;
#X obj 625 237 list;
#X obj 241 441 s \$0Jerry_Seq_Beat1_ctl;
#X obj 251 451 s \$0Jerry_Seq_Beat2_ctl;
#X obj 266 462 s \$0Jerry_Seq_Beat3_ctl;
#X obj 276 472 s \$0Jerry_Seq_Beat4_ctl;
#X obj 417 438 s \$0Jerry_Seq_Beat5_ctl;
#X obj 427 448 s \$0Jerry_Seq_Beat6_ctl;
#X obj 442 459 s \$0Jerry_Seq_Beat7_ctl;
#X obj 452 469 s \$0Jerry_Seq_Beat8_ctl;
#X obj 522 316 unpack f f f f f f f f f f f f f f f f;
#X obj 586 430 s \$0Jerry_Seq_Beat9_ctl;
#X obj 596 440 s \$0Jerry_Seq_Beat10_ctl;
#X obj 611 451 s \$0Jerry_Seq_Beat11_ctl;
#X obj 621 461 s \$0Jerry_Seq_Beat12_ctl;
#X obj 772 430 s \$0Jerry_Seq_Beat13_ctl;
#X obj 782 440 s \$0Jerry_Seq_Beat14_ctl;
#X obj 797 451 s \$0Jerry_Seq_Beat15_ctl;
#X obj 807 461 s \$0Jerry_Seq_Beat16_ctl;
#X obj 805 -344 f;
#X obj 832 362 r \$0Jerry_clearSeq;
#X msg 832 384 0;
#X msg 1428 165 symbol \$1;
#X obj 1428 377 until;
#X obj 1428 403 f;
#X obj 1458 403 + 1;
#X msg 1428 354 8;
#X obj 948 292 zl join;
#X obj 1427 432 + 1;
#X obj 1088 256 t f b;
#X msg 1495 260 0;
#X obj 1056 363 del 15;
#X obj 1057 404 s \$0Add_seqpreset1;
#X obj 215 82 r \$0Add_randomseq;
#X obj 215 132 until;
#X obj 215 158 f;
#X obj 245 158 + 1;
#X obj 215 185 t f b;
#X obj 215 245 pack f f;
#X msg 215 109 16;
#X msg 261 112 0;
#X obj 216 276 route 1 2 3 4 5 6 7 8 9 10 11 12 13 14 15 16;
#X obj 242 213 random 2;
#X msg 1162 95 symbol \$1;
#X obj 1308 169 s \$0bankname;
#X obj 1577 35 r \$0bankname_load;
#X obj 1576 96 t s b;
#X msg 1600 258 rewind;
#X msg 1573 159 read \$1;
#X obj 1573 202 del 20;
#X obj 1573 180 bng 15 250 50 0 empty empty empty 17 7 0 10 -262144
-1 -1;
#X obj 1573 224 t b b;
#X obj 1573 303 until;
#X obj 1573 329 f;
#X obj 1603 329 + 1;
#X msg 1573 280 8;
#X obj 1572 358 + 1;
#X msg 1732 185 0;
#X msg 1627 133 clear;
#X obj 1279 267 t f b;
#X obj 838 194 zl join;
#X msg 838 163 add;
#X obj 859 123 t b l;
#X obj 948 329 route 1 2 3 4 5 6 7 8;
#X obj 1515 -172 r toolsdirectory;
#X obj 1544 -108 t b b b b b b b b b b;
#X msg 1594 -16 clear;
#X obj 1477 -110 symbol;
#X obj 1396 -94 \$1;
#X obj 1397 -67 ftos;
#X obj 1351 -23 pack s s;
#X obj 1396 -119 loadbang;
#X msg 1350 25 symbol \$1Steps\$2SeqBank;
#X obj 1480 -143 del 2;
#X connect 0 0 4 1;
#X connect 1 0 5 1;
#X connect 2 0 6 1;
#X connect 3 0 7 1;
#X connect 4 0 35 1;
#X connect 5 0 35 2;
#X connect 6 0 35 3;
#X connect 7 0 35 4;
#X connect 8 0 12 1;
#X connect 9 0 13 1;
#X connect 10 0 14 1;
#X connect 11 0 15 1;
#X connect 12 0 35 5;
#X connect 13 0 35 6;
#X connect 14 0 35 7;
#X connect 15 0 35 8;
#X connect 16 0 20 1;
#X connect 17 0 21 1;
#X connect 18 0 22 1;
#X connect 19 0 23 1;
#X connect 20 0 35 9;
#X connect 21 0 35 10;
#X connect 22 0 35 11;
#X connect 23 0 35 12;
#X connect 24 0 28 1;
#X connect 25 0 29 1;
#X connect 26 0 30 1;
#X connect 27 0 31 1;
#X connect 28 0 35 13;
#X connect 29 0 35 14;
#X connect 30 0 35 15;
#X connect 31 0 35 16;
#X connect 32 0 157 0;
#X connect 33 0 114 0;
#X connect 33 1 4 0;
#X connect 33 2 5 0;
#X connect 33 3 6 0;
#X connect 33 4 7 0;
#X connect 33 5 12 0;
#X connect 33 6 13 0;
#X connect 33 7 14 0;
#X connect 33 8 15 0;
#X connect 33 9 20 0;
#X connect 33 10 21 0;
#X connect 33 11 22 0;
#X connect 33 12 23 0;
#X connect 33 13 28 0;
#X connect 33 14 29 0;
#X connect 33 15 30 0;
#X connect 33 16 31 0;
#X connect 34 0 51 1;
#X connect 34 1 50 1;
#X connect 34 2 49 1;
#X connect 34 3 48 1;
#X connect 34 4 47 1;
#X connect 34 5 46 1;
#X connect 34 6 45 1;
#X connect 34 7 32 1;
#X connect 35 0 34 0;
#X connect 35 0 89 0;
#X connect 36 0 114 1;
#X connect 37 0 114 1;
#X connect 38 0 114 1;
#X connect 39 0 114 1;
#X connect 40 0 114 1;
#X connect 41 0 114 1;
#X connect 42 0 114 1;
#X connect 43 0 114 1;
#X connect 44 0 33 0;
#X connect 45 0 157 0;
#X connect 46 0 157 0;
#X connect 47 0 157 0;
#X connect 48 0 157 0;
#X connect 49 0 157 0;
#X connect 50 0 157 0;
#X connect 51 0 157 0;
#X connect 52 0 36 0;
#X connect 52 0 44 0;
#X connect 53 0 37 0;
#X connect 53 0 44 0;
#X connect 54 0 38 0;
#X connect 54 0 44 0;
#X connect 55 0 39 0;
#X connect 55 0 44 0;
#X connect 56 0 40 0;
#X connect 56 0 44 0;
#X connect 57 0 41 0;
#X connect 57 0 44 0;
#X connect 58 0 42 0;
#X connect 58 0 44 0;
#X connect 59 0 43 0;
#X connect 59 0 44 0;
#X connect 60 0 66 0;
#X connect 61 0 122 1;
#X connect 62 0 63 0;
#X connect 62 0 139 0;
#X connect 63 0 64 0;
#X connect 64 0 61 0;
#X connect 65 0 138 0;
#X connect 66 0 65 0;
#X connect 66 1 32 0;
#X connect 66 2 45 0;
#X connect 66 3 46 0;
#X connect 66 4 47 0;
#X connect 66 5 48 0;
#X connect 66 6 49 0;
#X connect 66 7 50 0;
#X connect 66 8 51 0;
#X connect 66 9 67 0;
#X connect 67 0 61 0;
#X connect 68 0 75 0;
#X connect 68 0 125 0;
#X connect 69 0 61 0;
#X connect 70 0 61 0;
#X connect 72 0 74 0;
#X connect 72 0 139 0;
#X connect 73 0 79 0;
#X connect 74 0 61 0;
#X connect 74 0 77 0;
#X connect 75 0 73 0;
#X connect 75 1 69 0;
#X connect 76 0 78 0;
#X connect 77 0 76 0;
#X connect 78 0 121 0;
#X connect 78 1 70 0;
#X connect 79 0 117 0;
#X connect 80 0 88 0;
#X connect 81 0 90 0;
#X connect 82 0 91 0;
#X connect 83 0 92 0;
#X connect 84 0 93 0;
#X connect 85 0 94 0;
#X connect 86 0 95 0;
#X connect 87 0 96 0;
#X connect 88 0 105 0;
#X connect 89 0 88 1;
#X connect 89 1 90 1;
#X connect 89 2 91 1;
#X connect 89 3 92 1;
#X connect 89 4 93 1;
#X connect 89 5 94 1;
#X connect 89 6 95 1;
#X connect 89 7 96 1;
#X connect 90 0 105 0;
#X connect 91 0 105 0;
#X connect 92 0 105 0;
#X connect 93 0 105 0;
#X connect 94 0 105 0;
#X connect 95 0 105 0;
#X connect 96 0 105 0;
#X connect 105 0 97 0;
#X connect 105 1 98 0;
#X connect 105 2 99 0;
#X connect 105 3 100 0;
#X connect 105 4 101 0;
#X connect 105 5 102 0;
#X connect 105 6 103 0;
#X connect 105 7 104 0;
#X connect 105 8 106 0;
#X connect 105 9 107 0;
#X connect 105 10 108 0;
#X connect 105 11 109 0;
#X connect 105 12 110 0;
#X connect 105 13 111 0;
#X connect 105 14 112 0;
#X connect 105 15 113 0;
#X connect 114 0 35 0;
#X connect 115 0 116 0;
#X connect 116 0 97 0;
#X connect 116 0 98 0;
#X connect 116 0 99 0;
#X connect 116 0 100 0;
#X connect 116 0 101 0;
#X connect 116 0 102 0;
#X connect 116 0 104 0;
#X connect 116 0 103 0;
#X connect 116 0 106 0;
#X connect 116 0 107 0;
#X connect 116 0 108 0;
#X connect 116 0 109 0;
#X connect 116 0 110 0;
#X connect 116 0 112 0;
#X connect 116 0 113 0;
#X connect 116 0 111 0;
#X connect 117 0 72 0;
#X connect 118 0 119 0;
#X connect 119 0 120 0;
#X connect 119 0 123 0;
#X connect 120 0 119 1;
#X connect 121 0 118 0;
#X connect 122 0 158 0;
#X connect 123 0 124 0;
#X connect 124 0 122 0;
#X connect 124 1 61 0;
#X connect 125 0 119 1;
#X connect 126 0 127 0;
#X connect 128 0 134 0;
#X connect 128 0 135 0;
#X connect 129 0 130 0;
#X connect 130 0 131 0;
#X connect 130 0 132 0;
#X connect 131 0 130 1;
#X connect 132 0 133 0;
#X connect 132 1 137 0;
#X connect 133 0 136 0;
#X connect 134 0 129 0;
#X connect 135 0 130 1;
#X connect 136 0 97 0;
#X connect 136 1 98 0;
#X connect 136 2 99 0;
#X connect 136 3 100 0;
#X connect 136 4 101 0;
#X connect 136 5 102 0;
#X connect 136 6 103 0;
#X connect 136 7 104 0;
#X connect 136 8 106 0;
#X connect 136 9 107 0;
#X connect 136 10 108 0;
#X connect 136 11 109 0;
#X connect 136 12 110 0;
#X connect 136 13 111 0;
#X connect 136 14 112 0;
#X connect 136 15 112 0;
#X connect 137 0 133 1;
#X connect 138 0 62 0;
#X connect 140 0 152 0;
#X connect 140 0 141 0;
#X connect 141 0 143 0;
#X connect 141 1 153 0;
#X connect 142 0 61 0;
#X connect 143 0 145 0;
#X connect 143 0 61 0;
#X connect 144 0 146 0;
#X connect 145 0 144 0;
#X connect 146 0 150 0;
#X connect 146 1 142 0;
#X connect 147 0 148 0;
#X connect 148 0 149 0;
#X connect 148 0 151 0;
#X connect 149 0 148 1;
#X connect 150 0 147 0;
#X connect 151 0 154 0;
#X connect 152 0 148 1;
#X connect 153 0 61 0;
#X connect 154 0 122 0;
#X connect 154 1 61 0;
#X connect 155 0 61 0;
#X connect 156 0 155 0;
#X connect 157 0 156 0;
#X connect 157 1 155 1;
#X connect 158 0 51 1;
#X connect 158 0 88 1;
#X connect 158 1 50 1;
#X connect 158 1 90 1;
#X connect 158 2 49 1;
#X connect 158 2 91 1;
#X connect 158 3 48 1;
#X connect 158 3 92 1;
#X connect 158 4 47 1;
#X connect 158 4 93 1;
#X connect 158 5 46 1;
#X connect 158 5 94 1;
#X connect 158 6 45 1;
#X connect 158 6 95 1;
#X connect 158 7 126 0;
#X connect 158 7 32 1;
#X connect 158 7 96 1;
#X connect 159 0 160 0;
#X connect 159 0 162 1;
#X connect 160 0 168 0;
#X connect 160 1 32 0;
#X connect 160 2 45 0;
#X connect 160 3 46 0;
#X connect 160 4 47 0;
#X connect 160 5 48 0;
#X connect 160 6 49 0;
#X connect 160 7 50 0;
#X connect 160 8 51 0;
#X connect 160 9 161 0;
#X connect 161 0 61 0;
#X connect 162 0 165 0;
#X connect 163 0 164 0;
#X connect 164 0 165 1;
#X connect 165 0 167 0;
#X connect 166 0 163 0;
#X connect 167 0 139 0;
#X connect 167 0 64 0;
#X connect 168 0 162 0;
#X restore 3 1030 pd STUFF;
#N canvas 0 51 1600 826 loadsave 1;
#X obj 179 136 r toolssavebank;
#X obj 611 260 f;
#X obj 556 254 f;
#X obj 466 362 s toolssavelists;
#X obj 421 174 f;
#X obj 179 224 route;
#X obj 543 7 loadbang;
#X obj 543 71 \$1;
#X obj 542 43 del 5;
#X obj 416 104 del;
#X obj 291 404 list2symbol;
#X obj 569 179 r \$0Jerry_Seq_BPM;
#X obj 684 200 r \$0temp_skalar;
#X obj 683 288 symbol;
#X obj 416 258 symbol steps;
#X obj 182 193 route steps;
#X obj 716 254 r \$0bankname;
#X obj 291 449 s \$0bankname_load;
#X obj 119 441 s \$0Jerry_Seq_BPM_ctl;
#X obj 145 512 s \$0temp_skalar_ctl;
#X obj 358 483 s \$0bankname;
#X obj 646 280 f;
#X obj 662 242 r \$0connect;
#X obj 178 334 list split 3;
#X obj 132 371 unpack f f f;
#X obj 198 482 s \$0connect_ctl;
#X obj 365 14 r toolsdirectory;
#X obj 366 40 bng 15 250 50 0 empty empty empty 17 7 0 10 -262144 -1
-1;
#X obj 507 68 * 2;
#X obj 448 87 clip 6 22;
#X obj 431 204 t b f b b b b b b;
#X obj 866 338 f;
#X obj 887 277 r \$0clockmode;
#X obj 466 319 pack s f f f f s f;
#X obj 203 275 list split 4;
#X obj 469 506 s \$0clockmode_ctl;
#X obj 325 283 sel 0 1;
#X msg 362 334 0;
#X msg 401 334 1;
#X connect 0 0 15 0;
#X connect 1 0 33 3;
#X connect 2 0 33 2;
#X connect 4 0 30 0;
#X connect 5 0 34 0;
#X connect 6 0 8 0;
#X connect 7 0 4 1;
#X connect 7 0 5 1;
#X connect 7 0 28 0;
#X connect 8 0 7 0;
#X connect 9 0 4 0;
#X connect 10 0 17 0;
#X connect 10 0 20 0;
#X connect 11 0 2 1;
#X connect 12 0 1 1;
#X connect 13 0 33 5;
#X connect 14 0 33 0;
#X connect 15 0 5 0;
#X connect 16 0 13 1;
#X connect 21 0 33 4;
#X connect 22 0 21 1;
#X connect 23 0 24 0;
#X connect 23 1 10 0;
#X connect 24 0 18 0;
#X connect 24 1 19 0;
#X connect 24 2 25 0;
#X connect 26 0 27 0;
#X connect 27 0 9 0;
#X connect 28 0 29 0;
#X connect 29 0 9 1;
#X connect 30 0 14 0;
#X connect 30 1 33 1;
#X connect 30 2 2 0;
#X connect 30 3 1 0;
#X connect 30 4 21 0;
#X connect 30 5 13 0;
#X connect 30 6 31 0;
#X connect 31 0 33 6;
#X connect 32 0 31 1;
#X connect 33 0 3 0;
#X connect 34 0 23 0;
#X connect 34 1 36 0;
#X connect 36 0 37 0;
#X connect 36 1 38 0;
#X connect 37 0 35 0;
#X connect 38 0 35 0;
#X restore 1284 436 pd loadsave;
#N canvas 0 0 450 300 loadbang 0;
#X obj 84 103 s \$0temp_skalar_ctl;
#X obj 79 60 loadbang;
#X msg 203 43 120;
#X obj 204 74 s \$0Jerry_Seq_BPM_ctl;
#X obj 246 141 s \$0connect_ctl;
#X msg 246 116 0;
#X msg 80 82 2;
#X obj 161 191 s \$0clockmode_ctl;
#X msg 166 148 1;
#X connect 1 0 6 0;
#X connect 1 0 2 0;
#X connect 1 0 5 0;
#X connect 1 0 8 0;
#X connect 2 0 3 0;
#X connect 5 0 4 0;
#X connect 6 0 0 0;
#X connect 8 0 7 0;
#X restore -1185 103 pd loadbang;
#X connect 21 0 22 0;
#X connect 21 0 118 0;
#X connect 21 0 174 1;
#X connect 22 0 23 0;
#X connect 23 0 183 0;
#X connect 24 0 25 0;
#X connect 25 0 26 0;
#X connect 26 0 243 0;
#X connect 27 0 30 0;
#X connect 27 0 119 0;
#X connect 27 0 152 0;
#X connect 28 0 33 1;
#X connect 29 0 34 1;
#X connect 30 0 33 0;
#X connect 30 1 34 0;
#X connect 30 2 35 0;
#X connect 30 3 36 0;
#X connect 30 4 41 0;
#X connect 30 5 42 0;
#X connect 30 6 43 0;
#X connect 30 7 44 0;
#X connect 30 8 49 0;
#X connect 30 9 50 0;
#X connect 30 10 51 0;
#X connect 30 11 52 0;
#X connect 30 12 57 0;
#X connect 30 13 58 0;
#X connect 30 14 59 0;
#X connect 30 15 60 0;
#X connect 31 0 35 1;
#X connect 32 0 36 1;
#X connect 33 0 69 0;
#X connect 34 0 72 0;
#X connect 35 0 75 0;
#X connect 36 0 78 0;
#X connect 37 0 41 1;
#X connect 38 0 42 1;
#X connect 39 0 43 1;
#X connect 40 0 44 1;
#X connect 41 0 81 0;
#X connect 42 0 84 0;
#X connect 43 0 87 0;
#X connect 44 0 90 0;
#X connect 45 0 49 1;
#X connect 46 0 50 1;
#X connect 47 0 51 1;
#X connect 48 0 52 1;
#X connect 49 0 93 0;
#X connect 50 0 96 0;
#X connect 51 0 99 0;
#X connect 52 0 102 0;
#X connect 53 0 57 1;
#X connect 54 0 58 1;
#X connect 55 0 59 1;
#X connect 56 0 60 1;
#X connect 57 0 105 0;
#X connect 58 0 108 0;
#X connect 59 0 111 0;
#X connect 60 0 114 0;
#X connect 61 0 24 2;
#X connect 62 0 151 0;
#X connect 63 0 65 0;
#X connect 64 0 63 0;
#X connect 65 0 68 0;
#X connect 66 0 64 0;
#X connect 66 1 63 1;
#X connect 67 0 123 0;
#X connect 68 0 22 1;
#X connect 69 0 70 0;
#X connect 70 0 71 0;
#X connect 71 0 62 0;
#X connect 72 0 73 0;
#X connect 73 0 74 0;
#X connect 74 0 62 0;
#X connect 75 0 76 0;
#X connect 76 0 77 0;
#X connect 77 0 62 0;
#X connect 78 0 79 0;
#X connect 79 0 80 0;
#X connect 80 0 62 0;
#X connect 81 0 82 0;
#X connect 82 0 83 0;
#X connect 83 0 62 0;
#X connect 84 0 85 0;
#X connect 85 0 86 0;
#X connect 86 0 62 0;
#X connect 87 0 88 0;
#X connect 88 0 89 0;
#X connect 89 0 62 0;
#X connect 90 0 91 0;
#X connect 91 0 92 0;
#X connect 92 0 62 0;
#X connect 93 0 94 0;
#X connect 94 0 95 0;
#X connect 95 0 62 0;
#X connect 96 0 97 0;
#X connect 97 0 98 0;
#X connect 98 0 62 0;
#X connect 99 0 100 0;
#X connect 100 0 101 0;
#X connect 101 0 62 0;
#X connect 102 0 103 0;
#X connect 103 0 104 0;
#X connect 104 0 62 0;
#X connect 105 0 106 0;
#X connect 106 0 107 0;
#X connect 107 0 62 0;
#X connect 108 0 109 0;
#X connect 109 0 110 0;
#X connect 110 0 62 0;
#X connect 111 0 112 0;
#X connect 112 0 113 0;
#X connect 113 0 62 0;
#X connect 114 0 115 0;
#X connect 115 0 116 0;
#X connect 116 0 62 0;
#X connect 118 0 61 0;
#X connect 119 0 120 0;
#X connect 121 0 66 0;
#X connect 122 0 124 0;
#X connect 124 0 67 0;
#X connect 151 0 148 0;
#X connect 152 0 155 0;
#X connect 153 0 68 1;
#X connect 154 0 190 0;
#X connect 155 0 65 0;
#X connect 155 1 153 0;
#X connect 160 0 153 1;
#X connect 161 0 153 1;
#X connect 162 0 153 1;
#X connect 163 0 153 1;
#X connect 165 0 214 0;
#X connect 166 0 189 0;
#X connect 166 0 195 1;
#X connect 166 0 191 0;
#X connect 166 0 250 0;
#X connect 167 0 168 1;
#X connect 168 0 227 0;
#X connect 170 0 173 0;
#X connect 171 0 169 0;
#X connect 172 0 171 0;
#X connect 173 0 172 0;
#X connect 173 1 171 1;
#X connect 174 0 168 0;
#X connect 175 0 176 0;
#X connect 176 0 145 0;
#X connect 177 0 221 0;
#X connect 178 0 179 0;
#X connect 179 0 125 0;
#X connect 179 1 126 0;
#X connect 179 2 127 0;
#X connect 179 3 128 0;
#X connect 179 4 129 0;
#X connect 179 5 130 0;
#X connect 179 6 131 0;
#X connect 179 7 132 0;
#X connect 180 0 133 0;
#X connect 181 0 18 0;
#X connect 182 0 184 0;
#X connect 183 0 24 0;
#X connect 184 0 185 0;
#X connect 185 0 183 1;
#X connect 187 0 186 0;
#X connect 188 0 61 0;
#X connect 190 0 160 0;
#X connect 190 1 161 0;
#X connect 190 2 162 0;
#X connect 190 3 163 0;
#X connect 191 0 197 0;
#X connect 192 0 193 0;
#X connect 192 1 193 0;
#X connect 192 2 193 0;
#X connect 192 3 193 0;
#X connect 192 4 193 0;
#X connect 192 5 193 0;
#X connect 192 6 193 0;
#X connect 192 7 193 0;
#X connect 193 0 194 0;
#X connect 193 0 199 0;
#X connect 194 0 193 1;
#X connect 195 0 204 0;
#X connect 195 1 192 0;
#X connect 195 2 205 0;
#X connect 196 0 197 1;
#X connect 197 0 198 0;
#X connect 198 0 195 0;
#X connect 198 0 209 0;
#X connect 198 0 216 0;
#X connect 199 0 200 0;
#X connect 200 0 174 0;
#X connect 201 0 202 0;
#X connect 201 0 203 0;
#X connect 202 0 201 1;
#X connect 203 0 200 0;
#X connect 204 0 201 0;
#X connect 204 1 201 0;
#X connect 204 2 201 0;
#X connect 204 3 201 0;
#X connect 205 0 200 0;
#X connect 206 0 200 0;
#X connect 207 0 208 0;
#X connect 208 0 195 0;
#X connect 209 0 210 0;
#X connect 210 0 211 0;
#X connect 211 0 201 0;
#X connect 211 0 193 0;
#X connect 213 0 212 0;
#X connect 214 0 166 0;
#X connect 214 1 172 0;
#X connect 214 1 220 0;
#X connect 214 2 215 0;
#X connect 214 2 233 0;
#X connect 215 0 219 0;
#X connect 216 0 218 0;
#X connect 216 1 218 0;
#X connect 216 2 218 0;
#X connect 216 3 217 0;
#X connect 217 0 219 1;
#X connect 218 0 219 1;
#X connect 219 0 206 0;
#X connect 221 0 135 0;
#X connect 223 0 224 0;
#X connect 224 0 225 0;
#X connect 224 1 226 0;
#X connect 225 0 227 1;
#X connect 226 0 227 1;
#X connect 227 0 26 0;
#X connect 228 0 229 0;
#X connect 229 0 231 0;
#X connect 229 1 232 0;
#X connect 231 0 230 1;
#X connect 232 0 230 1;
#X connect 233 0 234 0;
#X connect 234 0 236 0;
#X connect 235 0 236 1;
#X connect 236 0 239 0;
#X connect 237 0 238 0;
#X connect 238 0 240 0;
#X connect 238 1 241 0;
#X connect 239 0 245 0;
#X connect 240 0 239 1;
#X connect 241 0 239 1;
#X connect 242 0 243 1;
#X connect 243 0 27 0;
#X connect 244 0 247 0;
#X connect 245 0 24 0;
#X connect 245 0 251 0;
#X connect 246 0 245 1;
#X connect 247 0 248 0;
#X connect 247 1 249 0;
#X connect 248 0 246 1;
#X connect 249 0 245 1;
#X connect 249 0 246 1;
#X connect 250 0 246 0;
#X coords 0 -1 1 1 504 111 1 100 100;
