#N canvas 72 103 1260 586 10;
#X obj -2 0 cnv 15 1260 45 empty \$0-pddp.cnv.header steps 3 12 0 18
-204280 -1 0;
#X obj 12 457 cnv 3 363 5 empty \$0-pddp.cnv.inlets empty 8 12 0 13
-228856 -1 0;
#X text 16 55 EINGANG 1: Steuerdaten zum Tempo (von [clock] oder [levlink])
;
#X text 16 209 EINGANG 4: Steuert den Regler 'Bpm' (in Mididaten \,
z.B. von [modu] \, [modurand] \, [control] \, etc.);
#X text 16 161 EINGANG 3: Sequenz 1-8 wird geladen \, wenn Zahlen von
1-8 empfangen werden (z.B. von [nummer]).;
#X text 20 485 AUSGANG 1: Gibt die erzeugte Sequenz als Steuerdaten
aus.;
#X text 476 245 Mit 'Start' wird die Ausgabe der Sequenz gestartet
und gestoppt. Mit 'Neustart' wird der laufende Sequenzer neu gestartet.
;
#X text 476 490 Es können mit 'erzeuge Sequenz' zufällige Sequenzen
erzeugt werden. Mit '0' wird die Sequenz zurückgesetzt.;
#X obj 586 55 steps;
#X text 476 430 Jeder Schritt ist im Prinzip wie ein Tastendruck auf
einer Tastatur. Es wird lediglich ein Bang-Signal ausgegeben \, das
einen Prozess ausloesen kann.;
#X text 476 370 Wie der Sequenzer die Schritte bezüglich des gegebenen
Tempos versteht \, wird unter 'Notenwert' eingestellt. Der Sequenzer
kann 4tel \, 8tel \, 16tel oder 32tel-Noten abspielen.;
#X text 476 298 Jeder der 16 Schritte der Sequenz wird aktiviert/deaktiviert
\, indem ein Kreuz in der zweiten Reihe gesetzt wird. Die erste Reihe
zeigt an \, wo sich der Sequenzer gerade befindet.;
#X text 874 193 Es können acht Sequenzen gespeichert werden (orangener
Button unter 1-8) und geladen (grauer Button unter 1-8) werden. Ganze
Bänke aus acht Sequenzen können extern gespeichert und geladen werden.
;
#X text 933 387 WOFÜR KANN DAS MODUL GENUTZT WERDEN?;
#X text 874 469 [steps] kann aber auch zur Steuerung von anderen Modulen
eingesetzt werden. Durch bang-Signale vom [steps] können Schalter
in anderen Modulen ausgelöst werden.;
#X text 874 412 Zuerst ist [steps] dafür da \, Beats zu erzeugen.
Dazu muss das Modul an Klangerzeuger wie [kick] \, [snare] \, [hihat]
\, [toms] \, [sampler] oder [simple] angeschlossen werden.;
#X text 873 261 Wenn das Tempo in seinem Apspieltempo mit anderen Sequenzern
synchronisiert werden soll \, braucht er ein Signal von [clock] oder
[levlink] an Eingang 1 Wenn der Sequenzer ein Signal empfängt \, blinkt
die Anzeige 'Netzwerk'. Dann muss der Sequenzer mit 'verbinden' verbunden
werden.;
#X text 476 191 [steps] ist ein step-sequenzer. Das Modul erzeugt Beat
Sequenzen. Sequenzen sind Abfolgen von Steuerdaten \, die in einer
Schleife wiederholt werden können.;
#X text 476 533 Mit 'Bpm' wird das Abspieltempo geregelt. Der Regler
ist deaktiviert \, wenn das Modul Tempoinformationen von [clock] oder
[levlink] empfängt.;
#X text 16 98 EINGANG 2: Der Schalter 'Start' wird ausgelöst und der
Step-Sequenzer gestartet/gestoppt (durch einen 'bang' \, z.B. von [taste]
\, [banger] \, [pad] \, etc.).;
#X text 16 254 EINGANG 5: Steuert den Schalter 'Notenwerte' (1 = 1/4
\, 2 = 1/8 \, 3 = 1/16 \, 4 = 1/32 \, z.B. von [nummer]).;
#X text 16 299 EINGANG 6: Der Schalter 'Neustart' wird ausgelöst (durch
einen 'bang' \, z.B. von [taste] \, [banger] \, [pad] \, etc.).;
#X text 18 346 EINGANG 7: Der Schalter 'zufällig' wird ausgelöst
(durch einen 'bang' \, z.B. von [taste] \, [banger] \, [pad] \, etc.).
;
#X text 17 393 EINGANG 8: Der Schalter '0' (reset) wird ausgelöst
(durch einen 'bang' \, z.B. von [taste] \, [banger] \, [pad] \, etc.).
;
#X text 19 508 Kann an Klangerzeuger wie [kick] \, [snare] \, etc.
angeschlossen werden. Kann außerdem Schalter anderer Module steuern.
;
#X text 10 25 Beats erzeugen, f 116;
