#N canvas 341 312 812 429 10;
#X obj 0 0 cnv 15 800 45 empty \$0-pddp.cnv.header syncdelay 3 12 0
18 -204280 -1 0;
#X obj 17 366 cnv 3 363 5 empty \$0-pddp.cnv.inlets empty 8 12 0 13
-228856 -1 0;
#X text 19 51 EINGANG 1: Audiosignal \, das verarbeitet werden soll.
;
#X text 17 387 AUSGANG 1: Gibt das mit Echoeffekt versehene Signal
aus.;
#X text 10 25 Echoeffekt mit rythmischer Synchronisation, f 116;
#X obj 517 55 syncdelay;
#X text 19 89 EINGANG 2: Infos zum Tempo von [clock] oder [levlink].
;
#X text 19 128 EINGANG 3: Steuert den Regler 'Bpm' (in Mididaten \,
z.B. von [modu] \, [modurand] \, [control] \, etc.);
#X text 19 166 EINGANG 4: Steuert den Regler 'Feedback' (in Mididaten
\, z.B. von [modu] \, [modurand] \, [control] \, etc.);
#X text 19 204 EINGANG 5: Steuert den Regler 'Volume' (in Mididaten
\, z.B. von [modu] \, [modurand] \, [control] \, etc.);
#X text 18 247 EINGANG 6: Steuert die Notenwerteinstellungen (1 = 6
4tel \, 2 = ganze Note \, 3 = halbe Note \, 4 = 4tel \, 5 = 8tel \,
6 = 16tel \, 7 = 32tel \, 8 = 64tel \, z.B. von [nummer]).;
#X text 18 302 EINGANG 7: Steuert die Schalter '1/3' \, der den Notenwert
triolisch macht (0=aus \, 1=an \, bzw. bang für an/aus \, z.B. [taste]
\, [banger] \, etc.).;
#X text 431 363 Das Timing der Echos wird unten bei den Notenwerten
eingestellt. Die Notenwerte beziehen sich auf das Tempo unter 'Bpm'
\, bzw. das am zweiten Eingang eingehende Tempo. Ist 1/3 aktiviert
\, so sind die Echos triolisch.;
#X text 429 233 [syncdelay] ist ein Echoeffekt. Es erzeugt Wiederholungen
des eingehenden Signals. Diese Echos koennen einem Tempo angepasst
werden.;
#X text 430 285 Diese Wiederholungen werden nach der unter 'time' eingestellten
Verzögerungszeit abgespielt. Der Regler 'Feedback' regelt die Anzahl
der abgespielten Wiederholungen. 'Volume' bestimmt die Gesamtlautstärke
des Echos.;
