#N canvas 203 90 901 648 10;
#X obj 0 0 cnv 15 900 45 empty \$0-pddp.cnv.header tapedelay 3 12 0
18 -204280 -1 0;
#X obj 18 186 cnv 3 363 5 empty \$0-pddp.cnv.inlets empty 8 12 0 13
-228856 -1 0;
#X text 20 59 EINGANG 1: Audiosignal \, das verarbeitet werden soll.
;
#X text 10 25 Echoeffekt, f 116;
#X text 18 207 AUSGANG 1: Gibt das mit Echoeffekt versehene Signal
aus.;
#X text 475 581 Das Modul hat einen Eingang für das Audiosignal. Über
die anderen Eingänge können die Regler mit Midibefehlen gesteuert
werden. Der Ausgang gibt das bearbeitete Audiosignal aus.;
#X obj 445 64 tapedelay;
#X text 475 485 [tapedelay] funktioniert ähnlich wie frühe Delayeffekte
aus der Mitte des 20 Jahrhunderts. Hier Aufnahmen auf Magnetbändern
gemacht und die Leseköpfe dann leicht verschoben \, um einen Echoeffekt
zu erzeugen. Dabei konnte auch die Abspielgeschwindigkeit des Bands
verändert werden \, um weitere Effekte zu erzeugen.;
#X text 20 95 EINGANG 2: Steuert den Regler 'Tape-Speed' (in Mididaten
\, z.B. von [modu] \, [modurand] \, [control] \, etc.);
#X text 19 133 EINGANG 3: Steuert den Schalter 'Rec' (0=aus \, 1=an
\, bzw. bang für an/aus \, z.B. [taste] \, [banger] \, etc.);
#X text 475 334 [tapedelay] ist ein Echoeffekt. Es werden in drei Delaylines
Wiederholungen des eingehenden Signals erzeugt. Diese Wiederholungen
werden jeweils nach der unter 'Position' eingestellten Verzögerungszeit
abgespielt. Der Regler 'Feedback' regelt die Anzahl der abgespielten
Wiederholungen. 'Volume' bestimmt die Lautstärke des jeweiligen Echos.
Mit 'Tape-Speed' wird die Lesegeschwindigkeit der Delaylines geregelt.
Wird der Schalter 'Rec' deaktiviert \, so wird kein Signal in die Delaylines
geschrieben.;
