#N canvas 522 89 801 371 10;
#X obj -1 -2 cnv 15 800 45 empty \$0-pddp.cnv.header tor 3 12 0 18
-204280 -1 0;
#X obj 17 153 cnv 3 363 5 empty \$0-pddp.cnv.inlets empty 8 12 0 13
-228856 -1 0;
#X text 18 63 EINGANG 1: Audiosignal \, das verarbeitet werden soll
;
#X obj 546 63 tor 1;
#X text 10 25 lässt nur Signale über einer gewissen Lautstärke passieren
(gate), f 116;
#X text 412 189 [tor] lässt nur Signal über einer bestimmten Lautstärke
durch (Gate).;
#X text 18 97 EINGANG 2: Steuert den Threshold (die Schwelle) (in Mididaten
\, z.B. von [modu] \, [modurand] \, [control] \, etc.);
#X text 18 177 AUSGANG 1: Gibt das eingegangene Signal aus \, wenn
es über der eingestellten Lautstärke liegt.;
#X text 412 224 Die Lautstaerkeschwelle (Threshold) \, über der das
Signal liegen muss \, um durchgelassen zu werden \, wird über den
Regler eingestellt.;
#X text 412 279 [tor] kann zum Beispiel dazu dienen \, Feedback zu
vermeiden \, wenn ein Mikrofon zusammen mit Lautsprechern auf einer
hohen Lautstärke verwendet werden. [tor] sorgt in diesem Fall dafür
\, dass das Mikro nur geoeffnet wird \, wenn das eigehende Signal eine
gewisse Lautstärke hat (z.B. wenn man direkt ins Mikrofon singt).
;
