#N canvas 0 12 1423 814 10;
#X obj 101 103 cnv 15 88 70 empty empty velocity 1 7 0 12 -199729 -1
0;
#X obj 170 4 loadbang;
#X obj -115 388 outlet;
#X obj 64 361 r toolssavebank;
#X obj 274 278 r toolssavebang;
#X obj 438 462 f;
#X obj 348 570 s toolssavelists;
#X obj 303 382 f;
#X obj 66 479 route;
#X obj 424 223 loadbang;
#X obj 425 279 \$1;
#X obj 424 251 del 5;
#X obj 303 341 del;
#X obj -110 311 line;
#X obj -112 280 pack 0 0;
#X obj 104 122 hsl 50 15 0.0127 127 1 0 \$0dur \$0dur_r Übergang 3
6 0 10 -262144 -260097 -1 2666 1;
#X obj 115 -14 inlet;
#X obj -14 146 * 7.87401;
#X msg 175 31 1.905;
#X obj 104 137 nbx 5 14 -1e+037 1e+037 0 0 \$0show_s \$0show empty
0 -8 0 10 -262144 -1 -1 15.0081 256 0;
#X obj -8 184 s \$0show;
#X obj 59 566 s \$0dur_r;
#X obj 453 422 r \$0dur;
#X msg -156 10 \$2;
#X obj -156 -21 inlet;
#X obj -156 43 moses 1e-006;
#X obj -138 207 abs;
#X obj 166 106 vsl 15 45 0 127 0 0 \$0direction \$0direction_r empty
0 -9 0 10 -262144 -260097 -1 4400 1;
#X obj 140 156 nbx 4 14 -1e+037 1e+037 0 0 \$0showska_s \$0showska
empty 0 -8 0 10 -262144 -1 -1 1 256 0;
#X obj -9 -20 r \$0direction;
#X obj -108 130 *;
#X msg 293 72 127;
#X obj -15 3 - 63.5;
#X obj -171 85 < 0;
#X obj -173 112 sel 0 1;
#X obj -136 179 - 127;
#X msg -164 142 127;
#X msg -196 159 0;
#X obj -71 110 abs;
#X obj -89 174 s \$0showska;
#X obj 299 431 t b f b b;
#X obj 504 468 f;
#X obj 525 429 r \$0direction;
#X obj 348 527 pack s f f f;
#X obj 66 449 route velocity;
#X obj 295 480 symbol velocity;
#X obj 62 521 unpack f f;
#X obj 105 604 s \$0direction_r;
#X obj 333 318 clip 1 89;
#X obj -19 26 / 63.5;
#X obj -23 45 * 1;
#X obj 281 -1 inlet;
#X connect 1 0 18 0;
#X connect 1 0 31 0;
#X connect 3 0 44 0;
#X connect 4 0 12 0;
#X connect 5 0 43 2;
#X connect 7 0 40 0;
#X connect 8 0 46 0;
#X connect 9 0 11 0;
#X connect 10 0 7 1;
#X connect 10 0 8 1;
#X connect 10 0 48 0;
#X connect 11 0 10 0;
#X connect 12 0 7 0;
#X connect 13 0 2 0;
#X connect 14 0 13 0;
#X connect 15 0 17 0;
#X connect 16 0 15 0;
#X connect 17 0 14 1;
#X connect 17 0 20 0;
#X connect 18 0 15 0;
#X connect 22 0 5 1;
#X connect 23 0 25 0;
#X connect 24 0 23 0;
#X connect 25 1 30 0;
#X connect 26 0 14 0;
#X connect 29 0 32 0;
#X connect 30 0 35 0;
#X connect 31 0 27 0;
#X connect 32 0 49 0;
#X connect 33 0 34 0;
#X connect 34 0 37 0;
#X connect 34 1 36 0;
#X connect 35 0 26 0;
#X connect 36 0 35 1;
#X connect 37 0 35 1;
#X connect 38 0 30 1;
#X connect 40 0 45 0;
#X connect 40 1 43 1;
#X connect 40 2 5 0;
#X connect 40 3 41 0;
#X connect 41 0 43 3;
#X connect 42 0 41 1;
#X connect 43 0 6 0;
#X connect 44 0 8 0;
#X connect 45 0 43 0;
#X connect 46 0 21 0;
#X connect 46 1 47 0;
#X connect 48 0 12 1;
#X connect 49 0 50 0;
#X connect 50 0 33 0;
#X connect 50 0 38 0;
#X connect 50 0 39 0;
#X connect 51 0 27 0;
#X coords 0 -1 1 1 90 76 1 100 100;
