#N canvas 169 37 799 660 10;
#X obj -2 0 cnv 15 800 45 empty \$0-pddp.cnv.header vocodo 3 12 0 18
-204280 -1 0;
#X obj 20 490 cnv 3 363 5 empty \$0-pddp.cnv.inlets empty 8 12 0 13
-228856 -1 0;
#X text 21 513 AUSGANG 1: Gibt die erzeugte Schwingung als Audiosignal
aus.;
#X text 10 25 ein Vocoder, f 116;
#X obj 513 62 vocodo;
#X text 424 571 An den ersten Eingang wird das Audiosignal \, das verarbeitet
werden soll (häufig eine Stimme) angeschlossen. An den zweiten Eingang
wird ein Modul wie [midiinput] \, [sequenzer] oder [loopmidi] angeschlossen
\, das Steuerdaten sendet. Über die restlichen Eingänge können mit
Midibefehlen die Regler und Schalter gesteuert werden.;
#X text 426 316 [vocodo] ist ein Vocodermodul.;
#X text 426 341 Es nimmt ein Audiosignal \, typischerweise eine Stimme
\, und überträgt sein Klangverhalten (Lautstärkebewegungen der einzelnen
Obertöne) auf die Klänge eines Synthesizers. Oft werden mit einem
Vocoder roboterähnliche Stimmen erzeugt.;
#X text 426 414 Der Vocoder wird dabei wie ein Sythesizer über eine
Klaviatur an Eingang 2 gespielt \, während an Eingang 1 ein Audiosignal
die Lautstärkeinformationen liefert.;
#X text 425 474 Die drei oberen Regler 'Square' \, 'saw' und 'Noise'
verändern den Klang. 'Attack' \, 'Sustain' und 'Release/Decay' steuern
die Lautstärkehüllkurve des Klangs. Ist 'hold' aktiviert \, so verhält
sich der Vocoder \, als würden durchgehend Tasten gehalten. Dabei
sind immer die 4 Tasten aktiv \, die zuletzt gedrückt wurden.;
#X text 18 60 EINGANG 1: Das Audiosignal \, das den Vocoder in seinem
Klangverhalten steuern soll (z.B. von [input] \, [sampler] \, [looper]
\, etc.).;
#X text 18 175 EINGANG 3: Steuert den Regler 'Square' (in Mididaten
\, z.B. von [modu] \, [modurand] \, [control] \, etc.);
#X text 18 210 EINGANG 4: Steuert den Regler 'Saw' (in Mididaten \,
z.B. von [modu] \, [modurand] \, [control] \, etc.);
#X text 18 245 EINGANG 5: Steuert den Regler 'Noise' (in Mididaten
\, z.B. von [modu] \, [modurand] \, [control] \, etc.);
#X text 20 298 EINGANG 6: Steuert den Regler 'Attack' (in Mididaten
\, z.B. von [modu] \, [modurand] \, [control] \, etc.);
#X text 20 332 EINGANG 7: Steuert den Regler 'Sustain' (in Mididaten
\, z.B. von [modu] \, [modurand] \, [control] \, etc.);
#X text 21 367 EINGANG 8: Steuert den Regler 'Release/Decay' (in Mididaten
\, z.B. von [modu] \, [modurand] \, [control] \, etc.);
#X text 20 428 EINGANG 9: Steuert den Schalter 'hold' (0=aus \, 1=an
\, bzw. bang für an/aus \, z.B. [taste] \, [banger] \, etc.).;
#X text 18 124 EINGANG 2: Noteninformationen (Tonhöhe in Hz und Velocity)
(z.B. von [midiinput] \, [sequenzer] \, etc.);
