#N canvas 17 62 1423 838 10;
#X obj 96 87 cnv 15 110 71 empty empty wait 6 10 0 16 -66577 -260097
0;
#X obj 101 136 nbx 6 16 -1e+037 1e+037 0 0 \$0wait_s_s \$0wait_s ms
67 8 0 10 -262144 -1 -262144 17684.2 256 0;
#X obj 100 111 hsl 96 20 0 127 0 0 \$0wait \$0wait_r time 33 9 0 10
-228856 -260097 -1 2800 1;
#X obj 229 15 inlet;
#X obj 229 40 clip 0 127;
#X obj -149 306 inlet;
#X obj -130 423 del;
#X obj -147 335 route stop;
#X obj -40 437 unpack;
#X obj -40 462 pipe;
#X obj -7 473 pipe;
#X obj -42 500 pack;
#X obj 115 319 r \$0wait;
#X obj 114 365 * 472.441;
#X obj 121 406 s \$0wait_s;
#X obj -115 596 outlet;
#X msg 3 593 stop 0;
#X obj 5 533 bng 15 250 50 0 empty empty empty 17 7 0 10 -262144 -1
-1;
#X obj 763 405 r toolssavebank;
#X obj 867 271 r toolssavebang;
#X obj 1031 455 f;
#X obj 941 563 s toolssavelists;
#X obj 896 375 f;
#X obj 766 470 route;
#X obj 1017 216 loadbang;
#X obj 1018 272 \$1;
#X obj 1017 244 del 5;
#X obj 896 334 del;
#X obj 957 314 clip 1 99;
#X obj 766 440 route wait;
#X obj 888 475 symbol wait;
#X obj 942 520 pack s f f;
#X obj 894 424 t b f b;
#X obj 763 566 s \$0wait_r;
#X obj 1046 415 r \$0wait;
#X obj 3 558 del;
#X obj -130 384 select bang;
#X connect 3 0 4 0;
#X connect 4 0 2 0;
#X connect 5 0 7 0;
#X connect 6 0 15 0;
#X connect 7 0 17 0;
#X connect 7 1 36 0;
#X connect 8 0 9 0;
#X connect 8 1 10 0;
#X connect 9 0 11 0;
#X connect 10 0 11 1;
#X connect 11 0 15 0;
#X connect 12 0 13 0;
#X connect 13 0 14 0;
#X connect 13 0 10 1;
#X connect 13 0 9 1;
#X connect 13 0 6 1;
#X connect 13 0 35 1;
#X connect 16 0 15 0;
#X connect 17 0 35 0;
#X connect 18 0 29 0;
#X connect 19 0 27 0;
#X connect 20 0 31 2;
#X connect 22 0 32 0;
#X connect 23 0 33 0;
#X connect 24 0 26 0;
#X connect 25 0 22 1;
#X connect 25 0 23 1;
#X connect 25 0 28 0;
#X connect 26 0 25 0;
#X connect 27 0 22 0;
#X connect 28 0 27 1;
#X connect 29 0 23 0;
#X connect 30 0 31 0;
#X connect 31 0 21 0;
#X connect 32 0 30 0;
#X connect 32 1 31 1;
#X connect 32 2 20 0;
#X connect 34 0 20 1;
#X connect 35 0 16 0;
#X connect 36 0 6 0;
#X connect 36 1 8 0;
#X coords 0 -1 1 1 111 75 1 95 85;
