#N canvas 146 41 802 307 10;
#X obj 0 -1 cnv 15 800 45 empty \$0-pddp.cnv.header zerre 3 12 0 18
-204280 -1 0;
#X obj 15 211 cnv 3 363 5 empty \$0-pddp.cnv.inlets empty 8 12 0 13
-228856 -1 0;
#X text 11 27 Klassische Verzerrung., f 116;
#X text 15 66 EINGANG 1: Das Modul hat einen Eingang für das Audiosignal.
;
#X text 15 233 AUSGANG 1: Der Ausgang gibt das bearbeitete Audiosignal
aus.;
#X obj 542 54 zerre;
#X text 419 183 [zerre] ist ein Effekt \, mit dem das eingehende Audiosignal
durch Verzerrung verändert wird. Alternativ zur klassischen Verzerrung
siehe auch die Module [down] und [crush].;
#X text 15 98 EINGANG 2: Über den zweiten Eingang kann der Regler
'distortion' gesteuert werden (in Mididaten \, z.B. von [modu] \, [modurand]
\, [control] \, etc.).;
#X text 15 157 EINGANG 3: Über den zweiten Eingang kann der Regler
'input' gesteuert werden (in Mididaten \, z.B. von [modu] \, [modurand]
\, [control] \, etc.).;
#X text 420 236 Der Regler 'distortion' bestimmt die Intensität der
Verzerrung. Mit 'input' wird die Lautstärke am Eingang geregelt. Beide
Regler haben Einfluss auf den Sound der Verzerrung.;
