#N canvas 325 263 878 476 10;
#N canvas 159 124 1280 751 shape 0;
#X obj 116 103 clip~ -1 1;
#X obj 189 25 * -1;
#X floatatom 241 87 7 0 0 0 - - -, f 7;
#X obj 117 264 /~;
#X obj 112 -9 inlet~;
#X floatatom 189 46 7 0 0 0 - - -, f 7;
#X obj 119 596 outlet~;
#N canvas 590 139 404 272 Waveshapecontrols 0;
#X obj 44 70 / 127;
#X floatatom 44 92 5 0 0 0 - - -, f 5;
#X obj 44 213 outlet;
#X obj 44 27 - 127;
#X obj 44 47 abs;
#X floatatom 44 136 5 0 0 0 - - -, f 5;
#X obj 43 115 + 0.189207;
#X obj 44 157 pow 4;
#X obj 44 183 + 0.025;
#X text 140 89 Die Controllerwerte für das Clipping;
#X text 140 103 werden skaliert und begrenzt.;
#X obj 103 30 / 127;
#X obj 44 6 r \$0waveclipctl;
#X obj 103 53 s \$0waveclipshow;
#X connect 0 0 1 0;
#X connect 1 0 6 0;
#X connect 3 0 4 0;
#X connect 4 0 0 0;
#X connect 5 0 7 0;
#X connect 6 0 5 0;
#X connect 7 0 8 0;
#X connect 8 0 2 0;
#X connect 11 0 13 0;
#X connect 12 0 3 0;
#X connect 12 0 11 0;
#X restore 241 8 pd Waveshapecontrols;
#X obj 396 -7 block~ 1024 1 8;
#X obj 118 453 *~ 0.125;
#X obj 118 476 rzero~ -1;
#X obj 118 499 rzero~ -1;
#X obj 118 522 rzero~ -1;
#X obj 117 396 cpole~ 0.852238 -0.201949;
#X obj 117 422 cpole~ 0.852238 0.201949;
#X obj 117 350 rpole~ 0.763198;
#X obj 117 373 *~ 0.062617;
#X obj 117 327 *~ 0.236802;
#X text 386 200 WAVESHAPING;
#X text 386 231 Mithilfe des Clip-Objektes wird das eingehende Signal
in seiner Amplitude oben und unten begrenzt. Die dadurch erzeugte 'Eckigkeit'
des Signals führt im Frequenzbereich zu neuen Obertönen.;
#X text 386 299 Da diese Obertöne bei starkem Clipping sehr hohe Frequenzen
erreichen können und somit die Gefahr von starkem Aliasing gegeben
ist \, wird hier Upsampling mit einem Faktor von 8 und bei 16000 Hz
ein Tiefpassfilter angewendet. Dadurch werden die Aliasingartefakte
stark reduziert.;
#X text 150 309 Anti-Aliasing-Filter;
#X text 495 -8 Upsampling;
#X text 88 56 Waveshaping;
#X text 289 86 obere Begrenzung;
#X text 238 45 untere Begrenzung;
#X text 208 209 Anpassung der Laustärke;
#X text 208 222 des geclippten Signals.;
#X obj 131 231 line~;
#X msg 131 209 \$1 5;
#X obj 131 190 clip 0.05 1;
#X obj 131 170 + 0.05;
#X obj 355 117 s \$0showclipvalue;
#X floatatom 180 249 5 0 0 0 - - -, f 5;
#X connect 0 0 3 0;
#X connect 1 0 5 0;
#X connect 2 0 0 2;
#X connect 2 0 31 0;
#X connect 2 0 32 0;
#X connect 3 0 17 0;
#X connect 4 0 0 0;
#X connect 5 0 0 1;
#X connect 7 0 1 0;
#X connect 7 0 2 0;
#X connect 9 0 10 0;
#X connect 10 0 11 0;
#X connect 11 0 12 0;
#X connect 12 0 6 0;
#X connect 13 0 14 0;
#X connect 13 1 14 1;
#X connect 14 0 9 0;
#X connect 15 0 16 0;
#X connect 16 0 13 0;
#X connect 17 0 15 0;
#X connect 28 0 3 1;
#X connect 29 0 28 0;
#X connect 29 0 33 0;
#X connect 30 0 29 0;
#X connect 31 0 30 0;
#X restore 222 122 pd shape;
#X obj 221 19 inlet~;
#X obj 224 186 outlet~;
#X obj 101 102 cnv 15 100 112 empty empty zerre 4 6 0 14 -233017 -1
0;
#X obj 105 127 vsl 20 50 0 127 0 0 \$0waveclipctl \$0waveclipctl_r
empty 0 -9 0 10 -99865 -260097 -1 0 1;
#X obj 105 183 nbx 4 16 -1e+037 1e+037 0 0 \$0waveclipshow_s \$0waveclipshow
distortion 0 21 0 10 -262144 -1 -1 0 256 0;
#X obj 375 81 s \$0waveclipctl_r;
#X obj 369 31 loadbang;
#X msg 369 53 0;
#X obj 314 213 r toolssavebank;
#X obj 525 77 r toolssavebang;
#X obj 689 261 f;
#X obj 599 369 s toolssavelists;
#X obj 554 181 f;
#X obj 317 278 route;
#X obj 675 22 loadbang;
#X obj 676 78 \$1;
#X obj 675 50 del 5;
#X obj 554 140 del;
#X obj 552 230 t b f b b;
#X obj 317 248 route zerre;
#X obj 546 281 symbol zerre;
#X obj 314 374 s \$0waveclipctl_r;
#X obj 704 221 r \$0waveclipctl;
#X obj 458 -5 inlet;
#X obj 227 160 *~ 5;
#X obj 232 67 *~;
#X obj 171 141 vsl 20 50 0 127 0 0 \$0vol \$0vol_r input -9 -23 0 10
-99865 -260097 -1 0 1;
#X obj 149 127 nbx 4 16 -1e+037 1e+037 0 0 \$0volshow_s \$0volshow
empty 0 -8 0 10 -262144 -1 -1 1 256 0;
#X obj 308 12 r \$0vol;
#X obj 305 42 / 127;
#X obj 295 140 line~;
#X msg 300 110 \$1 25;
#X obj 299 85 + 1;
#X obj 436 59 s \$0vol_r;
#X obj 585 117 clip 1 69;
#X obj 360 158 s \$0volshow;
#X obj 755 275 f;
#X obj 753 246 r \$0vol;
#X obj 599 326 pack s f f f;
#X obj 312 323 unpack f f;
#X obj 397 331 s \$0vol_r;
#X obj 304 65 * 59;
#X obj 514 -3 inlet;
#X obj 449 20 clip 0 127;
#X obj 520 21 clip 0 127;
#X connect 0 0 25 0;
#X connect 1 0 26 0;
#X connect 7 0 8 0;
#X connect 8 0 6 0;
#X connect 8 0 34 0;
#X connect 9 0 20 0;
#X connect 10 0 18 0;
#X connect 11 0 39 2;
#X connect 13 0 19 0;
#X connect 14 0 40 0;
#X connect 15 0 17 0;
#X connect 16 0 13 1;
#X connect 16 0 14 1;
#X connect 16 0 35 0;
#X connect 17 0 16 0;
#X connect 18 0 13 0;
#X connect 19 0 21 0;
#X connect 19 1 39 1;
#X connect 19 2 11 0;
#X connect 19 3 37 0;
#X connect 20 0 14 0;
#X connect 21 0 39 0;
#X connect 23 0 11 1;
#X connect 24 0 44 0;
#X connect 25 0 2 0;
#X connect 26 0 0 0;
#X connect 29 0 30 0;
#X connect 30 0 42 0;
#X connect 31 0 26 1;
#X connect 32 0 31 0;
#X connect 33 0 32 0;
#X connect 33 0 36 0;
#X connect 35 0 18 1;
#X connect 37 0 39 3;
#X connect 38 0 37 1;
#X connect 39 0 12 0;
#X connect 40 0 22 0;
#X connect 40 1 41 0;
#X connect 42 0 33 0;
#X connect 43 0 45 0;
#X connect 44 0 4 0;
#X connect 45 0 27 0;
#X coords 0 -1 1 1 102 116 1 100 100;
