#N canvas 0 55 1366 690 10;
#X obj 226 71 cnv 15 495 199 empty empty ardraw 6 187 0 15 -33289 -262144
0;
#X obj 261 82 cnv 15 400 140 empty empty empty 100 12 0 14 -233017
-66577 0;
#N canvas 0 0 450 300 (subpatch) 0;
#X array \$0array 1000 float 22 black black;
#X coords 0 127 1000 0 400 140 1;
#X restore 261 82 graph;
#X obj 1018 611 tabwrite \$0array;
#X obj 805 173 f;
#X obj 840 172 + 1;
#X obj 805 141 until;
#X msg 806 113 1001;
#X obj 842 249 * 6.28319;
#X floatatom 842 269 0 0 0 0 - - -;
#X obj 841 292 cos;
#X obj 806 199 t f f;
#X obj 840 223 / 2000;
#X obj 1071 40 bng 15 250 50 0 empty empty fall 17 6 0 10 -191407 -260097
-262144;
#X obj 1325 182 f;
#X obj 1360 181 + 1;
#X obj 1325 150 until;
#X msg 1326 122 1001;
#X obj 1362 258 * 6.28319;
#X floatatom 1362 278 0 0 0 0 - - -;
#X obj 1326 208 t f f;
#X obj 1360 232 / 2000;
#X obj 1361 301 sin;
#X obj 759 261 sel 1000;
#X msg 760 283 0;
#X obj 827 346 + 1;
#X obj 803 389 * 63.5;
#X obj 1356 357 + 0;
#X obj 1332 399 * 127;
#X obj 1512 190 f;
#X obj 1547 189 + 1;
#X obj 1512 158 until;
#X msg 1513 130 1001;
#X obj 1549 266 * 6.28319;
#X floatatom 1549 286 0 0 0 0 - - -;
#X obj 1487 245 t f f;
#X obj 1547 240 / 2000;
#X obj 1548 309 sin;
#X obj 1543 365 + 0;
#X obj 1519 407 * 127;
#X obj 1450 450 * -1;
#X obj 1428 530 + 127;
#X obj 1116 151 f;
#X obj 1151 150 + 1;
#X obj 1116 119 until;
#X msg 1117 91 1001;
#X obj 1153 227 * 6.28319;
#X floatatom 1153 247 0 0 0 0 - - -;
#X obj 1152 270 cos;
#X obj 1117 177 t f f;
#X obj 1151 201 / 2000;
#X obj 1138 324 + 1;
#X obj 1127 360 * 63.5;
#X obj 1112 411 * -1;
#X obj 1107 442 + 127;
#X obj 152 588 line;
#X obj 146 556 pack f f;
#X floatatom 229 491 5 0 0 0 - - -, f 5;
#X obj 150 622 tabread4 \$0array;
#X obj 153 693 spigot;
#X obj 32 666 t b b b;
#X msg 91 703 0;
#X msg 19 703 1;
#X msg 57 690 0;
#X obj 248 449 * 157.48;
#X obj 295 228 hsl 130 20 0.01 127 1 0 \$0att \$0att_r attack 39 9
0 13 -191407 -260097 -262144 9757 1;
#X obj 328 249 nbx 6 14 -1e+37 1e+37 0 0 \$0attshow_s \$0attshow empty
0 21 0 10 -99865 -260097 -262144 2000.62 256 0;
#X obj 229 75 bng 27 250 50 0 \$0centermiddle \$0centermiddle_r go
8 13 0 10 -191407 -260097 -1;
#X obj -10 -207 inlet;
#X obj -13 -123 bng 15 250 50 0 empty empty empty 17 7 0 10 -262144
-1 -1;
#X obj 466 70 cnv 1 1 180 empty empty empty 20 12 0 14 -260097 -66577
0;
#X obj 500 226 hsl 130 20 0.01 127 1 0 \$0rel \$0rel_r release 39 9
0 13 -191407 -260097 -262144 9757 1;
#X obj 246 413 r \$0att;
#X obj 312 548 s \$0attshow;
#X msg 148 510 500;
#X obj 34 607 sel 500;
#X obj 143 770 pack f f;
#X obj 254 605 / 500;
#X msg 561 577 500;
#X obj 561 633 line;
#X obj 560 604 pack f f;
#X obj 711 525 * 157.48;
#X obj 709 489 r \$0rel;
#X obj 719 565 s \$0relshow;
#X obj 535 247 nbx 6 14 -1e+37 1e+37 0 0 \$0relshow_s \$0relshow empty
0 21 0 10 -99865 -260097 -262144 2000.62 256 0;
#X obj 562 672 + 500;
#X obj 564 743 spigot;
#X obj 460 675 t b b b;
#X msg 496 711 0;
#X msg 447 712 1;
#X msg 489 653 0;
#X obj 563 699 tabread \$0array;
#X obj 462 618 sel 1000;
#X obj 565 847 pack f f;
#X obj 702 644 / 500;
#X obj 1077 -36 bng 15 250 50 0 empty empty rise 18 5 0 10 -191407
-260097 -262144;
#X obj 676 76 bng 15 250 50 0 empty empty peak 17 6 0 10 -191407 -260097
-262144;
#X obj 1077 7 bng 15 250 50 0 empty empty valley 16 6 0 10 -191407
-260097 -262144;
#X obj 405 10 inlet;
#X obj 407 36 clip 0 127;
#X obj 567 -13 inlet;
#X obj 569 13 clip 0 127;
#X obj 755 1 loadbang;
#X obj 875 11 s \$0rel_r;
#X obj 864 47 s \$0att_r;
#X msg 754 29 12.7;
#X obj 1460 -236 r toolssavebank;
#X obj 1744 -27 s toolssavelists;
#X obj 1699 -215 f;
#X obj 1457 -165 route;
#X obj 1732 -390 loadbang;
#X obj 1827 -290 \$1, f 4;
#X obj 1820 -346 del 5;
#X obj 1699 -256 del;
#X obj 2280 -85 r \$0filename;
#X obj 1619 -12 s \$0filename_r;
#X obj 2098 -106 f;
#X obj 2253 -49 symbol;
#X obj 1588 -58 list2symbol;
#X obj 1653 8 s \$0filename;
#X obj 2176 -98 f;
#X obj 2212 -151 r \$0rel;
#X obj 1464 -11 s \$0att_r;
#X obj 1548 10 s \$0rel_r;
#X obj 1646 -333 r toolsdirectory;
#X obj 1647 -307 bng 15 250 50 0 empty empty empty 17 7 0 10 -262144
-1 -1;
#X obj 1738 -264 clip 1 88;
#X obj 2135 -139 r \$0att;
#X msg 87 157 127;
#X obj 192 279 del;
#X obj 43 -125 unpack f f;
#X obj 100 -87 moses 1;
#X obj 76 -54 sel 0;
#X obj 509 587 bng 15 250 50 0 empty empty empty 17 7 0 10 -262144
-1 -1;
#X obj 146 798 spigot;
#X msg 361 687 0;
#X msg 329 660 0;
#X obj -11 -159 route bang stop;
#X obj 154 725 *;
#X obj 565 768 / 127;
#X obj 564 801 *;
#X obj 329 801 f;
#X obj 24 278 t b b f;
#X obj 151 652 / 127;
#X msg 300 678 1;
#X obj 368 619 t b b b b;
#X obj 319 916 line~;
#X obj -28 919 outlet~;
#X obj 1692 -115 symbol ardraw;
#X obj 1460 -195 route ardraw;
#X obj -73 361 *~;
#X obj 42 854 /~ 127;
#X obj -62 -207 inlet~;
#X floatatom 239 755 5 0 0 0 - - -, f 5;
#X obj 446 766 t b b b;
#X obj 323 878 int;
#X obj 150 225 bng 15 250 50 0 empty empty empty 17 7 0 10 -262144
-1 -1;
#X obj 646 -583 r toolsdirectory;
#X obj 703 -507 \$1;
#X obj 704 -480 ftos;
#X obj 658 -436 pack s s;
#X obj 703 -532 loadbang;
#X obj 662 -374 t s b;
#X obj 692 -346 \$0;
#X msg 659 -272 \; \$2array write \$1;
#X obj 658 -316 pack s f;
#X obj 832 -371 s \$0filename;
#X obj 1049 -485 r \$0filename_r;
#X obj 1046 -435 t s b;
#X obj 1076 -407 \$0;
#X obj 1042 -377 pack s f;
#X msg 1039 -321 \; \$2array read \$1;
#X msg 688 -404 symbol \$1ardraw\$2env;
#X text 238 -554 Zurzeit MUSS in der Mitte ein Peak sein \, damit Übergabe
des Lautstärkewerts funktioniert \, wenn eine Taste vor Ende der Attackzeit
losgelassen wird. Diese Funktion könnte man ausschalten \, dann würde
die Kurve Originalgetreu abgespielt werden.;
#X obj 480 810 r \$0ar;
#X obj 413 886 spigot;
#X obj 412 838 sel 1 0;
#X msg 484 845 127;
#X obj 962 66 s \$0ar_r;
#X msg 945 34 1;
#X obj 697 239 tgl 15 0 \$0ar \$0ar_r a/r -2 20 0 10 -191407 -260097
-262144 1 1;
#X obj 1744 -69 pack s f f f f s;
#X obj 2218 -99 r \$0ar;
#X obj 2203 -63 f;
#X obj 1709 -186 t b f b b b b;
#X obj 1466 -77 unpack f f f;
#X obj 1459 -130 list split 3;
#X obj 1571 42 s \$0ar_r;
#X connect 4 0 5 0;
#X connect 4 0 11 0;
#X connect 5 0 4 1;
#X connect 6 0 4 0;
#X connect 7 0 6 0;
#X connect 8 0 9 0;
#X connect 9 0 10 0;
#X connect 10 0 25 0;
#X connect 11 0 3 1;
#X connect 11 0 23 0;
#X connect 11 1 12 0;
#X connect 12 0 8 0;
#X connect 13 0 7 0;
#X connect 14 0 15 0;
#X connect 14 0 20 0;
#X connect 15 0 14 1;
#X connect 16 0 14 0;
#X connect 17 0 16 0;
#X connect 18 0 19 0;
#X connect 19 0 22 0;
#X connect 20 0 3 1;
#X connect 20 0 23 0;
#X connect 20 1 21 0;
#X connect 21 0 18 0;
#X connect 22 0 27 0;
#X connect 23 0 24 0;
#X connect 24 0 4 1;
#X connect 24 0 15 0;
#X connect 24 0 29 1;
#X connect 24 0 42 1;
#X connect 25 0 26 0;
#X connect 26 0 3 0;
#X connect 27 0 28 0;
#X connect 28 0 3 0;
#X connect 29 0 30 0;
#X connect 29 0 35 0;
#X connect 30 0 29 1;
#X connect 31 0 29 0;
#X connect 32 0 31 0;
#X connect 33 0 34 0;
#X connect 34 0 37 0;
#X connect 35 0 3 1;
#X connect 35 0 23 0;
#X connect 35 1 36 0;
#X connect 36 0 33 0;
#X connect 37 0 38 0;
#X connect 38 0 39 0;
#X connect 39 0 40 0;
#X connect 40 0 41 0;
#X connect 41 0 3 0;
#X connect 42 0 43 0;
#X connect 42 0 49 0;
#X connect 43 0 42 1;
#X connect 44 0 42 0;
#X connect 45 0 44 0;
#X connect 46 0 47 0;
#X connect 47 0 48 0;
#X connect 48 0 51 0;
#X connect 49 0 23 0;
#X connect 49 0 3 1;
#X connect 49 1 50 0;
#X connect 50 0 46 0;
#X connect 51 0 52 0;
#X connect 52 0 53 0;
#X connect 53 0 54 0;
#X connect 54 0 3 0;
#X connect 55 0 58 0;
#X connect 55 0 75 0;
#X connect 56 0 55 0;
#X connect 57 0 73 0;
#X connect 57 0 56 1;
#X connect 57 0 77 0;
#X connect 57 0 129 1;
#X connect 58 0 143 0;
#X connect 59 0 138 0;
#X connect 60 0 62 0;
#X connect 60 1 63 0;
#X connect 60 2 61 0;
#X connect 61 0 59 1;
#X connect 62 0 59 1;
#X connect 63 0 55 0;
#X connect 64 0 57 0;
#X connect 67 0 128 0;
#X connect 68 0 137 0;
#X connect 69 0 67 0;
#X connect 72 0 64 0;
#X connect 74 0 56 0;
#X connect 75 0 60 0;
#X connect 76 0 134 0;
#X connect 77 0 76 1;
#X connect 78 0 80 0;
#X connect 78 0 133 0;
#X connect 79 0 85 0;
#X connect 80 0 79 0;
#X connect 81 0 80 1;
#X connect 81 0 83 0;
#X connect 81 0 94 0;
#X connect 82 0 81 0;
#X connect 85 0 92 0;
#X connect 85 0 91 0;
#X connect 86 0 139 0;
#X connect 87 0 89 0;
#X connect 87 1 90 0;
#X connect 87 2 88 0;
#X connect 88 0 86 1;
#X connect 89 0 86 1;
#X connect 89 0 134 1;
#X connect 90 0 79 0;
#X connect 91 0 86 0;
#X connect 92 0 87 0;
#X connect 93 0 155 0;
#X connect 94 0 93 1;
#X connect 95 0 45 0;
#X connect 96 0 17 0;
#X connect 97 0 32 0;
#X connect 98 0 99 0;
#X connect 99 0 65 0;
#X connect 100 0 101 0;
#X connect 101 0 71 0;
#X connect 102 0 105 0;
#X connect 102 0 179 0;
#X connect 105 0 103 0;
#X connect 105 0 104 0;
#X connect 106 0 149 0;
#X connect 108 0 184 0;
#X connect 109 0 186 0;
#X connect 110 0 112 0;
#X connect 111 0 108 1;
#X connect 111 0 109 1;
#X connect 111 0 126 0;
#X connect 112 0 111 0;
#X connect 113 0 108 0;
#X connect 114 0 117 1;
#X connect 116 0 181 2;
#X connect 117 0 181 5;
#X connect 118 0 115 0;
#X connect 118 0 119 0;
#X connect 120 0 181 3;
#X connect 121 0 120 1;
#X connect 124 0 125 0;
#X connect 125 0 113 0;
#X connect 126 0 113 1;
#X connect 127 0 116 1;
#X connect 128 0 142 0;
#X connect 128 0 156 0;
#X connect 129 0 78 0;
#X connect 130 1 131 0;
#X connect 131 0 132 0;
#X connect 131 1 142 0;
#X connect 132 0 78 0;
#X connect 133 0 145 0;
#X connect 134 0 155 0;
#X connect 135 0 59 1;
#X connect 136 0 55 0;
#X connect 137 0 69 0;
#X connect 137 2 130 0;
#X connect 138 0 141 1;
#X connect 138 0 76 0;
#X connect 138 0 153 0;
#X connect 139 0 140 0;
#X connect 140 0 93 0;
#X connect 141 0 175 0;
#X connect 142 0 74 0;
#X connect 142 1 88 0;
#X connect 142 1 62 0;
#X connect 142 1 154 0;
#X connect 142 2 138 1;
#X connect 143 0 59 0;
#X connect 144 0 59 1;
#X connect 145 0 144 0;
#X connect 145 1 141 0;
#X connect 145 2 136 0;
#X connect 145 3 89 0;
#X connect 145 3 135 0;
#X connect 146 0 151 0;
#X connect 148 0 181 0;
#X connect 149 0 109 0;
#X connect 150 0 147 0;
#X connect 151 0 150 1;
#X connect 152 0 150 0;
#X connect 154 1 90 0;
#X connect 154 2 88 0;
#X connect 155 0 146 0;
#X connect 156 0 129 0;
#X connect 157 0 160 0;
#X connect 158 0 159 0;
#X connect 159 0 160 1;
#X connect 160 0 172 0;
#X connect 161 0 158 0;
#X connect 162 0 165 0;
#X connect 162 1 163 0;
#X connect 163 0 165 1;
#X connect 165 0 164 0;
#X connect 167 0 168 0;
#X connect 168 0 170 0;
#X connect 168 1 169 0;
#X connect 169 0 170 1;
#X connect 170 0 171 0;
#X connect 172 0 162 0;
#X connect 172 0 166 0;
#X connect 174 0 175 1;
#X connect 174 0 176 0;
#X connect 175 0 140 1;
#X connect 176 1 177 0;
#X connect 177 0 140 1;
#X connect 179 0 178 0;
#X connect 181 0 107 0;
#X connect 182 0 183 1;
#X connect 183 0 181 4;
#X connect 184 0 148 0;
#X connect 184 1 181 1;
#X connect 184 2 116 0;
#X connect 184 3 120 0;
#X connect 184 4 183 0;
#X connect 184 5 117 0;
#X connect 185 0 122 0;
#X connect 185 1 123 0;
#X connect 185 2 187 0;
#X connect 186 0 185 0;
#X connect 186 1 118 0;
#X coords 0 -1 1 1 497 203 1 225 69;
