#N canvas 18 7 704 798 10;
#X obj 101 102 cnv 15 100 52 empty empty block 4 6 0 16 -199729 -1
0;
#X obj 297 41 loadbang;
#X obj -430 -107 inlet;
#X obj -392 314 outlet;
#X obj 857 401 r toolssavebank;
#X obj 1067 318 r toolssavebang;
#X obj 1231 502 f;
#X obj 1141 610 s toolssavelists;
#X obj 1096 422 f;
#X obj 859 519 route;
#X obj 1217 263 loadbang;
#X obj 1218 319 \$1;
#X obj 1217 291 del 5;
#X obj 1096 381 del;
#X obj 1092 471 t b f b;
#X obj 1141 567 pack s f f;
#X obj 189 67 inlet;
#X obj -392 237 spigot;
#X obj -391 33 t l b;
#X obj -330 69 random 1001;
#X obj -330 125 < 500;
#X obj 110 121 hsl 80 15 0 127 0 0 \$0prob \$0prob_r empty -2 -8 0
10 -262144 -260097 -1 7900 1;
#X obj -230 77 * 7.87402;
#X obj -213 125 / 10;
#X msg 297 70 63.5;
#X obj 297 105 s \$0prob_r;
#X obj -217 160 s \$0showprob;
#X obj 142 136 nbx 5 14 -1e+037 1e+037 0 0 \$0showprob_s \$0showprob
empty 0 -8 0 10 -262144 -1 -1 100 256 0;
#X obj -430 -84 zl rev;
#X obj -391 -29 zl rev;
#X obj 859 489 route block;
#X obj 852 606 s \$0prob_r;
#X obj 1088 520 symbol block;
#X obj 1202 452 r \$0prob;
#X obj 8 -89 route stop;
#X obj 3 -54 bng 15 250 50 0 empty empty empty 17 7 0 10 -262144 -1
-1;
#X msg -74 56 stop 0;
#X msg -430 60 \$1 0;
#X obj -281 -42 bng 15 250 50 0 empty empty empty 17 7 0 10 -262144
-1 -1;
#X obj -430 -58 route 0;
#X obj -278 -68 route bang;
#X obj -297 16 t b b;
#X connect 1 0 24 0;
#X connect 2 0 28 0;
#X connect 2 0 34 0;
#X connect 2 0 40 0;
#X connect 4 0 30 0;
#X connect 5 0 13 0;
#X connect 6 0 15 2;
#X connect 8 0 14 0;
#X connect 9 0 31 0;
#X connect 10 0 12 0;
#X connect 11 0 8 1;
#X connect 11 0 9 1;
#X connect 11 0 13 1;
#X connect 12 0 11 0;
#X connect 13 0 8 0;
#X connect 14 0 32 0;
#X connect 14 1 15 1;
#X connect 14 2 6 0;
#X connect 15 0 7 0;
#X connect 16 0 21 0;
#X connect 17 0 3 0;
#X connect 18 0 17 0;
#X connect 18 1 19 0;
#X connect 19 0 20 0;
#X connect 20 0 17 1;
#X connect 21 0 22 0;
#X connect 22 0 23 0;
#X connect 22 0 20 1;
#X connect 23 0 26 0;
#X connect 24 0 25 0;
#X connect 28 0 39 0;
#X connect 29 0 18 0;
#X connect 30 0 9 0;
#X connect 32 0 15 0;
#X connect 33 0 6 1;
#X connect 34 0 35 0;
#X connect 35 0 36 0;
#X connect 36 0 3 0;
#X connect 37 0 3 0;
#X connect 38 0 41 0;
#X connect 39 0 37 0;
#X connect 39 1 29 0;
#X connect 40 0 38 0;
#X connect 41 0 17 0;
#X connect 41 1 19 0;
#X coords 0 -1 1 1 102 56 1 100 100;
