#N canvas 0 20 1423 798 10;
#X obj -384 227 outlet~;
#X obj -384 93 *~;
#X obj -384 201 *~;
#N canvas 0 22 450 300 delWrite 0;
#X obj 68 80 delwrite~ \$0-comp 500;
#X obj 68 39 inlet~;
#X obj 68 156 outlet~;
#X connect 1 0 0 0;
#X restore -551 -124 pd delWrite;
#X obj -155 -20 dbtorms;
#X obj -103 -49 /;
#X obj -103 -80 swap 1;
#X obj -50 -73 /;
#X obj -50 -95 swap 1000;
#X obj -369 53 lop~;
#X obj -369 -2 clip~ 0 1;
#X obj -155 2 s \$0-thresh;
#X obj -103 -27 s \$0-ratio;
#X obj -369 176 line~;
#X obj -369 155 pack f 5;
#X obj -369 131 r \$0-gain;
#X obj 2 -116 s \$0-gain;
#N canvas 0 22 872 621 rms 0;
#X obj 257 107 env~ 512;
#X obj 257 245 -~;
#X obj 257 293 *~;
#X obj 257 345 +~;
#X obj 257 385 /~;
#X obj 378 221 +~ 0;
#X obj 272 220 r \$0-thresh;
#X obj 272 318 r \$0-thresh;
#X obj 272 269 r \$0-ratio;
#X obj 257 34 inlet~;
#X obj 257 407 outlet~;
#X obj 373 37 inlet;
#X obj 373 59 switch~;
#X obj 257 135 dbtorms~;
#X text 221 74 Input;
#X text 231 136 RMS;
#X text 424 59 turn DSP on/off for this sub-patch;
#X connect 0 0 13 0;
#X connect 1 0 2 0;
#X connect 2 0 3 0;
#X connect 3 0 4 0;
#X connect 4 0 10 0;
#X connect 5 0 4 1;
#X connect 6 0 1 1;
#X connect 7 0 3 1;
#X connect 8 0 2 1;
#X connect 9 0 0 0;
#X connect 11 0 12 0;
#X connect 13 0 1 0;
#X connect 13 0 5 0;
#X restore -369 -125 pd rms;
#N canvas 0 22 859 606 peak 0;
#X obj 244 134 abs~;
#X obj 244 243 -~;
#X obj 244 291 *~;
#X obj 244 343 +~;
#X obj 244 383 /~;
#X obj 365 219 +~ 0;
#X obj 259 218 r \$0-thresh;
#X obj 259 316 r \$0-thresh;
#X obj 259 267 r \$0-ratio;
#X obj 244 49 inlet~;
#X obj 244 405 outlet~;
#X obj 470 125 inlet;
#X obj 470 147 switch~;
#X text 206 99 Input;
#X text 208 135 Peak;
#X text 521 148 turn DSP on/off for this sub-patch;
#X connect 0 0 1 0;
#X connect 0 0 5 0;
#X connect 1 0 2 0;
#X connect 2 0 3 0;
#X connect 3 0 4 0;
#X connect 4 0 10 0;
#X connect 5 0 4 1;
#X connect 6 0 1 1;
#X connect 7 0 3 1;
#X connect 8 0 2 1;
#X connect 9 0 0 0;
#X connect 11 0 12 0;
#X restore -321 -125 pd peak;
#X obj -336 -183 == 0;
#X obj -336 -228 t f f;
#X obj -551 -381 inlet~;
#X obj -336 -252 r \$0-rmspeak;
#X obj 55 -142 s \$0-rmspeak;
#X obj 107 -166 s \$0-lookahead;
#X obj -494 -72 r \$0-lookahead;
#X obj -155 -190 route threshold ratio response gain rmspeak lookahead
;
#X obj -155 -378 inlet control;
#X obj -155 -243 t a a;
#X obj -128 -215 s \$0-dump;
#X obj -155 -55 + 100;
#X obj 2 -162 + 100;
#X obj 2 -140 dbtorms;
#X obj -348 31 r \$0-response;
#X obj -50 -51 s \$0-response;
#N canvas 0 22 450 300 delRead 0;
#X obj 68 41 inlet~;
#X obj 133 155 outlet~;
#X obj 133 42 inlet lookAhead;
#X obj 133 116 delread~ \$0-comp 0;
#X connect 2 0 3 0;
#X connect 3 0 1 0;
#X restore -551 -48 pd delRead;
#X text -507 -381 Input;
#X text -611 -126 delwrite~;
#X text -585 -93 dymmy;
#X text -586 -81 cable;
#X text -605 -48 delread~;
#X text -495 -93 Lookahead in ms;
#X text -302 -4 Clip signal;
#X text -338 52 Attack/release using LPF;
#X text -359 92 Gain Control;
#X text -318 -102 Gain computation;
#X text -318 -88 RMS/Peak;
#X text -306 131 Make-up gain;
#X text -297 -228 RMS/Peak;
#X text -297 -215 selector;
#X text -98 -232 send controls to UI;
#X text -157 24 Convert dB FS;
#X text -157 35 to Pd dB scale;
#X text -157 47 and then linear;
#X text -157 58 amplitude.;
#X text -75 -10 inverse of ratio;
#X text 1 -33 convert ms to frequency;
#X text 21 -97 convert dBFS scale to Pd dB scale;
#X text 71 -123 RMS/peak selection;
#X text 145 -149 lookahead value in ms;
#X text 121 -207 route incoming data;
#X text 174 -395 Varun Nair;
#X text 174 -382 2013;
#X text 175 -369 re-sounding.com;
#X text 176 -356 @ntkeep;
#X obj -382 -487 r \$0-sthreshUI;
#X msg -382 -465 threshold \$1;
#X obj -281 -487 r \$0-sratioUI;
#X msg -281 -465 ratio \$1;
#X obj -193 -486 r \$0-srespUI;
#X msg -193 -464 response \$1;
#X obj -107 -485 r \$0-sgainUI;
#X msg -107 -463 gain \$1;
#X obj -21 -485 r \$0-slookUI;
#X msg -21 -463 lookahead \$1;
#X obj 74 -485 r \$0-srmsUI;
#X msg 74 -463 rmspeak \$1;
#N canvas 401 182 833 653 calculateGraph 0;
#X obj 95 406 -;
#X obj 95 454 *;
#X obj 95 507 +;
#X obj 95 546 /;
#X obj 75 597 *;
#X obj 75 626 tabwrite \$0-curve;
#X obj 76 363 t f f f;
#X obj 76 271 f;
#X obj 110 271 + 1;
#X obj 76 239 until;
#X msg 76 216 100;
#X msg 121 240 0;
#X obj 161 291 r \$0-sthreshUI;
#X obj 267 290 r \$0-sratioUI;
#X obj 76 325 / 100;
#X obj 76 293 t f f;
#X obj 174 511 t f;
#X obj 161 333 dbtorms;
#X obj 161 311 + 100;
#X obj 268 346 /;
#X obj 268 315 swap 1;
#X obj 76 186 t b b;
#X obj 76 33 r \$0-sthreshUI;
#X obj 179 33 r \$0-sratioUI;
#X obj 76 155 del 50;
#X obj 271 33 r \$0-rthreshUI;
#X obj 364 34 r \$0-rratioUI;
#X obj 364 56 route set;
#X obj 271 53 route set;
#X obj 95 569 clip 0 1;
#X connect 0 0 1 0;
#X connect 1 0 2 0;
#X connect 2 0 3 0;
#X connect 3 0 29 0;
#X connect 4 0 5 0;
#X connect 6 0 4 0;
#X connect 6 1 0 0;
#X connect 6 2 3 1;
#X connect 7 0 8 0;
#X connect 7 0 15 0;
#X connect 8 0 7 1;
#X connect 9 0 7 0;
#X connect 10 0 9 0;
#X connect 11 0 7 1;
#X connect 12 0 18 0;
#X connect 13 0 20 0;
#X connect 14 0 6 0;
#X connect 15 0 14 0;
#X connect 15 1 16 0;
#X connect 16 0 5 1;
#X connect 17 0 0 1;
#X connect 17 0 2 1;
#X connect 18 0 17 0;
#X connect 19 0 1 1;
#X connect 20 0 19 0;
#X connect 20 1 19 1;
#X connect 21 0 10 0;
#X connect 21 1 11 0;
#X connect 22 0 24 0;
#X connect 23 0 24 0;
#X connect 24 0 21 0;
#X connect 25 0 28 0;
#X connect 26 0 27 0;
#X connect 27 0 20 0;
#X connect 27 0 24 0;
#X connect 28 0 18 0;
#X connect 28 0 24 0;
#X connect 29 0 4 1;
#X restore 438 205 pd calculateGraph;
#X obj 101 102 cnv 15 200 196 empty empty compress 5 16 0 22 -233017
-66577 0;
#X obj 172 203 cnv 15 100 70 empty empty empty 20 12 0 14 -262144 -66577
0;
#N canvas 0 22 450 278 (subpatch) 0;
#X array \$0-curve 100 float 0 black black;
#X coords 0 1 99 0 100 70 1;
#X restore 172 203 graph;
#X obj 114 192 vsl 15 80 0 127 0 0 \$0-thresh_ctl \$0-thresh_ctl_r
thresh -10 -9 0 10 -128992 -260097 -1 7900 1;
#X obj 279 -89 r \$0-thresh_ctl;
#X obj 280 -64 / 1.27;
#X obj 282 -43 - 100;
#X obj 346 -316 loadbang;
#X obj 319 -233 s \$0-thresh_ctl_r;
#X msg 328 -260 127;
#X obj 283 -18 s \$0-sthreshUI;
#X obj 279 192 vsl 15 80 0 127 0 0 \$0-gain_ctl \$0-gain_ctl_r gain
-5 -9 0 10 -128992 -260097 -1 263 1;
#X obj 114 277 nbx 5 14 -1e+037 1e+037 0 0 \$0-sthreshUI_s \$0-sthreshUI
empty 0 -8 0 10 -262144 -1 -1 0 256 0;
#X obj 245 277 nbx 5 14 -1e+037 1e+037 0 0 \$0-sgainUI_s \$0-sgainUI
empty 0 -8 0 10 -262144 -1 -1 1.00004 256 0;
#X obj 388 -106 r \$0-gain_ctl;
#X obj 387 -14 s \$0-sgainUI;
#X obj 387 -79 / 12.7;
#X obj 392 -53 * 3;
#X obj 232 107 hradio 15 1 0 2 \$0-srmsUI \$0-rrmsUI_r RMS/Peak -7
24 0 10 -128992 -260097 -1 0;
#X obj 141 212 vsl 15 40 0.127 127 1 0 \$0-ratio_ctl \$0-ratio_ctl_r
ratio -8 -9 0 10 -128992 -260097 -1 1300 1;
#X obj 132 257 nbx 3 14 -1e+037 1e+037 0 0 \$0-sratioUI_s \$0-sratioUI
empty 0 -8 0 10 -262144 -1 -1 1 256 0;
#X obj 500 -114 r \$0-ratio_ctl;
#X obj 500 -84 / 1.27;
#X obj 497 -41 s \$0-sratioUI;
#X obj 365 -173 s \$0-ratio_ctl_r;
#X msg 365 -211 1.27;
#X obj 121 143 hsl 60 15 0.254 127 1 0 \$0-response_ctl \$0-response_ctl_r
response 4 7 0 10 -128992 -260097 -262144 3275 1;
#X obj 488 31 r \$0-response_ctl;
#X obj 489 58 * 5;
#X obj 483 131 s \$0-srespUI;
#X obj 151 160 nbx 3 14 -1e+037 1e+037 0 0 \$0-srespUI_s \$0-srespUI
empty 0 -8 0 10 -262144 -1 -1 40 256 0;
#X obj 220 143 hsl 60 15 0.254 127 1 0 \$0-look_ctl \$0-look_ctl_r
lookahead 4 7 0 10 -128992 -260097 -262144 0 1;
#X obj 251 160 nbx 3 14 -1e+037 1e+037 0 0 \$0-slookUI_s \$0-slookUI
empty 0 -8 0 10 -262144 -1 -1 0 256 0;
#X obj 388 164 s \$0-slookUI;
#X obj 384 50 r \$0-look_ctl;
#X obj 407 93 * 3.9371;
#X obj 203 -239 s \$0-response_ctl_r;
#X obj 486 106 int;
#X msg 316 -311 8;
#X obj 486 80 + 0.5;
#X obj 395 133 int;
#X obj 709 29 r toolssavebank;
#X obj 919 -54 r toolssavebang;
#X obj 1167 13 f;
#X obj 1112 7 f;
#X obj 993 238 s toolssavelists;
#X obj 948 50 f;
#X obj 711 147 route;
#X obj 1069 -109 loadbang;
#X obj 1070 -53 \$1;
#X obj 1069 -81 del 5;
#X obj 948 9 del;
#X obj 1239 41 f;
#X obj 1296 65 f;
#X obj 711 117 route compress;
#X obj 940 150 symbol compress;
#X obj 946 99 t b f b b b b b b;
#X obj 994 194 pack s f f f f f f f;
#X obj 712 173 unpack f f f f f f;
#X obj 1366 94 f;
#X obj 1412 120 f;
#X obj 1156 -85 r \$0-srmsUI;
#X obj 1286 -87 r \$0-response_ctl;
#X obj 1383 -55 r \$0-look_ctl;
#X obj 1345 42 r \$0-thresh_ctl;
#X obj 1371 65 r \$0-ratio_ctl;
#X obj 1427 92 r \$0-gain_ctl;
#X obj 680 231 s \$0-rrmsUI_r;
#X obj 739 202 s \$0-response_ctl_r;
#X obj 765 250 s \$0-look_ctl_r;
#X obj 795 282 s \$0-thresh_ctl_r;
#X obj 818 228 s \$0-ratio_ctl_r;
#X obj 876 254 s \$0-gain_ctl_r;
#X obj 191 16 inlet;
#X obj 201 26 inlet;
#X obj 211 36 inlet;
#X obj 221 46 inlet;
#X obj 231 56 inlet;
#X obj 501 -268 s \$0-rrmsUI_r;
#X msg 442 -280 0;
#X obj 529 -182 s \$0-gain_ctl_r;
#X msg 523 -218 4.2335;
#X connect 1 0 2 0;
#X connect 2 0 0 0;
#X connect 3 0 35 0;
#X connect 4 0 11 0;
#X connect 5 0 12 0;
#X connect 6 0 5 0;
#X connect 6 1 5 1;
#X connect 7 0 34 0;
#X connect 8 0 7 0;
#X connect 8 1 7 1;
#X connect 9 0 1 1;
#X connect 10 0 9 0;
#X connect 13 0 2 1;
#X connect 14 0 13 0;
#X connect 15 0 14 0;
#X connect 17 0 10 0;
#X connect 18 0 10 0;
#X connect 19 0 17 1;
#X connect 20 0 19 0;
#X connect 20 1 18 1;
#X connect 21 0 3 0;
#X connect 21 0 17 0;
#X connect 21 0 18 0;
#X connect 22 0 20 0;
#X connect 25 0 35 1;
#X connect 26 0 30 0;
#X connect 26 1 6 0;
#X connect 26 2 8 0;
#X connect 26 3 31 0;
#X connect 26 4 23 0;
#X connect 26 5 24 0;
#X connect 27 0 28 0;
#X connect 28 0 26 0;
#X connect 28 1 29 0;
#X connect 30 0 4 0;
#X connect 31 0 32 0;
#X connect 32 0 16 0;
#X connect 33 0 9 1;
#X connect 35 0 1 0;
#X connect 65 0 66 0;
#X connect 66 0 28 0;
#X connect 67 0 68 0;
#X connect 68 0 28 0;
#X connect 69 0 70 0;
#X connect 70 0 28 0;
#X connect 71 0 72 0;
#X connect 72 0 28 0;
#X connect 73 0 74 0;
#X connect 74 0 28 0;
#X connect 75 0 76 0;
#X connect 76 0 28 0;
#X connect 82 0 83 0;
#X connect 83 0 84 0;
#X connect 84 0 88 0;
#X connect 85 0 87 0;
#X connect 85 0 103 0;
#X connect 85 0 116 0;
#X connect 85 0 157 0;
#X connect 85 0 159 0;
#X connect 87 0 86 0;
#X connect 92 0 94 0;
#X connect 94 0 95 0;
#X connect 95 0 93 0;
#X connect 99 0 100 0;
#X connect 100 0 101 0;
#X connect 103 0 102 0;
#X connect 105 0 106 0;
#X connect 106 0 117 0;
#X connect 112 0 113 0;
#X connect 113 0 118 0;
#X connect 115 0 107 0;
#X connect 116 0 114 0;
#X connect 117 0 115 0;
#X connect 118 0 111 0;
#X connect 119 0 132 0;
#X connect 120 0 129 0;
#X connect 121 0 135 3;
#X connect 122 0 135 2;
#X connect 124 0 134 0;
#X connect 125 0 136 0;
#X connect 126 0 128 0;
#X connect 127 0 124 1;
#X connect 127 0 125 1;
#X connect 127 0 129 1;
#X connect 128 0 127 0;
#X connect 129 0 124 0;
#X connect 130 0 135 4;
#X connect 131 0 135 5;
#X connect 132 0 125 0;
#X connect 133 0 135 0;
#X connect 134 0 133 0;
#X connect 134 1 135 1;
#X connect 134 2 122 0;
#X connect 134 3 121 0;
#X connect 134 4 130 0;
#X connect 134 5 131 0;
#X connect 134 6 137 0;
#X connect 134 7 138 0;
#X connect 135 0 123 0;
#X connect 136 0 145 0;
#X connect 136 1 146 0;
#X connect 136 2 147 0;
#X connect 136 3 148 0;
#X connect 136 4 149 0;
#X connect 136 5 150 0;
#X connect 137 0 135 6;
#X connect 138 0 135 7;
#X connect 139 0 122 1;
#X connect 140 0 121 1;
#X connect 141 0 130 1;
#X connect 142 0 131 1;
#X connect 143 0 137 1;
#X connect 144 0 138 1;
#X connect 151 0 81 0;
#X connect 152 0 97 0;
#X connect 153 0 104 0;
#X connect 154 0 109 0;
#X connect 155 0 89 0;
#X connect 157 0 156 0;
#X connect 159 0 158 0;
#X coords 0 -1 1 1 202 200 1 100 100;
