#N canvas 331 57 703 688 10;
#X obj 102 102 cnv 15 200 96 empty empty enve 5 12 0 16 -233017 -1
0;
#X obj 220 111 vsl 15 50 0 127 0 0 \$0sus \$0sus_r Sustain -12 76 0
10 -99865 -260097 -1 2450 1;
#X obj 123 146 hsl 50 15 0.125 127 1 0 \$0att \$0att_r Attack 11 5
0 10 -99865 -260097 -262144 1634 1;
#X obj 124 163 nbx 5 14 -1e+37 1e+37 0 0 empty \$0attshow empty 0 -8
0 11 -262144 -1 -1 198.081 256 0;
#X obj 244 129 hsl 50 15 0.125 127 1 0 \$0rel \$0rel_r Release 6 6
0 10 -99865 -260097 -262144 1634 1;
#X obj 245 146 nbx 5 14 -1e+37 1e+37 0 0 empty \$0relshow empty 0 -8
0 11 -262144 -1 -260097 198.081 256 0;
#X obj 206 167 nbx 4 14 -1e+37 1e+37 0 0 empty \$0susshow empty 0 -8
0 11 -262144 -1 -1 0.5 256 0;
#X obj 754 -116 loadbang;
#X obj 866 4 s \$0att_r;
#X obj 953 12 s \$0rel_r;
#X msg 1037 -13 63.5;
#X obj 1035 7 s \$0sus_r;
#X msg 854 -22 1.258;
#X obj 1551 -199 r toolssavebank;
#X obj 1761 -282 r toolssavebang;
#X obj 1980 -92 f;
#X obj 1925 -98 f;
#X obj 1835 10 s toolssavelists;
#X obj 1790 -178 f;
#X obj 1553 -81 route;
#X obj 1911 -337 loadbang;
#X obj 1912 -281 \$1;
#X obj 1911 -309 del 5;
#X obj 1790 -219 del;
#X obj 2052 -64 f;
#X obj 1589 106 s \$0rel_r;
#X obj 2104 -97 r \$0rel;
#X obj 2087 -57 f;
#X obj 172 -62 inlet;
#X obj 233 -45 inlet;
#X obj 278 -32 inlet;
#X obj 123 -78 inlet;
#X obj -537 -421 unpack f f;
#X obj -592 -487 inlet;
#X obj -566 -353 del;
#X obj 156 110 hsl 50 15 0.25 127 1 0 \$0dec \$0dec_r Decay 11 6 0
10 -99865 -260097 -262144 1271 1;
#X obj 157 127 nbx 5 14 -1e+37 1e+37 0 0 empty \$0decshow empty 0 -8
0 11 -262144 -1 -260097 99.0842 256 0;
#X obj -536 -585 r \$0attshow;
#X obj -457 -589 r \$0decshow;
#X obj -404 -549 r \$0relshow;
#X obj -524 -472 sum;
#X obj -497 -534 t b f;
#X obj -417 -514 t b f;
#X msg -566 -308 0;
#X obj 783 10 s \$0dec_r;
#X obj 1788 -127 t b f b b b b;
#X obj 1836 -25 pack s f f f f f;
#X obj 2012 -149 r \$0dec;
#X obj 2074 -125 r \$0sus;
#X obj 1552 -57 unpack f f f f;
#X obj 1529 74 s \$0sus_r;
#X obj 1502 107 s \$0dec_r;
#X obj 1396 78 s \$0att_r;
#X obj -598 -168 r \$0att;
#X obj -194 107 r \$0rel;
#X obj -358 -172 r \$0sus;
#X obj -93 -281 moses 1;
#X floatatom -92 -249 5 0 0 0 - - -, f 5;
#X floatatom -39 -224 5 0 0 0 - - -, f 5;
#X obj -297 189 pack f f;
#X obj -600 -99 s \$0attshow;
#X obj -446 -92 s \$0susshow;
#X obj -161 174 s \$0relshow;
#X obj -341 -58 *;
#X obj -325 -117 t b f;
#X obj -355 -87 f;
#X obj -60 -193 t f f;
#X obj -242 -27 s \$0decshow;
#X obj -245 -99 r \$0dec;
#X obj 1946 -180 r \$0att;
#X obj -337 332 outlet;
#X obj -341 289 line;
#X msg -529 -383 127;
#X obj -585 -22 pack f f;
#X msg -590 20 \$1 \$2;
#X obj -453 -11 pipe;
#X obj -436 28 pack f f;
#X obj -520 -504 pack f f;
#X obj 1553 -112 route enve;
#X obj 1782 -79 symbol enve;
#X obj -358 -139 / 127;
#X obj -598 -135 * 157.48;
#X obj -194 140 * 157.48;
#X obj -242 -64 * 78.7402;
#X obj -595 -458 route bang stop;
#X connect 7 0 12 0;
#X connect 7 0 10 0;
#X connect 10 0 11 0;
#X connect 12 0 8 0;
#X connect 12 0 9 0;
#X connect 12 0 44 0;
#X connect 13 0 78 0;
#X connect 14 0 23 0;
#X connect 15 0 46 3;
#X connect 16 0 46 2;
#X connect 18 0 45 0;
#X connect 19 0 49 0;
#X connect 20 0 22 0;
#X connect 21 0 18 1;
#X connect 21 0 19 1;
#X connect 21 0 23 1;
#X connect 22 0 21 0;
#X connect 23 0 18 0;
#X connect 24 0 46 4;
#X connect 26 0 27 1;
#X connect 27 0 46 5;
#X connect 28 0 35 0;
#X connect 29 0 1 0;
#X connect 30 0 4 0;
#X connect 31 0 2 0;
#X connect 32 1 56 0;
#X connect 33 0 84 0;
#X connect 34 0 43 0;
#X connect 37 0 77 0;
#X connect 38 0 41 0;
#X connect 39 0 42 0;
#X connect 40 0 34 1;
#X connect 41 0 77 0;
#X connect 41 1 77 1;
#X connect 43 0 56 0;
#X connect 45 0 79 0;
#X connect 45 1 46 1;
#X connect 45 2 16 0;
#X connect 45 3 15 0;
#X connect 45 4 24 0;
#X connect 45 5 27 0;
#X connect 46 0 17 0;
#X connect 47 0 15 1;
#X connect 48 0 24 1;
#X connect 49 0 52 0;
#X connect 49 1 51 0;
#X connect 49 2 50 0;
#X connect 49 3 25 0;
#X connect 53 0 81 0;
#X connect 54 0 82 0;
#X connect 55 0 80 0;
#X connect 56 0 57 0;
#X connect 56 1 58 0;
#X connect 57 0 59 0;
#X connect 58 0 66 0;
#X connect 59 0 71 0;
#X connect 63 0 75 0;
#X connect 64 0 65 0;
#X connect 64 1 63 1;
#X connect 65 0 63 0;
#X connect 66 0 64 0;
#X connect 66 1 73 0;
#X connect 68 0 83 0;
#X connect 69 0 16 1;
#X connect 71 0 70 0;
#X connect 72 0 56 0;
#X connect 73 0 74 0;
#X connect 74 0 71 0;
#X connect 75 0 76 0;
#X connect 76 0 71 0;
#X connect 77 0 40 0;
#X connect 78 0 19 0;
#X connect 79 0 46 0;
#X connect 80 0 61 0;
#X connect 80 0 65 1;
#X connect 81 0 60 0;
#X connect 81 0 73 1;
#X connect 81 0 75 1;
#X connect 82 0 59 1;
#X connect 82 0 62 0;
#X connect 83 0 67 0;
#X connect 83 0 76 1;
#X connect 84 0 72 0;
#X connect 84 0 34 0;
#X connect 84 2 32 0;
#X coords 0 -1 1 1 204 100 1 100 100;
