#N canvas 0 0 1440 818 10;
#X obj 101 102 cnv 12 220 115 empty empty eq-graf 4 12 0 16 -233017
-1 0;
#X obj 296 107 bng 15 250 50 0 \$0reseteq63 \$0reseteq63_r reset -32
7 0 10 -128992 -260097 -1;
#X obj 107 132 vsl 15 64 0 127 0 0 \$0sl1 \$0sli1 32 2 76 0 10 -128992
-260097 -1 0 1;
#X obj 128 132 vsl 15 64 0 127 0 0 \$0sl2 \$0sli2 64 2 76 0 10 -128992
-260097 -1 0 1;
#X obj 149 132 vsl 15 64 0 127 0 0 \$0sl3 \$0sli3 125 -2 76 0 10 -128992
-260097 -1 0 1;
#X obj 170 132 vsl 15 64 0 127 0 0 \$0sl4 \$0sli4 250 -2 76 0 10 -128992
-260097 -1 0 1;
#X obj 191 132 vsl 15 64 0 127 0 0 \$0sl5 \$0sli5 500 -2 76 0 10 -128992
-260097 -1 0 1;
#X obj 212 132 vsl 15 64 0 127 0 0 \$0sl6 \$0sli6 1k 2 76 0 10 -128992
-260097 -1 0 1;
#X obj 233 132 vsl 15 64 0 127 0 0 \$0sl7 \$0sli7 2k 2 76 0 10 -128992
-260097 -1 0 1;
#X obj 254 132 vsl 15 64 0 127 0 0 \$0sl8 \$0sli8 4k 2 76 0 10 -128992
-260097 -1 0 1;
#X obj 275 132 vsl 15 64 0 127 0 0 \$0sl9 \$0sli9 8k 2 76 0 10 -128992
-260097 -1 0 1;
#X obj 296 132 vsl 15 64 0 127 0 0 \$0sl \$0sli 16k -2 76 0 10 -128992
-260097 -1 0 1;
#N canvas 652 419 904 359 eq 0;
#X obj 93 114 sig~;
#X obj 775 159 svf~ 16000 0.1;
#X obj 167 113 sig~;
#X obj 251 112 sig~;
#X obj 330 112 sig~;
#X obj 417 111 sig~;
#X obj 496 98 sig~;
#X obj 581 98 sig~;
#X obj 675 98 sig~;
#X obj 765 98 sig~;
#X obj 855 98 sig~;
#X obj 73 212 *~ 0.5;
#X obj 149 212 *~ 0.5;
#X obj 229 211 *~ 0.5;
#X obj 308 211 *~ 0.5;
#X obj 394 212 *~ 0.5;
#X obj 73 296 outlet~;
#X obj 471 197 *~ 0.5;
#X obj 557 196 *~ 0.5;
#X obj 647 191 *~ 0.5;
#X obj 737 190 *~ 0.5;
#X obj 829 192 *~ 0.5;
#X obj 29 27 inlet~;
#X obj 93 91 * 0.5;
#X obj 167 90 * 0.5;
#X obj 251 89 * 0.5;
#X obj 330 89 * 0.5;
#X obj 417 88 * 0.5;
#X obj 496 75 * 0.5;
#X obj 581 75 * 0.5;
#X obj 675 75 * 0.5;
#X obj 765 75 * 0.5;
#X obj 855 75 * 0.5;
#X obj 93 30 * 0.007874;
#X obj 163 30 * 0.007874;
#X obj 233 30 * 0.007874;
#X obj 303 30 * 0.007874;
#X obj 373 30 * 0.007874;
#X obj 443 30 * 0.007874;
#X obj 513 30 * 0.007874;
#X obj 583 30 * 0.007874;
#X obj 653 30 * 0.007874;
#X obj 723 30 * 0.007874;
#X obj 30 158 svf~ 32 0.1;
#X obj 104 158 svf~ 64 0.1;
#X obj 183 158 svf~ 125 0.1;
#X obj 262 158 svf~ 250 0.1;
#X obj 343 158 svf~ 500 0.1;
#X obj 422 159 svf~ 1000 0.1;
#X obj 507 159 svf~ 2000 0.1;
#X obj 593 159 svf~ 4000 0.1;
#X obj 684 159 svf~ 8000 0.1;
#N canvas 796 161 600 130 lb 0;
#X obj 87 25 loadbang;
#X obj 58 92 s \$0sli1;
#X obj 125 98 s \$0sli2;
#X obj 183 93 s \$0sli3;
#X obj 233 105 s \$0sli4;
#X obj 271 88 s \$0sli5;
#X obj 317 88 s \$0sli6;
#X obj 363 88 s \$0sli7;
#X obj 410 87 s \$0sli8;
#X obj 455 88 s \$0sli9;
#X obj 501 88 s \$0sli;
#X msg 65 49 63.5;
#X obj 195 25 r \$0reseteq63;
#X connect 0 0 11 0;
#X connect 11 0 1 0;
#X connect 11 0 2 0;
#X connect 11 0 3 0;
#X connect 11 0 4 0;
#X connect 11 0 5 0;
#X connect 11 0 6 0;
#X connect 11 0 7 0;
#X connect 11 0 8 0;
#X connect 11 0 9 0;
#X connect 11 0 10 0;
#X connect 12 0 11 0;
#X restore 33 253 pd lb;
#X obj 93 8 r \$0sl1;
#X obj 163 7 r \$0sl2;
#X obj 233 8 r \$0sl3;
#X obj 302 8 r \$0sl4;
#X obj 373 8 r \$0sl5;
#X obj 443 8 r \$0sl6;
#X obj 514 9 r \$0sl7;
#X obj 583 8 r \$0sl8;
#X obj 653 8 r \$0sl9;
#X obj 723 8 r \$0sl;
#X connect 0 0 43 2;
#X connect 1 2 21 0;
#X connect 2 0 44 2;
#X connect 3 0 45 2;
#X connect 4 0 46 2;
#X connect 5 0 47 2;
#X connect 6 0 48 2;
#X connect 7 0 49 2;
#X connect 8 0 50 2;
#X connect 9 0 51 2;
#X connect 10 0 1 2;
#X connect 11 0 16 0;
#X connect 12 0 16 0;
#X connect 13 0 16 0;
#X connect 14 0 16 0;
#X connect 15 0 16 0;
#X connect 17 0 16 0;
#X connect 18 0 16 0;
#X connect 19 0 16 0;
#X connect 20 0 16 0;
#X connect 21 0 16 0;
#X connect 22 0 1 0;
#X connect 22 0 43 0;
#X connect 22 0 44 0;
#X connect 22 0 45 0;
#X connect 22 0 46 0;
#X connect 22 0 47 0;
#X connect 22 0 48 0;
#X connect 22 0 49 0;
#X connect 22 0 50 0;
#X connect 22 0 51 0;
#X connect 23 0 0 0;
#X connect 24 0 2 0;
#X connect 25 0 3 0;
#X connect 26 0 4 0;
#X connect 27 0 5 0;
#X connect 28 0 6 0;
#X connect 29 0 7 0;
#X connect 30 0 8 0;
#X connect 31 0 9 0;
#X connect 32 0 10 0;
#X connect 33 0 23 0;
#X connect 33 0 11 1;
#X connect 34 0 24 0;
#X connect 34 0 12 1;
#X connect 35 0 25 0;
#X connect 35 0 13 1;
#X connect 36 0 14 1;
#X connect 36 0 26 0;
#X connect 37 0 27 0;
#X connect 37 0 15 1;
#X connect 38 0 28 0;
#X connect 38 0 17 1;
#X connect 39 0 29 0;
#X connect 39 0 18 1;
#X connect 40 0 30 0;
#X connect 40 0 19 1;
#X connect 41 0 31 0;
#X connect 41 0 20 1;
#X connect 42 0 32 0;
#X connect 42 0 21 1;
#X connect 43 2 11 0;
#X connect 44 2 12 0;
#X connect 45 2 13 0;
#X connect 46 2 14 0;
#X connect 47 2 15 0;
#X connect 48 2 17 0;
#X connect 49 2 18 0;
#X connect 50 2 19 0;
#X connect 51 2 20 0;
#X connect 53 0 33 0;
#X connect 54 0 34 0;
#X connect 55 0 35 0;
#X connect 56 0 36 0;
#X connect 57 0 37 0;
#X connect 58 0 38 0;
#X connect 59 0 39 0;
#X connect 60 0 40 0;
#X connect 61 0 41 0;
#X connect 62 0 42 0;
#X restore 49 120 pd eq;
#X obj 46 68 inlet~;
#X obj 39 171 outlet~;
#X obj -123 430 r toolssavebank;
#X obj 87 347 r toolssavebang;
#X obj 306 537 f;
#X obj 251 531 f;
#X obj 439 778 s toolssavelists;
#X obj 116 451 f;
#X obj -121 548 route;
#X obj 237 292 loadbang;
#X obj 238 348 \$1;
#X obj 237 320 del 5;
#X obj 116 410 del;
#X obj 341 549 f;
#X obj 434 564 f;
#X obj 379 558 f;
#X obj 469 576 f;
#X obj 530 591 f;
#X obj 114 500 t b f b b b b b b b b b b;
#X obj 432 743 pack s f f f f f f f f f f f;
#X obj 557 638 f;
#X obj 280 409 r \$0sl1;
#X obj 343 440 r \$0sl2;
#X obj 360 477 r \$0sl3;
#X obj 390 512 r \$0sl4;
#X obj 455 530 r \$0sl5;
#X obj 493 552 r \$0sl6;
#X obj 562 572 r \$0sl7;
#X obj 587 611 r \$0sl8;
#X obj 674 626 r \$0sl9;
#X obj 765 667 r \$0sl;
#X obj 684 669 f;
#X obj 720 694 f;
#X obj 108 551 symbol eq-graf;
#X obj -121 518 route eq-graf;
#X obj -120 607 unpack f f f f f f f f f f;
#X obj -160 653 s \$0sli1;
#X obj -150 663 s \$0sli2;
#X obj -140 673 s \$0sli3;
#X obj -130 683 s \$0sli4;
#X obj -120 693 s \$0sli5;
#X obj -110 703 s \$0sli6;
#X obj -100 713 s \$0sli7;
#X obj -90 722 s \$0sli8;
#X obj -80 733 s \$0sli9;
#X obj -70 743 s \$0sli;
#X obj 191 -40 inlet;
#X obj 201 -30 inlet;
#X obj 211 -20 inlet;
#X obj 221 -10 inlet;
#X obj 231 0 inlet;
#X obj 241 10 inlet;
#X obj 251 20 inlet;
#X obj 261 30 inlet;
#X obj 271 40 inlet;
#X obj 281 50 inlet;
#X obj 291 60 inlet;
#X obj 301 70 inlet;
#X connect 12 0 14 0;
#X connect 13 0 12 0;
#X connect 15 0 47 0;
#X connect 16 0 25 0;
#X connect 17 0 32 3;
#X connect 18 0 32 2;
#X connect 20 0 31 0;
#X connect 21 0 48 0;
#X connect 22 0 24 0;
#X connect 23 0 20 1;
#X connect 23 0 21 1;
#X connect 23 0 25 1;
#X connect 24 0 23 0;
#X connect 25 0 20 0;
#X connect 26 0 32 4;
#X connect 27 0 32 6;
#X connect 28 0 32 5;
#X connect 29 0 32 7;
#X connect 30 0 32 8;
#X connect 31 0 46 0;
#X connect 31 1 32 1;
#X connect 31 2 18 0;
#X connect 31 3 17 0;
#X connect 31 4 26 0;
#X connect 31 5 28 0;
#X connect 31 6 27 0;
#X connect 31 7 29 0;
#X connect 31 8 30 0;
#X connect 31 9 33 0;
#X connect 31 10 44 0;
#X connect 31 11 45 0;
#X connect 32 0 19 0;
#X connect 33 0 32 9;
#X connect 34 0 18 1;
#X connect 35 0 17 1;
#X connect 36 0 26 1;
#X connect 37 0 28 1;
#X connect 38 0 27 1;
#X connect 39 0 29 1;
#X connect 40 0 30 1;
#X connect 41 0 33 1;
#X connect 42 0 44 1;
#X connect 43 0 45 1;
#X connect 44 0 32 10;
#X connect 45 0 32 11;
#X connect 46 0 32 0;
#X connect 47 0 21 0;
#X connect 48 0 49 0;
#X connect 48 1 50 0;
#X connect 48 2 51 0;
#X connect 48 3 52 0;
#X connect 48 4 53 0;
#X connect 48 5 54 0;
#X connect 48 6 55 0;
#X connect 48 7 56 0;
#X connect 48 8 57 0;
#X connect 48 9 58 0;
#X connect 60 0 2 0;
#X connect 61 0 3 0;
#X connect 62 0 4 0;
#X connect 63 0 5 0;
#X connect 64 0 6 0;
#X connect 65 0 7 0;
#X connect 66 0 8 0;
#X connect 67 0 9 0;
#X connect 68 0 10 0;
#X connect 69 0 11 0;
#X connect 70 0 1 0;
#X coords 0 -1 1 1 222 119 1 100 100;
