#N canvas 0 20 1423 798 10;
#X obj -504 500 loadbang;
#X obj 102 102 cnv 15 125 200 empty empty kickzwo 27 10 0 16 -33289
-260097 0;
#X obj 193 138 vsl 15 60 0 127 0 0 \$0breakpitch \$0breakpitch_r pitch
-8 -9 0 11 -228856 -260097 -262144 1069 1;
#X obj 118 138 vsl 15 60 1.27 127 1 0 \$0pitch \$0pitch_r kick -6 -9
0 11 -228856 -260097 -262144 4939 1;
#X obj 151 165 bng 25 250 50 0 \$0kickit \$0kickit_r empty 17 7 0 10
-228856 -260097 -1;
#X obj 169 263 hsl 50 15 1 127 0 0 \$0decay \$0decay_r decay 11 6 0
11 -228856 -260097 -1 2683 1;
#X obj 186 205 nbx 3 14 -1e+037 1e+037 0 0 \$0endshow_s \$0endshow
empty 0 -8 0 10 -262144 -1 -1 55.8267 256 0;
#X obj 107 205 nbx 4 14 -1e+037 1e+037 0 0 \$0kickshow_s \$0kickshow
empty 0 -8 0 10 -262144 -1 -1 210.039 256 0;
#X obj 108 225 hsl 50 15 0 127 0 0 \$0time1 \$0time1_r time-1 8 6 0
10 -228856 -260097 -1 1543 1;
#X obj 166 225 hsl 50 15 0 127 0 0 \$0time2 \$0time2_r time-2 9 5 0
10 -228856 -260097 -1 965 1;
#X obj 170 278 nbx 5 14 -1e+037 1e+037 0 0 \$0decayshow_s \$0decayshow
empty 0 -8 0 10 -262144 -1 -1 1104.61 256 0;
#X obj 109 240 nbx 4 14 -1e+037 1e+037 0 0 \$0attackshow_s \$0attackshow
empty 0 -8 0 10 -262144 -1 -1 64.3622 256 0;
#X obj 167 241 nbx 4 14 -1e+037 1e+037 0 0 \$0time2show_s \$0time2show
empty 0 -8 0 10 -262144 -1 -1 594.567 256 0;
#X obj 178 -21 inlet;
#X obj 145 -40 inlet;
#X obj 340 75 inlet;
#X obj 212 3 inlet;
#X obj 256 28 inlet;
#X obj -131 591 r toolssavebank;
#X obj 79 508 r toolssavebang;
#X obj 298 698 f;
#X obj 243 692 f;
#X obj 198 863 s toolssavelists;
#X obj 108 612 f;
#X obj -129 709 route;
#X obj 229 453 loadbang;
#X obj 230 509 \$1;
#X obj 229 481 del 5;
#X obj 108 571 del;
#X obj 370 726 f;
#X obj 192 816 pack s f f f f f f f f f;
#X obj 471 753 f;
#X obj 416 747 f;
#X obj 151 544 clip 0 393;
#X obj -604 306 osc~;
#X obj -615 53 t b b;
#X obj -604 276 line~;
#X obj -615 109 del 50;
#X obj -572 -71 nbx 5 14 -1e+037 1e+037 0 1 empty \$0time1 empty 0
-8 0 10 -262144 -1 -1 40 256 0;
#X obj -513 -145 nbx 5 14 -1e+037 1e+037 0 0 empty \$0breakpitch empty
0 -8 0 10 -262144 -1 -1 23 256 0;
#X obj -504 31 nbx 5 14 -1e+037 1e+037 0 1 empty \$0pitch empty 0 -8
0 10 -262144 -1 -1 59.9848 256 0;
#X obj -565 188 pack;
#X msg -565 213 \$1 \$2;
#X text -520 -164 break pitch;
#X text -501 9 max pitch;
#X msg -519 213 \$1 0;
#X obj -519 188 pack;
#X text -571 -90 fall time 1;
#X obj -705 -12 nbx 5 14 -1e+037 1e+037 0 0 empty \$0time2 empty 0
-8 0 10 -262144 -1 -1 25 256 0;
#X text -713 -35 fall time 2;
#X msg -615 213 0 \$1;
#X obj -615 188 pack;
#X obj -20 -83 bng 15 250 50 0 empty \$0kickit empty 17 7 0 10 -262144
-1 -1;
#X msg -790 205 0 0;
#X obj -790 145 loadbang;
#X obj -790 174 del 2;
#X obj -615 162 f;
#X obj -519 147 f;
#X obj -565 122 f;
#X obj -452 158 t b b;
#X obj -518 379 *~;
#X msg -405 252 1 2;
#X obj -451 230 pack;
#X obj -451 208 f;
#X msg -451 253 0 \$1;
#X obj -451 186 del 2;
#X obj -419 -20 nbx 5 14 0 127 0 1 empty \$0decay empty 0 -8 0 10 -262144
-1 -1 70 256 0;
#X text -419 -41 amp decay;
#X obj -599 83 del 1;
#X obj -273 162 t b b;
#X obj -273 234 pack;
#X obj -273 212 f;
#X msg -273 257 0 \$1;
#X obj -273 190 del 2;
#X obj -451 335 expr~ $v1 > 0.5;
#X obj -382 383 *~;
#X obj -258 129 * 0.05;
#X obj -228 233 pack;
#X obj -228 211 f;
#X obj -211 60 nbx 5 14 0 127 0 1 empty \$0trans empty 0 -8 0 10 -262144
-1 -1 10 256 0;
#X text -211 39 transient;
#X msg -228 257 \$1 2;
#X obj -413 360 lop~ 350;
#X obj -273 308 line~;
#X obj -451 304 line~;
#X obj -492 344 *~;
#X obj -211 88 / 127;
#X obj -211 116 * 0.9;
#X obj -503 78 + 40;
#X obj -504 54 / 0.35277;
#X obj -569 -29 + 2;
#X obj -571 -53 / 0.641414;
#X obj -513 -125 / 1.10435;
#X obj -513 -103 + 35;
#X obj -702 19 / 0.042404;
#X obj -702 45 + 5;
#X obj -420 9 / 0.063659;
#X obj -421 33 + 5;
#X obj -16 -140 inlet;
#X obj -16 -117 route bang;
#X obj 40 -92 unpack 0 0;
#X floatatom 91 -37 5 0 0 0 - - -, f 5;
#X obj 85 -6 / 127;
#X obj 41 -66 moses 0.1;
#X obj 84 21 t b f;
#X obj -405 158 t b f;
#X msg -374 250 \$1 2;
#X obj -456 418 outlet~;
#X obj -446 83 s \$0kickshow;
#X obj -475 -72 s \$0endshow;
#X obj 106 263 hsl 50 15 0 127 0 0 \$0trans \$0trans_r sound 11 6 0
11 -228856 -260097 -1 386 1;
#X obj 106 278 nbx 5 14 -1e+037 1e+037 0 0 \$0transshow_s \$0transshow
empty 0 -8 0 10 -262144 -1 -1 0.0708661 256 0;
#X obj -618 1 s \$0attackshow;
#X obj 270 569 r \$0pitch;
#X obj 350 624 r \$0breakpitch;
#X obj 429 636 r \$0time1;
#X obj 448 696 r \$0time2;
#X obj 100 712 symbol kickzwo;
#X obj -128 680 route kickzwo;
#X obj 106 661 t b f b b b b b b;
#X obj 538 771 f;
#X obj 483 725 r \$0trans;
#X obj 561 741 r \$0decay;
#X obj -128 735 unpack f f f f f f;
#X obj 52 927 s \$0decay_r;
#X obj -162 778 s 0pitch_r;
#X obj -115 804 s \$0breakpitch_r;
#X obj -71 838 s \$0time1_r;
#X obj -17 876 s \$0time2_r;
#X obj 17 905 s \$0trans_r;
#X obj -147 176 s \$0transshow;
#X obj -373 60 s \$0decayshow;
#X obj -744 100 s \$0time2show;
#X obj 306 42 inlet;
#X obj -300 561 s \$0decay_r;
#X obj -594 607 s \$0breakpitch_r;
#X obj -516 635 s \$0time1_r;
#X obj -434 608 s \$0time2_r;
#X obj -344 596 s \$0trans_r;
#X obj -660 571 s \$0pitch_r;
#X msg -343 566 10;
#X msg -516 574 40;
#X msg -433 581 25;
#X msg -300 534 70;
#X msg -581 532 23;
#X msg -645 523 60;
#X connect 0 0 144 0;
#X connect 0 0 145 0;
#X connect 0 0 141 0;
#X connect 0 0 140 0;
#X connect 0 0 142 0;
#X connect 0 0 143 0;
#X connect 13 0 2 0;
#X connect 14 0 3 0;
#X connect 15 0 5 0;
#X connect 16 0 8 0;
#X connect 17 0 9 0;
#X connect 18 0 118 0;
#X connect 19 0 28 0;
#X connect 20 0 30 3;
#X connect 21 0 30 2;
#X connect 23 0 119 0;
#X connect 24 0 123 0;
#X connect 25 0 27 0;
#X connect 26 0 23 1;
#X connect 26 0 24 1;
#X connect 26 0 33 0;
#X connect 27 0 26 0;
#X connect 28 0 23 0;
#X connect 29 0 30 4;
#X connect 30 0 22 0;
#X connect 31 0 30 6;
#X connect 32 0 30 5;
#X connect 33 0 28 1;
#X connect 34 0 74 0;
#X connect 34 0 60 0;
#X connect 35 0 37 0;
#X connect 35 0 68 0;
#X connect 35 1 57 0;
#X connect 36 0 34 0;
#X connect 37 0 56 0;
#X connect 38 0 91 0;
#X connect 39 0 92 0;
#X connect 40 0 89 0;
#X connect 41 0 42 0;
#X connect 42 0 36 0;
#X connect 45 0 36 0;
#X connect 46 0 45 0;
#X connect 48 0 94 0;
#X connect 50 0 36 0;
#X connect 51 0 50 0;
#X connect 52 0 35 0;
#X connect 52 0 59 0;
#X connect 52 0 69 0;
#X connect 53 0 36 0;
#X connect 54 0 55 0;
#X connect 55 0 53 0;
#X connect 56 0 51 0;
#X connect 57 0 46 0;
#X connect 58 0 41 0;
#X connect 59 0 65 0;
#X connect 59 1 61 0;
#X connect 60 0 107 0;
#X connect 61 0 84 0;
#X connect 62 0 64 0;
#X connect 63 0 62 0;
#X connect 64 0 84 0;
#X connect 65 0 63 0;
#X connect 66 0 96 0;
#X connect 68 0 58 0;
#X connect 69 0 73 0;
#X connect 69 1 78 0;
#X connect 70 0 72 0;
#X connect 71 0 70 0;
#X connect 72 0 83 0;
#X connect 73 0 71 0;
#X connect 74 0 82 0;
#X connect 75 0 107 0;
#X connect 76 0 71 1;
#X connect 77 0 81 0;
#X connect 78 0 77 0;
#X connect 79 0 86 0;
#X connect 81 0 83 0;
#X connect 82 0 75 0;
#X connect 83 0 75 1;
#X connect 84 0 85 1;
#X connect 84 0 85 0;
#X connect 85 0 60 1;
#X connect 86 0 87 0;
#X connect 87 0 78 1;
#X connect 87 0 130 0;
#X connect 88 0 57 1;
#X connect 88 0 108 0;
#X connect 89 0 88 0;
#X connect 90 0 37 1;
#X connect 90 0 41 1;
#X connect 90 0 112 0;
#X connect 91 0 90 0;
#X connect 92 0 93 0;
#X connect 93 0 58 1;
#X connect 93 0 109 0;
#X connect 94 0 95 0;
#X connect 95 0 56 1;
#X connect 95 0 132 0;
#X connect 96 0 97 0;
#X connect 97 0 76 0;
#X connect 97 0 63 1;
#X connect 97 0 131 0;
#X connect 98 0 99 0;
#X connect 99 0 52 0;
#X connect 99 1 100 0;
#X connect 100 1 103 0;
#X connect 101 0 102 0;
#X connect 102 0 104 0;
#X connect 103 1 101 0;
#X connect 104 0 69 0;
#X connect 104 0 35 0;
#X connect 104 1 105 0;
#X connect 105 0 65 0;
#X connect 105 1 106 0;
#X connect 106 0 84 0;
#X connect 113 0 21 1;
#X connect 114 0 20 1;
#X connect 115 0 29 1;
#X connect 116 0 32 1;
#X connect 117 0 30 0;
#X connect 118 0 24 0;
#X connect 119 0 117 0;
#X connect 119 1 30 1;
#X connect 119 2 21 0;
#X connect 119 3 20 0;
#X connect 119 4 29 0;
#X connect 119 5 32 0;
#X connect 119 6 31 0;
#X connect 119 7 120 0;
#X connect 120 0 30 7;
#X connect 121 0 31 1;
#X connect 122 0 120 1;
#X connect 123 0 125 0;
#X connect 123 1 126 0;
#X connect 123 2 127 0;
#X connect 123 3 128 0;
#X connect 123 4 129 0;
#X connect 123 5 124 0;
#X connect 133 0 110 0;
#X connect 140 0 138 0;
#X connect 141 0 136 0;
#X connect 142 0 137 0;
#X connect 143 0 134 0;
#X connect 144 0 135 0;
#X connect 145 0 139 0;
#X coords 0 -1 1 1 129 204 1 100 100;
