#N canvas 0 0 1423 798 10;
#X obj 185 232 keyname;
#X symbolatom 226 267 10 0 0 0 - - -, f 10;
#X obj 216 332 t b b;
#X obj 263 334 t b b;
#X obj 164 428 f;
#X obj 285 427 +;
#X obj 212 410 clip 0 127;
#X floatatom 166 471 5 0 0 0 - - -, f 5;
#X floatatom 162 262 5 0 0 0 - - -, f 5;
#X obj 142 287 sel 1 0;
#X msg 135 311 1;
#X msg 166 309 0;
#X obj 167 503 outlet;
#X obj 101 102 cnv 15 62 40 empty empty LeftRight 4 7 0 10 -99865 -260097
0;
#X obj 110 123 nbx 3 14 -1e+037 1e+037 0 0 \$0show_s \$0show empty
0 -8 0 12 -262144 -1 -1 0 256 0;
#X obj 230 492 s \$0show;
#X obj 227 299 sel Left Right;
#X msg 279 378 -0.25;
#X msg 353 368 0.25;
#X obj 142 344 metro 20;
#X connect 0 0 8 0;
#X connect 0 1 1 0;
#X connect 1 0 16 0;
#X connect 2 0 4 0;
#X connect 2 1 17 0;
#X connect 3 0 4 0;
#X connect 3 1 18 0;
#X connect 4 0 5 0;
#X connect 4 0 7 0;
#X connect 5 0 6 0;
#X connect 6 0 4 1;
#X connect 7 0 12 0;
#X connect 7 0 15 0;
#X connect 8 0 9 0;
#X connect 9 0 10 0;
#X connect 9 1 11 0;
#X connect 10 0 19 0;
#X connect 11 0 19 0;
#X connect 16 0 2 0;
#X connect 16 1 3 0;
#X connect 17 0 5 1;
#X connect 18 0 5 1;
#X connect 19 0 1 0;
#X coords 0 -1 1 1 64 44 1 100 100;
