#N canvas 0 0 1423 798 10;
#X obj 678 -238 keyname;
#X obj 688 110 bng 15 250 50 0 empty empty empty 17 7 0 10 -262144
-1 -1;
#X obj 721 110 bng 15 250 50 0 empty empty empty 17 7 0 10 -262144
-1 -1;
#X obj 752 114 bng 15 250 50 0 empty empty empty 17 7 0 10 -262144
-1 -1;
#X obj 785 114 bng 15 250 50 0 empty empty empty 17 7 0 10 -262144
-1 -1;
#X obj 816 116 bng 15 250 50 0 empty empty empty 17 7 0 10 -262144
-1 -1;
#X obj 676 -203 pack f s;
#X obj 676 -176 route 1 0;
#X obj 689 150 onebang;
#X obj 720 176 onebang;
#X obj 749 203 onebang;
#X obj 781 236 onebang;
#X obj 810 263 onebang;
#X obj 679 -79 list2symbol;
#X obj 964 -156 bng 15 250 50 0 empty empty empty 17 7 0 10 -262144
-1 -1;
#X obj 994 -151 bng 15 250 50 0 empty empty empty 17 7 0 10 -262144
-1 -1;
#X obj 1025 -147 bng 15 250 50 0 empty empty empty 17 7 0 10 -262144
-1 -1;
#X obj 1058 -147 bng 15 250 50 0 empty empty empty 17 7 0 10 -262144
-1 -1;
#X obj 1089 -145 bng 15 250 50 0 empty empty empty 17 7 0 10 -262144
-1 -1;
#X obj 856 -179 list2symbol;
#X obj 685 308 bng 15 250 50 0 empty empty empty 17 7 0 10 -262144
-1 -1;
#X obj 718 308 bng 15 250 50 0 empty empty empty 17 7 0 10 -262144
-1 -1;
#X obj 749 312 bng 15 250 50 0 empty empty empty 17 7 0 10 -262144
-1 -1;
#X obj 782 312 bng 15 250 50 0 empty empty empty 17 7 0 10 -262144
-1 -1;
#X obj 813 314 bng 15 250 50 0 empty empty empty 17 7 0 10 -262144
-1 -1;
#X obj 1289 -145 loadbang;
#X obj 760 65 sel Space Down Up Left Right w a s d f g;
#X obj 868 115 bng 15 250 50 0 empty empty empty 17 7 0 10 -262144
-1 -1;
#X obj 901 115 bng 15 250 50 0 empty empty empty 17 7 0 10 -262144
-1 -1;
#X obj 932 119 bng 15 250 50 0 empty empty empty 17 7 0 10 -262144
-1 -1;
#X obj 965 119 bng 15 250 50 0 empty empty empty 17 7 0 10 -262144
-1 -1;
#X obj 996 121 bng 15 250 50 0 empty empty empty 17 7 0 10 -262144
-1 -1;
#X obj 869 155 onebang;
#X obj 900 181 onebang;
#X obj 929 208 onebang;
#X obj 961 241 onebang;
#X obj 990 268 onebang;
#X obj 865 313 bng 15 250 50 0 empty empty empty 17 7 0 10 -262144
-1 -1;
#X obj 898 313 bng 15 250 50 0 empty empty empty 17 7 0 10 -262144
-1 -1;
#X obj 929 317 bng 15 250 50 0 empty empty empty 17 7 0 10 -262144
-1 -1;
#X obj 962 317 bng 15 250 50 0 empty empty empty 17 7 0 10 -262144
-1 -1;
#X obj 993 319 bng 15 250 50 0 empty empty empty 17 7 0 10 -262144
-1 -1;
#X obj 1032 119 bng 15 250 50 0 empty empty empty 17 7 0 10 -262144
-1 -1;
#X obj 1028 293 onebang;
#X obj 1029 317 bng 15 250 50 0 empty empty empty 17 7 0 10 -262144
-1 -1;
#X obj 1022 -180 sel Space Down Up Left Right w a s d f g;
#X obj 1239 138 cursor;
#X obj 1239 196 route x y;
#X obj 1239 40 tgl 15 0 empty empty empty 17 7 0 10 -262144 -1 -1 1
1;
#X obj 1239 162 route motion mousewheel button;
#X text 1258 37 turn on to get mouse motion and buttons;
#X obj 1357 188 route 1 2 3;
#X obj 1189 324 tgl 15 0 empty empty empty 17 7 0 10 -262144 -1 -1
0 1;
#X obj 1210 324 tgl 15 0 empty empty empty 17 7 0 10 -262144 -1 -1
0 1;
#X text 1270 56 Purr Data Note: the [cursor] convenience abstraction
still receives mouse motion data even when the toggle is off. It just
doesn't forward it to the outlet.;
#X obj 1239 -4 loadbang;
#X obj 1230 326 tgl 15 0 empty empty empty 17 7 0 10 -262144 -1 -1
1 1;
#X floatatom 1092 320 5 0 0 0 - - -, f 5;
#X floatatom 1140 322 5 0 0 0 - - -, f 5;
#X obj 682 353 outlet;
#X obj 712 373 outlet;
#X obj 745 396 outlet;
#X obj 775 416 outlet;
#X obj 873 355 outlet;
#X obj 903 375 outlet;
#X obj 936 398 outlet;
#X obj 966 418 outlet;
#X obj 802 441 outlet;
#X obj 982 437 outlet;
#X obj 1015 459 outlet;
#X obj 1094 365 outlet;
#X obj 1124 385 outlet;
#X obj 1140 404 outlet;
#X obj 1173 426 outlet;
#X obj 101 101 cnv 15 516 53 empty empty MakeyMain 7 7 0 14 -99865
-260097 0;
#X obj 483 135 nbx 4 14 -1e+037 1e+037 0 0 \$0show_s \$0show Maus\ X
0 -8 0 8 -262144 -1 -262144 820 256 0;
#X obj 101 135 bng 15 250 50 0 empty empty Space 0 -10 0 9 -262144
-260097 -262144;
#X obj 133 135 bng 15 250 50 0 empty empty Down 0 -10 0 9 -262144 -260097
-262144;
#X obj 169 135 bng 15 250 50 0 empty empty Up 1 -10 0 9 -262144 -260097
-262144;
#X obj 205 135 bng 15 250 50 0 empty empty Left -5 -10 0 9 -262144
-260097 -262144;
#X obj 241 135 bng 15 250 50 0 empty empty Right -8 -10 0 9 -262144
-260097 -262144;
#X obj 278 135 bng 15 250 50 0 empty empty w 4 -10 0 10 -262144 -260097
-262144;
#X obj 314 135 bng 15 250 50 0 empty empty a 4 -10 0 10 -262144 -260097
-262144;
#X obj 351 135 bng 15 250 50 0 empty empty s 4 -10 0 10 -262144 -260097
-262144;
#X obj 388 135 bng 15 250 50 0 empty empty d 4 -10 0 10 -262144 -260097
-262144;
#X obj 424 135 bng 15 250 50 0 empty empty f 4 -10 0 10 -262144 -260097
-262144;
#X obj 460 135 bng 15 250 50 0 empty empty g 4 -10 0 10 -262144 -260097
-262144;
#X obj 524 135 nbx 4 14 -1e+037 1e+037 0 0 \$0show_s \$0show Maus\ Y
0 -8 0 8 -262144 -1 -262144 105 256 0;
#X obj 1169 358 sel 1;
#X obj 1237 374 sel 1;
#X obj 569 135 bng 15 250 50 0 empty empty Btn1 -4 -10 0 9 -262144
-260097 -262144;
#X obj 602 135 bng 15 250 50 0 empty empty Btn2 -8 -10 0 9 -262144
-260097 -262144;
#X symbolatom 535 -128 10 0 0 0 - - -, f 10;
#X connect 0 0 6 0;
#X connect 0 1 6 1;
#X connect 0 1 92 0;
#X connect 1 0 8 0;
#X connect 2 0 9 0;
#X connect 3 0 10 0;
#X connect 4 0 11 0;
#X connect 5 0 12 0;
#X connect 6 0 7 0;
#X connect 7 0 13 0;
#X connect 7 1 19 0;
#X connect 8 0 20 0;
#X connect 9 0 21 0;
#X connect 10 0 22 0;
#X connect 11 0 23 0;
#X connect 12 0 24 0;
#X connect 13 0 26 0;
#X connect 14 0 8 1;
#X connect 14 0 20 0;
#X connect 15 0 9 1;
#X connect 16 0 10 1;
#X connect 17 0 11 1;
#X connect 18 0 12 1;
#X connect 19 0 45 0;
#X connect 20 0 59 0;
#X connect 20 0 76 0;
#X connect 21 0 60 0;
#X connect 21 0 77 0;
#X connect 22 0 61 0;
#X connect 22 0 78 0;
#X connect 23 0 62 0;
#X connect 23 0 79 0;
#X connect 24 0 67 0;
#X connect 24 0 80 0;
#X connect 25 0 12 1;
#X connect 25 0 11 1;
#X connect 25 0 10 1;
#X connect 25 0 9 1;
#X connect 25 0 8 1;
#X connect 25 0 33 1;
#X connect 25 0 43 1;
#X connect 25 0 36 1;
#X connect 25 0 35 1;
#X connect 25 0 34 1;
#X connect 25 0 32 1;
#X connect 26 0 1 0;
#X connect 26 1 2 0;
#X connect 26 2 3 0;
#X connect 26 3 4 0;
#X connect 26 4 5 0;
#X connect 26 5 27 0;
#X connect 26 6 28 0;
#X connect 26 7 29 0;
#X connect 26 8 30 0;
#X connect 26 9 31 0;
#X connect 26 10 42 0;
#X connect 27 0 32 0;
#X connect 28 0 33 0;
#X connect 29 0 34 0;
#X connect 30 0 35 0;
#X connect 31 0 36 0;
#X connect 32 0 37 0;
#X connect 33 0 38 0;
#X connect 34 0 39 0;
#X connect 35 0 40 0;
#X connect 36 0 41 0;
#X connect 37 0 63 0;
#X connect 37 0 81 0;
#X connect 38 0 64 0;
#X connect 38 0 82 0;
#X connect 39 0 65 0;
#X connect 39 0 83 0;
#X connect 40 0 66 0;
#X connect 40 0 84 0;
#X connect 41 0 68 0;
#X connect 41 0 85 0;
#X connect 42 0 43 0;
#X connect 43 0 44 0;
#X connect 44 0 69 0;
#X connect 44 0 86 0;
#X connect 45 0 14 0;
#X connect 45 1 15 0;
#X connect 45 2 16 0;
#X connect 45 3 17 0;
#X connect 45 4 18 0;
#X connect 45 5 32 1;
#X connect 45 6 33 1;
#X connect 45 7 34 1;
#X connect 45 8 35 1;
#X connect 45 9 36 1;
#X connect 45 10 43 1;
#X connect 46 0 49 0;
#X connect 47 0 57 0;
#X connect 47 1 58 0;
#X connect 48 0 46 0;
#X connect 49 0 47 0;
#X connect 49 2 51 0;
#X connect 51 0 52 0;
#X connect 51 1 53 0;
#X connect 51 2 56 0;
#X connect 52 0 88 0;
#X connect 55 0 48 0;
#X connect 56 0 89 0;
#X connect 57 0 70 0;
#X connect 57 0 75 0;
#X connect 58 0 71 0;
#X connect 58 0 87 0;
#X connect 88 0 72 0;
#X connect 88 0 90 0;
#X connect 89 0 73 0;
#X connect 89 0 91 0;
#X coords 0 -1 1 1 518 57 1 100 100;
