#N canvas 0 0 1423 798 10;
#X obj 102 102 cnv 15 110 40 empty empty midibridge 5 8 0 16 -199729
-1 0;
#X obj 258 35 notein;
#X floatatom 258 57 5 0 0 0 - - -;
#X floatatom 299 96 5 0 0 0 - - -;
#X floatatom 303 57 5 0 0 0 - - -;
#X obj 255 110 mtof;
#X obj 255 149 pack f f;
#X obj 249 217 outlet;
#X obj 107 123 hsl 60 15 0 127 0 0 \$0channel \$0channel_r channel
8 7 0 10 -262144 -260097 -1 46 1;
#X obj 174 125 nbx 3 12 -1e+037 1e+037 0 0 \$0chshow \$0chshow_r empty
0 -8 0 10 -262144 -1 -1 0 256;
#X obj 514 133 r \$0channel;
#X obj 511 209 s \$0chshow_r;
#X obj 514 164 int;
#X obj 341 152 ==;
#X obj 256 177 spigot;
#X obj 783 267 r toolssavebank;
#X obj 994 131 r toolssavebang;
#X obj 1158 315 f;
#X obj 1068 423 s toolssavelists;
#X obj 1023 235 f;
#X obj 786 332 route;
#X obj 1144 76 loadbang;
#X obj 1145 132 \$1;
#X obj 1144 104 del 5;
#X obj 1023 194 del;
#X obj 1021 284 t b f b b;
#X obj 1068 380 pack s f f;
#X obj 786 302 route midibridge;
#X obj 1015 335 symbol midibridge;
#X obj 1173 275 r \$0channel;
#X obj 783 428 s \$0channel_r;
#X obj 771 91 loadbang;
#X msg 770 116 1;
#X obj 770 144 s \$0channel_r;
#X connect 1 0 2 0;
#X connect 1 1 3 0;
#X connect 1 2 4 0;
#X connect 2 0 5 0;
#X connect 3 0 6 1;
#X connect 4 0 13 0;
#X connect 5 0 6 0;
#X connect 6 0 14 0;
#X connect 10 0 12 0;
#X connect 12 0 11 0;
#X connect 12 0 13 1;
#X connect 13 0 14 1;
#X connect 14 0 7 0;
#X connect 15 0 27 0;
#X connect 16 0 24 0;
#X connect 17 0 26 2;
#X connect 19 0 25 0;
#X connect 20 0 30 0;
#X connect 21 0 23 0;
#X connect 22 0 19 1;
#X connect 22 0 20 1;
#X connect 22 0 24 1;
#X connect 23 0 22 0;
#X connect 24 0 19 0;
#X connect 25 0 28 0;
#X connect 25 1 26 1;
#X connect 25 2 17 0;
#X connect 26 0 18 0;
#X connect 27 0 20 0;
#X connect 28 0 26 0;
#X connect 29 0 17 1;
#X connect 31 0 32 0;
#X connect 32 0 33 0;
#X coords 0 -1 1 1 114 44 1 100 100;
