#N canvas 34 57 1354 683 10;
#X obj 102 102 cnv 15 206 170 empty empty osc 154 18 0 20 -33289 -262144
0;
#X obj 233 166 vradio 17 1 0 5 \$0-waveform_VCO \$0waveform_VCO_in
Form -5 -10 0 11 -162280 -260097 -262144 0;
#X obj 253 253 nbx 4 14 -1e+037 1e+037 0 0 empty \$0-pulse_width_VCO
empty 0 -8 0 11 -99865 -260097 -260097 0.501 256 0;
#X obj 256 236 hsl 30 15 0 0.975 0 0 \$0-pulse_width_VCO \$0-pulse_width_VCO_r
Width -2 -8 0 10 -162280 -260097 -262144 1490 1;
#X obj 169 134 vsl 20 70 0.127 127 0 0 \$0Freq \$0Freq_r Frequenz 0
-9 0 12 -162280 -260097 -262144 2709 1;
#X obj 105 125 cnv 10 5 5 empty empty Input--- 0 0 0 12 -33289 -262144
0;
#X obj 105 106 cnv 10 2 2 empty empty | 0 5 0 12 -33289 -262144 0;
#X obj 137 208 nbx 5 14 -1e+037 1e+037 0 0 \$0freqshow_s \$0freqshow
empty 0 -8 0 11 -99865 -260097 -260097 334 256 0;
#X obj -226 65 inlet;
#X obj -201 537 outlet~;
#X obj 754 -116 loadbang;
#X obj 762 64 s \$0Freq_r;
#X obj 210 174 cnv 5 1 1 empty empty sin 0 0 0 10 -33289 -262144 0
;
#X obj 210 191 cnv 5 1 1 empty empty rec 0 0 0 10 -33289 -262144 0
;
#X obj 210 208 cnv 5 1 1 empty empty saw 0 0 0 10 -33289 -262144 0
;
#X obj 210 226 cnv 5 1 1 empty empty tri 0 0 0 10 -33289 -262144 0
;
#X obj 211 242 cnv 5 1 1 empty empty pls 0 0 0 10 -33289 -262144 0
;
#X obj 855 -14 s \$0-pulse_width_VCO_r;
#X msg 850 -36 0.501;
#X msg 635 -36 0;
#X obj 630 18 s \$0waveform_VCO_in;
#N canvas 418 0 867 683 voice 0;
#X obj 55 74 unpack f f;
#N canvas 429 242 526 186 VCO1 0;
#X obj -215 -79 inlet~;
#X obj -59 0 switch~;
#X obj -59 -54 + 1;
#X obj -214 70 outlet~;
#X obj -59 -27 == 1;
#X obj -215 13 osc~;
#X text -174 10 Sinusschwingung;
#X text -17 -49 Der Oscillator ist nur aktiviert \, wenn er in der
GUI ausgewählt ist;
#X obj -59 -78 r \$0-waveform_VCO;
#X connect 0 0 5 0;
#X connect 2 0 4 0;
#X connect 4 0 1 0;
#X connect 5 0 3 0;
#X connect 8 0 2 0;
#X restore 55 240 pd VCO1;
#N canvas 453 243 488 252 VCO2 0;
#X obj -210 7 inlet~;
#X obj -83 89 switch~;
#X obj -83 31 + 1;
#X obj -210 196 outlet~;
#X obj -83 62 == 2;
#X obj -210 88 phasor~;
#X obj -210 142 -~ 0.5;
#X obj -210 169 *~ 2;
#X obj -210 115 expr~ $v1 > 0.5;
#X text -53 25 Der Oscillator ist nur aktiviert \, wenn er in der GUI
ausgewählt ist;
#X text -159 137 Rechteckschwingung;
#X obj -83 7 r \$0-waveform_VCO;
#X connect 0 0 5 0;
#X connect 2 0 4 0;
#X connect 4 0 1 0;
#X connect 5 0 8 0;
#X connect 6 0 7 0;
#X connect 7 0 3 0;
#X connect 8 0 6 0;
#X connect 11 0 2 0;
#X restore 110 240 pd VCO2;
#N canvas 397 255 527 146 VCO3 0;
#X obj -182 -40 inlet~;
#X obj -24 39 switch~;
#X obj -24 -14 + 1;
#X obj -183 65 outlet~;
#X obj -182 -13 phasor~;
#X obj -182 14 -~ 0.5;
#X obj -183 42 *~ 2;
#X text 11 -12 Der Oscillator ist nur aktiviert \, wenn er in der GUI
ausgewählt ist;
#X text -145 29 Sägezahnschwingung;
#X obj -24 12 == 3;
#X obj -24 -37 r \$0-waveform_VCO;
#X connect 0 0 4 0;
#X connect 2 0 9 0;
#X connect 4 0 5 0;
#X connect 5 0 6 0;
#X connect 6 0 3 0;
#X connect 9 0 1 0;
#X connect 10 0 2 0;
#X restore 167 240 pd VCO3;
#N canvas 517 238 456 302 VCO5 0;
#X obj -181 -40 inlet~;
#X obj -99 41 switch~;
#X obj -99 -13 + 1;
#X obj -181 224 outlet~;
#X obj -181 44 phasor~;
#X obj -160 91 *~ -1;
#X obj -160 112 +~ 1;
#X obj -182 152 min~;
#X obj -182 174 *~ 4;
#X obj -182 197 -~ 1;
#X text -153 134 Dreieckschwingung;
#X text -66 -9 Der Oscillator ist nur aktiviert \, wenn er in der GUI
ausgewählt ist;
#X obj -99 14 == 4;
#X obj -99 -33 r \$0-waveform_VCO;
#X connect 0 0 4 0;
#X connect 2 0 12 0;
#X connect 4 0 5 0;
#X connect 4 0 7 0;
#X connect 5 0 6 0;
#X connect 6 0 7 1;
#X connect 7 0 8 0;
#X connect 8 0 9 0;
#X connect 9 0 3 0;
#X connect 12 0 1 0;
#X connect 13 0 2 0;
#X restore 219 240 pd VCO5;
#N canvas 16 174 557 274 VCO6 0;
#X obj -182 -40 inlet~;
#X obj -2 28 switch~;
#X obj -2 -26 + 1;
#X obj -181 184 outlet~;
#X obj -181 -11 phasor~;
#X obj -180 146 expr~ $v1 > $v2;
#X floatatom -93 85 5 0 100 0 - - -, f 5;
#X obj -93 110 + 0.02;
#X text 34 -22 Der Oscillator ist nur aktiviert \, wenn er in der GUI
ausgewählt ist;
#X text -76 146 Pulsschwingung;
#X text -53 85 Breite des Puls;
#X obj -2 1 == 5;
#X obj -93 56 r \$0-pulse_width_VCO;
#X obj -2 -46 r \$0-waveform_VCO;
#X connect 0 0 4 0;
#X connect 2 0 11 0;
#X connect 4 0 5 0;
#X connect 5 0 3 0;
#X connect 6 0 7 0;
#X connect 7 0 5 1;
#X connect 11 0 1 0;
#X connect 12 0 6 0;
#X connect 13 0 2 0;
#X restore 276 240 pd VCO6;
#X obj 76 40 inlet;
#X obj 101 509 outlet~;
#X obj 55 102 sig~;
#X obj 55 131 *~;
#X obj 408 33 r \$0det;
#X floatatom 410 98 10 0 0 0 - - -, f 10;
#X obj 409 53 / 1098.71;
#X obj 410 76 + 0.942207;
#X obj 310 30 / 63.5;
#X obj 308 56 - 1;
#X obj 301 84 s \$0detshow;
#X obj 24 8 r \$0freqshow;
#X obj 102 468 *~ 1;
#X connect 0 0 8 0;
#X connect 1 0 18 0;
#X connect 2 0 18 0;
#X connect 3 0 18 0;
#X connect 4 0 18 0;
#X connect 5 0 18 0;
#X connect 6 0 0 0;
#X connect 8 0 9 0;
#X connect 9 0 1 0;
#X connect 9 0 2 0;
#X connect 9 0 3 0;
#X connect 9 0 4 0;
#X connect 9 0 5 0;
#X connect 10 0 12 0;
#X connect 10 0 14 0;
#X connect 11 0 9 1;
#X connect 12 0 13 0;
#X connect 13 0 11 0;
#X connect 14 0 15 0;
#X connect 15 0 16 0;
#X connect 17 0 8 0;
#X connect 18 0 7 0;
#X restore -206 382 pd voice 1;
#X obj -141 -92 r \$0on;
#X obj 14 -49 s \$0freqshow;
#X obj -142 -66 * 127;
#X obj -154 32 pack f f;
#X obj -140 -32 t b f;
#X obj -151 -5 f;
#X obj -148 488 *~ 0.25;
#X obj 1551 -199 r toolssavebank;
#X obj 1761 -282 r toolssavebang;
#X obj 1980 -92 f;
#X obj 1925 -98 f;
#X obj 1835 10 s toolssavelists;
#X obj 1790 -178 f;
#X obj 1553 -81 route;
#X obj 1911 -337 loadbang;
#X obj 1912 -281 \$1;
#X obj 1911 -309 del 5;
#X obj 1790 -219 del;
#X obj 2052 -64 f;
#X obj 1502 107 s \$0Freq_r;
#X obj 1529 74 s \$0att_r;
#X obj 1589 106 s \$0rel_r;
#X obj 1617 76 s \$0sus_r;
#X obj 1662 106 s \$0-pulse_width_VCO_r;
#X obj 1390 79 s \$0waveform_VCO_in;
#X obj 2012 -149 r \$0Freq;
#X obj 2074 -125 r \$0att;
#X obj 2104 -97 r \$0rel;
#X obj 2172 -99 r \$0sus;
#X obj 2303 -90 r \$0-pulse_width_VCO;
#X obj 2142 -51 f;
#X obj 2087 -57 f;
#X obj 2214 -23 f;
#X obj 1782 -78 symbol osci;
#X obj 1553 -111 route osci;
#X obj 1946 -180 r \$0-waveform_VCO;
#X obj 362 -64 inlet;
#X obj 324 -72 inlet;
#X obj 383 -5 inlet;
#X obj 109 236 hsl 40 15 0 127 0 0 \$0det \$0det_r detune 5 -8 0 10
-162280 -260097 -262144 1950 1;
#X obj 109 253 nbx 4 14 -1e+037 1e+037 0 0 empty \$0detshow empty 0
-8 0 11 -99865 -260097 -260097 0 256 0;
#X obj 799 201 s \$0det_r;
#X msg 806 144 63.5;
#X obj 159 256 bng 10 250 50 0 \$0nodet \$0nodet_r empty 17 7 0 10
-262144 -1 -1;
#X obj -38 195 r \$0nodet;
#X msg -37 221 63.5;
#X obj -37 256 s \$0det_r;
#X obj 497 -15 inlet;
#X obj 1788 -129 t b f b b b b b b b;
#X obj 1836 -25 pack s f f f f f f f f;
#X obj 2367 -40 r \$0det;
#X obj 2291 18 f;
#X obj 1552 -57 unpack f f f f f f f;
#X obj 1703 16 s \$0det_r;
#X obj -24 -195 r \$0Freq;
#X obj -30 -95 mtof;
#X obj -24 -127 + 21;
#X obj -25 -164 / 1.155;
#X obj -55 -63 int;
#X msg 749 -4 55.4462;
#X obj 117 162 tgl 30 0 \$0on \$0on_r Ton 2 -10 0 14 -162280 -260097
-262144 1 1;
#X obj -171 437 *~;
#X obj -64 346 r \$0on;
#X obj -66 396 line~;
#X msg -62 368 \$1 25;
#X msg -195 196 \$1;
#X obj -227 124 route 0;
#X obj -228 94 zl rev;
#X obj -196 157 zl rev;
#X obj 375 30 / 127;
#X connect 8 0 89 0;
#X connect 10 0 81 0;
#X connect 10 0 18 0;
#X connect 10 0 19 0;
#X connect 10 0 64 0;
#X connect 18 0 17 0;
#X connect 19 0 20 0;
#X connect 21 0 83 0;
#X connect 22 0 24 0;
#X connect 24 0 26 0;
#X connect 25 0 21 0;
#X connect 26 0 27 0;
#X connect 26 1 25 1;
#X connect 27 0 25 0;
#X connect 28 0 9 0;
#X connect 29 0 56 0;
#X connect 30 0 39 0;
#X connect 31 0 71 3;
#X connect 32 0 71 2;
#X connect 34 0 70 0;
#X connect 35 0 74 0;
#X connect 36 0 38 0;
#X connect 37 0 34 1;
#X connect 37 0 35 1;
#X connect 37 0 39 1;
#X connect 38 0 37 0;
#X connect 39 0 34 0;
#X connect 40 0 71 4;
#X connect 47 0 31 1;
#X connect 48 0 40 1;
#X connect 49 0 53 1;
#X connect 50 0 52 1;
#X connect 51 0 54 1;
#X connect 52 0 71 6;
#X connect 53 0 71 5;
#X connect 54 0 71 7;
#X connect 55 0 71 0;
#X connect 56 0 35 0;
#X connect 57 0 32 1;
#X connect 58 0 4 0;
#X connect 59 0 82 0;
#X connect 60 0 91 0;
#X connect 64 0 63 0;
#X connect 66 0 67 0;
#X connect 67 0 68 0;
#X connect 69 0 61 0;
#X connect 70 0 55 0;
#X connect 70 1 71 1;
#X connect 70 2 32 0;
#X connect 70 3 31 0;
#X connect 70 4 40 0;
#X connect 70 5 53 0;
#X connect 70 6 52 0;
#X connect 70 7 54 0;
#X connect 70 8 73 0;
#X connect 71 0 33 0;
#X connect 72 0 73 1;
#X connect 73 0 71 8;
#X connect 74 0 46 0;
#X connect 74 1 41 0;
#X connect 74 2 42 0;
#X connect 74 3 43 0;
#X connect 74 4 44 0;
#X connect 74 5 45 0;
#X connect 74 6 75 0;
#X connect 76 0 79 0;
#X connect 77 0 80 0;
#X connect 78 0 77 0;
#X connect 79 0 78 0;
#X connect 80 0 27 1;
#X connect 80 0 23 0;
#X connect 81 0 11 0;
#X connect 83 0 28 0;
#X connect 84 0 86 0;
#X connect 85 0 83 1;
#X connect 86 0 85 0;
#X connect 87 0 21 0;
#X connect 88 1 90 0;
#X connect 89 0 88 0;
#X connect 90 0 87 0;
#X connect 91 0 3 0;
#X coords 0 -1 1 1 208 174 1 100 100;
