#N canvas 27 57 703 688 10;
#X obj 102 103 cnv 15 360 170 empty empty Oscidrone 291 157 0 12 -33289
-262144 0;
#X obj 233 167 vradio 17 1 0 5 \$0-waveform_VCO \$0waveform_VCO_in
Form -5 -10 0 11 -162280 -260097 -262144 0;
#X obj 253 254 nbx 4 14 -1e+37 1e+37 0 0 empty \$0-pulse_width_VCO
empty 0 -8 0 11 -99865 -260097 -260097 0.501 256 0;
#X obj 256 237 hsl 30 15 0 0.975 0 0 \$0-pulse_width_VCO \$0-pulse_width_VCO_r
Width -2 -8 0 10 -162280 -260097 -262144 1490 1;
#X obj 353 151 vsl 15 50 0 127 0 0 \$0sus \$0sus_r Sustain -12 -9 0
10 -162280 -260097 -262144 2450 1;
#X obj 284 177 hsl 50 15 0 127 0 0 \$0att \$0att_r Attack 5 -8 0 10
-162280 -260097 -262144 49 1;
#X obj 285 194 nbx 5 14 -1e+37 1e+37 0 0 empty \$0attshow empty 0 -8
0 11 -99865 -260097 -260097 198.11 256 0;
#X obj 390 178 hsl 50 15 0 127 0 0 \$0rel \$0rel_r Release/Decay -10
-8 0 10 -162280 -260097 -262144 49 1;
#X obj 391 195 nbx 5 14 -1e+37 1e+37 0 0 empty \$0relshow empty 0 -8
0 11 -99865 -260097 -260097 198.11 256 0;
#X obj 339 207 nbx 4 14 -1e+37 1e+37 0 0 empty \$0susshow empty 0 -8
0 11 -99865 -260097 -260097 0.5 256 0;
#X obj 169 135 vsl 20 70 0.127 127 0 0 \$0Freq \$0Freq_r Frequenz 0
-9 0 12 -162280 -260097 -262144 3009 1;
#X obj 105 126 cnv 10 5 5 empty empty Input--- 0 0 0 12 -33289 -262144
0;
#X obj 105 107 cnv 10 2 2 empty empty | 0 5 0 12 -33289 -262144 0;
#X obj 137 209 nbx 5 14 -1e+37 1e+37 0 0 \$0freqshow_s \$0freqshow
empty 0 -8 0 11 -99865 -260097 -260097 440 256 0;
#X obj -245 10 inlet;
#X obj -201 537 outlet~;
#X obj 754 -116 loadbang;
#X obj 762 64 s \$0Freq_r;
#X obj 866 4 s \$0att_r;
#X obj 953 12 s \$0rel_r;
#X msg 1037 -13 63.5;
#X obj 1035 7 s \$0sus_r;
#X msg 854 -22 1.258;
#X obj 210 175 cnv 5 1 1 empty empty sin 0 0 0 10 -33289 -262144 0
;
#X obj 210 192 cnv 5 1 1 empty empty rec 0 0 0 10 -33289 -262144 0
;
#X obj 210 209 cnv 5 1 1 empty empty saw 0 0 0 10 -33289 -262144 0
;
#X obj 210 227 cnv 5 1 1 empty empty tri 0 0 0 10 -33289 -262144 0
;
#X obj 211 243 cnv 5 1 1 empty empty pls 0 0 0 10 -33289 -262144 0
;
#X obj 1154 20 s \$0-pulse_width_VCO_r;
#X msg 1149 -2 0.501;
#X msg 635 -36 0;
#X obj 630 18 s \$0waveform_VCO_in;
#N canvas 0 57 703 711 voice 0;
#X obj 102 468 *~;
#X obj 57 -93 unpack f f;
#N canvas 429 242 526 186 VCO1 0;
#X obj -215 -79 inlet~;
#X obj -59 0 switch~;
#X obj -59 -54 + 1;
#X obj -214 70 outlet~;
#X obj -59 -27 == 1;
#X obj -215 13 osc~;
#X text -174 10 Sinusschwingung;
#X text -17 -49 Der Oscillator ist nur aktiviert \, wenn er in der
GUI ausgewählt ist;
#X obj -59 -78 r \$0-waveform_VCO;
#X connect 0 0 5 0;
#X connect 2 0 4 0;
#X connect 4 0 1 0;
#X connect 5 0 3 0;
#X connect 8 0 2 0;
#X restore 55 240 pd VCO1;
#N canvas 453 243 488 252 VCO2 0;
#X obj -210 7 inlet~;
#X obj -83 89 switch~;
#X obj -83 31 + 1;
#X obj -210 196 outlet~;
#X obj -83 62 == 2;
#X obj -210 88 phasor~;
#X obj -210 142 -~ 0.5;
#X obj -210 169 *~ 2;
#X obj -210 115 expr~ $v1 > 0.5;
#X text -53 25 Der Oscillator ist nur aktiviert \, wenn er in der GUI
ausgewählt ist;
#X text -159 137 Rechteckschwingung;
#X obj -83 7 r \$0-waveform_VCO;
#X connect 0 0 5 0;
#X connect 2 0 4 0;
#X connect 4 0 1 0;
#X connect 5 0 8 0;
#X connect 6 0 7 0;
#X connect 7 0 3 0;
#X connect 8 0 6 0;
#X connect 11 0 2 0;
#X restore 110 240 pd VCO2;
#N canvas 397 255 527 146 VCO3 0;
#X obj -182 -40 inlet~;
#X obj -24 39 switch~;
#X obj -24 -14 + 1;
#X obj -183 65 outlet~;
#X obj -182 -13 phasor~;
#X obj -182 14 -~ 0.5;
#X obj -183 42 *~ 2;
#X text 11 -12 Der Oscillator ist nur aktiviert \, wenn er in der GUI
ausgewählt ist;
#X text -145 29 Sägezahnschwingung;
#X obj -24 12 == 3;
#X obj -24 -37 r \$0-waveform_VCO;
#X connect 0 0 4 0;
#X connect 2 0 9 0;
#X connect 4 0 5 0;
#X connect 5 0 6 0;
#X connect 6 0 3 0;
#X connect 9 0 1 0;
#X connect 10 0 2 0;
#X restore 167 240 pd VCO3;
#N canvas 517 238 456 302 VCO5 0;
#X obj -181 -40 inlet~;
#X obj -99 41 switch~;
#X obj -99 -13 + 1;
#X obj -181 224 outlet~;
#X obj -181 44 phasor~;
#X obj -160 91 *~ -1;
#X obj -160 112 +~ 1;
#X obj -182 152 min~;
#X obj -182 174 *~ 4;
#X obj -182 197 -~ 1;
#X text -153 134 Dreieckschwingung;
#X text -66 -9 Der Oscillator ist nur aktiviert \, wenn er in der GUI
ausgewählt ist;
#X obj -99 14 == 4;
#X obj -99 -33 r \$0-waveform_VCO;
#X connect 0 0 4 0;
#X connect 2 0 12 0;
#X connect 4 0 5 0;
#X connect 4 0 7 0;
#X connect 5 0 6 0;
#X connect 6 0 7 1;
#X connect 7 0 8 0;
#X connect 8 0 9 0;
#X connect 9 0 3 0;
#X connect 12 0 1 0;
#X connect 13 0 2 0;
#X restore 219 240 pd VCO5;
#N canvas 16 174 557 274 VCO6 0;
#X obj -182 -40 inlet~;
#X obj -2 28 switch~;
#X obj -2 -26 + 1;
#X obj -181 184 outlet~;
#X obj -181 -11 phasor~;
#X obj -180 146 expr~ $v1 > $v2;
#X floatatom -93 85 5 0 100 0 - - -, f 5;
#X obj -93 110 + 0.02;
#X text 34 -22 Der Oscillator ist nur aktiviert \, wenn er in der GUI
ausgewählt ist;
#X text -76 146 Pulsschwingung;
#X text -53 85 Breite des Puls;
#X obj -2 1 == 5;
#X obj -93 56 r \$0-pulse_width_VCO;
#X obj -2 -46 r \$0-waveform_VCO;
#X connect 0 0 4 0;
#X connect 2 0 11 0;
#X connect 4 0 5 0;
#X connect 5 0 3 0;
#X connect 6 0 7 0;
#X connect 7 0 5 1;
#X connect 11 0 1 0;
#X connect 12 0 6 0;
#X connect 13 0 2 0;
#X restore 276 240 pd VCO6;
#X obj 57 -126 inlet;
#X obj 101 509 outlet~;
#X obj 56 -10 sig~;
#X obj 55 131 *~;
#X obj 408 33 r \$0det;
#X floatatom 410 98 10 0 0 0 - - -, f 10;
#X obj 409 53 / 1098.71;
#X obj 410 76 + 0.942207;
#X obj 310 30 / 63.5;
#X obj 308 56 - 1;
#X obj 301 84 s \$0detshow;
#X obj 26 -159 r \$0freqshow;
#X obj 394 336 r \$0att;
#X obj 528 337 r \$0rel;
#X obj 458 155 r \$0sus;
#X obj 458 188 / 127;
#X obj 458 605 vline~;
#X obj 694 167 moses 1;
#X floatatom 695 199 5 0 0 0 - - -, f 5;
#X floatatom 748 224 5 0 0 0 - - -, f 5;
#X obj 502 505 pack f f;
#X obj 747 200 / 127;
#X obj 390 453 pack f f f f;
#X msg 372 499 \$1 \$2 \, \$3 \$4 \$2;
#X obj 392 405 s \$0attshow;
#X obj 370 235 s \$0susshow;
#X obj 561 404 s \$0relshow;
#X obj 475 269 *;
#X obj 491 210 t b f;
#X obj 461 240 f;
#X obj 356 423 f;
#X obj 470 338 t b f;
#X obj 727 255 t f f;
#X obj 58 -30 line;
#X obj 58 -55 pack 0 0;
#X obj 168 -102 r \$0glideshow;
#X obj 136 -35 r~ \$0fmsignal;
#X obj 61 97 +~;
#X obj 138 64 *~;
#X obj 192 62 line~;
#X obj 192 -8 r \$0fm-int;
#X msg 192 37 \$1 15;
#X obj 192 14 pow 2.1;
#X obj 394 369 * 157.48;
#X obj 528 370 * 157.48;
#X obj 485 420 * 39.3701;
#X connect 0 0 8 0;
#X connect 1 0 41 0;
#X connect 1 1 24 0;
#X connect 2 0 0 0;
#X connect 3 0 0 0;
#X connect 4 0 0 0;
#X connect 5 0 0 0;
#X connect 6 0 0 0;
#X connect 7 0 1 0;
#X connect 9 0 44 0;
#X connect 10 0 2 0;
#X connect 10 0 3 0;
#X connect 10 0 4 0;
#X connect 10 0 5 0;
#X connect 10 0 6 0;
#X connect 11 0 13 0;
#X connect 11 0 15 0;
#X connect 12 0 10 1;
#X connect 13 0 14 0;
#X connect 14 0 12 0;
#X connect 15 0 16 0;
#X connect 16 0 17 0;
#X connect 18 0 41 0;
#X connect 19 0 50 0;
#X connect 20 0 51 0;
#X connect 20 0 52 0;
#X connect 21 0 22 0;
#X connect 22 0 32 0;
#X connect 22 0 36 1;
#X connect 23 0 0 1;
#X connect 24 0 25 0;
#X connect 24 1 28 0;
#X connect 25 0 27 0;
#X connect 26 0 39 0;
#X connect 27 0 23 0;
#X connect 28 0 26 0;
#X connect 29 0 30 0;
#X connect 30 0 23 0;
#X connect 34 0 38 0;
#X connect 35 0 36 0;
#X connect 35 1 34 1;
#X connect 36 0 34 0;
#X connect 37 0 29 0;
#X connect 38 0 37 0;
#X connect 38 1 29 2;
#X connect 39 0 35 0;
#X connect 39 1 37 1;
#X connect 40 0 9 0;
#X connect 41 0 40 0;
#X connect 42 0 41 1;
#X connect 43 0 45 0;
#X connect 44 0 10 0;
#X connect 45 0 44 1;
#X connect 46 0 45 1;
#X connect 47 0 49 0;
#X connect 48 0 46 0;
#X connect 49 0 48 0;
#X connect 50 0 29 1;
#X connect 50 0 31 0;
#X connect 51 0 27 1;
#X connect 51 0 33 0;
#X connect 52 0 29 3;
#X restore -224 353 pd voice 1;
#X obj -226 149 pack 0 0 0;
#X obj -224 186 route 1 2 3 4;
#X obj -226 119 poly 4 1;
#X obj 117 163 tgl 30 0 \$0on \$0on_r Ton 2 -10 0 14 -162280 -260097
-262144 0 1;
#X obj -141 -92 r \$0on;
#X obj 14 -49 s \$0freqshow;
#X obj -142 -66 * 127;
#X obj -154 32 pack f f;
#X obj -140 -32 t b f;
#X obj -151 -5 f;
#X obj -43 20 sel 0;
#X msg -80 93 stop;
#X obj 53 -8 route stop;
#X obj 48 27 bng 15 250 50 0 empty empty empty 17 7 0 10 -262144 -1
-1;
#X obj -148 488 *~ 0.25;
#X obj 1551 -199 r toolssavebank;
#X obj 1761 -282 r toolssavebang;
#X obj 1980 -92 f;
#X obj 1925 -98 f;
#X obj 1835 10 s toolssavelists;
#X obj 1790 -178 f;
#X obj 1553 -81 route;
#X obj 1911 -337 loadbang;
#X obj 1912 -281 \$1;
#X obj 1911 -309 del 5;
#X obj 1790 -219 del;
#X obj 2052 -64 f;
#X obj 1502 107 s \$0Freq_r;
#X obj 1529 74 s \$0att_r;
#X obj 1589 106 s \$0rel_r;
#X obj 1617 76 s \$0sus_r;
#X obj 1662 106 s \$0-pulse_width_VCO_r;
#X obj 1390 79 s \$0waveform_VCO_in;
#X obj 2012 -149 r \$0Freq;
#X obj 2074 -125 r \$0att;
#X obj 2104 -97 r \$0rel;
#X obj 2172 -99 r \$0sus;
#X obj 2303 -90 r \$0-pulse_width_VCO;
#X obj 2142 -51 f;
#X obj 2087 -57 f;
#X obj 2214 -23 f;
#X obj 1946 -180 r \$0-waveform_VCO;
#X obj 362 -64 inlet;
#X obj 381 -40 inlet;
#X obj 391 -30 inlet;
#X obj 401 -20 inlet;
#X obj 324 -72 inlet;
#X obj 442 -13 inlet;
#X obj 109 237 hsl 40 15 0 127 0 0 \$0det \$0det_r detune 4 6 0 10
-162280 -260097 -262144 1950 1;
#X obj 109 254 nbx 5 14 -1e+37 1e+37 0 0 empty \$0detshow empty 0 -8
0 11 -99865 -260097 -260097 0 256 0;
#X obj 799 201 s \$0det_r;
#X msg 806 144 63.5;
#X obj 169 257 bng 10 250 50 0 \$0nodet \$0nodet_r empty 17 7 0 10
-262144 -1 -1;
#X obj -38 195 r \$0nodet;
#X msg -37 221 63.5;
#X obj -37 256 s \$0det_r;
#X obj 497 -15 inlet;
#X obj 2367 -40 r \$0det;
#X obj 2291 18 f;
#X obj 1671 18 s \$0det_r;
#X obj -24 -195 r \$0Freq;
#X obj -30 -95 mtof;
#X obj -24 -127 + 21;
#X obj -25 -164 / 1.155;
#X obj -55 -63 int;
#X msg 749 -4 55.4462;
#N canvas 418 79 867 821 voice 0;
#X obj 102 468 *~;
#X obj 54 -112 unpack f f;
#N canvas 429 242 526 186 VCO1 0;
#X obj -215 -79 inlet~;
#X obj -59 0 switch~;
#X obj -59 -54 + 1;
#X obj -214 70 outlet~;
#X obj -59 -27 == 1;
#X obj -215 13 osc~;
#X text -174 10 Sinusschwingung;
#X text -17 -49 Der Oscillator ist nur aktiviert \, wenn er in der
GUI ausgewählt ist;
#X obj -59 -78 r \$0-waveform_VCO;
#X connect 0 0 5 0;
#X connect 2 0 4 0;
#X connect 4 0 1 0;
#X connect 5 0 3 0;
#X connect 8 0 2 0;
#X restore 55 240 pd VCO1;
#N canvas 453 243 488 252 VCO2 0;
#X obj -210 7 inlet~;
#X obj -83 89 switch~;
#X obj -83 31 + 1;
#X obj -210 196 outlet~;
#X obj -83 62 == 2;
#X obj -210 88 phasor~;
#X obj -210 142 -~ 0.5;
#X obj -210 169 *~ 2;
#X obj -210 115 expr~ $v1 > 0.5;
#X text -53 25 Der Oscillator ist nur aktiviert \, wenn er in der GUI
ausgewählt ist;
#X text -159 137 Rechteckschwingung;
#X obj -83 7 r \$0-waveform_VCO;
#X connect 0 0 5 0;
#X connect 2 0 4 0;
#X connect 4 0 1 0;
#X connect 5 0 8 0;
#X connect 6 0 7 0;
#X connect 7 0 3 0;
#X connect 8 0 6 0;
#X connect 11 0 2 0;
#X restore 110 240 pd VCO2;
#N canvas 397 255 527 146 VCO3 0;
#X obj -182 -40 inlet~;
#X obj -24 39 switch~;
#X obj -24 -14 + 1;
#X obj -183 65 outlet~;
#X obj -182 -13 phasor~;
#X obj -182 14 -~ 0.5;
#X obj -183 42 *~ 2;
#X text 11 -12 Der Oscillator ist nur aktiviert \, wenn er in der GUI
ausgewählt ist;
#X text -145 29 Sägezahnschwingung;
#X obj -24 12 == 3;
#X obj -24 -37 r \$0-waveform_VCO;
#X connect 0 0 4 0;
#X connect 2 0 9 0;
#X connect 4 0 5 0;
#X connect 5 0 6 0;
#X connect 6 0 3 0;
#X connect 9 0 1 0;
#X connect 10 0 2 0;
#X restore 167 240 pd VCO3;
#N canvas 517 238 456 302 VCO5 0;
#X obj -181 -40 inlet~;
#X obj -99 41 switch~;
#X obj -99 -13 + 1;
#X obj -181 224 outlet~;
#X obj -181 44 phasor~;
#X obj -160 91 *~ -1;
#X obj -160 112 +~ 1;
#X obj -182 152 min~;
#X obj -182 174 *~ 4;
#X obj -182 197 -~ 1;
#X text -153 134 Dreieckschwingung;
#X text -66 -9 Der Oscillator ist nur aktiviert \, wenn er in der GUI
ausgewählt ist;
#X obj -99 14 == 4;
#X obj -99 -33 r \$0-waveform_VCO;
#X connect 0 0 4 0;
#X connect 2 0 12 0;
#X connect 4 0 5 0;
#X connect 4 0 7 0;
#X connect 5 0 6 0;
#X connect 6 0 7 1;
#X connect 7 0 8 0;
#X connect 8 0 9 0;
#X connect 9 0 3 0;
#X connect 12 0 1 0;
#X connect 13 0 2 0;
#X restore 219 240 pd VCO5;
#N canvas 16 174 557 274 VCO6 0;
#X obj -182 -40 inlet~;
#X obj -2 28 switch~;
#X obj -2 -26 + 1;
#X obj -181 184 outlet~;
#X obj -181 -11 phasor~;
#X obj -180 146 expr~ $v1 > $v2;
#X floatatom -93 85 5 0 100 0 - - -, f 5;
#X obj -93 110 + 0.02;
#X text 34 -22 Der Oscillator ist nur aktiviert \, wenn er in der GUI
ausgewählt ist;
#X text -76 146 Pulsschwingung;
#X text -53 85 Breite des Puls;
#X obj -2 1 == 5;
#X obj -93 56 r \$0-pulse_width_VCO;
#X obj -2 -46 r \$0-waveform_VCO;
#X connect 0 0 4 0;
#X connect 2 0 11 0;
#X connect 4 0 5 0;
#X connect 5 0 3 0;
#X connect 6 0 7 0;
#X connect 7 0 5 1;
#X connect 11 0 1 0;
#X connect 12 0 6 0;
#X connect 13 0 2 0;
#X restore 276 240 pd VCO6;
#X obj 75 -146 inlet;
#X obj 101 509 outlet~;
#X obj 55 71 sig~;
#X obj 55 131 *~;
#X obj 408 33 r \$0det;
#X floatatom 410 98 10 0 0 0 - - -, f 10;
#X obj 409 53 / 1098.71;
#X obj 410 76 + 0.942207;
#X obj 310 30 / 63.5;
#X obj 308 56 - 1;
#X obj 301 84 s \$0detshow;
#X obj 23 -178 r \$0freqshow;
#X obj 394 336 r \$0att;
#X obj 528 337 r \$0rel;
#X obj 458 155 r \$0sus;
#X obj 458 188 / 127;
#X obj 458 605 vline~;
#X obj 694 167 moses 1;
#X floatatom 695 199 5 0 0 0 - - -, f 5;
#X floatatom 748 224 5 0 0 0 - - -, f 5;
#X obj 502 505 pack f f;
#X obj 747 200 / 127;
#X obj 390 453 pack f f f f;
#X msg 372 499 \$1 \$2 \, \$3 \$4 \$2;
#X obj 370 235 s \$0susshow;
#X obj 475 269 *;
#X obj 491 210 t b f;
#X obj 461 240 f;
#X obj 356 423 f;
#X obj 466 328 t b f;
#X obj 727 255 t f f;
#X obj 56 49 line;
#X obj 56 2 pack 0 0;
#X obj 104 -51 r \$0glideshow;
#X obj 134 -16 r~ \$0fmsignal;
#X obj 54 105 +~;
#X obj 136 88 *~;
#X obj 188 79 line~;
#X obj 188 9 r \$0fm-int;
#X msg 188 54 \$1 15;
#X obj 188 34 pow 2.1;
#X obj 394 369 * 157.48;
#X obj 528 370 * 157.48;
#X obj 471 410 * 39.3701;
#X connect 0 0 8 0;
#X connect 1 0 39 0;
#X connect 1 1 24 0;
#X connect 2 0 0 0;
#X connect 3 0 0 0;
#X connect 4 0 0 0;
#X connect 5 0 0 0;
#X connect 6 0 0 0;
#X connect 7 0 1 0;
#X connect 9 0 42 0;
#X connect 10 0 2 0;
#X connect 10 0 3 0;
#X connect 10 0 4 0;
#X connect 10 0 5 0;
#X connect 10 0 6 0;
#X connect 11 0 13 0;
#X connect 11 0 15 0;
#X connect 12 0 10 1;
#X connect 13 0 14 0;
#X connect 14 0 12 0;
#X connect 15 0 16 0;
#X connect 16 0 17 0;
#X connect 18 0 39 0;
#X connect 19 0 48 0;
#X connect 20 0 49 0;
#X connect 20 0 50 0;
#X connect 21 0 22 0;
#X connect 22 0 31 0;
#X connect 22 0 34 1;
#X connect 23 0 0 1;
#X connect 24 0 25 0;
#X connect 24 1 28 0;
#X connect 25 0 27 0;
#X connect 26 0 37 0;
#X connect 27 0 23 0;
#X connect 28 0 26 0;
#X connect 29 0 30 0;
#X connect 30 0 23 0;
#X connect 32 0 36 0;
#X connect 33 0 34 0;
#X connect 33 1 32 1;
#X connect 34 0 32 0;
#X connect 35 0 29 0;
#X connect 36 0 35 0;
#X connect 36 1 29 2;
#X connect 37 0 33 0;
#X connect 37 1 35 1;
#X connect 38 0 9 0;
#X connect 39 0 38 0;
#X connect 40 0 39 1;
#X connect 41 0 43 0;
#X connect 42 0 10 0;
#X connect 43 0 42 1;
#X connect 44 0 43 1;
#X connect 45 0 47 0;
#X connect 46 0 44 0;
#X connect 47 0 46 0;
#X connect 48 0 29 1;
#X connect 49 0 27 1;
#X connect 50 0 29 3;
#X restore -171 390 pd voice 2;
#N canvas 418 79 867 821 voice 0;
#X obj 102 468 *~;
#X obj 58 -95 unpack f f;
#N canvas 429 242 526 186 VCO1 0;
#X obj -215 -79 inlet~;
#X obj -59 0 switch~;
#X obj -59 -54 + 1;
#X obj -214 70 outlet~;
#X obj -59 -27 == 1;
#X obj -215 13 osc~;
#X text -174 10 Sinusschwingung;
#X text -17 -49 Der Oscillator ist nur aktiviert \, wenn er in der
GUI ausgewählt ist;
#X obj -59 -78 r \$0-waveform_VCO;
#X connect 0 0 5 0;
#X connect 2 0 4 0;
#X connect 4 0 1 0;
#X connect 5 0 3 0;
#X connect 8 0 2 0;
#X restore 55 240 pd VCO1;
#N canvas 453 243 488 252 VCO2 0;
#X obj -210 7 inlet~;
#X obj -83 89 switch~;
#X obj -83 31 + 1;
#X obj -210 196 outlet~;
#X obj -83 62 == 2;
#X obj -210 88 phasor~;
#X obj -210 142 -~ 0.5;
#X obj -210 169 *~ 2;
#X obj -210 115 expr~ $v1 > 0.5;
#X text -53 25 Der Oscillator ist nur aktiviert \, wenn er in der GUI
ausgewählt ist;
#X text -159 137 Rechteckschwingung;
#X obj -83 7 r \$0-waveform_VCO;
#X connect 0 0 5 0;
#X connect 2 0 4 0;
#X connect 4 0 1 0;
#X connect 5 0 8 0;
#X connect 6 0 7 0;
#X connect 7 0 3 0;
#X connect 8 0 6 0;
#X connect 11 0 2 0;
#X restore 110 240 pd VCO2;
#N canvas 397 255 527 146 VCO3 0;
#X obj -182 -40 inlet~;
#X obj -24 39 switch~;
#X obj -24 -14 + 1;
#X obj -183 65 outlet~;
#X obj -182 -13 phasor~;
#X obj -182 14 -~ 0.5;
#X obj -183 42 *~ 2;
#X text 11 -12 Der Oscillator ist nur aktiviert \, wenn er in der GUI
ausgewählt ist;
#X text -145 29 Sägezahnschwingung;
#X obj -24 12 == 3;
#X obj -24 -37 r \$0-waveform_VCO;
#X connect 0 0 4 0;
#X connect 2 0 9 0;
#X connect 4 0 5 0;
#X connect 5 0 6 0;
#X connect 6 0 3 0;
#X connect 9 0 1 0;
#X connect 10 0 2 0;
#X restore 167 240 pd VCO3;
#N canvas 517 238 456 302 VCO5 0;
#X obj -181 -40 inlet~;
#X obj -99 41 switch~;
#X obj -99 -13 + 1;
#X obj -181 224 outlet~;
#X obj -181 44 phasor~;
#X obj -160 91 *~ -1;
#X obj -160 112 +~ 1;
#X obj -182 152 min~;
#X obj -182 174 *~ 4;
#X obj -182 197 -~ 1;
#X text -153 134 Dreieckschwingung;
#X text -66 -9 Der Oscillator ist nur aktiviert \, wenn er in der GUI
ausgewählt ist;
#X obj -99 14 == 4;
#X obj -99 -33 r \$0-waveform_VCO;
#X connect 0 0 4 0;
#X connect 2 0 12 0;
#X connect 4 0 5 0;
#X connect 4 0 7 0;
#X connect 5 0 6 0;
#X connect 6 0 7 1;
#X connect 7 0 8 0;
#X connect 8 0 9 0;
#X connect 9 0 3 0;
#X connect 12 0 1 0;
#X connect 13 0 2 0;
#X restore 219 240 pd VCO5;
#N canvas 16 174 557 274 VCO6 0;
#X obj -182 -40 inlet~;
#X obj -2 28 switch~;
#X obj -2 -26 + 1;
#X obj -181 184 outlet~;
#X obj -181 -11 phasor~;
#X obj -180 146 expr~ $v1 > $v2;
#X floatatom -93 85 5 0 100 0 - - -, f 5;
#X obj -93 110 + 0.02;
#X text 34 -22 Der Oscillator ist nur aktiviert \, wenn er in der GUI
ausgewählt ist;
#X text -76 146 Pulsschwingung;
#X text -53 85 Breite des Puls;
#X obj -2 1 == 5;
#X obj -93 56 r \$0-pulse_width_VCO;
#X obj -2 -46 r \$0-waveform_VCO;
#X connect 0 0 4 0;
#X connect 2 0 11 0;
#X connect 4 0 5 0;
#X connect 5 0 3 0;
#X connect 6 0 7 0;
#X connect 7 0 5 1;
#X connect 11 0 1 0;
#X connect 12 0 6 0;
#X connect 13 0 2 0;
#X restore 276 240 pd VCO6;
#X obj 79 -129 inlet;
#X obj 101 509 outlet~;
#X obj 56 81 sig~;
#X obj 55 131 *~;
#X obj 408 33 r \$0det;
#X floatatom 410 98 10 0 0 0 - - -, f 10;
#X obj 409 53 / 1098.71;
#X obj 410 76 + 0.942207;
#X obj 310 30 / 63.5;
#X obj 308 56 - 1;
#X obj 301 84 s \$0detshow;
#X obj 27 -161 r \$0freqshow;
#X obj 394 336 r \$0att;
#X obj 528 337 r \$0rel;
#X obj 458 155 r \$0sus;
#X obj 458 188 / 127;
#X obj 458 605 vline~;
#X obj 694 167 moses 1;
#X floatatom 695 199 5 0 0 0 - - -, f 5;
#X floatatom 748 224 5 0 0 0 - - -, f 5;
#X obj 502 505 pack f f;
#X obj 747 200 / 127;
#X obj 390 453 pack f f f f;
#X msg 372 499 \$1 \$2 \, \$3 \$4 \$2;
#X obj 370 235 s \$0susshow;
#X obj 475 269 *;
#X obj 491 210 t b f;
#X obj 461 240 f;
#X obj 356 423 f;
#X obj 443 363 t b f;
#X obj 727 255 t f f;
#X obj 60 55 line;
#X obj 66 12 pack 0 0;
#X obj 110 -40 r \$0glideshow;
#X obj 154 -10 r~ \$0fmsignal;
#X obj 55 107 +~;
#X obj 156 89 *~;
#X obj 211 95 line~;
#X obj 212 13 r \$0fm-int;
#X msg 211 70 \$1 15;
#X obj 210 39 pow 2.1;
#X obj 394 369 * 157.48;
#X obj 528 370 * 157.48;
#X obj 495 385 * 39.3701;
#X connect 0 0 8 0;
#X connect 1 0 39 0;
#X connect 1 1 24 0;
#X connect 2 0 0 0;
#X connect 3 0 0 0;
#X connect 4 0 0 0;
#X connect 5 0 0 0;
#X connect 6 0 0 0;
#X connect 7 0 1 0;
#X connect 9 0 42 0;
#X connect 10 0 2 0;
#X connect 10 0 3 0;
#X connect 10 0 4 0;
#X connect 10 0 5 0;
#X connect 10 0 6 0;
#X connect 11 0 13 0;
#X connect 11 0 15 0;
#X connect 12 0 10 1;
#X connect 13 0 14 0;
#X connect 14 0 12 0;
#X connect 15 0 16 0;
#X connect 16 0 17 0;
#X connect 18 0 39 0;
#X connect 19 0 48 0;
#X connect 20 0 49 0;
#X connect 20 0 50 0;
#X connect 21 0 22 0;
#X connect 22 0 31 0;
#X connect 22 0 34 1;
#X connect 23 0 0 1;
#X connect 24 0 25 0;
#X connect 24 1 28 0;
#X connect 25 0 27 0;
#X connect 26 0 37 0;
#X connect 27 0 23 0;
#X connect 28 0 26 0;
#X connect 29 0 30 0;
#X connect 30 0 23 0;
#X connect 32 0 36 0;
#X connect 33 0 34 0;
#X connect 33 1 32 1;
#X connect 34 0 32 0;
#X connect 35 0 29 0;
#X connect 36 0 35 0;
#X connect 36 1 29 2;
#X connect 37 0 33 0;
#X connect 37 1 35 1;
#X connect 38 0 9 0;
#X connect 39 0 38 0;
#X connect 40 0 39 1;
#X connect 41 0 43 0;
#X connect 42 0 10 0;
#X connect 43 0 42 1;
#X connect 44 0 43 1;
#X connect 45 0 47 0;
#X connect 46 0 44 0;
#X connect 47 0 46 0;
#X connect 48 0 29 1;
#X connect 49 0 27 1;
#X connect 50 0 29 3;
#X restore -119 417 pd voice 3;
#N canvas 418 79 867 821 voice 0;
#X obj 102 468 *~;
#X obj 52 -71 unpack f f;
#N canvas 429 242 526 186 VCO1 0;
#X obj -215 -79 inlet~;
#X obj -59 0 switch~;
#X obj -59 -54 + 1;
#X obj -214 70 outlet~;
#X obj -59 -27 == 1;
#X obj -215 13 osc~;
#X text -174 10 Sinusschwingung;
#X text -17 -49 Der Oscillator ist nur aktiviert \, wenn er in der
GUI ausgewählt ist;
#X obj -59 -78 r \$0-waveform_VCO;
#X connect 0 0 5 0;
#X connect 2 0 4 0;
#X connect 4 0 1 0;
#X connect 5 0 3 0;
#X connect 8 0 2 0;
#X restore 55 240 pd VCO1;
#N canvas 453 243 488 252 VCO2 0;
#X obj -210 7 inlet~;
#X obj -83 89 switch~;
#X obj -83 31 + 1;
#X obj -210 196 outlet~;
#X obj -83 62 == 2;
#X obj -210 88 phasor~;
#X obj -210 142 -~ 0.5;
#X obj -210 169 *~ 2;
#X obj -210 115 expr~ $v1 > 0.5;
#X text -53 25 Der Oscillator ist nur aktiviert \, wenn er in der GUI
ausgewählt ist;
#X text -159 137 Rechteckschwingung;
#X obj -83 7 r \$0-waveform_VCO;
#X connect 0 0 5 0;
#X connect 2 0 4 0;
#X connect 4 0 1 0;
#X connect 5 0 8 0;
#X connect 6 0 7 0;
#X connect 7 0 3 0;
#X connect 8 0 6 0;
#X connect 11 0 2 0;
#X restore 110 240 pd VCO2;
#N canvas 397 255 527 146 VCO3 0;
#X obj -182 -40 inlet~;
#X obj -24 39 switch~;
#X obj -24 -14 + 1;
#X obj -183 65 outlet~;
#X obj -182 -13 phasor~;
#X obj -182 14 -~ 0.5;
#X obj -183 42 *~ 2;
#X text 11 -12 Der Oscillator ist nur aktiviert \, wenn er in der GUI
ausgewählt ist;
#X text -145 29 Sägezahnschwingung;
#X obj -24 12 == 3;
#X obj -24 -37 r \$0-waveform_VCO;
#X connect 0 0 4 0;
#X connect 2 0 9 0;
#X connect 4 0 5 0;
#X connect 5 0 6 0;
#X connect 6 0 3 0;
#X connect 9 0 1 0;
#X connect 10 0 2 0;
#X restore 167 240 pd VCO3;
#N canvas 517 238 456 302 VCO5 0;
#X obj -181 -40 inlet~;
#X obj -99 41 switch~;
#X obj -99 -13 + 1;
#X obj -181 224 outlet~;
#X obj -181 44 phasor~;
#X obj -160 91 *~ -1;
#X obj -160 112 +~ 1;
#X obj -182 152 min~;
#X obj -182 174 *~ 4;
#X obj -182 197 -~ 1;
#X text -153 134 Dreieckschwingung;
#X text -66 -9 Der Oscillator ist nur aktiviert \, wenn er in der GUI
ausgewählt ist;
#X obj -99 14 == 4;
#X obj -99 -33 r \$0-waveform_VCO;
#X connect 0 0 4 0;
#X connect 2 0 12 0;
#X connect 4 0 5 0;
#X connect 4 0 7 0;
#X connect 5 0 6 0;
#X connect 6 0 7 1;
#X connect 7 0 8 0;
#X connect 8 0 9 0;
#X connect 9 0 3 0;
#X connect 12 0 1 0;
#X connect 13 0 2 0;
#X restore 219 240 pd VCO5;
#N canvas 16 174 557 274 VCO6 0;
#X obj -182 -40 inlet~;
#X obj -2 28 switch~;
#X obj -2 -26 + 1;
#X obj -181 184 outlet~;
#X obj -181 -11 phasor~;
#X obj -180 146 expr~ $v1 > $v2;
#X floatatom -93 85 5 0 100 0 - - -, f 5;
#X obj -93 110 + 0.02;
#X text 34 -22 Der Oscillator ist nur aktiviert \, wenn er in der GUI
ausgewählt ist;
#X text -76 146 Pulsschwingung;
#X text -53 85 Breite des Puls;
#X obj -2 1 == 5;
#X obj -93 56 r \$0-pulse_width_VCO;
#X obj -2 -46 r \$0-waveform_VCO;
#X connect 0 0 4 0;
#X connect 2 0 11 0;
#X connect 4 0 5 0;
#X connect 5 0 3 0;
#X connect 6 0 7 0;
#X connect 7 0 5 1;
#X connect 11 0 1 0;
#X connect 12 0 6 0;
#X connect 13 0 2 0;
#X restore 276 240 pd VCO6;
#X obj 73 -105 inlet;
#X obj 101 509 outlet~;
#X obj 53 39 sig~;
#X obj 55 131 *~;
#X obj 408 33 r \$0det;
#X floatatom 410 98 10 0 0 0 - - -, f 10;
#X obj 409 53 / 1098.71;
#X obj 410 76 + 0.942207;
#X obj 310 30 / 63.5;
#X obj 308 56 - 1;
#X obj 301 84 s \$0detshow;
#X obj 21 -137 r \$0freqshow;
#X obj 394 336 r \$0att;
#X obj 528 337 r \$0rel;
#X obj 458 155 r \$0sus;
#X obj 458 188 / 127;
#X obj 458 605 vline~;
#X obj 694 167 moses 1;
#X floatatom 695 199 5 0 0 0 - - -, f 5;
#X floatatom 748 224 5 0 0 0 - - -, f 5;
#X obj 502 505 pack f f;
#X obj 747 200 / 127;
#X obj 390 453 pack f f f f;
#X msg 372 499 \$1 \$2 \, \$3 \$4 \$2;
#X obj 370 235 s \$0susshow;
#X obj 475 269 *;
#X obj 491 210 t b f;
#X obj 461 240 f;
#X obj 356 423 f;
#X obj 443 363 t b f;
#X obj 727 255 t f f;
#X obj 52 11 line;
#X obj 51 -14 pack 0 0;
#X obj 98 -47 r \$0glideshow;
#X obj 132 -20 r~ \$0fmsignal;
#X obj 52 101 +~;
#X obj 134 84 *~;
#X obj 186 75 line~;
#X obj 186 5 r \$0fm-int;
#X msg 186 50 \$1 15;
#X obj 186 30 pow 2.1;
#X obj 394 369 * 157.48;
#X obj 528 370 * 157.48;
#X obj 499 409 * 39.3701;
#X connect 0 0 8 0;
#X connect 1 0 39 0;
#X connect 1 1 24 0;
#X connect 2 0 0 0;
#X connect 3 0 0 0;
#X connect 4 0 0 0;
#X connect 5 0 0 0;
#X connect 6 0 0 0;
#X connect 7 0 1 0;
#X connect 9 0 42 0;
#X connect 10 0 2 0;
#X connect 10 0 3 0;
#X connect 10 0 4 0;
#X connect 10 0 5 0;
#X connect 10 0 6 0;
#X connect 11 0 13 0;
#X connect 11 0 15 0;
#X connect 12 0 10 1;
#X connect 13 0 14 0;
#X connect 14 0 12 0;
#X connect 15 0 16 0;
#X connect 16 0 17 0;
#X connect 18 0 39 0;
#X connect 19 0 48 0;
#X connect 20 0 49 0;
#X connect 20 0 50 0;
#X connect 21 0 22 0;
#X connect 22 0 31 0;
#X connect 22 0 34 1;
#X connect 23 0 0 1;
#X connect 24 0 25 0;
#X connect 24 1 28 0;
#X connect 25 0 27 0;
#X connect 26 0 37 0;
#X connect 27 0 23 0;
#X connect 28 0 26 0;
#X connect 29 0 30 0;
#X connect 30 0 23 0;
#X connect 32 0 36 0;
#X connect 33 0 34 0;
#X connect 33 1 32 1;
#X connect 34 0 32 0;
#X connect 35 0 29 0;
#X connect 36 0 35 0;
#X connect 36 1 29 2;
#X connect 37 0 33 0;
#X connect 37 1 35 1;
#X connect 38 0 9 0;
#X connect 39 0 38 0;
#X connect 40 0 39 1;
#X connect 41 0 43 0;
#X connect 42 0 10 0;
#X connect 43 0 42 1;
#X connect 44 0 43 1;
#X connect 45 0 47 0;
#X connect 46 0 44 0;
#X connect 47 0 46 0;
#X connect 48 0 29 1;
#X connect 49 0 27 1;
#X connect 50 0 29 3;
#X restore -34 453 pd voice 4;
#X obj -291 124 poly 1 1;
#X obj -289 60 spigot;
#X obj -230 67 spigot;
#X obj 439 108 tgl 15 0 \$0monopoly \$0monopoly_r mono/poly -56 7 0
10 -191407 -260097 -262144 1 1;
#X obj -249 -97 r \$0monopoly;
#X msg -292 -34 1;
#X obj -273 -66 sel 1;
#X obj -225 -67 sel 0;
#X msg -257 -37 0;
#X msg -222 -38 1;
#X msg -187 -41 0;
#X obj 677 110 s \$0monopoly_r;
#X msg 676 84 1;
#X obj 327 236 hsl 50 15 0 127 0 0 \$0glide \$0glide_r Glide 10 7 0
10 -162280 -260097 -262144 0 1;
#X obj 589 42 inlet;
#X obj 328 253 nbx 4 14 -1e+37 1e+37 0 0 \$0glideshow_s \$0glideshow
empty 0 -8 0 11 -99865 -260097 -260097 0 256 0;
#X msg 919 146 0;
#X obj 919 170 s \$0glide_r;
#X obj 59 292 r \$0glide;
#X obj 60 317 / 1.27;
#X obj 58 344 pow 1.5;
#X obj 57 376 s \$0glideshow;
#X obj 2373 15 r \$0monopoly;
#X obj 2400 76 r \$0glide;
#X obj 2331 66 f;
#X obj 2345 133 f;
#X obj 1747 132 s \$0glide_r;
#X obj 1710 74 s \$0monopoly_r;
#X obj 213 -88 inlet~ fm-signal;
#X obj 212 -43 s~ \$0fmsignal;
#X obj 273 121 vsl 15 30 0 127 0 0 \$0fm-int \$0fm-int_r FM-int -8
-9 0 10 -162280 -260097 -262144 0 1;
#X obj 562 6 inlet;
#X msg 682 156 0;
#X obj 689 214 s \$0fm-int_r;
#X obj 2410 136 f;
#X obj 1788 -129 t b f b b b b b b b b b b;
#X obj 1836 -25 pack s f f f f f f f f f f f;
#X obj 689 236 s \$0fm-int_r;
#X obj 2411 111 r \$0fm-int_r;
#X obj 1554 -56 unpack f f f f f f f f f f;
#X obj 1744 44 s \$0fm-int;
#X obj 428 29 / 127;
#X obj 1849 -232 clip 1 110;
#X obj 1553 -111 route oscidrone;
#X obj 1782 -78 symbol oscidrone;
#X connect 14 0 45 0;
#X connect 14 0 104 0;
#X connect 14 0 103 0;
#X connect 16 0 98 0;
#X connect 16 0 22 0;
#X connect 16 0 20 0;
#X connect 16 0 29 0;
#X connect 16 0 30 0;
#X connect 16 0 84 0;
#X connect 16 0 114 0;
#X connect 16 0 118 0;
#X connect 16 0 134 0;
#X connect 20 0 21 0;
#X connect 22 0 18 0;
#X connect 22 0 19 0;
#X connect 29 0 28 0;
#X connect 30 0 31 0;
#X connect 32 0 47 0;
#X connect 33 0 34 0;
#X connect 34 0 32 0;
#X connect 34 1 99 0;
#X connect 34 2 100 0;
#X connect 34 3 101 0;
#X connect 35 0 33 0;
#X connect 35 1 33 1;
#X connect 35 2 33 2;
#X connect 37 0 39 0;
#X connect 37 0 43 0;
#X connect 39 0 41 0;
#X connect 40 0 32 0;
#X connect 41 0 42 0;
#X connect 41 1 40 1;
#X connect 42 0 40 0;
#X connect 43 0 44 0;
#X connect 44 0 35 0;
#X connect 44 0 102 0;
#X connect 45 0 46 0;
#X connect 46 0 44 0;
#X connect 47 0 15 0;
#X connect 48 0 145 0;
#X connect 49 0 58 0;
#X connect 50 0 138 3;
#X connect 51 0 138 2;
#X connect 53 0 137 0;
#X connect 54 0 141 0;
#X connect 55 0 57 0;
#X connect 56 0 53 1;
#X connect 56 0 54 1;
#X connect 56 0 144 0;
#X connect 57 0 56 0;
#X connect 58 0 53 0;
#X connect 59 0 138 4;
#X connect 66 0 50 1;
#X connect 67 0 59 1;
#X connect 68 0 72 1;
#X connect 69 0 71 1;
#X connect 70 0 73 1;
#X connect 71 0 138 6;
#X connect 72 0 138 5;
#X connect 73 0 138 7;
#X connect 74 0 51 1;
#X connect 75 0 10 0;
#X connect 76 0 5 0;
#X connect 77 0 4 0;
#X connect 78 0 7 0;
#X connect 79 0 36 0;
#X connect 80 0 143 0;
#X connect 84 0 83 0;
#X connect 86 0 87 0;
#X connect 87 0 88 0;
#X connect 89 0 81 0;
#X connect 90 0 91 1;
#X connect 91 0 138 8;
#X connect 93 0 96 0;
#X connect 94 0 97 0;
#X connect 95 0 94 0;
#X connect 96 0 95 0;
#X connect 97 0 42 1;
#X connect 97 0 38 0;
#X connect 98 0 17 0;
#X connect 99 0 47 0;
#X connect 100 0 47 0;
#X connect 101 0 47 0;
#X connect 102 0 33 0;
#X connect 102 1 33 1;
#X connect 102 2 33 2;
#X connect 103 0 102 0;
#X connect 104 0 35 0;
#X connect 106 0 108 0;
#X connect 106 0 109 0;
#X connect 107 0 104 1;
#X connect 108 0 107 0;
#X connect 108 0 110 0;
#X connect 109 0 111 0;
#X connect 109 0 112 0;
#X connect 110 0 103 1;
#X connect 111 0 103 1;
#X connect 112 0 104 1;
#X connect 114 0 113 0;
#X connect 116 0 115 0;
#X connect 118 0 119 0;
#X connect 120 0 121 0;
#X connect 121 0 122 0;
#X connect 122 0 123 0;
#X connect 124 0 126 1;
#X connect 125 0 127 1;
#X connect 126 0 138 9;
#X connect 127 0 138 10;
#X connect 130 0 131 0;
#X connect 133 0 132 0;
#X connect 134 0 135 0;
#X connect 136 0 138 11;
#X connect 137 0 146 0;
#X connect 137 1 138 1;
#X connect 137 2 51 0;
#X connect 137 3 50 0;
#X connect 137 4 59 0;
#X connect 137 5 72 0;
#X connect 137 6 71 0;
#X connect 137 7 73 0;
#X connect 137 8 91 0;
#X connect 137 9 126 0;
#X connect 137 10 127 0;
#X connect 137 11 136 0;
#X connect 138 0 52 0;
#X connect 140 0 136 1;
#X connect 141 0 65 0;
#X connect 141 1 60 0;
#X connect 141 2 61 0;
#X connect 141 3 62 0;
#X connect 141 4 63 0;
#X connect 141 5 64 0;
#X connect 141 6 92 0;
#X connect 141 7 129 0;
#X connect 141 8 128 0;
#X connect 141 9 142 0;
#X connect 143 0 3 0;
#X connect 144 0 58 1;
#X connect 145 0 54 0;
#X connect 146 0 138 0;
#X coords 0 -1 1 1 364 176 1 100 100;
