#N canvas 360 0 703 838 10;
#X obj 102 103 cnv 15 455 185 empty empty scratch 10 16 0 24 -66577
-262144 0;
#X obj 182 180 tgl 40 0 \$0RecordOnOff \$0RecordOnOff_r Aufnehmen -10
-8 0 12 -191407 -258113 -258113 0 1;
#X obj 124 145 bng 30 250 50 0 \$0read \$0read_r laden -3 40 0 12 -228856
-260097 -262144;
#X obj 123 207 bng 30 250 50 0 \$0write \$0write_r speichern -14 40
0 12 -228856 -260097 -262144;
#X obj 251 263 hsl 145 20 0 127 0 0 \$0end_ctrl \$0end_r Ende 53 8
0 14 -228856 -260097 -1 14400 1;
#X obj 251 242 hsl 145 20 0 127 0 0 \$0begin_ctrl \$0begin_r Start
48 9 0 14 -228856 -260097 -1 0 1;
#X obj 502 131 vsl 30 120 0 127 0 0 \$0speed \$0speed_r Speed -10 -12
0 16 -191407 -260097 -262144 2975 1;
#X obj 533 251 bng 20 250 50 0 \$0zerospeed \$0zerospeed_r 1 5 8 0
14 -191407 -260097 -260097;
#X obj 469 256 nbx 5 16 -1e+037 1e+037 0 0 \$0speedshow_s \$0speedshow
empty 0 -8 0 12 -128992 -260097 -1 1 256 0;
#X obj 418 230 bng 25 250 50 0 \$0restart \$0restart_r neustart -10
33 0 10 -191407 -260097 -262144;
#X obj 458 144 tgl 30 0 \$0play \$0play_r Loop 1 -8 0 12 -191407 -260097
-262144 0 1;
#X obj -471 865 soundfiler;
#X obj -474 681 openpanel;
#X obj -474 609 getdir;
#X msg -474 636 symbol \$1;
#X obj -476 578 bng 15 250 50 0 empty \$0read empty 17 7 0 10 -262144
-1 -1;
#X obj -467 778 zl join;
#X obj -387 790 \$0;
#X msg -386 817 \$1sample;
#X obj -387 774 bng 15 250 50 0 empty empty empty 17 7 0 10 -262144
-1 -1;
#N canvas 386 39 818 771 record 0;
#X obj 1244 469 / 44100;
#X floatatom 824 -161 5 0 0 0 - - -, f 5;
#X obj 835 -202 r \$0RecordOnOff;
#X obj 1244 530 s \$0durSound;
#X obj 1216 500 s \$0lenSound;
#X obj 1206 439 t f f;
#X obj 946 619 \$0;
#X msg 949 650 \; \$1sample normalize;
#X msg 569 420 0;
#X obj 564 390 sel 30000;
#X obj 569 447 s \$0RecordOnOff_r;
#X obj 943 550 bng 15 250 50 0 empty empty empty 17 7 0 10 -262144
-1 -1;
#X obj 1063 611 s \$0loaded;
#X obj 601 -57 r~ \$0sigrec;
#X obj 734 444 *~;
#X msg 782 404 1;
#X msg 848 427 0;
#X obj 873 -77 bng 15 250 50 0 empty \$0startrec record-start 17 7
0 10 -262144 -1 -1;
#X obj 782 -27 bng 15 250 50 0 empty \$0stoprec record-stop 17 7 0
10 -262144 -1 -1;
#X floatatom 1003 388 5 0 0 2 recording_length(ms) - -, f 5;
#X obj 1003 509 pack \$1 \$0;
#X obj 855 80 t b b;
#X obj 801 516 bng 15 250 50 0 empty empty empty 17 7 0 10 -262144
-1 -1;
#X obj 1003 435 * 44.1;
#X floatatom 734 338 5 0 0 0 - - -, f 5;
#X obj 821 270 tgl 15 0 empty empty empty 17 7 0 10 -262144 -1 -1 0
1;
#X obj 734 361 sig~;
#X msg 821 240 1;
#X msg 881 253 0;
#X obj 821 190 t b b;
#X obj 1003 354 f;
#X obj 773 310 + 1;
#X obj 734 316 1;
#X msg 868 299 1;
#X obj 734 254 metro 1;
#X msg 654 -12 1;
#X msg 654 9 0;
#X obj 590 26 *~;
#X text 504 255 This patch counts the recording time;
#X text 342 105 When [start] is pressed the audio signal is held up
in the delay line. with every update from [metro] the signal is held
for another millisecond. when the recording is stopped \, the counter
stops at the current time. The array is resized to the amount of samples
that is needed for that amount of time and the audio is played back
into it.;
#X text 1030 409 because we start 1 ms ahead;
#X text 1120 538 array is resized;
#X obj 870 -106 sel 1;
#X obj 777 -61 sel 0;
#X msg 1003 530 \; \$2sample resize \$1;
#X obj 734 552 tabwrite~ \$0sample;
#X obj 782 -8 t b b b;
#X text 591 67 Maximal length is 30 sec;
#X obj 591 49 delwrite~ \$0example 30000;
#X obj 734 385 vd~ \$0example;
#X obj 947 581 del 500;
#X obj 1003 408 - 1;
#X connect 0 0 3 0;
#X connect 1 0 42 0;
#X connect 1 0 43 0;
#X connect 2 0 1 0;
#X connect 5 0 4 0;
#X connect 5 1 0 0;
#X connect 6 0 7 0;
#X connect 8 0 10 0;
#X connect 9 0 8 0;
#X connect 11 0 50 0;
#X connect 13 0 37 0;
#X connect 14 0 45 0;
#X connect 15 0 14 1;
#X connect 16 0 14 1;
#X connect 17 0 21 0;
#X connect 17 0 35 0;
#X connect 18 0 36 0;
#X connect 18 0 46 0;
#X connect 19 0 51 0;
#X connect 20 0 44 0;
#X connect 20 0 11 0;
#X connect 21 0 29 0;
#X connect 21 1 16 0;
#X connect 22 0 45 0;
#X connect 23 0 20 0;
#X connect 23 0 5 0;
#X connect 24 0 26 0;
#X connect 24 0 30 1;
#X connect 24 0 9 0;
#X connect 24 0 50 1;
#X connect 25 0 34 0;
#X connect 26 0 49 0;
#X connect 27 0 25 0;
#X connect 28 0 25 0;
#X connect 29 0 27 0;
#X connect 29 1 33 0;
#X connect 30 0 19 0;
#X connect 31 0 32 1;
#X connect 32 0 24 0;
#X connect 32 0 31 0;
#X connect 33 0 32 0;
#X connect 34 0 32 0;
#X connect 35 0 37 1;
#X connect 36 0 37 1;
#X connect 37 0 48 0;
#X connect 42 0 17 0;
#X connect 43 0 18 0;
#X connect 46 0 15 0;
#X connect 46 1 22 0;
#X connect 46 2 28 0;
#X connect 46 2 30 0;
#X connect 49 0 14 0;
#X connect 50 0 6 0;
#X connect 50 0 12 0;
#X connect 51 0 23 0;
#X restore 143 666 pd record;
#X obj -432 992 / 44100;
#X obj -451 1023 s \$0lenSound;
#X obj -431 1053 s \$0durSound;
#X obj -188 678 \$0;
#X msg -621 1019 \; \$1sample normalize;
#X obj -596 665 bng 15 250 50 0 empty \$0write empty 17 7 0 10 -262144
-1 -1;
#X obj -596 702 getdir;
#X msg -596 729 symbol \$1;
#X obj -594 891 zl join;
#X obj -509 864 \$0;
#X msg -508 891 \$1sample;
#X obj -510 835 bng 15 250 50 0 empty empty empty 17 7 0 10 -262144
-1 -1;
#X msg -596 810 write -wave -normalize \$1;
#X obj -592 928 soundfiler;
#X obj -596 774 savepanel;
#X obj 920 216 phasor~;
#X obj 912 20 sig~;
#X obj 918 560 tabread4~ \$0sample;
#X obj 927 378 *~;
#X obj 976 287 r \$0lenSound;
#X floatatom 910 -82 5 0 0 0 - - -, f 5;
#X obj 911 -19 /;
#X msg 911 -42 1;
#X obj 911 -61 t b f;
#X obj 912 74 *~;
#X obj 938 54 line~;
#X msg 950 34 \$1 25;
#X obj 927 407 +~;
#X obj 1149 482 line~;
#X msg 1149 460 \$1 25;
#X obj 1144 181 r \$0begin;
#X obj 1112 293 *;
#X obj 1168 276 r \$0lenSound;
#X obj 973 360 f;
#X obj 973 401 -;
#X obj 1111 317 t b f f;
#X obj 1116 255 / 127;
#X obj 979 481 / 44100;
#X obj 916 645 *~;
#X obj 1030 594 line~;
#X msg 1063 536 0;
#X msg 1107 534 1;
#X obj 1262 445 change;
#X obj 1263 472 bng 15 250 50 0 empty empty empty 17 7 0 10 -262144
-1 -1;
#X msg 1065 563 \$1 25;
#X obj 975 333 *;
#X obj 1043 219 r \$0end;
#X obj 1018 267 / 127;
#X obj 1018 308 t b f;
#X obj 974 311 f;
#X obj 911 695 *~;
#X obj 1162 -49 r \$0speed;
#X obj 1018 -62 r \$0zerospeed;
#X obj 1019 -10 s \$0speed_r;
#X obj 1162 -16 / 31.75;
#X obj 1167 42 clip 0.125 4;
#X msg 1017 -36 31.75;
#X obj -74 -860 loadbang;
#X obj 1181 80 s \$0speedshow;
#X msg 1009 164 0;
#X obj 1009 130 r \$0restart;
#X obj 911 743 *~;
#X obj 969 721 line~;
#X obj 973 614 r \$0play;
#X obj 911 788 outlet~;
#X obj 473 -608 r toolssavebank;
#X obj 902 -501 f;
#X obj 847 -507 f;
#X obj 757 -399 s toolssavelists;
#X obj 712 -587 f;
#X obj 470 -537 route;
#X obj 745 -762 loadbang;
#X obj 835 -657 \$1;
#X obj 833 -718 del 5;
#X obj 712 -628 del;
#X obj 974 -473 f;
#X obj 413 -395 s \$0begin_r;
#X obj 475 -371 s \$0end_r;
#X obj 543 -397 s \$0speed_r;
#X obj 885 -564 r \$0begin;
#X obj 975 -561 r \$0end;
#X obj 1086 -556 r \$0speed;
#X obj 473 -568 route sampler;
#X obj 704 -487 symbol sampler;
#X obj -265 735 s \$0filename;
#X obj -405 668 r \$0filename_r;
#X obj -115 -701 s \$0speed_r;
#X msg -115 -733 31.75;
#X msg -50 -761 0;
#X msg 38 -814 127;
#X obj 57 -742 s \$0end_r;
#X obj -55 -729 s \$0begin_r;
#X obj 1047 653 sel 1;
#X obj 976 502 s \$0durSoundnew;
#X obj 902 -108 r \$0durSoundnew;
#X obj 1208 407 r \$0begin;
#X obj 1257 382 r \$0end;
#X obj 1256 509 del 100;
#X obj 1121 217 f;
#X obj -480 1081 s \$0loaded;
#X obj -478 953 t b b f f;
#X obj 1145 138 r \$0loaded;
#X obj 1019 242 f;
#X obj -153 759 r \$0read;
#X msg -183 790 0;
#X obj -166 840 s \$0RecordOnOff_r;
#X obj -52 750 r \$0write;
#X obj -396 908 sel 0;
#X msg -341 1023 \; \$1sample const 0;
#X obj -345 995 \$0;
#X obj -490 -140 r \$0RecordOnOff;
#X msg -492 -75 0;
#X obj -492 -109 sel 1;
#X obj -493 -37 s \$0play_r;
#X obj -404 707 t s b;
#X msg -473 737 read -resize -maxsize 1e+008 \$1;
#X obj 415 125 bng 30 250 50 0 \$0OneShot \$0OneShot_r Abspielen -12
-8 0 12 -191407 -260097 -262144;
#X obj 1030 63 r \$0OneShot;
#X obj 1163 574 * 1000;
#X obj 1165 548 r \$0durSoundnew;
#X obj 1081 588 r \$0OneShot;
#X msg 1081 611 1 5;
#X msg 1110 690 0 5;
#X obj 1117 630 bng 15 250 50 0 empty empty empty 17 7 0 10 -262144
-1 -1;
#X obj 1116 650 delay 1000;
#X obj 1216 582 r \$0speedshow;
#X obj 1184 630 /;
#X obj 1171 598 f;
#X obj 1215 605 t b f;
#X obj 742 97 phasor~;
#X obj 741 142 +~ 1;
#X obj 741 119 *~ -1;
#X obj 819 196 / 44100;
#X obj 817 226 s \$0durSoundnew;
#X obj 712 -109 r \$0lenSound;
#X obj 781 -60 f;
#X obj 796 -94 t b f;
#X obj 820 165 spigot;
#X obj 976 459 spigot;
#X obj 1062 347 r \$0back;
#X obj 1056 407 - 1;
#X obj 1046 429 abs;
#X obj 776 317 *~;
#X obj 934 438 *~;
#X obj 805 260 r \$0back;
#X obj 819 308 abs;
#X obj 818 281 - 1;
#X obj 848 41 r \$0back;
#X obj 840 86 change;
#X obj 817 105 bng 15 250 50 0 empty empty empty 17 7 0 10 -262144
-1 -1;
#X obj 816 132 f;
#X obj 1011 387 change;
#X obj 1013 409 bng 15 250 50 0 empty empty empty 17 7 0 10 -262144
-1 -1;
#X obj 975 432 f;
#X obj 1061 371 t f f;
#X obj 847 63 t f f;
#X obj 722 -557 t b f b b b b b;
#X msg 33 -694 0;
#X obj 34 -663 s \$0back_r;
#X obj 757 -442 pack s f f f f f s;
#X obj 1147 -511 r \$0back;
#X obj 1227 -467 r \$0filename;
#X obj 591 -350 s \$0back_r;
#X obj 632 -384 s \$0filename_r;
#X obj 1111 -458 f;
#X obj 1200 -431 symbol;
#X obj 472 -502 list split 4;
#X obj 601 -430 list2symbol;
#X obj 476 -464 unpack f f f f;
#X obj -264 -211 s \$0begin;
#X obj -160 -209 s \$0end;
#X obj -297 -324 r \$0begin_ctrl;
#X obj -161 -326 r \$0end_ctrl;
#X obj -159 -259 clip;
#X msg -131 -280 127;
#X obj -44 -375 loadbang;
#X obj -279 -267 clip;
#X msg -256 -293 0;
#X obj -500 -293 spigot;
#X obj -467 -335 - 1;
#X obj -466 -316 abs;
#X obj -514 -253 f;
#X obj -424 -293 sel 1;
#X obj -518 -208 s \$0end_r;
#X floatatom -465 -368 5 0 0 0 - - -, f 5;
#X obj -431 -421 t b f;
#X obj -467 -429 f;
#X obj -469 -449 r \$0end_ctrl;
#X obj -375 -432 r \$0begin_ctrl;
#X obj -467 -396 <;
#X obj -465 -262 del 1;
#X obj -294 -97 max;
#X obj -319 -148 r \$0end_ctrl;
#X obj -225 -131 r \$0begin_ctrl;
#X floatatom -293 -55 5 0 0 0 - - -, f 5;
#X obj -292 5 s \$0end_r;
#X obj -292 -23 change;
#X obj 457 219 tgl 25 0 \$0back \$0back_r rückwärts -12 -8 0 10 -191407
-260097 -262144 0 1;
#X obj 780 -31 *;
#X obj 807 -228 r \$0end;
#X obj 819 -175 / 127;
#X obj 748 -267 r \$0loaded;
#X obj 820 -200 f;
#X obj 691 -197 r \$0begin;
#X obj 710 -147 / 127;
#X obj 708 -171 f;
#X obj -216 -292 + 0.5;
#X obj -213 -274 - 0.5;
#X obj -53 -651 s \$0begin;
#X obj 151 -757 s \$0end;
#X obj 641 -60 f;
#X obj 656 -94 t b f;
#X obj 640 -31 *;
#X obj 764 31 -;
#X obj 708 -15 f;
#X obj 748 -3 t b f;
#X obj 758 212 +~ 0;
#X obj 740 168 *~ 1;
#X obj 458 -170 inlet;
#X obj 331 -165 inlet;
#X obj 424 -163 inlet;
#X obj 495 -151 inlet;
#X obj 505 -141 inlet;
#X obj 515 -131 inlet;
#X obj 530 -117 inlet;
#X obj 540 -107 inlet;
#X obj 666 -364 s \$0filename;
#X obj 381 -178 inlet~;
#X obj 381 -119 s~ \$0sigrec;
#N canvas 577 285 450 300 window 0;
#X obj 24 -335 expr~ tanh($v1*$v2);
#X obj 24 -357 cos~;
#X obj 24 -376 *~ 0.5;
#X obj 24 -397 -~ 0.5;
#X obj 135 -366 sig~ 2;
#X obj 23 -427 inlet~;
#X obj 23 -306 outlet~;
#X msg 134 -396 250;
#X obj 186 -405 loadbang;
#X connect 0 0 6 0;
#X connect 1 0 0 0;
#X connect 2 0 1 0;
#X connect 3 0 2 0;
#X connect 4 0 0 1;
#X connect 5 0 3 0;
#X connect 7 0 4 0;
#X connect 8 0 7 0;
#X restore 819 551 pd window;
#X obj 661 643 vline~;
#X obj 649 696 *~;
#X obj 335 -85 route bang;
#X obj 388 -50 unpack 0 0;
#X floatatom 439 5 5 0 0 0 - - -, f 5;
#X obj 439 29 / 127;
#X obj 391 -20 moses 0.1;
#X msg 660 587 0 1 \, \$1 3 1 \, 0 3 \$2;
#X obj 657 557 pack 0 0;
#X obj 660 612 t l b;
#X msg -279 698 symbol \$1;
#X msg 974 650 \$1 5;
#X obj 636 -721 r toolsdirectory;
#X obj 637 -695 bng 15 250 50 0 empty empty empty 17 7 0 10 -262144
-1 -1;
#X obj 764 -638 clip 1 88;
#X obj -411 379 r toolsdirectory;
#X obj -354 455 \$1;
#X obj -353 482 ftos;
#X obj -399 526 pack s s;
#X obj -354 430 loadbang;
#X msg -369 557 symbol \$1Sampler\$2Sample.wav;
#X obj -395 588 t s b;
#N canvas 0 0 450 300 (subpatch) 0;
#X array \$0sample 104384 float 4 black black;
#X coords 0 1 104383 -1 150 80 1;
#X restore 251 115 graph;
#X floatatom 435 502 8 0 0 0 - - -, f 8;
#X obj 435 480 unsig~ 1;
#X obj 251 198 hsl 145 40 0 127 0 0 \$0position empty Position 30 19
0 18 -228856 -260097 -1 0 1;
#X obj 426 623 /;
#X obj 486 559 r \$0lenSound;
#X obj 471 588 t b f;
#X obj 411 587 f;
#X floatatom 426 645 5 0 0 0 - - -, f 5;
#X obj 438 683 * 127;
#X floatatom 438 705 5 0 0 0 - - -, f 5;
#X msg 1066 745 \$1;
#X floatatom 1061 773 5 0 0 0 - - -, f 5;
#X obj 430 532 spigot;
#X obj 541 624 sel 0;
#X msg 540 647 0;
#X obj 605 157 r \$0position;
#X obj 627 285 line~;
#X obj 605 198 spigot;
#X obj 652 208 abs;
#X obj 654 184 - 1;
#X floatatom 1035 715 5 0 0 0 - - -, f 5;
#X obj 626 237 / 127;
#X obj 629 322 *~;
#X obj 631 348 +~;
#X obj 724 505 *~;
#X obj 927 516 *~;
#X obj 931 488 line~;
#X obj 626 262 pack f 100;
#X obj 588 -4 r \$0speedshow;
#X obj 588 65 /;
#X msg 587 41 1;
#X obj 588 21 t b f;
#X floatatom 669 104 8 0 0 0 - - -, f 8;
#X obj 589 131 clip 1 4410;
#X obj 589 86 - 0.21;
#X obj 589 107 * 566.11;
#X obj 741 394 unpack f f;
#X obj 741 417 - 1;
#X obj 741 438 abs;
#X obj 547 360 change;
#X obj 545 387 bng 15 250 50 0 empty empty empty 17 7 0 10 -262144
-1 -1;
#X obj 620 398 metro 1;
#X obj 620 425 f;
#X obj 650 427 + 1;
#X obj 620 455 sel 150;
#X msg 587 402 0;
#X obj 617 373 tgl 15 0 empty empty empty 17 7 0 10 -262144 -1 -1 0
1;
#X obj 587 341 loadbang;
#X obj 753 475 line~;
#X msg 562 420 1 5;
#X msg 692 502 0 5;
#X obj 538 437 del 5;
#X msg 555 466 1 20;
#X msg 623 488 0 20;
#X obj 665 477 del 20;
#X connect 11 0 121 0;
#X connect 11 0 128 0;
#X connect 12 0 136 0;
#X connect 12 0 105 0;
#X connect 13 0 14 0;
#X connect 14 0 12 0;
#X connect 15 0 13 0;
#X connect 15 0 19 0;
#X connect 16 0 11 0;
#X connect 17 0 18 0;
#X connect 18 0 16 1;
#X connect 19 0 17 0;
#X connect 21 0 23 0;
#X connect 24 0 25 0;
#X connect 26 0 27 0;
#X connect 26 0 32 0;
#X connect 27 0 28 0;
#X connect 28 0 35 0;
#X connect 29 0 34 0;
#X connect 30 0 31 0;
#X connect 31 0 29 1;
#X connect 32 0 30 0;
#X connect 33 0 29 0;
#X connect 35 0 33 0;
#X connect 35 0 261 0;
#X connect 36 0 39 0;
#X connect 36 0 250 0;
#X connect 37 0 45 0;
#X connect 38 0 59 0;
#X connect 39 0 48 0;
#X connect 40 0 70 0;
#X connect 41 0 44 0;
#X connect 42 0 37 0;
#X connect 43 0 42 0;
#X connect 44 0 43 0;
#X connect 44 1 42 1;
#X connect 45 0 150 0;
#X connect 45 0 36 0;
#X connect 46 0 45 1;
#X connect 47 0 46 0;
#X connect 48 0 164 0;
#X connect 49 0 48 1;
#X connect 49 0 297 1;
#X connect 50 0 49 0;
#X connect 51 0 119 0;
#X connect 52 0 56 0;
#X connect 53 0 52 1;
#X connect 54 0 55 0;
#X connect 55 0 39 1;
#X connect 55 0 174 0;
#X connect 55 0 296 1;
#X connect 56 0 54 0;
#X connect 56 1 55 1;
#X connect 56 2 50 0;
#X connect 57 0 52 0;
#X connect 58 0 114 0;
#X connect 59 0 71 0;
#X connect 60 0 59 1;
#X connect 61 0 65 0;
#X connect 62 0 65 0;
#X connect 63 0 64 0;
#X connect 64 0 61 0;
#X connect 64 0 118 0;
#X connect 65 0 60 0;
#X connect 66 0 54 0;
#X connect 67 0 123 0;
#X connect 68 0 69 0;
#X connect 69 0 70 0;
#X connect 69 1 66 1;
#X connect 70 0 66 0;
#X connect 71 0 82 0;
#X connect 71 0 252 0;
#X connect 72 0 75 0;
#X connect 73 0 77 0;
#X connect 75 0 76 0;
#X connect 76 0 47 0;
#X connect 76 0 79 0;
#X connect 77 0 74 0;
#X connect 78 0 108 0;
#X connect 78 0 109 0;
#X connect 78 0 110 0;
#X connect 78 0 178 0;
#X connect 80 0 36 1;
#X connect 80 0 150 1;
#X connect 81 0 80 0;
#X connect 82 0 85 0;
#X connect 83 0 82 1;
#X connect 84 0 262 0;
#X connect 84 0 113 0;
#X connect 84 0 294 0;
#X connect 86 0 103 0;
#X connect 87 0 180 3;
#X connect 88 0 180 2;
#X connect 90 0 177 0;
#X connect 91 0 187 0;
#X connect 92 0 94 0;
#X connect 93 0 90 1;
#X connect 93 0 91 1;
#X connect 93 0 265 0;
#X connect 94 0 93 0;
#X connect 95 0 90 0;
#X connect 96 0 180 4;
#X connect 100 0 88 1;
#X connect 101 0 87 1;
#X connect 102 0 96 1;
#X connect 103 0 91 0;
#X connect 104 0 180 0;
#X connect 106 0 135 0;
#X connect 108 0 107 0;
#X connect 109 0 112 0;
#X connect 109 0 229 0;
#X connect 110 0 111 0;
#X connect 110 0 230 0;
#X connect 113 0 80 0;
#X connect 115 0 41 0;
#X connect 116 0 63 0;
#X connect 117 0 63 0;
#X connect 118 0 62 0;
#X connect 119 0 57 0;
#X connect 121 0 120 0;
#X connect 121 1 24 0;
#X connect 121 2 22 0;
#X connect 121 3 21 0;
#X connect 122 0 119 0;
#X connect 122 0 123 0;
#X connect 123 0 68 0;
#X connect 124 0 125 0;
#X connect 127 0 125 0;
#X connect 128 0 130 0;
#X connect 130 0 129 0;
#X connect 131 0 133 0;
#X connect 132 0 134 0;
#X connect 133 0 132 0;
#X connect 135 0 136 0;
#X connect 135 1 19 0;
#X connect 136 0 16 0;
#X connect 138 0 80 0;
#X connect 139 0 148 0;
#X connect 140 0 139 0;
#X connect 141 0 142 0;
#X connect 142 0 83 0;
#X connect 142 0 144 0;
#X connect 142 0 284 0;
#X connect 142 0 300 0;
#X connect 142 0 310 0;
#X connect 143 0 83 0;
#X connect 143 0 284 0;
#X connect 143 0 300 0;
#X connect 143 0 310 0;
#X connect 144 0 145 0;
#X connect 145 0 143 0;
#X connect 146 0 149 0;
#X connect 147 0 145 1;
#X connect 147 0 259 1;
#X connect 148 0 147 0;
#X connect 149 0 148 0;
#X connect 149 1 147 1;
#X connect 150 0 152 0;
#X connect 151 0 238 0;
#X connect 152 0 151 0;
#X connect 153 0 154 0;
#X connect 155 0 156 0;
#X connect 155 0 231 0;
#X connect 156 0 219 0;
#X connect 157 0 156 0;
#X connect 157 1 219 1;
#X connect 158 0 153 0;
#X connect 159 0 58 0;
#X connect 160 0 175 0;
#X connect 161 0 162 0;
#X connect 162 0 159 1;
#X connect 163 0 275 0;
#X connect 163 0 299 0;
#X connect 164 0 275 0;
#X connect 164 0 299 0;
#X connect 165 0 163 1;
#X connect 165 0 167 0;
#X connect 166 0 164 1;
#X connect 167 0 166 0;
#X connect 168 0 176 0;
#X connect 169 0 170 0;
#X connect 170 0 171 0;
#X connect 171 0 158 0;
#X connect 172 0 173 0;
#X connect 173 0 174 0;
#X connect 174 0 159 0;
#X connect 175 0 172 0;
#X connect 175 1 161 0;
#X connect 176 0 169 0;
#X connect 176 1 158 1;
#X connect 177 0 104 0;
#X connect 177 1 180 1;
#X connect 177 2 88 0;
#X connect 177 3 87 0;
#X connect 177 4 96 0;
#X connect 177 5 185 0;
#X connect 177 6 186 0;
#X connect 178 0 179 0;
#X connect 180 0 89 0;
#X connect 181 0 185 1;
#X connect 182 0 186 1;
#X connect 185 0 180 5;
#X connect 186 0 180 6;
#X connect 187 0 189 0;
#X connect 187 1 188 0;
#X connect 188 0 184 0;
#X connect 188 0 247 0;
#X connect 189 0 97 0;
#X connect 189 1 98 0;
#X connect 189 2 99 0;
#X connect 189 3 183 0;
#X connect 192 0 197 0;
#X connect 192 0 227 0;
#X connect 193 0 194 0;
#X connect 193 0 228 0;
#X connect 194 0 191 0;
#X connect 195 0 194 2;
#X connect 196 0 195 0;
#X connect 196 0 198 0;
#X connect 197 0 190 0;
#X connect 198 0 197 1;
#X connect 199 0 202 1;
#X connect 200 0 201 0;
#X connect 201 0 199 1;
#X connect 202 0 204 0;
#X connect 203 0 211 0;
#X connect 205 0 200 0;
#X connect 205 0 203 0;
#X connect 206 0 207 0;
#X connect 206 1 210 1;
#X connect 207 0 210 0;
#X connect 208 0 207 0;
#X connect 208 0 199 0;
#X connect 209 0 206 0;
#X connect 210 0 205 0;
#X connect 211 0 202 0;
#X connect 212 0 215 0;
#X connect 213 0 212 0;
#X connect 214 0 212 1;
#X connect 215 0 217 0;
#X connect 217 0 216 0;
#X connect 219 0 234 0;
#X connect 220 0 223 0;
#X connect 221 0 157 0;
#X connect 222 0 223 0;
#X connect 222 0 226 0;
#X connect 223 0 221 0;
#X connect 224 0 226 0;
#X connect 225 0 232 0;
#X connect 226 0 225 0;
#X connect 227 0 194 1;
#X connect 228 0 197 2;
#X connect 231 0 233 0;
#X connect 232 0 231 0;
#X connect 232 1 233 1;
#X connect 233 0 235 0;
#X connect 233 0 237 1;
#X connect 234 0 171 0;
#X connect 234 0 238 1;
#X connect 235 0 236 0;
#X connect 236 0 156 0;
#X connect 236 1 234 1;
#X connect 237 0 163 0;
#X connect 238 0 237 0;
#X connect 239 0 6 0;
#X connect 240 0 253 0;
#X connect 241 0 10 0;
#X connect 242 0 218 0;
#X connect 243 0 5 0;
#X connect 244 0 4 0;
#X connect 245 0 9 0;
#X connect 246 0 1 0;
#X connect 248 0 249 0;
#X connect 250 0 71 1;
#X connect 251 0 252 1;
#X connect 252 0 85 0;
#X connect 253 0 137 0;
#X connect 253 1 254 0;
#X connect 254 1 257 0;
#X connect 255 0 256 0;
#X connect 256 0 259 0;
#X connect 257 1 255 0;
#X connect 258 0 260 0;
#X connect 259 0 258 0;
#X connect 260 0 251 0;
#X connect 260 1 80 0;
#X connect 261 0 105 0;
#X connect 262 0 83 0;
#X connect 262 0 300 0;
#X connect 262 0 310 0;
#X connect 263 0 264 0;
#X connect 264 0 95 0;
#X connect 265 0 95 1;
#X connect 266 0 269 0;
#X connect 267 0 268 0;
#X connect 268 0 269 1;
#X connect 269 0 271 0;
#X connect 270 0 267 0;
#X connect 271 0 105 0;
#X connect 271 0 272 0;
#X connect 272 0 33 0;
#X connect 272 1 32 0;
#X connect 274 0 286 0;
#X connect 275 0 274 0;
#X connect 277 0 281 0;
#X connect 278 0 279 0;
#X connect 279 0 280 0;
#X connect 279 1 277 1;
#X connect 280 0 277 0;
#X connect 281 0 282 0;
#X connect 282 0 283 0;
#X connect 283 0 276 0;
#X connect 284 0 285 0;
#X connect 285 0 286 1;
#X connect 285 0 287 0;
#X connect 285 0 293 0;
#X connect 286 0 280 0;
#X connect 287 0 288 0;
#X connect 288 0 280 0;
#X connect 289 0 291 0;
#X connect 290 0 296 0;
#X connect 291 0 295 0;
#X connect 291 0 313 0;
#X connect 292 0 291 1;
#X connect 293 0 292 0;
#X connect 294 0 284 0;
#X connect 295 0 301 0;
#X connect 296 0 297 0;
#X connect 297 0 298 0;
#X connect 298 0 38 0;
#X connect 299 0 38 0;
#X connect 300 0 299 1;
#X connect 301 0 290 0;
#X connect 302 0 305 0;
#X connect 303 0 308 0;
#X connect 304 0 303 0;
#X connect 305 0 304 0;
#X connect 305 1 303 1;
#X connect 307 0 301 1;
#X connect 307 0 306 0;
#X connect 308 0 309 0;
#X connect 309 0 307 0;
#X connect 310 0 311 0;
#X connect 311 0 312 0;
#X connect 312 0 298 1;
#X connect 313 0 314 0;
#X connect 314 0 319 0;
#X connect 314 0 323 0;
#X connect 314 0 325 0;
#X connect 315 0 316 0;
#X connect 316 0 317 0;
#X connect 316 0 318 0;
#X connect 317 0 316 1;
#X connect 318 0 327 0;
#X connect 318 0 328 0;
#X connect 319 0 316 0;
#X connect 320 0 315 0;
#X connect 321 0 315 0;
#X connect 322 0 298 1;
#X connect 323 0 322 0;
#X connect 324 0 322 0;
#X connect 325 0 326 0;
#X connect 326 0 83 0;
#X connect 327 0 83 0;
#X connect 328 0 324 0;
#X coords 0 -1 1 1 459 191 1 100 100;
