#N canvas 0 55 1366 690 10;
#X obj 102 103 cnv 15 400 210 empty empty shapedrone 6 193 0 16 -33289
-262144 0;
#X obj 327 233 vsl 15 50 0 127 0 0 \$0sus \$0sus_r Sustain -12 -9 0
10 -162280 -260097 -262144 4900 1;
#X obj 263 252 hsl 50 15 0 127 0 0 \$0att \$0att_r Attack 0 -9 0 10
-162280 -260097 -262144 4900 1;
#X obj 264 269 nbx 5 14 -1e+37 1e+37 0 0 empty \$0attshow empty 0 -8
0 11 -99865 -260097 -260097 20000 256 0;
#X obj 352 252 hsl 50 15 0 127 0 0 \$0rel \$0rel_r Release/Decay 0
-9 0 10 -162280 -260097 -262144 800 1;
#X obj 353 269 nbx 5 14 -1e+37 1e+37 0 0 empty \$0relshow empty 0 -8
0 11 -99865 -260097 -260097 3265.3 256 0;
#X obj 313 289 nbx 4 14 -1e+37 1e+37 0 0 empty \$0susshow empty 0 -8
0 11 -99865 -260097 -260097 1 256 0;
#X obj 163 135 vsl 20 70 0 127 0 0 \$0Freq \$0Freq_r Frequenz 0 -9
0 12 -162280 -260097 -262144 3013 1;
#X obj 105 126 cnv 10 5 5 empty empty Input--- 0 0 0 12 -33289 -262144
0;
#X obj 105 107 cnv 10 2 2 empty empty | 0 5 0 12 -33289 -262144 0;
#X obj 131 209 nbx 5 14 -1e+37 1e+37 0 0 \$0freqshow_s \$0freqshow
empty 0 -8 0 11 -99865 -260097 -260097 440 256 0;
#X obj -226 -33 inlet;
#X obj -201 537 outlet~;
#X obj 754 -116 loadbang;
#X obj 762 64 s \$0Freq_r;
#X obj 997 112 s \$0att_r;
#X obj 1084 120 s \$0rel_r;
#X msg 1037 -13 63.5;
#X obj 1035 7 s \$0sus_r;
#X obj 248 120 cnv 5 1 1 empty empty sin 0 0 0 10 -33289 -262144 0
;
#X obj 248 137 cnv 5 1 1 empty empty rec 0 0 0 10 -33289 -262144 0
;
#X obj 248 154 cnv 5 1 1 empty empty saw 0 0 0 10 -33289 -262144 0
;
#X obj 248 172 cnv 5 1 1 empty empty tri 0 0 0 10 -33289 -262144 0
;
#X obj 248 202 cnv 5 2 2 empty empty zufall -16 0 0 10 -33289 -262144
0;
#N canvas 0 0 1440 818 voice 0;
#X obj 102 468 *~;
#X obj 54 -75 unpack f f;
#N canvas 766 195 526 209 VCO1 0;
#X obj -205 -74 inlet~;
#X obj -214 91 outlet~;
#X obj -204 -13 tabosc4~ \$0shape;
#X connect 0 0 2 0;
#X connect 2 0 1 0;
#X restore 55 240 pd VCO1;
#X obj 75 -109 inlet;
#X obj 101 509 outlet~;
#X obj 55 102 sig~;
#X obj 55 131 *~;
#X obj 408 33 r \$0det;
#X floatatom 410 98 10 0 0 0 - - -, f 10;
#X obj 409 53 / 1098.71;
#X obj 410 76 + 0.942207;
#X obj 310 30 / 63.5;
#X obj 308 56 - 1;
#X obj 301 84 s \$0detshow;
#X obj 20 -140 r \$0freqshow;
#X obj 762 364 r \$0att;
#X obj 896 365 r \$0rel;
#X obj 826 183 r \$0sus;
#X obj 826 216 / 127;
#X obj 826 633 vline~;
#X obj 1062 195 moses 1;
#X floatatom 1063 227 5 0 0 0 - - -, f 5;
#X floatatom 1116 252 5 0 0 0 - - -, f 5;
#X obj 870 533 pack f f;
#X obj 1115 228 / 127;
#X obj 758 481 pack f f f f;
#X msg 740 527 \$1 \$2 \, \$3 \$4 \$2;
#X obj 760 433 s \$0attshow;
#X obj 738 263 s \$0susshow;
#X obj 929 432 s \$0relshow;
#X obj 843 297 *;
#X obj 859 238 t b f;
#X obj 829 268 f;
#X obj 724 451 f;
#X obj 811 391 t b f;
#X obj 1095 283 t f f;
#X obj 49 47 line;
#X obj 49 0 pack 0 0;
#X obj 159 -47 r \$0glideshow;
#X obj 762 397 * 157.48;
#X obj 898 397 * 157.48;
#X obj 865 437 * 39.3701;
#X obj 132 73 r~ \$0fmsignal;
#X obj 57 205 +~;
#X obj 134 172 *~;
#X obj 188 170 line~;
#X obj 188 100 r \$0fm-int;
#X msg 188 145 \$1 15;
#X obj 188 122 pow 2.1;
#X connect 0 0 4 0;
#X connect 1 0 37 0;
#X connect 1 1 20 0;
#X connect 2 0 0 0;
#X connect 3 0 1 0;
#X connect 5 0 6 0;
#X connect 6 0 43 0;
#X connect 7 0 9 0;
#X connect 7 0 11 0;
#X connect 8 0 6 1;
#X connect 9 0 10 0;
#X connect 10 0 8 0;
#X connect 11 0 12 0;
#X connect 12 0 13 0;
#X connect 14 0 37 0;
#X connect 15 0 39 0;
#X connect 16 0 40 0;
#X connect 16 0 41 0;
#X connect 17 0 18 0;
#X connect 18 0 28 0;
#X connect 18 0 32 1;
#X connect 19 0 0 1;
#X connect 20 0 21 0;
#X connect 20 1 24 0;
#X connect 21 0 23 0;
#X connect 22 0 35 0;
#X connect 23 0 19 0;
#X connect 24 0 22 0;
#X connect 25 0 26 0;
#X connect 26 0 19 0;
#X connect 30 0 34 0;
#X connect 31 0 32 0;
#X connect 31 1 30 1;
#X connect 32 0 30 0;
#X connect 33 0 25 0;
#X connect 34 0 33 0;
#X connect 34 1 25 2;
#X connect 35 0 31 0;
#X connect 35 1 33 1;
#X connect 36 0 5 0;
#X connect 37 0 36 0;
#X connect 38 0 37 1;
#X connect 39 0 25 1;
#X connect 39 0 27 0;
#X connect 40 0 23 1;
#X connect 40 0 29 0;
#X connect 41 0 25 3;
#X connect 42 0 44 0;
#X connect 43 0 2 0;
#X connect 44 0 43 1;
#X connect 45 0 44 1;
#X connect 46 0 48 0;
#X connect 47 0 45 0;
#X connect 48 0 47 0;
#X restore -206 382 pd voice 1;
#X obj -226 149 pack 0 0 0;
#X obj -224 186 route 1 2 3 4;
#X obj 117 163 tgl 30 0 \$0on \$0on_r Ton 2 -10 0 14 -162280 -260097
-262144 0 1;
#X obj -141 -92 r \$0on;
#X obj -28 -169 r \$0Freq;
#X obj 18 -15 s \$0freqshow;
#X obj -142 -66 * 127;
#X obj -154 32 pack f f;
#X obj -140 -32 t b f;
#X obj -151 -5 f;
#X obj -43 20 sel 0;
#X msg -80 93 stop;
#X obj 157 -2 route stop;
#X obj 175 21 bng 15 250 50 0 empty empty empty 17 7 0 10 -262144 -1
-1;
#X obj -148 488 *~ 0.25;
#X obj 362 -64 inlet;
#X obj 381 -40 inlet;
#X obj 391 -30 inlet;
#X obj 401 -20 inlet;
#X obj 324 -72 inlet;
#X obj 548 4 inlet;
#X obj 112 244 hsl 40 15 0 127 0 0 \$0det \$0det_r detune 2 7 0 10
-162280 -260097 -262144 1950 1;
#X obj 112 261 nbx 4 14 -1e+37 1e+37 0 0 empty \$0detshow empty 0 -8
0 11 -99865 -260097 -260097 0 256 0;
#X obj 799 201 s \$0det_r;
#X msg 806 144 63.5;
#X obj 162 264 bng 10 250 50 0 \$0nodet \$0nodet_r empty 17 7 0 10
-262144 -1 -1;
#X obj -38 195 r \$0nodet;
#X msg -37 221 63.5;
#X obj -37 256 s \$0det_r;
#X obj 507 -5 inlet;
#X obj 1144 574 \$0;
#X msg 1147 514 bang;
#X msg 1146 601 \; \$1shape sinesum 1024 1;
#X msg 1292 595 \; \$1shape sinesum 1024 1 0 -0.111111 0 0.04 0 -0.0204082
0 0.0123457 0 -0.00826446 0;
#X obj 1290 561 \$0;
#X msg 1296 470 bang;
#N canvas 0 55 1366 690 voice 0;
#X obj 102 468 *~;
#X obj 56 -4 unpack f f;
#N canvas 766 195 526 209 VCO1 0;
#X obj -205 -74 inlet~;
#X obj -214 91 outlet~;
#X obj -204 -13 tabosc4~ \$0shape;
#X connect 0 0 2 0;
#X connect 2 0 1 0;
#X restore 55 240 pd VCO1;
#X obj 77 -38 inlet;
#X obj 101 509 outlet~;
#X obj 55 152 sig~;
#X obj 55 181 *~;
#X obj 408 33 r \$0det;
#X floatatom 410 98 10 0 0 0 - - -, f 10;
#X obj 409 53 / 1098.71;
#X obj 410 76 + 0.942207;
#X obj 310 30 / 63.5;
#X obj 308 56 - 1;
#X obj 301 84 s \$0detshow;
#X obj 7 -65 r \$0freqshow;
#X obj 793 362 r \$0att;
#X obj 927 363 r \$0rel;
#X obj 857 181 r \$0sus;
#X obj 857 214 / 127;
#X obj 857 631 vline~;
#X obj 1093 193 moses 1;
#X floatatom 1094 225 5 0 0 0 - - -, f 5;
#X floatatom 1147 250 5 0 0 0 - - -, f 5;
#X obj 901 531 pack f f;
#X obj 1146 226 / 127;
#X obj 789 479 pack f f f f;
#X msg 771 525 \$1 \$2 \, \$3 \$4 \$2;
#X obj 769 261 s \$0susshow;
#X obj 874 295 *;
#X obj 890 236 t b f;
#X obj 860 266 f;
#X obj 755 449 f;
#X obj 842 389 t b f;
#X obj 1126 281 t f f;
#X obj 59 123 line;
#X obj 59 76 pack 0 0;
#X obj 103 45 r \$0glideshow;
#X obj 793 395 * 157.48;
#X obj 927 396 * 157.48;
#X obj 891 426 * 39.3701;
#X obj 129 83 r~ \$0fmsignal;
#X obj 54 215 +~;
#X obj 131 182 *~;
#X obj 185 180 line~;
#X obj 185 110 r \$0fm-int;
#X msg 185 155 \$1 15;
#X obj 185 132 pow 2.1;
#X connect 0 0 4 0;
#X connect 1 0 35 0;
#X connect 1 1 20 0;
#X connect 2 0 0 0;
#X connect 3 0 1 0;
#X connect 5 0 6 0;
#X connect 6 0 41 0;
#X connect 7 0 9 0;
#X connect 7 0 11 0;
#X connect 8 0 6 1;
#X connect 9 0 10 0;
#X connect 10 0 8 0;
#X connect 11 0 12 0;
#X connect 12 0 13 0;
#X connect 14 0 35 0;
#X connect 15 0 37 0;
#X connect 16 0 38 0;
#X connect 16 0 39 0;
#X connect 17 0 18 0;
#X connect 18 0 27 0;
#X connect 18 0 30 1;
#X connect 19 0 0 1;
#X connect 20 0 21 0;
#X connect 20 1 24 0;
#X connect 21 0 23 0;
#X connect 22 0 33 0;
#X connect 23 0 19 0;
#X connect 24 0 22 0;
#X connect 25 0 26 0;
#X connect 26 0 19 0;
#X connect 28 0 32 0;
#X connect 29 0 30 0;
#X connect 29 1 28 1;
#X connect 30 0 28 0;
#X connect 31 0 25 0;
#X connect 32 0 31 0;
#X connect 32 1 25 2;
#X connect 33 0 29 0;
#X connect 33 1 31 1;
#X connect 34 0 5 0;
#X connect 35 0 34 0;
#X connect 36 0 35 1;
#X connect 37 0 25 1;
#X connect 38 0 23 1;
#X connect 39 0 25 3;
#X connect 40 0 42 0;
#X connect 41 0 2 0;
#X connect 42 0 41 1;
#X connect 43 0 42 1;
#X connect 44 0 46 0;
#X connect 45 0 43 0;
#X connect 46 0 45 0;
#X restore -170 405 pd voice 2;
#N canvas 0 55 1366 690 voice 0;
#X obj 102 468 *~;
#X obj 55 74 unpack f f;
#N canvas 766 195 526 209 VCO1 0;
#X obj -205 -74 inlet~;
#X obj -214 91 outlet~;
#X obj -204 -13 tabosc4~ \$0shape;
#X connect 0 0 2 0;
#X connect 2 0 1 0;
#X restore 54 281 pd VCO1;
#X obj 76 40 inlet;
#X obj 101 509 outlet~;
#X obj 54 165 sig~;
#X obj 54 194 *~;
#X obj 408 33 r \$0det;
#X floatatom 410 98 10 0 0 0 - - -, f 10;
#X obj 409 53 / 1098.71;
#X obj 410 76 + 0.942207;
#X obj 310 30 / 63.5;
#X obj 308 56 - 1;
#X obj 301 84 s \$0detshow;
#X obj 7 16 r \$0freqshow;
#X obj 278 371 r \$0att;
#X obj 412 372 r \$0rel;
#X obj 342 190 r \$0sus;
#X obj 342 223 / 127;
#X obj 342 640 vline~;
#X obj 578 202 moses 1;
#X floatatom 579 234 5 0 0 0 - - -, f 5;
#X floatatom 632 259 5 0 0 0 - - -, f 5;
#X obj 386 540 pack f f;
#X obj 631 235 / 127;
#X obj 274 488 pack f f f f;
#X msg 256 534 \$1 \$2 \, \$3 \$4 \$2;
#X obj 254 270 s \$0susshow;
#X obj 359 304 *;
#X obj 375 245 t b f;
#X obj 345 275 f;
#X obj 240 458 f;
#X obj 327 398 t b f;
#X obj 611 290 t f f;
#X obj 55 132 line;
#X obj 53 104 pack 0 0;
#X obj 137 56 r \$0glideshow;
#X obj 277 403 * 157.48;
#X obj 412 405 * 157.48;
#X obj 378 449 * 39.3701;
#X obj 109 138 r~ \$0fmsignal;
#X obj 54 218 +~;
#X obj 131 185 *~;
#X obj 207 207 line~;
#X obj 207 137 r \$0fm-int;
#X msg 207 182 \$1 15;
#X obj 207 159 pow 2.1;
#X connect 0 0 4 0;
#X connect 1 0 35 0;
#X connect 1 1 20 0;
#X connect 2 0 0 0;
#X connect 3 0 1 0;
#X connect 5 0 6 0;
#X connect 6 0 41 0;
#X connect 7 0 9 0;
#X connect 7 0 11 0;
#X connect 8 0 6 1;
#X connect 9 0 10 0;
#X connect 10 0 8 0;
#X connect 11 0 12 0;
#X connect 12 0 13 0;
#X connect 14 0 35 0;
#X connect 15 0 37 0;
#X connect 16 0 38 0;
#X connect 16 0 39 0;
#X connect 17 0 18 0;
#X connect 18 0 27 0;
#X connect 18 0 30 1;
#X connect 19 0 0 1;
#X connect 20 0 21 0;
#X connect 20 1 24 0;
#X connect 21 0 23 0;
#X connect 22 0 33 0;
#X connect 23 0 19 0;
#X connect 24 0 22 0;
#X connect 25 0 26 0;
#X connect 26 0 19 0;
#X connect 28 0 32 0;
#X connect 29 0 30 0;
#X connect 29 1 28 1;
#X connect 30 0 28 0;
#X connect 31 0 25 0;
#X connect 32 0 31 0;
#X connect 32 1 25 2;
#X connect 33 0 29 0;
#X connect 33 1 31 1;
#X connect 34 0 5 0;
#X connect 35 0 34 0;
#X connect 36 0 35 1;
#X connect 37 0 25 1;
#X connect 38 0 23 1;
#X connect 39 0 25 3;
#X connect 40 0 42 0;
#X connect 41 0 2 0;
#X connect 42 0 41 1;
#X connect 43 0 42 1;
#X connect 44 0 46 0;
#X connect 45 0 43 0;
#X connect 46 0 45 0;
#X restore -149 421 pd voice 3;
#N canvas 0 0 1440 818 voice 0;
#X obj 102 468 *~;
#X obj 55 74 unpack f f;
#N canvas 766 195 526 209 VCO1 0;
#X obj -205 -74 inlet~;
#X obj -214 91 outlet~;
#X obj -204 -13 tabosc4~ \$0shape;
#X connect 0 0 2 0;
#X connect 2 0 1 0;
#X restore 53 298 pd VCO1;
#X obj 76 40 inlet;
#X obj 101 509 outlet~;
#X obj 52 176 sig~;
#X obj 52 205 *~;
#X obj 408 33 r \$0det;
#X floatatom 410 98 10 0 0 0 - - -, f 10;
#X obj 409 53 / 1098.71;
#X obj 410 76 + 0.942207;
#X obj 310 30 / 63.5;
#X obj 308 56 - 1;
#X obj 301 84 s \$0detshow;
#X obj 25 6 r \$0freqshow;
#X obj 290 335 r \$0att;
#X obj 424 336 r \$0rel;
#X obj 354 154 r \$0sus;
#X obj 354 187 / 127;
#X obj 354 604 vline~;
#X obj 590 166 moses 1;
#X floatatom 591 198 5 0 0 0 - - -, f 5;
#X floatatom 644 223 5 0 0 0 - - -, f 5;
#X obj 398 504 pack f f;
#X obj 643 199 / 127;
#X obj 286 452 pack f f f f;
#X msg 268 498 \$1 \$2 \, \$3 \$4 \$2;
#X obj 266 234 s \$0susshow;
#X obj 371 268 *;
#X obj 387 209 t b f;
#X obj 357 239 f;
#X obj 252 422 f;
#X obj 339 362 t b f;
#X obj 623 254 t f f;
#X obj 69 134 line;
#X obj 69 107 pack 0 0;
#X obj 179 60 r \$0glideshow;
#X obj 290 368 * 157.48;
#X obj 424 369 * 157.48;
#X obj 387 410 * 39.3701;
#X obj 127 125 r~ \$0fmsignal;
#X obj 52 257 +~;
#X obj 129 224 *~;
#X obj 183 222 line~;
#X obj 183 152 r \$0fm-int;
#X msg 183 197 \$1 15;
#X obj 183 174 pow 2.1;
#X connect 0 0 4 0;
#X connect 1 0 35 0;
#X connect 1 1 20 0;
#X connect 2 0 0 0;
#X connect 3 0 1 0;
#X connect 5 0 6 0;
#X connect 6 0 41 0;
#X connect 7 0 9 0;
#X connect 7 0 11 0;
#X connect 8 0 6 1;
#X connect 9 0 10 0;
#X connect 10 0 8 0;
#X connect 11 0 12 0;
#X connect 12 0 13 0;
#X connect 14 0 35 0;
#X connect 15 0 37 0;
#X connect 16 0 38 0;
#X connect 16 0 39 0;
#X connect 17 0 18 0;
#X connect 18 0 27 0;
#X connect 18 0 30 1;
#X connect 19 0 0 1;
#X connect 20 0 21 0;
#X connect 20 1 24 0;
#X connect 21 0 23 0;
#X connect 22 0 33 0;
#X connect 23 0 19 0;
#X connect 24 0 22 0;
#X connect 25 0 26 0;
#X connect 26 0 19 0;
#X connect 28 0 32 0;
#X connect 29 0 30 0;
#X connect 29 1 28 1;
#X connect 30 0 28 0;
#X connect 31 0 25 0;
#X connect 32 0 31 0;
#X connect 32 1 25 2;
#X connect 33 0 29 0;
#X connect 33 1 31 1;
#X connect 34 0 5 0;
#X connect 35 0 34 0;
#X connect 36 0 35 1;
#X connect 37 0 25 1;
#X connect 38 0 23 1;
#X connect 39 0 25 3;
#X connect 40 0 42 0;
#X connect 41 0 2 0;
#X connect 42 0 41 1;
#X connect 43 0 42 1;
#X connect 44 0 46 0;
#X connect 45 0 43 0;
#X connect 46 0 45 0;
#X restore -123 444 pd voice 4;
#X obj -226 119 poly 4 1;
#X msg 1382 555 \; \$1shape normalize 1;
#X obj 1380 528 \$0;
#X obj 1382 493 del 5;
#X obj 1667 562 \$0;
#X msg 1673 471 bang;
#X msg 1759 556 \; \$1shape normalize 1;
#X obj 1757 529 \$0;
#X obj 1759 494 del 5;
#X msg 1669 596 \; \$1shape sinesum 1024 1 0 0.333333 0 0.2 0 0.142857
0 0.111111 0 0.090909 0 0.076923;
#X obj 2022 558 \$0;
#X msg 2028 467 bang;
#X msg 2114 552 \; \$1shape normalize 1;
#X obj 2112 525 \$0;
#X obj 2114 490 del 5;
#X msg 2024 592 \; \$1shape sinesum 1024 1 0.5 0.333333 0.25 0.2 0.166667
0.142857 0.125 0.111111 0.1 0.0909091 0.0833333 0.0769231;
#X obj 2393 392 \$0;
#X msg 2508 546 \; \$1shape normalize 1;
#X obj 2506 519 \$0;
#X obj 2473 213 random 1001;
#X obj 2474 240 / 1000;
#X obj 2396 164 until;
#X obj 2396 190 f;
#X obj 2426 190 + 1;
#X msg 2396 141 13;
#X obj 2398 227 bng 15 250 50 0 empty empty empty 17 7 0 10 -262144
-1 -1;
#X obj 2333 128 sel 12;
#X msg 2333 155 0;
#X obj 2471 356 serialize 13;
#X msg 2414 604 \; \$1shape sinesum 1024 1 \$2 \$3 \$4 \$5 \$6 \$7
\$8 \$9 \$10 \$11 \$12 \$13 \$14;
#X obj 2399 436 list append;
#X obj 2436 379 t b l;
#X obj 2454 472 bng 15 250 50 0 empty empty empty 17 7 0 10 -262144
-1 -1;
#X obj 2508 484 del 1;
#X obj 2648 302 noise~;
#X obj 2648 402 tabwrite~ \$0shape;
#X msg 2765 330 bang;
#X msg 2774 431 \; \$1shape normalize 1;
#X obj 2772 404 \$0;
#X obj 2693 -96 bng 15 250 50 0 empty empty empty 17 7 0 10 -262144
-1 -1;
#X obj 2649 359 lop~ 1000;
#X obj 2774 369 del 25;
#X obj 2649 337 lop~ 1000;
#X obj 2881 347 tabwrite~ \$0shape;
#X msg 2998 275 bang;
#X msg 3007 376 \; \$1shape normalize 1;
#X obj 3005 349 \$0;
#X obj 3007 314 del 25;
#X obj 2946 132 osc~;
#X obj 2873 176 +~;
#X obj 2921 168 *~;
#X obj 2923 84 *;
#X obj 3002 150 random 2687;
#X obj 3043 52 random 4001;
#X obj 3062 108 / 1000;
#X obj 2880 -46 bng 15 250 50 0 empty empty empty 17 7 0 10 -262144
-1 -1;
#X obj 2861 -15 del 5;
#X obj 2873 218 osc~;
#X floatatom 3001 186 5 0 0 0 - - -, f 5;
#X obj 2861 12 random 1500;
#X obj 2836 47 + 50;
#X obj 2697 30 gate 3;
#X obj 2675 -18 + 1;
#X obj 2666 -61 random 3;
#X obj 2736 -11 t b f;
#X floatatom 2759 39 5 0 0 0 - - -, f 5;
#X obj 2957 216 del 10;
#X obj 445 261 bng 25 250 50 0 \$0read \$0read_r laden -7 33 0 12 -228856
-260097 -262144;
#X obj 445 233 bng 25 250 50 0 \$0write \$0write_r speichern -17 -10
0 12 -228856 -260097 -262144;
#X obj 1141 390 r \$0sine;
#X obj 1294 412 r \$0tri;
#X obj 1694 424 r \$0squ;
#X obj 2027 425 r \$0saw;
#X obj 2712 -158 r \$0luck;
#X obj 272 114 bng 15 250 50 0 \$0sine \$0sine_r empty 17 7 0 10 -162280
-260097 -1;
#X obj 272 131 bng 15 250 50 0 \$0squ \$0squ_r empty 17 7 0 10 -162280
-260097 -1;
#X obj 272 149 bng 15 250 50 0 \$0saw \$0saw_r empty 17 7 0 10 -162280
-260097 -1;
#X obj 272 166 bng 15 250 50 0 \$0tri \$0tri_r empty 17 7 0 10 -162280
-260097 -1;
#X obj 272 196 bng 15 250 50 0 \$0luck \$0luck_r empty 17 7 0 10 -162280
-260097 -1;
#X obj 292 113 cnv 15 200 100 empty empty empty 20 12 0 14 -262144
-66577 0;
#N canvas 0 0 450 300 (subpatch) 0;
#X array \$0shape 1027 float 4 black black;
#X coords 0 1 1026 -1 200 100 1;
#X restore 292 113 graph;
#X obj 876 -89 s \$0sine_r;
#X obj -34 -69 mtof;
#X obj -28 -101 + 21;
#X obj -29 -138 / 1.155;
#X obj -98 -501 r toolssavebank;
#X obj 112 -584 r toolssavebang;
#X obj 331 -394 f;
#X obj 276 -400 f;
#X obj 192 -229 s toolssavelists;
#X obj 141 -480 f;
#X obj -101 -430 route;
#X obj 174 -655 loadbang;
#X obj 263 -583 \$1;
#X obj 262 -611 del 5;
#X obj 142 -534 del;
#X obj 403 -366 f;
#X obj 962 -325 r \$0filename;
#X obj 61 -277 s \$0filename_r;
#X obj 540 -371 f;
#X obj 935 -289 symbol;
#X obj 30 -323 list2symbol;
#X obj 95 -257 s \$0filename;
#X obj 314 -457 r \$0Freq;
#X obj 404 -454 r \$0det;
#X obj 515 -449 r \$0att;
#X obj 576 -404 r \$0sus;
#X obj 618 -363 f;
#X obj 654 -416 r \$0rel;
#X obj -319 -271 s \$0Freq_r;
#X obj -257 -247 s \$0det_r;
#X obj -189 -273 s \$0att_r;
#X obj -172 -241 s \$0sus_r;
#X obj -105 -252 s \$0rel_r;
#X obj -42 -45 int;
#X msg 752 2 55.45;
#X obj 279 291 tgl 15 0 \$0monopoly \$0monopoly_r mono/poly -56 7 0
10 -191407 -260097 -262144 0 1;
#X obj 189 243 hsl 50 15 0 127 0 0 \$0glide \$0glide_r Glide 10 7 0
10 -162280 -260097 -262144 0 1;
#X obj 189 260 nbx 4 14 -1e+37 1e+37 0 0 \$0glideshow_s \$0glideshow
empty 0 -8 0 11 -99865 -260097 -260097 0 256 0;
#X obj -18 531 r \$0glide;
#X obj -17 556 / 1.27;
#X obj -19 583 pow 1.5;
#X obj -20 615 s \$0glideshow;
#X msg 985 86 0.5;
#X obj -288 97 poly 1 1;
#X obj -286 33 spigot;
#X obj -227 40 spigot;
#X obj -246 -124 r \$0monopoly;
#X msg -289 -61 1;
#X obj -270 -93 sel 1;
#X obj -222 -94 sel 0;
#X msg -254 -64 0;
#X msg -219 -65 1;
#X msg -184 -68 0;
#X obj 687 120 s \$0monopoly_r;
#X msg 686 94 1;
#X msg 929 156 0;
#X obj 929 180 s \$0glide_r;
#X obj 717 -397 r \$0monopoly;
#X obj 792 -344 r \$0glide;
#X obj 675 -346 f;
#X obj 737 -287 f;
#X obj -89 -287 s \$0monopoly_r;
#X obj -63 -228 s \$0glide_r;
#X obj 857 1336 soundfiler;
#X obj 854 1152 openpanel;
#X obj 854 1080 getdir;
#X msg 854 1107 symbol \$1;
#X obj 852 1049 bng 15 250 50 0 empty \$0read empty 17 7 0 10 -262144
-1 -1;
#X obj 861 1249 zl join;
#X obj 941 1261 \$0;
#X obj 941 1245 bng 15 250 50 0 empty empty empty 17 7 0 10 -262144
-1 -1;
#X obj 707 1450 \$0;
#X obj 734 1126 bng 15 250 50 0 empty \$0write empty 17 7 0 10 -262144
-1 -1;
#X obj 732 1173 getdir;
#X msg 732 1200 symbol \$1;
#X obj 734 1362 zl join;
#X obj 819 1335 \$0;
#X obj 818 1306 bng 15 250 50 0 empty empty empty 17 7 0 10 -262144
-1 -1;
#X msg 732 1280 write -wave -normalize \$1;
#X obj 736 1399 soundfiler;
#X obj 732 1245 savepanel;
#X obj 1063 1206 s \$0filename;
#X obj 923 1139 r \$0filename_r;
#X obj 850 1424 t b b f f;
#X obj 932 1379 sel 0;
#X obj 996 1404 \$0;
#X obj 924 1178 t s b;
#X msg 1069 1170 symbol \$1.wav;
#X msg 820 1362 \$1shape;
#X msg 942 1288 \$1shape;
#X msg 1000 1432 \; \$1shape const 0;
#X msg 707 1490 \; \$1shape normalize;
#X msg 855 1208 read \$1;
#X obj 733 806 r toolsdirectory;
#X obj 790 882 \$1;
#X obj 791 909 ftos;
#X obj 745 953 pack s s;
#X obj 790 857 loadbang;
#X obj 749 1015 t s b;
#X obj 183 -553 clip 1 110;
#X obj 133 -380 symbol shapedrone;
#X obj -98 -462 route shapedrone;
#X obj 214 -83 inlet~;
#X obj 215 -49 s~ \$0fmsignal;
#X obj 204 177 vsl 15 40 0 127 0 0 \$0fm-int \$0fm-int_r FM-int -8
-9 0 10 -162280 -260097 -262144 0 1;
#X obj 447 -10 inlet;
#X msg 775 984 symbol \$1Shapedrone\$2shape.wav;
#X obj 855 -298 f;
#X obj 869 -337 r \$0fm-int;
#X obj 523 -526 t b f b b b b b b b b b;
#X obj 167 -314 pack s f f f f f f f f f s;
#X obj -99 -395 list split 8;
#X obj -197 -346 unpack f f f f f f f f;
#X obj -67 -313 s \$0fm-int_r;
#X connect 11 0 37 0;
#X connect 11 0 189 0;
#X connect 11 0 190 0;
#X connect 13 0 179 0;
#X connect 13 0 187 0;
#X connect 13 0 17 0;
#X connect 13 0 49 0;
#X connect 13 0 145 0;
#X connect 13 0 199 0;
#X connect 13 0 200 0;
#X connect 17 0 18 0;
#X connect 24 0 39 0;
#X connect 25 0 26 0;
#X connect 26 0 24 0;
#X connect 26 1 61 0;
#X connect 26 2 62 0;
#X connect 26 3 63 0;
#X connect 28 0 31 0;
#X connect 28 0 35 0;
#X connect 29 0 148 0;
#X connect 31 0 33 0;
#X connect 32 0 24 0;
#X connect 32 0 61 0;
#X connect 32 0 62 0;
#X connect 32 0 63 0;
#X connect 33 0 34 0;
#X connect 33 1 32 1;
#X connect 34 0 32 0;
#X connect 35 0 36 0;
#X connect 36 0 64 0;
#X connect 36 0 188 0;
#X connect 37 0 38 0;
#X connect 38 0 36 0;
#X connect 39 0 12 0;
#X connect 40 0 7 0;
#X connect 41 0 2 0;
#X connect 42 0 1 0;
#X connect 43 0 4 0;
#X connect 44 0 27 0;
#X connect 45 0 181 0;
#X connect 49 0 48 0;
#X connect 51 0 52 0;
#X connect 52 0 53 0;
#X connect 54 0 46 0;
#X connect 55 0 57 0;
#X connect 56 0 55 0;
#X connect 59 0 58 0;
#X connect 60 0 59 0;
#X connect 60 0 67 0;
#X connect 61 0 39 0;
#X connect 62 0 39 0;
#X connect 63 0 39 0;
#X connect 64 0 25 0;
#X connect 64 1 25 1;
#X connect 64 2 25 2;
#X connect 66 0 65 0;
#X connect 67 0 66 0;
#X connect 68 0 73 0;
#X connect 69 0 68 0;
#X connect 69 0 72 0;
#X connect 71 0 70 0;
#X connect 72 0 71 0;
#X connect 74 0 79 0;
#X connect 75 0 74 0;
#X connect 75 0 78 0;
#X connect 77 0 76 0;
#X connect 78 0 77 0;
#X connect 80 0 94 0;
#X connect 82 0 81 0;
#X connect 83 0 84 0;
#X connect 84 0 92 0;
#X connect 85 0 86 0;
#X connect 86 0 87 0;
#X connect 86 0 89 0;
#X connect 86 0 90 0;
#X connect 87 0 86 1;
#X connect 88 0 85 0;
#X connect 89 0 83 0;
#X connect 90 0 91 0;
#X connect 91 0 86 0;
#X connect 92 0 95 0;
#X connect 94 0 93 0;
#X connect 94 0 96 0;
#X connect 95 0 80 0;
#X connect 95 1 94 1;
#X connect 96 0 97 0;
#X connect 97 0 82 0;
#X connect 98 0 106 0;
#X connect 100 0 99 0;
#X connect 100 0 105 0;
#X connect 102 0 101 0;
#X connect 103 0 127 0;
#X connect 104 0 99 0;
#X connect 105 0 102 0;
#X connect 106 0 104 0;
#X connect 108 0 107 0;
#X connect 108 0 111 0;
#X connect 110 0 109 0;
#X connect 111 0 110 0;
#X connect 112 0 114 0;
#X connect 113 0 121 0;
#X connect 114 0 113 1;
#X connect 115 0 112 0;
#X connect 116 0 114 1;
#X connect 116 0 122 0;
#X connect 117 0 118 0;
#X connect 118 0 115 1;
#X connect 119 0 117 0;
#X connect 119 0 116 0;
#X connect 119 0 120 0;
#X connect 120 0 123 0;
#X connect 120 0 130 0;
#X connect 121 0 107 0;
#X connect 123 0 124 0;
#X connect 124 0 115 0;
#X connect 124 0 113 0;
#X connect 125 0 88 0;
#X connect 125 1 100 0;
#X connect 125 2 119 0;
#X connect 126 0 128 0;
#X connect 127 0 126 0;
#X connect 128 0 125 1;
#X connect 128 1 125 0;
#X connect 128 1 129 0;
#X connect 130 0 108 0;
#X connect 133 0 56 0;
#X connect 134 0 60 0;
#X connect 135 0 69 0;
#X connect 136 0 75 0;
#X connect 137 0 103 0;
#X connect 146 0 178 0;
#X connect 147 0 146 0;
#X connect 148 0 147 0;
#X connect 149 0 246 0;
#X connect 150 0 159 0;
#X connect 151 0 255 3;
#X connect 152 0 255 2;
#X connect 154 0 254 0;
#X connect 155 0 256 0;
#X connect 156 0 158 0;
#X connect 157 0 154 1;
#X connect 157 0 155 1;
#X connect 157 0 244 0;
#X connect 158 0 157 0;
#X connect 159 0 154 0;
#X connect 160 0 255 4;
#X connect 161 0 164 1;
#X connect 163 0 255 5;
#X connect 164 0 255 10;
#X connect 165 0 162 0;
#X connect 165 0 166 0;
#X connect 167 0 152 1;
#X connect 168 0 151 1;
#X connect 169 0 160 1;
#X connect 170 0 163 1;
#X connect 171 0 255 6;
#X connect 172 0 171 1;
#X connect 178 0 30 0;
#X connect 178 0 34 1;
#X connect 179 0 14 0;
#X connect 183 0 184 0;
#X connect 184 0 185 0;
#X connect 185 0 186 0;
#X connect 187 0 15 0;
#X connect 187 0 16 0;
#X connect 188 0 25 0;
#X connect 188 1 25 1;
#X connect 188 2 25 2;
#X connect 189 0 188 0;
#X connect 190 0 64 0;
#X connect 191 0 193 0;
#X connect 191 0 194 0;
#X connect 192 0 190 1;
#X connect 193 0 192 0;
#X connect 193 0 195 0;
#X connect 194 0 196 0;
#X connect 194 0 197 0;
#X connect 195 0 189 1;
#X connect 196 0 189 1;
#X connect 197 0 190 1;
#X connect 199 0 198 0;
#X connect 200 0 201 0;
#X connect 202 0 204 1;
#X connect 203 0 205 1;
#X connect 204 0 255 7;
#X connect 205 0 255 8;
#X connect 208 0 228 0;
#X connect 208 0 229 0;
#X connect 209 0 237 0;
#X connect 209 0 226 0;
#X connect 210 0 211 0;
#X connect 211 0 209 0;
#X connect 212 0 210 0;
#X connect 212 0 215 0;
#X connect 213 0 208 0;
#X connect 214 0 234 0;
#X connect 215 0 214 0;
#X connect 216 0 236 0;
#X connect 217 0 218 0;
#X connect 217 0 222 0;
#X connect 218 0 219 0;
#X connect 219 0 225 0;
#X connect 220 0 224 0;
#X connect 221 0 233 0;
#X connect 222 0 221 0;
#X connect 223 0 220 0;
#X connect 225 0 223 0;
#X connect 225 0 232 0;
#X connect 227 0 231 0;
#X connect 228 1 216 0;
#X connect 229 0 230 0;
#X connect 230 0 235 0;
#X connect 231 0 237 0;
#X connect 231 1 215 0;
#X connect 232 0 226 0;
#X connect 233 0 220 1;
#X connect 234 0 213 1;
#X connect 237 0 213 0;
#X connect 238 0 241 0;
#X connect 239 0 240 0;
#X connect 240 0 241 1;
#X connect 241 0 251 0;
#X connect 242 0 239 0;
#X connect 243 0 223 0;
#X connect 243 1 222 0;
#X connect 244 0 159 1;
#X connect 245 0 255 0;
#X connect 246 0 155 0;
#X connect 247 0 248 0;
#X connect 250 0 249 0;
#X connect 251 0 243 0;
#X connect 251 0 226 0;
#X connect 252 0 255 9;
#X connect 253 0 252 1;
#X connect 254 0 245 0;
#X connect 254 1 255 1;
#X connect 254 2 152 0;
#X connect 254 3 151 0;
#X connect 254 4 160 0;
#X connect 254 5 163 0;
#X connect 254 6 171 0;
#X connect 254 7 204 0;
#X connect 254 8 205 0;
#X connect 254 9 252 0;
#X connect 254 10 164 0;
#X connect 255 0 153 0;
#X connect 256 0 257 0;
#X connect 256 1 165 0;
#X connect 257 0 173 0;
#X connect 257 1 174 0;
#X connect 257 2 175 0;
#X connect 257 3 176 0;
#X connect 257 4 177 0;
#X connect 257 5 206 0;
#X connect 257 6 207 0;
#X connect 257 7 258 0;
#X coords 0 -1 1 1 404 216 1 100 100;
