#N canvas 0 0 1423 798 10;
#X obj 101 102 cnv 20 415 105 empty empty song 10 7 1 18 -66577 -260097
0;
#X obj 108 129 nbx 3 14 0 8 0 0 empty empty empty 0 -8 0 10 -54094
-260097 -1 0 256 0;
#X obj 412 122 vsl 25 60 0 127 0 0 \$0len \$0len_r length -8 -10 0
11 -99865 -260097 -262144 5900 1;
#X obj 467 141 bng 20 250 50 0 \$0restart \$0restart_ctl neustart -8
25 0 10 -99865 -260097 -262144;
#X obj 144 129 nbx 3 14 0 8 0 0 empty empty empty 0 -8 0 10 -54094
-260097 -1 0 256 0;
#X obj 180 129 nbx 3 14 0 8 0 0 empty empty empty 0 -8 0 10 -54094
-260097 -1 0 256 0;
#X obj 216 129 nbx 3 14 0 8 0 0 empty empty empty 0 -8 0 10 -54094
-260097 -1 0 256 0;
#X obj 259 129 nbx 3 14 0 8 0 0 empty empty empty 0 -8 0 10 -54094
-260097 -1 0 256 0;
#X obj 295 129 nbx 3 14 0 8 0 0 empty empty empty 0 -8 0 10 -54094
-260097 -1 0 256 0;
#X obj 331 129 nbx 3 14 0 8 0 0 empty empty empty 0 -8 0 10 -54094
-260097 -1 0 256 0;
#X obj 367 129 nbx 3 14 0 8 0 0 empty empty empty 0 -8 0 10 -54094
-260097 -1 0 256 0;
#X obj 108 148 nbx 3 14 0 8 0 0 empty empty empty 0 -8 0 10 -54094
-260097 -1 0 256 0;
#X obj 144 148 nbx 3 14 0 8 0 0 empty empty empty 0 -8 0 10 -54094
-260097 -1 0 256 0;
#X obj 180 148 nbx 3 14 0 8 0 0 empty empty empty 0 -8 0 10 -54094
-260097 -1 0 256 0;
#X obj 216 148 nbx 3 14 0 8 0 0 empty empty empty 0 -8 0 10 -54094
-260097 -1 0 256 0;
#X obj 259 148 nbx 3 14 0 8 0 0 empty empty empty 0 -8 0 10 -54094
-260097 -1 0 256 0;
#X obj 295 148 nbx 3 14 0 8 0 0 empty empty empty 0 -8 0 10 -54094
-260097 -1 0 256 0;
#X obj 331 148 nbx 3 14 0 8 0 0 empty empty empty 0 -8 0 10 -54094
-260097 -1 0 256 0;
#X obj 367 148 nbx 3 14 0 8 0 0 empty empty empty 0 -8 0 10 -54094
-260097 -1 0 256 0;
#X obj 108 167 nbx 3 14 0 8 0 0 empty empty empty 0 -8 0 10 -54094
-260097 -1 0 256 0;
#X obj 144 167 nbx 3 14 0 8 0 0 empty empty empty 0 -8 0 10 -54094
-260097 -1 0 256 0;
#X obj 180 167 nbx 3 14 0 8 0 0 empty empty empty 0 -8 0 10 -54094
-260097 -1 0 256 0;
#X obj 216 167 nbx 3 14 0 8 0 0 empty empty empty 0 -8 0 10 -54094
-260097 -1 0 256 0;
#X obj 259 167 nbx 3 14 0 8 0 0 empty empty empty 0 -8 0 10 -54094
-260097 -1 0 256 0;
#X obj 295 167 nbx 3 14 0 8 0 0 empty empty empty 0 -8 0 10 -54094
-260097 -1 0 256 0;
#X obj 331 167 nbx 3 14 0 8 0 0 empty empty empty 0 -8 0 10 -54094
-260097 -1 0 256 0;
#X obj 367 167 nbx 3 14 0 8 0 0 empty empty empty 0 -8 0 10 -54094
-260097 -1 0 256 0;
#X obj 108 186 nbx 3 14 0 8 0 0 empty empty empty 0 -8 0 10 -54094
-260097 -1 0 256 0;
#X obj 144 186 nbx 3 14 0 8 0 0 empty empty empty 0 -8 0 10 -54094
-260097 -1 0 256 0;
#X obj 180 186 nbx 3 14 0 8 0 0 empty empty empty 0 -8 0 10 -54094
-260097 -1 0 256 0;
#X obj 216 186 nbx 3 14 0 8 0 0 empty empty empty 0 -8 0 10 -54094
-260097 -1 0 256 0;
#X obj 259 186 nbx 3 14 0 8 0 0 empty empty empty 0 -8 0 10 -54094
-260097 -1 0 256 0;
#X obj 295 186 nbx 3 14 0 8 0 0 empty empty empty 0 -8 0 10 -54094
-260097 -1 0 256 0;
#X obj 331 186 nbx 3 14 0 8 0 0 empty empty empty 0 -8 0 10 -54094
-260097 -1 0 256 0;
#X obj 367 186 nbx 3 14 0 8 0 0 empty empty empty 0 -8 0 10 -54094
-260097 -1 0 256 0;
#X obj 412 189 nbx 3 14 1 32 0 0 empty \$0len_show empty 0 -8 0 10
-54094 -260097 -1 32 256 0;
#X obj -124 -161 / 4.09677;
#X obj -125 -195 r \$0len;
#X obj -122 -133 + 1;
#X obj -165 -57 s \$0len_show;
#X obj -149 -92 int;
#X floatatom -273 -295 5 0 0 0 - - -, f 5;
#X obj -274 -329 route Pulse;
#X obj -276 -164 sel 0;
#X obj -278 -118 f;
#X obj -245 -120 + 1;
#X obj -277 -81 mod 32;
#X obj -513 -115 loadbang;
#X msg -512 -91 127;
#X obj -514 -67 s \$0len_r;
#X obj -276 -54 + 1;
#X obj -163 275 f;
#X obj -153 285 f;
#X obj -143 295 f;
#X obj -133 305 f;
#X obj -123 315 f;
#X obj -113 325 f;
#X obj -103 335 f;
#X obj -93 345 f;
#X obj -83 355 f;
#X obj -73 365 f;
#X obj -63 375 f;
#X obj -53 385 f;
#X obj -43 395 f;
#X obj -33 405 f;
#X obj -23 415 f;
#X obj -13 425 f;
#X obj 6 445 f;
#X obj 16 455 f;
#X obj 26 465 f;
#X obj 36 475 f;
#X obj 46 485 f;
#X obj 56 495 f;
#X obj 66 505 f;
#X obj 76 515 f;
#X obj 86 525 f;
#X obj 96 535 f;
#X obj 106 545 f;
#X obj 116 555 f;
#X obj 126 565 f;
#X obj 136 575 f;
#X obj 146 585 f;
#X obj 156 595 f;
#X floatatom -290 530 5 0 0 0 - - -, f 5;
#X obj 467 121 nbx 3 14 1 32 0 0 \$0pos \$0len_show position -8 -9
0 10 -54094 -260097 -262144 32 256 0;
#X obj -604 50 sel 1 2 3 4 5 6 7 8 9 10 11 12 13 14 15 16 17 18 19
20 21 22 23 24 25 26 27 28 29 30 31 32;
#X obj -181 -257 r \$0restart;
#X msg -206 -188 0;
#X obj -285 640 outlet;
#X obj 488 185 nbx 1 18 -1e+037 1e+037 0 0 empty \$0out out -28 7 0
14 -54094 -260097 -262144 0 256 0;
#X obj -211 554 s \$0out;
#X obj 914 -629 r toolssavebank;
#X obj 1124 -712 r toolssavebang;
#X obj 1553 -594 f;
#X obj 1498 -600 f;
#X obj 1829 47 s toolssavelists;
#X obj 1153 -608 f;
#X obj 916 -511 route;
#X obj 1274 -767 loadbang;
#X obj 1275 -711 \$1;
#X obj 1274 -739 del 5;
#X obj 1153 -649 del;
#X obj 1588 -582 f;
#X obj 1682 -567 f;
#X obj 1626 -573 f;
#X obj 1718 -553 f;
#X obj 1777 -540 f;
#X obj -277 -364 inlet;
#X obj 1804 -517 f;
#X obj 1878 -450 f;
#X obj 1841 -489 f;
#X obj 1905 -425 f;
#X obj 1950 -350 f;
#X obj 1931 -392 f;
#X obj 1965 -313 f;
#X obj 1983 -277 f;
#X obj 1994 -243 f;
#X obj 1973 -554 f;
#X obj 1937 -557 f;
#X obj 2008 -542 f;
#X obj 2102 -527 f;
#X obj 2046 -533 f;
#X obj 2138 -513 f;
#X obj 2168 -483 f;
#X obj 2224 -453 f;
#X obj 2269 -396 f;
#X obj 2247 -429 f;
#X obj 2303 -371 f;
#X obj 2348 -296 f;
#X obj 2329 -338 f;
#X obj 2363 -259 f;
#X obj 2381 -223 f;
#X obj 2392 -189 f;
#X obj 1876 -698 t b f b b b b b b b b b b b b b b b b b b b b b b
b b b b b b b b b b b b;
#X obj 2428 -165 f;
#X obj 1802 -654 symbol song;
#X obj 916 -541 route song;
#X obj 911 -427 unpack f f f f f f f f f f f f f f f f f f f f f f
f f f f f f f f f f f;
#X obj 1346 -351 s \$0len_r;
#X obj 2443 -199 r \$0len;
#X obj 1822 -13 pack s f f f f f f f f f f f f f f f f f f f f f f
f f f f f f f f f f f f;
#X obj -287 605 spigot;
#X obj 371 108 tgl 15 0 \$0on \$0on_r on -25 3 0 18 -99865 -260097
-262144 0 1;
#X obj 357 28 inlet;
#X obj 257 23 inlet;
#X obj 475 25 inlet;
#X obj -232 591 r \$0on;
#X obj -430 -76 s \$0on_r;
#X msg -413 -108 0;
#X connect 1 0 51 1;
#X connect 1 0 94 1;
#X connect 4 0 52 1;
#X connect 4 0 93 1;
#X connect 5 0 53 1;
#X connect 5 0 102 1;
#X connect 6 0 54 1;
#X connect 6 0 104 1;
#X connect 7 0 55 1;
#X connect 7 0 103 1;
#X connect 8 0 56 1;
#X connect 8 0 105 1;
#X connect 9 0 57 1;
#X connect 9 0 106 1;
#X connect 10 0 58 1;
#X connect 10 0 108 1;
#X connect 11 0 59 1;
#X connect 11 0 110 1;
#X connect 12 0 60 1;
#X connect 12 0 109 1;
#X connect 13 0 61 1;
#X connect 13 0 111 1;
#X connect 14 0 62 1;
#X connect 14 0 113 1;
#X connect 15 0 63 1;
#X connect 15 0 112 1;
#X connect 16 0 64 1;
#X connect 16 0 114 1;
#X connect 17 0 65 1;
#X connect 17 0 115 1;
#X connect 18 0 66 1;
#X connect 18 0 116 1;
#X connect 19 0 67 1;
#X connect 19 0 118 1;
#X connect 20 0 68 1;
#X connect 20 0 117 1;
#X connect 21 0 69 1;
#X connect 21 0 119 1;
#X connect 22 0 70 1;
#X connect 22 0 121 1;
#X connect 23 0 71 1;
#X connect 23 0 120 1;
#X connect 24 0 72 1;
#X connect 24 0 122 1;
#X connect 25 0 73 1;
#X connect 25 0 123 1;
#X connect 26 0 74 1;
#X connect 26 0 124 1;
#X connect 27 0 75 1;
#X connect 27 0 126 1;
#X connect 28 0 76 1;
#X connect 28 0 125 1;
#X connect 29 0 77 1;
#X connect 29 0 127 1;
#X connect 30 0 78 1;
#X connect 30 0 129 1;
#X connect 31 0 79 1;
#X connect 31 0 128 1;
#X connect 32 0 80 1;
#X connect 32 0 130 1;
#X connect 33 0 81 1;
#X connect 33 0 131 1;
#X connect 34 0 82 1;
#X connect 34 0 132 1;
#X connect 36 0 38 0;
#X connect 37 0 36 0;
#X connect 38 0 40 0;
#X connect 40 0 39 0;
#X connect 40 0 46 1;
#X connect 41 0 43 0;
#X connect 42 0 41 0;
#X connect 43 0 44 0;
#X connect 44 0 45 0;
#X connect 44 0 46 0;
#X connect 45 0 44 1;
#X connect 46 0 50 0;
#X connect 47 0 48 0;
#X connect 47 0 148 0;
#X connect 48 0 49 0;
#X connect 50 0 84 0;
#X connect 50 0 85 0;
#X connect 51 0 83 0;
#X connect 52 0 83 0;
#X connect 53 0 83 0;
#X connect 54 0 83 0;
#X connect 55 0 83 0;
#X connect 56 0 83 0;
#X connect 57 0 83 0;
#X connect 58 0 83 0;
#X connect 59 0 83 0;
#X connect 60 0 83 0;
#X connect 61 0 83 0;
#X connect 62 0 83 0;
#X connect 63 0 83 0;
#X connect 64 0 83 0;
#X connect 65 0 83 0;
#X connect 66 0 83 0;
#X connect 67 0 83 0;
#X connect 68 0 83 0;
#X connect 69 0 83 0;
#X connect 70 0 83 0;
#X connect 71 0 83 0;
#X connect 72 0 83 0;
#X connect 73 0 83 0;
#X connect 74 0 83 0;
#X connect 75 0 83 0;
#X connect 76 0 83 0;
#X connect 77 0 83 0;
#X connect 78 0 83 0;
#X connect 79 0 83 0;
#X connect 80 0 83 0;
#X connect 81 0 83 0;
#X connect 82 0 83 0;
#X connect 83 0 90 0;
#X connect 83 0 141 0;
#X connect 85 0 51 0;
#X connect 85 1 52 0;
#X connect 85 2 53 0;
#X connect 85 3 54 0;
#X connect 85 4 55 0;
#X connect 85 5 56 0;
#X connect 85 6 57 0;
#X connect 85 7 58 0;
#X connect 85 8 59 0;
#X connect 85 9 60 0;
#X connect 85 10 61 0;
#X connect 85 11 62 0;
#X connect 85 12 63 0;
#X connect 85 13 64 0;
#X connect 85 14 65 0;
#X connect 85 15 66 0;
#X connect 85 16 67 0;
#X connect 85 17 68 0;
#X connect 85 18 69 0;
#X connect 85 19 70 0;
#X connect 85 20 71 0;
#X connect 85 21 72 0;
#X connect 85 22 73 0;
#X connect 85 23 74 0;
#X connect 85 24 75 0;
#X connect 85 25 76 0;
#X connect 85 26 77 0;
#X connect 85 27 78 0;
#X connect 85 28 79 0;
#X connect 85 29 80 0;
#X connect 85 30 81 0;
#X connect 85 31 82 0;
#X connect 86 0 87 0;
#X connect 87 0 44 1;
#X connect 91 0 136 0;
#X connect 92 0 101 0;
#X connect 93 0 140 3;
#X connect 94 0 140 2;
#X connect 96 0 133 0;
#X connect 97 0 137 0;
#X connect 98 0 100 0;
#X connect 99 0 96 1;
#X connect 99 0 97 1;
#X connect 99 0 101 1;
#X connect 100 0 99 0;
#X connect 101 0 96 0;
#X connect 102 0 140 4;
#X connect 103 0 140 6;
#X connect 104 0 140 5;
#X connect 105 0 140 7;
#X connect 106 0 140 8;
#X connect 107 0 42 0;
#X connect 108 0 140 9;
#X connect 109 0 140 11;
#X connect 110 0 140 10;
#X connect 111 0 140 12;
#X connect 112 0 140 14;
#X connect 113 0 140 13;
#X connect 114 0 140 15;
#X connect 115 0 140 16;
#X connect 116 0 140 17;
#X connect 117 0 140 19;
#X connect 118 0 140 18;
#X connect 119 0 140 20;
#X connect 120 0 140 22;
#X connect 121 0 140 21;
#X connect 122 0 140 23;
#X connect 123 0 140 24;
#X connect 124 0 140 25;
#X connect 125 0 140 27;
#X connect 126 0 140 26;
#X connect 127 0 140 28;
#X connect 128 0 140 30;
#X connect 129 0 140 29;
#X connect 130 0 140 31;
#X connect 131 0 140 32;
#X connect 132 0 140 33;
#X connect 133 0 135 0;
#X connect 133 1 140 1;
#X connect 133 2 94 0;
#X connect 133 3 93 0;
#X connect 133 4 102 0;
#X connect 133 5 104 0;
#X connect 133 6 103 0;
#X connect 133 7 105 0;
#X connect 133 8 106 0;
#X connect 133 9 108 0;
#X connect 133 10 110 0;
#X connect 133 11 109 0;
#X connect 133 12 111 0;
#X connect 133 13 113 0;
#X connect 133 14 112 0;
#X connect 133 15 114 0;
#X connect 133 16 115 0;
#X connect 133 17 116 0;
#X connect 133 18 118 0;
#X connect 133 19 117 0;
#X connect 133 20 119 0;
#X connect 133 21 121 0;
#X connect 133 22 120 0;
#X connect 133 23 122 0;
#X connect 133 24 123 0;
#X connect 133 25 124 0;
#X connect 133 26 126 0;
#X connect 133 27 125 0;
#X connect 133 28 127 0;
#X connect 133 29 129 0;
#X connect 133 30 128 0;
#X connect 133 31 130 0;
#X connect 133 32 131 0;
#X connect 133 33 132 0;
#X connect 133 34 134 0;
#X connect 134 0 140 34;
#X connect 135 0 140 0;
#X connect 136 0 97 0;
#X connect 137 0 1 0;
#X connect 137 1 4 0;
#X connect 137 2 5 0;
#X connect 137 3 6 0;
#X connect 137 4 7 0;
#X connect 137 5 8 0;
#X connect 137 6 9 0;
#X connect 137 7 10 0;
#X connect 137 8 11 0;
#X connect 137 9 12 0;
#X connect 137 10 13 0;
#X connect 137 11 14 0;
#X connect 137 12 15 0;
#X connect 137 13 16 0;
#X connect 137 14 17 0;
#X connect 137 15 18 0;
#X connect 137 16 19 0;
#X connect 137 17 20 0;
#X connect 137 18 21 0;
#X connect 137 19 22 0;
#X connect 137 20 23 0;
#X connect 137 21 24 0;
#X connect 137 22 25 0;
#X connect 137 23 26 0;
#X connect 137 24 27 0;
#X connect 137 25 28 0;
#X connect 137 26 29 0;
#X connect 137 27 30 0;
#X connect 137 28 31 0;
#X connect 137 29 32 0;
#X connect 137 30 33 0;
#X connect 137 31 34 0;
#X connect 137 32 138 0;
#X connect 139 0 134 1;
#X connect 140 0 95 0;
#X connect 141 0 88 0;
#X connect 143 0 2 0;
#X connect 144 0 142 0;
#X connect 145 0 3 0;
#X connect 146 0 141 1;
#X connect 148 0 147 0;
#X coords 0 -1 1 1 417 109 1 100 100;
