#N canvas 433 143 663 447 10;
#X obj 100 352 cnv 15 250 20 empty empty XY 110 7 0 18 -99865 -260097
0;
#X obj 101 101 grid grid1 250 0 127.009 250 0 127.009 0 0.01 0.01 10
10 152 194;
#X obj 106 354 nbx 5 16 -1e+037 1e+037 0 0 empty empty empty 0 -8 0
12 -99865 -262144 -1 25.9 256;
#X obj 109 461 outlet;
#X obj 277 458 outlet;
#X msg 39 34 color 252 128 0;
#X obj 39 -20 loadbang;
#X obj 39 6 del 5;
#X obj 283 354 nbx 5 16 -1e+037 1e+037 0 0 empty empty empty 0 -8 0
12 -99865 -262144 -1 79.7601 256;
#X obj 285 422 line 10;
#X msg 283 382 \$1 10;
#X obj 139 437 line 10;
#X msg 137 397 \$1 10;
#X connect 1 0 2 0;
#X connect 1 1 8 0;
#X connect 2 0 12 0;
#X connect 5 0 1 0;
#X connect 6 0 7 0;
#X connect 7 0 5 0;
#X connect 8 0 10 0;
#X connect 9 0 4 0;
#X connect 10 0 9 0;
#X connect 11 0 3 0;
#X connect 12 0 11 0;
#X coords 0 -1 1 1 252 275 1 100 100;
